M48
; DRILL file KiCad 10.0.4 date 2026-07-30T09:26:53
; FORMAT={-:-/ absolute / metric / decimal}
; #@! TF.CreationDate,2026-07-30T09:26:53+08:00
; #@! TF.GenerationSoftware,Kicad,Pcbnew,10.0.4
; #@! TF.FileFunction,Plated,1,4,PTH
FMAT,2
METRIC
; #@! TA.AperFunction,Plated,PTH,ViaDrill
T1C0.305
; #@! TA.AperFunction,Plated,PTH,ComponentDrill
T2C0.600
; #@! TA.AperFunction,Plated,PTH,ComponentDrill
T3C1.000
; #@! TA.AperFunction,Plated,PTH,ComponentDrill
T4C1.200
; #@! TA.AperFunction,Plated,PTH,ComponentDrill
T5C1.500
; #@! TA.AperFunction,Plated,PTH,ComponentDrill
T6C2.200
; #@! TA.AperFunction,Plated,PTH,ComponentDrill
T7C2.800
%
G90
G05
T1
X-46.536Y36.064
X-46.536Y-21.026
X-46.536Y-30.489
X-46.501Y8.066
X-46.469Y-11.003
X-45.495Y-10.081
X-44.974Y-0.799
X-44.215Y11.991
X-43.787Y-6.027
X-43.418Y-20.173
X-43.002Y-22.495
X-42.529Y-30.418
X-42.29Y-32.255
X-41.913Y-24.328
X-41.881Y12.861
X-41.857Y-26.902
X-41.713Y-21.012
X-41.707Y-25.087
X-41.503Y-22.211
X-41.5Y46.536
X-41.493Y-46.536
X-41.055Y-33.36
X-40.833Y19.617
X-40.577Y-26.943
X-40.204Y-22.114
X-40.198Y-17.429
X-39.26Y28.463
X-38.975Y-17.05
X-38.866Y-26.951
X-38.531Y-21.76
X-38.203Y-24.546
X-37.949Y-26.979
X-37.32Y-18.556
X-37.256Y-30.884
X-37.247Y-31.911
X-37.057Y-26.138
X-36.797Y-0.689
X-36.296Y-33.057
X-35.914Y0.316
X-35.836Y-16.48
X-35.725Y-34.576
X-35.221Y-30.568
X-35.155Y1.96
X-34.966Y-35.415
X-34.833Y-28.566
X-34.705Y12.424
X-34.667Y-21.019
X-34.653Y-26.296
X-34.522Y-31.68
X-33.973Y-21.962
X-33.799Y-24.948
X-33.603Y-25.769
X-33.524Y-22.445
X-33.355Y9.913
X-33.229Y-23.034
X-32.524Y-12.068
X-32.036Y46.536
X-31.181Y6.272
X-30.927Y-23.651
X-30.863Y21.848
X-30.451Y2.37
X-30.072Y-2.087
X-29.915Y35.49
X-28.92Y-17.95
X-27.599Y1.191
X-26.692Y-12.07
X-26.462Y-19.761
X-26.211Y-38.645
X-26.189Y6.781
X-25.914Y-22.161
X-25.515Y-20.473
X-25.491Y-1.213
X-24.747Y-18.175
X-24.717Y5.122
X-24.659Y-14.616
X-24.127Y-14.2
X-23.507Y-29.656
X-22.941Y-15.12
X-22.915Y-2.54
X-22.572Y46.536
X-22.5Y-1.764
X-22.145Y4.807
X-21.703Y-22.734
X-21.576Y-17.27
X-21.422Y41.797
X-21.064Y-42.594
X-20.321Y-17.412
X-20.027Y20.998
X-19.909Y3.138
X-19.696Y44.186
X-18.126Y-39.196
X-17.581Y30.696
X-16.329Y-5.076
X-15.417Y-4.882
X-14.961Y-16.653
X-13.565Y2.635
X-13.344Y-6.513
X-12.818Y-41.011
X-12.294Y-12.856
X-12.294Y-31.897
X-12.235Y25.253
X-12.235Y6.213
X-11.665Y6.884
X-10.98Y46.313
X-10.395Y-42.821
X-9.982Y39.828
X-9.243Y-41.131
X-8.993Y19.132
X-8.844Y17.048
X-8.73Y-37.086
X-8.173Y20.101
X-7.84Y-18.028
X-7.543Y-0.412
X-7.527Y-19.447
X-7.496Y-39.156
X-7.276Y1.834
X-7.149Y25.821
X-7.149Y-31.319
X-7.129Y-4.377
X-6.409Y-1.485
X-5.719Y-32.177
X-5.707Y-23.45
X-5.694Y24.755
X-5.664Y5.5
X-5.391Y-44.397
X-4.525Y-18.873
X-4.12Y-33.265
X-3.93Y24.799
X-3.831Y-15.738
X-3.766Y-9.121
X-3.669Y40.429
X-3.482Y18.256
X-3.48Y-45.518
X-3.47Y-37.193
X-2.865Y9.801
X-2.151Y43.415
X-1.983Y-21.916
X-1.83Y40.426
X-1.745Y37.867
X-1.619Y39.753
X-1.587Y-40.691
X-0.949Y-45.531
X-0.778Y43.941
X0.204Y16.184
X0.217Y4.401
X0.244Y-38.546
X0.839Y43.448
X0.892Y-31.387
X1.081Y8.475
X1.771Y40.388
X1.842Y39.226
X2.28Y5.391
X2.48Y38.9
X3.161Y7.979
X3.618Y29.531
X3.697Y-46.536
X4.205Y40.237
X4.884Y-35.465
X5.4Y43.084
X6.554Y22.014
X6.765Y25.244
X6.765Y-12.856
X6.765Y6.204
X6.765Y-31.896
X7.348Y-31.236
X7.348Y-12.196
X10.718Y46.461
X10.828Y19.655
X10.83Y-18.634
X10.855Y-2.47
X11.074Y-36.905
X11.312Y-42.084
X11.395Y0.641
X11.643Y-21.193
X11.911Y25.821
X11.911Y6.781
X11.983Y42.602
X12.164Y-45.357
X12.804Y15.715
X12.906Y18.901
X12.92Y-38.911
X12.94Y-19.113
X13.139Y-41.399
X13.157Y0.068
X13.295Y-32.086
X13.632Y-11.159
X13.645Y15.448
X14.377Y-18.092
X14.525Y3.323
X15.415Y0.842
X15.46Y-15.862
X15.919Y10.794
X16.728Y-34.12
X17.315Y-11.106
X17.547Y4.898
X18.939Y-41.874
X19.602Y-34.879
X19.688Y45.129
X20.29Y3.668
X20.606Y-2.866
X21.025Y-46.535
X21.245Y35.115
X21.446Y-19.542
X21.804Y-20.346
X23.875Y23.03
X25.806Y-12.856
X25.806Y6.203
X25.806Y-31.897
X26.295Y-35.885
X26.388Y6.864
X26.388Y-12.196
X30.298Y0.583
X30.317Y-37.438
X30.321Y-18.638
X30.329Y-0.516
X30.489Y-46.535
X31.091Y-20.139
X31.823Y-39.19
X32.233Y16.316
X32.407Y-13.735
X32.411Y5.054
X32.584Y37.923
X34.754Y1.262
X35.249Y26.634
X35.766Y-28.906
X36.264Y-16.039
X41.493Y46.536
X41.877Y18.841
X41.892Y-13.108
X42.789Y11.969
X43.547Y6.624
X43.547Y-2.84
X43.793Y-4.796
X44.463Y-19.89
X45.189Y11.801
X46.536Y30.49
X46.536Y21.026
X46.536Y-11.066
X46.536Y-29.993
X46.536Y-41.493
T3
X-35.575Y31.075
X-35.575Y28.575
X-35.575Y26.075
X-21.075Y31.075
X-21.075Y26.075
X19.845Y32.075
X19.845Y29.575
X19.845Y27.075
X26.075Y20.845
X28.575Y20.845
X31.075Y20.845
T4
X-28.575Y15.425
X-28.575Y-3.625
X-23.575Y13.325
X-23.575Y-5.725
X-9.525Y34.475
X-9.525Y15.425
X-9.525Y-3.625
X-9.525Y-22.675
X-4.525Y32.375
X-4.525Y13.325
X-4.525Y-5.725
X-4.525Y-24.775
X9.525Y34.475
X9.525Y15.425
X9.525Y-3.625
X9.525Y-22.675
X14.525Y32.375
X14.525Y13.325
X14.525Y-5.725
X14.525Y-24.775
X25.325Y39.825
X25.325Y35.325
X28.575Y15.425
X28.575Y-3.625
X28.575Y-22.675
X31.825Y39.825
X31.825Y35.325
X33.575Y13.325
X33.575Y-5.725
X33.575Y-24.775
T5
X22.25Y34.575
X22.25Y24.575
X34.9Y34.575
X34.9Y24.575
T6
X-42.5Y42.5
X-42.5Y-42.5
X42.5Y42.5
X42.5Y-42.5
T7
X-28.075Y34.175
X-28.075Y22.975
T2
G00X-4.32Y47.09
M15
G01X-4.32Y46.29
M16
G05
G00X-4.32Y43.06
M15
G01X-4.32Y41.96
M16
G05
G00X4.32Y47.09
M15
G01X4.32Y46.29
M16
G05
G00X4.32Y43.06
M15
G01X4.32Y41.96
M16
G05
T5
G00X-33.575Y4.625
M15
G01X-33.575Y4.125
M16
G05
G00X-33.575Y-14.425
M15
G01X-33.575Y-14.925
M16
G05
G00X-14.525Y23.675
M15
G01X-14.525Y23.175
M16
G05
G00X-14.525Y4.625
M15
G01X-14.525Y4.125
M16
G05
G00X-14.525Y-14.425
M15
G01X-14.525Y-14.925
M16
G05
G00X-14.525Y-33.475
M15
G01X-14.525Y-33.975
M16
G05
G00X4.525Y23.675
M15
G01X4.525Y23.175
M16
G05
G00X4.525Y4.625
M15
G01X4.525Y4.125
M16
G05
G00X4.525Y-14.425
M15
G01X4.525Y-14.925
M16
G05
G00X4.525Y-33.475
M15
G01X4.525Y-33.975
M16
G05
G00X23.575Y4.625
M15
G01X23.575Y4.125
M16
G05
G00X23.575Y-14.425
M15
G01X23.575Y-14.925
M16
G05
G00X23.575Y-33.475
M15
G01X23.575Y-33.975
M16
G05
M30
