%TF.GenerationSoftware,KiCad,Pcbnew,10.0.4*%
%TF.CreationDate,2026-08-10T16:17:23+08:00*%
%TF.ProjectId,openmicro,6f70656e-6d69-4637-926f-2e6b69636164,rev?*%
%TF.SameCoordinates,Original*%
%TF.FileFunction,Paste,Bot*%
%TF.FilePolarity,Positive*%
%FSLAX46Y46*%
G04 Gerber Fmt 4.6, Leading zero omitted, Abs format (unit mm)*
G04 Created by KiCad (PCBNEW 10.0.4) date 2026-08-10 16:17:23*
%MOMM*%
%LPD*%
G01*
G04 APERTURE LIST*
%ADD10R,0.540000X0.640000*%
%ADD11R,1.300000X1.050000*%
%ADD12R,0.640000X0.540000*%
%ADD13R,1.270000X3.430000*%
%ADD14R,1.350000X0.820000*%
%ADD15R,0.800000X0.550000*%
%ADD16R,0.950000X0.900000*%
%ADD17R,0.600000X1.200000*%
%ADD18R,0.300000X1.200000*%
%ADD19R,1.200000X0.300000*%
%ADD20R,0.800000X0.950000*%
%ADD21R,0.600000X1.640000*%
%ADD22R,0.300000X1.640000*%
G04 APERTURE END LIST*
D10*
%TO.C,R2*%
X-9459831Y39946551D03*
X-8439831Y39946551D03*
%TD*%
%TO.C,C29*%
X-43310000Y-31500000D03*
X-42290000Y-31500000D03*
%TD*%
D11*
%TO.C,Y1*%
X-38350000Y-32375000D03*
X-40650000Y-32375000D03*
X-40650000Y-30625000D03*
X-38350000Y-30625000D03*
%TD*%
D10*
%TO.C,C28*%
X-36710000Y-33800000D03*
X-35690000Y-33800000D03*
%TD*%
%TO.C,C17*%
X-42580456Y-30190905D03*
X-43600456Y-30190905D03*
%TD*%
D12*
%TO.C,C15*%
X-46148113Y-24025538D03*
X-46148113Y-25045538D03*
%TD*%
D13*
%TO.C,J2*%
X-2540000Y-45605000D03*
X-2540000Y-40395000D03*
X0Y-45605000D03*
X0Y-40395000D03*
X2540000Y-45605000D03*
X2540000Y-40395000D03*
%TD*%
D14*
%TO.C,LED19*%
X-12255000Y-32750000D03*
X-12255000Y-34250000D03*
X-6805000Y-34250000D03*
X-6805000Y-32750000D03*
%TD*%
D12*
%TO.C,C9*%
X31410481Y1951298D03*
X31410481Y931298D03*
%TD*%
D15*
%TO.C,U2*%
X-14993922Y-1612972D03*
X-14993922Y-2562972D03*
X-14993922Y-3512972D03*
X-17393922Y-3512972D03*
X-17393922Y-1612972D03*
%TD*%
D14*
%TO.C,LED21*%
X25845000Y-32750000D03*
X25845000Y-34250000D03*
X31295000Y-34250000D03*
X31295000Y-32750000D03*
%TD*%
%TO.C,LED17*%
X-12255000Y24390000D03*
X-12255000Y22890000D03*
X-6805000Y22890000D03*
X-6805000Y24390000D03*
%TD*%
%TO.C,LED27*%
X-12255000Y-13710000D03*
X-12255000Y-15210000D03*
X-6805000Y-15210000D03*
X-6805000Y-13710000D03*
%TD*%
D16*
%TO.C,D12*%
X14525000Y-19850000D03*
X14525000Y-16700000D03*
%TD*%
%TO.C,D6*%
X-23575000Y-800000D03*
X-23575000Y2350000D03*
%TD*%
D17*
%TO.C,U1*%
X-950000Y38350000D03*
X0Y38350000D03*
X950000Y38350000D03*
X950000Y36050000D03*
X0Y36050000D03*
X-950000Y36050000D03*
%TD*%
D16*
%TO.C,D5*%
X33575000Y-37400000D03*
X33575000Y-34250000D03*
%TD*%
D18*
%TO.C,U3*%
X-37250000Y-28250000D03*
X-37750000Y-28250000D03*
X-38250000Y-28250000D03*
X-38750000Y-28250000D03*
X-39250000Y-28250000D03*
X-39750000Y-28250000D03*
X-40250000Y-28250000D03*
X-40750000Y-28250000D03*
X-41250000Y-28250000D03*
X-41750000Y-28250000D03*
X-42250000Y-28250000D03*
X-42750000Y-28250000D03*
D19*
X-44250000Y-26750000D03*
X-44250000Y-26250000D03*
X-44250000Y-25750000D03*
X-44250000Y-25250000D03*
X-44250000Y-24750000D03*
X-44250000Y-24250000D03*
X-44250000Y-23750000D03*
X-44250000Y-23250000D03*
X-44250000Y-22750000D03*
X-44250000Y-22250000D03*
X-44250000Y-21750000D03*
X-44250000Y-21250000D03*
D18*
X-42750000Y-19750000D03*
X-42250000Y-19750000D03*
X-41750000Y-19750000D03*
X-41250000Y-19750000D03*
X-40750000Y-19750000D03*
X-40250000Y-19750000D03*
X-39750000Y-19750000D03*
X-39250000Y-19750000D03*
X-38750000Y-19750000D03*
X-38250000Y-19750000D03*
X-37750000Y-19750000D03*
X-37250000Y-19750000D03*
D19*
X-35750000Y-21250000D03*
X-35750000Y-21750000D03*
X-35750000Y-22250000D03*
X-35750000Y-22750000D03*
X-35750000Y-23250000D03*
X-35750000Y-23750000D03*
X-35750000Y-24250000D03*
X-35750000Y-24750000D03*
X-35750000Y-25250000D03*
X-35750000Y-25750000D03*
X-35750000Y-26250000D03*
X-35750000Y-26750000D03*
%TD*%
D16*
%TO.C,D7*%
X-4525000Y-800000D03*
X-4525000Y2350000D03*
%TD*%
D10*
%TO.C,C11*%
X-5006706Y-14975902D03*
X-3986706Y-14975902D03*
%TD*%
D12*
%TO.C,C6*%
X-25737956Y1951298D03*
X-25737956Y931298D03*
%TD*%
D14*
%TO.C,LED20*%
X6805000Y-32750000D03*
X6805000Y-34250000D03*
X12255000Y-34250000D03*
X12255000Y-32750000D03*
%TD*%
D12*
%TO.C,C7*%
X-6812175Y1951298D03*
X-6812175Y931298D03*
%TD*%
D16*
%TO.C,D9*%
X33575000Y-800000D03*
X33575000Y2350000D03*
%TD*%
%TO.C,D1*%
X-4525000Y18250000D03*
X-4525000Y21400000D03*
%TD*%
D12*
%TO.C,C5*%
X31410481Y-36271761D03*
X31410481Y-37291761D03*
%TD*%
D14*
%TO.C,LED23*%
X-12255000Y5350000D03*
X-12255000Y3850000D03*
X-6805000Y3850000D03*
X-6805000Y5350000D03*
%TD*%
D10*
%TO.C,C8*%
X13919075Y3950079D03*
X14939075Y3950079D03*
%TD*%
%TO.C,C2*%
X13919075Y22876059D03*
X14939075Y22876059D03*
%TD*%
%TO.C,C10*%
X-23932488Y-14975902D03*
X-22912488Y-14975902D03*
%TD*%
D16*
%TO.C,D10*%
X-23575000Y-19850000D03*
X-23575000Y-16700000D03*
%TD*%
D20*
%TO.C,C26*%
X-13306863Y-243093D03*
X-11656863Y-243093D03*
%TD*%
D12*
%TO.C,C1*%
X-6812175Y20877278D03*
X-6812175Y19857278D03*
%TD*%
D16*
%TO.C,D3*%
X-4525000Y-37400000D03*
X-4525000Y-34250000D03*
%TD*%
D12*
%TO.C,C3*%
X-6812175Y-36271761D03*
X-6812175Y-37291761D03*
%TD*%
D21*
%TO.C,J3*%
X-3200000Y41595000D03*
X-2400000Y41595000D03*
D22*
X-1250000Y41595000D03*
X-250000Y41595000D03*
X250000Y41595000D03*
X1250000Y41595000D03*
D21*
X2400000Y41595000D03*
X3200000Y41595000D03*
X3200000Y41595000D03*
X2400000Y41595000D03*
D22*
X1750000Y41595000D03*
X750000Y41595000D03*
X-750000Y41595000D03*
X-1750000Y41595000D03*
D21*
X-2400000Y41595000D03*
X-3200000Y41595000D03*
%TD*%
D16*
%TO.C,D8*%
X14525000Y-800000D03*
X14525000Y2350000D03*
%TD*%
%TO.C,D2*%
X14525000Y18250000D03*
X14525000Y21400000D03*
%TD*%
D14*
%TO.C,LED28*%
X6805000Y-13710000D03*
X6805000Y-15210000D03*
X12255000Y-15210000D03*
X12255000Y-13710000D03*
%TD*%
D16*
%TO.C,D13*%
X33575000Y-19850000D03*
X33575000Y-16700000D03*
%TD*%
D14*
%TO.C,LED25*%
X25845000Y5350000D03*
X25845000Y3850000D03*
X31295000Y3850000D03*
X31295000Y5350000D03*
%TD*%
%TO.C,LED26*%
X-31295000Y-13710000D03*
X-31295000Y-15210000D03*
X-25845000Y-15210000D03*
X-25845000Y-13710000D03*
%TD*%
D16*
%TO.C,D4*%
X14525000Y-37400000D03*
X14525000Y-34250000D03*
%TD*%
D14*
%TO.C,LED18*%
X6805000Y24390000D03*
X6805000Y22890000D03*
X12255000Y22890000D03*
X12255000Y24390000D03*
%TD*%
D10*
%TO.C,C13*%
X33215950Y-14975902D03*
X34235950Y-14975902D03*
%TD*%
D12*
%TO.C,C27*%
X-45034831Y-29963101D03*
X-45034831Y-30983101D03*
%TD*%
D14*
%TO.C,LED22*%
X-31295000Y5350000D03*
X-31295000Y3850000D03*
X-25845000Y3850000D03*
X-25845000Y5350000D03*
%TD*%
D12*
%TO.C,C4*%
X12113606Y-36271761D03*
X12113606Y-37291761D03*
%TD*%
D14*
%TO.C,LED29*%
X25845000Y-13710000D03*
X25845000Y-15210000D03*
X31295000Y-15210000D03*
X31295000Y-13710000D03*
%TD*%
D10*
%TO.C,C12*%
X13919075Y-14975902D03*
X14939075Y-14975902D03*
%TD*%
D12*
%TO.C,C16*%
X-40210613Y-17994683D03*
X-40210613Y-16974683D03*
%TD*%
D16*
%TO.C,D11*%
X-4525000Y-19850000D03*
X-4525000Y-16700000D03*
%TD*%
D14*
%TO.C,LED24*%
X6805000Y5350000D03*
X6805000Y3850000D03*
X12255000Y3850000D03*
X12255000Y5350000D03*
%TD*%
M02*
