%TF.GenerationSoftware,KiCad,Pcbnew,10.0.4*%
%TF.CreationDate,2026-08-10T16:17:23+08:00*%
%TF.ProjectId,openmicro,6f70656e-6d69-4637-926f-2e6b69636164,rev?*%
%TF.SameCoordinates,Original*%
%TF.FileFunction,Profile,NP*%
%FSLAX46Y46*%
G04 Gerber Fmt 4.6, Leading zero omitted, Abs format (unit mm)*
G04 Created by KiCad (PCBNEW 10.0.4) date 2026-08-10 16:17:23*
%MOMM*%
%LPD*%
G01*
G04 APERTURE LIST*
%TA.AperFunction,Profile*%
%ADD10C,0.100000*%
%TD*%
%TA.AperFunction,Profile*%
%ADD11C,0.050000*%
%TD*%
G04 APERTURE END LIST*
D10*
X-47500000Y41500000D02*
G75*
G02*
X-41500000Y47500000I6000002J-2D01*
G01*
X-47500000Y-41500000D02*
X-47500000Y41500000D01*
X-41500000Y47500000D02*
X41500000Y47500000D01*
X-41500000Y-47500000D02*
G75*
G02*
X-47500000Y-41500000I2J6000002D01*
G01*
X41500000Y47500000D02*
G75*
G02*
X47500000Y41500000I0J-6000000D01*
G01*
X41500000Y-47500000D02*
X-41500000Y-47500000D01*
X47500000Y41500000D02*
X47500000Y-41500000D01*
X47500000Y-41500000D02*
G75*
G02*
X41500000Y-47500000I-6000000J0D01*
G01*
%TO.C,LED8*%
D11*
X-45000000Y17533000D02*
X-42000000Y17533000D01*
X-42000000Y14133000D01*
X-45000000Y14133000D01*
X-45000000Y17533000D01*
%TO.C,LED1*%
X-17533000Y45000000D02*
X-14133000Y45000000D01*
X-14133000Y42000000D01*
X-17533000Y42000000D01*
X-17533000Y45000000D01*
%TO.C,LED2*%
X14133000Y45000000D02*
X17533000Y45000000D01*
X17533000Y42000000D01*
X14133000Y42000000D01*
X14133000Y45000000D01*
%TO.C,LED4*%
X42000000Y-14133000D02*
X45000000Y-14133000D01*
X45000000Y-17533000D01*
X42000000Y-17533000D01*
X42000000Y-14133000D01*
%TO.C,LED6*%
X-17533000Y-42000000D02*
X-14133000Y-42000000D01*
X-14133000Y-45000000D01*
X-17533000Y-45000000D01*
X-17533000Y-42000000D01*
%TO.C,LED7*%
X-45000000Y-14133000D02*
X-42000000Y-14133000D01*
X-42000000Y-17533000D01*
X-45000000Y-17533000D01*
X-45000000Y-14133000D01*
%TO.C,LED3*%
X42000000Y17533000D02*
X45000000Y17533000D01*
X45000000Y14133000D01*
X42000000Y14133000D01*
X42000000Y17533000D01*
%TO.C,LED5*%
X14133000Y-42000000D02*
X17533000Y-42000000D01*
X17533000Y-45000000D01*
X14133000Y-45000000D01*
X14133000Y-42000000D01*
%TO.C,LED19*%
X-11230000Y-32000000D02*
X-7830000Y-32000000D01*
X-7830000Y-35000000D01*
X-11230000Y-35000000D01*
X-11230000Y-32000000D01*
%TO.C,LED21*%
X26870000Y-32000000D02*
X30270000Y-32000000D01*
X30270000Y-35000000D01*
X26870000Y-35000000D01*
X26870000Y-32000000D01*
%TO.C,LED17*%
X-11230000Y25140000D02*
X-7830000Y25140000D01*
X-7830000Y22140000D01*
X-11230000Y22140000D01*
X-11230000Y25140000D01*
%TO.C,LED27*%
X-11230000Y-12960000D02*
X-7830000Y-12960000D01*
X-7830000Y-15960000D01*
X-11230000Y-15960000D01*
X-11230000Y-12960000D01*
%TO.C,LED20*%
X7830000Y-32000000D02*
X11230000Y-32000000D01*
X11230000Y-35000000D01*
X7830000Y-35000000D01*
X7830000Y-32000000D01*
%TO.C,LED23*%
X-11230000Y6100000D02*
X-7830000Y6100000D01*
X-7830000Y3100000D01*
X-11230000Y3100000D01*
X-11230000Y6100000D01*
%TO.C,LED28*%
X7830000Y-12960000D02*
X11230000Y-12960000D01*
X11230000Y-15960000D01*
X7830000Y-15960000D01*
X7830000Y-12960000D01*
%TO.C,LED25*%
X26870000Y6100000D02*
X30270000Y6100000D01*
X30270000Y3100000D01*
X26870000Y3100000D01*
X26870000Y6100000D01*
%TO.C,LED26*%
X-30270000Y-12960000D02*
X-26870000Y-12960000D01*
X-26870000Y-15960000D01*
X-30270000Y-15960000D01*
X-30270000Y-12960000D01*
%TO.C,LED18*%
X7830000Y25140000D02*
X11230000Y25140000D01*
X11230000Y22140000D01*
X7830000Y22140000D01*
X7830000Y25140000D01*
%TO.C,LED22*%
X-30270000Y6100000D02*
X-26870000Y6100000D01*
X-26870000Y3100000D01*
X-30270000Y3100000D01*
X-30270000Y6100000D01*
%TO.C,LED29*%
X26870000Y-12960000D02*
X30270000Y-12960000D01*
X30270000Y-15960000D01*
X26870000Y-15960000D01*
X26870000Y-12960000D01*
%TO.C,LED24*%
X7830000Y6100000D02*
X11230000Y6100000D01*
X11230000Y3100000D01*
X7830000Y3100000D01*
X7830000Y6100000D01*
%TD*%
M02*
