M48
; DRILL file KiCad 10.0.4 date 2026-08-10T16:17:23
; FORMAT={-:-/ absolute / metric / decimal}
; #@! TF.CreationDate,2026-08-10T16:17:23+08:00
; #@! TF.GenerationSoftware,Kicad,Pcbnew,10.0.4
; #@! TF.FileFunction,Plated,1,4,PTH
FMAT,2
METRIC
; #@! TA.AperFunction,Plated,PTH,ViaDrill
T1C0.305
; #@! TA.AperFunction,Plated,PTH,ComponentDrill
T2C0.600
; #@! TA.AperFunction,Plated,PTH,ComponentDrill
T3C1.000
; #@! TA.AperFunction,Plated,PTH,ComponentDrill
T4C1.200
; #@! TA.AperFunction,Plated,PTH,ComponentDrill
T5C1.500
; #@! TA.AperFunction,Plated,PTH,ComponentDrill
T6C2.200
; #@! TA.AperFunction,Plated,PTH,ComponentDrill
T7C2.800
%
G90
G05
T1
X-46.536Y31.951
X-46.536Y-17.714
X-46.429Y-31.605
X-46.169Y-25.714
X-45.754Y-30.78
X-45.574Y-7.392
X-45.255Y-21.867
X-44.928Y1.834
X-44.245Y-9.628
X-43.973Y-30.895
X-43.463Y-20.064
X-43.248Y-23.803
X-42.748Y-32.158
X-42.512Y-29.233
X-41.954Y12.84
X-41.838Y-26.9
X-41.836Y-20.796
X-41.5Y46.536
X-41.493Y-46.536
X-41.229Y-20.749
X-40.797Y-33.309
X-40.703Y-27.048
X-40.651Y-20.988
X-40.417Y15.342
X-40.28Y24.749
X-40.183Y-16.285
X-40.088Y-20.735
X-39.43Y-20.746
X-38.718Y-24.068
X-38.041Y-14.322
X-38.036Y-22.06
X-37.955Y36.99
X-37.555Y-18.75
X-37.359Y-13.848
X-37.292Y-29.843
X-36.76Y-29.455
X-36.757Y-26.027
X-36.691Y-31.744
X-36.408Y5.114
X-35.99Y-27.492
X-35.938Y-33.086
X-35.67Y-1.51
X-35.61Y-20.697
X-35.528Y-28.08
X-34.135Y-27.813
X-33.923Y-33.117
X-33.698Y-28.737
X-32.671Y19.466
X-32.612Y-18.228
X-32.036Y46.536
X-31.21Y-12.868
X-31.2Y6.199
X-30.575Y-46.536
X-29.318Y-21.168
X-26.749Y-12.046
X-26.74Y7.01
X-26.678Y-38.548
X-26.588Y-4.021
X-26.098Y-24.105
X-25.859Y37.356
X-25.744Y0.242
X-24.935Y-17.152
X-24.788Y-13.391
X-24.593Y-24.873
X-24.472Y-16.59
X-24.011Y1.399
X-23.475Y4.454
X-23.147Y16.941
X-22.7Y14.79
X-22.602Y-14.248
X-22.597Y6.336
X-22.572Y46.536
X-21.35Y5.708
X-21.287Y-27.951
X-20.972Y-0.52
X-20.899Y-20.063
X-20.123Y5.091
X-19.624Y42.726
X-19.292Y-12.144
X-18.693Y16.294
X-18.095Y26.91
X-18.082Y-10.716
X-16.032Y-2.443
X-15.757Y-1.202
X-13.511Y2.687
X-13.109Y46.536
X-13.002Y-41.953
X-12.298Y25.207
X-12.298Y-12.893
X-12.181Y6.16
X-12.181Y-31.94
X-12.013Y-16.396
X-11.88Y-2.737
X-11.858Y-46.395
X-11.729Y6.857
X-11.729Y-31.243
X-11.176Y34.029
X-10.873Y-0.243
X-9.703Y43.486
X-8.89Y17.01
X-8.637Y39.228
X-8.521Y-42.61
X-8.356Y-0.367
X-7.527Y19.783
X-7.149Y25.821
X-6.882Y-22.042
X-6.696Y-37.948
X-6.212Y-18.532
X-5.979Y39.997
X-5.842Y-32.066
X-5.735Y24.574
X-5.732Y-13.331
X-5.078Y-2.479
X-4.857Y-15.754
X-3.843Y-27.163
X-3.708Y-13.158
X-3.64Y18.339
X-3.626Y40.38
X-3.611Y24.36
X-3.574Y-45.437
X-3.43Y-2.134
X-3.43Y-14.401
X-2.915Y40.022
X-2.483Y-38.298
X-1.847Y39.957
X-1.674Y-33.58
X-1.241Y-41.364
X-1.099Y-39.499
X-0.87Y40.156
X-0.151Y16.232
X0.531Y11.853
X0.741Y39.372
X1.015Y40.403
X1.629Y37.353
X2.311Y33.194
X2.544Y21.201
X2.549Y40.109
X2.877Y-35.193
X3.264Y46.536
X3.825Y40.505
X4.819Y2.492
X6.762Y25.208
X6.762Y-12.892
X6.879Y6.16
X6.879Y-31.94
X6.971Y22.084
X6.971Y-16.016
X7.26Y40.655
X7.331Y-31.243
X7.834Y-46.536
X9.28Y-20.986
X9.545Y-44.616
X11.369Y-36.238
X11.911Y25.821
X11.911Y-12.279
X12.039Y42.841
X12.052Y-43.078
X12.293Y-31.948
X13.323Y-13.901
X13.335Y24.312
X13.39Y46.536
X13.629Y2.584
X13.638Y-37.338
X13.642Y-0.722
X14.939Y23.58
X14.989Y-28.689
X15.207Y9.954
X15.272Y-14.274
X15.614Y3.955
X17.297Y-46.536
X17.595Y17.362
X18.612Y-27.536
X18.915Y-41.954
X20.706Y-1.296
X20.754Y19.501
X22.394Y40.996
X23.14Y-35.577
X24.642Y-32.036
X25.802Y-12.893
X25.918Y-31.94
X25.919Y6.16
X26.013Y-16.015
X26.371Y6.857
X26.761Y-46.535
X28.304Y25.581
X30.397Y-12.049
X30.702Y0.961
X30.951Y-31.319
X31.336Y-12.883
X31.475Y-37.945
X32.711Y-16.574
X33.011Y14.935
X33.368Y-22.081
X33.559Y-33.377
X34.445Y-19.704
X34.484Y-31.803
X34.558Y-14.274
X35.073Y5.801
X35.092Y-16.405
X35.274Y1.385
X35.712Y36.271
X36.225Y-46.535
X41.493Y46.536
X41.953Y-12.772
X42.686Y19.62
X43.321Y10.155
X44.261Y-19.632
X45.222Y-44.891
X46.536Y30.49
X46.536Y21.026
X46.536Y11.562
X46.536Y2.098
X46.536Y-7.366
X46.536Y-16.829
X46.536Y-26.293
X46.536Y-35.757
T3
X-35.575Y31.075
X-35.575Y28.575
X-35.575Y26.075
X-21.075Y31.075
X-21.075Y26.075
X20.845Y32.075
X20.845Y29.575
X20.845Y27.075
X27.075Y20.845
X29.575Y20.845
X32.075Y20.845
T4
X-28.575Y15.425
X-28.575Y-3.625
X-23.575Y13.325
X-23.575Y-5.725
X-9.525Y34.475
X-9.525Y15.425
X-9.525Y-3.625
X-9.525Y-22.675
X-4.525Y32.375
X-4.525Y13.325
X-4.525Y-5.725
X-4.525Y-24.775
X9.525Y34.475
X9.525Y15.425
X9.525Y-3.625
X9.525Y-22.675
X14.525Y32.375
X14.525Y13.325
X14.525Y-5.725
X14.525Y-24.775
X26.325Y39.825
X26.325Y35.325
X28.575Y15.425
X28.575Y-3.625
X28.575Y-22.675
X32.825Y39.825
X32.825Y35.325
X33.575Y13.325
X33.575Y-5.725
X33.575Y-24.775
T5
X23.25Y34.575
X23.25Y24.575
X35.9Y34.575
X35.9Y24.575
T6
X-42.5Y42.5
X-42.5Y-42.5
X42.5Y42.5
X42.5Y-42.5
T7
X-28.075Y34.175
X-28.075Y22.975
T2
X-4.32Y47.09G85X-4.32Y46.29
G05
X-4.32Y43.06G85X-4.32Y41.96
G05
X4.32Y47.09G85X4.32Y46.29
G05
X4.32Y43.06G85X4.32Y41.96
G05
T5
X-33.575Y4.625G85X-33.575Y4.125
G05
X-33.575Y-14.425G85X-33.575Y-14.925
G05
X-14.525Y23.675G85X-14.525Y23.175
G05
X-14.525Y4.625G85X-14.525Y4.125
G05
X-14.525Y-14.425G85X-14.525Y-14.925
G05
X-14.525Y-33.475G85X-14.525Y-33.975
G05
X4.525Y23.675G85X4.525Y23.175
G05
X4.525Y4.625G85X4.525Y4.125
G05
X4.525Y-14.425G85X4.525Y-14.925
G05
X4.525Y-33.475G85X4.525Y-33.975
G05
X23.575Y4.625G85X23.575Y4.125
G05
X23.575Y-14.425G85X23.575Y-14.925
G05
X23.575Y-33.475G85X23.575Y-33.975
G05
M30
