%TF.GenerationSoftware,KiCad,Pcbnew,10.0.4*%
%TF.CreationDate,2026-08-10T16:17:23+08:00*%
%TF.ProjectId,openmicro,6f70656e-6d69-4637-926f-2e6b69636164,rev?*%
%TF.SameCoordinates,Original*%
%TF.FileFunction,Legend,Bot*%
%TF.FilePolarity,Positive*%
%FSLAX46Y46*%
G04 Gerber Fmt 4.6, Leading zero omitted, Abs format (unit mm)*
G04 Created by KiCad (PCBNEW 10.0.4) date 2026-08-10 16:17:23*
%MOMM*%
%LPD*%
G01*
G04 APERTURE LIST*
%ADD10C,0.158750*%
%ADD11C,0.250000*%
%ADD12C,0.300000*%
G04 APERTURE END LIST*
D10*
X-8738164Y38197279D02*
X-8314830Y38802041D01*
X-8012449Y38197279D02*
X-8012449Y39467279D01*
X-8012449Y39467279D02*
X-8496259Y39467279D01*
X-8496259Y39467279D02*
X-8617211Y39406803D01*
X-8617211Y39406803D02*
X-8677688Y39346327D01*
X-8677688Y39346327D02*
X-8738164Y39225375D01*
X-8738164Y39225375D02*
X-8738164Y39043946D01*
X-8738164Y39043946D02*
X-8677688Y38922994D01*
X-8677688Y38922994D02*
X-8617211Y38862517D01*
X-8617211Y38862517D02*
X-8496259Y38802041D01*
X-8496259Y38802041D02*
X-8012449Y38802041D01*
X-9221973Y39346327D02*
X-9282449Y39406803D01*
X-9282449Y39406803D02*
X-9403402Y39467279D01*
X-9403402Y39467279D02*
X-9705783Y39467279D01*
X-9705783Y39467279D02*
X-9826735Y39406803D01*
X-9826735Y39406803D02*
X-9887211Y39346327D01*
X-9887211Y39346327D02*
X-9947688Y39225375D01*
X-9947688Y39225375D02*
X-9947688Y39104422D01*
X-9947688Y39104422D02*
X-9887211Y38922994D01*
X-9887211Y38922994D02*
X-9161497Y38197279D01*
X-9161497Y38197279D02*
X-9947688Y38197279D01*
X-41983571Y-33128318D02*
X-41923095Y-33188795D01*
X-41923095Y-33188795D02*
X-41741666Y-33249271D01*
X-41741666Y-33249271D02*
X-41620714Y-33249271D01*
X-41620714Y-33249271D02*
X-41439285Y-33188795D01*
X-41439285Y-33188795D02*
X-41318333Y-33067842D01*
X-41318333Y-33067842D02*
X-41257856Y-32946890D01*
X-41257856Y-32946890D02*
X-41197380Y-32704985D01*
X-41197380Y-32704985D02*
X-41197380Y-32523556D01*
X-41197380Y-32523556D02*
X-41257856Y-32281652D01*
X-41257856Y-32281652D02*
X-41318333Y-32160699D01*
X-41318333Y-32160699D02*
X-41439285Y-32039747D01*
X-41439285Y-32039747D02*
X-41620714Y-31979271D01*
X-41620714Y-31979271D02*
X-41741666Y-31979271D01*
X-41741666Y-31979271D02*
X-41923095Y-32039747D01*
X-41923095Y-32039747D02*
X-41983571Y-32100223D01*
X-42467380Y-32100223D02*
X-42527856Y-32039747D01*
X-42527856Y-32039747D02*
X-42648809Y-31979271D01*
X-42648809Y-31979271D02*
X-42951190Y-31979271D01*
X-42951190Y-31979271D02*
X-43072142Y-32039747D01*
X-43072142Y-32039747D02*
X-43132618Y-32100223D01*
X-43132618Y-32100223D02*
X-43193095Y-32221175D01*
X-43193095Y-32221175D02*
X-43193095Y-32342128D01*
X-43193095Y-32342128D02*
X-43132618Y-32523556D01*
X-43132618Y-32523556D02*
X-42406904Y-33249271D01*
X-42406904Y-33249271D02*
X-43193095Y-33249271D01*
X-43797857Y-33249271D02*
X-44039761Y-33249271D01*
X-44039761Y-33249271D02*
X-44160714Y-33188795D01*
X-44160714Y-33188795D02*
X-44221190Y-33128318D01*
X-44221190Y-33128318D02*
X-44342142Y-32946890D01*
X-44342142Y-32946890D02*
X-44402619Y-32704985D01*
X-44402619Y-32704985D02*
X-44402619Y-32221175D01*
X-44402619Y-32221175D02*
X-44342142Y-32100223D01*
X-44342142Y-32100223D02*
X-44281666Y-32039747D01*
X-44281666Y-32039747D02*
X-44160714Y-31979271D01*
X-44160714Y-31979271D02*
X-43918809Y-31979271D01*
X-43918809Y-31979271D02*
X-43797857Y-32039747D01*
X-43797857Y-32039747D02*
X-43737380Y-32100223D01*
X-43737380Y-32100223D02*
X-43676904Y-32221175D01*
X-43676904Y-32221175D02*
X-43676904Y-32523556D01*
X-43676904Y-32523556D02*
X-43737380Y-32644509D01*
X-43737380Y-32644509D02*
X-43797857Y-32704985D01*
X-43797857Y-32704985D02*
X-43918809Y-32765461D01*
X-43918809Y-32765461D02*
X-44160714Y-32765461D01*
X-44160714Y-32765461D02*
X-44281666Y-32704985D01*
X-44281666Y-32704985D02*
X-44342142Y-32644509D01*
X-44342142Y-32644509D02*
X-44402619Y-32523556D01*
X-38895238Y-29274509D02*
X-38895238Y-29879271D01*
X-38471905Y-28609271D02*
X-38895238Y-29274509D01*
X-38895238Y-29274509D02*
X-39318572Y-28609271D01*
X-40407143Y-29879271D02*
X-39681428Y-29879271D01*
X-40044285Y-29879271D02*
X-40044285Y-28609271D01*
X-40044285Y-28609271D02*
X-39923333Y-28790699D01*
X-39923333Y-28790699D02*
X-39802381Y-28911652D01*
X-39802381Y-28911652D02*
X-39681428Y-28972128D01*
X-35383571Y-35428318D02*
X-35323095Y-35488795D01*
X-35323095Y-35488795D02*
X-35141666Y-35549271D01*
X-35141666Y-35549271D02*
X-35020714Y-35549271D01*
X-35020714Y-35549271D02*
X-34839285Y-35488795D01*
X-34839285Y-35488795D02*
X-34718333Y-35367842D01*
X-34718333Y-35367842D02*
X-34657856Y-35246890D01*
X-34657856Y-35246890D02*
X-34597380Y-35004985D01*
X-34597380Y-35004985D02*
X-34597380Y-34823556D01*
X-34597380Y-34823556D02*
X-34657856Y-34581652D01*
X-34657856Y-34581652D02*
X-34718333Y-34460699D01*
X-34718333Y-34460699D02*
X-34839285Y-34339747D01*
X-34839285Y-34339747D02*
X-35020714Y-34279271D01*
X-35020714Y-34279271D02*
X-35141666Y-34279271D01*
X-35141666Y-34279271D02*
X-35323095Y-34339747D01*
X-35323095Y-34339747D02*
X-35383571Y-34400223D01*
X-35867380Y-34400223D02*
X-35927856Y-34339747D01*
X-35927856Y-34339747D02*
X-36048809Y-34279271D01*
X-36048809Y-34279271D02*
X-36351190Y-34279271D01*
X-36351190Y-34279271D02*
X-36472142Y-34339747D01*
X-36472142Y-34339747D02*
X-36532618Y-34400223D01*
X-36532618Y-34400223D02*
X-36593095Y-34521175D01*
X-36593095Y-34521175D02*
X-36593095Y-34642128D01*
X-36593095Y-34642128D02*
X-36532618Y-34823556D01*
X-36532618Y-34823556D02*
X-35806904Y-35549271D01*
X-35806904Y-35549271D02*
X-36593095Y-35549271D01*
X-37318809Y-34823556D02*
X-37197857Y-34763080D01*
X-37197857Y-34763080D02*
X-37137380Y-34702604D01*
X-37137380Y-34702604D02*
X-37076904Y-34581652D01*
X-37076904Y-34581652D02*
X-37076904Y-34521175D01*
X-37076904Y-34521175D02*
X-37137380Y-34400223D01*
X-37137380Y-34400223D02*
X-37197857Y-34339747D01*
X-37197857Y-34339747D02*
X-37318809Y-34279271D01*
X-37318809Y-34279271D02*
X-37560714Y-34279271D01*
X-37560714Y-34279271D02*
X-37681666Y-34339747D01*
X-37681666Y-34339747D02*
X-37742142Y-34400223D01*
X-37742142Y-34400223D02*
X-37802619Y-34521175D01*
X-37802619Y-34521175D02*
X-37802619Y-34581652D01*
X-37802619Y-34581652D02*
X-37742142Y-34702604D01*
X-37742142Y-34702604D02*
X-37681666Y-34763080D01*
X-37681666Y-34763080D02*
X-37560714Y-34823556D01*
X-37560714Y-34823556D02*
X-37318809Y-34823556D01*
X-37318809Y-34823556D02*
X-37197857Y-34884033D01*
X-37197857Y-34884033D02*
X-37137380Y-34944509D01*
X-37137380Y-34944509D02*
X-37076904Y-35065461D01*
X-37076904Y-35065461D02*
X-37076904Y-35307366D01*
X-37076904Y-35307366D02*
X-37137380Y-35428318D01*
X-37137380Y-35428318D02*
X-37197857Y-35488795D01*
X-37197857Y-35488795D02*
X-37318809Y-35549271D01*
X-37318809Y-35549271D02*
X-37560714Y-35549271D01*
X-37560714Y-35549271D02*
X-37681666Y-35488795D01*
X-37681666Y-35488795D02*
X-37742142Y-35428318D01*
X-37742142Y-35428318D02*
X-37802619Y-35307366D01*
X-37802619Y-35307366D02*
X-37802619Y-35065461D01*
X-37802619Y-35065461D02*
X-37742142Y-34944509D01*
X-37742142Y-34944509D02*
X-37681666Y-34884033D01*
X-37681666Y-34884033D02*
X-37560714Y-34823556D01*
X-42274027Y-29479223D02*
X-42213551Y-29539700D01*
X-42213551Y-29539700D02*
X-42032122Y-29600176D01*
X-42032122Y-29600176D02*
X-41911170Y-29600176D01*
X-41911170Y-29600176D02*
X-41729741Y-29539700D01*
X-41729741Y-29539700D02*
X-41608789Y-29418747D01*
X-41608789Y-29418747D02*
X-41548312Y-29297795D01*
X-41548312Y-29297795D02*
X-41487836Y-29055890D01*
X-41487836Y-29055890D02*
X-41487836Y-28874461D01*
X-41487836Y-28874461D02*
X-41548312Y-28632557D01*
X-41548312Y-28632557D02*
X-41608789Y-28511604D01*
X-41608789Y-28511604D02*
X-41729741Y-28390652D01*
X-41729741Y-28390652D02*
X-41911170Y-28330176D01*
X-41911170Y-28330176D02*
X-42032122Y-28330176D01*
X-42032122Y-28330176D02*
X-42213551Y-28390652D01*
X-42213551Y-28390652D02*
X-42274027Y-28451128D01*
X-43483551Y-29600176D02*
X-42757836Y-29600176D01*
X-43120693Y-29600176D02*
X-43120693Y-28330176D01*
X-43120693Y-28330176D02*
X-42999741Y-28511604D01*
X-42999741Y-28511604D02*
X-42878789Y-28632557D01*
X-42878789Y-28632557D02*
X-42757836Y-28693033D01*
X-43906884Y-28330176D02*
X-44753551Y-28330176D01*
X-44753551Y-28330176D02*
X-44209265Y-29600176D01*
X-46859794Y-23719109D02*
X-46799318Y-23658633D01*
X-46799318Y-23658633D02*
X-46738841Y-23477204D01*
X-46738841Y-23477204D02*
X-46738841Y-23356252D01*
X-46738841Y-23356252D02*
X-46799318Y-23174823D01*
X-46799318Y-23174823D02*
X-46920270Y-23053871D01*
X-46920270Y-23053871D02*
X-47041222Y-22993394D01*
X-47041222Y-22993394D02*
X-47283127Y-22932918D01*
X-47283127Y-22932918D02*
X-47464556Y-22932918D01*
X-47464556Y-22932918D02*
X-47706460Y-22993394D01*
X-47706460Y-22993394D02*
X-47827413Y-23053871D01*
X-47827413Y-23053871D02*
X-47948365Y-23174823D01*
X-47948365Y-23174823D02*
X-48008841Y-23356252D01*
X-48008841Y-23356252D02*
X-48008841Y-23477204D01*
X-48008841Y-23477204D02*
X-47948365Y-23658633D01*
X-47948365Y-23658633D02*
X-47887889Y-23719109D01*
X-46738841Y-24928633D02*
X-46738841Y-24202918D01*
X-46738841Y-24565775D02*
X-48008841Y-24565775D01*
X-48008841Y-24565775D02*
X-47827413Y-24444823D01*
X-47827413Y-24444823D02*
X-47706460Y-24323871D01*
X-47706460Y-24323871D02*
X-47645984Y-24202918D01*
X-48008841Y-26077680D02*
X-48008841Y-25472918D01*
X-48008841Y-25472918D02*
X-47404079Y-25412442D01*
X-47404079Y-25412442D02*
X-47464556Y-25472918D01*
X-47464556Y-25472918D02*
X-47525032Y-25593871D01*
X-47525032Y-25593871D02*
X-47525032Y-25896252D01*
X-47525032Y-25896252D02*
X-47464556Y-26017204D01*
X-47464556Y-26017204D02*
X-47404079Y-26077680D01*
X-47404079Y-26077680D02*
X-47283127Y-26138157D01*
X-47283127Y-26138157D02*
X-46980746Y-26138157D01*
X-46980746Y-26138157D02*
X-46859794Y-26077680D01*
X-46859794Y-26077680D02*
X-46799318Y-26017204D01*
X-46799318Y-26017204D02*
X-46738841Y-25896252D01*
X-46738841Y-25896252D02*
X-46738841Y-25593871D01*
X-46738841Y-25593871D02*
X-46799318Y-25472918D01*
X-46799318Y-25472918D02*
X-46859794Y-25412442D01*
X423332Y-47309271D02*
X423332Y-48216414D01*
X423332Y-48216414D02*
X483809Y-48397842D01*
X483809Y-48397842D02*
X604761Y-48518795D01*
X604761Y-48518795D02*
X786190Y-48579271D01*
X786190Y-48579271D02*
X907142Y-48579271D01*
X-120952Y-47430223D02*
X-181428Y-47369747D01*
X-181428Y-47369747D02*
X-302381Y-47309271D01*
X-302381Y-47309271D02*
X-604762Y-47309271D01*
X-604762Y-47309271D02*
X-725714Y-47369747D01*
X-725714Y-47369747D02*
X-786190Y-47430223D01*
X-786190Y-47430223D02*
X-846667Y-47551175D01*
X-846667Y-47551175D02*
X-846667Y-47672128D01*
X-846667Y-47672128D02*
X-786190Y-47853556D01*
X-786190Y-47853556D02*
X-60476Y-48579271D01*
X-60476Y-48579271D02*
X-846667Y-48579271D01*
X-7504047Y-32079271D02*
X-6899285Y-32079271D01*
X-6899285Y-32079271D02*
X-6899285Y-30809271D01*
X-7927380Y-31414033D02*
X-8350714Y-31414033D01*
X-8532142Y-32079271D02*
X-7927380Y-32079271D01*
X-7927380Y-32079271D02*
X-7927380Y-30809271D01*
X-7927380Y-30809271D02*
X-8532142Y-30809271D01*
X-9076428Y-32079271D02*
X-9076428Y-30809271D01*
X-9076428Y-30809271D02*
X-9378809Y-30809271D01*
X-9378809Y-30809271D02*
X-9560238Y-30869747D01*
X-9560238Y-30869747D02*
X-9681190Y-30990699D01*
X-9681190Y-30990699D02*
X-9741667Y-31111652D01*
X-9741667Y-31111652D02*
X-9802143Y-31353556D01*
X-9802143Y-31353556D02*
X-9802143Y-31534985D01*
X-9802143Y-31534985D02*
X-9741667Y-31776890D01*
X-9741667Y-31776890D02*
X-9681190Y-31897842D01*
X-9681190Y-31897842D02*
X-9560238Y-32018795D01*
X-9560238Y-32018795D02*
X-9378809Y-32079271D01*
X-9378809Y-32079271D02*
X-9076428Y-32079271D01*
X-11011667Y-32079271D02*
X-10285952Y-32079271D01*
X-10648809Y-32079271D02*
X-10648809Y-30809271D01*
X-10648809Y-30809271D02*
X-10527857Y-30990699D01*
X-10527857Y-30990699D02*
X-10406905Y-31111652D01*
X-10406905Y-31111652D02*
X-10285952Y-31172128D01*
X-11616429Y-32079271D02*
X-11858333Y-32079271D01*
X-11858333Y-32079271D02*
X-11979286Y-32018795D01*
X-11979286Y-32018795D02*
X-12039762Y-31958318D01*
X-12039762Y-31958318D02*
X-12160714Y-31776890D01*
X-12160714Y-31776890D02*
X-12221191Y-31534985D01*
X-12221191Y-31534985D02*
X-12221191Y-31051175D01*
X-12221191Y-31051175D02*
X-12160714Y-30930223D01*
X-12160714Y-30930223D02*
X-12100238Y-30869747D01*
X-12100238Y-30869747D02*
X-11979286Y-30809271D01*
X-11979286Y-30809271D02*
X-11737381Y-30809271D01*
X-11737381Y-30809271D02*
X-11616429Y-30869747D01*
X-11616429Y-30869747D02*
X-11555952Y-30930223D01*
X-11555952Y-30930223D02*
X-11495476Y-31051175D01*
X-11495476Y-31051175D02*
X-11495476Y-31353556D01*
X-11495476Y-31353556D02*
X-11555952Y-31474509D01*
X-11555952Y-31474509D02*
X-11616429Y-31534985D01*
X-11616429Y-31534985D02*
X-11737381Y-31595461D01*
X-11737381Y-31595461D02*
X-11979286Y-31595461D01*
X-11979286Y-31595461D02*
X-12100238Y-31534985D01*
X-12100238Y-31534985D02*
X-12160714Y-31474509D01*
X-12160714Y-31474509D02*
X-12221191Y-31353556D01*
X30698799Y1652964D02*
X30759276Y1713440D01*
X30759276Y1713440D02*
X30819752Y1894869D01*
X30819752Y1894869D02*
X30819752Y2015821D01*
X30819752Y2015821D02*
X30759276Y2197250D01*
X30759276Y2197250D02*
X30638323Y2318202D01*
X30638323Y2318202D02*
X30517371Y2378679D01*
X30517371Y2378679D02*
X30275466Y2439155D01*
X30275466Y2439155D02*
X30094037Y2439155D01*
X30094037Y2439155D02*
X29852133Y2378679D01*
X29852133Y2378679D02*
X29731180Y2318202D01*
X29731180Y2318202D02*
X29610228Y2197250D01*
X29610228Y2197250D02*
X29549752Y2015821D01*
X29549752Y2015821D02*
X29549752Y1894869D01*
X29549752Y1894869D02*
X29610228Y1713440D01*
X29610228Y1713440D02*
X29670704Y1652964D01*
X30819752Y1048202D02*
X30819752Y806298D01*
X30819752Y806298D02*
X30759276Y685345D01*
X30759276Y685345D02*
X30698799Y624869D01*
X30698799Y624869D02*
X30517371Y503917D01*
X30517371Y503917D02*
X30275466Y443440D01*
X30275466Y443440D02*
X29791656Y443440D01*
X29791656Y443440D02*
X29670704Y503917D01*
X29670704Y503917D02*
X29610228Y564393D01*
X29610228Y564393D02*
X29549752Y685345D01*
X29549752Y685345D02*
X29549752Y927250D01*
X29549752Y927250D02*
X29610228Y1048202D01*
X29610228Y1048202D02*
X29670704Y1108679D01*
X29670704Y1108679D02*
X29791656Y1169155D01*
X29791656Y1169155D02*
X30094037Y1169155D01*
X30094037Y1169155D02*
X30214990Y1108679D01*
X30214990Y1108679D02*
X30275466Y1048202D01*
X30275466Y1048202D02*
X30335942Y927250D01*
X30335942Y927250D02*
X30335942Y685345D01*
X30335942Y685345D02*
X30275466Y564393D01*
X30275466Y564393D02*
X30214990Y503917D01*
X30214990Y503917D02*
X30094037Y443440D01*
X-15226302Y127756D02*
X-15226302Y-900338D01*
X-15226302Y-900338D02*
X-15286779Y-1021290D01*
X-15286779Y-1021290D02*
X-15347255Y-1081767D01*
X-15347255Y-1081767D02*
X-15468207Y-1142243D01*
X-15468207Y-1142243D02*
X-15710112Y-1142243D01*
X-15710112Y-1142243D02*
X-15831064Y-1081767D01*
X-15831064Y-1081767D02*
X-15891541Y-1021290D01*
X-15891541Y-1021290D02*
X-15952017Y-900338D01*
X-15952017Y-900338D02*
X-15952017Y127756D01*
X-16496302Y6804D02*
X-16556778Y67280D01*
X-16556778Y67280D02*
X-16677731Y127756D01*
X-16677731Y127756D02*
X-16980112Y127756D01*
X-16980112Y127756D02*
X-17101064Y67280D01*
X-17101064Y67280D02*
X-17161540Y6804D01*
X-17161540Y6804D02*
X-17222017Y-114147D01*
X-17222017Y-114147D02*
X-17222017Y-235100D01*
X-17222017Y-235100D02*
X-17161540Y-416528D01*
X-17161540Y-416528D02*
X-16435826Y-1142243D01*
X-16435826Y-1142243D02*
X-17222017Y-1142243D01*
X30595952Y-32079271D02*
X31200714Y-32079271D01*
X31200714Y-32079271D02*
X31200714Y-30809271D01*
X30172619Y-31414033D02*
X29749285Y-31414033D01*
X29567857Y-32079271D02*
X30172619Y-32079271D01*
X30172619Y-32079271D02*
X30172619Y-30809271D01*
X30172619Y-30809271D02*
X29567857Y-30809271D01*
X29023571Y-32079271D02*
X29023571Y-30809271D01*
X29023571Y-30809271D02*
X28721190Y-30809271D01*
X28721190Y-30809271D02*
X28539761Y-30869747D01*
X28539761Y-30869747D02*
X28418809Y-30990699D01*
X28418809Y-30990699D02*
X28358332Y-31111652D01*
X28358332Y-31111652D02*
X28297856Y-31353556D01*
X28297856Y-31353556D02*
X28297856Y-31534985D01*
X28297856Y-31534985D02*
X28358332Y-31776890D01*
X28358332Y-31776890D02*
X28418809Y-31897842D01*
X28418809Y-31897842D02*
X28539761Y-32018795D01*
X28539761Y-32018795D02*
X28721190Y-32079271D01*
X28721190Y-32079271D02*
X29023571Y-32079271D01*
X27814047Y-30930223D02*
X27753571Y-30869747D01*
X27753571Y-30869747D02*
X27632618Y-30809271D01*
X27632618Y-30809271D02*
X27330237Y-30809271D01*
X27330237Y-30809271D02*
X27209285Y-30869747D01*
X27209285Y-30869747D02*
X27148809Y-30930223D01*
X27148809Y-30930223D02*
X27088332Y-31051175D01*
X27088332Y-31051175D02*
X27088332Y-31172128D01*
X27088332Y-31172128D02*
X27148809Y-31353556D01*
X27148809Y-31353556D02*
X27874523Y-32079271D01*
X27874523Y-32079271D02*
X27088332Y-32079271D01*
X25878808Y-32079271D02*
X26604523Y-32079271D01*
X26241666Y-32079271D02*
X26241666Y-30809271D01*
X26241666Y-30809271D02*
X26362618Y-30990699D01*
X26362618Y-30990699D02*
X26483570Y-31111652D01*
X26483570Y-31111652D02*
X26604523Y-31172128D01*
X-7504047Y25060728D02*
X-6899285Y25060728D01*
X-6899285Y25060728D02*
X-6899285Y26330728D01*
X-7927380Y25725966D02*
X-8350714Y25725966D01*
X-8532142Y25060728D02*
X-7927380Y25060728D01*
X-7927380Y25060728D02*
X-7927380Y26330728D01*
X-7927380Y26330728D02*
X-8532142Y26330728D01*
X-9076428Y25060728D02*
X-9076428Y26330728D01*
X-9076428Y26330728D02*
X-9378809Y26330728D01*
X-9378809Y26330728D02*
X-9560238Y26270252D01*
X-9560238Y26270252D02*
X-9681190Y26149300D01*
X-9681190Y26149300D02*
X-9741667Y26028347D01*
X-9741667Y26028347D02*
X-9802143Y25786443D01*
X-9802143Y25786443D02*
X-9802143Y25605014D01*
X-9802143Y25605014D02*
X-9741667Y25363109D01*
X-9741667Y25363109D02*
X-9681190Y25242157D01*
X-9681190Y25242157D02*
X-9560238Y25121205D01*
X-9560238Y25121205D02*
X-9378809Y25060728D01*
X-9378809Y25060728D02*
X-9076428Y25060728D01*
X-11011667Y25060728D02*
X-10285952Y25060728D01*
X-10648809Y25060728D02*
X-10648809Y26330728D01*
X-10648809Y26330728D02*
X-10527857Y26149300D01*
X-10527857Y26149300D02*
X-10406905Y26028347D01*
X-10406905Y26028347D02*
X-10285952Y25967871D01*
X-11435000Y26330728D02*
X-12281667Y26330728D01*
X-12281667Y26330728D02*
X-11737381Y25060728D01*
X-7504047Y-13039271D02*
X-6899285Y-13039271D01*
X-6899285Y-13039271D02*
X-6899285Y-11769271D01*
X-7927380Y-12374033D02*
X-8350714Y-12374033D01*
X-8532142Y-13039271D02*
X-7927380Y-13039271D01*
X-7927380Y-13039271D02*
X-7927380Y-11769271D01*
X-7927380Y-11769271D02*
X-8532142Y-11769271D01*
X-9076428Y-13039271D02*
X-9076428Y-11769271D01*
X-9076428Y-11769271D02*
X-9378809Y-11769271D01*
X-9378809Y-11769271D02*
X-9560238Y-11829747D01*
X-9560238Y-11829747D02*
X-9681190Y-11950699D01*
X-9681190Y-11950699D02*
X-9741667Y-12071652D01*
X-9741667Y-12071652D02*
X-9802143Y-12313556D01*
X-9802143Y-12313556D02*
X-9802143Y-12494985D01*
X-9802143Y-12494985D02*
X-9741667Y-12736890D01*
X-9741667Y-12736890D02*
X-9681190Y-12857842D01*
X-9681190Y-12857842D02*
X-9560238Y-12978795D01*
X-9560238Y-12978795D02*
X-9378809Y-13039271D01*
X-9378809Y-13039271D02*
X-9076428Y-13039271D01*
X-10285952Y-11890223D02*
X-10346428Y-11829747D01*
X-10346428Y-11829747D02*
X-10467381Y-11769271D01*
X-10467381Y-11769271D02*
X-10769762Y-11769271D01*
X-10769762Y-11769271D02*
X-10890714Y-11829747D01*
X-10890714Y-11829747D02*
X-10951190Y-11890223D01*
X-10951190Y-11890223D02*
X-11011667Y-12011175D01*
X-11011667Y-12011175D02*
X-11011667Y-12132128D01*
X-11011667Y-12132128D02*
X-10951190Y-12313556D01*
X-10951190Y-12313556D02*
X-10225476Y-13039271D01*
X-10225476Y-13039271D02*
X-11011667Y-13039271D01*
X-11435000Y-11769271D02*
X-12281667Y-11769271D01*
X-12281667Y-11769271D02*
X-11737381Y-13039271D01*
X16404271Y-16732856D02*
X15134271Y-16732856D01*
X15134271Y-16732856D02*
X15134271Y-17035237D01*
X15134271Y-17035237D02*
X15194747Y-17216666D01*
X15194747Y-17216666D02*
X15315699Y-17337618D01*
X15315699Y-17337618D02*
X15436652Y-17398095D01*
X15436652Y-17398095D02*
X15678556Y-17458571D01*
X15678556Y-17458571D02*
X15859985Y-17458571D01*
X15859985Y-17458571D02*
X16101890Y-17398095D01*
X16101890Y-17398095D02*
X16222842Y-17337618D01*
X16222842Y-17337618D02*
X16343795Y-17216666D01*
X16343795Y-17216666D02*
X16404271Y-17035237D01*
X16404271Y-17035237D02*
X16404271Y-16732856D01*
X16404271Y-18668095D02*
X16404271Y-17942380D01*
X16404271Y-18305237D02*
X15134271Y-18305237D01*
X15134271Y-18305237D02*
X15315699Y-18184285D01*
X15315699Y-18184285D02*
X15436652Y-18063333D01*
X15436652Y-18063333D02*
X15497128Y-17942380D01*
X15255223Y-19151904D02*
X15194747Y-19212380D01*
X15194747Y-19212380D02*
X15134271Y-19333333D01*
X15134271Y-19333333D02*
X15134271Y-19635714D01*
X15134271Y-19635714D02*
X15194747Y-19756666D01*
X15194747Y-19756666D02*
X15255223Y-19817142D01*
X15255223Y-19817142D02*
X15376175Y-19877619D01*
X15376175Y-19877619D02*
X15497128Y-19877619D01*
X15497128Y-19877619D02*
X15678556Y-19817142D01*
X15678556Y-19817142D02*
X16404271Y-19091428D01*
X16404271Y-19091428D02*
X16404271Y-19877619D01*
X-21695728Y1712381D02*
X-22965728Y1712381D01*
X-22965728Y1712381D02*
X-22965728Y1410000D01*
X-22965728Y1410000D02*
X-22905252Y1228571D01*
X-22905252Y1228571D02*
X-22784300Y1107619D01*
X-22784300Y1107619D02*
X-22663347Y1047142D01*
X-22663347Y1047142D02*
X-22421443Y986666D01*
X-22421443Y986666D02*
X-22240014Y986666D01*
X-22240014Y986666D02*
X-21998109Y1047142D01*
X-21998109Y1047142D02*
X-21877157Y1107619D01*
X-21877157Y1107619D02*
X-21756205Y1228571D01*
X-21756205Y1228571D02*
X-21695728Y1410000D01*
X-21695728Y1410000D02*
X-21695728Y1712381D01*
X-22965728Y-101904D02*
X-22965728Y140000D01*
X-22965728Y140000D02*
X-22905252Y260952D01*
X-22905252Y260952D02*
X-22844776Y321428D01*
X-22844776Y321428D02*
X-22663347Y442381D01*
X-22663347Y442381D02*
X-22421443Y502857D01*
X-22421443Y502857D02*
X-21937633Y502857D01*
X-21937633Y502857D02*
X-21816681Y442381D01*
X-21816681Y442381D02*
X-21756205Y381904D01*
X-21756205Y381904D02*
X-21695728Y260952D01*
X-21695728Y260952D02*
X-21695728Y19047D01*
X-21695728Y19047D02*
X-21756205Y-101904D01*
X-21756205Y-101904D02*
X-21816681Y-162380D01*
X-21816681Y-162380D02*
X-21937633Y-222857D01*
X-21937633Y-222857D02*
X-22240014Y-222857D01*
X-22240014Y-222857D02*
X-22360966Y-162380D01*
X-22360966Y-162380D02*
X-22421443Y-101904D01*
X-22421443Y-101904D02*
X-22481919Y19047D01*
X-22481919Y19047D02*
X-22481919Y260952D01*
X-22481919Y260952D02*
X-22421443Y381904D01*
X-22421443Y381904D02*
X-22360966Y442381D01*
X-22360966Y442381D02*
X-22240014Y502857D01*
X-2690728Y38167619D02*
X-1662633Y38167619D01*
X-1662633Y38167619D02*
X-1541681Y38107142D01*
X-1541681Y38107142D02*
X-1481205Y38046666D01*
X-1481205Y38046666D02*
X-1420728Y37925714D01*
X-1420728Y37925714D02*
X-1420728Y37683809D01*
X-1420728Y37683809D02*
X-1481205Y37562857D01*
X-1481205Y37562857D02*
X-1541681Y37502380D01*
X-1541681Y37502380D02*
X-1662633Y37441904D01*
X-1662633Y37441904D02*
X-2690728Y37441904D01*
X-1420728Y36171904D02*
X-1420728Y36897619D01*
X-1420728Y36534762D02*
X-2690728Y36534762D01*
X-2690728Y36534762D02*
X-2509300Y36655714D01*
X-2509300Y36655714D02*
X-2388347Y36776666D01*
X-2388347Y36776666D02*
X-2327871Y36897619D01*
X35454271Y-34887618D02*
X34184271Y-34887618D01*
X34184271Y-34887618D02*
X34184271Y-35189999D01*
X34184271Y-35189999D02*
X34244747Y-35371428D01*
X34244747Y-35371428D02*
X34365699Y-35492380D01*
X34365699Y-35492380D02*
X34486652Y-35552857D01*
X34486652Y-35552857D02*
X34728556Y-35613333D01*
X34728556Y-35613333D02*
X34909985Y-35613333D01*
X34909985Y-35613333D02*
X35151890Y-35552857D01*
X35151890Y-35552857D02*
X35272842Y-35492380D01*
X35272842Y-35492380D02*
X35393795Y-35371428D01*
X35393795Y-35371428D02*
X35454271Y-35189999D01*
X35454271Y-35189999D02*
X35454271Y-34887618D01*
X34184271Y-36762380D02*
X34184271Y-36157618D01*
X34184271Y-36157618D02*
X34789033Y-36097142D01*
X34789033Y-36097142D02*
X34728556Y-36157618D01*
X34728556Y-36157618D02*
X34668080Y-36278571D01*
X34668080Y-36278571D02*
X34668080Y-36580952D01*
X34668080Y-36580952D02*
X34728556Y-36701904D01*
X34728556Y-36701904D02*
X34789033Y-36762380D01*
X34789033Y-36762380D02*
X34909985Y-36822857D01*
X34909985Y-36822857D02*
X35212366Y-36822857D01*
X35212366Y-36822857D02*
X35333318Y-36762380D01*
X35333318Y-36762380D02*
X35393795Y-36701904D01*
X35393795Y-36701904D02*
X35454271Y-36580952D01*
X35454271Y-36580952D02*
X35454271Y-36278571D01*
X35454271Y-36278571D02*
X35393795Y-36157618D01*
X35393795Y-36157618D02*
X35333318Y-36097142D01*
X-35490728Y-23032380D02*
X-34462633Y-23032380D01*
X-34462633Y-23032380D02*
X-34341681Y-23092857D01*
X-34341681Y-23092857D02*
X-34281205Y-23153333D01*
X-34281205Y-23153333D02*
X-34220728Y-23274285D01*
X-34220728Y-23274285D02*
X-34220728Y-23516190D01*
X-34220728Y-23516190D02*
X-34281205Y-23637142D01*
X-34281205Y-23637142D02*
X-34341681Y-23697619D01*
X-34341681Y-23697619D02*
X-34462633Y-23758095D01*
X-34462633Y-23758095D02*
X-35490728Y-23758095D01*
X-35490728Y-24241904D02*
X-35490728Y-25028095D01*
X-35490728Y-25028095D02*
X-35006919Y-24604761D01*
X-35006919Y-24604761D02*
X-35006919Y-24786190D01*
X-35006919Y-24786190D02*
X-34946443Y-24907142D01*
X-34946443Y-24907142D02*
X-34885966Y-24967618D01*
X-34885966Y-24967618D02*
X-34765014Y-25028095D01*
X-34765014Y-25028095D02*
X-34462633Y-25028095D01*
X-34462633Y-25028095D02*
X-34341681Y-24967618D01*
X-34341681Y-24967618D02*
X-34281205Y-24907142D01*
X-34281205Y-24907142D02*
X-34220728Y-24786190D01*
X-34220728Y-24786190D02*
X-34220728Y-24423333D01*
X-34220728Y-24423333D02*
X-34281205Y-24302380D01*
X-34281205Y-24302380D02*
X-34341681Y-24241904D01*
X-2645728Y1712381D02*
X-3915728Y1712381D01*
X-3915728Y1712381D02*
X-3915728Y1410000D01*
X-3915728Y1410000D02*
X-3855252Y1228571D01*
X-3855252Y1228571D02*
X-3734300Y1107619D01*
X-3734300Y1107619D02*
X-3613347Y1047142D01*
X-3613347Y1047142D02*
X-3371443Y986666D01*
X-3371443Y986666D02*
X-3190014Y986666D01*
X-3190014Y986666D02*
X-2948109Y1047142D01*
X-2948109Y1047142D02*
X-2827157Y1107619D01*
X-2827157Y1107619D02*
X-2706205Y1228571D01*
X-2706205Y1228571D02*
X-2645728Y1410000D01*
X-2645728Y1410000D02*
X-2645728Y1712381D01*
X-3915728Y563333D02*
X-3915728Y-283333D01*
X-3915728Y-283333D02*
X-2645728Y260952D01*
X-3680277Y-16604220D02*
X-3619801Y-16664697D01*
X-3619801Y-16664697D02*
X-3438372Y-16725173D01*
X-3438372Y-16725173D02*
X-3317420Y-16725173D01*
X-3317420Y-16725173D02*
X-3135991Y-16664697D01*
X-3135991Y-16664697D02*
X-3015039Y-16543744D01*
X-3015039Y-16543744D02*
X-2954562Y-16422792D01*
X-2954562Y-16422792D02*
X-2894086Y-16180887D01*
X-2894086Y-16180887D02*
X-2894086Y-15999458D01*
X-2894086Y-15999458D02*
X-2954562Y-15757554D01*
X-2954562Y-15757554D02*
X-3015039Y-15636601D01*
X-3015039Y-15636601D02*
X-3135991Y-15515649D01*
X-3135991Y-15515649D02*
X-3317420Y-15455173D01*
X-3317420Y-15455173D02*
X-3438372Y-15455173D01*
X-3438372Y-15455173D02*
X-3619801Y-15515649D01*
X-3619801Y-15515649D02*
X-3680277Y-15576125D01*
X-4889801Y-16725173D02*
X-4164086Y-16725173D01*
X-4526943Y-16725173D02*
X-4526943Y-15455173D01*
X-4526943Y-15455173D02*
X-4405991Y-15636601D01*
X-4405991Y-15636601D02*
X-4285039Y-15757554D01*
X-4285039Y-15757554D02*
X-4164086Y-15818030D01*
X-6099325Y-16725173D02*
X-5373610Y-16725173D01*
X-5736467Y-16725173D02*
X-5736467Y-15455173D01*
X-5736467Y-15455173D02*
X-5615515Y-15636601D01*
X-5615515Y-15636601D02*
X-5494563Y-15757554D01*
X-5494563Y-15757554D02*
X-5373610Y-15818030D01*
X-26449637Y1652964D02*
X-26389161Y1713440D01*
X-26389161Y1713440D02*
X-26328684Y1894869D01*
X-26328684Y1894869D02*
X-26328684Y2015821D01*
X-26328684Y2015821D02*
X-26389161Y2197250D01*
X-26389161Y2197250D02*
X-26510113Y2318202D01*
X-26510113Y2318202D02*
X-26631065Y2378679D01*
X-26631065Y2378679D02*
X-26872970Y2439155D01*
X-26872970Y2439155D02*
X-27054399Y2439155D01*
X-27054399Y2439155D02*
X-27296303Y2378679D01*
X-27296303Y2378679D02*
X-27417256Y2318202D01*
X-27417256Y2318202D02*
X-27538208Y2197250D01*
X-27538208Y2197250D02*
X-27598684Y2015821D01*
X-27598684Y2015821D02*
X-27598684Y1894869D01*
X-27598684Y1894869D02*
X-27538208Y1713440D01*
X-27538208Y1713440D02*
X-27477732Y1652964D01*
X-27598684Y564393D02*
X-27598684Y806298D01*
X-27598684Y806298D02*
X-27538208Y927250D01*
X-27538208Y927250D02*
X-27477732Y987726D01*
X-27477732Y987726D02*
X-27296303Y1108679D01*
X-27296303Y1108679D02*
X-27054399Y1169155D01*
X-27054399Y1169155D02*
X-26570589Y1169155D01*
X-26570589Y1169155D02*
X-26449637Y1108679D01*
X-26449637Y1108679D02*
X-26389161Y1048202D01*
X-26389161Y1048202D02*
X-26328684Y927250D01*
X-26328684Y927250D02*
X-26328684Y685345D01*
X-26328684Y685345D02*
X-26389161Y564393D01*
X-26389161Y564393D02*
X-26449637Y503917D01*
X-26449637Y503917D02*
X-26570589Y443440D01*
X-26570589Y443440D02*
X-26872970Y443440D01*
X-26872970Y443440D02*
X-26993922Y503917D01*
X-26993922Y503917D02*
X-27054399Y564393D01*
X-27054399Y564393D02*
X-27114875Y685345D01*
X-27114875Y685345D02*
X-27114875Y927250D01*
X-27114875Y927250D02*
X-27054399Y1048202D01*
X-27054399Y1048202D02*
X-26993922Y1108679D01*
X-26993922Y1108679D02*
X-26872970Y1169155D01*
X11555952Y-32079271D02*
X12160714Y-32079271D01*
X12160714Y-32079271D02*
X12160714Y-30809271D01*
X11132619Y-31414033D02*
X10709285Y-31414033D01*
X10527857Y-32079271D02*
X11132619Y-32079271D01*
X11132619Y-32079271D02*
X11132619Y-30809271D01*
X11132619Y-30809271D02*
X10527857Y-30809271D01*
X9983571Y-32079271D02*
X9983571Y-30809271D01*
X9983571Y-30809271D02*
X9681190Y-30809271D01*
X9681190Y-30809271D02*
X9499761Y-30869747D01*
X9499761Y-30869747D02*
X9378809Y-30990699D01*
X9378809Y-30990699D02*
X9318332Y-31111652D01*
X9318332Y-31111652D02*
X9257856Y-31353556D01*
X9257856Y-31353556D02*
X9257856Y-31534985D01*
X9257856Y-31534985D02*
X9318332Y-31776890D01*
X9318332Y-31776890D02*
X9378809Y-31897842D01*
X9378809Y-31897842D02*
X9499761Y-32018795D01*
X9499761Y-32018795D02*
X9681190Y-32079271D01*
X9681190Y-32079271D02*
X9983571Y-32079271D01*
X8774047Y-30930223D02*
X8713571Y-30869747D01*
X8713571Y-30869747D02*
X8592618Y-30809271D01*
X8592618Y-30809271D02*
X8290237Y-30809271D01*
X8290237Y-30809271D02*
X8169285Y-30869747D01*
X8169285Y-30869747D02*
X8108809Y-30930223D01*
X8108809Y-30930223D02*
X8048332Y-31051175D01*
X8048332Y-31051175D02*
X8048332Y-31172128D01*
X8048332Y-31172128D02*
X8108809Y-31353556D01*
X8108809Y-31353556D02*
X8834523Y-32079271D01*
X8834523Y-32079271D02*
X8048332Y-32079271D01*
X7262142Y-30809271D02*
X7141189Y-30809271D01*
X7141189Y-30809271D02*
X7020237Y-30869747D01*
X7020237Y-30869747D02*
X6959761Y-30930223D01*
X6959761Y-30930223D02*
X6899285Y-31051175D01*
X6899285Y-31051175D02*
X6838808Y-31293080D01*
X6838808Y-31293080D02*
X6838808Y-31595461D01*
X6838808Y-31595461D02*
X6899285Y-31837366D01*
X6899285Y-31837366D02*
X6959761Y-31958318D01*
X6959761Y-31958318D02*
X7020237Y-32018795D01*
X7020237Y-32018795D02*
X7141189Y-32079271D01*
X7141189Y-32079271D02*
X7262142Y-32079271D01*
X7262142Y-32079271D02*
X7383094Y-32018795D01*
X7383094Y-32018795D02*
X7443570Y-31958318D01*
X7443570Y-31958318D02*
X7504047Y-31837366D01*
X7504047Y-31837366D02*
X7564523Y-31595461D01*
X7564523Y-31595461D02*
X7564523Y-31293080D01*
X7564523Y-31293080D02*
X7504047Y-31051175D01*
X7504047Y-31051175D02*
X7443570Y-30930223D01*
X7443570Y-30930223D02*
X7383094Y-30869747D01*
X7383094Y-30869747D02*
X7262142Y-30809271D01*
X-7523856Y1652964D02*
X-7463380Y1713440D01*
X-7463380Y1713440D02*
X-7402903Y1894869D01*
X-7402903Y1894869D02*
X-7402903Y2015821D01*
X-7402903Y2015821D02*
X-7463380Y2197250D01*
X-7463380Y2197250D02*
X-7584332Y2318202D01*
X-7584332Y2318202D02*
X-7705284Y2378679D01*
X-7705284Y2378679D02*
X-7947189Y2439155D01*
X-7947189Y2439155D02*
X-8128618Y2439155D01*
X-8128618Y2439155D02*
X-8370522Y2378679D01*
X-8370522Y2378679D02*
X-8491475Y2318202D01*
X-8491475Y2318202D02*
X-8612427Y2197250D01*
X-8612427Y2197250D02*
X-8672903Y2015821D01*
X-8672903Y2015821D02*
X-8672903Y1894869D01*
X-8672903Y1894869D02*
X-8612427Y1713440D01*
X-8612427Y1713440D02*
X-8551951Y1652964D01*
X-8672903Y1229631D02*
X-8672903Y382964D01*
X-8672903Y382964D02*
X-7402903Y927250D01*
X35454271Y1712381D02*
X34184271Y1712381D01*
X34184271Y1712381D02*
X34184271Y1410000D01*
X34184271Y1410000D02*
X34244747Y1228571D01*
X34244747Y1228571D02*
X34365699Y1107619D01*
X34365699Y1107619D02*
X34486652Y1047142D01*
X34486652Y1047142D02*
X34728556Y986666D01*
X34728556Y986666D02*
X34909985Y986666D01*
X34909985Y986666D02*
X35151890Y1047142D01*
X35151890Y1047142D02*
X35272842Y1107619D01*
X35272842Y1107619D02*
X35393795Y1228571D01*
X35393795Y1228571D02*
X35454271Y1410000D01*
X35454271Y1410000D02*
X35454271Y1712381D01*
X35454271Y381904D02*
X35454271Y140000D01*
X35454271Y140000D02*
X35393795Y19047D01*
X35393795Y19047D02*
X35333318Y-41428D01*
X35333318Y-41428D02*
X35151890Y-162380D01*
X35151890Y-162380D02*
X34909985Y-222857D01*
X34909985Y-222857D02*
X34426175Y-222857D01*
X34426175Y-222857D02*
X34305223Y-162380D01*
X34305223Y-162380D02*
X34244747Y-101904D01*
X34244747Y-101904D02*
X34184271Y19047D01*
X34184271Y19047D02*
X34184271Y260952D01*
X34184271Y260952D02*
X34244747Y381904D01*
X34244747Y381904D02*
X34305223Y442381D01*
X34305223Y442381D02*
X34426175Y502857D01*
X34426175Y502857D02*
X34728556Y502857D01*
X34728556Y502857D02*
X34849509Y442381D01*
X34849509Y442381D02*
X34909985Y381904D01*
X34909985Y381904D02*
X34970461Y260952D01*
X34970461Y260952D02*
X34970461Y19047D01*
X34970461Y19047D02*
X34909985Y-101904D01*
X34909985Y-101904D02*
X34849509Y-162380D01*
X34849509Y-162380D02*
X34728556Y-222857D01*
X-2645728Y20762381D02*
X-3915728Y20762381D01*
X-3915728Y20762381D02*
X-3915728Y20460000D01*
X-3915728Y20460000D02*
X-3855252Y20278571D01*
X-3855252Y20278571D02*
X-3734300Y20157619D01*
X-3734300Y20157619D02*
X-3613347Y20097142D01*
X-3613347Y20097142D02*
X-3371443Y20036666D01*
X-3371443Y20036666D02*
X-3190014Y20036666D01*
X-3190014Y20036666D02*
X-2948109Y20097142D01*
X-2948109Y20097142D02*
X-2827157Y20157619D01*
X-2827157Y20157619D02*
X-2706205Y20278571D01*
X-2706205Y20278571D02*
X-2645728Y20460000D01*
X-2645728Y20460000D02*
X-2645728Y20762381D01*
X-2645728Y18827142D02*
X-2645728Y19552857D01*
X-2645728Y19190000D02*
X-3915728Y19190000D01*
X-3915728Y19190000D02*
X-3734300Y19310952D01*
X-3734300Y19310952D02*
X-3613347Y19431904D01*
X-3613347Y19431904D02*
X-3552871Y19552857D01*
X30698799Y-36570094D02*
X30759276Y-36509618D01*
X30759276Y-36509618D02*
X30819752Y-36328189D01*
X30819752Y-36328189D02*
X30819752Y-36207237D01*
X30819752Y-36207237D02*
X30759276Y-36025808D01*
X30759276Y-36025808D02*
X30638323Y-35904856D01*
X30638323Y-35904856D02*
X30517371Y-35844379D01*
X30517371Y-35844379D02*
X30275466Y-35783903D01*
X30275466Y-35783903D02*
X30094037Y-35783903D01*
X30094037Y-35783903D02*
X29852133Y-35844379D01*
X29852133Y-35844379D02*
X29731180Y-35904856D01*
X29731180Y-35904856D02*
X29610228Y-36025808D01*
X29610228Y-36025808D02*
X29549752Y-36207237D01*
X29549752Y-36207237D02*
X29549752Y-36328189D01*
X29549752Y-36328189D02*
X29610228Y-36509618D01*
X29610228Y-36509618D02*
X29670704Y-36570094D01*
X29549752Y-37719141D02*
X29549752Y-37114379D01*
X29549752Y-37114379D02*
X30154514Y-37053903D01*
X30154514Y-37053903D02*
X30094037Y-37114379D01*
X30094037Y-37114379D02*
X30033561Y-37235332D01*
X30033561Y-37235332D02*
X30033561Y-37537713D01*
X30033561Y-37537713D02*
X30094037Y-37658665D01*
X30094037Y-37658665D02*
X30154514Y-37719141D01*
X30154514Y-37719141D02*
X30275466Y-37779618D01*
X30275466Y-37779618D02*
X30577847Y-37779618D01*
X30577847Y-37779618D02*
X30698799Y-37719141D01*
X30698799Y-37719141D02*
X30759276Y-37658665D01*
X30759276Y-37658665D02*
X30819752Y-37537713D01*
X30819752Y-37537713D02*
X30819752Y-37235332D01*
X30819752Y-37235332D02*
X30759276Y-37114379D01*
X30759276Y-37114379D02*
X30698799Y-37053903D01*
X-7504047Y6020728D02*
X-6899285Y6020728D01*
X-6899285Y6020728D02*
X-6899285Y7290728D01*
X-7927380Y6685966D02*
X-8350714Y6685966D01*
X-8532142Y6020728D02*
X-7927380Y6020728D01*
X-7927380Y6020728D02*
X-7927380Y7290728D01*
X-7927380Y7290728D02*
X-8532142Y7290728D01*
X-9076428Y6020728D02*
X-9076428Y7290728D01*
X-9076428Y7290728D02*
X-9378809Y7290728D01*
X-9378809Y7290728D02*
X-9560238Y7230252D01*
X-9560238Y7230252D02*
X-9681190Y7109300D01*
X-9681190Y7109300D02*
X-9741667Y6988347D01*
X-9741667Y6988347D02*
X-9802143Y6746443D01*
X-9802143Y6746443D02*
X-9802143Y6565014D01*
X-9802143Y6565014D02*
X-9741667Y6323109D01*
X-9741667Y6323109D02*
X-9681190Y6202157D01*
X-9681190Y6202157D02*
X-9560238Y6081205D01*
X-9560238Y6081205D02*
X-9378809Y6020728D01*
X-9378809Y6020728D02*
X-9076428Y6020728D01*
X-10285952Y7169776D02*
X-10346428Y7230252D01*
X-10346428Y7230252D02*
X-10467381Y7290728D01*
X-10467381Y7290728D02*
X-10769762Y7290728D01*
X-10769762Y7290728D02*
X-10890714Y7230252D01*
X-10890714Y7230252D02*
X-10951190Y7169776D01*
X-10951190Y7169776D02*
X-11011667Y7048824D01*
X-11011667Y7048824D02*
X-11011667Y6927871D01*
X-11011667Y6927871D02*
X-10951190Y6746443D01*
X-10951190Y6746443D02*
X-10225476Y6020728D01*
X-10225476Y6020728D02*
X-11011667Y6020728D01*
X-11435000Y7290728D02*
X-12221191Y7290728D01*
X-12221191Y7290728D02*
X-11797857Y6806919D01*
X-11797857Y6806919D02*
X-11979286Y6806919D01*
X-11979286Y6806919D02*
X-12100238Y6746443D01*
X-12100238Y6746443D02*
X-12160714Y6685966D01*
X-12160714Y6685966D02*
X-12221191Y6565014D01*
X-12221191Y6565014D02*
X-12221191Y6262633D01*
X-12221191Y6262633D02*
X-12160714Y6141681D01*
X-12160714Y6141681D02*
X-12100238Y6081205D01*
X-12100238Y6081205D02*
X-11979286Y6020728D01*
X-11979286Y6020728D02*
X-11616429Y6020728D01*
X-11616429Y6020728D02*
X-11495476Y6081205D01*
X-11495476Y6081205D02*
X-11435000Y6141681D01*
X14640741Y2321760D02*
X14701217Y2261284D01*
X14701217Y2261284D02*
X14882646Y2200807D01*
X14882646Y2200807D02*
X15003598Y2200807D01*
X15003598Y2200807D02*
X15185027Y2261284D01*
X15185027Y2261284D02*
X15305979Y2382236D01*
X15305979Y2382236D02*
X15366456Y2503188D01*
X15366456Y2503188D02*
X15426932Y2745093D01*
X15426932Y2745093D02*
X15426932Y2926522D01*
X15426932Y2926522D02*
X15366456Y3168426D01*
X15366456Y3168426D02*
X15305979Y3289379D01*
X15305979Y3289379D02*
X15185027Y3410331D01*
X15185027Y3410331D02*
X15003598Y3470807D01*
X15003598Y3470807D02*
X14882646Y3470807D01*
X14882646Y3470807D02*
X14701217Y3410331D01*
X14701217Y3410331D02*
X14640741Y3349855D01*
X13915027Y2926522D02*
X14035979Y2986998D01*
X14035979Y2986998D02*
X14096456Y3047474D01*
X14096456Y3047474D02*
X14156932Y3168426D01*
X14156932Y3168426D02*
X14156932Y3228903D01*
X14156932Y3228903D02*
X14096456Y3349855D01*
X14096456Y3349855D02*
X14035979Y3410331D01*
X14035979Y3410331D02*
X13915027Y3470807D01*
X13915027Y3470807D02*
X13673122Y3470807D01*
X13673122Y3470807D02*
X13552170Y3410331D01*
X13552170Y3410331D02*
X13491694Y3349855D01*
X13491694Y3349855D02*
X13431217Y3228903D01*
X13431217Y3228903D02*
X13431217Y3168426D01*
X13431217Y3168426D02*
X13491694Y3047474D01*
X13491694Y3047474D02*
X13552170Y2986998D01*
X13552170Y2986998D02*
X13673122Y2926522D01*
X13673122Y2926522D02*
X13915027Y2926522D01*
X13915027Y2926522D02*
X14035979Y2866045D01*
X14035979Y2866045D02*
X14096456Y2805569D01*
X14096456Y2805569D02*
X14156932Y2684617D01*
X14156932Y2684617D02*
X14156932Y2442712D01*
X14156932Y2442712D02*
X14096456Y2321760D01*
X14096456Y2321760D02*
X14035979Y2261284D01*
X14035979Y2261284D02*
X13915027Y2200807D01*
X13915027Y2200807D02*
X13673122Y2200807D01*
X13673122Y2200807D02*
X13552170Y2261284D01*
X13552170Y2261284D02*
X13491694Y2321760D01*
X13491694Y2321760D02*
X13431217Y2442712D01*
X13431217Y2442712D02*
X13431217Y2684617D01*
X13431217Y2684617D02*
X13491694Y2805569D01*
X13491694Y2805569D02*
X13552170Y2866045D01*
X13552170Y2866045D02*
X13673122Y2926522D01*
X14640741Y21247740D02*
X14701217Y21187264D01*
X14701217Y21187264D02*
X14882646Y21126787D01*
X14882646Y21126787D02*
X15003598Y21126787D01*
X15003598Y21126787D02*
X15185027Y21187264D01*
X15185027Y21187264D02*
X15305979Y21308216D01*
X15305979Y21308216D02*
X15366456Y21429168D01*
X15366456Y21429168D02*
X15426932Y21671073D01*
X15426932Y21671073D02*
X15426932Y21852502D01*
X15426932Y21852502D02*
X15366456Y22094406D01*
X15366456Y22094406D02*
X15305979Y22215359D01*
X15305979Y22215359D02*
X15185027Y22336311D01*
X15185027Y22336311D02*
X15003598Y22396787D01*
X15003598Y22396787D02*
X14882646Y22396787D01*
X14882646Y22396787D02*
X14701217Y22336311D01*
X14701217Y22336311D02*
X14640741Y22275835D01*
X14156932Y22275835D02*
X14096456Y22336311D01*
X14096456Y22336311D02*
X13975503Y22396787D01*
X13975503Y22396787D02*
X13673122Y22396787D01*
X13673122Y22396787D02*
X13552170Y22336311D01*
X13552170Y22336311D02*
X13491694Y22275835D01*
X13491694Y22275835D02*
X13431217Y22154883D01*
X13431217Y22154883D02*
X13431217Y22033930D01*
X13431217Y22033930D02*
X13491694Y21852502D01*
X13491694Y21852502D02*
X14217408Y21126787D01*
X14217408Y21126787D02*
X13431217Y21126787D01*
X-22606059Y-16604220D02*
X-22545583Y-16664697D01*
X-22545583Y-16664697D02*
X-22364154Y-16725173D01*
X-22364154Y-16725173D02*
X-22243202Y-16725173D01*
X-22243202Y-16725173D02*
X-22061773Y-16664697D01*
X-22061773Y-16664697D02*
X-21940821Y-16543744D01*
X-21940821Y-16543744D02*
X-21880344Y-16422792D01*
X-21880344Y-16422792D02*
X-21819868Y-16180887D01*
X-21819868Y-16180887D02*
X-21819868Y-15999458D01*
X-21819868Y-15999458D02*
X-21880344Y-15757554D01*
X-21880344Y-15757554D02*
X-21940821Y-15636601D01*
X-21940821Y-15636601D02*
X-22061773Y-15515649D01*
X-22061773Y-15515649D02*
X-22243202Y-15455173D01*
X-22243202Y-15455173D02*
X-22364154Y-15455173D01*
X-22364154Y-15455173D02*
X-22545583Y-15515649D01*
X-22545583Y-15515649D02*
X-22606059Y-15576125D01*
X-23815583Y-16725173D02*
X-23089868Y-16725173D01*
X-23452725Y-16725173D02*
X-23452725Y-15455173D01*
X-23452725Y-15455173D02*
X-23331773Y-15636601D01*
X-23331773Y-15636601D02*
X-23210821Y-15757554D01*
X-23210821Y-15757554D02*
X-23089868Y-15818030D01*
X-24601773Y-15455173D02*
X-24722726Y-15455173D01*
X-24722726Y-15455173D02*
X-24843678Y-15515649D01*
X-24843678Y-15515649D02*
X-24904154Y-15576125D01*
X-24904154Y-15576125D02*
X-24964630Y-15697077D01*
X-24964630Y-15697077D02*
X-25025107Y-15938982D01*
X-25025107Y-15938982D02*
X-25025107Y-16241363D01*
X-25025107Y-16241363D02*
X-24964630Y-16483268D01*
X-24964630Y-16483268D02*
X-24904154Y-16604220D01*
X-24904154Y-16604220D02*
X-24843678Y-16664697D01*
X-24843678Y-16664697D02*
X-24722726Y-16725173D01*
X-24722726Y-16725173D02*
X-24601773Y-16725173D01*
X-24601773Y-16725173D02*
X-24480821Y-16664697D01*
X-24480821Y-16664697D02*
X-24420345Y-16604220D01*
X-24420345Y-16604220D02*
X-24359868Y-16483268D01*
X-24359868Y-16483268D02*
X-24299392Y-16241363D01*
X-24299392Y-16241363D02*
X-24299392Y-15938982D01*
X-24299392Y-15938982D02*
X-24359868Y-15697077D01*
X-24359868Y-15697077D02*
X-24420345Y-15576125D01*
X-24420345Y-15576125D02*
X-24480821Y-15515649D01*
X-24480821Y-15515649D02*
X-24601773Y-15455173D01*
X-21695728Y-16732856D02*
X-22965728Y-16732856D01*
X-22965728Y-16732856D02*
X-22965728Y-17035237D01*
X-22965728Y-17035237D02*
X-22905252Y-17216666D01*
X-22905252Y-17216666D02*
X-22784300Y-17337618D01*
X-22784300Y-17337618D02*
X-22663347Y-17398095D01*
X-22663347Y-17398095D02*
X-22421443Y-17458571D01*
X-22421443Y-17458571D02*
X-22240014Y-17458571D01*
X-22240014Y-17458571D02*
X-21998109Y-17398095D01*
X-21998109Y-17398095D02*
X-21877157Y-17337618D01*
X-21877157Y-17337618D02*
X-21756205Y-17216666D01*
X-21756205Y-17216666D02*
X-21695728Y-17035237D01*
X-21695728Y-17035237D02*
X-21695728Y-16732856D01*
X-21695728Y-18668095D02*
X-21695728Y-17942380D01*
X-21695728Y-18305237D02*
X-22965728Y-18305237D01*
X-22965728Y-18305237D02*
X-22784300Y-18184285D01*
X-22784300Y-18184285D02*
X-22663347Y-18063333D01*
X-22663347Y-18063333D02*
X-22602871Y-17942380D01*
X-22965728Y-19454285D02*
X-22965728Y-19575238D01*
X-22965728Y-19575238D02*
X-22905252Y-19696190D01*
X-22905252Y-19696190D02*
X-22844776Y-19756666D01*
X-22844776Y-19756666D02*
X-22723824Y-19817142D01*
X-22723824Y-19817142D02*
X-22481919Y-19877619D01*
X-22481919Y-19877619D02*
X-22179538Y-19877619D01*
X-22179538Y-19877619D02*
X-21937633Y-19817142D01*
X-21937633Y-19817142D02*
X-21816681Y-19756666D01*
X-21816681Y-19756666D02*
X-21756205Y-19696190D01*
X-21756205Y-19696190D02*
X-21695728Y-19575238D01*
X-21695728Y-19575238D02*
X-21695728Y-19454285D01*
X-21695728Y-19454285D02*
X-21756205Y-19333333D01*
X-21756205Y-19333333D02*
X-21816681Y-19272857D01*
X-21816681Y-19272857D02*
X-21937633Y-19212380D01*
X-21937633Y-19212380D02*
X-22179538Y-19151904D01*
X-22179538Y-19151904D02*
X-22481919Y-19151904D01*
X-22481919Y-19151904D02*
X-22723824Y-19212380D01*
X-22723824Y-19212380D02*
X-22844776Y-19272857D01*
X-22844776Y-19272857D02*
X-22905252Y-19333333D01*
X-22905252Y-19333333D02*
X-22965728Y-19454285D01*
X-11665434Y-2131411D02*
X-11604958Y-2191888D01*
X-11604958Y-2191888D02*
X-11423529Y-2252364D01*
X-11423529Y-2252364D02*
X-11302577Y-2252364D01*
X-11302577Y-2252364D02*
X-11121148Y-2191888D01*
X-11121148Y-2191888D02*
X-11000196Y-2070935D01*
X-11000196Y-2070935D02*
X-10939719Y-1949983D01*
X-10939719Y-1949983D02*
X-10879243Y-1708078D01*
X-10879243Y-1708078D02*
X-10879243Y-1526649D01*
X-10879243Y-1526649D02*
X-10939719Y-1284745D01*
X-10939719Y-1284745D02*
X-11000196Y-1163792D01*
X-11000196Y-1163792D02*
X-11121148Y-1042840D01*
X-11121148Y-1042840D02*
X-11302577Y-982364D01*
X-11302577Y-982364D02*
X-11423529Y-982364D01*
X-11423529Y-982364D02*
X-11604958Y-1042840D01*
X-11604958Y-1042840D02*
X-11665434Y-1103316D01*
X-12149243Y-1103316D02*
X-12209719Y-1042840D01*
X-12209719Y-1042840D02*
X-12330672Y-982364D01*
X-12330672Y-982364D02*
X-12633053Y-982364D01*
X-12633053Y-982364D02*
X-12754005Y-1042840D01*
X-12754005Y-1042840D02*
X-12814481Y-1103316D01*
X-12814481Y-1103316D02*
X-12874958Y-1224268D01*
X-12874958Y-1224268D02*
X-12874958Y-1345221D01*
X-12874958Y-1345221D02*
X-12814481Y-1526649D01*
X-12814481Y-1526649D02*
X-12088767Y-2252364D01*
X-12088767Y-2252364D02*
X-12874958Y-2252364D01*
X-13963529Y-982364D02*
X-13721624Y-982364D01*
X-13721624Y-982364D02*
X-13600672Y-1042840D01*
X-13600672Y-1042840D02*
X-13540196Y-1103316D01*
X-13540196Y-1103316D02*
X-13419243Y-1284745D01*
X-13419243Y-1284745D02*
X-13358767Y-1526649D01*
X-13358767Y-1526649D02*
X-13358767Y-2010459D01*
X-13358767Y-2010459D02*
X-13419243Y-2131411D01*
X-13419243Y-2131411D02*
X-13479720Y-2191888D01*
X-13479720Y-2191888D02*
X-13600672Y-2252364D01*
X-13600672Y-2252364D02*
X-13842577Y-2252364D01*
X-13842577Y-2252364D02*
X-13963529Y-2191888D01*
X-13963529Y-2191888D02*
X-14024005Y-2131411D01*
X-14024005Y-2131411D02*
X-14084482Y-2010459D01*
X-14084482Y-2010459D02*
X-14084482Y-1708078D01*
X-14084482Y-1708078D02*
X-14024005Y-1587126D01*
X-14024005Y-1587126D02*
X-13963529Y-1526649D01*
X-13963529Y-1526649D02*
X-13842577Y-1466173D01*
X-13842577Y-1466173D02*
X-13600672Y-1466173D01*
X-13600672Y-1466173D02*
X-13479720Y-1526649D01*
X-13479720Y-1526649D02*
X-13419243Y-1587126D01*
X-13419243Y-1587126D02*
X-13358767Y-1708078D01*
X-7523856Y20578944D02*
X-7463380Y20639420D01*
X-7463380Y20639420D02*
X-7402903Y20820849D01*
X-7402903Y20820849D02*
X-7402903Y20941801D01*
X-7402903Y20941801D02*
X-7463380Y21123230D01*
X-7463380Y21123230D02*
X-7584332Y21244182D01*
X-7584332Y21244182D02*
X-7705284Y21304659D01*
X-7705284Y21304659D02*
X-7947189Y21365135D01*
X-7947189Y21365135D02*
X-8128618Y21365135D01*
X-8128618Y21365135D02*
X-8370522Y21304659D01*
X-8370522Y21304659D02*
X-8491475Y21244182D01*
X-8491475Y21244182D02*
X-8612427Y21123230D01*
X-8612427Y21123230D02*
X-8672903Y20941801D01*
X-8672903Y20941801D02*
X-8672903Y20820849D01*
X-8672903Y20820849D02*
X-8612427Y20639420D01*
X-8612427Y20639420D02*
X-8551951Y20578944D01*
X-7402903Y19369420D02*
X-7402903Y20095135D01*
X-7402903Y19732278D02*
X-8672903Y19732278D01*
X-8672903Y19732278D02*
X-8491475Y19853230D01*
X-8491475Y19853230D02*
X-8370522Y19974182D01*
X-8370522Y19974182D02*
X-8310046Y20095135D01*
X-2645728Y-34887618D02*
X-3915728Y-34887618D01*
X-3915728Y-34887618D02*
X-3915728Y-35189999D01*
X-3915728Y-35189999D02*
X-3855252Y-35371428D01*
X-3855252Y-35371428D02*
X-3734300Y-35492380D01*
X-3734300Y-35492380D02*
X-3613347Y-35552857D01*
X-3613347Y-35552857D02*
X-3371443Y-35613333D01*
X-3371443Y-35613333D02*
X-3190014Y-35613333D01*
X-3190014Y-35613333D02*
X-2948109Y-35552857D01*
X-2948109Y-35552857D02*
X-2827157Y-35492380D01*
X-2827157Y-35492380D02*
X-2706205Y-35371428D01*
X-2706205Y-35371428D02*
X-2645728Y-35189999D01*
X-2645728Y-35189999D02*
X-2645728Y-34887618D01*
X-3915728Y-36036666D02*
X-3915728Y-36822857D01*
X-3915728Y-36822857D02*
X-3431919Y-36399523D01*
X-3431919Y-36399523D02*
X-3431919Y-36580952D01*
X-3431919Y-36580952D02*
X-3371443Y-36701904D01*
X-3371443Y-36701904D02*
X-3310966Y-36762380D01*
X-3310966Y-36762380D02*
X-3190014Y-36822857D01*
X-3190014Y-36822857D02*
X-2887633Y-36822857D01*
X-2887633Y-36822857D02*
X-2766681Y-36762380D01*
X-2766681Y-36762380D02*
X-2706205Y-36701904D01*
X-2706205Y-36701904D02*
X-2645728Y-36580952D01*
X-2645728Y-36580952D02*
X-2645728Y-36218095D01*
X-2645728Y-36218095D02*
X-2706205Y-36097142D01*
X-2706205Y-36097142D02*
X-2766681Y-36036666D01*
X-7523856Y-36570094D02*
X-7463380Y-36509618D01*
X-7463380Y-36509618D02*
X-7402903Y-36328189D01*
X-7402903Y-36328189D02*
X-7402903Y-36207237D01*
X-7402903Y-36207237D02*
X-7463380Y-36025808D01*
X-7463380Y-36025808D02*
X-7584332Y-35904856D01*
X-7584332Y-35904856D02*
X-7705284Y-35844379D01*
X-7705284Y-35844379D02*
X-7947189Y-35783903D01*
X-7947189Y-35783903D02*
X-8128618Y-35783903D01*
X-8128618Y-35783903D02*
X-8370522Y-35844379D01*
X-8370522Y-35844379D02*
X-8491475Y-35904856D01*
X-8491475Y-35904856D02*
X-8612427Y-36025808D01*
X-8612427Y-36025808D02*
X-8672903Y-36207237D01*
X-8672903Y-36207237D02*
X-8672903Y-36328189D01*
X-8672903Y-36328189D02*
X-8612427Y-36509618D01*
X-8612427Y-36509618D02*
X-8551951Y-36570094D01*
X-8672903Y-36993427D02*
X-8672903Y-37779618D01*
X-8672903Y-37779618D02*
X-8189094Y-37356284D01*
X-8189094Y-37356284D02*
X-8189094Y-37537713D01*
X-8189094Y-37537713D02*
X-8128618Y-37658665D01*
X-8128618Y-37658665D02*
X-8068141Y-37719141D01*
X-8068141Y-37719141D02*
X-7947189Y-37779618D01*
X-7947189Y-37779618D02*
X-7644808Y-37779618D01*
X-7644808Y-37779618D02*
X-7523856Y-37719141D01*
X-7523856Y-37719141D02*
X-7463380Y-37658665D01*
X-7463380Y-37658665D02*
X-7402903Y-37537713D01*
X-7402903Y-37537713D02*
X-7402903Y-37174856D01*
X-7402903Y-37174856D02*
X-7463380Y-37053903D01*
X-7463380Y-37053903D02*
X-7523856Y-36993427D01*
X423332Y48830728D02*
X423332Y47923585D01*
X423332Y47923585D02*
X483809Y47742157D01*
X483809Y47742157D02*
X604761Y47621205D01*
X604761Y47621205D02*
X786190Y47560728D01*
X786190Y47560728D02*
X907142Y47560728D01*
X-60476Y48830728D02*
X-846667Y48830728D01*
X-846667Y48830728D02*
X-423333Y48346919D01*
X-423333Y48346919D02*
X-604762Y48346919D01*
X-604762Y48346919D02*
X-725714Y48286443D01*
X-725714Y48286443D02*
X-786190Y48225966D01*
X-786190Y48225966D02*
X-846667Y48105014D01*
X-846667Y48105014D02*
X-846667Y47802633D01*
X-846667Y47802633D02*
X-786190Y47681681D01*
X-786190Y47681681D02*
X-725714Y47621205D01*
X-725714Y47621205D02*
X-604762Y47560728D01*
X-604762Y47560728D02*
X-241905Y47560728D01*
X-241905Y47560728D02*
X-120952Y47621205D01*
X-120952Y47621205D02*
X-60476Y47681681D01*
X16404271Y1712381D02*
X15134271Y1712381D01*
X15134271Y1712381D02*
X15134271Y1410000D01*
X15134271Y1410000D02*
X15194747Y1228571D01*
X15194747Y1228571D02*
X15315699Y1107619D01*
X15315699Y1107619D02*
X15436652Y1047142D01*
X15436652Y1047142D02*
X15678556Y986666D01*
X15678556Y986666D02*
X15859985Y986666D01*
X15859985Y986666D02*
X16101890Y1047142D01*
X16101890Y1047142D02*
X16222842Y1107619D01*
X16222842Y1107619D02*
X16343795Y1228571D01*
X16343795Y1228571D02*
X16404271Y1410000D01*
X16404271Y1410000D02*
X16404271Y1712381D01*
X15678556Y260952D02*
X15618080Y381904D01*
X15618080Y381904D02*
X15557604Y442381D01*
X15557604Y442381D02*
X15436652Y502857D01*
X15436652Y502857D02*
X15376175Y502857D01*
X15376175Y502857D02*
X15255223Y442381D01*
X15255223Y442381D02*
X15194747Y381904D01*
X15194747Y381904D02*
X15134271Y260952D01*
X15134271Y260952D02*
X15134271Y19047D01*
X15134271Y19047D02*
X15194747Y-101904D01*
X15194747Y-101904D02*
X15255223Y-162380D01*
X15255223Y-162380D02*
X15376175Y-222857D01*
X15376175Y-222857D02*
X15436652Y-222857D01*
X15436652Y-222857D02*
X15557604Y-162380D01*
X15557604Y-162380D02*
X15618080Y-101904D01*
X15618080Y-101904D02*
X15678556Y19047D01*
X15678556Y19047D02*
X15678556Y260952D01*
X15678556Y260952D02*
X15739033Y381904D01*
X15739033Y381904D02*
X15799509Y442381D01*
X15799509Y442381D02*
X15920461Y502857D01*
X15920461Y502857D02*
X16162366Y502857D01*
X16162366Y502857D02*
X16283318Y442381D01*
X16283318Y442381D02*
X16343795Y381904D01*
X16343795Y381904D02*
X16404271Y260952D01*
X16404271Y260952D02*
X16404271Y19047D01*
X16404271Y19047D02*
X16343795Y-101904D01*
X16343795Y-101904D02*
X16283318Y-162380D01*
X16283318Y-162380D02*
X16162366Y-222857D01*
X16162366Y-222857D02*
X15920461Y-222857D01*
X15920461Y-222857D02*
X15799509Y-162380D01*
X15799509Y-162380D02*
X15739033Y-101904D01*
X15739033Y-101904D02*
X15678556Y19047D01*
X16404271Y20762381D02*
X15134271Y20762381D01*
X15134271Y20762381D02*
X15134271Y20460000D01*
X15134271Y20460000D02*
X15194747Y20278571D01*
X15194747Y20278571D02*
X15315699Y20157619D01*
X15315699Y20157619D02*
X15436652Y20097142D01*
X15436652Y20097142D02*
X15678556Y20036666D01*
X15678556Y20036666D02*
X15859985Y20036666D01*
X15859985Y20036666D02*
X16101890Y20097142D01*
X16101890Y20097142D02*
X16222842Y20157619D01*
X16222842Y20157619D02*
X16343795Y20278571D01*
X16343795Y20278571D02*
X16404271Y20460000D01*
X16404271Y20460000D02*
X16404271Y20762381D01*
X15255223Y19552857D02*
X15194747Y19492381D01*
X15194747Y19492381D02*
X15134271Y19371428D01*
X15134271Y19371428D02*
X15134271Y19069047D01*
X15134271Y19069047D02*
X15194747Y18948095D01*
X15194747Y18948095D02*
X15255223Y18887619D01*
X15255223Y18887619D02*
X15376175Y18827142D01*
X15376175Y18827142D02*
X15497128Y18827142D01*
X15497128Y18827142D02*
X15678556Y18887619D01*
X15678556Y18887619D02*
X16404271Y19613333D01*
X16404271Y19613333D02*
X16404271Y18827142D01*
X11555952Y-13039271D02*
X12160714Y-13039271D01*
X12160714Y-13039271D02*
X12160714Y-11769271D01*
X11132619Y-12374033D02*
X10709285Y-12374033D01*
X10527857Y-13039271D02*
X11132619Y-13039271D01*
X11132619Y-13039271D02*
X11132619Y-11769271D01*
X11132619Y-11769271D02*
X10527857Y-11769271D01*
X9983571Y-13039271D02*
X9983571Y-11769271D01*
X9983571Y-11769271D02*
X9681190Y-11769271D01*
X9681190Y-11769271D02*
X9499761Y-11829747D01*
X9499761Y-11829747D02*
X9378809Y-11950699D01*
X9378809Y-11950699D02*
X9318332Y-12071652D01*
X9318332Y-12071652D02*
X9257856Y-12313556D01*
X9257856Y-12313556D02*
X9257856Y-12494985D01*
X9257856Y-12494985D02*
X9318332Y-12736890D01*
X9318332Y-12736890D02*
X9378809Y-12857842D01*
X9378809Y-12857842D02*
X9499761Y-12978795D01*
X9499761Y-12978795D02*
X9681190Y-13039271D01*
X9681190Y-13039271D02*
X9983571Y-13039271D01*
X8774047Y-11890223D02*
X8713571Y-11829747D01*
X8713571Y-11829747D02*
X8592618Y-11769271D01*
X8592618Y-11769271D02*
X8290237Y-11769271D01*
X8290237Y-11769271D02*
X8169285Y-11829747D01*
X8169285Y-11829747D02*
X8108809Y-11890223D01*
X8108809Y-11890223D02*
X8048332Y-12011175D01*
X8048332Y-12011175D02*
X8048332Y-12132128D01*
X8048332Y-12132128D02*
X8108809Y-12313556D01*
X8108809Y-12313556D02*
X8834523Y-13039271D01*
X8834523Y-13039271D02*
X8048332Y-13039271D01*
X7322618Y-12313556D02*
X7443570Y-12253080D01*
X7443570Y-12253080D02*
X7504047Y-12192604D01*
X7504047Y-12192604D02*
X7564523Y-12071652D01*
X7564523Y-12071652D02*
X7564523Y-12011175D01*
X7564523Y-12011175D02*
X7504047Y-11890223D01*
X7504047Y-11890223D02*
X7443570Y-11829747D01*
X7443570Y-11829747D02*
X7322618Y-11769271D01*
X7322618Y-11769271D02*
X7080713Y-11769271D01*
X7080713Y-11769271D02*
X6959761Y-11829747D01*
X6959761Y-11829747D02*
X6899285Y-11890223D01*
X6899285Y-11890223D02*
X6838808Y-12011175D01*
X6838808Y-12011175D02*
X6838808Y-12071652D01*
X6838808Y-12071652D02*
X6899285Y-12192604D01*
X6899285Y-12192604D02*
X6959761Y-12253080D01*
X6959761Y-12253080D02*
X7080713Y-12313556D01*
X7080713Y-12313556D02*
X7322618Y-12313556D01*
X7322618Y-12313556D02*
X7443570Y-12374033D01*
X7443570Y-12374033D02*
X7504047Y-12434509D01*
X7504047Y-12434509D02*
X7564523Y-12555461D01*
X7564523Y-12555461D02*
X7564523Y-12797366D01*
X7564523Y-12797366D02*
X7504047Y-12918318D01*
X7504047Y-12918318D02*
X7443570Y-12978795D01*
X7443570Y-12978795D02*
X7322618Y-13039271D01*
X7322618Y-13039271D02*
X7080713Y-13039271D01*
X7080713Y-13039271D02*
X6959761Y-12978795D01*
X6959761Y-12978795D02*
X6899285Y-12918318D01*
X6899285Y-12918318D02*
X6838808Y-12797366D01*
X6838808Y-12797366D02*
X6838808Y-12555461D01*
X6838808Y-12555461D02*
X6899285Y-12434509D01*
X6899285Y-12434509D02*
X6959761Y-12374033D01*
X6959761Y-12374033D02*
X7080713Y-12313556D01*
X35454271Y-16732856D02*
X34184271Y-16732856D01*
X34184271Y-16732856D02*
X34184271Y-17035237D01*
X34184271Y-17035237D02*
X34244747Y-17216666D01*
X34244747Y-17216666D02*
X34365699Y-17337618D01*
X34365699Y-17337618D02*
X34486652Y-17398095D01*
X34486652Y-17398095D02*
X34728556Y-17458571D01*
X34728556Y-17458571D02*
X34909985Y-17458571D01*
X34909985Y-17458571D02*
X35151890Y-17398095D01*
X35151890Y-17398095D02*
X35272842Y-17337618D01*
X35272842Y-17337618D02*
X35393795Y-17216666D01*
X35393795Y-17216666D02*
X35454271Y-17035237D01*
X35454271Y-17035237D02*
X35454271Y-16732856D01*
X35454271Y-18668095D02*
X35454271Y-17942380D01*
X35454271Y-18305237D02*
X34184271Y-18305237D01*
X34184271Y-18305237D02*
X34365699Y-18184285D01*
X34365699Y-18184285D02*
X34486652Y-18063333D01*
X34486652Y-18063333D02*
X34547128Y-17942380D01*
X34184271Y-19091428D02*
X34184271Y-19877619D01*
X34184271Y-19877619D02*
X34668080Y-19454285D01*
X34668080Y-19454285D02*
X34668080Y-19635714D01*
X34668080Y-19635714D02*
X34728556Y-19756666D01*
X34728556Y-19756666D02*
X34789033Y-19817142D01*
X34789033Y-19817142D02*
X34909985Y-19877619D01*
X34909985Y-19877619D02*
X35212366Y-19877619D01*
X35212366Y-19877619D02*
X35333318Y-19817142D01*
X35333318Y-19817142D02*
X35393795Y-19756666D01*
X35393795Y-19756666D02*
X35454271Y-19635714D01*
X35454271Y-19635714D02*
X35454271Y-19272857D01*
X35454271Y-19272857D02*
X35393795Y-19151904D01*
X35393795Y-19151904D02*
X35333318Y-19091428D01*
X30595952Y6020728D02*
X31200714Y6020728D01*
X31200714Y6020728D02*
X31200714Y7290728D01*
X30172619Y6685966D02*
X29749285Y6685966D01*
X29567857Y6020728D02*
X30172619Y6020728D01*
X30172619Y6020728D02*
X30172619Y7290728D01*
X30172619Y7290728D02*
X29567857Y7290728D01*
X29023571Y6020728D02*
X29023571Y7290728D01*
X29023571Y7290728D02*
X28721190Y7290728D01*
X28721190Y7290728D02*
X28539761Y7230252D01*
X28539761Y7230252D02*
X28418809Y7109300D01*
X28418809Y7109300D02*
X28358332Y6988347D01*
X28358332Y6988347D02*
X28297856Y6746443D01*
X28297856Y6746443D02*
X28297856Y6565014D01*
X28297856Y6565014D02*
X28358332Y6323109D01*
X28358332Y6323109D02*
X28418809Y6202157D01*
X28418809Y6202157D02*
X28539761Y6081205D01*
X28539761Y6081205D02*
X28721190Y6020728D01*
X28721190Y6020728D02*
X29023571Y6020728D01*
X27814047Y7169776D02*
X27753571Y7230252D01*
X27753571Y7230252D02*
X27632618Y7290728D01*
X27632618Y7290728D02*
X27330237Y7290728D01*
X27330237Y7290728D02*
X27209285Y7230252D01*
X27209285Y7230252D02*
X27148809Y7169776D01*
X27148809Y7169776D02*
X27088332Y7048824D01*
X27088332Y7048824D02*
X27088332Y6927871D01*
X27088332Y6927871D02*
X27148809Y6746443D01*
X27148809Y6746443D02*
X27874523Y6020728D01*
X27874523Y6020728D02*
X27088332Y6020728D01*
X25939285Y7290728D02*
X26544047Y7290728D01*
X26544047Y7290728D02*
X26604523Y6685966D01*
X26604523Y6685966D02*
X26544047Y6746443D01*
X26544047Y6746443D02*
X26423094Y6806919D01*
X26423094Y6806919D02*
X26120713Y6806919D01*
X26120713Y6806919D02*
X25999761Y6746443D01*
X25999761Y6746443D02*
X25939285Y6685966D01*
X25939285Y6685966D02*
X25878808Y6565014D01*
X25878808Y6565014D02*
X25878808Y6262633D01*
X25878808Y6262633D02*
X25939285Y6141681D01*
X25939285Y6141681D02*
X25999761Y6081205D01*
X25999761Y6081205D02*
X26120713Y6020728D01*
X26120713Y6020728D02*
X26423094Y6020728D01*
X26423094Y6020728D02*
X26544047Y6081205D01*
X26544047Y6081205D02*
X26604523Y6141681D01*
X-26544047Y-13039271D02*
X-25939285Y-13039271D01*
X-25939285Y-13039271D02*
X-25939285Y-11769271D01*
X-26967380Y-12374033D02*
X-27390714Y-12374033D01*
X-27572142Y-13039271D02*
X-26967380Y-13039271D01*
X-26967380Y-13039271D02*
X-26967380Y-11769271D01*
X-26967380Y-11769271D02*
X-27572142Y-11769271D01*
X-28116428Y-13039271D02*
X-28116428Y-11769271D01*
X-28116428Y-11769271D02*
X-28418809Y-11769271D01*
X-28418809Y-11769271D02*
X-28600238Y-11829747D01*
X-28600238Y-11829747D02*
X-28721190Y-11950699D01*
X-28721190Y-11950699D02*
X-28781667Y-12071652D01*
X-28781667Y-12071652D02*
X-28842143Y-12313556D01*
X-28842143Y-12313556D02*
X-28842143Y-12494985D01*
X-28842143Y-12494985D02*
X-28781667Y-12736890D01*
X-28781667Y-12736890D02*
X-28721190Y-12857842D01*
X-28721190Y-12857842D02*
X-28600238Y-12978795D01*
X-28600238Y-12978795D02*
X-28418809Y-13039271D01*
X-28418809Y-13039271D02*
X-28116428Y-13039271D01*
X-29325952Y-11890223D02*
X-29386428Y-11829747D01*
X-29386428Y-11829747D02*
X-29507381Y-11769271D01*
X-29507381Y-11769271D02*
X-29809762Y-11769271D01*
X-29809762Y-11769271D02*
X-29930714Y-11829747D01*
X-29930714Y-11829747D02*
X-29991190Y-11890223D01*
X-29991190Y-11890223D02*
X-30051667Y-12011175D01*
X-30051667Y-12011175D02*
X-30051667Y-12132128D01*
X-30051667Y-12132128D02*
X-29991190Y-12313556D01*
X-29991190Y-12313556D02*
X-29265476Y-13039271D01*
X-29265476Y-13039271D02*
X-30051667Y-13039271D01*
X-31140238Y-11769271D02*
X-30898333Y-11769271D01*
X-30898333Y-11769271D02*
X-30777381Y-11829747D01*
X-30777381Y-11829747D02*
X-30716905Y-11890223D01*
X-30716905Y-11890223D02*
X-30595952Y-12071652D01*
X-30595952Y-12071652D02*
X-30535476Y-12313556D01*
X-30535476Y-12313556D02*
X-30535476Y-12797366D01*
X-30535476Y-12797366D02*
X-30595952Y-12918318D01*
X-30595952Y-12918318D02*
X-30656429Y-12978795D01*
X-30656429Y-12978795D02*
X-30777381Y-13039271D01*
X-30777381Y-13039271D02*
X-31019286Y-13039271D01*
X-31019286Y-13039271D02*
X-31140238Y-12978795D01*
X-31140238Y-12978795D02*
X-31200714Y-12918318D01*
X-31200714Y-12918318D02*
X-31261191Y-12797366D01*
X-31261191Y-12797366D02*
X-31261191Y-12494985D01*
X-31261191Y-12494985D02*
X-31200714Y-12374033D01*
X-31200714Y-12374033D02*
X-31140238Y-12313556D01*
X-31140238Y-12313556D02*
X-31019286Y-12253080D01*
X-31019286Y-12253080D02*
X-30777381Y-12253080D01*
X-30777381Y-12253080D02*
X-30656429Y-12313556D01*
X-30656429Y-12313556D02*
X-30595952Y-12374033D01*
X-30595952Y-12374033D02*
X-30535476Y-12494985D01*
X16404271Y-34887618D02*
X15134271Y-34887618D01*
X15134271Y-34887618D02*
X15134271Y-35189999D01*
X15134271Y-35189999D02*
X15194747Y-35371428D01*
X15194747Y-35371428D02*
X15315699Y-35492380D01*
X15315699Y-35492380D02*
X15436652Y-35552857D01*
X15436652Y-35552857D02*
X15678556Y-35613333D01*
X15678556Y-35613333D02*
X15859985Y-35613333D01*
X15859985Y-35613333D02*
X16101890Y-35552857D01*
X16101890Y-35552857D02*
X16222842Y-35492380D01*
X16222842Y-35492380D02*
X16343795Y-35371428D01*
X16343795Y-35371428D02*
X16404271Y-35189999D01*
X16404271Y-35189999D02*
X16404271Y-34887618D01*
X15557604Y-36701904D02*
X16404271Y-36701904D01*
X15073795Y-36399523D02*
X15980937Y-36097142D01*
X15980937Y-36097142D02*
X15980937Y-36883333D01*
X11555952Y25060728D02*
X12160714Y25060728D01*
X12160714Y25060728D02*
X12160714Y26330728D01*
X11132619Y25725966D02*
X10709285Y25725966D01*
X10527857Y25060728D02*
X11132619Y25060728D01*
X11132619Y25060728D02*
X11132619Y26330728D01*
X11132619Y26330728D02*
X10527857Y26330728D01*
X9983571Y25060728D02*
X9983571Y26330728D01*
X9983571Y26330728D02*
X9681190Y26330728D01*
X9681190Y26330728D02*
X9499761Y26270252D01*
X9499761Y26270252D02*
X9378809Y26149300D01*
X9378809Y26149300D02*
X9318332Y26028347D01*
X9318332Y26028347D02*
X9257856Y25786443D01*
X9257856Y25786443D02*
X9257856Y25605014D01*
X9257856Y25605014D02*
X9318332Y25363109D01*
X9318332Y25363109D02*
X9378809Y25242157D01*
X9378809Y25242157D02*
X9499761Y25121205D01*
X9499761Y25121205D02*
X9681190Y25060728D01*
X9681190Y25060728D02*
X9983571Y25060728D01*
X8048332Y25060728D02*
X8774047Y25060728D01*
X8411190Y25060728D02*
X8411190Y26330728D01*
X8411190Y26330728D02*
X8532142Y26149300D01*
X8532142Y26149300D02*
X8653094Y26028347D01*
X8653094Y26028347D02*
X8774047Y25967871D01*
X7322618Y25786443D02*
X7443570Y25846919D01*
X7443570Y25846919D02*
X7504047Y25907395D01*
X7504047Y25907395D02*
X7564523Y26028347D01*
X7564523Y26028347D02*
X7564523Y26088824D01*
X7564523Y26088824D02*
X7504047Y26209776D01*
X7504047Y26209776D02*
X7443570Y26270252D01*
X7443570Y26270252D02*
X7322618Y26330728D01*
X7322618Y26330728D02*
X7080713Y26330728D01*
X7080713Y26330728D02*
X6959761Y26270252D01*
X6959761Y26270252D02*
X6899285Y26209776D01*
X6899285Y26209776D02*
X6838808Y26088824D01*
X6838808Y26088824D02*
X6838808Y26028347D01*
X6838808Y26028347D02*
X6899285Y25907395D01*
X6899285Y25907395D02*
X6959761Y25846919D01*
X6959761Y25846919D02*
X7080713Y25786443D01*
X7080713Y25786443D02*
X7322618Y25786443D01*
X7322618Y25786443D02*
X7443570Y25725966D01*
X7443570Y25725966D02*
X7504047Y25665490D01*
X7504047Y25665490D02*
X7564523Y25544538D01*
X7564523Y25544538D02*
X7564523Y25302633D01*
X7564523Y25302633D02*
X7504047Y25181681D01*
X7504047Y25181681D02*
X7443570Y25121205D01*
X7443570Y25121205D02*
X7322618Y25060728D01*
X7322618Y25060728D02*
X7080713Y25060728D01*
X7080713Y25060728D02*
X6959761Y25121205D01*
X6959761Y25121205D02*
X6899285Y25181681D01*
X6899285Y25181681D02*
X6838808Y25302633D01*
X6838808Y25302633D02*
X6838808Y25544538D01*
X6838808Y25544538D02*
X6899285Y25665490D01*
X6899285Y25665490D02*
X6959761Y25725966D01*
X6959761Y25725966D02*
X7080713Y25786443D01*
X34542378Y-16604220D02*
X34602854Y-16664697D01*
X34602854Y-16664697D02*
X34784283Y-16725173D01*
X34784283Y-16725173D02*
X34905235Y-16725173D01*
X34905235Y-16725173D02*
X35086664Y-16664697D01*
X35086664Y-16664697D02*
X35207616Y-16543744D01*
X35207616Y-16543744D02*
X35268093Y-16422792D01*
X35268093Y-16422792D02*
X35328569Y-16180887D01*
X35328569Y-16180887D02*
X35328569Y-15999458D01*
X35328569Y-15999458D02*
X35268093Y-15757554D01*
X35268093Y-15757554D02*
X35207616Y-15636601D01*
X35207616Y-15636601D02*
X35086664Y-15515649D01*
X35086664Y-15515649D02*
X34905235Y-15455173D01*
X34905235Y-15455173D02*
X34784283Y-15455173D01*
X34784283Y-15455173D02*
X34602854Y-15515649D01*
X34602854Y-15515649D02*
X34542378Y-15576125D01*
X33332854Y-16725173D02*
X34058569Y-16725173D01*
X33695712Y-16725173D02*
X33695712Y-15455173D01*
X33695712Y-15455173D02*
X33816664Y-15636601D01*
X33816664Y-15636601D02*
X33937616Y-15757554D01*
X33937616Y-15757554D02*
X34058569Y-15818030D01*
X32909521Y-15455173D02*
X32123330Y-15455173D01*
X32123330Y-15455173D02*
X32546664Y-15938982D01*
X32546664Y-15938982D02*
X32365235Y-15938982D01*
X32365235Y-15938982D02*
X32244283Y-15999458D01*
X32244283Y-15999458D02*
X32183807Y-16059935D01*
X32183807Y-16059935D02*
X32123330Y-16180887D01*
X32123330Y-16180887D02*
X32123330Y-16483268D01*
X32123330Y-16483268D02*
X32183807Y-16604220D01*
X32183807Y-16604220D02*
X32244283Y-16664697D01*
X32244283Y-16664697D02*
X32365235Y-16725173D01*
X32365235Y-16725173D02*
X32728092Y-16725173D01*
X32728092Y-16725173D02*
X32849045Y-16664697D01*
X32849045Y-16664697D02*
X32909521Y-16604220D01*
X-45746512Y-29656672D02*
X-45686036Y-29596196D01*
X-45686036Y-29596196D02*
X-45625559Y-29414767D01*
X-45625559Y-29414767D02*
X-45625559Y-29293815D01*
X-45625559Y-29293815D02*
X-45686036Y-29112386D01*
X-45686036Y-29112386D02*
X-45806988Y-28991434D01*
X-45806988Y-28991434D02*
X-45927940Y-28930957D01*
X-45927940Y-28930957D02*
X-46169845Y-28870481D01*
X-46169845Y-28870481D02*
X-46351274Y-28870481D01*
X-46351274Y-28870481D02*
X-46593178Y-28930957D01*
X-46593178Y-28930957D02*
X-46714131Y-28991434D01*
X-46714131Y-28991434D02*
X-46835083Y-29112386D01*
X-46835083Y-29112386D02*
X-46895559Y-29293815D01*
X-46895559Y-29293815D02*
X-46895559Y-29414767D01*
X-46895559Y-29414767D02*
X-46835083Y-29596196D01*
X-46835083Y-29596196D02*
X-46774607Y-29656672D01*
X-46774607Y-30140481D02*
X-46835083Y-30200957D01*
X-46835083Y-30200957D02*
X-46895559Y-30321910D01*
X-46895559Y-30321910D02*
X-46895559Y-30624291D01*
X-46895559Y-30624291D02*
X-46835083Y-30745243D01*
X-46835083Y-30745243D02*
X-46774607Y-30805719D01*
X-46774607Y-30805719D02*
X-46653655Y-30866196D01*
X-46653655Y-30866196D02*
X-46532702Y-30866196D01*
X-46532702Y-30866196D02*
X-46351274Y-30805719D01*
X-46351274Y-30805719D02*
X-45625559Y-30080005D01*
X-45625559Y-30080005D02*
X-45625559Y-30866196D01*
X-46895559Y-31289529D02*
X-46895559Y-32136196D01*
X-46895559Y-32136196D02*
X-45625559Y-31591910D01*
X-26544047Y6020728D02*
X-25939285Y6020728D01*
X-25939285Y6020728D02*
X-25939285Y7290728D01*
X-26967380Y6685966D02*
X-27390714Y6685966D01*
X-27572142Y6020728D02*
X-26967380Y6020728D01*
X-26967380Y6020728D02*
X-26967380Y7290728D01*
X-26967380Y7290728D02*
X-27572142Y7290728D01*
X-28116428Y6020728D02*
X-28116428Y7290728D01*
X-28116428Y7290728D02*
X-28418809Y7290728D01*
X-28418809Y7290728D02*
X-28600238Y7230252D01*
X-28600238Y7230252D02*
X-28721190Y7109300D01*
X-28721190Y7109300D02*
X-28781667Y6988347D01*
X-28781667Y6988347D02*
X-28842143Y6746443D01*
X-28842143Y6746443D02*
X-28842143Y6565014D01*
X-28842143Y6565014D02*
X-28781667Y6323109D01*
X-28781667Y6323109D02*
X-28721190Y6202157D01*
X-28721190Y6202157D02*
X-28600238Y6081205D01*
X-28600238Y6081205D02*
X-28418809Y6020728D01*
X-28418809Y6020728D02*
X-28116428Y6020728D01*
X-29325952Y7169776D02*
X-29386428Y7230252D01*
X-29386428Y7230252D02*
X-29507381Y7290728D01*
X-29507381Y7290728D02*
X-29809762Y7290728D01*
X-29809762Y7290728D02*
X-29930714Y7230252D01*
X-29930714Y7230252D02*
X-29991190Y7169776D01*
X-29991190Y7169776D02*
X-30051667Y7048824D01*
X-30051667Y7048824D02*
X-30051667Y6927871D01*
X-30051667Y6927871D02*
X-29991190Y6746443D01*
X-29991190Y6746443D02*
X-29265476Y6020728D01*
X-29265476Y6020728D02*
X-30051667Y6020728D01*
X-30535476Y7169776D02*
X-30595952Y7230252D01*
X-30595952Y7230252D02*
X-30716905Y7290728D01*
X-30716905Y7290728D02*
X-31019286Y7290728D01*
X-31019286Y7290728D02*
X-31140238Y7230252D01*
X-31140238Y7230252D02*
X-31200714Y7169776D01*
X-31200714Y7169776D02*
X-31261191Y7048824D01*
X-31261191Y7048824D02*
X-31261191Y6927871D01*
X-31261191Y6927871D02*
X-31200714Y6746443D01*
X-31200714Y6746443D02*
X-30475000Y6020728D01*
X-30475000Y6020728D02*
X-31261191Y6020728D01*
X11401924Y-36570094D02*
X11462401Y-36509618D01*
X11462401Y-36509618D02*
X11522877Y-36328189D01*
X11522877Y-36328189D02*
X11522877Y-36207237D01*
X11522877Y-36207237D02*
X11462401Y-36025808D01*
X11462401Y-36025808D02*
X11341448Y-35904856D01*
X11341448Y-35904856D02*
X11220496Y-35844379D01*
X11220496Y-35844379D02*
X10978591Y-35783903D01*
X10978591Y-35783903D02*
X10797162Y-35783903D01*
X10797162Y-35783903D02*
X10555258Y-35844379D01*
X10555258Y-35844379D02*
X10434305Y-35904856D01*
X10434305Y-35904856D02*
X10313353Y-36025808D01*
X10313353Y-36025808D02*
X10252877Y-36207237D01*
X10252877Y-36207237D02*
X10252877Y-36328189D01*
X10252877Y-36328189D02*
X10313353Y-36509618D01*
X10313353Y-36509618D02*
X10373829Y-36570094D01*
X10676210Y-37658665D02*
X11522877Y-37658665D01*
X10192401Y-37356284D02*
X11099543Y-37053903D01*
X11099543Y-37053903D02*
X11099543Y-37840094D01*
X30595952Y-13039271D02*
X31200714Y-13039271D01*
X31200714Y-13039271D02*
X31200714Y-11769271D01*
X30172619Y-12374033D02*
X29749285Y-12374033D01*
X29567857Y-13039271D02*
X30172619Y-13039271D01*
X30172619Y-13039271D02*
X30172619Y-11769271D01*
X30172619Y-11769271D02*
X29567857Y-11769271D01*
X29023571Y-13039271D02*
X29023571Y-11769271D01*
X29023571Y-11769271D02*
X28721190Y-11769271D01*
X28721190Y-11769271D02*
X28539761Y-11829747D01*
X28539761Y-11829747D02*
X28418809Y-11950699D01*
X28418809Y-11950699D02*
X28358332Y-12071652D01*
X28358332Y-12071652D02*
X28297856Y-12313556D01*
X28297856Y-12313556D02*
X28297856Y-12494985D01*
X28297856Y-12494985D02*
X28358332Y-12736890D01*
X28358332Y-12736890D02*
X28418809Y-12857842D01*
X28418809Y-12857842D02*
X28539761Y-12978795D01*
X28539761Y-12978795D02*
X28721190Y-13039271D01*
X28721190Y-13039271D02*
X29023571Y-13039271D01*
X27814047Y-11890223D02*
X27753571Y-11829747D01*
X27753571Y-11829747D02*
X27632618Y-11769271D01*
X27632618Y-11769271D02*
X27330237Y-11769271D01*
X27330237Y-11769271D02*
X27209285Y-11829747D01*
X27209285Y-11829747D02*
X27148809Y-11890223D01*
X27148809Y-11890223D02*
X27088332Y-12011175D01*
X27088332Y-12011175D02*
X27088332Y-12132128D01*
X27088332Y-12132128D02*
X27148809Y-12313556D01*
X27148809Y-12313556D02*
X27874523Y-13039271D01*
X27874523Y-13039271D02*
X27088332Y-13039271D01*
X26483570Y-13039271D02*
X26241666Y-13039271D01*
X26241666Y-13039271D02*
X26120713Y-12978795D01*
X26120713Y-12978795D02*
X26060237Y-12918318D01*
X26060237Y-12918318D02*
X25939285Y-12736890D01*
X25939285Y-12736890D02*
X25878808Y-12494985D01*
X25878808Y-12494985D02*
X25878808Y-12011175D01*
X25878808Y-12011175D02*
X25939285Y-11890223D01*
X25939285Y-11890223D02*
X25999761Y-11829747D01*
X25999761Y-11829747D02*
X26120713Y-11769271D01*
X26120713Y-11769271D02*
X26362618Y-11769271D01*
X26362618Y-11769271D02*
X26483570Y-11829747D01*
X26483570Y-11829747D02*
X26544047Y-11890223D01*
X26544047Y-11890223D02*
X26604523Y-12011175D01*
X26604523Y-12011175D02*
X26604523Y-12313556D01*
X26604523Y-12313556D02*
X26544047Y-12434509D01*
X26544047Y-12434509D02*
X26483570Y-12494985D01*
X26483570Y-12494985D02*
X26362618Y-12555461D01*
X26362618Y-12555461D02*
X26120713Y-12555461D01*
X26120713Y-12555461D02*
X25999761Y-12494985D01*
X25999761Y-12494985D02*
X25939285Y-12434509D01*
X25939285Y-12434509D02*
X25878808Y-12313556D01*
X15245503Y-16604220D02*
X15305979Y-16664697D01*
X15305979Y-16664697D02*
X15487408Y-16725173D01*
X15487408Y-16725173D02*
X15608360Y-16725173D01*
X15608360Y-16725173D02*
X15789789Y-16664697D01*
X15789789Y-16664697D02*
X15910741Y-16543744D01*
X15910741Y-16543744D02*
X15971218Y-16422792D01*
X15971218Y-16422792D02*
X16031694Y-16180887D01*
X16031694Y-16180887D02*
X16031694Y-15999458D01*
X16031694Y-15999458D02*
X15971218Y-15757554D01*
X15971218Y-15757554D02*
X15910741Y-15636601D01*
X15910741Y-15636601D02*
X15789789Y-15515649D01*
X15789789Y-15515649D02*
X15608360Y-15455173D01*
X15608360Y-15455173D02*
X15487408Y-15455173D01*
X15487408Y-15455173D02*
X15305979Y-15515649D01*
X15305979Y-15515649D02*
X15245503Y-15576125D01*
X14035979Y-16725173D02*
X14761694Y-16725173D01*
X14398837Y-16725173D02*
X14398837Y-15455173D01*
X14398837Y-15455173D02*
X14519789Y-15636601D01*
X14519789Y-15636601D02*
X14640741Y-15757554D01*
X14640741Y-15757554D02*
X14761694Y-15818030D01*
X13552170Y-15576125D02*
X13491694Y-15515649D01*
X13491694Y-15515649D02*
X13370741Y-15455173D01*
X13370741Y-15455173D02*
X13068360Y-15455173D01*
X13068360Y-15455173D02*
X12947408Y-15515649D01*
X12947408Y-15515649D02*
X12886932Y-15576125D01*
X12886932Y-15576125D02*
X12826455Y-15697077D01*
X12826455Y-15697077D02*
X12826455Y-15818030D01*
X12826455Y-15818030D02*
X12886932Y-15999458D01*
X12886932Y-15999458D02*
X13612646Y-16725173D01*
X13612646Y-16725173D02*
X12826455Y-16725173D01*
X-38582294Y-16668254D02*
X-38521818Y-16607778D01*
X-38521818Y-16607778D02*
X-38461341Y-16426349D01*
X-38461341Y-16426349D02*
X-38461341Y-16305397D01*
X-38461341Y-16305397D02*
X-38521818Y-16123968D01*
X-38521818Y-16123968D02*
X-38642770Y-16003016D01*
X-38642770Y-16003016D02*
X-38763722Y-15942539D01*
X-38763722Y-15942539D02*
X-39005627Y-15882063D01*
X-39005627Y-15882063D02*
X-39187056Y-15882063D01*
X-39187056Y-15882063D02*
X-39428960Y-15942539D01*
X-39428960Y-15942539D02*
X-39549913Y-16003016D01*
X-39549913Y-16003016D02*
X-39670865Y-16123968D01*
X-39670865Y-16123968D02*
X-39731341Y-16305397D01*
X-39731341Y-16305397D02*
X-39731341Y-16426349D01*
X-39731341Y-16426349D02*
X-39670865Y-16607778D01*
X-39670865Y-16607778D02*
X-39610389Y-16668254D01*
X-38461341Y-17877778D02*
X-38461341Y-17152063D01*
X-38461341Y-17514920D02*
X-39731341Y-17514920D01*
X-39731341Y-17514920D02*
X-39549913Y-17393968D01*
X-39549913Y-17393968D02*
X-39428960Y-17273016D01*
X-39428960Y-17273016D02*
X-39368484Y-17152063D01*
X-39731341Y-18966349D02*
X-39731341Y-18724444D01*
X-39731341Y-18724444D02*
X-39670865Y-18603492D01*
X-39670865Y-18603492D02*
X-39610389Y-18543016D01*
X-39610389Y-18543016D02*
X-39428960Y-18422063D01*
X-39428960Y-18422063D02*
X-39187056Y-18361587D01*
X-39187056Y-18361587D02*
X-38703246Y-18361587D01*
X-38703246Y-18361587D02*
X-38582294Y-18422063D01*
X-38582294Y-18422063D02*
X-38521818Y-18482540D01*
X-38521818Y-18482540D02*
X-38461341Y-18603492D01*
X-38461341Y-18603492D02*
X-38461341Y-18845397D01*
X-38461341Y-18845397D02*
X-38521818Y-18966349D01*
X-38521818Y-18966349D02*
X-38582294Y-19026825D01*
X-38582294Y-19026825D02*
X-38703246Y-19087302D01*
X-38703246Y-19087302D02*
X-39005627Y-19087302D01*
X-39005627Y-19087302D02*
X-39126579Y-19026825D01*
X-39126579Y-19026825D02*
X-39187056Y-18966349D01*
X-39187056Y-18966349D02*
X-39247532Y-18845397D01*
X-39247532Y-18845397D02*
X-39247532Y-18603492D01*
X-39247532Y-18603492D02*
X-39187056Y-18482540D01*
X-39187056Y-18482540D02*
X-39126579Y-18422063D01*
X-39126579Y-18422063D02*
X-39005627Y-18361587D01*
X-2645728Y-16732856D02*
X-3915728Y-16732856D01*
X-3915728Y-16732856D02*
X-3915728Y-17035237D01*
X-3915728Y-17035237D02*
X-3855252Y-17216666D01*
X-3855252Y-17216666D02*
X-3734300Y-17337618D01*
X-3734300Y-17337618D02*
X-3613347Y-17398095D01*
X-3613347Y-17398095D02*
X-3371443Y-17458571D01*
X-3371443Y-17458571D02*
X-3190014Y-17458571D01*
X-3190014Y-17458571D02*
X-2948109Y-17398095D01*
X-2948109Y-17398095D02*
X-2827157Y-17337618D01*
X-2827157Y-17337618D02*
X-2706205Y-17216666D01*
X-2706205Y-17216666D02*
X-2645728Y-17035237D01*
X-2645728Y-17035237D02*
X-2645728Y-16732856D01*
X-2645728Y-18668095D02*
X-2645728Y-17942380D01*
X-2645728Y-18305237D02*
X-3915728Y-18305237D01*
X-3915728Y-18305237D02*
X-3734300Y-18184285D01*
X-3734300Y-18184285D02*
X-3613347Y-18063333D01*
X-3613347Y-18063333D02*
X-3552871Y-17942380D01*
X-2645728Y-19877619D02*
X-2645728Y-19151904D01*
X-2645728Y-19514761D02*
X-3915728Y-19514761D01*
X-3915728Y-19514761D02*
X-3734300Y-19393809D01*
X-3734300Y-19393809D02*
X-3613347Y-19272857D01*
X-3613347Y-19272857D02*
X-3552871Y-19151904D01*
X11555952Y6020728D02*
X12160714Y6020728D01*
X12160714Y6020728D02*
X12160714Y7290728D01*
X11132619Y6685966D02*
X10709285Y6685966D01*
X10527857Y6020728D02*
X11132619Y6020728D01*
X11132619Y6020728D02*
X11132619Y7290728D01*
X11132619Y7290728D02*
X10527857Y7290728D01*
X9983571Y6020728D02*
X9983571Y7290728D01*
X9983571Y7290728D02*
X9681190Y7290728D01*
X9681190Y7290728D02*
X9499761Y7230252D01*
X9499761Y7230252D02*
X9378809Y7109300D01*
X9378809Y7109300D02*
X9318332Y6988347D01*
X9318332Y6988347D02*
X9257856Y6746443D01*
X9257856Y6746443D02*
X9257856Y6565014D01*
X9257856Y6565014D02*
X9318332Y6323109D01*
X9318332Y6323109D02*
X9378809Y6202157D01*
X9378809Y6202157D02*
X9499761Y6081205D01*
X9499761Y6081205D02*
X9681190Y6020728D01*
X9681190Y6020728D02*
X9983571Y6020728D01*
X8774047Y7169776D02*
X8713571Y7230252D01*
X8713571Y7230252D02*
X8592618Y7290728D01*
X8592618Y7290728D02*
X8290237Y7290728D01*
X8290237Y7290728D02*
X8169285Y7230252D01*
X8169285Y7230252D02*
X8108809Y7169776D01*
X8108809Y7169776D02*
X8048332Y7048824D01*
X8048332Y7048824D02*
X8048332Y6927871D01*
X8048332Y6927871D02*
X8108809Y6746443D01*
X8108809Y6746443D02*
X8834523Y6020728D01*
X8834523Y6020728D02*
X8048332Y6020728D01*
X6959761Y6867395D02*
X6959761Y6020728D01*
X7262142Y7351205D02*
X7564523Y6444062D01*
X7564523Y6444062D02*
X6778332Y6444062D01*
%TO.C,Y1*%
D11*
X-37075000Y-32375000D02*
G75*
G02*
X-37325000Y-32375000I-125000J0D01*
G01*
X-37325000Y-32375000D02*
G75*
G02*
X-37075000Y-32375000I125000J0D01*
G01*
%TO.C,J2*%
X-2415000Y-47820000D02*
G75*
G02*
X-2665000Y-47820000I-125000J0D01*
G01*
X-2665000Y-47820000D02*
G75*
G02*
X-2415000Y-47820000I125000J0D01*
G01*
%TO.C,LED19*%
X-13305000Y-32750000D02*
G75*
G02*
X-13555000Y-32750000I-125000J0D01*
G01*
X-13555000Y-32750000D02*
G75*
G02*
X-13305000Y-32750000I125000J0D01*
G01*
%TO.C,U2*%
X-13968922Y-1612972D02*
G75*
G02*
X-14218922Y-1612972I-125000J0D01*
G01*
X-14218922Y-1612972D02*
G75*
G02*
X-13968922Y-1612972I125000J0D01*
G01*
%TO.C,LED21*%
X24795000Y-32750000D02*
G75*
G02*
X24545000Y-32750000I-125000J0D01*
G01*
X24545000Y-32750000D02*
G75*
G02*
X24795000Y-32750000I125000J0D01*
G01*
%TO.C,LED17*%
X-13305000Y24390000D02*
G75*
G02*
X-13555000Y24390000I-125000J0D01*
G01*
X-13555000Y24390000D02*
G75*
G02*
X-13305000Y24390000I125000J0D01*
G01*
%TO.C,LED27*%
X-13305000Y-13710000D02*
G75*
G02*
X-13555000Y-13710000I-125000J0D01*
G01*
X-13555000Y-13710000D02*
G75*
G02*
X-13305000Y-13710000I125000J0D01*
G01*
%TO.C,D12*%
D12*
X15000000Y-20600000D02*
X14050000Y-20600000D01*
%TO.C,D6*%
X-23100000Y-1550000D02*
X-24050000Y-1550000D01*
%TO.C,U1*%
D11*
X-825000Y39450000D02*
G75*
G02*
X-1075000Y39450000I-125000J0D01*
G01*
X-1075000Y39450000D02*
G75*
G02*
X-825000Y39450000I125000J0D01*
G01*
%TO.C,D5*%
D12*
X34050000Y-38150000D02*
X33100000Y-38150000D01*
%TO.C,U3*%
D11*
X-37125000Y-29350000D02*
G75*
G02*
X-37375000Y-29350000I-125000J0D01*
G01*
X-37375000Y-29350000D02*
G75*
G02*
X-37125000Y-29350000I125000J0D01*
G01*
%TO.C,D7*%
D12*
X-4050000Y-1550000D02*
X-5000000Y-1550000D01*
%TO.C,LED20*%
D11*
X5755000Y-32750000D02*
G75*
G02*
X5505000Y-32750000I-125000J0D01*
G01*
X5505000Y-32750000D02*
G75*
G02*
X5755000Y-32750000I125000J0D01*
G01*
%TO.C,D9*%
D12*
X34050000Y-1550000D02*
X33100000Y-1550000D01*
%TO.C,D1*%
X-4050000Y17500000D02*
X-5000000Y17500000D01*
%TO.C,LED23*%
D11*
X-13305000Y5350000D02*
G75*
G02*
X-13555000Y5350000I-125000J0D01*
G01*
X-13555000Y5350000D02*
G75*
G02*
X-13305000Y5350000I125000J0D01*
G01*
%TO.C,D10*%
D12*
X-23100000Y-20600000D02*
X-24050000Y-20600000D01*
%TO.C,D3*%
X-4050000Y-38150000D02*
X-5000000Y-38150000D01*
%TO.C,J3*%
D11*
X-3875000Y41595000D02*
G75*
G02*
X-4125000Y41595000I-125000J0D01*
G01*
X-4125000Y41595000D02*
G75*
G02*
X-3875000Y41595000I125000J0D01*
G01*
%TO.C,D8*%
D12*
X15000000Y-1550000D02*
X14050000Y-1550000D01*
%TO.C,D2*%
X15000000Y17500000D02*
X14050000Y17500000D01*
%TO.C,LED28*%
D11*
X5755000Y-13710000D02*
G75*
G02*
X5505000Y-13710000I-125000J0D01*
G01*
X5505000Y-13710000D02*
G75*
G02*
X5755000Y-13710000I125000J0D01*
G01*
%TO.C,D13*%
D12*
X34050000Y-20600000D02*
X33100000Y-20600000D01*
%TO.C,LED25*%
D11*
X24795000Y5350000D02*
G75*
G02*
X24545000Y5350000I-125000J0D01*
G01*
X24545000Y5350000D02*
G75*
G02*
X24795000Y5350000I125000J0D01*
G01*
%TO.C,LED26*%
X-32345000Y-13710000D02*
G75*
G02*
X-32595000Y-13710000I-125000J0D01*
G01*
X-32595000Y-13710000D02*
G75*
G02*
X-32345000Y-13710000I125000J0D01*
G01*
%TO.C,D4*%
D12*
X15000000Y-38150000D02*
X14050000Y-38150000D01*
%TO.C,LED18*%
D11*
X5755000Y24390000D02*
G75*
G02*
X5505000Y24390000I-125000J0D01*
G01*
X5505000Y24390000D02*
G75*
G02*
X5755000Y24390000I125000J0D01*
G01*
%TO.C,LED22*%
X-32345000Y5350000D02*
G75*
G02*
X-32595000Y5350000I-125000J0D01*
G01*
X-32595000Y5350000D02*
G75*
G02*
X-32345000Y5350000I125000J0D01*
G01*
%TO.C,LED29*%
X24795000Y-13710000D02*
G75*
G02*
X24545000Y-13710000I-125000J0D01*
G01*
X24545000Y-13710000D02*
G75*
G02*
X24795000Y-13710000I125000J0D01*
G01*
%TO.C,D11*%
D12*
X-4050000Y-20600000D02*
X-5000000Y-20600000D01*
%TO.C,LED24*%
D11*
X5755000Y5350000D02*
G75*
G02*
X5505000Y5350000I-125000J0D01*
G01*
X5505000Y5350000D02*
G75*
G02*
X5755000Y5350000I125000J0D01*
G01*
%TD*%
M02*
