%TF.GenerationSoftware,KiCad,Pcbnew,10.0.4*%
%TF.CreationDate,2026-08-10T16:17:22+08:00*%
%TF.ProjectId,openmicro,6f70656e-6d69-4637-926f-2e6b69636164,rev?*%
%TF.SameCoordinates,Original*%
%TF.FileFunction,Copper,L4,Bot*%
%TF.FilePolarity,Positive*%
%FSLAX46Y46*%
G04 Gerber Fmt 4.6, Leading zero omitted, Abs format (unit mm)*
G04 Created by KiCad (PCBNEW 10.0.4) date 2026-08-10 16:17:22*
%MOMM*%
%LPD*%
G01*
G04 APERTURE LIST*
%TA.AperFunction,ComponentPad*%
%ADD10C,2.200000*%
%TD*%
%TA.AperFunction,ComponentPad*%
%ADD11O,2.100000X2.600000*%
%TD*%
%TA.AperFunction,ComponentPad*%
%ADD12C,2.000000*%
%TD*%
%TA.AperFunction,ComponentPad*%
%ADD13C,3.200000*%
%TD*%
%TA.AperFunction,ComponentPad*%
%ADD14C,1.700000*%
%TD*%
%TA.AperFunction,ComponentPad*%
%ADD15C,1.900000*%
%TD*%
%TA.AperFunction,ComponentPad*%
%ADD16C,4.000000*%
%TD*%
%TA.AperFunction,SMDPad,CuDef*%
%ADD17R,0.540000X0.640000*%
%TD*%
%TA.AperFunction,SMDPad,CuDef*%
%ADD18R,1.300000X1.050000*%
%TD*%
%TA.AperFunction,SMDPad,CuDef*%
%ADD19R,0.640000X0.540000*%
%TD*%
%TA.AperFunction,SMDPad,CuDef*%
%ADD20R,1.270000X3.430000*%
%TD*%
%TA.AperFunction,SMDPad,CuDef*%
%ADD21R,1.350000X0.820000*%
%TD*%
%TA.AperFunction,SMDPad,CuDef*%
%ADD22R,0.800000X0.550000*%
%TD*%
%TA.AperFunction,SMDPad,CuDef*%
%ADD23R,0.950000X0.900000*%
%TD*%
%TA.AperFunction,SMDPad,CuDef*%
%ADD24R,0.600000X1.200000*%
%TD*%
%TA.AperFunction,SMDPad,CuDef*%
%ADD25R,0.300000X1.200000*%
%TD*%
%TA.AperFunction,SMDPad,CuDef*%
%ADD26R,1.200000X0.300000*%
%TD*%
%TA.AperFunction,SMDPad,CuDef*%
%ADD27R,0.800000X0.950000*%
%TD*%
%TA.AperFunction,SMDPad,CuDef*%
%ADD28R,0.600000X1.640000*%
%TD*%
%TA.AperFunction,SMDPad,CuDef*%
%ADD29R,0.300000X1.640000*%
%TD*%
%TA.AperFunction,ComponentPad*%
%ADD30O,0.900000X2.000000*%
%TD*%
%TA.AperFunction,ComponentPad*%
%ADD31O,0.900000X1.700000*%
%TD*%
%TA.AperFunction,ViaPad*%
%ADD32C,0.450450*%
%TD*%
%TA.AperFunction,Conductor*%
%ADD33C,0.152552*%
%TD*%
%TA.AperFunction,Conductor*%
%ADD34C,0.225273*%
%TD*%
G04 APERTURE END LIST*
D10*
%TO.P,SW4,1*%
%TO.N,ROW0*%
X9525000Y34475000D03*
%TO.P,SW4,2*%
%TO.N,KEY2*%
X14525000Y32375000D03*
D11*
%TO.P,SW4,3*%
%TO.N,N/C*%
X4525000Y23425000D03*
%TD*%
D12*
%TO.P,SW1,1*%
%TO.N,ENC_A*%
X-35575000Y31075000D03*
%TO.P,SW1,2*%
%TO.N,GND*%
X-35575000Y28575000D03*
%TO.P,SW1,3*%
%TO.N,ENC_B*%
X-35575000Y26075000D03*
%TO.P,SW1,4*%
%TO.N,ENC_SW*%
X-21075000Y26075000D03*
%TO.P,SW1,5*%
%TO.N,GND*%
X-21075000Y31075000D03*
D13*
%TO.P,SW1,6*%
X-28075000Y34175000D03*
%TO.P,SW1,7*%
X-28075000Y22975000D03*
%TD*%
D10*
%TO.P,SW8,1*%
%TO.N,ROW1*%
X-28575000Y15425000D03*
%TO.P,SW8,2*%
%TO.N,KEY3*%
X-23575000Y13325000D03*
D11*
%TO.P,SW8,3*%
%TO.N,N/C*%
X-33575000Y4375000D03*
%TD*%
D10*
%TO.P,SW15,1*%
%TO.N,ROW2*%
X28575000Y-3625000D03*
%TO.P,SW15,2*%
%TO.N,KEY10*%
X33575000Y-5725000D03*
D11*
%TO.P,SW15,3*%
%TO.N,N/C*%
X23575000Y-14675000D03*
%TD*%
D10*
%TO.P,SW6,1*%
%TO.N,ROW3*%
X9525000Y-22675000D03*
%TO.P,SW6,2*%
%TO.N,KEY12*%
X14525000Y-24775000D03*
D11*
%TO.P,SW6,3*%
%TO.N,N/C*%
X4525000Y-33725000D03*
%TD*%
D10*
%TO.P,SW10,1*%
%TO.N,ROW1*%
X9525000Y15425000D03*
%TO.P,SW10,2*%
%TO.N,KEY5*%
X14525000Y13325000D03*
D11*
%TO.P,SW10,3*%
%TO.N,N/C*%
X4525000Y4375000D03*
%TD*%
D10*
%TO.P,SW7,1*%
%TO.N,ROW3*%
X28575000Y-22675000D03*
%TO.P,SW7,2*%
%TO.N,KEY13*%
X33575000Y-24775000D03*
D11*
%TO.P,SW7,3*%
%TO.N,N/C*%
X23575000Y-33725000D03*
%TD*%
D14*
%TO.P,J1,A1*%
%TO.N,GND*%
X20845000Y32075000D03*
%TO.P,J1,A2*%
%TO.N,JOY_X*%
X20845000Y29575000D03*
%TO.P,J1,A3*%
%TO.N,V3V3*%
X20845000Y27075000D03*
%TO.P,J1,B1*%
%TO.N,GND*%
X27075000Y20845000D03*
%TO.P,J1,B2*%
%TO.N,JOY_Y*%
X29575000Y20845000D03*
%TO.P,J1,B3*%
%TO.N,V3V3*%
X32075000Y20845000D03*
D10*
%TO.P,J1,L1*%
%TO.N,GND*%
X35900000Y24575000D03*
%TO.P,J1,L2*%
X23250000Y24575000D03*
%TO.P,J1,L3*%
X35900000Y34575000D03*
%TO.P,J1,L4*%
X23250000Y34575000D03*
D15*
%TO.P,J1,SA*%
%TO.N,JOY_SW*%
X32825000Y35325000D03*
%TO.P,J1,SB*%
%TO.N,GND*%
X32825000Y39825000D03*
%TO.P,J1,SC*%
%TO.N,JOY_SW*%
X26325000Y35325000D03*
%TO.P,J1,SD*%
%TO.N,GND*%
X26325000Y39825000D03*
%TD*%
D10*
%TO.P,SW14,1*%
%TO.N,ROW2*%
X9525000Y-3625000D03*
%TO.P,SW14,2*%
%TO.N,KEY9*%
X14525000Y-5725000D03*
D11*
%TO.P,SW14,3*%
%TO.N,N/C*%
X4525000Y-14675000D03*
%TD*%
D16*
%TO.P,H3,1*%
%TO.N,GND*%
X42500000Y-42500000D03*
%TD*%
D10*
%TO.P,SW3,1*%
%TO.N,ROW0*%
X-9525000Y34475000D03*
%TO.P,SW3,2*%
%TO.N,KEY1*%
X-4525000Y32375000D03*
D11*
%TO.P,SW3,3*%
%TO.N,N/C*%
X-14525000Y23425000D03*
%TD*%
D10*
%TO.P,SW9,1*%
%TO.N,ROW1*%
X-9525000Y15425000D03*
%TO.P,SW9,2*%
%TO.N,KEY4*%
X-4525000Y13325000D03*
D11*
%TO.P,SW9,3*%
%TO.N,N/C*%
X-14525000Y4375000D03*
%TD*%
D16*
%TO.P,H1,1*%
%TO.N,GND*%
X-42500000Y42500000D03*
%TD*%
D10*
%TO.P,SW12,1*%
%TO.N,ROW2*%
X-28575000Y-3625000D03*
%TO.P,SW12,2*%
%TO.N,KEY7*%
X-23575000Y-5725000D03*
D11*
%TO.P,SW12,3*%
%TO.N,N/C*%
X-33575000Y-14675000D03*
%TD*%
D16*
%TO.P,H4,1*%
%TO.N,GND*%
X-42500000Y-42500000D03*
%TD*%
D10*
%TO.P,SW13,1*%
%TO.N,ROW2*%
X-9525000Y-3625000D03*
%TO.P,SW13,2*%
%TO.N,KEY8*%
X-4525000Y-5725000D03*
D11*
%TO.P,SW13,3*%
%TO.N,N/C*%
X-14525000Y-14675000D03*
%TD*%
D16*
%TO.P,H2,1*%
%TO.N,GND*%
X42500000Y42500000D03*
%TD*%
D10*
%TO.P,SW5,1*%
%TO.N,ROW3*%
X-9525000Y-22675000D03*
%TO.P,SW5,2*%
%TO.N,KEY11*%
X-4525000Y-24775000D03*
D11*
%TO.P,SW5,3*%
%TO.N,N/C*%
X-14525000Y-33725000D03*
%TD*%
D10*
%TO.P,SW11,1*%
%TO.N,ROW1*%
X28575000Y15425000D03*
%TO.P,SW11,2*%
%TO.N,KEY6*%
X33575000Y13325000D03*
D11*
%TO.P,SW11,3*%
%TO.N,N/C*%
X23575000Y4375000D03*
%TD*%
D17*
%TO.P,R2,1*%
%TO.N,CC1*%
X-9459831Y39946551D03*
%TO.P,R2,2*%
%TO.N,GND*%
X-8439831Y39946551D03*
%TD*%
%TO.P,C29,1*%
%TO.N,HSE_OUT*%
X-43310000Y-31500000D03*
%TO.P,C29,2*%
%TO.N,GND*%
X-42290000Y-31500000D03*
%TD*%
D18*
%TO.P,Y1,1*%
%TO.N,HSE_IN*%
X-38350000Y-32375000D03*
%TO.P,Y1,2*%
%TO.N,GND*%
X-40650000Y-32375000D03*
%TO.P,Y1,3*%
%TO.N,HSE_OUT*%
X-40650000Y-30625000D03*
%TO.P,Y1,4*%
%TO.N,GND*%
X-38350000Y-30625000D03*
%TD*%
D17*
%TO.P,C28,1*%
%TO.N,HSE_IN*%
X-36710000Y-33800000D03*
%TO.P,C28,2*%
%TO.N,GND*%
X-35690000Y-33800000D03*
%TD*%
%TO.P,C17,1*%
%TO.N,V3V3*%
X-42580456Y-30190905D03*
%TO.P,C17,2*%
%TO.N,GND*%
X-43600456Y-30190905D03*
%TD*%
D19*
%TO.P,C15,1*%
%TO.N,V3V3*%
X-46148113Y-24025538D03*
%TO.P,C15,2*%
%TO.N,GND*%
X-46148113Y-25045538D03*
%TD*%
D20*
%TO.P,J2,1*%
%TO.N,GND*%
X-2540000Y-45605000D03*
%TO.P,J2,2*%
X-2540000Y-40395000D03*
%TO.P,J2,3*%
%TO.N,SWCLK*%
X0Y-45605000D03*
%TO.P,J2,4*%
%TO.N,UART_TX*%
X0Y-40395000D03*
%TO.P,J2,5*%
%TO.N,SWDIO*%
X2540000Y-45605000D03*
%TO.P,J2,6*%
%TO.N,UART_RX*%
X2540000Y-40395000D03*
%TD*%
D21*
%TO.P,LED19,1*%
%TO.N,GND*%
X-12255000Y-32750000D03*
%TO.P,LED19,2*%
%TO.N,LED_D10*%
X-12255000Y-34250000D03*
%TO.P,LED19,3*%
%TO.N,VBUS*%
X-6805000Y-34250000D03*
%TO.P,LED19,4*%
%TO.N,LED_D11*%
X-6805000Y-32750000D03*
%TD*%
D19*
%TO.P,C9,1*%
%TO.N,VBUS*%
X31410481Y1951298D03*
%TO.P,C9,2*%
%TO.N,GND*%
X31410481Y931298D03*
%TD*%
D22*
%TO.P,U2,1*%
%TO.N,VBUS*%
X-14993922Y-1612972D03*
%TO.P,U2,2*%
%TO.N,GND*%
X-14993922Y-2562972D03*
%TO.P,U2,3*%
%TO.N,VBUS*%
X-14993922Y-3512972D03*
%TO.P,U2,4*%
%TO.N,N/C*%
X-17393922Y-3512972D03*
%TO.P,U2,5*%
%TO.N,V3V3*%
X-17393922Y-1612972D03*
%TD*%
D21*
%TO.P,LED21,1*%
%TO.N,GND*%
X25845000Y-32750000D03*
%TO.P,LED21,2*%
%TO.N,LED_D12*%
X25845000Y-34250000D03*
%TO.P,LED21,3*%
%TO.N,VBUS*%
X31295000Y-34250000D03*
%TO.P,LED21,4*%
%TO.N,N/C*%
X31295000Y-32750000D03*
%TD*%
%TO.P,LED17,1*%
%TO.N,GND*%
X-12255000Y24390000D03*
%TO.P,LED17,2*%
%TO.N,LED_D0*%
X-12255000Y22890000D03*
%TO.P,LED17,3*%
%TO.N,VBUS*%
X-6805000Y22890000D03*
%TO.P,LED17,4*%
%TO.N,LED_D1*%
X-6805000Y24390000D03*
%TD*%
%TO.P,LED27,1*%
%TO.N,GND*%
X-12255000Y-13710000D03*
%TO.P,LED27,2*%
%TO.N,LED_D7*%
X-12255000Y-15210000D03*
%TO.P,LED27,3*%
%TO.N,VBUS*%
X-6805000Y-15210000D03*
%TO.P,LED27,4*%
%TO.N,LED_D8*%
X-6805000Y-13710000D03*
%TD*%
D23*
%TO.P,D12,1*%
%TO.N,COL2*%
X14525000Y-19850000D03*
%TO.P,D12,2*%
%TO.N,KEY9*%
X14525000Y-16700000D03*
%TD*%
%TO.P,D6,1*%
%TO.N,COL0*%
X-23575000Y-800000D03*
%TO.P,D6,2*%
%TO.N,KEY3*%
X-23575000Y2350000D03*
%TD*%
D24*
%TO.P,U1,1*%
%TO.N,USBC_DM*%
X-950000Y38350000D03*
%TO.P,U1,2*%
%TO.N,GND*%
X0Y38350000D03*
%TO.P,U1,3*%
%TO.N,USBC_DP*%
X950000Y38350000D03*
%TO.P,U1,4*%
%TO.N,USB_DP*%
X950000Y36050000D03*
%TO.P,U1,5*%
%TO.N,VBUS*%
X0Y36050000D03*
%TO.P,U1,6*%
%TO.N,USB_DM*%
X-950000Y36050000D03*
%TD*%
D23*
%TO.P,D5,1*%
%TO.N,COL3*%
X33575000Y-37400000D03*
%TO.P,D5,2*%
%TO.N,KEY13*%
X33575000Y-34250000D03*
%TD*%
D25*
%TO.P,U3,1*%
%TO.N,V3V3*%
X-37250000Y-28250000D03*
%TO.P,U3,2*%
%TO.N,COL3*%
X-37750000Y-28250000D03*
%TO.P,U3,3*%
%TO.N,COL2*%
X-38250000Y-28250000D03*
%TO.P,U3,4*%
%TO.N,N/C*%
X-38750000Y-28250000D03*
%TO.P,U3,5*%
%TO.N,HSE_IN*%
X-39250000Y-28250000D03*
%TO.P,U3,6*%
%TO.N,HSE_OUT*%
X-39750000Y-28250000D03*
%TO.P,U3,7*%
%TO.N,N/C*%
X-40250000Y-28250000D03*
%TO.P,U3,8*%
%TO.N,GND*%
X-40750000Y-28250000D03*
%TO.P,U3,9*%
%TO.N,V3V3*%
X-41250000Y-28250000D03*
%TO.P,U3,10*%
%TO.N,JOY_Y*%
X-41750000Y-28250000D03*
%TO.P,U3,11*%
%TO.N,N/C*%
X-42250000Y-28250000D03*
%TO.P,U3,12*%
X-42750000Y-28250000D03*
D26*
%TO.P,U3,13*%
X-44250000Y-26750000D03*
%TO.P,U3,14*%
X-44250000Y-26250000D03*
%TO.P,U3,15*%
X-44250000Y-25750000D03*
%TO.P,U3,16*%
X-44250000Y-25250000D03*
%TO.P,U3,17*%
X-44250000Y-24750000D03*
%TO.P,U3,18*%
X-44250000Y-24250000D03*
%TO.P,U3,19*%
%TO.N,JOY_X*%
X-44250000Y-23750000D03*
%TO.P,U3,20*%
%TO.N,N/C*%
X-44250000Y-23250000D03*
%TO.P,U3,21*%
X-44250000Y-22750000D03*
%TO.P,U3,22*%
X-44250000Y-22250000D03*
%TO.P,U3,23*%
%TO.N,GND*%
X-44250000Y-21750000D03*
%TO.P,U3,24*%
%TO.N,V3V3*%
X-44250000Y-21250000D03*
D25*
%TO.P,U3,25*%
%TO.N,ENC_A*%
X-42750000Y-19750000D03*
%TO.P,U3,26*%
%TO.N,ENC_B*%
X-42250000Y-19750000D03*
%TO.P,U3,27*%
%TO.N,UG_D0*%
X-41750000Y-19750000D03*
%TO.P,U3,28*%
%TO.N,ENC_SW*%
X-41250000Y-19750000D03*
%TO.P,U3,29*%
%TO.N,LED_D0*%
X-40750000Y-19750000D03*
%TO.P,U3,30*%
%TO.N,ROW0*%
X-40250000Y-19750000D03*
%TO.P,U3,31*%
%TO.N,ROW1*%
X-39750000Y-19750000D03*
%TO.P,U3,32*%
%TO.N,USB_DM*%
X-39250000Y-19750000D03*
%TO.P,U3,33*%
%TO.N,USB_DP*%
X-38750000Y-19750000D03*
%TO.P,U3,34*%
%TO.N,SWDIO*%
X-38250000Y-19750000D03*
%TO.P,U3,35*%
%TO.N,GND*%
X-37750000Y-19750000D03*
%TO.P,U3,36*%
%TO.N,V3V3*%
X-37250000Y-19750000D03*
D26*
%TO.P,U3,37*%
%TO.N,SWCLK*%
X-35750000Y-21250000D03*
%TO.P,U3,38*%
%TO.N,JOY_SW*%
X-35750000Y-21750000D03*
%TO.P,U3,39*%
%TO.N,ROW2*%
X-35750000Y-22250000D03*
%TO.P,U3,40*%
%TO.N,COL0*%
X-35750000Y-22750000D03*
%TO.P,U3,41*%
%TO.N,COL1*%
X-35750000Y-23250000D03*
%TO.P,U3,42*%
%TO.N,UART_TX*%
X-35750000Y-23750000D03*
%TO.P,U3,43*%
%TO.N,UART_RX*%
X-35750000Y-24250000D03*
%TO.P,U3,44*%
%TO.N,BOOT0*%
X-35750000Y-24750000D03*
%TO.P,U3,45*%
%TO.N,ROW3*%
X-35750000Y-25250000D03*
%TO.P,U3,46*%
%TO.N,TOUCH*%
X-35750000Y-25750000D03*
%TO.P,U3,47*%
%TO.N,GND*%
X-35750000Y-26250000D03*
%TO.P,U3,48*%
%TO.N,V3V3*%
X-35750000Y-26750000D03*
%TD*%
D23*
%TO.P,D7,1*%
%TO.N,COL1*%
X-4525000Y-800000D03*
%TO.P,D7,2*%
%TO.N,KEY4*%
X-4525000Y2350000D03*
%TD*%
D17*
%TO.P,C11,1*%
%TO.N,VBUS*%
X-5006706Y-14975902D03*
%TO.P,C11,2*%
%TO.N,GND*%
X-3986706Y-14975902D03*
%TD*%
D19*
%TO.P,C6,1*%
%TO.N,VBUS*%
X-25737956Y1951298D03*
%TO.P,C6,2*%
%TO.N,GND*%
X-25737956Y931298D03*
%TD*%
D21*
%TO.P,LED20,1*%
%TO.N,GND*%
X6805000Y-32750000D03*
%TO.P,LED20,2*%
%TO.N,LED_D11*%
X6805000Y-34250000D03*
%TO.P,LED20,3*%
%TO.N,VBUS*%
X12255000Y-34250000D03*
%TO.P,LED20,4*%
%TO.N,LED_D12*%
X12255000Y-32750000D03*
%TD*%
D19*
%TO.P,C7,1*%
%TO.N,VBUS*%
X-6812175Y1951298D03*
%TO.P,C7,2*%
%TO.N,GND*%
X-6812175Y931298D03*
%TD*%
D23*
%TO.P,D9,1*%
%TO.N,COL3*%
X33575000Y-800000D03*
%TO.P,D9,2*%
%TO.N,KEY6*%
X33575000Y2350000D03*
%TD*%
%TO.P,D1,1*%
%TO.N,COL1*%
X-4525000Y18250000D03*
%TO.P,D1,2*%
%TO.N,KEY1*%
X-4525000Y21400000D03*
%TD*%
D19*
%TO.P,C5,1*%
%TO.N,VBUS*%
X31410481Y-36271761D03*
%TO.P,C5,2*%
%TO.N,GND*%
X31410481Y-37291761D03*
%TD*%
D21*
%TO.P,LED23,1*%
%TO.N,GND*%
X-12255000Y5350000D03*
%TO.P,LED23,2*%
%TO.N,LED_D3*%
X-12255000Y3850000D03*
%TO.P,LED23,3*%
%TO.N,VBUS*%
X-6805000Y3850000D03*
%TO.P,LED23,4*%
%TO.N,LED_D4*%
X-6805000Y5350000D03*
%TD*%
D17*
%TO.P,C8,1*%
%TO.N,VBUS*%
X13919075Y3950079D03*
%TO.P,C8,2*%
%TO.N,GND*%
X14939075Y3950079D03*
%TD*%
%TO.P,C2,1*%
%TO.N,VBUS*%
X13919075Y22876059D03*
%TO.P,C2,2*%
%TO.N,GND*%
X14939075Y22876059D03*
%TD*%
%TO.P,C10,1*%
%TO.N,VBUS*%
X-23932488Y-14975902D03*
%TO.P,C10,2*%
%TO.N,GND*%
X-22912488Y-14975902D03*
%TD*%
D23*
%TO.P,D10,1*%
%TO.N,COL0*%
X-23575000Y-19850000D03*
%TO.P,D10,2*%
%TO.N,KEY7*%
X-23575000Y-16700000D03*
%TD*%
D27*
%TO.P,C26,1*%
%TO.N,VBUS*%
X-13306863Y-243093D03*
%TO.P,C26,2*%
%TO.N,GND*%
X-11656863Y-243093D03*
%TD*%
D19*
%TO.P,C1,1*%
%TO.N,VBUS*%
X-6812175Y20877278D03*
%TO.P,C1,2*%
%TO.N,GND*%
X-6812175Y19857278D03*
%TD*%
D23*
%TO.P,D3,1*%
%TO.N,COL1*%
X-4525000Y-37400000D03*
%TO.P,D3,2*%
%TO.N,KEY11*%
X-4525000Y-34250000D03*
%TD*%
D19*
%TO.P,C3,1*%
%TO.N,VBUS*%
X-6812175Y-36271761D03*
%TO.P,C3,2*%
%TO.N,GND*%
X-6812175Y-37291761D03*
%TD*%
D28*
%TO.P,J3,A1*%
%TO.N,GND*%
X-3200000Y41595000D03*
%TO.P,J3,A4*%
%TO.N,VBUS*%
X-2400000Y41595000D03*
D29*
%TO.P,J3,A5*%
%TO.N,CC1*%
X-1250000Y41595000D03*
%TO.P,J3,A6*%
%TO.N,USBC_DP*%
X-250000Y41595000D03*
%TO.P,J3,A7*%
%TO.N,USBC_DM*%
X250000Y41595000D03*
%TO.P,J3,A8*%
%TO.N,N/C*%
X1250000Y41595000D03*
D28*
%TO.P,J3,A9*%
%TO.N,VBUS*%
X2400000Y41595000D03*
%TO.P,J3,A12*%
%TO.N,GND*%
X3200000Y41595000D03*
%TO.P,J3,B1*%
X3200000Y41595000D03*
%TO.P,J3,B4*%
%TO.N,VBUS*%
X2400000Y41595000D03*
D29*
%TO.P,J3,B5*%
%TO.N,CC2*%
X1750000Y41595000D03*
%TO.P,J3,B6*%
%TO.N,USBC_DP*%
X750000Y41595000D03*
%TO.P,J3,B7*%
%TO.N,USBC_DM*%
X-750000Y41595000D03*
%TO.P,J3,B8*%
%TO.N,N/C*%
X-1750000Y41595000D03*
D28*
%TO.P,J3,B9*%
%TO.N,VBUS*%
X-2400000Y41595000D03*
%TO.P,J3,B12*%
%TO.N,GND*%
X-3200000Y41595000D03*
D30*
%TO.P,J3,SH1*%
X-4320000Y42510000D03*
%TO.P,J3,SH2*%
X4320000Y42510000D03*
D31*
%TO.P,J3,SH3*%
X-4320000Y46690000D03*
%TO.P,J3,SH4*%
X4320000Y46690000D03*
%TD*%
D23*
%TO.P,D8,1*%
%TO.N,COL2*%
X14525000Y-800000D03*
%TO.P,D8,2*%
%TO.N,KEY5*%
X14525000Y2350000D03*
%TD*%
%TO.P,D2,1*%
%TO.N,COL2*%
X14525000Y18250000D03*
%TO.P,D2,2*%
%TO.N,KEY2*%
X14525000Y21400000D03*
%TD*%
D21*
%TO.P,LED28,1*%
%TO.N,GND*%
X6805000Y-13710000D03*
%TO.P,LED28,2*%
%TO.N,LED_D8*%
X6805000Y-15210000D03*
%TO.P,LED28,3*%
%TO.N,VBUS*%
X12255000Y-15210000D03*
%TO.P,LED28,4*%
%TO.N,LED_D9*%
X12255000Y-13710000D03*
%TD*%
D23*
%TO.P,D13,1*%
%TO.N,COL3*%
X33575000Y-19850000D03*
%TO.P,D13,2*%
%TO.N,KEY10*%
X33575000Y-16700000D03*
%TD*%
D21*
%TO.P,LED25,1*%
%TO.N,GND*%
X25845000Y5350000D03*
%TO.P,LED25,2*%
%TO.N,LED_D5*%
X25845000Y3850000D03*
%TO.P,LED25,3*%
%TO.N,VBUS*%
X31295000Y3850000D03*
%TO.P,LED25,4*%
%TO.N,LED_D6*%
X31295000Y5350000D03*
%TD*%
%TO.P,LED26,1*%
%TO.N,GND*%
X-31295000Y-13710000D03*
%TO.P,LED26,2*%
%TO.N,LED_D6*%
X-31295000Y-15210000D03*
%TO.P,LED26,3*%
%TO.N,VBUS*%
X-25845000Y-15210000D03*
%TO.P,LED26,4*%
%TO.N,LED_D7*%
X-25845000Y-13710000D03*
%TD*%
D23*
%TO.P,D4,1*%
%TO.N,COL2*%
X14525000Y-37400000D03*
%TO.P,D4,2*%
%TO.N,KEY12*%
X14525000Y-34250000D03*
%TD*%
D21*
%TO.P,LED18,1*%
%TO.N,GND*%
X6805000Y24390000D03*
%TO.P,LED18,2*%
%TO.N,LED_D1*%
X6805000Y22890000D03*
%TO.P,LED18,3*%
%TO.N,VBUS*%
X12255000Y22890000D03*
%TO.P,LED18,4*%
%TO.N,LED_D2*%
X12255000Y24390000D03*
%TD*%
D17*
%TO.P,C13,1*%
%TO.N,VBUS*%
X33215950Y-14975902D03*
%TO.P,C13,2*%
%TO.N,GND*%
X34235950Y-14975902D03*
%TD*%
D19*
%TO.P,C27,1*%
%TO.N,V3V3*%
X-45034831Y-29963101D03*
%TO.P,C27,2*%
%TO.N,GND*%
X-45034831Y-30983101D03*
%TD*%
D21*
%TO.P,LED22,1*%
%TO.N,GND*%
X-31295000Y5350000D03*
%TO.P,LED22,2*%
%TO.N,LED_D2*%
X-31295000Y3850000D03*
%TO.P,LED22,3*%
%TO.N,VBUS*%
X-25845000Y3850000D03*
%TO.P,LED22,4*%
%TO.N,LED_D3*%
X-25845000Y5350000D03*
%TD*%
D19*
%TO.P,C4,1*%
%TO.N,VBUS*%
X12113606Y-36271761D03*
%TO.P,C4,2*%
%TO.N,GND*%
X12113606Y-37291761D03*
%TD*%
D21*
%TO.P,LED29,1*%
%TO.N,GND*%
X25845000Y-13710000D03*
%TO.P,LED29,2*%
%TO.N,LED_D9*%
X25845000Y-15210000D03*
%TO.P,LED29,3*%
%TO.N,VBUS*%
X31295000Y-15210000D03*
%TO.P,LED29,4*%
%TO.N,LED_D10*%
X31295000Y-13710000D03*
%TD*%
D17*
%TO.P,C12,1*%
%TO.N,VBUS*%
X13919075Y-14975902D03*
%TO.P,C12,2*%
%TO.N,GND*%
X14939075Y-14975902D03*
%TD*%
D19*
%TO.P,C16,1*%
%TO.N,V3V3*%
X-40210613Y-17994683D03*
%TO.P,C16,2*%
%TO.N,GND*%
X-40210613Y-16974683D03*
%TD*%
D23*
%TO.P,D11,1*%
%TO.N,COL1*%
X-4525000Y-19850000D03*
%TO.P,D11,2*%
%TO.N,KEY8*%
X-4525000Y-16700000D03*
%TD*%
D21*
%TO.P,LED24,1*%
%TO.N,GND*%
X6805000Y5350000D03*
%TO.P,LED24,2*%
%TO.N,LED_D4*%
X6805000Y3850000D03*
%TO.P,LED24,3*%
%TO.N,VBUS*%
X12255000Y3850000D03*
%TO.P,LED24,4*%
%TO.N,LED_D5*%
X12255000Y5350000D03*
%TD*%
D32*
%TO.N,CC1*%
X-1846584Y39956633D03*
X-5979244Y39997231D03*
%TO.N,GND*%
X-41953590Y12840246D03*
X-40182824Y-16285018D03*
X11368502Y-36238491D03*
X-40703235Y-27047528D03*
X-41500000Y46536247D03*
X-46536247Y-17714255D03*
X33368006Y-22080623D03*
X-2483167Y-38297848D03*
X-10872738Y-243093D03*
X-42747998Y-32157655D03*
X46536247Y-16829337D03*
X-9703180Y43486444D03*
X-29318021Y-21168048D03*
X-31200290Y6199286D03*
X-22601855Y-14248423D03*
X-16032113Y-2442970D03*
X-12297544Y25207428D03*
X-31210084Y-12868430D03*
X46536247Y30489668D03*
X-36691232Y-31743968D03*
X-25743886Y242404D03*
X-3573904Y-45437348D03*
X-37954585Y36989676D03*
X-32036199Y46536247D03*
X6878682Y-31940418D03*
X-12297544Y-12892572D03*
X18914697Y-41954496D03*
X-30575119Y-46536116D03*
X46536247Y2098265D03*
X35711947Y36270624D03*
X28303981Y25580928D03*
X-8355905Y-367447D03*
X-8890220Y17010326D03*
X-37358852Y-13848158D03*
X-12013221Y-16395843D03*
X9280317Y-20985757D03*
X2310912Y33193617D03*
X-44245368Y-9627758D03*
X-44927662Y1834468D03*
X-45255007Y-21867247D03*
X-3842706Y-27163204D03*
X-1241017Y-41364396D03*
X-40417097Y15341647D03*
X-40279900Y24748619D03*
X-18094586Y26909731D03*
X35273546Y1385333D03*
X17297369Y-46535539D03*
X45222008Y-44890901D03*
X31475442Y-37944763D03*
X20754374Y19500604D03*
X-22572398Y46536247D03*
X30396601Y-12048687D03*
X-13001548Y-41953196D03*
X-22699917Y14789993D03*
X-36756698Y-26026645D03*
X-26739834Y7009836D03*
X-21287203Y-27951013D03*
X3824559Y40504529D03*
X33010560Y14934939D03*
X-11857695Y-46394588D03*
X34558348Y-14273742D03*
X-43972956Y-30894990D03*
X15271666Y-14274150D03*
X-3429530Y-14400946D03*
X2543834Y21201283D03*
X6761706Y25208249D03*
X-43463320Y-20063908D03*
X3263983Y46536247D03*
X9545226Y-44615808D03*
X46536247Y21025867D03*
X36224971Y-46535311D03*
X46536247Y11562066D03*
X-45753606Y-30779958D03*
X14939075Y23580184D03*
X41953406Y-12771694D03*
X-35938006Y-33085872D03*
X7260451Y40654687D03*
X-19623768Y42725852D03*
X20705838Y-1295656D03*
X41493242Y46536247D03*
X-46536247Y31951313D03*
X-37554944Y-18749569D03*
X13390317Y46536247D03*
X-25858944Y37355965D03*
X-869999Y40155708D03*
X42686075Y19619743D03*
X7833568Y-46535653D03*
X-11729063Y6857034D03*
X26370937Y6857034D03*
X46536247Y-35756939D03*
X-46169080Y-25714093D03*
X-3707969Y-13157597D03*
X-32670991Y19466257D03*
X-5078001Y-2479040D03*
X-26749426Y-12046191D03*
X12038960Y42840963D03*
X6878534Y6159582D03*
X-7527056Y19783329D03*
X25918534Y6159582D03*
X15613622Y3954729D03*
X-40797306Y-33308714D03*
X-36408415Y5114307D03*
X-12181466Y6159582D03*
X6761706Y-12891751D03*
X1628618Y37353340D03*
X-33922693Y-33116715D03*
X7331026Y-31242929D03*
X-41493169Y-46536247D03*
X-6695633Y-37948447D03*
X18612355Y-27535632D03*
X-45573981Y-7392166D03*
X11911476Y-12278524D03*
X-8637232Y39228324D03*
X4819359Y2491670D03*
X-20971591Y-520011D03*
X-11729063Y-31242966D03*
X15207294Y9953568D03*
X25802456Y-12892572D03*
X-42511601Y-29233219D03*
X43320677Y10155197D03*
X30701604Y961185D03*
X-12181466Y-31940418D03*
X-38718276Y-24068284D03*
X-11176216Y34028523D03*
X-13108597Y46536247D03*
X11911476Y25821476D03*
X531312Y11853404D03*
X-7148524Y25821476D03*
X-3625804Y40379508D03*
X25918454Y-31940418D03*
X46536247Y-7365536D03*
X23139720Y-35577161D03*
X30951476Y-31318524D03*
X-46429362Y-31605479D03*
X46536247Y-26293138D03*
X-26678258Y-38548489D03*
X22393622Y40996304D03*
X26761170Y-46535425D03*
%TO.N,VBUS*%
X-2914939Y40022320D03*
X12051552Y-43077619D03*
X-15756585Y-1202305D03*
X35072725Y5800558D03*
X-24010745Y1399388D03*
X-35669874Y-1509955D03*
X44260718Y-19632466D03*
X-8521208Y-42609659D03*
%TO.N,ROW0*%
X-40088268Y-20735386D03*
%TO.N,ENC_SW*%
X-41229452Y-20749487D03*
%TO.N,ROW1*%
X-23147483Y16941359D03*
X-39430240Y-20746091D03*
%TO.N,KEY3*%
X-23474628Y4454169D03*
%TO.N,ROW2*%
X-11880310Y-2737044D03*
X-32612271Y-18228051D03*
%TO.N,KEY10*%
X32711424Y-16574274D03*
%TO.N,KEY5*%
X13629360Y2584399D03*
%TO.N,CC2*%
X2549110Y40108805D03*
%TO.N,KEY13*%
X33558647Y-33377359D03*
%TO.N,JOY_X*%
X-43247757Y-23802956D03*
%TO.N,JOY_Y*%
X-41837577Y-26900101D03*
%TO.N,JOY_SW*%
X-18082445Y-10716378D03*
%TO.N,UG_D0*%
X-41836398Y-20796449D03*
%TO.N,BOOT0*%
X-34135281Y-27813466D03*
%TO.N,KEY1*%
X-3610955Y24360204D03*
%TO.N,KEY7*%
X-24471584Y-16589515D03*
%TO.N,KEY8*%
X-4857443Y-15754275D03*
%TO.N,TOUCH*%
X-33698480Y-28737052D03*
%TO.N,SWCLK*%
X-35609849Y-20696692D03*
X-35990447Y-27491995D03*
%TO.N,UART_TX*%
X-1099369Y-39498514D03*
X-26097655Y-24105470D03*
%TO.N,SWDIO*%
X-38035982Y-22060486D03*
X-35528446Y-28079819D03*
%TO.N,UART_RX*%
X-24592816Y-24873230D03*
X-1673603Y-33579573D03*
%TO.N,LED_D10*%
X-6882258Y-22041609D03*
X31336441Y-12882717D03*
%TO.N,LED_D11*%
X2877273Y-35192557D03*
X-5842170Y-32066190D03*
%TO.N,LED_D12*%
X24642316Y-32035762D03*
X12292642Y-31948396D03*
%TO.N,LED_D0*%
X-38041146Y-14321972D03*
X-40650742Y-20988373D03*
%TO.N,LED_D1*%
X6971416Y22084471D03*
X-5735049Y24573699D03*
%TO.N,LED_D7*%
X-24788453Y-13390525D03*
X-19292185Y-12144195D03*
%TO.N,LED_D8*%
X-5731952Y-13331102D03*
X6971416Y-16015529D03*
%TO.N,COL2*%
X-37291675Y-29842566D03*
X17594871Y17362309D03*
X13641584Y-722027D03*
X14989259Y-28689495D03*
X13637866Y-37337802D03*
%TO.N,COL0*%
X-24934851Y-17152076D03*
X-26588362Y-4020944D03*
%TO.N,USBC_DP*%
X740946Y39371904D03*
X1014824Y40402559D03*
%TO.N,COL3*%
X35091680Y-16405455D03*
X34444580Y-19704454D03*
X34483970Y-31802697D03*
X-36759584Y-29454779D03*
%TO.N,COL1*%
X-150981Y16232009D03*
X-3640305Y18338612D03*
X-6212342Y-18531792D03*
X-20899497Y-20063404D03*
X-3430200Y-2134217D03*
%TO.N,LED_D3*%
X-21350164Y5708362D03*
X-13511379Y2686845D03*
X-22596807Y6335568D03*
X-20123477Y5091199D03*
%TO.N,LED_D9*%
X26012538Y-16015100D03*
X13323032Y-13900731D03*
%TO.N,LED_D2*%
X-18692682Y16293985D03*
X13335073Y24311712D03*
%TD*%
%TO.N,CC1*%
D33*
X-9459831Y39996551D02*
X-9459831Y39946551D01*
X-5979244Y39997231D02*
X-6486400Y40504388D01*
X-6486400Y40504388D02*
X-8951995Y40504388D01*
X-8951995Y40504388D02*
X-9068315Y40388068D01*
X-1250000Y40775000D02*
X-1250000Y40564555D01*
X-1250000Y41595000D02*
X-1250000Y40775000D01*
X-1846584Y39967970D02*
X-1846584Y39956633D01*
X-9068315Y40388068D02*
X-9459831Y39996551D01*
X-1250000Y40564555D02*
X-1846584Y39967970D01*
%TO.N,GND*%
X-40210613Y-16397749D02*
X-40210613Y-16312806D01*
X-8439831Y39626551D02*
X-8439831Y39435404D01*
X-7453107Y19857278D02*
X-7381216Y19857278D01*
X517035Y37532965D02*
X696660Y37353340D01*
X-25737956Y661298D02*
X-25737956Y277173D01*
X-25737956Y931298D02*
X-25737956Y661298D01*
X-31295000Y5760000D02*
X-31295000Y6028338D01*
X30731491Y931298D02*
X30701604Y961185D01*
X-46148113Y-25045538D02*
X-46148113Y-25315538D01*
X-43600456Y-30190905D02*
X-43600456Y-30240905D01*
X-40210613Y-16974683D02*
X-40210613Y-16704683D01*
X-2540000Y-38354681D02*
X-2483167Y-38297848D01*
X6805000Y-13070257D02*
X6805000Y-12935045D01*
X-44019264Y-30659713D02*
X-44019264Y-30848682D01*
X-45041148Y-21750000D02*
X-45137760Y-21750000D01*
X0Y38350000D02*
X0Y38050000D01*
X-40210613Y-16312806D02*
X-40182824Y-16285018D01*
X-12255000Y5970445D02*
X-12255000Y6086048D01*
X25845000Y-32750000D02*
X25845000Y-32340000D01*
X-40797306Y-33296346D02*
X-40650000Y-33149041D01*
X-45354831Y-30983101D02*
X-45545979Y-30983101D01*
X-42290000Y-31550000D02*
X-42290000Y-31500000D01*
X12063606Y-37291761D02*
X12113606Y-37291761D01*
X6805000Y5350000D02*
X6805000Y5760000D01*
X6805000Y6086048D02*
X6878534Y6159582D01*
X-12255000Y-32750000D02*
X-12255000Y-32340000D01*
X-12255000Y24800000D02*
X-12255000Y25029743D01*
X-6695633Y-37948447D02*
X-6812175Y-37831905D01*
X-43600456Y-30240905D02*
X-44019264Y-30659713D01*
X-15912112Y-2562972D02*
X-15565772Y-2562972D01*
X-44850000Y-21750000D02*
X-45041148Y-21750000D01*
X25845000Y-32340000D02*
X25845000Y-32129555D01*
X6805000Y25164955D02*
X6761706Y25208249D01*
X-44019264Y-30848682D02*
X-43972956Y-30894990D01*
X-2540000Y-40395000D02*
X-2540000Y-38680000D01*
X-12255000Y25029743D02*
X-12255000Y25164885D01*
X-42747998Y-32157655D02*
X-42747998Y-32007998D01*
X-42747998Y-32007998D02*
X-42681516Y-31941516D01*
X31410481Y-37830099D02*
X31410481Y-37561761D01*
X-3429530Y-14400946D02*
X-3467451Y-14438867D01*
X-12255000Y5760000D02*
X-12255000Y5970445D01*
X31410481Y-37561761D02*
X31410481Y-37291761D01*
X14939075Y-14484052D02*
X15148976Y-14274150D01*
X-35690000Y-33480000D02*
X-35690000Y-33230959D01*
X-12255000Y-32340000D02*
X-12255000Y-32129555D01*
X-37700000Y-30625000D02*
X-38350000Y-30625000D01*
X-44250000Y-21750000D02*
X-44850000Y-21750000D01*
X-7381216Y19857278D02*
X-7132175Y19857278D01*
X-37750000Y-19150000D02*
X-37750000Y-18958852D01*
X-36350000Y-26250000D02*
X-36521850Y-26250000D01*
X-40650000Y-33149041D02*
X-40650000Y-32900000D01*
X-40750000Y-27094293D02*
X-40703235Y-27047528D01*
X-35750000Y-26250000D02*
X-36350000Y-26250000D01*
X6805000Y5970445D02*
X6805000Y6086048D01*
X-25737956Y248334D02*
X-25743886Y242404D01*
X34235950Y-14655902D02*
X34235950Y-14464754D01*
X-45034831Y-30983101D02*
X-45354831Y-30983101D01*
X-6812175Y-37733611D02*
X-6812175Y-37561761D01*
X-6812175Y-37831905D02*
X-6812175Y-37733611D01*
X-36521850Y-26250000D02*
X-36745205Y-26026645D01*
X31410481Y-37879803D02*
X31410481Y-37830099D01*
X-31295000Y6104577D02*
X-31200290Y6199286D01*
X-12255000Y24390000D02*
X-12255000Y24800000D01*
X25845000Y5350000D02*
X25845000Y5760000D01*
X-40750000Y-28250000D02*
X-40750000Y-27650000D01*
X14939075Y3950079D02*
X15209075Y3950079D01*
X15593199Y3950079D02*
X15608971Y3950079D01*
X6805000Y-13710000D02*
X6805000Y-13300000D01*
X-12255000Y25164885D02*
X-12297544Y25207428D01*
X6805000Y24390000D02*
X6805000Y24800000D01*
X34426962Y-14273742D02*
X34558348Y-14273742D01*
X6805000Y24800000D02*
X6805000Y25029743D01*
X-37750000Y-18958852D02*
X-37554944Y-18763796D01*
X-36691232Y-31743968D02*
X-36691232Y-31288239D01*
X-12255000Y-13710000D02*
X-12255000Y-13300000D01*
X34235950Y-14464754D02*
X34426962Y-14273742D01*
X-45545979Y-30983101D02*
X-45749122Y-30779958D01*
X-45137760Y-21750000D02*
X-45255007Y-21867247D01*
X-45749122Y-30779958D02*
X-45753606Y-30779958D01*
X3505494Y40619133D02*
X3200013Y40775000D01*
X-37750000Y-19750000D02*
X-37750000Y-19150000D01*
X-15565772Y-2562972D02*
X-15393922Y-2562972D01*
X-31295000Y-13031662D02*
X-31295000Y-12953346D01*
X-8637232Y39238003D02*
X-8637232Y39228324D01*
X-16032113Y-2442970D02*
X-15912112Y-2562972D01*
X-6812175Y931298D02*
X-7132175Y931298D01*
X696660Y37353340D02*
X1628618Y37353340D01*
X25845000Y6086048D02*
X25918534Y6159582D01*
X11368502Y-36596656D02*
X11603862Y-36832017D01*
X6805000Y-32014101D02*
X6878682Y-31940418D01*
X6805000Y25029743D02*
X6805000Y25164955D01*
X-40210613Y-16704683D02*
X-40210613Y-16397749D01*
X15209075Y3950079D02*
X15593199Y3950079D01*
X-8439831Y39435404D02*
X-8637232Y39238003D01*
X-46148113Y-25315538D02*
X-46148113Y-25622472D01*
X-46148113Y-25622472D02*
X-46148113Y-25693125D01*
X3200007Y41185000D02*
X3200000Y41595000D01*
X-31295000Y-13300000D02*
X-31295000Y-13031662D01*
X-37354471Y-30625000D02*
X-37700000Y-30625000D01*
X-35690000Y-33800000D02*
X-35690000Y-33480000D01*
X14939075Y-14975902D02*
X14939075Y-14655902D01*
X31090481Y931298D02*
X30822143Y931298D01*
X-35690000Y-33230959D02*
X-35835087Y-33085872D01*
X-3404743Y-45605000D02*
X-3572395Y-45437348D01*
X-7132175Y19857278D02*
X-6812175Y19857278D01*
X0Y38050000D02*
X517035Y37532965D01*
X-3200014Y41185000D02*
X-3200029Y40775000D01*
X-3499671Y-14438867D02*
X-3986706Y-14925902D01*
X-8355905Y149584D02*
X-8355905Y-367447D01*
X25845000Y-13300000D02*
X25845000Y-13710000D01*
X15608971Y3950079D02*
X15613622Y3954729D01*
X25802456Y-12892572D02*
X25845000Y-12935115D01*
X-7132175Y931298D02*
X-7574192Y931298D01*
X25845000Y-13070257D02*
X25845000Y-13300000D01*
X11603862Y-36832017D02*
X12063606Y-37291761D01*
X6805000Y-13300000D02*
X6805000Y-13070257D01*
X-31295000Y5350000D02*
X-31295000Y5760000D01*
X-6812175Y-37561761D02*
X-6812175Y-37291761D01*
X-42681516Y-31941516D02*
X-42290000Y-31550000D01*
X-8439831Y39946551D02*
X-8439831Y39626551D01*
X-12255000Y-12935115D02*
X-12297544Y-12892572D01*
X25845000Y-12935115D02*
X25845000Y-13070257D01*
X-2540000Y-38680000D02*
X-2540000Y-38411662D01*
X-31295000Y-12953346D02*
X-31210084Y-12868430D01*
X-3572395Y-45437348D02*
X-3573904Y-45437348D01*
X-2540000Y-38411662D02*
X-2540000Y-38354681D01*
X31475442Y-37944763D02*
X31410481Y-37879803D01*
X-25737956Y277173D02*
X-25737956Y248334D01*
X14939075Y23196059D02*
X14939075Y23580184D01*
X-12255000Y5350000D02*
X-12255000Y5760000D01*
X-3200000Y41595000D02*
X-3200014Y41185000D01*
X34235950Y-14975902D02*
X34235950Y-14655902D01*
X-12255000Y-13300000D02*
X-12255000Y-13070257D01*
X25845000Y-32013872D02*
X25918454Y-31940418D01*
X14939075Y22876059D02*
X14939075Y23196059D01*
X-22715454Y-14248423D02*
X-22601855Y-14248423D01*
X-46148113Y-25693125D02*
X-46169080Y-25714093D01*
X-31295000Y-13710000D02*
X-31295000Y-13300000D01*
X-35835087Y-33085872D02*
X-35938006Y-33085872D01*
X15148976Y-14274150D02*
X15271666Y-14274150D01*
X31410481Y931298D02*
X31090481Y931298D01*
X-11256862Y-243093D02*
X-11656862Y-243093D01*
X-12255000Y6086048D02*
X-12181466Y6159582D01*
X6805000Y-32750000D02*
X6805000Y-32340000D01*
X6805000Y5760000D02*
X6805000Y5970445D01*
X-36745205Y-26026645D02*
X-36756698Y-26026645D01*
X-40750000Y-27227281D02*
X-40750000Y-27094293D01*
X-7527056Y19783329D02*
X-7453107Y19857278D01*
X-12255000Y-13070257D02*
X-12255000Y-12935115D01*
X-40797306Y-33308714D02*
X-40797306Y-33296346D01*
X25845000Y-32129555D02*
X25845000Y-32013872D01*
X-15393922Y-2562972D02*
X-14993922Y-2562972D01*
X-3986706Y-14925902D02*
X-3986706Y-14975902D01*
X-7574192Y931298D02*
X-8355905Y149584D01*
X-12255000Y-32013952D02*
X-12181466Y-31940418D01*
X30822143Y931298D02*
X30731491Y931298D01*
X11368502Y-36238491D02*
X11368502Y-36596656D01*
X-40650000Y-32900000D02*
X-40650000Y-32375000D01*
X6805000Y-32129555D02*
X6805000Y-32014101D01*
X-10872738Y-243093D02*
X-11256862Y-243093D01*
X25845000Y5760000D02*
X25845000Y5970445D01*
X3200013Y40775000D02*
X3200007Y41185000D01*
X-22912488Y-14445456D02*
X-22715454Y-14248423D01*
X-2540000Y-45605000D02*
X-3175000Y-45605000D01*
X-37554944Y-18763796D02*
X-37554944Y-18749569D01*
X-31295000Y6028338D02*
X-31295000Y6104577D01*
X-36691232Y-31288239D02*
X-37354471Y-30625000D01*
X-3200029Y40775000D02*
X-3625804Y40379508D01*
X3824559Y40504529D02*
X3505494Y40619133D01*
X6805000Y-32340000D02*
X6805000Y-32129555D01*
X-3175000Y-45605000D02*
X-3404743Y-45605000D01*
X-3467451Y-14438867D02*
X-3499671Y-14438867D01*
X-12255000Y-32129555D02*
X-12255000Y-32013952D01*
X-40750000Y-27650000D02*
X-40750000Y-27227281D01*
X-22912488Y-14655902D02*
X-22912488Y-14445456D01*
X-22912488Y-14975902D02*
X-22912488Y-14655902D01*
X6805000Y-12935045D02*
X6761706Y-12891751D01*
X25845000Y5970445D02*
X25845000Y6086048D01*
X14939075Y-14655902D02*
X14939075Y-14484052D01*
%TO.N,VBUS*%
X-12396702Y585883D02*
X-12396702Y-39866D01*
X-4833117Y29664856D02*
X0Y34497973D01*
X-14593922Y-1612972D02*
X-14286988Y-1612972D01*
X-14993922Y-992443D02*
X-14863204Y-861725D01*
X12255000Y-15620000D02*
X12255000Y-15210000D01*
X-6862175Y-36271761D02*
X-7267337Y-36676923D01*
X-12599929Y-243093D02*
X-12906862Y-243093D01*
X-22238734Y-12520130D02*
X-23932488Y-14213884D01*
X-7267337Y-36676923D02*
X-8521208Y-37930794D01*
X31295000Y3440000D02*
X31295000Y3850000D01*
X30066696Y-1222134D02*
X29856022Y-1432808D01*
X-25417956Y1951298D02*
X-24975939Y1951298D01*
X37660329Y-20503029D02*
X38530891Y-19632466D01*
X-5912965Y-33622965D02*
X-6540000Y-34250000D01*
X-6812175Y1951298D02*
X-7132175Y1951298D01*
X-23932488Y-14213884D02*
X-23932488Y-14655902D01*
X-5006706Y-14213884D02*
X-5006706Y-14655902D01*
X14010878Y-36271761D02*
X13425397Y-36857242D01*
X12520000Y-34250000D02*
X12255000Y-34250000D01*
X32412017Y3850000D02*
X34362576Y5800558D01*
X33215950Y-14213884D02*
X33215950Y-14655902D01*
X-5638381Y-33348381D02*
X-5912965Y-33622965D01*
X0Y34497973D02*
X0Y35007983D01*
X13134221Y-36857242D02*
X13134221Y-41994949D01*
X12779135Y-36271761D02*
X13134221Y-36626847D01*
X13919075Y22876059D02*
X13905134Y22890000D01*
X-25737956Y1951298D02*
X-25417956Y1951298D01*
X31970000Y-15210000D02*
X31295000Y-15210000D01*
X0Y35450000D02*
X0Y36050000D01*
X33942909Y-15601523D02*
X33330423Y-15601523D01*
X-13899244Y-2000717D02*
X-13899244Y-2543294D01*
X-14286988Y-1612972D02*
X-13899244Y-2000717D01*
X-6303799Y-27909782D02*
X-5372087Y-28841494D01*
X-5372087Y-32597583D02*
X-5638381Y-32863876D01*
X14633297Y3185857D02*
X14310591Y3508563D01*
X33215950Y-14975902D02*
X32981852Y-15210000D01*
X-25845000Y2058341D02*
X-25845000Y3440000D01*
X-8146236Y-6801751D02*
X-5006706Y-9941281D01*
X-2400014Y42415014D02*
X-2263700Y42582725D01*
X31410481Y1951298D02*
X31460481Y1951298D01*
X31560000Y-34250000D02*
X31295000Y-34250000D01*
X-14993922Y-3787972D02*
X-14993922Y-4229989D01*
X-14148880Y-243093D02*
X-13706862Y-243093D01*
X31970000Y3850000D02*
X32412017Y3850000D01*
X-14993922Y-1337972D02*
X-14993922Y-992443D01*
X-2914939Y40022320D02*
X-2914939Y39081387D01*
X-14993922Y-4229989D02*
X-22238734Y-11474801D01*
X-14868922Y-3512972D02*
X-14993922Y-3512972D01*
X13172479Y-33597521D02*
X13065162Y-33704838D01*
X12255000Y-34660000D02*
X12255000Y-34250000D01*
X31410481Y-36271761D02*
X31295000Y-36156280D01*
X12930000Y-15210000D02*
X12255000Y-15210000D01*
X9698922Y-18574649D02*
X12621576Y-21497303D01*
X-7132175Y20877278D02*
X-7400513Y20877278D01*
X12621576Y-21497303D02*
X12621576Y-28983609D01*
X-6130000Y-15210000D02*
X-6805000Y-15210000D01*
X33215950Y-10154562D02*
X33215950Y-14213884D01*
X-12906862Y-243093D02*
X-13306862Y-243093D01*
X13134221Y-41994949D02*
X12051552Y-43077619D01*
X31892934Y1518845D02*
X32030168Y1381611D01*
X-15756585Y-1202305D02*
X-15529589Y-1202305D01*
X38530891Y-19632466D02*
X44260718Y-19632466D01*
X-796105Y36962553D02*
X-612553Y36962553D01*
X13919075Y3900079D02*
X13919075Y3950079D01*
X-2263700Y42582725D02*
X-2094014Y42790014D01*
X32981852Y-15210000D02*
X31970000Y-15210000D01*
X-6130000Y22890000D02*
X-5687983Y22890000D01*
X-14993922Y-1612972D02*
X-14593922Y-1612972D01*
X-6805000Y-15210000D02*
X-6805000Y-15620000D01*
X13172479Y-29534512D02*
X13172479Y-33597521D01*
X30244319Y-7182931D02*
X33215950Y-10154562D01*
X0Y35007983D02*
X0Y35450000D01*
X-25845000Y3440000D02*
X-25845000Y3850000D01*
X7528611Y35840080D02*
X2897109Y40471581D01*
X29856022Y-1432808D02*
X30244319Y-1821105D01*
X-5638381Y-32863876D02*
X-5638381Y-33348381D01*
X-7400513Y20877278D02*
X-23143431Y5134361D01*
X13919075Y28160065D02*
X7528611Y34550529D01*
X13684977Y-15210000D02*
X12930000Y-15210000D01*
X34563592Y-17406292D02*
X34563592Y-16222206D01*
X-5006706Y-9941281D02*
X-5006706Y-14213884D01*
X12621576Y-28983609D02*
X13172479Y-29534512D01*
X-23443622Y5134361D02*
X-24727983Y3850000D01*
X2897109Y40471581D02*
X2462868Y40775000D01*
X31295000Y-36156280D02*
X31295000Y-34660000D01*
X-14151905Y-3512972D02*
X-11650929Y-3512972D01*
X-1322263Y-18574649D02*
X9698922Y-18574649D01*
X-13899244Y-2543294D02*
X-14281369Y-2925419D01*
X-24727983Y3850000D02*
X-25170000Y3850000D01*
X-26499973Y1951298D02*
X-26057956Y1951298D01*
X-3023062Y40130443D02*
X-3023062Y40198926D01*
X-25737956Y1951298D02*
X-25845000Y2058341D01*
X9819316Y-18439808D02*
X12255000Y-16004124D01*
X-5006706Y-14975902D02*
X-5240805Y-15210000D01*
X-5006706Y-14655902D02*
X-5006706Y-14975902D01*
X37660329Y-20503029D02*
X37660329Y-23051909D01*
X12113606Y-36271761D02*
X12433606Y-36271761D01*
X-32208622Y1951298D02*
X-26499973Y1951298D01*
X-6805000Y22890000D02*
X-6130000Y22890000D01*
X-6812175Y-36271761D02*
X-6805000Y-36264586D01*
X-23932488Y-14975902D02*
X-24166586Y-15210000D01*
X-14863204Y-861725D02*
X-14767512Y-861725D01*
X-5372087Y-28841494D02*
X-5372087Y-32597583D01*
X-14993922Y-3512972D02*
X-14593922Y-3512972D01*
X-2914939Y40022320D02*
X-3023062Y40130443D01*
X-23932488Y-14655902D02*
X-23932488Y-14975902D01*
X31295000Y3850000D02*
X31970000Y3850000D01*
X31410481Y-36271761D02*
X31090481Y-36271761D01*
X-5687983Y22890000D02*
X-4833117Y23744866D01*
X33215950Y-15487049D02*
X33215950Y-15295902D01*
X7528611Y34550529D02*
X7528611Y35840080D01*
X-14767512Y-861725D02*
X-14148880Y-243093D01*
X31460481Y1951298D02*
X31892934Y1518845D01*
X-2400000Y41595000D02*
X-2400007Y42005000D01*
X13919075Y23196059D02*
X13919075Y23638076D01*
X13919075Y22876059D02*
X13919075Y23196059D01*
X12255000Y-36130367D02*
X12255000Y-34660000D01*
X-14593922Y-3512972D02*
X-14151905Y-3512972D01*
X-3023062Y40198926D02*
X-2462889Y40775000D01*
X-15118922Y-1612972D02*
X-14993922Y-1612972D01*
X-6812175Y20877278D02*
X-7132175Y20877278D01*
X12433606Y-36271761D02*
X12779135Y-36271761D01*
X31295000Y2066779D02*
X31295000Y3440000D01*
X-8521208Y-37930794D02*
X-8521208Y-42609659D01*
X-6805000Y20884453D02*
X-6805000Y22480000D01*
X-8362149Y-6801751D02*
X-8146236Y-6801751D01*
X13905134Y22890000D02*
X12930000Y22890000D01*
X12255000Y-16004124D02*
X12255000Y-15620000D01*
X-25170000Y3850000D02*
X-25845000Y3850000D01*
X2093986Y42790014D02*
X2263672Y42582725D01*
X-4506963Y-14975902D02*
X-4506963Y-15389950D01*
X-6303799Y-20552446D02*
X-6303799Y-27909782D01*
X-12396702Y-39866D02*
X-12599929Y-243093D01*
X-5006706Y-14975902D02*
X-4736706Y-14975902D01*
X29856022Y-1432808D02*
X21807898Y-1432808D01*
X-2914939Y39081387D02*
X-796105Y36962553D01*
X12930000Y22890000D02*
X12255000Y22890000D01*
X32030168Y1381611D02*
X32030168Y8409D01*
X30648464Y-36271761D02*
X14010878Y-36271761D01*
X-6805000Y-34660000D02*
X-6805000Y-34250000D01*
X-6812175Y1951298D02*
X-6805000Y1958473D01*
X30799624Y-1222134D02*
X30066696Y-1222134D01*
X-11650929Y-3512972D02*
X-8362149Y-6801751D01*
X17189234Y3185857D02*
X14633297Y3185857D01*
X32030168Y8409D02*
X30799624Y-1222134D01*
X-24975939Y1951298D02*
X-24562655Y1951298D01*
X-6805000Y-36264586D02*
X-6805000Y-34660000D01*
X30244319Y-1821105D02*
X30244319Y-7182931D01*
X-6805000Y-16062017D02*
X-6805000Y-20051245D01*
X32255262Y-28456976D02*
X32255262Y-33554738D01*
X-14993922Y-3512972D02*
X-14993922Y-3787972D01*
X34563592Y-16222206D02*
X33942909Y-15601523D01*
X-4736706Y-14975902D02*
X-4506963Y-14975902D01*
X-5240805Y-15210000D02*
X-6130000Y-15210000D01*
X13919075Y23638076D02*
X13919075Y28160065D01*
X-6805000Y22480000D02*
X-6805000Y22890000D01*
X12930000Y3850000D02*
X12255000Y3850000D01*
X1736938Y43147062D02*
X2093986Y42790014D01*
X13919075Y3950079D02*
X13818996Y3850000D01*
X2399986Y42415000D02*
X2399993Y42005000D01*
X-24562655Y1951298D02*
X-24010745Y1399388D01*
X-4833117Y23744866D02*
X-4833117Y29664856D01*
X-2462889Y40775000D02*
X-2431445Y41185000D01*
X33215950Y-15295902D02*
X33215950Y-14975902D01*
X-11031287Y1951298D02*
X-12396702Y585883D01*
X-25170000Y-15210000D02*
X-25845000Y-15210000D01*
X-6805000Y1958473D02*
X-6805000Y3440000D01*
X9698922Y-18574649D02*
X9819316Y-18454256D01*
X-6805000Y3440000D02*
X-6805000Y3850000D01*
X2399986Y42415014D02*
X2399986Y42415000D01*
X2431434Y41185000D02*
X2400000Y41595000D01*
X33330423Y-15601523D02*
X33215950Y-15487049D01*
X31410481Y1951298D02*
X31295000Y2066779D01*
X-612553Y36962553D02*
X0Y36350000D01*
X34362576Y5800558D02*
X35072725Y5800558D01*
X32255262Y-33554738D02*
X31560000Y-34250000D01*
X31090481Y-36271761D02*
X30648464Y-36271761D01*
X13065162Y-33704838D02*
X12520000Y-34250000D01*
X-7132175Y1951298D02*
X-7574192Y1951298D01*
X-6805000Y-20051245D02*
X-6303799Y-20552446D01*
X-6812175Y20877278D02*
X-6805000Y20884453D01*
X-14281369Y-2925419D02*
X-14868922Y-3512972D01*
X-15529589Y-1202305D02*
X-15529084Y-1202810D01*
X-22238734Y-11474801D02*
X-22238734Y-12520130D01*
X37660329Y-20503029D02*
X34563592Y-17406292D01*
X13919075Y-14975902D02*
X13684977Y-15210000D01*
X-2431445Y41185000D02*
X-2400000Y41595000D01*
X14310591Y3508563D02*
X13919075Y3900079D01*
X-6540000Y-34250000D02*
X-6805000Y-34250000D01*
X-15529084Y-1202810D02*
X-15118922Y-1612972D01*
X-1736966Y43147062D02*
X1736938Y43147062D01*
X21807898Y-1432808D02*
X17189234Y3185857D01*
X12113606Y-36271761D02*
X12255000Y-36130367D01*
X0Y36350000D02*
X0Y36050000D01*
X-14993922Y-1612972D02*
X-14993922Y-1337972D01*
X9819316Y-18454256D02*
X9819316Y-18439808D01*
X-4506963Y-15389950D02*
X-1322263Y-18574649D01*
X2399993Y42005000D02*
X2400000Y41595000D01*
X-23143431Y5134361D02*
X-23443622Y5134361D01*
X-35669874Y-1509955D02*
X-32208622Y1951298D01*
X33215950Y-14655902D02*
X33215950Y-14975902D01*
X2263672Y42582725D02*
X2399986Y42415014D01*
X-6812175Y-36271761D02*
X-6862175Y-36271761D01*
X2462868Y40775000D02*
X2431434Y41185000D01*
X-2094014Y42790014D02*
X-1736966Y43147062D01*
X13425397Y-36857242D02*
X13134221Y-36857242D01*
X-2400007Y42005000D02*
X-2400014Y42415000D01*
X31295000Y-34660000D02*
X31295000Y-34250000D01*
X-7574192Y1951298D02*
X-11031287Y1951298D01*
X37660329Y-23051909D02*
X32255262Y-28456976D01*
X-26057956Y1951298D02*
X-25737956Y1951298D01*
X13134221Y-36626847D02*
X13134221Y-36857242D01*
X13818996Y3850000D02*
X12930000Y3850000D01*
X-13706862Y-243093D02*
X-13306862Y-243093D01*
X-24166586Y-15210000D02*
X-25170000Y-15210000D01*
X-2400014Y42415000D02*
X-2400014Y42415014D01*
X-6805000Y-15620000D02*
X-6805000Y-16062017D01*
%TO.N,ROW0*%
X-40088268Y-20735386D02*
X-40097821Y-20725833D01*
X-40250000Y-20560445D02*
X-40250000Y-20350000D01*
X-40097821Y-20712624D02*
X-40250000Y-20560445D01*
X-40097821Y-20725833D02*
X-40097821Y-20712624D01*
X-40250000Y-20350000D02*
X-40250000Y-19750000D01*
%TO.N,KEY2*%
X14525000Y31268029D02*
X14525000Y32375000D01*
X15810596Y29540416D02*
X14525000Y30826011D01*
X15810596Y22660596D02*
X15810596Y29540416D01*
X14525000Y21400000D02*
X14550000Y21400000D01*
X14550000Y21400000D02*
X15312553Y22162553D01*
X15312553Y22162553D02*
X15810596Y22660596D01*
X14525000Y30826011D02*
X14525000Y31268029D01*
%TO.N,ENC_A*%
X-42750000Y-18958852D02*
X-42750000Y-19150000D01*
X-35930794Y30719206D02*
X-36517268Y30132732D01*
X-39798253Y-18565046D02*
X-42356194Y-18565046D01*
X-42356194Y-18565046D02*
X-42750000Y-18958852D01*
X-36517268Y30132732D02*
X-39597606Y27052394D01*
X-39597606Y27052394D02*
X-39597606Y-18364399D01*
X-39597606Y-18364399D02*
X-39798253Y-18565046D01*
X-35575000Y31075000D02*
X-35930794Y30719206D01*
X-42750000Y-19150000D02*
X-42750000Y-19750000D01*
%TO.N,ENC_B*%
X-39607478Y-18884398D02*
X-42180858Y-18884398D01*
X-35575000Y25068662D02*
X-35575000Y24626645D01*
X-42340014Y-19043554D02*
X-42370014Y-19149986D01*
X-39279246Y20922399D02*
X-39279246Y-18556167D01*
X-42370014Y-19149986D02*
X-42370011Y-19150000D01*
X-42310006Y-19450000D02*
X-42250000Y-19750000D01*
X-42370011Y-19150000D02*
X-42310006Y-19450000D01*
X-39279246Y-18556167D02*
X-39607478Y-18884398D01*
X-35575000Y26075000D02*
X-35575000Y25068662D01*
X-42180858Y-18884398D02*
X-42340014Y-19043554D01*
X-35575000Y24626645D02*
X-39279246Y20922399D01*
%TO.N,ENC_SW*%
X-41250000Y-19750000D02*
X-41250000Y-20350000D01*
X-41250000Y-20656934D02*
X-41250000Y-20728939D01*
X-41250000Y-20728939D02*
X-41229452Y-20749487D01*
X-41250000Y-20350000D02*
X-41250000Y-20656934D01*
%TO.N,ROW1*%
X10631971Y15425000D02*
X11073989Y15425000D01*
X9525000Y15425000D02*
X10631971Y15425000D01*
X28021514Y15425000D02*
X28575000Y15425000D01*
X-28575000Y15425000D02*
X-27468029Y15425000D01*
X-25509652Y16941359D02*
X-23147483Y16941359D01*
X27026011Y15425000D02*
X28021514Y15425000D01*
X-39430240Y-20746091D02*
X-39750003Y-20426328D01*
X-27026011Y15425000D02*
X-25509652Y16941359D01*
X-39750003Y-20350000D02*
X-39750001Y-20050000D01*
X-39750003Y-20426328D02*
X-39750003Y-20350000D01*
X-39750001Y-20050000D02*
X-39750000Y-19750000D01*
X11073989Y15425000D02*
X27026011Y15425000D01*
X-27468029Y15425000D02*
X-27026011Y15425000D01*
%TO.N,KEY3*%
X-23575000Y3242017D02*
X-23575000Y4353796D01*
X-23575000Y2800000D02*
X-23575000Y3242017D01*
X-23575000Y4353796D02*
X-23474628Y4454169D01*
X-23575000Y2350000D02*
X-23575000Y2800000D01*
%TO.N,ROW2*%
X-7976011Y-3625000D02*
X-8971514Y-3625000D01*
X-11865456Y-2737044D02*
X-10977500Y-3625000D01*
X-35150000Y-22250000D02*
X-35750000Y-22250000D01*
X7976011Y-3625000D02*
X-7976011Y-3625000D01*
X8418029Y-3625000D02*
X7976011Y-3625000D01*
X-10977500Y-3625000D02*
X-10631971Y-3625000D01*
X-11880310Y-2737044D02*
X-11865456Y-2737044D01*
X-10631971Y-3625000D02*
X-9525000Y-3625000D01*
X-32612271Y-19922716D02*
X-34939555Y-22250000D01*
X9525000Y-3625000D02*
X8418029Y-3625000D01*
X-8971514Y-3625000D02*
X-9525000Y-3625000D01*
X-32612271Y-18228051D02*
X-32612271Y-19922716D01*
X-34939555Y-22250000D02*
X-35150000Y-22250000D01*
%TO.N,KEY10*%
X33100000Y-16700000D02*
X33575000Y-16700000D01*
X32711424Y-16574274D02*
X32725233Y-16574274D01*
X32725233Y-16574274D02*
X32850959Y-16700000D01*
X32850959Y-16700000D02*
X33100000Y-16700000D01*
%TO.N,V3V3*%
X19927597Y25531455D02*
X19927597Y26157597D01*
X-42152540Y-29600825D02*
X-41771082Y-29600825D01*
X-36471516Y-27021516D02*
X-36498437Y-27048437D01*
X-44250000Y-21250000D02*
X-43650000Y-21250000D01*
X-36498437Y-27048437D02*
X-36622623Y-27048437D01*
X-26669721Y-5945202D02*
X-22337491Y-1612972D01*
X-42971973Y-29749389D02*
X-42980634Y-29740728D01*
X-38437760Y-24752677D02*
X-40289116Y-24752677D01*
X-40972630Y-17994683D02*
X-41167913Y-18189967D01*
X-41250000Y-29079743D02*
X-41250000Y-28850000D01*
X-41250000Y-28250000D02*
X-41250000Y-27650000D01*
X-41250000Y-27304471D02*
X-41250000Y-25713560D01*
X-37250000Y-28250000D02*
X-37250000Y-27650000D01*
X-37250000Y-20350000D02*
X-37250000Y-19750000D01*
X-43391382Y-29586919D02*
X-42932073Y-29712436D01*
X-40210613Y-17994683D02*
X-40530613Y-17994683D01*
X-44504386Y-29963101D02*
X-44128205Y-29586919D01*
X-45034831Y-29963101D02*
X-44714831Y-29963101D01*
X20542575Y26772575D02*
X20845000Y27075000D01*
X-42553200Y-18189967D02*
X-44250000Y-19886766D01*
X15068336Y20672194D02*
X19927597Y25531455D01*
X-37077167Y-26519022D02*
X-36622623Y-26973567D01*
X-16408452Y3790870D02*
X-16408452Y7089098D01*
X-22337491Y-1612972D02*
X-18235939Y-1612972D01*
X-38437760Y-25233300D02*
X-37152038Y-26519022D01*
X-45333589Y-21250000D02*
X-45176231Y-21250000D01*
X-37250000Y-20695529D02*
X-37250000Y-20350000D01*
X2974064Y20672194D02*
X15068336Y20672194D01*
X-44250000Y-19886766D02*
X-44250000Y-20735173D01*
X-40289116Y-24752677D02*
X-40606758Y-25070319D01*
X-37250000Y-23564917D02*
X-37250000Y-20695529D01*
X-41250000Y-28850000D02*
X-41250000Y-28250000D01*
X-46148113Y-24025538D02*
X-46148113Y-23755538D01*
X-9525855Y12962238D02*
X-5481540Y17006553D01*
X-40530613Y-17994683D02*
X-40972630Y-17994683D01*
X-37100000Y-19750000D02*
X-36657983Y-19750000D01*
X-17393922Y-1612972D02*
X-17393922Y-1337972D01*
X-29507987Y-5945202D02*
X-26669721Y-5945202D01*
X-41250000Y-25713560D02*
X-40606758Y-25070319D01*
X-37250000Y-19750000D02*
X-37100000Y-19750000D01*
X-40689370Y-23768613D02*
X-40689370Y-24987708D01*
X-42980634Y-29740728D02*
X-43391382Y-29586919D01*
X-44128205Y-29586919D02*
X-43391382Y-29586919D01*
X-44250000Y-20735173D02*
X-44250000Y-21100000D01*
X-44250000Y-21100000D02*
X-44250000Y-21250000D01*
X-36622623Y-26973567D02*
X-36622623Y-27048437D01*
X-34889943Y-11327157D02*
X-29507987Y-5945202D01*
X-17793922Y-1612972D02*
X-17393922Y-1612972D01*
X-46148113Y-23313521D02*
X-46148113Y-22064523D01*
X-43207983Y-21250000D02*
X-40689370Y-23768613D01*
X-38437760Y-24752677D02*
X-37250000Y-23564917D01*
X-37250000Y-27420257D02*
X-36890642Y-27060899D01*
X-691577Y17006553D02*
X2974064Y20672194D01*
X-37152038Y-26519022D02*
X-37077167Y-26519022D01*
X-34889943Y-17981960D02*
X-34889943Y-11327157D01*
X19927597Y26157597D02*
X20542575Y26772575D01*
X-17393922Y-895955D02*
X-17393922Y2805400D01*
X-17393922Y2805400D02*
X-16408452Y3790870D01*
X-43650000Y-21250000D02*
X-43207983Y-21250000D01*
X-44714831Y-29963101D02*
X-44504386Y-29963101D01*
X-42472764Y-29837952D02*
X-42152540Y-29600825D01*
X-37250000Y-27650000D02*
X-37250000Y-27420257D01*
X-38437760Y-24752677D02*
X-38437760Y-25233300D01*
X-45176231Y-21250000D02*
X-44850000Y-21250000D01*
X-42932073Y-29712436D02*
X-42472764Y-29837952D01*
X-46148113Y-23755538D02*
X-46148113Y-23313521D01*
X-46148113Y-22064523D02*
X-45333589Y-21250000D01*
X-36627574Y-27060899D02*
X-36622623Y-27055948D01*
X-35750000Y-26750000D02*
X-36200000Y-26750000D01*
X-5481540Y17006553D02*
X-691577Y17006553D01*
X-42580456Y-30140905D02*
X-42971973Y-29749389D01*
X-10535312Y12962238D02*
X-9525855Y12962238D01*
X-41167913Y-18189967D02*
X-42553200Y-18189967D01*
X-42580456Y-30190905D02*
X-42580456Y-30140905D01*
X-36657983Y-19750000D02*
X-34889943Y-17981960D01*
X-18235939Y-1612972D02*
X-17793922Y-1612972D01*
X-40689370Y-24987708D02*
X-40606758Y-25070319D01*
X-36622623Y-27055948D02*
X-36622623Y-27048437D01*
X-36200000Y-26750000D02*
X-36471516Y-27021516D01*
X-44850000Y-21250000D02*
X-44250000Y-21250000D01*
X-16408452Y7089098D02*
X-10535312Y12962238D01*
X-41771082Y-29600825D02*
X-41250000Y-29079743D01*
X-41250000Y-27650000D02*
X-41250000Y-27304471D01*
X-36890642Y-27060899D02*
X-36627574Y-27060899D01*
X-17393922Y-1337972D02*
X-17393922Y-895955D01*
%TO.N,ROW3*%
X-34249633Y-25920624D02*
X-34920257Y-25250000D01*
X-35150000Y-25250000D02*
X-35750000Y-25250000D01*
X-9525000Y-22675000D02*
X-10631971Y-22675000D01*
X-11073989Y-22675000D02*
X-14467304Y-26068316D01*
X-34249633Y-27189483D02*
X-34249633Y-25920624D01*
X-34636875Y-27991996D02*
X-34636875Y-27576724D01*
X-33966514Y-28307316D02*
X-34321555Y-28307316D01*
X-14467304Y-26068316D02*
X-31727514Y-26068316D01*
X-10631971Y-22675000D02*
X-11073989Y-22675000D01*
X-34636875Y-27576724D02*
X-34249633Y-27189483D01*
X-31727514Y-26068316D02*
X-33966514Y-28307316D01*
X-34321555Y-28307316D02*
X-34636875Y-27991996D01*
X-34920257Y-25250000D02*
X-35150000Y-25250000D01*
%TO.N,KEY12*%
X15520967Y-27319956D02*
X14525000Y-26323989D01*
X14525000Y-34250000D02*
X14525000Y-33800000D01*
X14525000Y-25881971D02*
X14525000Y-24775000D01*
X14525000Y-26323989D02*
X14525000Y-25881971D01*
X14525000Y-33800000D02*
X14525000Y-33357983D01*
X15520967Y-32362015D02*
X15520967Y-27319956D01*
X14525000Y-33357983D02*
X15520967Y-32362015D01*
%TO.N,KEY5*%
X13643751Y2584399D02*
X13629360Y2584399D01*
X13878150Y2350000D02*
X13643751Y2584399D01*
X14050000Y2350000D02*
X13878150Y2350000D01*
X14525000Y2350000D02*
X14050000Y2350000D01*
%TO.N,CC2*%
X2186452Y40108805D02*
X2549110Y40108805D01*
X1750000Y40775000D02*
X1750000Y40545257D01*
X1750000Y41595000D02*
X1750000Y40775000D01*
X1750000Y40545257D02*
X2186452Y40108805D01*
%TO.N,KEY13*%
X33575000Y-33800000D02*
X33575000Y-34250000D01*
X33558647Y-33377359D02*
X33575000Y-33393712D01*
X33575000Y-33454471D02*
X33575000Y-33800000D01*
X33575000Y-33393712D02*
X33575000Y-33454471D01*
%TO.N,JOY_X*%
X-43458852Y-23750000D02*
X-43300713Y-23750000D01*
X-44250000Y-23750000D02*
X-43650000Y-23750000D01*
X-43650000Y-23750000D02*
X-43458852Y-23750000D01*
X-43300713Y-23750000D02*
X-43247757Y-23802956D01*
%TO.N,JOY_Y*%
X-41750000Y-28250000D02*
X-41750000Y-27650000D01*
X-41750000Y-27227281D02*
X-41750000Y-26987679D01*
X-41750000Y-27650000D02*
X-41750000Y-27227281D01*
X-41750000Y-26987679D02*
X-41837577Y-26900101D01*
%TO.N,JOY_SW*%
X-35450000Y-21749988D02*
X-35750000Y-21750000D01*
X-35150000Y-21749976D02*
X-35450000Y-21749988D01*
X-33954324Y-20554300D02*
X-35150000Y-21749976D01*
X-21094953Y-13275657D02*
X-21094953Y-14084685D01*
X-19080674Y-11261377D02*
X-21094953Y-13275657D01*
X-24738581Y-15931886D02*
X-25875924Y-17069229D01*
X-33954324Y-18816107D02*
X-33954324Y-20554300D01*
X-18082445Y-10716378D02*
X-18627444Y-11261377D01*
X-25875924Y-17069229D02*
X-32207445Y-17069229D01*
X-32207445Y-17069229D02*
X-33954324Y-18816107D01*
X-21094953Y-14084685D02*
X-22942155Y-15931886D01*
X-18627444Y-11261377D02*
X-19080674Y-11261377D01*
X-22942155Y-15931886D02*
X-24738581Y-15931886D01*
%TO.N,UG_D0*%
X-41750000Y-20350000D02*
X-41750000Y-19750000D01*
X-41750000Y-20637636D02*
X-41750000Y-20350000D01*
X-41750000Y-20710051D02*
X-41750000Y-20637636D01*
X-41836398Y-20796449D02*
X-41750000Y-20710051D01*
%TO.N,KEY9*%
X14525000Y-16250000D02*
X14525000Y-16700000D01*
X14428986Y-7370003D02*
X14428986Y-15711969D01*
X14525000Y-5725000D02*
X14525000Y-6831971D01*
X14525000Y-6831971D02*
X14525000Y-7273989D01*
X14428986Y-15711969D02*
X14525000Y-15807983D01*
X14525000Y-15807983D02*
X14525000Y-16250000D01*
X14525000Y-7273989D02*
X14428986Y-7370003D01*
%TO.N,BOOT0*%
X-35750000Y-24750000D02*
X-35150000Y-24750000D01*
X-35150000Y-24750000D02*
X-34804471Y-24750000D01*
X-33897211Y-25657260D02*
X-33897211Y-27575396D01*
X-33897211Y-27575396D02*
X-34135281Y-27813466D01*
X-34804471Y-24750000D02*
X-33897211Y-25657260D01*
%TO.N,KEY1*%
X-4525000Y22292017D02*
X-4525000Y21850000D01*
X-4525000Y21850000D02*
X-4525000Y21400000D01*
X-3610955Y24360204D02*
X-3610955Y23206062D01*
X-3610955Y23206062D02*
X-4525000Y22292017D01*
%TO.N,KEY4*%
X-4525000Y3242017D02*
X-4525000Y11776011D01*
X-4525000Y2350000D02*
X-4525000Y2800000D01*
X-4525000Y12218029D02*
X-4525000Y13325000D01*
X-4525000Y2800000D02*
X-4525000Y3242017D01*
X-4525000Y11776011D02*
X-4525000Y12218029D01*
%TO.N,KEY7*%
X-24471584Y-16589515D02*
X-24361099Y-16700000D01*
X-24361099Y-16700000D02*
X-24279743Y-16700000D01*
X-24279743Y-16700000D02*
X-24050000Y-16700000D01*
X-24050000Y-16700000D02*
X-23575000Y-16700000D01*
%TO.N,KEY8*%
X-4733089Y-15754275D02*
X-4525000Y-15962364D01*
X-4525000Y-15962364D02*
X-4525000Y-16250000D01*
X-4525000Y-16250000D02*
X-4525000Y-16700000D01*
X-4857443Y-15754275D02*
X-4733089Y-15754275D01*
%TO.N,TOUCH*%
X-34984353Y-27157591D02*
X-34984353Y-28099488D01*
X-35750000Y-25750000D02*
X-35450000Y-25749996D01*
X-35450000Y-25749996D02*
X-35150000Y-25749992D01*
X-35059525Y-25749992D02*
X-34901903Y-25907614D01*
X-34901903Y-25907614D02*
X-34901903Y-27075141D01*
X-34474542Y-28609299D02*
X-33698480Y-28737052D01*
X-34984353Y-28099488D02*
X-34474542Y-28609299D01*
X-34901903Y-27075141D02*
X-34984353Y-27157591D01*
X-35150000Y-25749992D02*
X-35059525Y-25749992D01*
%TO.N,KEY11*%
X-4525000Y-33357983D02*
X-4525000Y-33800000D01*
X-4525000Y-25881971D02*
X-4525000Y-26323989D01*
X-4525000Y-24775000D02*
X-4525000Y-25881971D01*
X-4525000Y-33800000D02*
X-4525000Y-34250000D01*
X-4525000Y-26323989D02*
X-4525000Y-33357983D01*
%TO.N,KEY6*%
X33575000Y2800000D02*
X33575000Y2350000D01*
X35540854Y5207871D02*
X33575000Y3242017D01*
X35540854Y9810157D02*
X35540854Y5207871D01*
X33575000Y13325000D02*
X33575000Y12218029D01*
X33575000Y12218029D02*
X33575000Y11776011D01*
X33575000Y11776011D02*
X35540854Y9810157D01*
X33575000Y3242017D02*
X33575000Y2800000D01*
%TO.N,HSE_OUT*%
X-42795674Y-30935674D02*
X-41956203Y-30935674D01*
X-41300000Y-30625000D02*
X-40650000Y-30625000D01*
X-39750000Y-28250000D02*
X-39750000Y-28850000D01*
X-40650000Y-30100000D02*
X-40650000Y-30625000D01*
X-43310000Y-31500000D02*
X-43310000Y-31450000D01*
X-40650000Y-30095529D02*
X-40650000Y-30100000D01*
X-41645529Y-30625000D02*
X-41300000Y-30625000D01*
X-41956203Y-30935674D02*
X-41645529Y-30625000D01*
X-43310000Y-31450000D02*
X-42795674Y-30935674D01*
X-39750000Y-28850000D02*
X-39750000Y-29195529D01*
X-39750000Y-29195529D02*
X-40650000Y-30095529D01*
%TO.N,HSE_IN*%
X-38350000Y-32375000D02*
X-38475000Y-32375000D01*
X-39244326Y-31605674D02*
X-39250000Y-31600000D01*
X-39250000Y-31600000D02*
X-39250000Y-29292017D01*
X-37700000Y-32375000D02*
X-37257983Y-32375000D01*
X-38475000Y-32375000D02*
X-39244326Y-31605674D01*
X-37257983Y-32375000D02*
X-36710000Y-32922983D01*
X-36710000Y-33134471D02*
X-36710000Y-33480000D01*
X-39250000Y-28850000D02*
X-39250000Y-28250000D01*
X-38350000Y-32375000D02*
X-37700000Y-32375000D01*
X-39250000Y-29292017D02*
X-39250000Y-28850000D01*
X-36710000Y-33480000D02*
X-36710000Y-33800000D01*
X-36710000Y-32922983D02*
X-36710000Y-33134471D01*
%TO.N,SWCLK*%
X-10581618Y-43572762D02*
X-13206630Y-40947750D01*
X0Y-45605000D02*
X-635000Y-45605000D01*
X-35609849Y-20710809D02*
X-35609849Y-20696692D01*
X-1509438Y-43572762D02*
X-10581618Y-43572762D01*
X-1189123Y-45492894D02*
X-1189123Y-43893077D01*
X-23314088Y-40947750D02*
X-35990447Y-28271391D01*
X-1077017Y-45605000D02*
X-1189123Y-45492894D01*
X-35750000Y-21100000D02*
X-35750000Y-20850959D01*
X-635000Y-45605000D02*
X-1077017Y-45605000D01*
X-35990447Y-28271391D02*
X-35990447Y-27491995D01*
X-35750000Y-20850959D02*
X-35609849Y-20710809D01*
X-13206630Y-40947750D02*
X-23314088Y-40947750D01*
X-35750000Y-21250000D02*
X-35750000Y-21100000D01*
X-1189123Y-43893077D02*
X-1509438Y-43572762D01*
%TO.N,UART_TX*%
X-26453124Y-23750000D02*
X-34707983Y-23750000D01*
X0Y-40395000D02*
X0Y-39498514D01*
X-34707983Y-23750000D02*
X-35150000Y-23750000D01*
X-26097655Y-24105470D02*
X-26453124Y-23750000D01*
X-35150000Y-23750000D02*
X-35750000Y-23750000D01*
X0Y-39498514D02*
X-1099369Y-39498514D01*
%TO.N,SWDIO*%
X1462983Y-45605000D02*
X1336561Y-45478578D01*
X-38250000Y-21846468D02*
X-38035982Y-22060486D01*
X1336561Y-45478578D02*
X1336561Y-43612975D01*
X2540000Y-45605000D02*
X1905000Y-45605000D01*
X-38250000Y-20350000D02*
X-38250000Y-20792017D01*
X-18182348Y-33596172D02*
X-30012094Y-33596172D01*
X-30012094Y-33596172D02*
X-35528446Y-28079819D01*
X1336561Y-43612975D02*
X886406Y-43162820D01*
X-38250000Y-20792017D02*
X-38250000Y-21846468D01*
X1905000Y-45605000D02*
X1462983Y-45605000D01*
X886406Y-43162820D02*
X-8615699Y-43162820D01*
X-38250000Y-19750000D02*
X-38250000Y-20350000D01*
X-8615699Y-43162820D02*
X-18182348Y-33596172D01*
%TO.N,UART_RX*%
X-34707983Y-24250000D02*
X-35150000Y-24250000D01*
X2540000Y-38680000D02*
X2540000Y-38237983D01*
X2540000Y-40395000D02*
X2540000Y-38680000D01*
X-24592816Y-24873230D02*
X-34084753Y-24873230D01*
X-1673603Y-34024380D02*
X-1673603Y-33579573D01*
X-34084753Y-24873230D02*
X-34707983Y-24250000D01*
X2540000Y-38237983D02*
X-1673603Y-34024380D01*
X-35150000Y-24250000D02*
X-35750000Y-24250000D01*
%TO.N,LED_D10*%
X31295000Y-13710000D02*
X31295000Y-13300000D01*
X-12255000Y-34250000D02*
X-12520000Y-34250000D01*
X-13065162Y-33704838D02*
X-13197307Y-33572693D01*
X31295000Y-13050959D02*
X31295000Y-12924158D01*
X-13197307Y-28356658D02*
X-6882258Y-22041609D01*
X-12520000Y-34250000D02*
X-13065162Y-33704838D01*
X31295000Y-13300000D02*
X31295000Y-13050959D01*
X31295000Y-12924158D02*
X31336441Y-12882717D01*
X-13197307Y-33572693D02*
X-13197307Y-28356658D01*
%TO.N,LED_D11*%
X-5856190Y-32066190D02*
X-5842170Y-32066190D01*
X6805000Y-35102017D02*
X6805000Y-34660000D01*
X-6805000Y-32750000D02*
X-6540000Y-32750000D01*
X2877273Y-35192557D02*
X3037167Y-35352451D01*
X-5885674Y-32095674D02*
X-5856190Y-32066190D01*
X6554566Y-35352451D02*
X6805000Y-35102017D01*
X6805000Y-34660000D02*
X6805000Y-34250000D01*
X-6540000Y-32750000D02*
X-5885674Y-32095674D01*
X3037167Y-35352451D02*
X6554566Y-35352451D01*
%TO.N,LED_D12*%
X24909609Y-32303055D02*
X24642316Y-32035762D01*
X25034838Y-33704838D02*
X24909609Y-33579609D01*
X12292642Y-31948396D02*
X12255000Y-31986038D01*
X12255000Y-32340000D02*
X12255000Y-32750000D01*
X25580000Y-34250000D02*
X25034838Y-33704838D01*
X25845000Y-34250000D02*
X25580000Y-34250000D01*
X12255000Y-31986038D02*
X12255000Y-32090959D01*
X12255000Y-32090959D02*
X12255000Y-32340000D01*
X24909609Y-33579609D02*
X24909609Y-32303055D01*
%TO.N,LED_D0*%
X-40750000Y-20350000D02*
X-40750000Y-19750000D01*
X-40750000Y-20599041D02*
X-40750000Y-20350000D01*
X-40750000Y-20889115D02*
X-40750000Y-20599041D01*
X-16895582Y17397401D02*
X-21399938Y17397401D01*
X-22526998Y16270342D02*
X-25167641Y16270342D01*
X-25167641Y16270342D02*
X-27421760Y14016223D01*
X-12255000Y22480000D02*
X-12255000Y22037983D01*
X-12255000Y22890000D02*
X-12255000Y22480000D01*
X-28471407Y14016223D02*
X-38041146Y4446484D01*
X-38041146Y4446484D02*
X-38041146Y-14321972D01*
X-27421760Y14016223D02*
X-28471407Y14016223D01*
X-21399938Y17397401D02*
X-22526998Y16270342D01*
X-12255000Y22037983D02*
X-16895582Y17397401D01*
X-40650742Y-20988373D02*
X-40750000Y-20889115D01*
%TO.N,LED_D1*%
X-5919555Y24390000D02*
X-5735856Y24573699D01*
X-6130000Y24390000D02*
X-5919555Y24390000D01*
X-5735856Y24573699D02*
X-5735049Y24573699D01*
X-6805000Y24390000D02*
X-6130000Y24390000D01*
X6971416Y22084471D02*
X6939893Y22115995D01*
X6805000Y22269555D02*
X6805000Y22480000D01*
X6939893Y22115995D02*
X6939893Y22134662D01*
X6939893Y22134662D02*
X6805000Y22269555D01*
X6805000Y22480000D02*
X6805000Y22890000D01*
%TO.N,LED_D7*%
X-12255000Y-15210000D02*
X-12520000Y-15210000D01*
X-13199014Y-13194659D02*
X-14249477Y-12144195D01*
X-25170000Y-13710000D02*
X-25845000Y-13710000D01*
X-12520000Y-15210000D02*
X-13065162Y-14664838D01*
X-13065162Y-14664838D02*
X-13199014Y-14530986D01*
X-13199014Y-14530986D02*
X-13199014Y-13194659D01*
X-24788453Y-13390525D02*
X-24788453Y-13519601D01*
X-24978852Y-13710000D02*
X-25170000Y-13710000D01*
X-14249477Y-12144195D02*
X-19292185Y-12144195D01*
X-24788453Y-13519601D02*
X-24978852Y-13710000D01*
%TO.N,LED_D8*%
X-5731952Y-13483802D02*
X-5731952Y-13331102D01*
X6805000Y-15620000D02*
X6805000Y-15210000D01*
X6971416Y-16015529D02*
X6939893Y-15984005D01*
X-6805000Y-13710000D02*
X-6130000Y-13710000D01*
X6939893Y-15984005D02*
X6939893Y-15965338D01*
X6805000Y-15830445D02*
X6805000Y-15620000D01*
X6939893Y-15965338D02*
X6805000Y-15830445D01*
X-6130000Y-13710000D02*
X-5958150Y-13710000D01*
X-5958150Y-13710000D02*
X-5731952Y-13483802D01*
%TO.N,COL2*%
X14525000Y-19400000D02*
X14525000Y-18957983D01*
X13719557Y-800000D02*
X13781662Y-800000D01*
X14525000Y18250000D02*
X15000000Y18250000D01*
X15881496Y-17601486D02*
X15881496Y-3048514D01*
X14525000Y-20300000D02*
X14525000Y-20742017D01*
X13878150Y-37400000D02*
X14050000Y-37400000D01*
X-38250000Y-29041148D02*
X-37448582Y-29842566D01*
X14050000Y-37400000D02*
X14525000Y-37400000D01*
X15000000Y18250000D02*
X15442017Y18250000D01*
X14525000Y-20742017D02*
X13134583Y-22132434D01*
X13700064Y-37400000D02*
X13878150Y-37400000D01*
X13134583Y-22132434D02*
X13134583Y-26834818D01*
X-38250000Y-28850000D02*
X-38250000Y-29041148D01*
X15442017Y18250000D02*
X16707180Y18250000D01*
X15881496Y-3048514D02*
X14525000Y-1692017D01*
X-38250000Y-28250000D02*
X-38250000Y-28850000D01*
X14050000Y-800000D02*
X14525000Y-800000D01*
X16707180Y18250000D02*
X17594871Y17362309D01*
X13781662Y-800000D02*
X14050000Y-800000D01*
X14525000Y-1250000D02*
X14525000Y-800000D01*
X13641584Y-722027D02*
X13719557Y-800000D01*
X13637866Y-37337802D02*
X13700064Y-37400000D01*
X14525000Y-18957983D02*
X15881496Y-17601486D01*
X14525000Y-1692017D02*
X14525000Y-1250000D01*
X14525000Y-19850000D02*
X14525000Y-20300000D01*
X-37448582Y-29842566D02*
X-37291675Y-29842566D01*
X13134583Y-26834818D02*
X14989259Y-28689495D01*
X14525000Y-19850000D02*
X14525000Y-19400000D01*
%TO.N,COL0*%
X-31807983Y-19850000D02*
X-24492017Y-19850000D01*
X-23575000Y-800000D02*
X-23575000Y-1250000D01*
X-24492017Y-19850000D02*
X-24050000Y-19850000D01*
X-23575000Y-1250000D02*
X-23575000Y-1576231D01*
X-24050000Y-19850000D02*
X-23575000Y-19850000D01*
X-24916409Y-2348991D02*
X-26588362Y-4020944D01*
X-24513240Y-17573686D02*
X-24513240Y-18019742D01*
X-24934851Y-17152076D02*
X-24513240Y-17573686D01*
X-24513240Y-18019742D02*
X-23575000Y-18957983D01*
X-23575000Y-18957983D02*
X-23575000Y-19400000D01*
X-23575000Y-19400000D02*
X-23575000Y-19850000D01*
X-34707983Y-22750000D02*
X-31807983Y-19850000D01*
X-24347759Y-2348991D02*
X-24916409Y-2348991D01*
X-35150000Y-22750000D02*
X-34707983Y-22750000D01*
X-35750000Y-22750000D02*
X-35150000Y-22750000D01*
X-23575000Y-1576231D02*
X-24347759Y-2348991D01*
%TO.N,USBC_DM*%
D34*
X1249986Y36999211D02*
X1501133Y36858168D01*
X1501133Y36858168D02*
X1917833Y36858168D01*
X250000Y42415000D02*
X250000Y42747565D01*
X-683708Y37750000D02*
X67081Y36999211D01*
X-950000Y38350000D02*
X-949996Y38050000D01*
X2153754Y37094089D02*
X2153754Y38679071D01*
X249943Y42747622D02*
X-678415Y42747622D01*
X2153754Y38679071D02*
X940761Y39892063D01*
X1917833Y36858168D02*
X2153754Y37094089D01*
X250000Y40382828D02*
X250000Y40775000D01*
X250000Y41595000D02*
X250000Y42415000D01*
X67081Y36999211D02*
X1249986Y36999211D01*
X940761Y39892063D02*
X740765Y39892063D01*
X-750000Y42676037D02*
X-750000Y42415000D01*
X-750000Y42415000D02*
X-750000Y41595000D01*
X-678415Y42747622D02*
X-750000Y42676037D01*
X250000Y40775000D02*
X250000Y41595000D01*
X740765Y39892063D02*
X250000Y40382828D01*
X250000Y42747565D02*
X249943Y42747622D01*
X-949996Y38050000D02*
X-949992Y37750000D01*
X-949992Y37750000D02*
X-683708Y37750000D01*
%TO.N,USBC_DP*%
X950000Y39246801D02*
X950000Y38950000D01*
X950000Y38350000D02*
X874995Y38650000D01*
X429576Y39279280D02*
X-250000Y39958856D01*
X874995Y38650000D02*
X799989Y38950000D01*
X1014824Y40402559D02*
X777954Y40402559D01*
X824897Y39371904D02*
X950000Y39246801D01*
X-250000Y40466278D02*
X-250000Y40775000D01*
X799989Y38950000D02*
X799986Y38950003D01*
X-250000Y40775000D02*
X-250000Y41595000D01*
X750000Y40775000D02*
X750000Y41595000D01*
X750000Y40430513D02*
X750000Y40775000D01*
X799986Y38950003D02*
X799986Y38950014D01*
X777954Y40402559D02*
X750000Y40430513D01*
X950000Y38950000D02*
X950000Y38350000D01*
X740946Y39371904D02*
X824897Y39371904D01*
X799986Y38950014D02*
X429576Y39279280D01*
X-250000Y39958856D02*
X-250000Y40466278D01*
%TO.N,USB_DP*%
X-7893174Y17801443D02*
X-9115433Y17801443D01*
X-38750007Y-19450000D02*
X-38750000Y-19750000D01*
X-35794962Y-11689899D02*
X-35794962Y-15963226D01*
X-26599697Y-5131787D02*
X-29236850Y-5131787D01*
X-16855277Y4612633D02*
X-26599697Y-5131787D01*
X-4190522Y23792973D02*
X-6071073Y21912422D01*
X-9115433Y17801443D02*
X-16855277Y10061599D01*
X950000Y36050000D02*
X950000Y35450000D01*
X-6071073Y19623544D02*
X-7893174Y17801443D01*
X-29236850Y-5131787D02*
X-35794962Y-11689899D01*
X-16855277Y10061599D02*
X-16855277Y4612633D01*
X-4190522Y29714643D02*
X-4190522Y23792973D01*
X950000Y35450000D02*
X950000Y34855165D01*
X-38750014Y-19150000D02*
X-38750007Y-19450000D01*
X-38421675Y-18589939D02*
X-38750014Y-19150000D01*
X-6071073Y21912422D02*
X-6071073Y19623544D01*
X-35794962Y-15963226D02*
X-38421675Y-18589939D01*
X950000Y34855165D02*
X-4190522Y29714643D01*
%TO.N,USB_DM*%
X-950000Y36050000D02*
X-1250000Y36050000D01*
X-21944672Y24031153D02*
X-38884293Y7091532D01*
X-5981360Y36050000D02*
X-10712073Y31319287D01*
X-12668700Y31319287D02*
X-19956834Y24031153D01*
X-38884293Y-18588902D02*
X-39250014Y-19150000D01*
X-39250007Y-19450000D02*
X-39250000Y-19750000D01*
X-39250014Y-19150000D02*
X-39250007Y-19450000D01*
X-1250000Y36050000D02*
X-1522958Y36050000D01*
X-38884293Y7091532D02*
X-38884293Y-18588902D01*
X-1522958Y36050000D02*
X-5981360Y36050000D01*
X-19956834Y24031153D02*
X-21944672Y24031153D01*
X-10712073Y31319287D02*
X-12668700Y31319287D01*
%TO.N,COL3*%
D33*
X-36949068Y-29265294D02*
X-36759584Y-29454779D01*
X33575000Y-36950000D02*
X33575000Y-36507983D01*
X-37750000Y-28250000D02*
X-37750003Y-28550000D01*
X34483970Y-35599013D02*
X34483970Y-31802697D01*
X33575000Y-1692017D02*
X32183145Y-3083873D01*
X33575000Y-37400000D02*
X33575000Y-36950000D01*
X32183145Y-3083873D02*
X32183145Y-8527615D01*
X-37750006Y-28850000D02*
X-37334712Y-29265294D01*
X-37334712Y-29265294D02*
X-36949068Y-29265294D01*
X33575000Y-36507983D02*
X34483970Y-35599013D01*
X35091680Y-11436151D02*
X35091680Y-16405455D01*
X34279743Y-19850000D02*
X34050000Y-19850000D01*
X-37750003Y-28550000D02*
X-37750006Y-28850000D01*
X32183145Y-8527615D02*
X35091680Y-11436151D01*
X34425289Y-19704454D02*
X34279743Y-19850000D01*
X33575000Y-800000D02*
X33575000Y-1250000D01*
X34444580Y-19704454D02*
X34425289Y-19704454D01*
X34050000Y-19850000D02*
X33575000Y-19850000D01*
X33575000Y-1250000D02*
X33575000Y-1692017D01*
%TO.N,COL1*%
X-5059731Y-32866405D02*
X-5059731Y-26157815D01*
X-6212342Y-18531792D02*
X-6212342Y-19079675D01*
X-4525000Y-350000D02*
X-4525000Y-800000D01*
X-4525000Y-800000D02*
X-4525000Y-1250000D01*
X-4525000Y92017D02*
X-4525000Y-350000D01*
X-4525000Y-20300000D02*
X-4525000Y-19850000D01*
X-150981Y16232009D02*
X-150981Y4466036D01*
X-35150000Y-23250000D02*
X-34707983Y-23250000D01*
X-5000000Y-19850000D02*
X-4525000Y-19850000D01*
X-4525000Y-1250000D02*
X-4525000Y-1499041D01*
X-5272093Y-33078768D02*
X-5059731Y-32866405D01*
X-4525000Y18250000D02*
X-4050000Y18250000D01*
X-3728917Y18250000D02*
X-3640305Y18338612D01*
X-5442017Y-19850000D02*
X-5000000Y-19850000D01*
X-6212342Y-19079675D02*
X-5442017Y-19850000D01*
X-4050000Y18250000D02*
X-3800959Y18250000D01*
X-4525000Y-20742017D02*
X-4525000Y-20300000D01*
X-4525000Y-37400000D02*
X-4525000Y-36950000D01*
X-5876736Y-25340810D02*
X-5876736Y-22093753D01*
X-34707983Y-23250000D02*
X-24086093Y-23250000D01*
X-5876736Y-22093753D02*
X-4525000Y-20742017D01*
X-150981Y4466036D02*
X-4525000Y92017D01*
X-3800959Y18250000D02*
X-3728917Y18250000D01*
X-3889823Y-2134217D02*
X-3430200Y-2134217D01*
X-4525000Y-36507983D02*
X-5272093Y-35760889D01*
X-4525000Y-1499041D02*
X-3889823Y-2134217D01*
X-5272093Y-35760889D02*
X-5272093Y-33078768D01*
X-5059731Y-26157815D02*
X-5876736Y-25340810D01*
X-35750000Y-23250000D02*
X-35150000Y-23250000D01*
X-4525000Y-36950000D02*
X-4525000Y-36507983D01*
X-24086093Y-23250000D02*
X-20899497Y-20063404D01*
%TO.N,LED_D3*%
X-20740640Y5708362D02*
X-21350164Y5708362D01*
X-12255000Y2997983D02*
X-12566138Y2686845D01*
X-24727983Y5350000D02*
X-23742414Y6335568D01*
X-20123477Y5091199D02*
X-20740640Y5708362D01*
X-25845000Y5350000D02*
X-25170000Y5350000D01*
X-23742414Y6335568D02*
X-22596807Y6335568D01*
X-12255000Y3850000D02*
X-12255000Y3440000D01*
X-12566138Y2686845D02*
X-13511379Y2686845D01*
X-12255000Y3440000D02*
X-12255000Y2997983D01*
X-25170000Y5350000D02*
X-24727983Y5350000D01*
%TO.N,LED_D4*%
X6805000Y3440000D02*
X6805000Y3850000D01*
X-5817447Y4627447D02*
X-5817447Y-774686D01*
X-3919630Y-2672503D02*
X1038026Y-2672503D01*
X1038026Y-2672503D02*
X6805000Y3094471D01*
X-6540000Y5350000D02*
X-5817447Y4627447D01*
X-5817447Y-774686D02*
X-3919630Y-2672503D01*
X-6805000Y5350000D02*
X-6540000Y5350000D01*
X6805000Y3094471D02*
X6805000Y3440000D01*
%TO.N,LED_D9*%
X12255000Y-13710000D02*
X12930000Y-13710000D01*
X25983193Y-15968638D02*
X25845000Y-15830445D01*
X12930000Y-13710000D02*
X13121148Y-13710000D01*
X13121148Y-13710000D02*
X13311879Y-13900731D01*
X25845000Y-15620000D02*
X25845000Y-15210000D01*
X13311879Y-13900731D02*
X13323032Y-13900731D01*
X26012538Y-16015100D02*
X25983193Y-15985755D01*
X25845000Y-15830445D02*
X25845000Y-15620000D01*
X25983193Y-15985755D02*
X25983193Y-15968638D01*
%TO.N,LED_D5*%
X13101850Y5350000D02*
X12930000Y5350000D01*
X25566295Y2719277D02*
X19171276Y2719277D01*
X25845000Y3850000D02*
X25845000Y3440000D01*
X25845000Y2997983D02*
X25566295Y2719277D01*
X19171276Y2719277D02*
X16540553Y5350000D01*
X25845000Y3440000D02*
X25845000Y2997983D01*
X16540553Y5350000D02*
X13101850Y5350000D01*
X12930000Y5350000D02*
X12255000Y5350000D01*
%TO.N,LED_D6*%
X32282553Y6072553D02*
X32282553Y9794638D01*
X-17386460Y-2686298D02*
X-22455931Y-2686298D01*
X10635993Y14036710D02*
X2733193Y14036710D01*
X-10451113Y12488802D02*
X-15931984Y7007931D01*
X2733193Y14036710D02*
X44568Y16725334D01*
X-7603983Y12488802D02*
X-10451113Y12488802D01*
X-31560000Y-15210000D02*
X-31295000Y-15210000D01*
X-668005Y16681678D02*
X-3411107Y16681678D01*
X-29426564Y-6370547D02*
X-32246398Y-9190382D01*
X27407922Y14669270D02*
X11268553Y14669270D01*
X-22455931Y-2686298D02*
X-26140180Y-6370547D01*
X-15931984Y7007931D02*
X-15931984Y2273216D01*
X-3411107Y16681678D02*
X-7603983Y12488802D01*
X11268553Y14669270D02*
X10635993Y14036710D01*
X-32246398Y-14523602D02*
X-32105162Y-14664838D01*
X-16286196Y1919004D02*
X-16286196Y-1586034D01*
X-16286196Y-1586034D02*
X-17386460Y-2686298D01*
X44568Y16725334D02*
X-668005Y16681678D01*
X31295000Y5350000D02*
X31560000Y5350000D01*
X-32246398Y-9190382D02*
X-32246398Y-14523602D01*
X-26140180Y-6370547D02*
X-29426564Y-6370547D01*
X31560000Y5350000D02*
X32282553Y6072553D01*
X32282553Y9794638D02*
X27407922Y14669270D01*
X-15931984Y2273216D02*
X-16286196Y1919004D01*
X-32105162Y-14664838D02*
X-31560000Y-15210000D01*
%TO.N,LED_D2*%
X-32244014Y9797433D02*
X-32244014Y4534014D01*
X13256785Y24390000D02*
X13335073Y24311712D01*
X-32118807Y4408807D02*
X-31560000Y3850000D01*
X-19514380Y15472287D02*
X-23535170Y15472287D01*
X13198338Y24390000D02*
X13256785Y24390000D01*
X-18692682Y16293985D02*
X-19514380Y15472287D01*
X12255000Y24390000D02*
X12930000Y24390000D01*
X-29698309Y12343138D02*
X-32244014Y9797433D01*
X-32244014Y4534014D02*
X-32118807Y4408807D01*
X12930000Y24390000D02*
X13198338Y24390000D01*
X-23535170Y15472287D02*
X-26664319Y12343138D01*
X-26664319Y12343138D02*
X-29698309Y12343138D01*
X-31560000Y3850000D02*
X-31295000Y3850000D01*
%TD*%
M02*
