%TF.GenerationSoftware,KiCad,Pcbnew,10.0.4*%
%TF.CreationDate,2026-07-21T11:09:54+08:00*%
%TF.ProjectId,openmicro,6f70656e-6d69-4637-926f-2e6b69636164,rev?*%
%TF.SameCoordinates,Original*%
%TF.FileFunction,Copper,L4,Bot*%
%TF.FilePolarity,Positive*%
%FSLAX46Y46*%
G04 Gerber Fmt 4.6, Leading zero omitted, Abs format (unit mm)*
G04 Created by KiCad (PCBNEW 10.0.4) date 2026-07-21 11:09:54*
%MOMM*%
%LPD*%
G01*
G04 APERTURE LIST*
%TA.AperFunction,ComponentPad*%
%ADD10C,4.000000*%
%TD*%
%TA.AperFunction,ComponentPad*%
%ADD11C,2.200000*%
%TD*%
%TA.AperFunction,ComponentPad*%
%ADD12C,2.000000*%
%TD*%
%TA.AperFunction,ComponentPad*%
%ADD13C,3.200000*%
%TD*%
%TA.AperFunction,ComponentPad*%
%ADD14O,1.000000X2.100000*%
%TD*%
%TA.AperFunction,ComponentPad*%
%ADD15O,1.000000X1.600000*%
%TD*%
%TA.AperFunction,ComponentPad*%
%ADD16C,1.700000*%
%TD*%
%TA.AperFunction,SMDPad,CuDef*%
%ADD17R,1.200000X0.900000*%
%TD*%
%TA.AperFunction,SMDPad,CuDef*%
%ADD18R,1.475000X0.300000*%
%TD*%
%TA.AperFunction,SMDPad,CuDef*%
%ADD19R,0.300000X1.475000*%
%TD*%
%TA.AperFunction,ViaPad*%
%ADD20C,0.500500*%
%TD*%
%TA.AperFunction,Conductor*%
%ADD21C,0.150150*%
%TD*%
%TA.AperFunction,Conductor*%
%ADD22C,0.206119*%
%TD*%
G04 APERTURE END LIST*
D10*
%TO.P,H2,1*%
%TO.N,GND*%
X42500000Y42500000D03*
%TD*%
D11*
%TO.P,SW11,1*%
%TO.N,ROW1*%
X28575000Y15425000D03*
%TO.P,SW11,2*%
%TO.N,KEY6*%
X33575000Y13325000D03*
%TD*%
%TO.P,SW12,1*%
%TO.N,ROW2*%
X-28575000Y-3625000D03*
%TO.P,SW12,2*%
%TO.N,KEY7*%
X-23575000Y-5725000D03*
%TD*%
%TO.P,SW3,1*%
%TO.N,ROW0*%
X-9525000Y34475000D03*
%TO.P,SW3,2*%
%TO.N,KEY1*%
X-4525000Y32375000D03*
%TD*%
%TO.P,SW14,1*%
%TO.N,ROW2*%
X9525000Y-3625000D03*
%TO.P,SW14,2*%
%TO.N,KEY9*%
X14525000Y-5725000D03*
%TD*%
%TO.P,SW15,1*%
%TO.N,ROW2*%
X28575000Y-3625000D03*
%TO.P,SW15,2*%
%TO.N,KEY10*%
X33575000Y-5725000D03*
%TD*%
%TO.P,SW13,1*%
%TO.N,ROW2*%
X-9525000Y-3625000D03*
%TO.P,SW13,2*%
%TO.N,KEY8*%
X-4525000Y-5725000D03*
%TD*%
%TO.P,SW5,1*%
%TO.N,ROW3*%
X-9525000Y-22675000D03*
%TO.P,SW5,2*%
%TO.N,KEY11*%
X-4525000Y-24775000D03*
%TD*%
%TO.P,SW4,1*%
%TO.N,ROW0*%
X9525000Y34475000D03*
%TO.P,SW4,2*%
%TO.N,KEY2*%
X14525000Y32375000D03*
%TD*%
%TO.P,SW8,1*%
%TO.N,ROW1*%
X-28575000Y15425000D03*
%TO.P,SW8,2*%
%TO.N,KEY3*%
X-23575000Y13325000D03*
%TD*%
%TO.P,SW7,1*%
%TO.N,ROW3*%
X28575000Y-22675000D03*
%TO.P,SW7,2*%
%TO.N,KEY13*%
X33575000Y-24775000D03*
%TD*%
D12*
%TO.P,SW1,1*%
%TO.N,ENC_A*%
X-35575000Y31075000D03*
%TO.P,SW1,2*%
%TO.N,GND*%
X-35575000Y28575000D03*
%TO.P,SW1,3*%
%TO.N,ENC_B*%
X-35575000Y26075000D03*
%TO.P,SW1,4*%
%TO.N,ENC_SW*%
X-21075000Y26075000D03*
%TO.P,SW1,5*%
%TO.N,GND*%
X-21075000Y31075000D03*
D13*
%TO.P,SW1,6*%
X-28075000Y34175000D03*
%TO.P,SW1,7*%
X-28075000Y22975000D03*
%TD*%
D14*
%TO.P,J3,SH1*%
%TO.N,GND*%
X4320000Y42510000D03*
%TO.P,J3,SH2*%
X-4320000Y42510000D03*
D15*
%TO.P,J3,SH3*%
X4320000Y46690000D03*
%TO.P,J3,SH4*%
X-4320000Y46690000D03*
%TD*%
D16*
%TO.P,J1,1*%
%TO.N,GND*%
X24825000Y28575000D03*
%TO.P,J1,2*%
%TO.N,JOY_X*%
X27325000Y28575000D03*
%TO.P,J1,3*%
%TO.N,V3V3*%
X29825000Y28575000D03*
%TO.P,J1,4*%
%TO.N,GND*%
X32325000Y31075000D03*
%TO.P,J1,5*%
%TO.N,JOY_Y*%
X32325000Y28575000D03*
%TO.P,J1,6*%
%TO.N,V3V3*%
X32325000Y26075000D03*
%TO.P,J1,7*%
%TO.N,JOY_SW*%
X27325000Y22575000D03*
%TO.P,J1,8*%
%TO.N,GND*%
X29825000Y22575000D03*
%TD*%
D10*
%TO.P,H1,1*%
%TO.N,GND*%
X-42500000Y42500000D03*
%TD*%
D16*
%TO.P,J2,1*%
%TO.N,SWDIO*%
X-26596394Y45229723D03*
%TO.P,J2,2*%
%TO.N,SWCLK*%
X-29136394Y45229723D03*
%TO.P,J2,3*%
%TO.N,GND*%
X-31676394Y45229723D03*
%TO.P,J2,4*%
%TO.N,V3V3*%
X-34216394Y45229723D03*
%TD*%
D10*
%TO.P,H4,1*%
%TO.N,GND*%
X-42500000Y-42500000D03*
%TD*%
D11*
%TO.P,SW6,1*%
%TO.N,ROW3*%
X9525000Y-22675000D03*
%TO.P,SW6,2*%
%TO.N,KEY12*%
X14525000Y-24775000D03*
%TD*%
%TO.P,SW10,1*%
%TO.N,ROW1*%
X9525000Y15425000D03*
%TO.P,SW10,2*%
%TO.N,KEY5*%
X14525000Y13325000D03*
%TD*%
D10*
%TO.P,H3,1*%
%TO.N,GND*%
X42500000Y-42500000D03*
%TD*%
D11*
%TO.P,SW9,1*%
%TO.N,ROW1*%
X-9525000Y15425000D03*
%TO.P,SW9,2*%
%TO.N,KEY4*%
X-4525000Y13325000D03*
%TD*%
D17*
%TO.P,D13,1*%
%TO.N,COL3*%
X33575000Y-19925000D03*
%TO.P,D13,2*%
%TO.N,KEY10*%
X33575000Y-16625000D03*
%TD*%
%TO.P,D5,1*%
%TO.N,COL3*%
X33575000Y-38975000D03*
%TO.P,D5,2*%
%TO.N,KEY13*%
X33575000Y-35675000D03*
%TD*%
%TO.P,D8,1*%
%TO.N,COL2*%
X14525000Y-875000D03*
%TO.P,D8,2*%
%TO.N,KEY5*%
X14525000Y2425000D03*
%TD*%
%TO.P,D3,1*%
%TO.N,COL1*%
X-4525000Y-38975000D03*
%TO.P,D3,2*%
%TO.N,KEY11*%
X-4525000Y-35675000D03*
%TD*%
D18*
%TO.P,U3,1*%
%TO.N,V3V3*%
X-22162500Y38250000D03*
%TO.P,U3,2*%
%TO.N,ENC_A*%
X-22162500Y38750000D03*
%TO.P,U3,3*%
%TO.N,ENC_B*%
X-22162500Y39250000D03*
%TO.P,U3,4*%
%TO.N,ENC_SW*%
X-22162500Y39750000D03*
%TO.P,U3,5*%
%TO.N,HSE_IN*%
X-22162500Y40250000D03*
%TO.P,U3,6*%
%TO.N,HSE_OUT*%
X-22162500Y40750000D03*
%TO.P,U3,7*%
%TO.N,NRST*%
X-22162500Y41250000D03*
%TO.P,U3,8*%
%TO.N,GND*%
X-22162500Y41750000D03*
%TO.P,U3,9*%
%TO.N,V3V3*%
X-22162500Y42250000D03*
%TO.P,U3,10*%
%TO.N,UG_D0*%
X-22162500Y42750000D03*
%TO.P,U3,11*%
%TO.N,N/C*%
X-22162500Y43250000D03*
%TO.P,U3,12*%
X-22162500Y43750000D03*
D19*
%TO.P,U3,13*%
X-20750000Y45162500D03*
%TO.P,U3,14*%
X-20250000Y45162500D03*
%TO.P,U3,15*%
X-19750000Y45162500D03*
%TO.P,U3,16*%
X-19250000Y45162500D03*
%TO.P,U3,17*%
X-18750000Y45162500D03*
%TO.P,U3,18*%
%TO.N,JOY_Y*%
X-18250000Y45162500D03*
%TO.P,U3,19*%
%TO.N,JOY_X*%
X-17750000Y45162500D03*
%TO.P,U3,20*%
%TO.N,N/C*%
X-17250000Y45162500D03*
%TO.P,U3,21*%
X-16750000Y45162500D03*
%TO.P,U3,22*%
X-16250000Y45162500D03*
%TO.P,U3,23*%
%TO.N,GND*%
X-15750000Y45162500D03*
%TO.P,U3,24*%
%TO.N,V3V3*%
X-15250000Y45162500D03*
D18*
%TO.P,U3,25*%
%TO.N,N/C*%
X-13837500Y43750000D03*
%TO.P,U3,26*%
X-13837500Y43250000D03*
%TO.P,U3,27*%
X-13837500Y42750000D03*
%TO.P,U3,28*%
X-13837500Y42250000D03*
%TO.P,U3,29*%
%TO.N,JOY_SW*%
X-13837500Y41750000D03*
%TO.P,U3,30*%
%TO.N,ROW0*%
X-13837500Y41250000D03*
%TO.P,U3,31*%
%TO.N,COL3*%
X-13837500Y40750000D03*
%TO.P,U3,32*%
%TO.N,USB_DM*%
X-13837500Y40250000D03*
%TO.P,U3,33*%
%TO.N,USB_DP*%
X-13837500Y39750000D03*
%TO.P,U3,34*%
%TO.N,SWDIO*%
X-13837500Y39250000D03*
%TO.P,U3,35*%
%TO.N,GND*%
X-13837500Y38750000D03*
%TO.P,U3,36*%
%TO.N,V3V3*%
X-13837500Y38250000D03*
D19*
%TO.P,U3,37*%
%TO.N,SWCLK*%
X-15250000Y36837500D03*
%TO.P,U3,38*%
%TO.N,COL2*%
X-15750000Y36837500D03*
%TO.P,U3,39*%
%TO.N,ROW1*%
X-16250000Y36837500D03*
%TO.P,U3,40*%
%TO.N,LED_D0*%
X-16750000Y36837500D03*
%TO.P,U3,41*%
%TO.N,ROW3*%
X-17250000Y36837500D03*
%TO.P,U3,42*%
%TO.N,ROW2*%
X-17750000Y36837500D03*
%TO.P,U3,43*%
%TO.N,COL1*%
X-18250000Y36837500D03*
%TO.P,U3,44*%
%TO.N,BOOT0*%
X-18750000Y36837500D03*
%TO.P,U3,45*%
%TO.N,COL0*%
X-19250000Y36837500D03*
%TO.P,U3,46*%
%TO.N,TOUCH*%
X-19750000Y36837500D03*
%TO.P,U3,47*%
%TO.N,GND*%
X-20250000Y36837500D03*
%TO.P,U3,48*%
%TO.N,V3V3*%
X-20750000Y36837500D03*
%TD*%
D17*
%TO.P,D9,1*%
%TO.N,COL3*%
X33575000Y-875000D03*
%TO.P,D9,2*%
%TO.N,KEY6*%
X33575000Y2425000D03*
%TD*%
%TO.P,D7,1*%
%TO.N,COL1*%
X-4525000Y-875000D03*
%TO.P,D7,2*%
%TO.N,KEY4*%
X-4525000Y2425000D03*
%TD*%
%TO.P,D11,1*%
%TO.N,COL1*%
X-4525000Y-19925000D03*
%TO.P,D11,2*%
%TO.N,KEY8*%
X-4525000Y-16625000D03*
%TD*%
%TO.P,D12,1*%
%TO.N,COL2*%
X14525000Y-19925000D03*
%TO.P,D12,2*%
%TO.N,KEY9*%
X14525000Y-16625000D03*
%TD*%
%TO.P,D10,1*%
%TO.N,COL0*%
X-23575000Y-19925000D03*
%TO.P,D10,2*%
%TO.N,KEY7*%
X-23575000Y-16625000D03*
%TD*%
%TO.P,D1,1*%
%TO.N,COL1*%
X-4525000Y18175000D03*
%TO.P,D1,2*%
%TO.N,KEY1*%
X-4525000Y21475000D03*
%TD*%
%TO.P,D2,1*%
%TO.N,COL2*%
X14525000Y18175000D03*
%TO.P,D2,2*%
%TO.N,KEY2*%
X14525000Y21475000D03*
%TD*%
%TO.P,D6,1*%
%TO.N,COL0*%
X-23575000Y-875000D03*
%TO.P,D6,2*%
%TO.N,KEY3*%
X-23575000Y2425000D03*
%TD*%
%TO.P,D4,1*%
%TO.N,COL2*%
X14525000Y-38975000D03*
%TO.P,D4,2*%
%TO.N,KEY12*%
X14525000Y-35675000D03*
%TD*%
D20*
%TO.N,LED_D10*%
X26945398Y-13584607D03*
X-233621Y-30276162D03*
%TO.N,GND*%
X-44119401Y17397833D03*
X6374935Y42816270D03*
X-15863352Y44002105D03*
X-16380690Y-19087964D03*
X-45929658Y43788648D03*
X-5966686Y38219734D03*
X-43111003Y-31383588D03*
X-30275194Y-40407601D03*
X-23285377Y-14053110D03*
X-14802690Y25052277D03*
X-21250467Y35898701D03*
X2960226Y40451698D03*
X-7897692Y5484334D03*
X-26207717Y37853456D03*
X-3046706Y42738237D03*
X25203042Y-38838254D03*
X-18487024Y39693419D03*
X-30475150Y-19497734D03*
X35741872Y43813903D03*
X6619566Y25738145D03*
X14810836Y-41528799D03*
X-27423841Y46485947D03*
X-8305182Y-13617652D03*
X1780559Y-32016726D03*
X43478785Y-20476502D03*
X-17808722Y46522670D03*
X-24878086Y-12339172D03*
X-23846359Y-44214150D03*
X-28209942Y-33720383D03*
X-256897Y6226578D03*
X-6480388Y43084819D03*
X-3724188Y24520686D03*
X30198408Y-32713941D03*
X36808935Y-41028601D03*
X40420147Y14134445D03*
X-35285333Y38880872D03*
X-7905735Y-32706059D03*
X-22104488Y45901692D03*
X5129969Y-10607400D03*
X40401125Y-30578371D03*
X13633408Y43594976D03*
X11162464Y5426250D03*
X7210166Y-20302977D03*
X6759151Y17798010D03*
X-10964470Y6704650D03*
X43309380Y1691608D03*
X-42666517Y14818802D03*
X43547753Y-37375966D03*
X34808042Y-13540838D03*
X11528335Y14696036D03*
X-12698912Y38989642D03*
X16115809Y33120551D03*
X7125682Y-39361643D03*
X26670835Y-19208679D03*
X-19145443Y42465294D03*
X-24754906Y5289230D03*
X-11551450Y-10063D03*
X8881711Y44585233D03*
X-22846215Y7690366D03*
X13358658Y24481930D03*
X-43813903Y7997231D03*
X-13010382Y-45240500D03*
X14217185Y-14216391D03*
X22913644Y14696036D03*
X-5681602Y14648792D03*
X-43765886Y-7484077D03*
X40408842Y43827687D03*
X4771993Y38653877D03*
X-43001863Y36815686D03*
X14189307Y-33078669D03*
X34778966Y-43701637D03*
X-43813903Y35072648D03*
X-43157042Y-9385303D03*
X44806785Y11201972D03*
X-21346752Y45343957D03*
X-16094124Y14696036D03*
X-19999037Y42173117D03*
X26685882Y-336662D03*
X43788528Y36461261D03*
X-15773292Y19073220D03*
X-7888484Y24340166D03*
X27514937Y-19533916D03*
X43637706Y-2192356D03*
X46451861Y-5424914D03*
X35454718Y22688148D03*
X-33424907Y-44214150D03*
X45087428Y30769409D03*
X-3795520Y-11981908D03*
X-762631Y36994664D03*
X-3122226Y-23716411D03*
X-38365682Y8833410D03*
X-23864814Y41557960D03*
X-8656302Y-32201146D03*
X40756142Y-6856949D03*
X21752164Y-31381173D03*
X38164095Y3060854D03*
X30203828Y-13636151D03*
X7756229Y-19292571D03*
X-13778045Y-19314304D03*
X-27741478Y-20945111D03*
X44760542Y-15296478D03*
X-30485774Y-86891D03*
X-8117334Y-40416081D03*
X-34535023Y-13399604D03*
X19192138Y42739113D03*
X16183319Y-21946008D03*
X5697633Y-44254168D03*
X44806785Y20780520D03*
X27766270Y34164981D03*
X-10607579Y-41746005D03*
X-20341947Y35648765D03*
X30192055Y5351996D03*
X-11162593Y33844604D03*
X-37709654Y25409123D03*
X-17886362Y-2896008D03*
X-11535560Y-38457253D03*
X-24363732Y39240745D03*
X-3129365Y-2076954D03*
X-193369Y33746036D03*
X5549742Y46485947D03*
X12368934Y-3379714D03*
X30761907Y-45303128D03*
X-43028459Y-25449451D03*
X-31933172Y1816528D03*
X-24461498Y18330270D03*
X25681697Y25249554D03*
X-31373537Y42716545D03*
X-38089824Y-36026340D03*
X27466452Y120502D03*
X-25641117Y30709872D03*
X20951717Y-41149268D03*
X20120625Y5369778D03*
X-45087754Y-41872764D03*
X23386553Y-9294701D03*
X-16809863Y33453146D03*
X6709616Y-1155492D03*
X41009440Y36810835D03*
X34303785Y-30007325D03*
X-37376047Y46485947D03*
X-5473903Y46485947D03*
%TO.N,LED_D9*%
X16472804Y-10023680D03*
X28863402Y-14263704D03*
%TO.N,UG_D9*%
X17650829Y-42271766D03*
X30237482Y-40420290D03*
%TO.N,V3V3*%
X-25388136Y42760106D03*
X-14688138Y45306240D03*
%TO.N,HSE_IN*%
X-23899681Y40492025D03*
%TO.N,HSE_OUT*%
X-26036384Y41517905D03*
%TO.N,NRST*%
X-19342760Y41390259D03*
%TO.N,LED_D8*%
X11162486Y-15481570D03*
X-9099279Y-15080097D03*
%TO.N,LED_D4*%
X-788882Y6955556D03*
X5371715Y7569263D03*
%TO.N,LED_D6*%
X22446787Y1368544D03*
X-18710088Y-16484613D03*
%TO.N,BOOT0*%
X-18683576Y35675753D03*
%TO.N,ROW0*%
X6733225Y32386215D03*
X-14997513Y41239887D03*
%TO.N,UG_D14*%
X-40639908Y-9301592D03*
X-41021425Y10362242D03*
%TO.N,LED_D1*%
X10727918Y22999967D03*
X2596565Y28367787D03*
%TO.N,LED_D0*%
X-7894960Y22586394D03*
%TO.N,TOUCH*%
X-26517600Y-20826922D03*
%TO.N,KEY8*%
X-3442878Y-15531115D03*
%TO.N,KEY2*%
X15088832Y22330603D03*
%TO.N,LED_D2*%
X-9132030Y1685108D03*
X7970977Y20042726D03*
%TO.N,CC2*%
X-6291701Y40600374D03*
X-5949360Y39278600D03*
%TO.N,ENC_SW*%
X-19914604Y39913843D03*
%TO.N,CC1*%
X7373279Y45536979D03*
X2846253Y43538603D03*
%TO.N,USBC_DM*%
X220779Y43969851D03*
X1458724Y43115938D03*
%TO.N,JOY_Y*%
X-18939704Y43772361D03*
%TO.N,JOY_SW*%
X20599631Y26498901D03*
%TO.N,LED_D11*%
X-12255194Y-31907601D03*
X9154729Y-34603575D03*
%TO.N,SWDIO*%
X-16823465Y40218977D03*
X-18947061Y40782313D03*
%TO.N,SWCLK*%
X-19127202Y38542676D03*
X-28236811Y40554112D03*
%TO.N,UG_D0*%
X-27874556Y41674991D03*
%TO.N,UG_D3*%
X34619390Y41749577D03*
X18104033Y40150480D03*
%TO.N,KEY4*%
X-794917Y10329189D03*
%TO.N,USB_DM*%
X-11607290Y40213763D03*
%TO.N,USB_DP*%
X9218913Y39137051D03*
%TO.N,COL3*%
X-12648883Y40688797D03*
X-86945Y31394691D03*
%TO.N,COL2*%
X13508277Y-887284D03*
X13251674Y-9915170D03*
%TO.N,COL1*%
X-5092594Y19565716D03*
X-4168695Y-20822172D03*
X-17775840Y33466481D03*
X-3756947Y-17442401D03*
X-8860817Y19521744D03*
X-5433347Y-9742912D03*
X-3507531Y-39116839D03*
%TO.N,COL0*%
X-20791181Y18618154D03*
X-18711181Y33267643D03*
%TD*%
%TO.N,LED_D10*%
D21*
X20219222Y-16014661D02*
X24515344Y-16014661D01*
X24515344Y-16014661D02*
X26945398Y-13584607D01*
X10651022Y-25582861D02*
X20219222Y-16014661D01*
X-233621Y-30276162D02*
X4459679Y-25582861D01*
X4459679Y-25582861D02*
X10651022Y-25582861D01*
%TO.N,GND*%
X-23144422Y41750014D02*
X-22900194Y41750014D01*
X-22900194Y41750014D02*
X-22162694Y41750014D01*
X-23672760Y41750014D02*
X-23144422Y41750014D01*
X-13100194Y38750014D02*
X-13837694Y38750014D01*
X-23864814Y41557960D02*
X-23672760Y41750014D01*
X-20250194Y35818154D02*
X-20250194Y35740518D01*
X-20250194Y36100014D02*
X-20250194Y35818154D01*
X-12698912Y38907067D02*
X-12855965Y38750014D01*
X-12855965Y38750014D02*
X-13100194Y38750014D01*
X-20250194Y36837514D02*
X-20250194Y36100014D01*
X-20250194Y35740518D02*
X-20341947Y35648765D01*
X-15750194Y44199601D02*
X-15750194Y44115264D01*
X-15750194Y45162514D02*
X-15750194Y44425014D01*
X-12698912Y38989642D02*
X-12698912Y38907067D01*
X-15750194Y44425014D02*
X-15750194Y44199601D01*
X-15750194Y44115264D02*
X-15863352Y44002105D01*
%TO.N,LED_D9*%
X16472804Y-10023680D02*
X24623378Y-10023680D01*
X24623378Y-10023680D02*
X28863402Y-14263704D01*
%TO.N,UG_D9*%
X17650829Y-42271766D02*
X19502305Y-40420290D01*
X19502305Y-40420290D02*
X30237482Y-40420290D01*
%TO.N,V3V3*%
X-15708656Y38951091D02*
X-16238023Y38951091D01*
X-19273788Y39663915D02*
X-19273788Y39483804D01*
X27228825Y25978533D02*
X29047611Y27797318D01*
X-19273788Y39483804D02*
X-20750194Y38007399D01*
X-14688138Y45306240D02*
X-14693424Y45306240D01*
X6831542Y35129584D02*
X9078965Y32882161D01*
X-15250194Y45162514D02*
X-15250194Y44425014D01*
X-20750194Y38007399D02*
X-20750194Y37575014D01*
X-18725011Y40212692D02*
X-19273788Y39663915D01*
X-20750194Y37575014D02*
X-20750194Y36837514D01*
X-21205936Y38151072D02*
X-21205936Y37880756D01*
X-17428312Y41674624D02*
X-17428312Y40212692D01*
X9078965Y32882161D02*
X11322645Y32882161D01*
X-22162694Y38250014D02*
X-21425194Y38250014D01*
X-25388136Y42760106D02*
X-24878044Y42250014D01*
X-23332579Y42250014D02*
X-22900194Y42250014D01*
X-13837694Y38250014D02*
X-14575194Y38250014D01*
X-14837150Y45162514D02*
X-15100194Y45162514D01*
X11322645Y32882161D02*
X18226273Y25978533D01*
X-21205936Y37880756D02*
X-20750194Y37425014D01*
X-21425194Y38250014D02*
X-21304878Y38250014D01*
X29047611Y27797318D02*
X29522806Y28272514D01*
X-15100194Y45162514D02*
X-15250194Y45162514D01*
X-15007579Y38250014D02*
X-15708656Y38951091D01*
X-22900194Y42250014D02*
X-22162694Y42250014D01*
X18226273Y25978533D02*
X27228825Y25978533D01*
X-20750194Y37425014D02*
X-20750194Y36837514D01*
X-14575194Y38250014D02*
X-15007579Y38250014D01*
X-17428312Y40141380D02*
X-17428312Y40212692D01*
X-13100194Y38250014D02*
X-12667809Y38250014D01*
X-4411261Y37377007D02*
X-2163838Y35129584D01*
X-13837694Y38250014D02*
X-13100194Y38250014D01*
X-24878044Y42250014D02*
X-23332579Y42250014D01*
X-15250194Y43852743D02*
X-17428312Y41674624D01*
X-11794801Y37377007D02*
X-4411261Y37377007D01*
X-2163838Y35129584D02*
X6831542Y35129584D01*
X-14693424Y45306240D02*
X-14837150Y45162514D01*
X-12667809Y38250014D02*
X-11794801Y37377007D01*
X-15250194Y44425014D02*
X-15250194Y43992629D01*
X-17428312Y40212692D02*
X-18725011Y40212692D01*
X29522806Y28272514D02*
X29825306Y28575014D01*
X-21304878Y38250014D02*
X-21205936Y38151072D01*
X-15250194Y43992629D02*
X-15250194Y43852743D01*
X-16238023Y38951091D02*
X-17428312Y40141380D01*
%TO.N,HSE_IN*%
X-23125606Y40250014D02*
X-22900194Y40250014D01*
X-22900194Y40250014D02*
X-22162694Y40250014D01*
X-23657670Y40250014D02*
X-23125606Y40250014D01*
X-23899681Y40492025D02*
X-23657670Y40250014D01*
%TO.N,HSE_OUT*%
X-23332579Y40750014D02*
X-22900194Y40750014D01*
X-25585336Y41066857D02*
X-23649422Y41066857D01*
X-26036384Y41517905D02*
X-25585336Y41066857D01*
X-23649422Y41066857D02*
X-23332579Y40750014D01*
X-22900194Y40750014D02*
X-22162694Y40750014D01*
%TO.N,NRST*%
X-19342760Y41390259D02*
X-19483006Y41250014D01*
X-19483006Y41250014D02*
X-20992809Y41250014D01*
X-20992809Y41250014D02*
X-21425194Y41250014D01*
X-21425194Y41250014D02*
X-22162694Y41250014D01*
%TO.N,LED_D8*%
X1314714Y-15046945D02*
X-9066128Y-15046945D01*
X11162486Y-15481570D02*
X10610502Y-16033554D01*
X-9066128Y-15046945D02*
X-9099279Y-15080097D01*
X2301322Y-16033554D02*
X1314714Y-15046945D01*
X10610502Y-16033554D02*
X2301322Y-16033554D01*
%TO.N,LED_D4*%
X5371715Y7569263D02*
X4758008Y6955556D01*
X4758008Y6955556D02*
X-788882Y6955556D01*
%TO.N,ROW1*%
X-9133694Y15816514D02*
X-9525194Y15425014D01*
X-6773501Y29900404D02*
X-6773501Y18176706D01*
X9525383Y19239962D02*
X8230333Y20535012D01*
X-7985809Y15425014D02*
X-8418194Y15425014D01*
X4438269Y20535012D02*
X-671729Y15425014D01*
X-6773501Y18176706D02*
X-8436451Y16513756D01*
X8230333Y20535012D02*
X4438269Y20535012D01*
X-8358077Y31484980D02*
X-6773501Y29900404D01*
X-8436451Y16513756D02*
X-9133694Y15816514D01*
X9525383Y16700980D02*
X9525383Y19239962D01*
X9525056Y15978514D02*
X9525383Y16700980D01*
X-11935835Y31484980D02*
X-8358077Y31484980D01*
X-671729Y15425014D02*
X-7985809Y15425014D01*
X-16250194Y35799338D02*
X-11935835Y31484980D01*
X-16250194Y36837514D02*
X-16250194Y36100014D01*
X-8418194Y15425014D02*
X-9525194Y15425014D01*
X-16250194Y36100014D02*
X-16250194Y35799338D01*
X9524806Y15425014D02*
X9525056Y15978514D01*
%TO.N,KEY6*%
X33574806Y2875014D02*
X33574806Y2425014D01*
X33574806Y3307399D02*
X33574806Y2875014D01*
X33574806Y13325014D02*
X33574806Y3307399D01*
%TO.N,LED_D6*%
X22446787Y1368544D02*
X17867499Y-3210745D01*
X-11867051Y-16484613D02*
X-18710088Y-16484613D01*
X17867499Y-3210745D02*
X13568835Y-3210745D01*
X3652136Y-11054302D02*
X-6436740Y-11054302D01*
X-6436740Y-11054302D02*
X-11867051Y-16484613D01*
X10077605Y-6701974D02*
X8004464Y-6701974D01*
X8004464Y-6701974D02*
X3652136Y-11054302D01*
X13568835Y-3210745D02*
X10077605Y-6701974D01*
%TO.N,BOOT0*%
X-18750194Y36100014D02*
X-18750194Y36837514D01*
X-18683576Y35675753D02*
X-18750194Y35742371D01*
X-18750194Y35931048D02*
X-18750194Y36100014D01*
X-18750194Y35742371D02*
X-18750194Y35931048D01*
%TO.N,ROW2*%
X-17750194Y36100014D02*
X-17750194Y35667629D01*
X-17335498Y33873543D02*
X-17269247Y33222093D01*
X-17269247Y22934312D02*
X-13406643Y19071708D01*
X10631806Y-3624986D02*
X11064191Y-3624986D01*
X23090137Y1860378D02*
X27486662Y-2536146D01*
X21601903Y1860378D02*
X23090137Y1860378D01*
X-17750194Y34288238D02*
X-17335498Y33873543D01*
X-17269247Y33222093D02*
X-17269247Y22934312D01*
X-9524498Y-2085601D02*
X-9524944Y-3071486D01*
X-9524498Y-147622D02*
X-9524498Y-2085601D01*
X-9524944Y-3071486D02*
X-9525194Y-3624986D01*
X-13406643Y3734522D02*
X-9524498Y-147622D01*
X-13406643Y19071708D02*
X-13406643Y3734522D01*
X9524806Y-3624986D02*
X10631806Y-3624986D01*
X28183556Y-3233486D02*
X28574806Y-3624986D01*
X27486662Y-2536146D02*
X28183556Y-3233486D01*
X17996074Y-1745451D02*
X21601903Y1860378D01*
X-17750194Y36837514D02*
X-17750194Y36100014D01*
X11064191Y-3624986D02*
X12943727Y-1745451D01*
X12943727Y-1745451D02*
X17996074Y-1745451D01*
X-17750194Y35667629D02*
X-17750194Y34288238D01*
%TO.N,KEY7*%
X-23575194Y-15742601D02*
X-23766488Y-15551307D01*
X-23575194Y-16174986D02*
X-23575194Y-15742601D01*
X-23574498Y-7264371D02*
X-23574944Y-6278486D01*
X-23575194Y-16624986D02*
X-23575194Y-16174986D01*
X-23766488Y-15551307D02*
X-23766488Y-7456361D01*
X-23574944Y-6278486D02*
X-23575194Y-5724986D01*
X-23766488Y-7456361D02*
X-23574498Y-7264371D01*
%TO.N,ROW0*%
X6733225Y32386215D02*
X4644427Y34475014D01*
X-14951132Y41250014D02*
X-14987387Y41250014D01*
X-14987387Y41250014D02*
X-14997513Y41239887D01*
X-14575194Y41250014D02*
X-14951132Y41250014D01*
X-8418194Y34475014D02*
X-9525194Y34475014D01*
X-7985809Y34475014D02*
X-8418194Y34475014D01*
X4644427Y34475014D02*
X-7985809Y34475014D01*
X-13837694Y41250014D02*
X-14575194Y41250014D01*
%TO.N,KEY1*%
X-4525194Y32375014D02*
X-4525194Y22357399D01*
X-4525194Y22357399D02*
X-4525194Y21925014D01*
X-4525194Y21925014D02*
X-4525194Y21475014D01*
%TO.N,UG_D14*%
X-41021425Y-8920075D02*
X-41021425Y10362242D01*
X-40639908Y-9301592D02*
X-41021425Y-8920075D01*
%TO.N,LED_D1*%
X7964385Y22999967D02*
X10727918Y22999967D01*
X2596565Y28367787D02*
X7964385Y22999967D01*
%TO.N,LED_D0*%
X-16750194Y36837514D02*
X-16750194Y36100014D01*
X-14506823Y33424258D02*
X-14506823Y29198257D01*
X-14506823Y29198257D02*
X-7894960Y22586394D01*
X-16750194Y36100014D02*
X-16750194Y35667629D01*
X-16750194Y35667629D02*
X-14506823Y33424258D01*
%TO.N,KEY9*%
X14525056Y-6278486D02*
X14524806Y-5724986D01*
X14524806Y-15742601D02*
X13736100Y-14953895D01*
X13736100Y-14953895D02*
X13736100Y-8053773D01*
X14524806Y-16174986D02*
X14524806Y-15742601D01*
X13736100Y-8053773D02*
X14525502Y-7264371D01*
X14524806Y-16624986D02*
X14524806Y-16174986D01*
X14525502Y-7264371D02*
X14525056Y-6278486D01*
%TO.N,KEY10*%
X33574806Y-15742601D02*
X33574806Y-16174986D01*
X33574806Y-16174986D02*
X33574806Y-16624986D01*
X33574806Y-5724986D02*
X33574806Y-15742601D01*
%TO.N,TOUCH*%
X-19750194Y-14176428D02*
X-26400687Y-20826922D01*
X-19750194Y36100014D02*
X-19750194Y35667629D01*
X-26400687Y-20826922D02*
X-26517600Y-20826922D01*
X-19750194Y35667629D02*
X-19750194Y-14176428D01*
X-19750194Y36837514D02*
X-19750194Y36100014D01*
%TO.N,KEY8*%
X-4525194Y-15742601D02*
X-4313708Y-15531115D01*
X-4525194Y-16624986D02*
X-4525194Y-16174986D01*
X-4313708Y-15531115D02*
X-3442878Y-15531115D01*
X-4525194Y-16174986D02*
X-4525194Y-15742601D01*
%TO.N,ROW3*%
X-14325578Y-17873906D02*
X-10613338Y-21586146D01*
X-8130322Y-4130263D02*
X-19245698Y-15245639D01*
X-19245698Y-15245639D02*
X-19245698Y-16688593D01*
X7985421Y-22674986D02*
X-7985809Y-22674986D01*
X-19245698Y-16688593D02*
X-18060385Y-17873906D01*
X-12704846Y19316911D02*
X-12704846Y3869210D01*
X-9916444Y-22283486D02*
X-9525194Y-22674986D01*
X9524806Y-22674986D02*
X8417806Y-22674986D01*
X8417806Y-22674986D02*
X7985421Y-22674986D01*
X-7985809Y-22674986D02*
X-8418194Y-22674986D01*
X-17250194Y35667629D02*
X-15531668Y33949104D01*
X-8130322Y-705314D02*
X-8130322Y-4130263D01*
X-10613338Y-21586146D02*
X-9916444Y-22283486D01*
X-17250194Y36837514D02*
X-17250194Y36100014D01*
X-12704846Y3869210D02*
X-8130322Y-705314D01*
X-18060385Y-17873906D02*
X-14325578Y-17873906D01*
X-15531668Y33949104D02*
X-15531668Y22143734D01*
X-8418194Y-22674986D02*
X-9525194Y-22674986D01*
X-17250194Y36100014D02*
X-17250194Y35667629D01*
X-15531668Y22143734D02*
X-12704846Y19316911D01*
%TO.N,KEY11*%
X-4525194Y-24774986D02*
X-4525194Y-34792601D01*
X-4525194Y-34792601D02*
X-4525194Y-35224986D01*
X-4525194Y-35224986D02*
X-4525194Y-35674986D01*
%TO.N,KEY2*%
X15088832Y21475014D02*
X15088832Y22330603D01*
X14524806Y21475014D02*
X15088832Y21475014D01*
%TO.N,LED_D2*%
X-9132030Y2939720D02*
X7970977Y20042726D01*
X-9132030Y1685108D02*
X-9132030Y2939720D01*
%TO.N,KEY3*%
X-23574944Y12771514D02*
X-23575194Y13325014D01*
X-23574498Y11785629D02*
X-23574944Y12771514D01*
X-23575194Y2425014D02*
X-23575194Y2875014D01*
X-23575194Y3307399D02*
X-23575194Y11784934D01*
X-23575194Y2875014D02*
X-23575194Y3307399D01*
X-23575194Y11784934D02*
X-23574498Y11785629D01*
%TO.N,KEY13*%
X33574806Y-24774986D02*
X33574806Y-34792601D01*
X33574806Y-34792601D02*
X33574806Y-35224986D01*
X33574806Y-35224986D02*
X33574806Y-35674986D01*
%TO.N,CC2*%
X-5949360Y39278600D02*
X-6291701Y39620941D01*
X-6291701Y39620941D02*
X-6291701Y40600374D01*
%TO.N,ENC_A*%
X-22900194Y38750014D02*
X-22162694Y38750014D01*
X-35574694Y31075014D02*
X-35218944Y31431014D01*
X-30634155Y36016268D02*
X-26066325Y36016268D01*
X-26066325Y36016268D02*
X-23332579Y38750014D01*
X-35218944Y31431014D02*
X-34557559Y32092864D01*
X-34557559Y32092864D02*
X-30634155Y36016268D01*
X-23332579Y38750014D02*
X-22900194Y38750014D01*
%TO.N,ENC_B*%
X-36512608Y27012928D02*
X-36922974Y27423294D01*
X-35574694Y26075014D02*
X-35930694Y26431014D01*
X-23332579Y39250014D02*
X-22900194Y39250014D01*
X-28644862Y39776257D02*
X-23858822Y39776257D01*
X-36922974Y27423294D02*
X-36922974Y31498146D01*
X-23858822Y39776257D02*
X-23332579Y39250014D01*
X-22900194Y39250014D02*
X-22162694Y39250014D01*
X-35930694Y26431014D02*
X-36512608Y27012928D01*
X-36922974Y31498146D02*
X-28644862Y39776257D01*
%TO.N,ENC_SW*%
X-19914604Y39913843D02*
X-20078433Y39750014D01*
X-20078433Y39750014D02*
X-20992809Y39750014D01*
X-20992809Y39750014D02*
X-21425194Y39750014D01*
X-21425194Y39750014D02*
X-22162694Y39750014D01*
%TO.N,CC1*%
X4844628Y45536979D02*
X7373279Y45536979D01*
X2846253Y43538603D02*
X4844628Y45536979D01*
%TO.N,USBC_DM*%
D22*
X220779Y43969851D02*
X1074692Y43115938D01*
X1074692Y43115938D02*
X1458724Y43115938D01*
%TO.N,JOY_X*%
D21*
X-4503401Y43996877D02*
X-1465243Y43996877D01*
X-17750194Y45162514D02*
X-17750194Y45531264D01*
X1411732Y41119902D02*
X14780418Y41119902D01*
X26414564Y29485756D02*
X27022806Y28877514D01*
X27022806Y28877514D02*
X27325306Y28575014D01*
X14780418Y41119902D02*
X26414564Y29485756D01*
X-1465243Y43996877D02*
X1411732Y41119902D01*
X-17455164Y46195044D02*
X-6701567Y46195044D01*
X-17750194Y45531264D02*
X-17750194Y45900014D01*
X-17750194Y45900014D02*
X-17455164Y46195044D01*
X-6701567Y46195044D02*
X-4503401Y43996877D01*
%TO.N,JOY_Y*%
X-18250194Y45162514D02*
X-18250194Y44425014D01*
X-18250194Y44425014D02*
X-18250194Y44180785D01*
X-18250194Y44180785D02*
X-18658618Y43772361D01*
X-18658618Y43772361D02*
X-18939704Y43772361D01*
%TO.N,JOY_SW*%
X9300410Y39745467D02*
X11439994Y37605884D01*
X11439994Y37605884D02*
X11439994Y33564432D01*
X-3807154Y39745467D02*
X9300410Y39745467D01*
X18505526Y26498901D02*
X20599631Y26498901D01*
X-5811701Y41750014D02*
X-3807154Y39745467D01*
X-12667809Y41750014D02*
X-5811701Y41750014D01*
X-13837694Y41750014D02*
X-13100194Y41750014D01*
X11439994Y33564432D02*
X18505526Y26498901D01*
X-13100194Y41750014D02*
X-12667809Y41750014D01*
%TO.N,LED_D11*%
X-12255194Y-31907601D02*
X-7802471Y-36360324D01*
X-7802471Y-36360324D02*
X7397980Y-36360324D01*
X7397980Y-36360324D02*
X9154729Y-34603575D01*
%TO.N,SWDIO*%
X-18624946Y41104428D02*
X-18947061Y40782313D01*
X-15007579Y39250014D02*
X-15976542Y40218977D01*
X-22223562Y45229316D02*
X-20789714Y43795468D01*
X-25401887Y45229316D02*
X-22223562Y45229316D01*
X-19790980Y43795468D02*
X-18624946Y42629435D01*
X-15976542Y40218977D02*
X-16823465Y40218977D01*
X-26596194Y45230014D02*
X-26168194Y45229764D01*
X-14575194Y39250014D02*
X-15007579Y39250014D01*
X-26168194Y45229764D02*
X-25401887Y45229316D01*
X-20789714Y43795468D02*
X-19790980Y43795468D01*
X-18624946Y42629435D02*
X-18624946Y41104428D01*
X-13837694Y39250014D02*
X-14575194Y39250014D01*
%TO.N,SWCLK*%
X-29136946Y41454247D02*
X-29136946Y43941629D01*
X-28236811Y40554112D02*
X-29136946Y41454247D01*
X-15250194Y38007399D02*
X-15785471Y38542676D01*
X-15250194Y37575014D02*
X-15250194Y38007399D01*
X-29136946Y43941629D02*
X-29136444Y44802014D01*
X-29136444Y44802014D02*
X-29136194Y45230014D01*
X-15250194Y36837514D02*
X-15250194Y37575014D01*
X-15785471Y38542676D02*
X-19127202Y38542676D01*
%TO.N,UG_D0*%
X-22900194Y42750014D02*
X-23332579Y42750014D01*
X-23865968Y43283403D02*
X-26266144Y43283403D01*
X-23332579Y42750014D02*
X-23865968Y43283403D01*
X-26266144Y43283403D02*
X-27874556Y41674991D01*
X-22162694Y42750014D02*
X-22900194Y42750014D01*
%TO.N,UG_D3*%
X19703129Y41749577D02*
X34619390Y41749577D01*
X18104033Y40150480D02*
X19703129Y41749577D01*
%TO.N,KEY12*%
X13709740Y-27130132D02*
X14525502Y-26314371D01*
X14524806Y-35224986D02*
X14524806Y-34792601D01*
X13709740Y-33977535D02*
X13709740Y-27130132D01*
X14524806Y-34792601D02*
X13709740Y-33977535D01*
X14524806Y-35674986D02*
X14524806Y-35224986D01*
X14525502Y-26314371D02*
X14525056Y-25328486D01*
X14525056Y-25328486D02*
X14524806Y-24774986D01*
%TO.N,KEY5*%
X14524806Y2875014D02*
X14524806Y2425014D01*
X14524806Y3307399D02*
X14524806Y2875014D01*
X14524806Y13325014D02*
X14524806Y3307399D01*
%TO.N,KEY4*%
X-4525194Y6598912D02*
X-4525194Y3307399D01*
X-4525194Y2875014D02*
X-4525194Y2425014D01*
X-794917Y10329189D02*
X-4525194Y6598912D01*
X-4525194Y3307399D02*
X-4525194Y2875014D01*
%TO.N,USB_DM*%
D22*
X-13100194Y40250014D02*
X-12976710Y40126530D01*
X-13468944Y40250014D02*
X-13100194Y40250014D01*
X-13837694Y40250014D02*
X-13468944Y40250014D01*
X-12976710Y40126530D02*
X-11694524Y40126530D01*
X-11694524Y40126530D02*
X-11607290Y40213763D01*
%TO.N,USB_DP*%
X-5747273Y41153157D02*
X-3953553Y39359436D01*
X-3953553Y39359436D02*
X8996529Y39359436D01*
X-12548212Y39750014D02*
X-12502592Y39704393D01*
X-13837694Y39750014D02*
X-13100194Y39750014D01*
X-11093514Y39704393D02*
X-9644751Y41153157D01*
X-13100194Y39750014D02*
X-12548212Y39750014D01*
X8996529Y39359436D02*
X9218913Y39137051D01*
X-9644751Y41153157D02*
X-5747273Y41153157D01*
X-12502592Y39704393D02*
X-11093514Y39704393D01*
%TO.N,COL3*%
D21*
X33574806Y7399D02*
X33574806Y-424986D01*
X20856027Y13573062D02*
X20856027Y12726178D01*
X9800310Y23588332D02*
X10840758Y23588332D01*
X20856027Y12726178D02*
X33574806Y7399D01*
X33574806Y-20374986D02*
X33574806Y-20807371D01*
X33574806Y-20807371D02*
X32233780Y-22148398D01*
X32233780Y-22148398D02*
X32233780Y-36751574D01*
X1993951Y31394691D02*
X9800310Y23588332D01*
X33574806Y-19474986D02*
X33574806Y-19042601D01*
X33574806Y-19924986D02*
X33574806Y-19474986D01*
X-12893597Y40750014D02*
X-13100194Y40750014D01*
X33574806Y-1324986D02*
X33574806Y-874986D01*
X33574806Y-38092601D02*
X33574806Y-38524986D01*
X-13100194Y40750014D02*
X-13837694Y40750014D01*
X32233780Y-36751574D02*
X33574806Y-38092601D01*
X33574806Y-19042601D02*
X32234715Y-17702510D01*
X-12648883Y40688797D02*
X-12710100Y40750014D01*
X-86945Y31394691D02*
X1993951Y31394691D01*
X33574806Y-1757371D02*
X33574806Y-1324986D01*
X-12710100Y40750014D02*
X-12893597Y40750014D01*
X33574806Y-19924986D02*
X33574806Y-20374986D01*
X33574806Y-424986D02*
X33574806Y-874986D01*
X33574806Y-38524986D02*
X33574806Y-38974986D01*
X10840758Y23588332D02*
X20856027Y13573062D01*
X32234715Y-3097462D02*
X33574806Y-1757371D01*
X32234715Y-17702510D02*
X32234715Y-3097462D01*
%TO.N,COL2*%
X4395088Y-24956295D02*
X10375883Y-24956295D01*
X-15750194Y36468764D02*
X-15750194Y36100014D01*
X13176611Y15944433D02*
X14524806Y17292629D01*
X13492421Y-38974986D02*
X12775265Y-38257830D01*
X9770726Y20506417D02*
X11161018Y20506417D01*
X13176611Y1355595D02*
X13176611Y15944433D01*
X12775265Y-38257830D02*
X12775265Y-37477312D01*
X-3465307Y33742450D02*
X9770726Y20506417D01*
X14524806Y-874986D02*
X14524806Y-424986D01*
X14524806Y7399D02*
X13176611Y1355595D01*
X14524806Y-874986D02*
X13924806Y-874986D01*
X13492421Y18175014D02*
X13924806Y18175014D01*
X13924806Y-38974986D02*
X13492421Y-38974986D01*
X-808969Y-30160351D02*
X4395088Y-24956295D01*
X14524806Y-20807371D02*
X14524806Y-20374986D01*
X13251674Y-17769469D02*
X13251674Y-9915170D01*
X-15750194Y36100014D02*
X-12765806Y33115626D01*
X12775265Y-37477312D02*
X6585701Y-31287748D01*
X14524806Y-20374986D02*
X14524806Y-19924986D01*
X14524806Y-19474986D02*
X14524806Y-19042601D01*
X14524806Y17292629D02*
X14524806Y17725014D01*
X-12765806Y33115626D02*
X-8532096Y33115626D01*
X-8532096Y33115626D02*
X-7905272Y33742450D01*
X14524806Y-19924986D02*
X14524806Y-19474986D01*
X14524806Y17725014D02*
X14524806Y18175014D01*
X13924806Y18175014D02*
X14524806Y18175014D01*
X81573Y-31287748D02*
X-808969Y-30397206D01*
X14524806Y-19042601D02*
X13251674Y-17769469D01*
X14524806Y-424986D02*
X14524806Y7399D01*
X13567684Y-874986D02*
X13520575Y-874986D01*
X11161018Y20506417D02*
X13492421Y18175014D01*
X13520575Y-874986D02*
X13508277Y-887284D01*
X6585701Y-31287748D02*
X81573Y-31287748D01*
X10375883Y-24956295D02*
X14524806Y-20807371D01*
X-7905272Y33742450D02*
X-3465307Y33742450D01*
X13924806Y-874986D02*
X13567684Y-874986D01*
X-15750194Y36837514D02*
X-15750194Y36468764D01*
X-808969Y-30397206D02*
X-808969Y-30160351D01*
X14524806Y-38974986D02*
X13924806Y-38974986D01*
%TO.N,COL1*%
X-12289909Y16092652D02*
X-12289909Y4128709D01*
X-5557579Y-874986D02*
X-5125194Y-874986D01*
X-18250194Y36837514D02*
X-18250194Y36100014D01*
X-4168695Y-20822172D02*
X-4303420Y-20822172D01*
X-4525194Y-19474986D02*
X-4525194Y-19924986D01*
X-5092594Y19549537D02*
X-4525194Y18982136D01*
X-4525194Y-20600399D02*
X-4525194Y-20374986D01*
X-5125194Y-874986D02*
X-4525194Y-874986D01*
X-4525194Y18625014D02*
X-4525194Y18175014D01*
X-4525194Y-1324986D02*
X-4525194Y-874986D01*
X-4303420Y-20822172D02*
X-4525194Y-20600399D01*
X-18147005Y33837646D02*
X-17775840Y33466481D01*
X-3925194Y-38974986D02*
X-3756228Y-38974986D01*
X-4525194Y-1757371D02*
X-4525194Y-1324986D01*
X-18147005Y35809044D02*
X-18147005Y33837646D01*
X-5884658Y-9291601D02*
X-5884658Y-3116836D01*
X-3756947Y-17442401D02*
X-4525194Y-18210647D01*
X-12289909Y4128709D02*
X-7286214Y-874986D01*
X-7286214Y-874986D02*
X-5557579Y-874986D01*
X-4525194Y-38974986D02*
X-3925194Y-38974986D01*
X-5884658Y-3116836D02*
X-4525194Y-1757371D01*
X-8860817Y19521744D02*
X-12289909Y16092652D01*
X-4525194Y-19042601D02*
X-4525194Y-19474986D01*
X-4525194Y-18210647D02*
X-4525194Y-19042601D01*
X-4525194Y18982136D02*
X-4525194Y18625014D01*
X-3756228Y-38974986D02*
X-3649384Y-38974986D01*
X-4525194Y-20374986D02*
X-4525194Y-19924986D01*
X-18250194Y36100014D02*
X-18250194Y35912233D01*
X-3649384Y-38974986D02*
X-3507531Y-39116839D01*
X-5433347Y-9742912D02*
X-5884658Y-9291601D01*
X-18250194Y35912233D02*
X-18147005Y35809044D01*
X-5092594Y19565716D02*
X-5092594Y19549537D01*
%TO.N,COL0*%
X-23575194Y-1757371D02*
X-23575194Y-1324986D01*
X-23575194Y-424986D02*
X-23575194Y7399D01*
X-27012500Y-21080798D02*
X-27012500Y-16348172D01*
X-24175194Y-19924986D02*
X-24607579Y-19924986D01*
X-26682354Y-21410944D02*
X-27012500Y-21080798D01*
X-24607579Y-19924986D02*
X-26093537Y-21410944D01*
X-20791181Y2791411D02*
X-20791181Y18618154D01*
X-23575194Y-874986D02*
X-23575194Y-424986D01*
X-19250194Y36100014D02*
X-19250194Y36837514D01*
X-23575194Y-19924986D02*
X-24175194Y-19924986D01*
X-25607064Y-14942736D02*
X-25607064Y-3789241D01*
X-27012500Y-16348172D02*
X-25607064Y-14942736D01*
X-25607064Y-3789241D02*
X-23575194Y-1757371D01*
X-19250194Y35667629D02*
X-19250194Y36100014D01*
X-23575194Y7399D02*
X-20791181Y2791411D01*
X-23575194Y-1324986D02*
X-23575194Y-874986D01*
X-26093537Y-21410944D02*
X-26682354Y-21410944D01*
X-19250194Y33806656D02*
X-19250194Y35667629D01*
X-18711181Y33267643D02*
X-19250194Y33806656D01*
%TD*%
M02*
