%TF.GenerationSoftware,KiCad,Pcbnew,10.0.4*%
%TF.CreationDate,2026-07-21T11:09:54+08:00*%
%TF.ProjectId,openmicro,6f70656e-6d69-4637-926f-2e6b69636164,rev?*%
%TF.SameCoordinates,Original*%
%TF.FileFunction,Paste,Bot*%
%TF.FilePolarity,Positive*%
%FSLAX46Y46*%
G04 Gerber Fmt 4.6, Leading zero omitted, Abs format (unit mm)*
G04 Created by KiCad (PCBNEW 10.0.4) date 2026-07-21 11:09:54*
%MOMM*%
%LPD*%
G01*
G04 APERTURE LIST*
%ADD10R,1.200000X0.900000*%
%ADD11R,1.475000X0.300000*%
%ADD12R,0.300000X1.475000*%
G04 APERTURE END LIST*
D10*
%TO.C,D13*%
X33575000Y-19925000D03*
X33575000Y-16625000D03*
%TD*%
%TO.C,D5*%
X33575000Y-38975000D03*
X33575000Y-35675000D03*
%TD*%
%TO.C,D8*%
X14525000Y-875000D03*
X14525000Y2425000D03*
%TD*%
%TO.C,D3*%
X-4525000Y-38975000D03*
X-4525000Y-35675000D03*
%TD*%
D11*
%TO.C,U3*%
X-22162500Y38250000D03*
X-22162500Y38750000D03*
X-22162500Y39250000D03*
X-22162500Y39750000D03*
X-22162500Y40250000D03*
X-22162500Y40750000D03*
X-22162500Y41250000D03*
X-22162500Y41750000D03*
X-22162500Y42250000D03*
X-22162500Y42750000D03*
X-22162500Y43250000D03*
X-22162500Y43750000D03*
D12*
X-20750000Y45162500D03*
X-20250000Y45162500D03*
X-19750000Y45162500D03*
X-19250000Y45162500D03*
X-18750000Y45162500D03*
X-18250000Y45162500D03*
X-17750000Y45162500D03*
X-17250000Y45162500D03*
X-16750000Y45162500D03*
X-16250000Y45162500D03*
X-15750000Y45162500D03*
X-15250000Y45162500D03*
D11*
X-13837500Y43750000D03*
X-13837500Y43250000D03*
X-13837500Y42750000D03*
X-13837500Y42250000D03*
X-13837500Y41750000D03*
X-13837500Y41250000D03*
X-13837500Y40750000D03*
X-13837500Y40250000D03*
X-13837500Y39750000D03*
X-13837500Y39250000D03*
X-13837500Y38750000D03*
X-13837500Y38250000D03*
D12*
X-15250000Y36837500D03*
X-15750000Y36837500D03*
X-16250000Y36837500D03*
X-16750000Y36837500D03*
X-17250000Y36837500D03*
X-17750000Y36837500D03*
X-18250000Y36837500D03*
X-18750000Y36837500D03*
X-19250000Y36837500D03*
X-19750000Y36837500D03*
X-20250000Y36837500D03*
X-20750000Y36837500D03*
%TD*%
D10*
%TO.C,D9*%
X33575000Y-875000D03*
X33575000Y2425000D03*
%TD*%
%TO.C,D7*%
X-4525000Y-875000D03*
X-4525000Y2425000D03*
%TD*%
%TO.C,D11*%
X-4525000Y-19925000D03*
X-4525000Y-16625000D03*
%TD*%
%TO.C,D12*%
X14525000Y-19925000D03*
X14525000Y-16625000D03*
%TD*%
%TO.C,D10*%
X-23575000Y-19925000D03*
X-23575000Y-16625000D03*
%TD*%
%TO.C,D1*%
X-4525000Y18175000D03*
X-4525000Y21475000D03*
%TD*%
%TO.C,D2*%
X14525000Y18175000D03*
X14525000Y21475000D03*
%TD*%
%TO.C,D6*%
X-23575000Y-875000D03*
X-23575000Y2425000D03*
%TD*%
%TO.C,D4*%
X14525000Y-38975000D03*
X14525000Y-35675000D03*
%TD*%
M02*
