%TF.GenerationSoftware,KiCad,Pcbnew,10.0.4*%
%TF.CreationDate,2026-07-30T09:24:51+08:00*%
%TF.ProjectId,openmicro,6f70656e-6d69-4637-926f-2e6b69636164,rev?*%
%TF.SameCoordinates,Original*%
%TF.FileFunction,Legend,Top*%
%TF.FilePolarity,Positive*%
%FSLAX46Y46*%
G04 Gerber Fmt 4.6, Leading zero omitted, Abs format (unit mm)*
G04 Created by KiCad (PCBNEW 10.0.4) date 2026-07-30 09:24:51*
%MOMM*%
%LPD*%
G01*
G04 APERTURE LIST*
%ADD10C,0.158750*%
%ADD11C,0.250000*%
G04 APERTURE END LIST*
D10*
X13790891Y-205792D02*
X13851368Y-266268D01*
X13851368Y-266268D02*
X13911844Y-447697D01*
X13911844Y-447697D02*
X13911844Y-568649D01*
X13911844Y-568649D02*
X13851368Y-750078D01*
X13851368Y-750078D02*
X13730415Y-871030D01*
X13730415Y-871030D02*
X13609463Y-931507D01*
X13609463Y-931507D02*
X13367558Y-991983D01*
X13367558Y-991983D02*
X13186129Y-991983D01*
X13186129Y-991983D02*
X12944225Y-931507D01*
X12944225Y-931507D02*
X12823272Y-871030D01*
X12823272Y-871030D02*
X12702320Y-750078D01*
X12702320Y-750078D02*
X12641844Y-568649D01*
X12641844Y-568649D02*
X12641844Y-447697D01*
X12641844Y-447697D02*
X12702320Y-266268D01*
X12702320Y-266268D02*
X12762796Y-205792D01*
X13186129Y519921D02*
X13125653Y398969D01*
X13125653Y398969D02*
X13065177Y338492D01*
X13065177Y338492D02*
X12944225Y278016D01*
X12944225Y278016D02*
X12883748Y278016D01*
X12883748Y278016D02*
X12762796Y338492D01*
X12762796Y338492D02*
X12702320Y398969D01*
X12702320Y398969D02*
X12641844Y519921D01*
X12641844Y519921D02*
X12641844Y761826D01*
X12641844Y761826D02*
X12702320Y882778D01*
X12702320Y882778D02*
X12762796Y943254D01*
X12762796Y943254D02*
X12883748Y1003731D01*
X12883748Y1003731D02*
X12944225Y1003731D01*
X12944225Y1003731D02*
X13065177Y943254D01*
X13065177Y943254D02*
X13125653Y882778D01*
X13125653Y882778D02*
X13186129Y761826D01*
X13186129Y761826D02*
X13186129Y519921D01*
X13186129Y519921D02*
X13246606Y398969D01*
X13246606Y398969D02*
X13307082Y338492D01*
X13307082Y338492D02*
X13428034Y278016D01*
X13428034Y278016D02*
X13669939Y278016D01*
X13669939Y278016D02*
X13790891Y338492D01*
X13790891Y338492D02*
X13851368Y398969D01*
X13851368Y398969D02*
X13911844Y519921D01*
X13911844Y519921D02*
X13911844Y761826D01*
X13911844Y761826D02*
X13851368Y882778D01*
X13851368Y882778D02*
X13790891Y943254D01*
X13790891Y943254D02*
X13669939Y1003731D01*
X13669939Y1003731D02*
X13428034Y1003731D01*
X13428034Y1003731D02*
X13307082Y943254D01*
X13307082Y943254D02*
X13246606Y882778D01*
X13246606Y882778D02*
X13186129Y761826D01*
X-577374Y43555027D02*
X-1000708Y44159789D01*
X-1303089Y43555027D02*
X-1303089Y44825027D01*
X-1303089Y44825027D02*
X-819279Y44825027D01*
X-819279Y44825027D02*
X-698327Y44764551D01*
X-698327Y44764551D02*
X-637850Y44704075D01*
X-637850Y44704075D02*
X-577374Y44583123D01*
X-577374Y44583123D02*
X-577374Y44401694D01*
X-577374Y44401694D02*
X-637850Y44280742D01*
X-637850Y44280742D02*
X-698327Y44220265D01*
X-698327Y44220265D02*
X-819279Y44159789D01*
X-819279Y44159789D02*
X-1303089Y44159789D01*
X-93565Y44704075D02*
X-33089Y44764551D01*
X-33089Y44764551D02*
X87863Y44825027D01*
X87863Y44825027D02*
X390244Y44825027D01*
X390244Y44825027D02*
X511196Y44764551D01*
X511196Y44764551D02*
X571672Y44704075D01*
X571672Y44704075D02*
X632149Y44583123D01*
X632149Y44583123D02*
X632149Y44462170D01*
X632149Y44462170D02*
X571672Y44280742D01*
X571672Y44280742D02*
X-154041Y43555027D01*
X-154041Y43555027D02*
X632149Y43555027D01*
X13790891Y-19736535D02*
X13851368Y-19797011D01*
X13851368Y-19797011D02*
X13911844Y-19978440D01*
X13911844Y-19978440D02*
X13911844Y-20099392D01*
X13911844Y-20099392D02*
X13851368Y-20280821D01*
X13851368Y-20280821D02*
X13730415Y-20401773D01*
X13730415Y-20401773D02*
X13609463Y-20462250D01*
X13609463Y-20462250D02*
X13367558Y-20522726D01*
X13367558Y-20522726D02*
X13186129Y-20522726D01*
X13186129Y-20522726D02*
X12944225Y-20462250D01*
X12944225Y-20462250D02*
X12823272Y-20401773D01*
X12823272Y-20401773D02*
X12702320Y-20280821D01*
X12702320Y-20280821D02*
X12641844Y-20099392D01*
X12641844Y-20099392D02*
X12641844Y-19978440D01*
X12641844Y-19978440D02*
X12702320Y-19797011D01*
X12702320Y-19797011D02*
X12762796Y-19736535D01*
X13911844Y-18527011D02*
X13911844Y-19252726D01*
X13911844Y-18889869D02*
X12641844Y-18889869D01*
X12641844Y-18889869D02*
X12823272Y-19010821D01*
X12823272Y-19010821D02*
X12944225Y-19131773D01*
X12944225Y-19131773D02*
X13004701Y-19252726D01*
X12762796Y-18043202D02*
X12702320Y-17982726D01*
X12702320Y-17982726D02*
X12641844Y-17861773D01*
X12641844Y-17861773D02*
X12641844Y-17559392D01*
X12641844Y-17559392D02*
X12702320Y-17438440D01*
X12702320Y-17438440D02*
X12762796Y-17377964D01*
X12762796Y-17377964D02*
X12883748Y-17317487D01*
X12883748Y-17317487D02*
X13004701Y-17317487D01*
X13004701Y-17317487D02*
X13186129Y-17377964D01*
X13186129Y-17377964D02*
X13911844Y-18103678D01*
X13911844Y-18103678D02*
X13911844Y-17317487D01*
X-206281Y40586246D02*
X-629615Y41191008D01*
X-931996Y40586246D02*
X-931996Y41856246D01*
X-931996Y41856246D02*
X-448186Y41856246D01*
X-448186Y41856246D02*
X-327234Y41795770D01*
X-327234Y41795770D02*
X-266757Y41735294D01*
X-266757Y41735294D02*
X-206281Y41614342D01*
X-206281Y41614342D02*
X-206281Y41432913D01*
X-206281Y41432913D02*
X-266757Y41311961D01*
X-266757Y41311961D02*
X-327234Y41251484D01*
X-327234Y41251484D02*
X-448186Y41191008D01*
X-448186Y41191008D02*
X-931996Y41191008D01*
X217051Y41856246D02*
X1003242Y41856246D01*
X1003242Y41856246D02*
X579908Y41372437D01*
X579908Y41372437D02*
X761337Y41372437D01*
X761337Y41372437D02*
X882289Y41311961D01*
X882289Y41311961D02*
X942765Y41251484D01*
X942765Y41251484D02*
X1003242Y41130532D01*
X1003242Y41130532D02*
X1003242Y40828151D01*
X1003242Y40828151D02*
X942765Y40707199D01*
X942765Y40707199D02*
X882289Y40646723D01*
X882289Y40646723D02*
X761337Y40586246D01*
X761337Y40586246D02*
X398480Y40586246D01*
X398480Y40586246D02*
X277527Y40646723D01*
X277527Y40646723D02*
X217051Y40707199D01*
X41532380Y-43079271D02*
X41532380Y-41809271D01*
X41532380Y-42414033D02*
X42258095Y-42414033D01*
X42258095Y-43079271D02*
X42258095Y-41809271D01*
X42741904Y-41809271D02*
X43528095Y-41809271D01*
X43528095Y-41809271D02*
X43104761Y-42293080D01*
X43104761Y-42293080D02*
X43286190Y-42293080D01*
X43286190Y-42293080D02*
X43407142Y-42353556D01*
X43407142Y-42353556D02*
X43467618Y-42414033D01*
X43467618Y-42414033D02*
X43528095Y-42534985D01*
X43528095Y-42534985D02*
X43528095Y-42837366D01*
X43528095Y-42837366D02*
X43467618Y-42958318D01*
X43467618Y-42958318D02*
X43407142Y-43018795D01*
X43407142Y-43018795D02*
X43286190Y-43079271D01*
X43286190Y-43079271D02*
X42923333Y-43079271D01*
X42923333Y-43079271D02*
X42802380Y-43018795D01*
X42802380Y-43018795D02*
X42741904Y-42958318D01*
X-24060671Y-19736535D02*
X-24000195Y-19797011D01*
X-24000195Y-19797011D02*
X-23939718Y-19978440D01*
X-23939718Y-19978440D02*
X-23939718Y-20099392D01*
X-23939718Y-20099392D02*
X-24000195Y-20280821D01*
X-24000195Y-20280821D02*
X-24121147Y-20401773D01*
X-24121147Y-20401773D02*
X-24242099Y-20462250D01*
X-24242099Y-20462250D02*
X-24484004Y-20522726D01*
X-24484004Y-20522726D02*
X-24665433Y-20522726D01*
X-24665433Y-20522726D02*
X-24907337Y-20462250D01*
X-24907337Y-20462250D02*
X-25028290Y-20401773D01*
X-25028290Y-20401773D02*
X-25149242Y-20280821D01*
X-25149242Y-20280821D02*
X-25209718Y-20099392D01*
X-25209718Y-20099392D02*
X-25209718Y-19978440D01*
X-25209718Y-19978440D02*
X-25149242Y-19797011D01*
X-25149242Y-19797011D02*
X-25088766Y-19736535D01*
X-23939718Y-18527011D02*
X-23939718Y-19252726D01*
X-23939718Y-18889869D02*
X-25209718Y-18889869D01*
X-25209718Y-18889869D02*
X-25028290Y-19010821D01*
X-25028290Y-19010821D02*
X-24907337Y-19131773D01*
X-24907337Y-19131773D02*
X-24846861Y-19252726D01*
X-25209718Y-17740821D02*
X-25209718Y-17619868D01*
X-25209718Y-17619868D02*
X-25149242Y-17498916D01*
X-25149242Y-17498916D02*
X-25088766Y-17438440D01*
X-25088766Y-17438440D02*
X-24967814Y-17377964D01*
X-24967814Y-17377964D02*
X-24725909Y-17317487D01*
X-24725909Y-17317487D02*
X-24423528Y-17317487D01*
X-24423528Y-17317487D02*
X-24181623Y-17377964D01*
X-24181623Y-17377964D02*
X-24060671Y-17438440D01*
X-24060671Y-17438440D02*
X-24000195Y-17498916D01*
X-24000195Y-17498916D02*
X-23939718Y-17619868D01*
X-23939718Y-17619868D02*
X-23939718Y-17740821D01*
X-23939718Y-17740821D02*
X-24000195Y-17861773D01*
X-24000195Y-17861773D02*
X-24060671Y-17922249D01*
X-24060671Y-17922249D02*
X-24181623Y-17982726D01*
X-24181623Y-17982726D02*
X-24423528Y-18043202D01*
X-24423528Y-18043202D02*
X-24725909Y-18043202D01*
X-24725909Y-18043202D02*
X-24967814Y-17982726D01*
X-24967814Y-17982726D02*
X-25088766Y-17922249D01*
X-25088766Y-17922249D02*
X-25149242Y-17861773D01*
X-25149242Y-17861773D02*
X-25209718Y-17740821D01*
X-30177618Y-27884271D02*
X-29451904Y-27884271D01*
X-29814761Y-29154271D02*
X-29814761Y-27884271D01*
X-29028571Y-29154271D02*
X-29028571Y-27884271D01*
X-29028571Y-27884271D02*
X-28544761Y-27884271D01*
X-28544761Y-27884271D02*
X-28423809Y-27944747D01*
X-28423809Y-27944747D02*
X-28363332Y-28005223D01*
X-28363332Y-28005223D02*
X-28302856Y-28126175D01*
X-28302856Y-28126175D02*
X-28302856Y-28307604D01*
X-28302856Y-28307604D02*
X-28363332Y-28428556D01*
X-28363332Y-28428556D02*
X-28423809Y-28489033D01*
X-28423809Y-28489033D02*
X-28544761Y-28549509D01*
X-28544761Y-28549509D02*
X-29028571Y-28549509D01*
X-27093332Y-29154271D02*
X-27819047Y-29154271D01*
X-27456190Y-29154271D02*
X-27456190Y-27884271D01*
X-27456190Y-27884271D02*
X-27577142Y-28065699D01*
X-27577142Y-28065699D02*
X-27698094Y-28186652D01*
X-27698094Y-28186652D02*
X-27819047Y-28247128D01*
X-43467619Y-43079271D02*
X-43467619Y-41809271D01*
X-43467619Y-42414033D02*
X-42741904Y-42414033D01*
X-42741904Y-43079271D02*
X-42741904Y-41809271D01*
X-41592857Y-42232604D02*
X-41592857Y-43079271D01*
X-41895238Y-41748795D02*
X-42197619Y-42655937D01*
X-42197619Y-42655937D02*
X-41411428Y-42655937D01*
X-17254190Y-42079271D02*
X-17858952Y-42079271D01*
X-17858952Y-42079271D02*
X-17858952Y-40809271D01*
X-16830857Y-41414033D02*
X-16407523Y-41414033D01*
X-16226095Y-42079271D02*
X-16830857Y-42079271D01*
X-16830857Y-42079271D02*
X-16830857Y-40809271D01*
X-16830857Y-40809271D02*
X-16226095Y-40809271D01*
X-15681809Y-42079271D02*
X-15681809Y-40809271D01*
X-15681809Y-40809271D02*
X-15379428Y-40809271D01*
X-15379428Y-40809271D02*
X-15197999Y-40869747D01*
X-15197999Y-40869747D02*
X-15077047Y-40990699D01*
X-15077047Y-40990699D02*
X-15016570Y-41111652D01*
X-15016570Y-41111652D02*
X-14956094Y-41353556D01*
X-14956094Y-41353556D02*
X-14956094Y-41534985D01*
X-14956094Y-41534985D02*
X-15016570Y-41776890D01*
X-15016570Y-41776890D02*
X-15077047Y-41897842D01*
X-15077047Y-41897842D02*
X-15197999Y-42018795D01*
X-15197999Y-42018795D02*
X-15379428Y-42079271D01*
X-15379428Y-42079271D02*
X-15681809Y-42079271D01*
X-13867523Y-40809271D02*
X-14109428Y-40809271D01*
X-14109428Y-40809271D02*
X-14230380Y-40869747D01*
X-14230380Y-40869747D02*
X-14290856Y-40930223D01*
X-14290856Y-40930223D02*
X-14411809Y-41111652D01*
X-14411809Y-41111652D02*
X-14472285Y-41353556D01*
X-14472285Y-41353556D02*
X-14472285Y-41837366D01*
X-14472285Y-41837366D02*
X-14411809Y-41958318D01*
X-14411809Y-41958318D02*
X-14351332Y-42018795D01*
X-14351332Y-42018795D02*
X-14230380Y-42079271D01*
X-14230380Y-42079271D02*
X-13988475Y-42079271D01*
X-13988475Y-42079271D02*
X-13867523Y-42018795D01*
X-13867523Y-42018795D02*
X-13807047Y-41958318D01*
X-13807047Y-41958318D02*
X-13746570Y-41837366D01*
X-13746570Y-41837366D02*
X-13746570Y-41534985D01*
X-13746570Y-41534985D02*
X-13807047Y-41414033D01*
X-13807047Y-41414033D02*
X-13867523Y-41353556D01*
X-13867523Y-41353556D02*
X-13988475Y-41293080D01*
X-13988475Y-41293080D02*
X-14230380Y-41293080D01*
X-14230380Y-41293080D02*
X-14351332Y-41353556D01*
X-14351332Y-41353556D02*
X-14411809Y-41414033D01*
X-14411809Y-41414033D02*
X-14472285Y-41534985D01*
X47560422Y11064570D02*
X47620899Y11004094D01*
X47620899Y11004094D02*
X47681375Y10822665D01*
X47681375Y10822665D02*
X47681375Y10701713D01*
X47681375Y10701713D02*
X47620899Y10520284D01*
X47620899Y10520284D02*
X47499946Y10399332D01*
X47499946Y10399332D02*
X47378994Y10338855D01*
X47378994Y10338855D02*
X47137089Y10278379D01*
X47137089Y10278379D02*
X46955660Y10278379D01*
X46955660Y10278379D02*
X46713756Y10338855D01*
X46713756Y10338855D02*
X46592803Y10399332D01*
X46592803Y10399332D02*
X46471851Y10520284D01*
X46471851Y10520284D02*
X46411375Y10701713D01*
X46411375Y10701713D02*
X46411375Y10822665D01*
X46411375Y10822665D02*
X46471851Y11004094D01*
X46471851Y11004094D02*
X46532327Y11064570D01*
X47681375Y12274094D02*
X47681375Y11548379D01*
X47681375Y11911236D02*
X46411375Y11911236D01*
X46411375Y11911236D02*
X46592803Y11790284D01*
X46592803Y11790284D02*
X46713756Y11669332D01*
X46713756Y11669332D02*
X46774232Y11548379D01*
X47681375Y12878856D02*
X47681375Y13120760D01*
X47681375Y13120760D02*
X47620899Y13241713D01*
X47620899Y13241713D02*
X47560422Y13302189D01*
X47560422Y13302189D02*
X47378994Y13423141D01*
X47378994Y13423141D02*
X47137089Y13483618D01*
X47137089Y13483618D02*
X46653279Y13483618D01*
X46653279Y13483618D02*
X46532327Y13423141D01*
X46532327Y13423141D02*
X46471851Y13362665D01*
X46471851Y13362665D02*
X46411375Y13241713D01*
X46411375Y13241713D02*
X46411375Y12999808D01*
X46411375Y12999808D02*
X46471851Y12878856D01*
X46471851Y12878856D02*
X46532327Y12818379D01*
X46532327Y12818379D02*
X46653279Y12757903D01*
X46653279Y12757903D02*
X46955660Y12757903D01*
X46955660Y12757903D02*
X47076613Y12818379D01*
X47076613Y12818379D02*
X47137089Y12878856D01*
X47137089Y12878856D02*
X47197565Y12999808D01*
X47197565Y12999808D02*
X47197565Y13241713D01*
X47197565Y13241713D02*
X47137089Y13362665D01*
X47137089Y13362665D02*
X47076613Y13423141D01*
X47076613Y13423141D02*
X46955660Y13483618D01*
X26901667Y18765728D02*
X26901667Y17858585D01*
X26901667Y17858585D02*
X26841190Y17677157D01*
X26841190Y17677157D02*
X26720238Y17556205D01*
X26720238Y17556205D02*
X26538809Y17495728D01*
X26538809Y17495728D02*
X26417857Y17495728D01*
X28171667Y17495728D02*
X27445952Y17495728D01*
X27808809Y17495728D02*
X27808809Y18765728D01*
X27808809Y18765728D02*
X27687857Y18584300D01*
X27687857Y18584300D02*
X27566905Y18463347D01*
X27566905Y18463347D02*
X27445952Y18402871D01*
X7226904Y-10043795D02*
X7408333Y-10104271D01*
X7408333Y-10104271D02*
X7710714Y-10104271D01*
X7710714Y-10104271D02*
X7831666Y-10043795D01*
X7831666Y-10043795D02*
X7892142Y-9983318D01*
X7892142Y-9983318D02*
X7952619Y-9862366D01*
X7952619Y-9862366D02*
X7952619Y-9741414D01*
X7952619Y-9741414D02*
X7892142Y-9620461D01*
X7892142Y-9620461D02*
X7831666Y-9559985D01*
X7831666Y-9559985D02*
X7710714Y-9499509D01*
X7710714Y-9499509D02*
X7468809Y-9439033D01*
X7468809Y-9439033D02*
X7347857Y-9378556D01*
X7347857Y-9378556D02*
X7287380Y-9318080D01*
X7287380Y-9318080D02*
X7226904Y-9197128D01*
X7226904Y-9197128D02*
X7226904Y-9076175D01*
X7226904Y-9076175D02*
X7287380Y-8955223D01*
X7287380Y-8955223D02*
X7347857Y-8894747D01*
X7347857Y-8894747D02*
X7468809Y-8834271D01*
X7468809Y-8834271D02*
X7771190Y-8834271D01*
X7771190Y-8834271D02*
X7952619Y-8894747D01*
X8375952Y-8834271D02*
X8678333Y-10104271D01*
X8678333Y-10104271D02*
X8920238Y-9197128D01*
X8920238Y-9197128D02*
X9162143Y-10104271D01*
X9162143Y-10104271D02*
X9464524Y-8834271D01*
X10613572Y-10104271D02*
X9887857Y-10104271D01*
X10250714Y-10104271D02*
X10250714Y-8834271D01*
X10250714Y-8834271D02*
X10129762Y-9015699D01*
X10129762Y-9015699D02*
X10008810Y-9136652D01*
X10008810Y-9136652D02*
X9887857Y-9197128D01*
X11702143Y-9257604D02*
X11702143Y-10104271D01*
X11399762Y-8773795D02*
X11097381Y-9680937D01*
X11097381Y-9680937D02*
X11883572Y-9680937D01*
X-5134889Y-19736535D02*
X-5074413Y-19797011D01*
X-5074413Y-19797011D02*
X-5013936Y-19978440D01*
X-5013936Y-19978440D02*
X-5013936Y-20099392D01*
X-5013936Y-20099392D02*
X-5074413Y-20280821D01*
X-5074413Y-20280821D02*
X-5195365Y-20401773D01*
X-5195365Y-20401773D02*
X-5316317Y-20462250D01*
X-5316317Y-20462250D02*
X-5558222Y-20522726D01*
X-5558222Y-20522726D02*
X-5739651Y-20522726D01*
X-5739651Y-20522726D02*
X-5981555Y-20462250D01*
X-5981555Y-20462250D02*
X-6102508Y-20401773D01*
X-6102508Y-20401773D02*
X-6223460Y-20280821D01*
X-6223460Y-20280821D02*
X-6283936Y-20099392D01*
X-6283936Y-20099392D02*
X-6283936Y-19978440D01*
X-6283936Y-19978440D02*
X-6223460Y-19797011D01*
X-6223460Y-19797011D02*
X-6162984Y-19736535D01*
X-5013936Y-18527011D02*
X-5013936Y-19252726D01*
X-5013936Y-18889869D02*
X-6283936Y-18889869D01*
X-6283936Y-18889869D02*
X-6102508Y-19010821D01*
X-6102508Y-19010821D02*
X-5981555Y-19131773D01*
X-5981555Y-19131773D02*
X-5921079Y-19252726D01*
X-5013936Y-17317487D02*
X-5013936Y-18043202D01*
X-5013936Y-17680345D02*
X-6283936Y-17680345D01*
X-6283936Y-17680345D02*
X-6102508Y-17801297D01*
X-6102508Y-17801297D02*
X-5981555Y-17922249D01*
X-5981555Y-17922249D02*
X-5921079Y-18043202D01*
X32716672Y-19736535D02*
X32777149Y-19797011D01*
X32777149Y-19797011D02*
X32837625Y-19978440D01*
X32837625Y-19978440D02*
X32837625Y-20099392D01*
X32837625Y-20099392D02*
X32777149Y-20280821D01*
X32777149Y-20280821D02*
X32656196Y-20401773D01*
X32656196Y-20401773D02*
X32535244Y-20462250D01*
X32535244Y-20462250D02*
X32293339Y-20522726D01*
X32293339Y-20522726D02*
X32111910Y-20522726D01*
X32111910Y-20522726D02*
X31870006Y-20462250D01*
X31870006Y-20462250D02*
X31749053Y-20401773D01*
X31749053Y-20401773D02*
X31628101Y-20280821D01*
X31628101Y-20280821D02*
X31567625Y-20099392D01*
X31567625Y-20099392D02*
X31567625Y-19978440D01*
X31567625Y-19978440D02*
X31628101Y-19797011D01*
X31628101Y-19797011D02*
X31688577Y-19736535D01*
X32837625Y-18527011D02*
X32837625Y-19252726D01*
X32837625Y-18889869D02*
X31567625Y-18889869D01*
X31567625Y-18889869D02*
X31749053Y-19010821D01*
X31749053Y-19010821D02*
X31870006Y-19131773D01*
X31870006Y-19131773D02*
X31930482Y-19252726D01*
X31567625Y-18103678D02*
X31567625Y-17317487D01*
X31567625Y-17317487D02*
X32051434Y-17740821D01*
X32051434Y-17740821D02*
X32051434Y-17559392D01*
X32051434Y-17559392D02*
X32111910Y-17438440D01*
X32111910Y-17438440D02*
X32172387Y-17377964D01*
X32172387Y-17377964D02*
X32293339Y-17317487D01*
X32293339Y-17317487D02*
X32595720Y-17317487D01*
X32595720Y-17317487D02*
X32716672Y-17377964D01*
X32716672Y-17377964D02*
X32777149Y-17438440D01*
X32777149Y-17438440D02*
X32837625Y-17559392D01*
X32837625Y-17559392D02*
X32837625Y-17922249D01*
X32837625Y-17922249D02*
X32777149Y-18043202D01*
X32777149Y-18043202D02*
X32716672Y-18103678D01*
X7831666Y-29093795D02*
X8013095Y-29154271D01*
X8013095Y-29154271D02*
X8315476Y-29154271D01*
X8315476Y-29154271D02*
X8436428Y-29093795D01*
X8436428Y-29093795D02*
X8496904Y-29033318D01*
X8496904Y-29033318D02*
X8557381Y-28912366D01*
X8557381Y-28912366D02*
X8557381Y-28791414D01*
X8557381Y-28791414D02*
X8496904Y-28670461D01*
X8496904Y-28670461D02*
X8436428Y-28609985D01*
X8436428Y-28609985D02*
X8315476Y-28549509D01*
X8315476Y-28549509D02*
X8073571Y-28489033D01*
X8073571Y-28489033D02*
X7952619Y-28428556D01*
X7952619Y-28428556D02*
X7892142Y-28368080D01*
X7892142Y-28368080D02*
X7831666Y-28247128D01*
X7831666Y-28247128D02*
X7831666Y-28126175D01*
X7831666Y-28126175D02*
X7892142Y-28005223D01*
X7892142Y-28005223D02*
X7952619Y-27944747D01*
X7952619Y-27944747D02*
X8073571Y-27884271D01*
X8073571Y-27884271D02*
X8375952Y-27884271D01*
X8375952Y-27884271D02*
X8557381Y-27944747D01*
X8980714Y-27884271D02*
X9283095Y-29154271D01*
X9283095Y-29154271D02*
X9525000Y-28247128D01*
X9525000Y-28247128D02*
X9766905Y-29154271D01*
X9766905Y-29154271D02*
X10069286Y-27884271D01*
X11097381Y-27884271D02*
X10855476Y-27884271D01*
X10855476Y-27884271D02*
X10734524Y-27944747D01*
X10734524Y-27944747D02*
X10674048Y-28005223D01*
X10674048Y-28005223D02*
X10553095Y-28186652D01*
X10553095Y-28186652D02*
X10492619Y-28428556D01*
X10492619Y-28428556D02*
X10492619Y-28912366D01*
X10492619Y-28912366D02*
X10553095Y-29033318D01*
X10553095Y-29033318D02*
X10613572Y-29093795D01*
X10613572Y-29093795D02*
X10734524Y-29154271D01*
X10734524Y-29154271D02*
X10976429Y-29154271D01*
X10976429Y-29154271D02*
X11097381Y-29093795D01*
X11097381Y-29093795D02*
X11157857Y-29033318D01*
X11157857Y-29033318D02*
X11218334Y-28912366D01*
X11218334Y-28912366D02*
X11218334Y-28609985D01*
X11218334Y-28609985D02*
X11157857Y-28489033D01*
X11157857Y-28489033D02*
X11097381Y-28428556D01*
X11097381Y-28428556D02*
X10976429Y-28368080D01*
X10976429Y-28368080D02*
X10734524Y-28368080D01*
X10734524Y-28368080D02*
X10613572Y-28428556D01*
X10613572Y-28428556D02*
X10553095Y-28489033D01*
X10553095Y-28489033D02*
X10492619Y-28609985D01*
X-17254190Y40920728D02*
X-17858952Y40920728D01*
X-17858952Y40920728D02*
X-17858952Y42190728D01*
X-16830857Y41585966D02*
X-16407523Y41585966D01*
X-16226095Y40920728D02*
X-16830857Y40920728D01*
X-16830857Y40920728D02*
X-16830857Y42190728D01*
X-16830857Y42190728D02*
X-16226095Y42190728D01*
X-15681809Y40920728D02*
X-15681809Y42190728D01*
X-15681809Y42190728D02*
X-15379428Y42190728D01*
X-15379428Y42190728D02*
X-15197999Y42130252D01*
X-15197999Y42130252D02*
X-15077047Y42009300D01*
X-15077047Y42009300D02*
X-15016570Y41888347D01*
X-15016570Y41888347D02*
X-14956094Y41646443D01*
X-14956094Y41646443D02*
X-14956094Y41465014D01*
X-14956094Y41465014D02*
X-15016570Y41223109D01*
X-15016570Y41223109D02*
X-15077047Y41102157D01*
X-15077047Y41102157D02*
X-15197999Y40981205D01*
X-15197999Y40981205D02*
X-15379428Y40920728D01*
X-15379428Y40920728D02*
X-15681809Y40920728D01*
X-13746570Y40920728D02*
X-14472285Y40920728D01*
X-14109428Y40920728D02*
X-14109428Y42190728D01*
X-14109428Y42190728D02*
X-14230380Y42009300D01*
X-14230380Y42009300D02*
X-14351332Y41888347D01*
X-14351332Y41888347D02*
X-14472285Y41827871D01*
X-24727089Y-21463311D02*
X-23698994Y-21463311D01*
X-23698994Y-21463311D02*
X-23578042Y-21402834D01*
X-23578042Y-21402834D02*
X-23517566Y-21342358D01*
X-23517566Y-21342358D02*
X-23457089Y-21221406D01*
X-23457089Y-21221406D02*
X-23457089Y-20979501D01*
X-23457089Y-20979501D02*
X-23517566Y-20858549D01*
X-23517566Y-20858549D02*
X-23578042Y-20798072D01*
X-23578042Y-20798072D02*
X-23698994Y-20737596D01*
X-23698994Y-20737596D02*
X-24727089Y-20737596D01*
X-24606137Y-20193311D02*
X-24666613Y-20132835D01*
X-24666613Y-20132835D02*
X-24727089Y-20011882D01*
X-24727089Y-20011882D02*
X-24727089Y-19709501D01*
X-24727089Y-19709501D02*
X-24666613Y-19588549D01*
X-24666613Y-19588549D02*
X-24606137Y-19528073D01*
X-24606137Y-19528073D02*
X-24485185Y-19467596D01*
X-24485185Y-19467596D02*
X-24364232Y-19467596D01*
X-24364232Y-19467596D02*
X-24182804Y-19528073D01*
X-24182804Y-19528073D02*
X-23457089Y-20253787D01*
X-23457089Y-20253787D02*
X-23457089Y-19467596D01*
X-40920728Y14411809D02*
X-40920728Y13807047D01*
X-40920728Y13807047D02*
X-42190728Y13807047D01*
X-41585966Y14835142D02*
X-41585966Y15258476D01*
X-40920728Y15439904D02*
X-40920728Y14835142D01*
X-40920728Y14835142D02*
X-42190728Y14835142D01*
X-42190728Y14835142D02*
X-42190728Y15439904D01*
X-40920728Y15984190D02*
X-42190728Y15984190D01*
X-42190728Y15984190D02*
X-42190728Y16286571D01*
X-42190728Y16286571D02*
X-42130252Y16468000D01*
X-42130252Y16468000D02*
X-42009300Y16588952D01*
X-42009300Y16588952D02*
X-41888347Y16649429D01*
X-41888347Y16649429D02*
X-41646443Y16709905D01*
X-41646443Y16709905D02*
X-41465014Y16709905D01*
X-41465014Y16709905D02*
X-41223109Y16649429D01*
X-41223109Y16649429D02*
X-41102157Y16588952D01*
X-41102157Y16588952D02*
X-40981205Y16468000D01*
X-40981205Y16468000D02*
X-40920728Y16286571D01*
X-40920728Y16286571D02*
X-40920728Y15984190D01*
X-41646443Y17435619D02*
X-41706919Y17314667D01*
X-41706919Y17314667D02*
X-41767395Y17254190D01*
X-41767395Y17254190D02*
X-41888347Y17193714D01*
X-41888347Y17193714D02*
X-41948824Y17193714D01*
X-41948824Y17193714D02*
X-42069776Y17254190D01*
X-42069776Y17254190D02*
X-42130252Y17314667D01*
X-42130252Y17314667D02*
X-42190728Y17435619D01*
X-42190728Y17435619D02*
X-42190728Y17677524D01*
X-42190728Y17677524D02*
X-42130252Y17798476D01*
X-42130252Y17798476D02*
X-42069776Y17858952D01*
X-42069776Y17858952D02*
X-41948824Y17919429D01*
X-41948824Y17919429D02*
X-41888347Y17919429D01*
X-41888347Y17919429D02*
X-41767395Y17858952D01*
X-41767395Y17858952D02*
X-41706919Y17798476D01*
X-41706919Y17798476D02*
X-41646443Y17677524D01*
X-41646443Y17677524D02*
X-41646443Y17435619D01*
X-41646443Y17435619D02*
X-41585966Y17314667D01*
X-41585966Y17314667D02*
X-41525490Y17254190D01*
X-41525490Y17254190D02*
X-41404538Y17193714D01*
X-41404538Y17193714D02*
X-41162633Y17193714D01*
X-41162633Y17193714D02*
X-41041681Y17254190D01*
X-41041681Y17254190D02*
X-40981205Y17314667D01*
X-40981205Y17314667D02*
X-40920728Y17435619D01*
X-40920728Y17435619D02*
X-40920728Y17677524D01*
X-40920728Y17677524D02*
X-40981205Y17798476D01*
X-40981205Y17798476D02*
X-41041681Y17858952D01*
X-41041681Y17858952D02*
X-41162633Y17919429D01*
X-41162633Y17919429D02*
X-41404538Y17919429D01*
X-41404538Y17919429D02*
X-41525490Y17858952D01*
X-41525490Y17858952D02*
X-41585966Y17798476D01*
X-41585966Y17798476D02*
X-41646443Y17677524D01*
X13790891Y-38428851D02*
X13851368Y-38489327D01*
X13851368Y-38489327D02*
X13911844Y-38670756D01*
X13911844Y-38670756D02*
X13911844Y-38791708D01*
X13911844Y-38791708D02*
X13851368Y-38973137D01*
X13851368Y-38973137D02*
X13730415Y-39094089D01*
X13730415Y-39094089D02*
X13609463Y-39154566D01*
X13609463Y-39154566D02*
X13367558Y-39215042D01*
X13367558Y-39215042D02*
X13186129Y-39215042D01*
X13186129Y-39215042D02*
X12944225Y-39154566D01*
X12944225Y-39154566D02*
X12823272Y-39094089D01*
X12823272Y-39094089D02*
X12702320Y-38973137D01*
X12702320Y-38973137D02*
X12641844Y-38791708D01*
X12641844Y-38791708D02*
X12641844Y-38670756D01*
X12641844Y-38670756D02*
X12702320Y-38489327D01*
X12702320Y-38489327D02*
X12762796Y-38428851D01*
X13065177Y-37340280D02*
X13911844Y-37340280D01*
X12581368Y-37642661D02*
X13488510Y-37945042D01*
X13488510Y-37945042D02*
X13488510Y-37158851D01*
X-11218333Y28056205D02*
X-11036904Y27995728D01*
X-11036904Y27995728D02*
X-10734523Y27995728D01*
X-10734523Y27995728D02*
X-10613571Y28056205D01*
X-10613571Y28056205D02*
X-10553095Y28116681D01*
X-10553095Y28116681D02*
X-10492618Y28237633D01*
X-10492618Y28237633D02*
X-10492618Y28358585D01*
X-10492618Y28358585D02*
X-10553095Y28479538D01*
X-10553095Y28479538D02*
X-10613571Y28540014D01*
X-10613571Y28540014D02*
X-10734523Y28600490D01*
X-10734523Y28600490D02*
X-10976428Y28660966D01*
X-10976428Y28660966D02*
X-11097380Y28721443D01*
X-11097380Y28721443D02*
X-11157857Y28781919D01*
X-11157857Y28781919D02*
X-11218333Y28902871D01*
X-11218333Y28902871D02*
X-11218333Y29023824D01*
X-11218333Y29023824D02*
X-11157857Y29144776D01*
X-11157857Y29144776D02*
X-11097380Y29205252D01*
X-11097380Y29205252D02*
X-10976428Y29265728D01*
X-10976428Y29265728D02*
X-10674047Y29265728D01*
X-10674047Y29265728D02*
X-10492618Y29205252D01*
X-10069285Y29265728D02*
X-9766904Y27995728D01*
X-9766904Y27995728D02*
X-9524999Y28902871D01*
X-9524999Y28902871D02*
X-9283094Y27995728D01*
X-9283094Y27995728D02*
X-8980714Y29265728D01*
X-8617856Y29265728D02*
X-7831665Y29265728D01*
X-7831665Y29265728D02*
X-8254999Y28781919D01*
X-8254999Y28781919D02*
X-8073570Y28781919D01*
X-8073570Y28781919D02*
X-7952618Y28721443D01*
X-7952618Y28721443D02*
X-7892142Y28660966D01*
X-7892142Y28660966D02*
X-7831665Y28540014D01*
X-7831665Y28540014D02*
X-7831665Y28237633D01*
X-7831665Y28237633D02*
X-7892142Y28116681D01*
X-7892142Y28116681D02*
X-7952618Y28056205D01*
X-7952618Y28056205D02*
X-8073570Y27995728D01*
X-8073570Y27995728D02*
X-8436427Y27995728D01*
X-8436427Y27995728D02*
X-8557380Y28056205D01*
X-8557380Y28056205D02*
X-8617856Y28116681D01*
X-39646608Y-29385074D02*
X-39586132Y-29445550D01*
X-39586132Y-29445550D02*
X-39525655Y-29626979D01*
X-39525655Y-29626979D02*
X-39525655Y-29747931D01*
X-39525655Y-29747931D02*
X-39586132Y-29929360D01*
X-39586132Y-29929360D02*
X-39707084Y-30050312D01*
X-39707084Y-30050312D02*
X-39828036Y-30110789D01*
X-39828036Y-30110789D02*
X-40069941Y-30171265D01*
X-40069941Y-30171265D02*
X-40251370Y-30171265D01*
X-40251370Y-30171265D02*
X-40493274Y-30110789D01*
X-40493274Y-30110789D02*
X-40614227Y-30050312D01*
X-40614227Y-30050312D02*
X-40735179Y-29929360D01*
X-40735179Y-29929360D02*
X-40795655Y-29747931D01*
X-40795655Y-29747931D02*
X-40795655Y-29626979D01*
X-40795655Y-29626979D02*
X-40735179Y-29445550D01*
X-40735179Y-29445550D02*
X-40674703Y-29385074D01*
X-40674703Y-28901265D02*
X-40735179Y-28840789D01*
X-40735179Y-28840789D02*
X-40795655Y-28719836D01*
X-40795655Y-28719836D02*
X-40795655Y-28417455D01*
X-40795655Y-28417455D02*
X-40735179Y-28296503D01*
X-40735179Y-28296503D02*
X-40674703Y-28236027D01*
X-40674703Y-28236027D02*
X-40553751Y-28175550D01*
X-40553751Y-28175550D02*
X-40432798Y-28175550D01*
X-40432798Y-28175550D02*
X-40251370Y-28236027D01*
X-40251370Y-28236027D02*
X-39525655Y-28961741D01*
X-39525655Y-28961741D02*
X-39525655Y-28175550D01*
X-40795655Y-27752217D02*
X-40795655Y-26905550D01*
X-40795655Y-26905550D02*
X-39525655Y-27449836D01*
X26276904Y-10043795D02*
X26458333Y-10104271D01*
X26458333Y-10104271D02*
X26760714Y-10104271D01*
X26760714Y-10104271D02*
X26881666Y-10043795D01*
X26881666Y-10043795D02*
X26942142Y-9983318D01*
X26942142Y-9983318D02*
X27002619Y-9862366D01*
X27002619Y-9862366D02*
X27002619Y-9741414D01*
X27002619Y-9741414D02*
X26942142Y-9620461D01*
X26942142Y-9620461D02*
X26881666Y-9559985D01*
X26881666Y-9559985D02*
X26760714Y-9499509D01*
X26760714Y-9499509D02*
X26518809Y-9439033D01*
X26518809Y-9439033D02*
X26397857Y-9378556D01*
X26397857Y-9378556D02*
X26337380Y-9318080D01*
X26337380Y-9318080D02*
X26276904Y-9197128D01*
X26276904Y-9197128D02*
X26276904Y-9076175D01*
X26276904Y-9076175D02*
X26337380Y-8955223D01*
X26337380Y-8955223D02*
X26397857Y-8894747D01*
X26397857Y-8894747D02*
X26518809Y-8834271D01*
X26518809Y-8834271D02*
X26821190Y-8834271D01*
X26821190Y-8834271D02*
X27002619Y-8894747D01*
X27425952Y-8834271D02*
X27728333Y-10104271D01*
X27728333Y-10104271D02*
X27970238Y-9197128D01*
X27970238Y-9197128D02*
X28212143Y-10104271D01*
X28212143Y-10104271D02*
X28514524Y-8834271D01*
X29663572Y-10104271D02*
X28937857Y-10104271D01*
X29300714Y-10104271D02*
X29300714Y-8834271D01*
X29300714Y-8834271D02*
X29179762Y-9015699D01*
X29179762Y-9015699D02*
X29058810Y-9136652D01*
X29058810Y-9136652D02*
X28937857Y-9197128D01*
X30812619Y-8834271D02*
X30207857Y-8834271D01*
X30207857Y-8834271D02*
X30147381Y-9439033D01*
X30147381Y-9439033D02*
X30207857Y-9378556D01*
X30207857Y-9378556D02*
X30328810Y-9318080D01*
X30328810Y-9318080D02*
X30631191Y-9318080D01*
X30631191Y-9318080D02*
X30752143Y-9378556D01*
X30752143Y-9378556D02*
X30812619Y-9439033D01*
X30812619Y-9439033D02*
X30873096Y-9559985D01*
X30873096Y-9559985D02*
X30873096Y-9862366D01*
X30873096Y-9862366D02*
X30812619Y-9983318D01*
X30812619Y-9983318D02*
X30752143Y-10043795D01*
X30752143Y-10043795D02*
X30631191Y-10104271D01*
X30631191Y-10104271D02*
X30328810Y-10104271D01*
X30328810Y-10104271D02*
X30207857Y-10043795D01*
X30207857Y-10043795D02*
X30147381Y-9983318D01*
X-46810827Y-13056777D02*
X-46750351Y-13117253D01*
X-46750351Y-13117253D02*
X-46689874Y-13298682D01*
X-46689874Y-13298682D02*
X-46689874Y-13419634D01*
X-46689874Y-13419634D02*
X-46750351Y-13601063D01*
X-46750351Y-13601063D02*
X-46871303Y-13722015D01*
X-46871303Y-13722015D02*
X-46992255Y-13782492D01*
X-46992255Y-13782492D02*
X-47234160Y-13842968D01*
X-47234160Y-13842968D02*
X-47415589Y-13842968D01*
X-47415589Y-13842968D02*
X-47657493Y-13782492D01*
X-47657493Y-13782492D02*
X-47778446Y-13722015D01*
X-47778446Y-13722015D02*
X-47899398Y-13601063D01*
X-47899398Y-13601063D02*
X-47959874Y-13419634D01*
X-47959874Y-13419634D02*
X-47959874Y-13298682D01*
X-47959874Y-13298682D02*
X-47899398Y-13117253D01*
X-47899398Y-13117253D02*
X-47838922Y-13056777D01*
X-47838922Y-12572968D02*
X-47899398Y-12512492D01*
X-47899398Y-12512492D02*
X-47959874Y-12391539D01*
X-47959874Y-12391539D02*
X-47959874Y-12089158D01*
X-47959874Y-12089158D02*
X-47899398Y-11968206D01*
X-47899398Y-11968206D02*
X-47838922Y-11907730D01*
X-47838922Y-11907730D02*
X-47717970Y-11847253D01*
X-47717970Y-11847253D02*
X-47597017Y-11847253D01*
X-47597017Y-11847253D02*
X-47415589Y-11907730D01*
X-47415589Y-11907730D02*
X-46689874Y-12633444D01*
X-46689874Y-12633444D02*
X-46689874Y-11847253D01*
X-46689874Y-10637729D02*
X-46689874Y-11363444D01*
X-46689874Y-11000587D02*
X-47959874Y-11000587D01*
X-47959874Y-11000587D02*
X-47778446Y-11121539D01*
X-47778446Y-11121539D02*
X-47657493Y-11242491D01*
X-47657493Y-11242491D02*
X-47597017Y-11363444D01*
X-1182136Y39851590D02*
X-1242612Y39791114D01*
X-1242612Y39791114D02*
X-1424041Y39730637D01*
X-1424041Y39730637D02*
X-1544993Y39730637D01*
X-1544993Y39730637D02*
X-1726422Y39791114D01*
X-1726422Y39791114D02*
X-1847374Y39912066D01*
X-1847374Y39912066D02*
X-1907851Y40033018D01*
X-1907851Y40033018D02*
X-1968327Y40274923D01*
X-1968327Y40274923D02*
X-1968327Y40456352D01*
X-1968327Y40456352D02*
X-1907851Y40698256D01*
X-1907851Y40698256D02*
X-1847374Y40819209D01*
X-1847374Y40819209D02*
X-1726422Y40940161D01*
X-1726422Y40940161D02*
X-1544993Y41000637D01*
X-1544993Y41000637D02*
X-1424041Y41000637D01*
X-1424041Y41000637D02*
X-1242612Y40940161D01*
X-1242612Y40940161D02*
X-1182136Y40879685D01*
X27387Y39730637D02*
X-698327Y39730637D01*
X-335470Y39730637D02*
X-335470Y41000637D01*
X-335470Y41000637D02*
X-456422Y40819209D01*
X-456422Y40819209D02*
X-577374Y40698256D01*
X-577374Y40698256D02*
X-698327Y40637780D01*
X1115958Y40577304D02*
X1115958Y39730637D01*
X813577Y41061114D02*
X511196Y40153971D01*
X511196Y40153971D02*
X1297387Y40153971D01*
X14411809Y-42079271D02*
X13807047Y-42079271D01*
X13807047Y-42079271D02*
X13807047Y-40809271D01*
X14835142Y-41414033D02*
X15258476Y-41414033D01*
X15439904Y-42079271D02*
X14835142Y-42079271D01*
X14835142Y-42079271D02*
X14835142Y-40809271D01*
X14835142Y-40809271D02*
X15439904Y-40809271D01*
X15984190Y-42079271D02*
X15984190Y-40809271D01*
X15984190Y-40809271D02*
X16286571Y-40809271D01*
X16286571Y-40809271D02*
X16468000Y-40869747D01*
X16468000Y-40869747D02*
X16588952Y-40990699D01*
X16588952Y-40990699D02*
X16649429Y-41111652D01*
X16649429Y-41111652D02*
X16709905Y-41353556D01*
X16709905Y-41353556D02*
X16709905Y-41534985D01*
X16709905Y-41534985D02*
X16649429Y-41776890D01*
X16649429Y-41776890D02*
X16588952Y-41897842D01*
X16588952Y-41897842D02*
X16468000Y-42018795D01*
X16468000Y-42018795D02*
X16286571Y-42079271D01*
X16286571Y-42079271D02*
X15984190Y-42079271D01*
X17858952Y-40809271D02*
X17254190Y-40809271D01*
X17254190Y-40809271D02*
X17193714Y-41414033D01*
X17193714Y-41414033D02*
X17254190Y-41353556D01*
X17254190Y-41353556D02*
X17375143Y-41293080D01*
X17375143Y-41293080D02*
X17677524Y-41293080D01*
X17677524Y-41293080D02*
X17798476Y-41353556D01*
X17798476Y-41353556D02*
X17858952Y-41414033D01*
X17858952Y-41414033D02*
X17919429Y-41534985D01*
X17919429Y-41534985D02*
X17919429Y-41837366D01*
X17919429Y-41837366D02*
X17858952Y-41958318D01*
X17858952Y-41958318D02*
X17798476Y-42018795D01*
X17798476Y-42018795D02*
X17677524Y-42079271D01*
X17677524Y-42079271D02*
X17375143Y-42079271D01*
X17375143Y-42079271D02*
X17254190Y-42018795D01*
X17254190Y-42018795D02*
X17193714Y-41958318D01*
X-13057136Y46644762D02*
X-13117612Y46584286D01*
X-13117612Y46584286D02*
X-13299041Y46523809D01*
X-13299041Y46523809D02*
X-13419993Y46523809D01*
X-13419993Y46523809D02*
X-13601422Y46584286D01*
X-13601422Y46584286D02*
X-13722374Y46705238D01*
X-13722374Y46705238D02*
X-13782851Y46826190D01*
X-13782851Y46826190D02*
X-13843327Y47068095D01*
X-13843327Y47068095D02*
X-13843327Y47249524D01*
X-13843327Y47249524D02*
X-13782851Y47491428D01*
X-13782851Y47491428D02*
X-13722374Y47612381D01*
X-13722374Y47612381D02*
X-13601422Y47733333D01*
X-13601422Y47733333D02*
X-13419993Y47793809D01*
X-13419993Y47793809D02*
X-13299041Y47793809D01*
X-13299041Y47793809D02*
X-13117612Y47733333D01*
X-13117612Y47733333D02*
X-13057136Y47672857D01*
X-11847612Y46523809D02*
X-12573327Y46523809D01*
X-12210470Y46523809D02*
X-12210470Y47793809D01*
X-12210470Y47793809D02*
X-12331422Y47612381D01*
X-12331422Y47612381D02*
X-12452374Y47491428D01*
X-12452374Y47491428D02*
X-12573327Y47430952D01*
X-11121898Y47249524D02*
X-11242850Y47310000D01*
X-11242850Y47310000D02*
X-11303327Y47370476D01*
X-11303327Y47370476D02*
X-11363803Y47491428D01*
X-11363803Y47491428D02*
X-11363803Y47551905D01*
X-11363803Y47551905D02*
X-11303327Y47672857D01*
X-11303327Y47672857D02*
X-11242850Y47733333D01*
X-11242850Y47733333D02*
X-11121898Y47793809D01*
X-11121898Y47793809D02*
X-10879993Y47793809D01*
X-10879993Y47793809D02*
X-10759041Y47733333D01*
X-10759041Y47733333D02*
X-10698565Y47672857D01*
X-10698565Y47672857D02*
X-10638088Y47551905D01*
X-10638088Y47551905D02*
X-10638088Y47491428D01*
X-10638088Y47491428D02*
X-10698565Y47370476D01*
X-10698565Y47370476D02*
X-10759041Y47310000D01*
X-10759041Y47310000D02*
X-10879993Y47249524D01*
X-10879993Y47249524D02*
X-11121898Y47249524D01*
X-11121898Y47249524D02*
X-11242850Y47189047D01*
X-11242850Y47189047D02*
X-11303327Y47128571D01*
X-11303327Y47128571D02*
X-11363803Y47007619D01*
X-11363803Y47007619D02*
X-11363803Y46765714D01*
X-11363803Y46765714D02*
X-11303327Y46644762D01*
X-11303327Y46644762D02*
X-11242850Y46584286D01*
X-11242850Y46584286D02*
X-11121898Y46523809D01*
X-11121898Y46523809D02*
X-10879993Y46523809D01*
X-10879993Y46523809D02*
X-10759041Y46584286D01*
X-10759041Y46584286D02*
X-10698565Y46644762D01*
X-10698565Y46644762D02*
X-10638088Y46765714D01*
X-10638088Y46765714D02*
X-10638088Y47007619D01*
X-10638088Y47007619D02*
X-10698565Y47128571D01*
X-10698565Y47128571D02*
X-10759041Y47189047D01*
X-10759041Y47189047D02*
X-10879993Y47249524D01*
X-38057843Y-24726940D02*
X-38481177Y-24122178D01*
X-38783558Y-24726940D02*
X-38783558Y-23456940D01*
X-38783558Y-23456940D02*
X-38299748Y-23456940D01*
X-38299748Y-23456940D02*
X-38178796Y-23517416D01*
X-38178796Y-23517416D02*
X-38118319Y-23577892D01*
X-38118319Y-23577892D02*
X-38057843Y-23698844D01*
X-38057843Y-23698844D02*
X-38057843Y-23880273D01*
X-38057843Y-23880273D02*
X-38118319Y-24001225D01*
X-38118319Y-24001225D02*
X-38178796Y-24061702D01*
X-38178796Y-24061702D02*
X-38299748Y-24122178D01*
X-38299748Y-24122178D02*
X-38783558Y-24122178D01*
X-36848319Y-24726940D02*
X-37574034Y-24726940D01*
X-37211177Y-24726940D02*
X-37211177Y-23456940D01*
X-37211177Y-23456940D02*
X-37332129Y-23638368D01*
X-37332129Y-23638368D02*
X-37453081Y-23759321D01*
X-37453081Y-23759321D02*
X-37574034Y-23819797D01*
X32716672Y-205792D02*
X32777149Y-266268D01*
X32777149Y-266268D02*
X32837625Y-447697D01*
X32837625Y-447697D02*
X32837625Y-568649D01*
X32837625Y-568649D02*
X32777149Y-750078D01*
X32777149Y-750078D02*
X32656196Y-871030D01*
X32656196Y-871030D02*
X32535244Y-931507D01*
X32535244Y-931507D02*
X32293339Y-991983D01*
X32293339Y-991983D02*
X32111910Y-991983D01*
X32111910Y-991983D02*
X31870006Y-931507D01*
X31870006Y-931507D02*
X31749053Y-871030D01*
X31749053Y-871030D02*
X31628101Y-750078D01*
X31628101Y-750078D02*
X31567625Y-568649D01*
X31567625Y-568649D02*
X31567625Y-447697D01*
X31567625Y-447697D02*
X31628101Y-266268D01*
X31628101Y-266268D02*
X31688577Y-205792D01*
X32837625Y398969D02*
X32837625Y640873D01*
X32837625Y640873D02*
X32777149Y761826D01*
X32777149Y761826D02*
X32716672Y822302D01*
X32716672Y822302D02*
X32535244Y943254D01*
X32535244Y943254D02*
X32293339Y1003731D01*
X32293339Y1003731D02*
X31809529Y1003731D01*
X31809529Y1003731D02*
X31688577Y943254D01*
X31688577Y943254D02*
X31628101Y882778D01*
X31628101Y882778D02*
X31567625Y761826D01*
X31567625Y761826D02*
X31567625Y519921D01*
X31567625Y519921D02*
X31628101Y398969D01*
X31628101Y398969D02*
X31688577Y338492D01*
X31688577Y338492D02*
X31809529Y278016D01*
X31809529Y278016D02*
X32111910Y278016D01*
X32111910Y278016D02*
X32232863Y338492D01*
X32232863Y338492D02*
X32293339Y398969D01*
X32293339Y398969D02*
X32353815Y519921D01*
X32353815Y519921D02*
X32353815Y761826D01*
X32353815Y761826D02*
X32293339Y882778D01*
X32293339Y882778D02*
X32232863Y943254D01*
X32232863Y943254D02*
X32111910Y1003731D01*
X11435050Y-47727456D02*
X11374574Y-47787933D01*
X11374574Y-47787933D02*
X11193145Y-47848409D01*
X11193145Y-47848409D02*
X11072193Y-47848409D01*
X11072193Y-47848409D02*
X10890764Y-47787933D01*
X10890764Y-47787933D02*
X10769812Y-47666980D01*
X10769812Y-47666980D02*
X10709335Y-47546028D01*
X10709335Y-47546028D02*
X10648859Y-47304123D01*
X10648859Y-47304123D02*
X10648859Y-47122694D01*
X10648859Y-47122694D02*
X10709335Y-46880790D01*
X10709335Y-46880790D02*
X10769812Y-46759837D01*
X10769812Y-46759837D02*
X10890764Y-46638885D01*
X10890764Y-46638885D02*
X11072193Y-46578409D01*
X11072193Y-46578409D02*
X11193145Y-46578409D01*
X11193145Y-46578409D02*
X11374574Y-46638885D01*
X11374574Y-46638885D02*
X11435050Y-46699361D01*
X11918859Y-46699361D02*
X11979335Y-46638885D01*
X11979335Y-46638885D02*
X12100288Y-46578409D01*
X12100288Y-46578409D02*
X12402669Y-46578409D01*
X12402669Y-46578409D02*
X12523621Y-46638885D01*
X12523621Y-46638885D02*
X12584097Y-46699361D01*
X12584097Y-46699361D02*
X12644574Y-46820313D01*
X12644574Y-46820313D02*
X12644574Y-46941266D01*
X12644574Y-46941266D02*
X12584097Y-47122694D01*
X12584097Y-47122694D02*
X11858383Y-47848409D01*
X11858383Y-47848409D02*
X12644574Y-47848409D01*
X13430764Y-46578409D02*
X13551717Y-46578409D01*
X13551717Y-46578409D02*
X13672669Y-46638885D01*
X13672669Y-46638885D02*
X13733145Y-46699361D01*
X13733145Y-46699361D02*
X13793621Y-46820313D01*
X13793621Y-46820313D02*
X13854098Y-47062218D01*
X13854098Y-47062218D02*
X13854098Y-47364599D01*
X13854098Y-47364599D02*
X13793621Y-47606504D01*
X13793621Y-47606504D02*
X13733145Y-47727456D01*
X13733145Y-47727456D02*
X13672669Y-47787933D01*
X13672669Y-47787933D02*
X13551717Y-47848409D01*
X13551717Y-47848409D02*
X13430764Y-47848409D01*
X13430764Y-47848409D02*
X13309812Y-47787933D01*
X13309812Y-47787933D02*
X13249336Y-47727456D01*
X13249336Y-47727456D02*
X13188859Y-47606504D01*
X13188859Y-47606504D02*
X13128383Y-47364599D01*
X13128383Y-47364599D02*
X13128383Y-47062218D01*
X13128383Y-47062218D02*
X13188859Y-46820313D01*
X13188859Y-46820313D02*
X13249336Y-46699361D01*
X13249336Y-46699361D02*
X13309812Y-46638885D01*
X13309812Y-46638885D02*
X13430764Y-46578409D01*
X7226904Y9006205D02*
X7408333Y8945728D01*
X7408333Y8945728D02*
X7710714Y8945728D01*
X7710714Y8945728D02*
X7831666Y9006205D01*
X7831666Y9006205D02*
X7892142Y9066681D01*
X7892142Y9066681D02*
X7952619Y9187633D01*
X7952619Y9187633D02*
X7952619Y9308585D01*
X7952619Y9308585D02*
X7892142Y9429538D01*
X7892142Y9429538D02*
X7831666Y9490014D01*
X7831666Y9490014D02*
X7710714Y9550490D01*
X7710714Y9550490D02*
X7468809Y9610966D01*
X7468809Y9610966D02*
X7347857Y9671443D01*
X7347857Y9671443D02*
X7287380Y9731919D01*
X7287380Y9731919D02*
X7226904Y9852871D01*
X7226904Y9852871D02*
X7226904Y9973824D01*
X7226904Y9973824D02*
X7287380Y10094776D01*
X7287380Y10094776D02*
X7347857Y10155252D01*
X7347857Y10155252D02*
X7468809Y10215728D01*
X7468809Y10215728D02*
X7771190Y10215728D01*
X7771190Y10215728D02*
X7952619Y10155252D01*
X8375952Y10215728D02*
X8678333Y8945728D01*
X8678333Y8945728D02*
X8920238Y9852871D01*
X8920238Y9852871D02*
X9162143Y8945728D01*
X9162143Y8945728D02*
X9464524Y10215728D01*
X10613572Y8945728D02*
X9887857Y8945728D01*
X10250714Y8945728D02*
X10250714Y10215728D01*
X10250714Y10215728D02*
X10129762Y10034300D01*
X10129762Y10034300D02*
X10008810Y9913347D01*
X10008810Y9913347D02*
X9887857Y9852871D01*
X11399762Y10215728D02*
X11520715Y10215728D01*
X11520715Y10215728D02*
X11641667Y10155252D01*
X11641667Y10155252D02*
X11702143Y10094776D01*
X11702143Y10094776D02*
X11762619Y9973824D01*
X11762619Y9973824D02*
X11823096Y9731919D01*
X11823096Y9731919D02*
X11823096Y9429538D01*
X11823096Y9429538D02*
X11762619Y9187633D01*
X11762619Y9187633D02*
X11702143Y9066681D01*
X11702143Y9066681D02*
X11641667Y9006205D01*
X11641667Y9006205D02*
X11520715Y8945728D01*
X11520715Y8945728D02*
X11399762Y8945728D01*
X11399762Y8945728D02*
X11278810Y9006205D01*
X11278810Y9006205D02*
X11218334Y9066681D01*
X11218334Y9066681D02*
X11157857Y9187633D01*
X11157857Y9187633D02*
X11097381Y9429538D01*
X11097381Y9429538D02*
X11097381Y9731919D01*
X11097381Y9731919D02*
X11157857Y9973824D01*
X11157857Y9973824D02*
X11218334Y10094776D01*
X11218334Y10094776D02*
X11278810Y10155252D01*
X11278810Y10155252D02*
X11399762Y10215728D01*
X-41260261Y-26945987D02*
X-41320737Y-27006464D01*
X-41320737Y-27006464D02*
X-41502166Y-27066940D01*
X-41502166Y-27066940D02*
X-41623118Y-27066940D01*
X-41623118Y-27066940D02*
X-41804547Y-27006464D01*
X-41804547Y-27006464D02*
X-41925499Y-26885511D01*
X-41925499Y-26885511D02*
X-41985976Y-26764559D01*
X-41985976Y-26764559D02*
X-42046452Y-26522654D01*
X-42046452Y-26522654D02*
X-42046452Y-26341225D01*
X-42046452Y-26341225D02*
X-41985976Y-26099321D01*
X-41985976Y-26099321D02*
X-41925499Y-25978368D01*
X-41925499Y-25978368D02*
X-41804547Y-25857416D01*
X-41804547Y-25857416D02*
X-41623118Y-25796940D01*
X-41623118Y-25796940D02*
X-41502166Y-25796940D01*
X-41502166Y-25796940D02*
X-41320737Y-25857416D01*
X-41320737Y-25857416D02*
X-41260261Y-25917892D01*
X-40050737Y-27066940D02*
X-40776452Y-27066940D01*
X-40413595Y-27066940D02*
X-40413595Y-25796940D01*
X-40413595Y-25796940D02*
X-40534547Y-25978368D01*
X-40534547Y-25978368D02*
X-40655499Y-26099321D01*
X-40655499Y-26099321D02*
X-40776452Y-26159797D01*
X-38962166Y-25796940D02*
X-39204071Y-25796940D01*
X-39204071Y-25796940D02*
X-39325023Y-25857416D01*
X-39325023Y-25857416D02*
X-39385499Y-25917892D01*
X-39385499Y-25917892D02*
X-39506452Y-26099321D01*
X-39506452Y-26099321D02*
X-39566928Y-26341225D01*
X-39566928Y-26341225D02*
X-39566928Y-26825035D01*
X-39566928Y-26825035D02*
X-39506452Y-26945987D01*
X-39506452Y-26945987D02*
X-39445975Y-27006464D01*
X-39445975Y-27006464D02*
X-39325023Y-27066940D01*
X-39325023Y-27066940D02*
X-39083118Y-27066940D01*
X-39083118Y-27066940D02*
X-38962166Y-27006464D01*
X-38962166Y-27006464D02*
X-38901690Y-26945987D01*
X-38901690Y-26945987D02*
X-38841213Y-26825035D01*
X-38841213Y-26825035D02*
X-38841213Y-26522654D01*
X-38841213Y-26522654D02*
X-38901690Y-26401702D01*
X-38901690Y-26401702D02*
X-38962166Y-26341225D01*
X-38962166Y-26341225D02*
X-39083118Y-26280749D01*
X-39083118Y-26280749D02*
X-39325023Y-26280749D01*
X-39325023Y-26280749D02*
X-39445975Y-26341225D01*
X-39445975Y-26341225D02*
X-39506452Y-26401702D01*
X-39506452Y-26401702D02*
X-39566928Y-26522654D01*
X-11218333Y9006205D02*
X-11036904Y8945728D01*
X-11036904Y8945728D02*
X-10734523Y8945728D01*
X-10734523Y8945728D02*
X-10613571Y9006205D01*
X-10613571Y9006205D02*
X-10553095Y9066681D01*
X-10553095Y9066681D02*
X-10492618Y9187633D01*
X-10492618Y9187633D02*
X-10492618Y9308585D01*
X-10492618Y9308585D02*
X-10553095Y9429538D01*
X-10553095Y9429538D02*
X-10613571Y9490014D01*
X-10613571Y9490014D02*
X-10734523Y9550490D01*
X-10734523Y9550490D02*
X-10976428Y9610966D01*
X-10976428Y9610966D02*
X-11097380Y9671443D01*
X-11097380Y9671443D02*
X-11157857Y9731919D01*
X-11157857Y9731919D02*
X-11218333Y9852871D01*
X-11218333Y9852871D02*
X-11218333Y9973824D01*
X-11218333Y9973824D02*
X-11157857Y10094776D01*
X-11157857Y10094776D02*
X-11097380Y10155252D01*
X-11097380Y10155252D02*
X-10976428Y10215728D01*
X-10976428Y10215728D02*
X-10674047Y10215728D01*
X-10674047Y10215728D02*
X-10492618Y10155252D01*
X-10069285Y10215728D02*
X-9766904Y8945728D01*
X-9766904Y8945728D02*
X-9524999Y9852871D01*
X-9524999Y9852871D02*
X-9283094Y8945728D01*
X-9283094Y8945728D02*
X-8980714Y10215728D01*
X-8436427Y8945728D02*
X-8194523Y8945728D01*
X-8194523Y8945728D02*
X-8073570Y9006205D01*
X-8073570Y9006205D02*
X-8013094Y9066681D01*
X-8013094Y9066681D02*
X-7892142Y9248109D01*
X-7892142Y9248109D02*
X-7831665Y9490014D01*
X-7831665Y9490014D02*
X-7831665Y9973824D01*
X-7831665Y9973824D02*
X-7892142Y10094776D01*
X-7892142Y10094776D02*
X-7952618Y10155252D01*
X-7952618Y10155252D02*
X-8073570Y10215728D01*
X-8073570Y10215728D02*
X-8315475Y10215728D01*
X-8315475Y10215728D02*
X-8436427Y10155252D01*
X-8436427Y10155252D02*
X-8496904Y10094776D01*
X-8496904Y10094776D02*
X-8557380Y9973824D01*
X-8557380Y9973824D02*
X-8557380Y9671443D01*
X-8557380Y9671443D02*
X-8496904Y9550490D01*
X-8496904Y9550490D02*
X-8436427Y9490014D01*
X-8436427Y9490014D02*
X-8315475Y9429538D01*
X-8315475Y9429538D02*
X-8073570Y9429538D01*
X-8073570Y9429538D02*
X-7952618Y9490014D01*
X-7952618Y9490014D02*
X-7892142Y9550490D01*
X-7892142Y9550490D02*
X-7831665Y9671443D01*
X7831666Y28056205D02*
X8013095Y27995728D01*
X8013095Y27995728D02*
X8315476Y27995728D01*
X8315476Y27995728D02*
X8436428Y28056205D01*
X8436428Y28056205D02*
X8496904Y28116681D01*
X8496904Y28116681D02*
X8557381Y28237633D01*
X8557381Y28237633D02*
X8557381Y28358585D01*
X8557381Y28358585D02*
X8496904Y28479538D01*
X8496904Y28479538D02*
X8436428Y28540014D01*
X8436428Y28540014D02*
X8315476Y28600490D01*
X8315476Y28600490D02*
X8073571Y28660966D01*
X8073571Y28660966D02*
X7952619Y28721443D01*
X7952619Y28721443D02*
X7892142Y28781919D01*
X7892142Y28781919D02*
X7831666Y28902871D01*
X7831666Y28902871D02*
X7831666Y29023824D01*
X7831666Y29023824D02*
X7892142Y29144776D01*
X7892142Y29144776D02*
X7952619Y29205252D01*
X7952619Y29205252D02*
X8073571Y29265728D01*
X8073571Y29265728D02*
X8375952Y29265728D01*
X8375952Y29265728D02*
X8557381Y29205252D01*
X8980714Y29265728D02*
X9283095Y27995728D01*
X9283095Y27995728D02*
X9525000Y28902871D01*
X9525000Y28902871D02*
X9766905Y27995728D01*
X9766905Y27995728D02*
X10069286Y29265728D01*
X11097381Y28842395D02*
X11097381Y27995728D01*
X10795000Y29326205D02*
X10492619Y28419062D01*
X10492619Y28419062D02*
X11278810Y28419062D01*
X-30268333Y9006205D02*
X-30086904Y8945728D01*
X-30086904Y8945728D02*
X-29784523Y8945728D01*
X-29784523Y8945728D02*
X-29663571Y9006205D01*
X-29663571Y9006205D02*
X-29603095Y9066681D01*
X-29603095Y9066681D02*
X-29542618Y9187633D01*
X-29542618Y9187633D02*
X-29542618Y9308585D01*
X-29542618Y9308585D02*
X-29603095Y9429538D01*
X-29603095Y9429538D02*
X-29663571Y9490014D01*
X-29663571Y9490014D02*
X-29784523Y9550490D01*
X-29784523Y9550490D02*
X-30026428Y9610966D01*
X-30026428Y9610966D02*
X-30147380Y9671443D01*
X-30147380Y9671443D02*
X-30207857Y9731919D01*
X-30207857Y9731919D02*
X-30268333Y9852871D01*
X-30268333Y9852871D02*
X-30268333Y9973824D01*
X-30268333Y9973824D02*
X-30207857Y10094776D01*
X-30207857Y10094776D02*
X-30147380Y10155252D01*
X-30147380Y10155252D02*
X-30026428Y10215728D01*
X-30026428Y10215728D02*
X-29724047Y10215728D01*
X-29724047Y10215728D02*
X-29542618Y10155252D01*
X-29119285Y10215728D02*
X-28816904Y8945728D01*
X-28816904Y8945728D02*
X-28574999Y9852871D01*
X-28574999Y9852871D02*
X-28333094Y8945728D01*
X-28333094Y8945728D02*
X-28030714Y10215728D01*
X-27365475Y9671443D02*
X-27486427Y9731919D01*
X-27486427Y9731919D02*
X-27546904Y9792395D01*
X-27546904Y9792395D02*
X-27607380Y9913347D01*
X-27607380Y9913347D02*
X-27607380Y9973824D01*
X-27607380Y9973824D02*
X-27546904Y10094776D01*
X-27546904Y10094776D02*
X-27486427Y10155252D01*
X-27486427Y10155252D02*
X-27365475Y10215728D01*
X-27365475Y10215728D02*
X-27123570Y10215728D01*
X-27123570Y10215728D02*
X-27002618Y10155252D01*
X-27002618Y10155252D02*
X-26942142Y10094776D01*
X-26942142Y10094776D02*
X-26881665Y9973824D01*
X-26881665Y9973824D02*
X-26881665Y9913347D01*
X-26881665Y9913347D02*
X-26942142Y9792395D01*
X-26942142Y9792395D02*
X-27002618Y9731919D01*
X-27002618Y9731919D02*
X-27123570Y9671443D01*
X-27123570Y9671443D02*
X-27365475Y9671443D01*
X-27365475Y9671443D02*
X-27486427Y9610966D01*
X-27486427Y9610966D02*
X-27546904Y9550490D01*
X-27546904Y9550490D02*
X-27607380Y9429538D01*
X-27607380Y9429538D02*
X-27607380Y9187633D01*
X-27607380Y9187633D02*
X-27546904Y9066681D01*
X-27546904Y9066681D02*
X-27486427Y9006205D01*
X-27486427Y9006205D02*
X-27365475Y8945728D01*
X-27365475Y8945728D02*
X-27123570Y8945728D01*
X-27123570Y8945728D02*
X-27002618Y9006205D01*
X-27002618Y9006205D02*
X-26942142Y9066681D01*
X-26942142Y9066681D02*
X-26881665Y9187633D01*
X-26881665Y9187633D02*
X-26881665Y9429538D01*
X-26881665Y9429538D02*
X-26942142Y9550490D01*
X-26942142Y9550490D02*
X-27002618Y9610966D01*
X-27002618Y9610966D02*
X-27123570Y9671443D01*
X-5134889Y-38428851D02*
X-5074413Y-38489327D01*
X-5074413Y-38489327D02*
X-5013936Y-38670756D01*
X-5013936Y-38670756D02*
X-5013936Y-38791708D01*
X-5013936Y-38791708D02*
X-5074413Y-38973137D01*
X-5074413Y-38973137D02*
X-5195365Y-39094089D01*
X-5195365Y-39094089D02*
X-5316317Y-39154566D01*
X-5316317Y-39154566D02*
X-5558222Y-39215042D01*
X-5558222Y-39215042D02*
X-5739651Y-39215042D01*
X-5739651Y-39215042D02*
X-5981555Y-39154566D01*
X-5981555Y-39154566D02*
X-6102508Y-39094089D01*
X-6102508Y-39094089D02*
X-6223460Y-38973137D01*
X-6223460Y-38973137D02*
X-6283936Y-38791708D01*
X-6283936Y-38791708D02*
X-6283936Y-38670756D01*
X-6283936Y-38670756D02*
X-6223460Y-38489327D01*
X-6223460Y-38489327D02*
X-6162984Y-38428851D01*
X-6283936Y-38005518D02*
X-6283936Y-37219327D01*
X-6283936Y-37219327D02*
X-5800127Y-37642661D01*
X-5800127Y-37642661D02*
X-5800127Y-37461232D01*
X-5800127Y-37461232D02*
X-5739651Y-37340280D01*
X-5739651Y-37340280D02*
X-5679174Y-37279804D01*
X-5679174Y-37279804D02*
X-5558222Y-37219327D01*
X-5558222Y-37219327D02*
X-5255841Y-37219327D01*
X-5255841Y-37219327D02*
X-5134889Y-37279804D01*
X-5134889Y-37279804D02*
X-5074413Y-37340280D01*
X-5074413Y-37340280D02*
X-5013936Y-37461232D01*
X-5013936Y-37461232D02*
X-5013936Y-37824089D01*
X-5013936Y-37824089D02*
X-5074413Y-37945042D01*
X-5074413Y-37945042D02*
X-5134889Y-38005518D01*
X-26657666Y-23283977D02*
X-26718142Y-23344454D01*
X-26718142Y-23344454D02*
X-26899571Y-23404930D01*
X-26899571Y-23404930D02*
X-27020523Y-23404930D01*
X-27020523Y-23404930D02*
X-27201952Y-23344454D01*
X-27201952Y-23344454D02*
X-27322904Y-23223501D01*
X-27322904Y-23223501D02*
X-27383381Y-23102549D01*
X-27383381Y-23102549D02*
X-27443857Y-22860644D01*
X-27443857Y-22860644D02*
X-27443857Y-22679215D01*
X-27443857Y-22679215D02*
X-27383381Y-22437311D01*
X-27383381Y-22437311D02*
X-27322904Y-22316358D01*
X-27322904Y-22316358D02*
X-27201952Y-22195406D01*
X-27201952Y-22195406D02*
X-27020523Y-22134930D01*
X-27020523Y-22134930D02*
X-26899571Y-22134930D01*
X-26899571Y-22134930D02*
X-26718142Y-22195406D01*
X-26718142Y-22195406D02*
X-26657666Y-22255882D01*
X-26173857Y-22255882D02*
X-26113381Y-22195406D01*
X-26113381Y-22195406D02*
X-25992428Y-22134930D01*
X-25992428Y-22134930D02*
X-25690047Y-22134930D01*
X-25690047Y-22134930D02*
X-25569095Y-22195406D01*
X-25569095Y-22195406D02*
X-25508619Y-22255882D01*
X-25508619Y-22255882D02*
X-25448142Y-22376834D01*
X-25448142Y-22376834D02*
X-25448142Y-22497787D01*
X-25448142Y-22497787D02*
X-25508619Y-22679215D01*
X-25508619Y-22679215D02*
X-26234333Y-23404930D01*
X-26234333Y-23404930D02*
X-25448142Y-23404930D01*
X-24359571Y-22134930D02*
X-24601476Y-22134930D01*
X-24601476Y-22134930D02*
X-24722428Y-22195406D01*
X-24722428Y-22195406D02*
X-24782904Y-22255882D01*
X-24782904Y-22255882D02*
X-24903857Y-22437311D01*
X-24903857Y-22437311D02*
X-24964333Y-22679215D01*
X-24964333Y-22679215D02*
X-24964333Y-23163025D01*
X-24964333Y-23163025D02*
X-24903857Y-23283977D01*
X-24903857Y-23283977D02*
X-24843380Y-23344454D01*
X-24843380Y-23344454D02*
X-24722428Y-23404930D01*
X-24722428Y-23404930D02*
X-24480523Y-23404930D01*
X-24480523Y-23404930D02*
X-24359571Y-23344454D01*
X-24359571Y-23344454D02*
X-24299095Y-23283977D01*
X-24299095Y-23283977D02*
X-24238618Y-23163025D01*
X-24238618Y-23163025D02*
X-24238618Y-22860644D01*
X-24238618Y-22860644D02*
X-24299095Y-22739692D01*
X-24299095Y-22739692D02*
X-24359571Y-22679215D01*
X-24359571Y-22679215D02*
X-24480523Y-22618739D01*
X-24480523Y-22618739D02*
X-24722428Y-22618739D01*
X-24722428Y-22618739D02*
X-24843380Y-22679215D01*
X-24843380Y-22679215D02*
X-24903857Y-22739692D01*
X-24903857Y-22739692D02*
X-24964333Y-22860644D01*
X-11218333Y-29093795D02*
X-11036904Y-29154271D01*
X-11036904Y-29154271D02*
X-10734523Y-29154271D01*
X-10734523Y-29154271D02*
X-10613571Y-29093795D01*
X-10613571Y-29093795D02*
X-10553095Y-29033318D01*
X-10553095Y-29033318D02*
X-10492618Y-28912366D01*
X-10492618Y-28912366D02*
X-10492618Y-28791414D01*
X-10492618Y-28791414D02*
X-10553095Y-28670461D01*
X-10553095Y-28670461D02*
X-10613571Y-28609985D01*
X-10613571Y-28609985D02*
X-10734523Y-28549509D01*
X-10734523Y-28549509D02*
X-10976428Y-28489033D01*
X-10976428Y-28489033D02*
X-11097380Y-28428556D01*
X-11097380Y-28428556D02*
X-11157857Y-28368080D01*
X-11157857Y-28368080D02*
X-11218333Y-28247128D01*
X-11218333Y-28247128D02*
X-11218333Y-28126175D01*
X-11218333Y-28126175D02*
X-11157857Y-28005223D01*
X-11157857Y-28005223D02*
X-11097380Y-27944747D01*
X-11097380Y-27944747D02*
X-10976428Y-27884271D01*
X-10976428Y-27884271D02*
X-10674047Y-27884271D01*
X-10674047Y-27884271D02*
X-10492618Y-27944747D01*
X-10069285Y-27884271D02*
X-9766904Y-29154271D01*
X-9766904Y-29154271D02*
X-9524999Y-28247128D01*
X-9524999Y-28247128D02*
X-9283094Y-29154271D01*
X-9283094Y-29154271D02*
X-8980714Y-27884271D01*
X-7892142Y-27884271D02*
X-8496904Y-27884271D01*
X-8496904Y-27884271D02*
X-8557380Y-28489033D01*
X-8557380Y-28489033D02*
X-8496904Y-28428556D01*
X-8496904Y-28428556D02*
X-8375951Y-28368080D01*
X-8375951Y-28368080D02*
X-8073570Y-28368080D01*
X-8073570Y-28368080D02*
X-7952618Y-28428556D01*
X-7952618Y-28428556D02*
X-7892142Y-28489033D01*
X-7892142Y-28489033D02*
X-7831665Y-28609985D01*
X-7831665Y-28609985D02*
X-7831665Y-28912366D01*
X-7831665Y-28912366D02*
X-7892142Y-29033318D01*
X-7892142Y-29033318D02*
X-7952618Y-29093795D01*
X-7952618Y-29093795D02*
X-8073570Y-29154271D01*
X-8073570Y-29154271D02*
X-8375951Y-29154271D01*
X-8375951Y-29154271D02*
X-8496904Y-29093795D01*
X-8496904Y-29093795D02*
X-8557380Y-29033318D01*
X-5134889Y18720187D02*
X-5074413Y18659711D01*
X-5074413Y18659711D02*
X-5013936Y18478282D01*
X-5013936Y18478282D02*
X-5013936Y18357330D01*
X-5013936Y18357330D02*
X-5074413Y18175901D01*
X-5074413Y18175901D02*
X-5195365Y18054949D01*
X-5195365Y18054949D02*
X-5316317Y17994472D01*
X-5316317Y17994472D02*
X-5558222Y17933996D01*
X-5558222Y17933996D02*
X-5739651Y17933996D01*
X-5739651Y17933996D02*
X-5981555Y17994472D01*
X-5981555Y17994472D02*
X-6102508Y18054949D01*
X-6102508Y18054949D02*
X-6223460Y18175901D01*
X-6223460Y18175901D02*
X-6283936Y18357330D01*
X-6283936Y18357330D02*
X-6283936Y18478282D01*
X-6283936Y18478282D02*
X-6223460Y18659711D01*
X-6223460Y18659711D02*
X-6162984Y18720187D01*
X-5013936Y19929711D02*
X-5013936Y19203996D01*
X-5013936Y19566853D02*
X-6283936Y19566853D01*
X-6283936Y19566853D02*
X-6102508Y19445901D01*
X-6102508Y19445901D02*
X-5981555Y19324949D01*
X-5981555Y19324949D02*
X-5921079Y19203996D01*
X42079271Y-17254190D02*
X42079271Y-17858952D01*
X42079271Y-17858952D02*
X40809271Y-17858952D01*
X41414033Y-16830857D02*
X41414033Y-16407523D01*
X42079271Y-16226095D02*
X42079271Y-16830857D01*
X42079271Y-16830857D02*
X40809271Y-16830857D01*
X40809271Y-16830857D02*
X40809271Y-16226095D01*
X42079271Y-15681809D02*
X40809271Y-15681809D01*
X40809271Y-15681809D02*
X40809271Y-15379428D01*
X40809271Y-15379428D02*
X40869747Y-15197999D01*
X40869747Y-15197999D02*
X40990699Y-15077047D01*
X40990699Y-15077047D02*
X41111652Y-15016570D01*
X41111652Y-15016570D02*
X41353556Y-14956094D01*
X41353556Y-14956094D02*
X41534985Y-14956094D01*
X41534985Y-14956094D02*
X41776890Y-15016570D01*
X41776890Y-15016570D02*
X41897842Y-15077047D01*
X41897842Y-15077047D02*
X42018795Y-15197999D01*
X42018795Y-15197999D02*
X42079271Y-15379428D01*
X42079271Y-15379428D02*
X42079271Y-15681809D01*
X41232604Y-13867523D02*
X42079271Y-13867523D01*
X40748795Y-14169904D02*
X41655937Y-14472285D01*
X41655937Y-14472285D02*
X41655937Y-13686094D01*
X-24060671Y-205792D02*
X-24000195Y-266268D01*
X-24000195Y-266268D02*
X-23939718Y-447697D01*
X-23939718Y-447697D02*
X-23939718Y-568649D01*
X-23939718Y-568649D02*
X-24000195Y-750078D01*
X-24000195Y-750078D02*
X-24121147Y-871030D01*
X-24121147Y-871030D02*
X-24242099Y-931507D01*
X-24242099Y-931507D02*
X-24484004Y-991983D01*
X-24484004Y-991983D02*
X-24665433Y-991983D01*
X-24665433Y-991983D02*
X-24907337Y-931507D01*
X-24907337Y-931507D02*
X-25028290Y-871030D01*
X-25028290Y-871030D02*
X-25149242Y-750078D01*
X-25149242Y-750078D02*
X-25209718Y-568649D01*
X-25209718Y-568649D02*
X-25209718Y-447697D01*
X-25209718Y-447697D02*
X-25149242Y-266268D01*
X-25149242Y-266268D02*
X-25088766Y-205792D01*
X-25209718Y882778D02*
X-25209718Y640873D01*
X-25209718Y640873D02*
X-25149242Y519921D01*
X-25149242Y519921D02*
X-25088766Y459445D01*
X-25088766Y459445D02*
X-24907337Y338492D01*
X-24907337Y338492D02*
X-24665433Y278016D01*
X-24665433Y278016D02*
X-24181623Y278016D01*
X-24181623Y278016D02*
X-24060671Y338492D01*
X-24060671Y338492D02*
X-24000195Y398969D01*
X-24000195Y398969D02*
X-23939718Y519921D01*
X-23939718Y519921D02*
X-23939718Y761826D01*
X-23939718Y761826D02*
X-24000195Y882778D01*
X-24000195Y882778D02*
X-24060671Y943254D01*
X-24060671Y943254D02*
X-24181623Y1003731D01*
X-24181623Y1003731D02*
X-24484004Y1003731D01*
X-24484004Y1003731D02*
X-24604956Y943254D01*
X-24604956Y943254D02*
X-24665433Y882778D01*
X-24665433Y882778D02*
X-24725909Y761826D01*
X-24725909Y761826D02*
X-24725909Y519921D01*
X-24725909Y519921D02*
X-24665433Y398969D01*
X-24665433Y398969D02*
X-24604956Y338492D01*
X-24604956Y338492D02*
X-24484004Y278016D01*
X-43467619Y41920728D02*
X-43467619Y43190728D01*
X-43467619Y42585966D02*
X-42741904Y42585966D01*
X-42741904Y41920728D02*
X-42741904Y43190728D01*
X-41471904Y41920728D02*
X-42197619Y41920728D01*
X-41834762Y41920728D02*
X-41834762Y43190728D01*
X-41834762Y43190728D02*
X-41955714Y43009300D01*
X-41955714Y43009300D02*
X-42076666Y42888347D01*
X-42076666Y42888347D02*
X-42197619Y42827871D01*
X14411809Y40920728D02*
X13807047Y40920728D01*
X13807047Y40920728D02*
X13807047Y42190728D01*
X14835142Y41585966D02*
X15258476Y41585966D01*
X15439904Y40920728D02*
X14835142Y40920728D01*
X14835142Y40920728D02*
X14835142Y42190728D01*
X14835142Y42190728D02*
X15439904Y42190728D01*
X15984190Y40920728D02*
X15984190Y42190728D01*
X15984190Y42190728D02*
X16286571Y42190728D01*
X16286571Y42190728D02*
X16468000Y42130252D01*
X16468000Y42130252D02*
X16588952Y42009300D01*
X16588952Y42009300D02*
X16649429Y41888347D01*
X16649429Y41888347D02*
X16709905Y41646443D01*
X16709905Y41646443D02*
X16709905Y41465014D01*
X16709905Y41465014D02*
X16649429Y41223109D01*
X16649429Y41223109D02*
X16588952Y41102157D01*
X16588952Y41102157D02*
X16468000Y40981205D01*
X16468000Y40981205D02*
X16286571Y40920728D01*
X16286571Y40920728D02*
X15984190Y40920728D01*
X17193714Y42069776D02*
X17254190Y42130252D01*
X17254190Y42130252D02*
X17375143Y42190728D01*
X17375143Y42190728D02*
X17677524Y42190728D01*
X17677524Y42190728D02*
X17798476Y42130252D01*
X17798476Y42130252D02*
X17858952Y42069776D01*
X17858952Y42069776D02*
X17919429Y41948824D01*
X17919429Y41948824D02*
X17919429Y41827871D01*
X17919429Y41827871D02*
X17858952Y41646443D01*
X17858952Y41646443D02*
X17133238Y40920728D01*
X17133238Y40920728D02*
X17919429Y40920728D01*
X-30268333Y35556205D02*
X-30086904Y35495728D01*
X-30086904Y35495728D02*
X-29784523Y35495728D01*
X-29784523Y35495728D02*
X-29663571Y35556205D01*
X-29663571Y35556205D02*
X-29603095Y35616681D01*
X-29603095Y35616681D02*
X-29542618Y35737633D01*
X-29542618Y35737633D02*
X-29542618Y35858585D01*
X-29542618Y35858585D02*
X-29603095Y35979538D01*
X-29603095Y35979538D02*
X-29663571Y36040014D01*
X-29663571Y36040014D02*
X-29784523Y36100490D01*
X-29784523Y36100490D02*
X-30026428Y36160966D01*
X-30026428Y36160966D02*
X-30147380Y36221443D01*
X-30147380Y36221443D02*
X-30207857Y36281919D01*
X-30207857Y36281919D02*
X-30268333Y36402871D01*
X-30268333Y36402871D02*
X-30268333Y36523824D01*
X-30268333Y36523824D02*
X-30207857Y36644776D01*
X-30207857Y36644776D02*
X-30147380Y36705252D01*
X-30147380Y36705252D02*
X-30026428Y36765728D01*
X-30026428Y36765728D02*
X-29724047Y36765728D01*
X-29724047Y36765728D02*
X-29542618Y36705252D01*
X-29119285Y36765728D02*
X-28816904Y35495728D01*
X-28816904Y35495728D02*
X-28574999Y36402871D01*
X-28574999Y36402871D02*
X-28333094Y35495728D01*
X-28333094Y35495728D02*
X-28030714Y36765728D01*
X-26881665Y35495728D02*
X-27607380Y35495728D01*
X-27244523Y35495728D02*
X-27244523Y36765728D01*
X-27244523Y36765728D02*
X-27365475Y36584300D01*
X-27365475Y36584300D02*
X-27486427Y36463347D01*
X-27486427Y36463347D02*
X-27607380Y36402871D01*
X-5134889Y-205792D02*
X-5074413Y-266268D01*
X-5074413Y-266268D02*
X-5013936Y-447697D01*
X-5013936Y-447697D02*
X-5013936Y-568649D01*
X-5013936Y-568649D02*
X-5074413Y-750078D01*
X-5074413Y-750078D02*
X-5195365Y-871030D01*
X-5195365Y-871030D02*
X-5316317Y-931507D01*
X-5316317Y-931507D02*
X-5558222Y-991983D01*
X-5558222Y-991983D02*
X-5739651Y-991983D01*
X-5739651Y-991983D02*
X-5981555Y-931507D01*
X-5981555Y-931507D02*
X-6102508Y-871030D01*
X-6102508Y-871030D02*
X-6223460Y-750078D01*
X-6223460Y-750078D02*
X-6283936Y-568649D01*
X-6283936Y-568649D02*
X-6283936Y-447697D01*
X-6283936Y-447697D02*
X-6223460Y-266268D01*
X-6223460Y-266268D02*
X-6162984Y-205792D01*
X-6283936Y217540D02*
X-6283936Y1064207D01*
X-6283936Y1064207D02*
X-5013936Y519921D01*
X-40146980Y-27203671D02*
X-40207456Y-27264148D01*
X-40207456Y-27264148D02*
X-40388885Y-27324624D01*
X-40388885Y-27324624D02*
X-40509837Y-27324624D01*
X-40509837Y-27324624D02*
X-40691266Y-27264148D01*
X-40691266Y-27264148D02*
X-40812218Y-27143195D01*
X-40812218Y-27143195D02*
X-40872695Y-27022243D01*
X-40872695Y-27022243D02*
X-40933171Y-26780338D01*
X-40933171Y-26780338D02*
X-40933171Y-26598909D01*
X-40933171Y-26598909D02*
X-40872695Y-26357005D01*
X-40872695Y-26357005D02*
X-40812218Y-26236052D01*
X-40812218Y-26236052D02*
X-40691266Y-26115100D01*
X-40691266Y-26115100D02*
X-40509837Y-26054624D01*
X-40509837Y-26054624D02*
X-40388885Y-26054624D01*
X-40388885Y-26054624D02*
X-40207456Y-26115100D01*
X-40207456Y-26115100D02*
X-40146980Y-26175576D01*
X-38937456Y-27324624D02*
X-39663171Y-27324624D01*
X-39300314Y-27324624D02*
X-39300314Y-26054624D01*
X-39300314Y-26054624D02*
X-39421266Y-26236052D01*
X-39421266Y-26236052D02*
X-39542218Y-26357005D01*
X-39542218Y-26357005D02*
X-39663171Y-26417481D01*
X-38514123Y-26054624D02*
X-37667456Y-26054624D01*
X-37667456Y-26054624D02*
X-38211742Y-27324624D01*
X41532380Y41920728D02*
X41532380Y43190728D01*
X41532380Y42585966D02*
X42258095Y42585966D01*
X42258095Y41920728D02*
X42258095Y43190728D01*
X42802380Y43069776D02*
X42862856Y43130252D01*
X42862856Y43130252D02*
X42983809Y43190728D01*
X42983809Y43190728D02*
X43286190Y43190728D01*
X43286190Y43190728D02*
X43407142Y43130252D01*
X43407142Y43130252D02*
X43467618Y43069776D01*
X43467618Y43069776D02*
X43528095Y42948824D01*
X43528095Y42948824D02*
X43528095Y42827871D01*
X43528095Y42827871D02*
X43467618Y42646443D01*
X43467618Y42646443D02*
X42741904Y41920728D01*
X42741904Y41920728D02*
X43528095Y41920728D01*
X13790891Y18720187D02*
X13851368Y18659711D01*
X13851368Y18659711D02*
X13911844Y18478282D01*
X13911844Y18478282D02*
X13911844Y18357330D01*
X13911844Y18357330D02*
X13851368Y18175901D01*
X13851368Y18175901D02*
X13730415Y18054949D01*
X13730415Y18054949D02*
X13609463Y17994472D01*
X13609463Y17994472D02*
X13367558Y17933996D01*
X13367558Y17933996D02*
X13186129Y17933996D01*
X13186129Y17933996D02*
X12944225Y17994472D01*
X12944225Y17994472D02*
X12823272Y18054949D01*
X12823272Y18054949D02*
X12702320Y18175901D01*
X12702320Y18175901D02*
X12641844Y18357330D01*
X12641844Y18357330D02*
X12641844Y18478282D01*
X12641844Y18478282D02*
X12702320Y18659711D01*
X12702320Y18659711D02*
X12762796Y18720187D01*
X12762796Y19203996D02*
X12702320Y19264472D01*
X12702320Y19264472D02*
X12641844Y19385425D01*
X12641844Y19385425D02*
X12641844Y19687806D01*
X12641844Y19687806D02*
X12702320Y19808758D01*
X12702320Y19808758D02*
X12762796Y19869234D01*
X12762796Y19869234D02*
X12883748Y19929711D01*
X12883748Y19929711D02*
X13004701Y19929711D01*
X13004701Y19929711D02*
X13186129Y19869234D01*
X13186129Y19869234D02*
X13911844Y19143520D01*
X13911844Y19143520D02*
X13911844Y19929711D01*
X42079271Y14411809D02*
X42079271Y13807047D01*
X42079271Y13807047D02*
X40809271Y13807047D01*
X41414033Y14835142D02*
X41414033Y15258476D01*
X42079271Y15439904D02*
X42079271Y14835142D01*
X42079271Y14835142D02*
X40809271Y14835142D01*
X40809271Y14835142D02*
X40809271Y15439904D01*
X42079271Y15984190D02*
X40809271Y15984190D01*
X40809271Y15984190D02*
X40809271Y16286571D01*
X40809271Y16286571D02*
X40869747Y16468000D01*
X40869747Y16468000D02*
X40990699Y16588952D01*
X40990699Y16588952D02*
X41111652Y16649429D01*
X41111652Y16649429D02*
X41353556Y16709905D01*
X41353556Y16709905D02*
X41534985Y16709905D01*
X41534985Y16709905D02*
X41776890Y16649429D01*
X41776890Y16649429D02*
X41897842Y16588952D01*
X41897842Y16588952D02*
X42018795Y16468000D01*
X42018795Y16468000D02*
X42079271Y16286571D01*
X42079271Y16286571D02*
X42079271Y15984190D01*
X40809271Y17133238D02*
X40809271Y17919429D01*
X40809271Y17919429D02*
X41293080Y17496095D01*
X41293080Y17496095D02*
X41293080Y17677524D01*
X41293080Y17677524D02*
X41353556Y17798476D01*
X41353556Y17798476D02*
X41414033Y17858952D01*
X41414033Y17858952D02*
X41534985Y17919429D01*
X41534985Y17919429D02*
X41837366Y17919429D01*
X41837366Y17919429D02*
X41958318Y17858952D01*
X41958318Y17858952D02*
X42018795Y17798476D01*
X42018795Y17798476D02*
X42079271Y17677524D01*
X42079271Y17677524D02*
X42079271Y17314667D01*
X42079271Y17314667D02*
X42018795Y17193714D01*
X42018795Y17193714D02*
X41958318Y17133238D01*
X-30873095Y-10043795D02*
X-30691666Y-10104271D01*
X-30691666Y-10104271D02*
X-30389285Y-10104271D01*
X-30389285Y-10104271D02*
X-30268333Y-10043795D01*
X-30268333Y-10043795D02*
X-30207857Y-9983318D01*
X-30207857Y-9983318D02*
X-30147380Y-9862366D01*
X-30147380Y-9862366D02*
X-30147380Y-9741414D01*
X-30147380Y-9741414D02*
X-30207857Y-9620461D01*
X-30207857Y-9620461D02*
X-30268333Y-9559985D01*
X-30268333Y-9559985D02*
X-30389285Y-9499509D01*
X-30389285Y-9499509D02*
X-30631190Y-9439033D01*
X-30631190Y-9439033D02*
X-30752142Y-9378556D01*
X-30752142Y-9378556D02*
X-30812619Y-9318080D01*
X-30812619Y-9318080D02*
X-30873095Y-9197128D01*
X-30873095Y-9197128D02*
X-30873095Y-9076175D01*
X-30873095Y-9076175D02*
X-30812619Y-8955223D01*
X-30812619Y-8955223D02*
X-30752142Y-8894747D01*
X-30752142Y-8894747D02*
X-30631190Y-8834271D01*
X-30631190Y-8834271D02*
X-30328809Y-8834271D01*
X-30328809Y-8834271D02*
X-30147380Y-8894747D01*
X-29724047Y-8834271D02*
X-29421666Y-10104271D01*
X-29421666Y-10104271D02*
X-29179761Y-9197128D01*
X-29179761Y-9197128D02*
X-28937856Y-10104271D01*
X-28937856Y-10104271D02*
X-28635476Y-8834271D01*
X-27486427Y-10104271D02*
X-28212142Y-10104271D01*
X-27849285Y-10104271D02*
X-27849285Y-8834271D01*
X-27849285Y-8834271D02*
X-27970237Y-9015699D01*
X-27970237Y-9015699D02*
X-28091189Y-9136652D01*
X-28091189Y-9136652D02*
X-28212142Y-9197128D01*
X-27002618Y-8955223D02*
X-26942142Y-8894747D01*
X-26942142Y-8894747D02*
X-26821189Y-8834271D01*
X-26821189Y-8834271D02*
X-26518808Y-8834271D01*
X-26518808Y-8834271D02*
X-26397856Y-8894747D01*
X-26397856Y-8894747D02*
X-26337380Y-8955223D01*
X-26337380Y-8955223D02*
X-26276903Y-9076175D01*
X-26276903Y-9076175D02*
X-26276903Y-9197128D01*
X-26276903Y-9197128D02*
X-26337380Y-9378556D01*
X-26337380Y-9378556D02*
X-27063094Y-10104271D01*
X-27063094Y-10104271D02*
X-26276903Y-10104271D01*
X26881666Y-29093795D02*
X27063095Y-29154271D01*
X27063095Y-29154271D02*
X27365476Y-29154271D01*
X27365476Y-29154271D02*
X27486428Y-29093795D01*
X27486428Y-29093795D02*
X27546904Y-29033318D01*
X27546904Y-29033318D02*
X27607381Y-28912366D01*
X27607381Y-28912366D02*
X27607381Y-28791414D01*
X27607381Y-28791414D02*
X27546904Y-28670461D01*
X27546904Y-28670461D02*
X27486428Y-28609985D01*
X27486428Y-28609985D02*
X27365476Y-28549509D01*
X27365476Y-28549509D02*
X27123571Y-28489033D01*
X27123571Y-28489033D02*
X27002619Y-28428556D01*
X27002619Y-28428556D02*
X26942142Y-28368080D01*
X26942142Y-28368080D02*
X26881666Y-28247128D01*
X26881666Y-28247128D02*
X26881666Y-28126175D01*
X26881666Y-28126175D02*
X26942142Y-28005223D01*
X26942142Y-28005223D02*
X27002619Y-27944747D01*
X27002619Y-27944747D02*
X27123571Y-27884271D01*
X27123571Y-27884271D02*
X27425952Y-27884271D01*
X27425952Y-27884271D02*
X27607381Y-27944747D01*
X28030714Y-27884271D02*
X28333095Y-29154271D01*
X28333095Y-29154271D02*
X28575000Y-28247128D01*
X28575000Y-28247128D02*
X28816905Y-29154271D01*
X28816905Y-29154271D02*
X29119286Y-27884271D01*
X29482143Y-27884271D02*
X30328810Y-27884271D01*
X30328810Y-27884271D02*
X29784524Y-29154271D01*
X-40920728Y-17254190D02*
X-40920728Y-17858952D01*
X-40920728Y-17858952D02*
X-42190728Y-17858952D01*
X-41585966Y-16830857D02*
X-41585966Y-16407523D01*
X-40920728Y-16226095D02*
X-40920728Y-16830857D01*
X-40920728Y-16830857D02*
X-42190728Y-16830857D01*
X-42190728Y-16830857D02*
X-42190728Y-16226095D01*
X-40920728Y-15681809D02*
X-42190728Y-15681809D01*
X-42190728Y-15681809D02*
X-42190728Y-15379428D01*
X-42190728Y-15379428D02*
X-42130252Y-15197999D01*
X-42130252Y-15197999D02*
X-42009300Y-15077047D01*
X-42009300Y-15077047D02*
X-41888347Y-15016570D01*
X-41888347Y-15016570D02*
X-41646443Y-14956094D01*
X-41646443Y-14956094D02*
X-41465014Y-14956094D01*
X-41465014Y-14956094D02*
X-41223109Y-15016570D01*
X-41223109Y-15016570D02*
X-41102157Y-15077047D01*
X-41102157Y-15077047D02*
X-40981205Y-15197999D01*
X-40981205Y-15197999D02*
X-40920728Y-15379428D01*
X-40920728Y-15379428D02*
X-40920728Y-15681809D01*
X-42190728Y-14532761D02*
X-42190728Y-13686094D01*
X-42190728Y-13686094D02*
X-40920728Y-14230380D01*
X-41260261Y-25461597D02*
X-41320737Y-25522074D01*
X-41320737Y-25522074D02*
X-41502166Y-25582550D01*
X-41502166Y-25582550D02*
X-41623118Y-25582550D01*
X-41623118Y-25582550D02*
X-41804547Y-25522074D01*
X-41804547Y-25522074D02*
X-41925499Y-25401121D01*
X-41925499Y-25401121D02*
X-41985976Y-25280169D01*
X-41985976Y-25280169D02*
X-42046452Y-25038264D01*
X-42046452Y-25038264D02*
X-42046452Y-24856835D01*
X-42046452Y-24856835D02*
X-41985976Y-24614931D01*
X-41985976Y-24614931D02*
X-41925499Y-24493978D01*
X-41925499Y-24493978D02*
X-41804547Y-24373026D01*
X-41804547Y-24373026D02*
X-41623118Y-24312550D01*
X-41623118Y-24312550D02*
X-41502166Y-24312550D01*
X-41502166Y-24312550D02*
X-41320737Y-24373026D01*
X-41320737Y-24373026D02*
X-41260261Y-24433502D01*
X-40050737Y-25582550D02*
X-40776452Y-25582550D01*
X-40413595Y-25582550D02*
X-40413595Y-24312550D01*
X-40413595Y-24312550D02*
X-40534547Y-24493978D01*
X-40534547Y-24493978D02*
X-40655499Y-24614931D01*
X-40655499Y-24614931D02*
X-40776452Y-24675407D01*
X-38901690Y-24312550D02*
X-39506452Y-24312550D01*
X-39506452Y-24312550D02*
X-39566928Y-24917312D01*
X-39566928Y-24917312D02*
X-39506452Y-24856835D01*
X-39506452Y-24856835D02*
X-39385499Y-24796359D01*
X-39385499Y-24796359D02*
X-39083118Y-24796359D01*
X-39083118Y-24796359D02*
X-38962166Y-24856835D01*
X-38962166Y-24856835D02*
X-38901690Y-24917312D01*
X-38901690Y-24917312D02*
X-38841213Y-25038264D01*
X-38841213Y-25038264D02*
X-38841213Y-25340645D01*
X-38841213Y-25340645D02*
X-38901690Y-25461597D01*
X-38901690Y-25461597D02*
X-38962166Y-25522074D01*
X-38962166Y-25522074D02*
X-39083118Y-25582550D01*
X-39083118Y-25582550D02*
X-39385499Y-25582550D01*
X-39385499Y-25582550D02*
X-39506452Y-25522074D01*
X-39506452Y-25522074D02*
X-39566928Y-25461597D01*
X-11823095Y-10043795D02*
X-11641666Y-10104271D01*
X-11641666Y-10104271D02*
X-11339285Y-10104271D01*
X-11339285Y-10104271D02*
X-11218333Y-10043795D01*
X-11218333Y-10043795D02*
X-11157857Y-9983318D01*
X-11157857Y-9983318D02*
X-11097380Y-9862366D01*
X-11097380Y-9862366D02*
X-11097380Y-9741414D01*
X-11097380Y-9741414D02*
X-11157857Y-9620461D01*
X-11157857Y-9620461D02*
X-11218333Y-9559985D01*
X-11218333Y-9559985D02*
X-11339285Y-9499509D01*
X-11339285Y-9499509D02*
X-11581190Y-9439033D01*
X-11581190Y-9439033D02*
X-11702142Y-9378556D01*
X-11702142Y-9378556D02*
X-11762619Y-9318080D01*
X-11762619Y-9318080D02*
X-11823095Y-9197128D01*
X-11823095Y-9197128D02*
X-11823095Y-9076175D01*
X-11823095Y-9076175D02*
X-11762619Y-8955223D01*
X-11762619Y-8955223D02*
X-11702142Y-8894747D01*
X-11702142Y-8894747D02*
X-11581190Y-8834271D01*
X-11581190Y-8834271D02*
X-11278809Y-8834271D01*
X-11278809Y-8834271D02*
X-11097380Y-8894747D01*
X-10674047Y-8834271D02*
X-10371666Y-10104271D01*
X-10371666Y-10104271D02*
X-10129761Y-9197128D01*
X-10129761Y-9197128D02*
X-9887856Y-10104271D01*
X-9887856Y-10104271D02*
X-9585476Y-8834271D01*
X-8436427Y-10104271D02*
X-9162142Y-10104271D01*
X-8799285Y-10104271D02*
X-8799285Y-8834271D01*
X-8799285Y-8834271D02*
X-8920237Y-9015699D01*
X-8920237Y-9015699D02*
X-9041189Y-9136652D01*
X-9041189Y-9136652D02*
X-9162142Y-9197128D01*
X-8013094Y-8834271D02*
X-7226903Y-8834271D01*
X-7226903Y-8834271D02*
X-7650237Y-9318080D01*
X-7650237Y-9318080D02*
X-7468808Y-9318080D01*
X-7468808Y-9318080D02*
X-7347856Y-9378556D01*
X-7347856Y-9378556D02*
X-7287380Y-9439033D01*
X-7287380Y-9439033D02*
X-7226903Y-9559985D01*
X-7226903Y-9559985D02*
X-7226903Y-9862366D01*
X-7226903Y-9862366D02*
X-7287380Y-9983318D01*
X-7287380Y-9983318D02*
X-7347856Y-10043795D01*
X-7347856Y-10043795D02*
X-7468808Y-10104271D01*
X-7468808Y-10104271D02*
X-7831665Y-10104271D01*
X-7831665Y-10104271D02*
X-7952618Y-10043795D01*
X-7952618Y-10043795D02*
X-8013094Y-9983318D01*
X26276904Y9006205D02*
X26458333Y8945728D01*
X26458333Y8945728D02*
X26760714Y8945728D01*
X26760714Y8945728D02*
X26881666Y9006205D01*
X26881666Y9006205D02*
X26942142Y9066681D01*
X26942142Y9066681D02*
X27002619Y9187633D01*
X27002619Y9187633D02*
X27002619Y9308585D01*
X27002619Y9308585D02*
X26942142Y9429538D01*
X26942142Y9429538D02*
X26881666Y9490014D01*
X26881666Y9490014D02*
X26760714Y9550490D01*
X26760714Y9550490D02*
X26518809Y9610966D01*
X26518809Y9610966D02*
X26397857Y9671443D01*
X26397857Y9671443D02*
X26337380Y9731919D01*
X26337380Y9731919D02*
X26276904Y9852871D01*
X26276904Y9852871D02*
X26276904Y9973824D01*
X26276904Y9973824D02*
X26337380Y10094776D01*
X26337380Y10094776D02*
X26397857Y10155252D01*
X26397857Y10155252D02*
X26518809Y10215728D01*
X26518809Y10215728D02*
X26821190Y10215728D01*
X26821190Y10215728D02*
X27002619Y10155252D01*
X27425952Y10215728D02*
X27728333Y8945728D01*
X27728333Y8945728D02*
X27970238Y9852871D01*
X27970238Y9852871D02*
X28212143Y8945728D01*
X28212143Y8945728D02*
X28514524Y10215728D01*
X29663572Y8945728D02*
X28937857Y8945728D01*
X29300714Y8945728D02*
X29300714Y10215728D01*
X29300714Y10215728D02*
X29179762Y10034300D01*
X29179762Y10034300D02*
X29058810Y9913347D01*
X29058810Y9913347D02*
X28937857Y9852871D01*
X30873096Y8945728D02*
X30147381Y8945728D01*
X30510238Y8945728D02*
X30510238Y10215728D01*
X30510238Y10215728D02*
X30389286Y10034300D01*
X30389286Y10034300D02*
X30268334Y9913347D01*
X30268334Y9913347D02*
X30147381Y9852871D01*
X32716672Y-38428851D02*
X32777149Y-38489327D01*
X32777149Y-38489327D02*
X32837625Y-38670756D01*
X32837625Y-38670756D02*
X32837625Y-38791708D01*
X32837625Y-38791708D02*
X32777149Y-38973137D01*
X32777149Y-38973137D02*
X32656196Y-39094089D01*
X32656196Y-39094089D02*
X32535244Y-39154566D01*
X32535244Y-39154566D02*
X32293339Y-39215042D01*
X32293339Y-39215042D02*
X32111910Y-39215042D01*
X32111910Y-39215042D02*
X31870006Y-39154566D01*
X31870006Y-39154566D02*
X31749053Y-39094089D01*
X31749053Y-39094089D02*
X31628101Y-38973137D01*
X31628101Y-38973137D02*
X31567625Y-38791708D01*
X31567625Y-38791708D02*
X31567625Y-38670756D01*
X31567625Y-38670756D02*
X31628101Y-38489327D01*
X31628101Y-38489327D02*
X31688577Y-38428851D01*
X31567625Y-37279804D02*
X31567625Y-37884566D01*
X31567625Y-37884566D02*
X32172387Y-37945042D01*
X32172387Y-37945042D02*
X32111910Y-37884566D01*
X32111910Y-37884566D02*
X32051434Y-37763613D01*
X32051434Y-37763613D02*
X32051434Y-37461232D01*
X32051434Y-37461232D02*
X32111910Y-37340280D01*
X32111910Y-37340280D02*
X32172387Y-37279804D01*
X32172387Y-37279804D02*
X32293339Y-37219327D01*
X32293339Y-37219327D02*
X32595720Y-37219327D01*
X32595720Y-37219327D02*
X32716672Y-37279804D01*
X32716672Y-37279804D02*
X32777149Y-37340280D01*
X32777149Y-37340280D02*
X32837625Y-37461232D01*
X32837625Y-37461232D02*
X32837625Y-37763613D01*
X32837625Y-37763613D02*
X32777149Y-37884566D01*
X32777149Y-37884566D02*
X32716672Y-37945042D01*
%TO.C,U2*%
D11*
X-23661361Y-21633192D02*
G75*
G02*
X-23911361Y-21633192I-125000J0D01*
G01*
X-23911361Y-21633192D02*
G75*
G02*
X-23661361Y-21633192I125000J0D01*
G01*
%TD*%
M02*
