%TF.GenerationSoftware,KiCad,Pcbnew,10.0.4*%
%TF.CreationDate,2026-07-21T11:09:54+08:00*%
%TF.ProjectId,openmicro,6f70656e-6d69-4637-926f-2e6b69636164,rev?*%
%TF.SameCoordinates,Original*%
%TF.FileFunction,Legend,Top*%
%TF.FilePolarity,Positive*%
%FSLAX46Y46*%
G04 Gerber Fmt 4.6, Leading zero omitted, Abs format (unit mm)*
G04 Created by KiCad (PCBNEW 10.0.4) date 2026-07-21 11:09:54*
%MOMM*%
%LPD*%
G01*
G04 APERTURE LIST*
%ADD10C,0.158750*%
G04 APERTURE END LIST*
D10*
X26544047Y-13039271D02*
X25939285Y-13039271D01*
X25939285Y-13039271D02*
X25939285Y-11769271D01*
X26967380Y-12374033D02*
X27390714Y-12374033D01*
X27572142Y-13039271D02*
X26967380Y-13039271D01*
X26967380Y-13039271D02*
X26967380Y-11769271D01*
X26967380Y-11769271D02*
X27572142Y-11769271D01*
X28116428Y-13039271D02*
X28116428Y-11769271D01*
X28116428Y-11769271D02*
X28418809Y-11769271D01*
X28418809Y-11769271D02*
X28600238Y-11829747D01*
X28600238Y-11829747D02*
X28721190Y-11950699D01*
X28721190Y-11950699D02*
X28781667Y-12071652D01*
X28781667Y-12071652D02*
X28842143Y-12313556D01*
X28842143Y-12313556D02*
X28842143Y-12494985D01*
X28842143Y-12494985D02*
X28781667Y-12736890D01*
X28781667Y-12736890D02*
X28721190Y-12857842D01*
X28721190Y-12857842D02*
X28600238Y-12978795D01*
X28600238Y-12978795D02*
X28418809Y-13039271D01*
X28418809Y-13039271D02*
X28116428Y-13039271D01*
X29325952Y-11890223D02*
X29386428Y-11829747D01*
X29386428Y-11829747D02*
X29507381Y-11769271D01*
X29507381Y-11769271D02*
X29809762Y-11769271D01*
X29809762Y-11769271D02*
X29930714Y-11829747D01*
X29930714Y-11829747D02*
X29991190Y-11890223D01*
X29991190Y-11890223D02*
X30051667Y-12011175D01*
X30051667Y-12011175D02*
X30051667Y-12132128D01*
X30051667Y-12132128D02*
X29991190Y-12313556D01*
X29991190Y-12313556D02*
X29265476Y-13039271D01*
X29265476Y-13039271D02*
X30051667Y-13039271D01*
X30656429Y-13039271D02*
X30898333Y-13039271D01*
X30898333Y-13039271D02*
X31019286Y-12978795D01*
X31019286Y-12978795D02*
X31079762Y-12918318D01*
X31079762Y-12918318D02*
X31200714Y-12736890D01*
X31200714Y-12736890D02*
X31261191Y-12494985D01*
X31261191Y-12494985D02*
X31261191Y-12011175D01*
X31261191Y-12011175D02*
X31200714Y-11890223D01*
X31200714Y-11890223D02*
X31140238Y-11829747D01*
X31140238Y-11829747D02*
X31019286Y-11769271D01*
X31019286Y-11769271D02*
X30777381Y-11769271D01*
X30777381Y-11769271D02*
X30656429Y-11829747D01*
X30656429Y-11829747D02*
X30595952Y-11890223D01*
X30595952Y-11890223D02*
X30535476Y-12011175D01*
X30535476Y-12011175D02*
X30535476Y-12313556D01*
X30535476Y-12313556D02*
X30595952Y-12434509D01*
X30595952Y-12434509D02*
X30656429Y-12494985D01*
X30656429Y-12494985D02*
X30777381Y-12555461D01*
X30777381Y-12555461D02*
X31019286Y-12555461D01*
X31019286Y-12555461D02*
X31140238Y-12494985D01*
X31140238Y-12494985D02*
X31200714Y-12434509D01*
X31200714Y-12434509D02*
X31261191Y-12313556D01*
X40579271Y8974047D02*
X40579271Y8369285D01*
X40579271Y8369285D02*
X39309271Y8369285D01*
X39914033Y9397380D02*
X39914033Y9820714D01*
X40579271Y10002142D02*
X40579271Y9397380D01*
X40579271Y9397380D02*
X39309271Y9397380D01*
X39309271Y9397380D02*
X39309271Y10002142D01*
X40579271Y10546428D02*
X39309271Y10546428D01*
X39309271Y10546428D02*
X39309271Y10848809D01*
X39309271Y10848809D02*
X39369747Y11030238D01*
X39369747Y11030238D02*
X39490699Y11151190D01*
X39490699Y11151190D02*
X39611652Y11211667D01*
X39611652Y11211667D02*
X39853556Y11272143D01*
X39853556Y11272143D02*
X40034985Y11272143D01*
X40034985Y11272143D02*
X40276890Y11211667D01*
X40276890Y11211667D02*
X40397842Y11151190D01*
X40397842Y11151190D02*
X40518795Y11030238D01*
X40518795Y11030238D02*
X40579271Y10848809D01*
X40579271Y10848809D02*
X40579271Y10546428D01*
X40579271Y12481667D02*
X40579271Y11755952D01*
X40579271Y12118809D02*
X39309271Y12118809D01*
X39309271Y12118809D02*
X39490699Y11997857D01*
X39490699Y11997857D02*
X39611652Y11876905D01*
X39611652Y11876905D02*
X39672128Y11755952D01*
X39430223Y12965476D02*
X39369747Y13025952D01*
X39369747Y13025952D02*
X39309271Y13146905D01*
X39309271Y13146905D02*
X39309271Y13449286D01*
X39309271Y13449286D02*
X39369747Y13570238D01*
X39369747Y13570238D02*
X39430223Y13630714D01*
X39430223Y13630714D02*
X39551175Y13691191D01*
X39551175Y13691191D02*
X39672128Y13691191D01*
X39672128Y13691191D02*
X39853556Y13630714D01*
X39853556Y13630714D02*
X40579271Y12905000D01*
X40579271Y12905000D02*
X40579271Y13691191D01*
X30974047Y-40579271D02*
X30369285Y-40579271D01*
X30369285Y-40579271D02*
X30369285Y-39309271D01*
X31397380Y-39914033D02*
X31820714Y-39914033D01*
X32002142Y-40579271D02*
X31397380Y-40579271D01*
X31397380Y-40579271D02*
X31397380Y-39309271D01*
X31397380Y-39309271D02*
X32002142Y-39309271D01*
X32546428Y-40579271D02*
X32546428Y-39309271D01*
X32546428Y-39309271D02*
X32848809Y-39309271D01*
X32848809Y-39309271D02*
X33030238Y-39369747D01*
X33030238Y-39369747D02*
X33151190Y-39490699D01*
X33151190Y-39490699D02*
X33211667Y-39611652D01*
X33211667Y-39611652D02*
X33272143Y-39853556D01*
X33272143Y-39853556D02*
X33272143Y-40034985D01*
X33272143Y-40034985D02*
X33211667Y-40276890D01*
X33211667Y-40276890D02*
X33151190Y-40397842D01*
X33151190Y-40397842D02*
X33030238Y-40518795D01*
X33030238Y-40518795D02*
X32848809Y-40579271D01*
X32848809Y-40579271D02*
X32546428Y-40579271D01*
X34481667Y-40579271D02*
X33755952Y-40579271D01*
X34118809Y-40579271D02*
X34118809Y-39309271D01*
X34118809Y-39309271D02*
X33997857Y-39490699D01*
X33997857Y-39490699D02*
X33876905Y-39611652D01*
X33876905Y-39611652D02*
X33755952Y-39672128D01*
X35630714Y-39309271D02*
X35025952Y-39309271D01*
X35025952Y-39309271D02*
X34965476Y-39914033D01*
X34965476Y-39914033D02*
X35025952Y-39853556D01*
X35025952Y-39853556D02*
X35146905Y-39793080D01*
X35146905Y-39793080D02*
X35449286Y-39793080D01*
X35449286Y-39793080D02*
X35570238Y-39853556D01*
X35570238Y-39853556D02*
X35630714Y-39914033D01*
X35630714Y-39914033D02*
X35691191Y-40034985D01*
X35691191Y-40034985D02*
X35691191Y-40337366D01*
X35691191Y-40337366D02*
X35630714Y-40458318D01*
X35630714Y-40458318D02*
X35570238Y-40518795D01*
X35570238Y-40518795D02*
X35449286Y-40579271D01*
X35449286Y-40579271D02*
X35146905Y-40579271D01*
X35146905Y-40579271D02*
X35025952Y-40518795D01*
X35025952Y-40518795D02*
X34965476Y-40458318D01*
X-18927762Y43772197D02*
X-18867286Y43711721D01*
X-18867286Y43711721D02*
X-18806809Y43530292D01*
X-18806809Y43530292D02*
X-18806809Y43409340D01*
X-18806809Y43409340D02*
X-18867286Y43227911D01*
X-18867286Y43227911D02*
X-18988238Y43106959D01*
X-18988238Y43106959D02*
X-19109190Y43046482D01*
X-19109190Y43046482D02*
X-19351095Y42986006D01*
X-19351095Y42986006D02*
X-19532524Y42986006D01*
X-19532524Y42986006D02*
X-19774428Y43046482D01*
X-19774428Y43046482D02*
X-19895381Y43106959D01*
X-19895381Y43106959D02*
X-20016333Y43227911D01*
X-20016333Y43227911D02*
X-20076809Y43409340D01*
X-20076809Y43409340D02*
X-20076809Y43530292D01*
X-20076809Y43530292D02*
X-20016333Y43711721D01*
X-20016333Y43711721D02*
X-19955857Y43772197D01*
X-18806809Y44981721D02*
X-18806809Y44256006D01*
X-18806809Y44618863D02*
X-20076809Y44618863D01*
X-20076809Y44618863D02*
X-19895381Y44497911D01*
X-19895381Y44497911D02*
X-19774428Y44376959D01*
X-19774428Y44376959D02*
X-19713952Y44256006D01*
X-19955857Y45465530D02*
X-20016333Y45526006D01*
X-20016333Y45526006D02*
X-20076809Y45646959D01*
X-20076809Y45646959D02*
X-20076809Y45949340D01*
X-20076809Y45949340D02*
X-20016333Y46070292D01*
X-20016333Y46070292D02*
X-19955857Y46130768D01*
X-19955857Y46130768D02*
X-19834905Y46191245D01*
X-19834905Y46191245D02*
X-19713952Y46191245D01*
X-19713952Y46191245D02*
X-19532524Y46130768D01*
X-19532524Y46130768D02*
X-18806809Y45405054D01*
X-18806809Y45405054D02*
X-18806809Y46191245D01*
X-24285790Y40043894D02*
X-23681028Y40043894D01*
X-24951028Y39620561D02*
X-24285790Y40043894D01*
X-24285790Y40043894D02*
X-24951028Y40467228D01*
X-23681028Y41555799D02*
X-23681028Y40830084D01*
X-23681028Y41192941D02*
X-24951028Y41192941D01*
X-24951028Y41192941D02*
X-24769600Y41071989D01*
X-24769600Y41071989D02*
X-24648647Y40951037D01*
X-24648647Y40951037D02*
X-24588171Y40830084D01*
X-14459474Y38677729D02*
X-14398997Y38859158D01*
X-14398997Y38859158D02*
X-14398997Y39161539D01*
X-14398997Y39161539D02*
X-14459474Y39282491D01*
X-14459474Y39282491D02*
X-14519950Y39342967D01*
X-14519950Y39342967D02*
X-14640902Y39403444D01*
X-14640902Y39403444D02*
X-14761854Y39403444D01*
X-14761854Y39403444D02*
X-14882807Y39342967D01*
X-14882807Y39342967D02*
X-14943283Y39282491D01*
X-14943283Y39282491D02*
X-15003759Y39161539D01*
X-15003759Y39161539D02*
X-15064235Y38919634D01*
X-15064235Y38919634D02*
X-15124712Y38798682D01*
X-15124712Y38798682D02*
X-15185188Y38738205D01*
X-15185188Y38738205D02*
X-15306140Y38677729D01*
X-15306140Y38677729D02*
X-15427093Y38677729D01*
X-15427093Y38677729D02*
X-15548045Y38738205D01*
X-15548045Y38738205D02*
X-15608521Y38798682D01*
X-15608521Y38798682D02*
X-15668997Y38919634D01*
X-15668997Y38919634D02*
X-15668997Y39222015D01*
X-15668997Y39222015D02*
X-15608521Y39403444D01*
X-15668997Y39826777D02*
X-14398997Y40129158D01*
X-14398997Y40129158D02*
X-15306140Y40371063D01*
X-15306140Y40371063D02*
X-14398997Y40612968D01*
X-14398997Y40612968D02*
X-15668997Y40915349D01*
X-15548045Y41338682D02*
X-15608521Y41399158D01*
X-15608521Y41399158D02*
X-15668997Y41520111D01*
X-15668997Y41520111D02*
X-15668997Y41822492D01*
X-15668997Y41822492D02*
X-15608521Y41943444D01*
X-15608521Y41943444D02*
X-15548045Y42003920D01*
X-15548045Y42003920D02*
X-15427093Y42064397D01*
X-15427093Y42064397D02*
X-15306140Y42064397D01*
X-15306140Y42064397D02*
X-15124712Y42003920D01*
X-15124712Y42003920D02*
X-14398997Y41278206D01*
X-14398997Y41278206D02*
X-14398997Y42064397D01*
X-10650262Y-38377818D02*
X-10589786Y-38438294D01*
X-10589786Y-38438294D02*
X-10529309Y-38619723D01*
X-10529309Y-38619723D02*
X-10529309Y-38740675D01*
X-10529309Y-38740675D02*
X-10589786Y-38922104D01*
X-10589786Y-38922104D02*
X-10710738Y-39043056D01*
X-10710738Y-39043056D02*
X-10831690Y-39103533D01*
X-10831690Y-39103533D02*
X-11073595Y-39164009D01*
X-11073595Y-39164009D02*
X-11255024Y-39164009D01*
X-11255024Y-39164009D02*
X-11496928Y-39103533D01*
X-11496928Y-39103533D02*
X-11617881Y-39043056D01*
X-11617881Y-39043056D02*
X-11738833Y-38922104D01*
X-11738833Y-38922104D02*
X-11799309Y-38740675D01*
X-11799309Y-38740675D02*
X-11799309Y-38619723D01*
X-11799309Y-38619723D02*
X-11738833Y-38438294D01*
X-11738833Y-38438294D02*
X-11678357Y-38377818D01*
X-11799309Y-37289247D02*
X-11799309Y-37531152D01*
X-11799309Y-37531152D02*
X-11738833Y-37652104D01*
X-11738833Y-37652104D02*
X-11678357Y-37712580D01*
X-11678357Y-37712580D02*
X-11496928Y-37833533D01*
X-11496928Y-37833533D02*
X-11255024Y-37894009D01*
X-11255024Y-37894009D02*
X-10771214Y-37894009D01*
X-10771214Y-37894009D02*
X-10650262Y-37833533D01*
X-10650262Y-37833533D02*
X-10589786Y-37773056D01*
X-10589786Y-37773056D02*
X-10529309Y-37652104D01*
X-10529309Y-37652104D02*
X-10529309Y-37410199D01*
X-10529309Y-37410199D02*
X-10589786Y-37289247D01*
X-10589786Y-37289247D02*
X-10650262Y-37228771D01*
X-10650262Y-37228771D02*
X-10771214Y-37168294D01*
X-10771214Y-37168294D02*
X-11073595Y-37168294D01*
X-11073595Y-37168294D02*
X-11194547Y-37228771D01*
X-11194547Y-37228771D02*
X-11255024Y-37289247D01*
X-11255024Y-37289247D02*
X-11315500Y-37410199D01*
X-11315500Y-37410199D02*
X-11315500Y-37652104D01*
X-11315500Y-37652104D02*
X-11255024Y-37773056D01*
X-11255024Y-37773056D02*
X-11194547Y-37833533D01*
X-11194547Y-37833533D02*
X-11073595Y-37894009D01*
X-11555952Y-13039271D02*
X-12160714Y-13039271D01*
X-12160714Y-13039271D02*
X-12160714Y-11769271D01*
X-11132619Y-12374033D02*
X-10709285Y-12374033D01*
X-10527857Y-13039271D02*
X-11132619Y-13039271D01*
X-11132619Y-13039271D02*
X-11132619Y-11769271D01*
X-11132619Y-11769271D02*
X-10527857Y-11769271D01*
X-9983571Y-13039271D02*
X-9983571Y-11769271D01*
X-9983571Y-11769271D02*
X-9681190Y-11769271D01*
X-9681190Y-11769271D02*
X-9499761Y-11829747D01*
X-9499761Y-11829747D02*
X-9378809Y-11950699D01*
X-9378809Y-11950699D02*
X-9318332Y-12071652D01*
X-9318332Y-12071652D02*
X-9257856Y-12313556D01*
X-9257856Y-12313556D02*
X-9257856Y-12494985D01*
X-9257856Y-12494985D02*
X-9318332Y-12736890D01*
X-9318332Y-12736890D02*
X-9378809Y-12857842D01*
X-9378809Y-12857842D02*
X-9499761Y-12978795D01*
X-9499761Y-12978795D02*
X-9681190Y-13039271D01*
X-9681190Y-13039271D02*
X-9983571Y-13039271D01*
X-8774047Y-11890223D02*
X-8713571Y-11829747D01*
X-8713571Y-11829747D02*
X-8592618Y-11769271D01*
X-8592618Y-11769271D02*
X-8290237Y-11769271D01*
X-8290237Y-11769271D02*
X-8169285Y-11829747D01*
X-8169285Y-11829747D02*
X-8108809Y-11890223D01*
X-8108809Y-11890223D02*
X-8048332Y-12011175D01*
X-8048332Y-12011175D02*
X-8048332Y-12132128D01*
X-8048332Y-12132128D02*
X-8108809Y-12313556D01*
X-8108809Y-12313556D02*
X-8834523Y-13039271D01*
X-8834523Y-13039271D02*
X-8048332Y-13039271D01*
X-7624999Y-11769271D02*
X-6778332Y-11769271D01*
X-6778332Y-11769271D02*
X-7322618Y-13039271D01*
X40579271Y30974047D02*
X40579271Y30369285D01*
X40579271Y30369285D02*
X39309271Y30369285D01*
X39914033Y31397380D02*
X39914033Y31820714D01*
X40579271Y32002142D02*
X40579271Y31397380D01*
X40579271Y31397380D02*
X39309271Y31397380D01*
X39309271Y31397380D02*
X39309271Y32002142D01*
X40579271Y32546428D02*
X39309271Y32546428D01*
X39309271Y32546428D02*
X39309271Y32848809D01*
X39309271Y32848809D02*
X39369747Y33030238D01*
X39369747Y33030238D02*
X39490699Y33151190D01*
X39490699Y33151190D02*
X39611652Y33211667D01*
X39611652Y33211667D02*
X39853556Y33272143D01*
X39853556Y33272143D02*
X40034985Y33272143D01*
X40034985Y33272143D02*
X40276890Y33211667D01*
X40276890Y33211667D02*
X40397842Y33151190D01*
X40397842Y33151190D02*
X40518795Y33030238D01*
X40518795Y33030238D02*
X40579271Y32848809D01*
X40579271Y32848809D02*
X40579271Y32546428D01*
X40579271Y34481667D02*
X40579271Y33755952D01*
X40579271Y34118809D02*
X39309271Y34118809D01*
X39309271Y34118809D02*
X39490699Y33997857D01*
X39490699Y33997857D02*
X39611652Y33876905D01*
X39611652Y33876905D02*
X39672128Y33755952D01*
X40579271Y35691191D02*
X40579271Y34965476D01*
X40579271Y35328333D02*
X39309271Y35328333D01*
X39309271Y35328333D02*
X39490699Y35207381D01*
X39490699Y35207381D02*
X39611652Y35086429D01*
X39611652Y35086429D02*
X39672128Y34965476D01*
X-11555952Y6020728D02*
X-12160714Y6020728D01*
X-12160714Y6020728D02*
X-12160714Y7290728D01*
X-11132619Y6685966D02*
X-10709285Y6685966D01*
X-10527857Y6020728D02*
X-11132619Y6020728D01*
X-11132619Y6020728D02*
X-11132619Y7290728D01*
X-11132619Y7290728D02*
X-10527857Y7290728D01*
X-9983571Y6020728D02*
X-9983571Y7290728D01*
X-9983571Y7290728D02*
X-9681190Y7290728D01*
X-9681190Y7290728D02*
X-9499761Y7230252D01*
X-9499761Y7230252D02*
X-9378809Y7109300D01*
X-9378809Y7109300D02*
X-9318332Y6988347D01*
X-9318332Y6988347D02*
X-9257856Y6746443D01*
X-9257856Y6746443D02*
X-9257856Y6565014D01*
X-9257856Y6565014D02*
X-9318332Y6323109D01*
X-9318332Y6323109D02*
X-9378809Y6202157D01*
X-9378809Y6202157D02*
X-9499761Y6081205D01*
X-9499761Y6081205D02*
X-9681190Y6020728D01*
X-9681190Y6020728D02*
X-9983571Y6020728D01*
X-8774047Y7169776D02*
X-8713571Y7230252D01*
X-8713571Y7230252D02*
X-8592618Y7290728D01*
X-8592618Y7290728D02*
X-8290237Y7290728D01*
X-8290237Y7290728D02*
X-8169285Y7230252D01*
X-8169285Y7230252D02*
X-8108809Y7169776D01*
X-8108809Y7169776D02*
X-8048332Y7048824D01*
X-8048332Y7048824D02*
X-8048332Y6927871D01*
X-8048332Y6927871D02*
X-8108809Y6746443D01*
X-8108809Y6746443D02*
X-8834523Y6020728D01*
X-8834523Y6020728D02*
X-8048332Y6020728D01*
X-7624999Y7290728D02*
X-6838808Y7290728D01*
X-6838808Y7290728D02*
X-7262142Y6806919D01*
X-7262142Y6806919D02*
X-7080713Y6806919D01*
X-7080713Y6806919D02*
X-6959761Y6746443D01*
X-6959761Y6746443D02*
X-6899285Y6685966D01*
X-6899285Y6685966D02*
X-6838808Y6565014D01*
X-6838808Y6565014D02*
X-6838808Y6262633D01*
X-6838808Y6262633D02*
X-6899285Y6141681D01*
X-6899285Y6141681D02*
X-6959761Y6081205D01*
X-6959761Y6081205D02*
X-7080713Y6020728D01*
X-7080713Y6020728D02*
X-7443570Y6020728D01*
X-7443570Y6020728D02*
X-7564523Y6081205D01*
X-7564523Y6081205D02*
X-7624999Y6141681D01*
X-12421190Y43420728D02*
X-13025952Y43420728D01*
X-13025952Y43420728D02*
X-13025952Y44690728D01*
X-11997857Y44085966D02*
X-11574523Y44085966D01*
X-11393095Y43420728D02*
X-11997857Y43420728D01*
X-11997857Y43420728D02*
X-11997857Y44690728D01*
X-11997857Y44690728D02*
X-11393095Y44690728D01*
X-10848809Y43420728D02*
X-10848809Y44690728D01*
X-10848809Y44690728D02*
X-10546428Y44690728D01*
X-10546428Y44690728D02*
X-10364999Y44630252D01*
X-10364999Y44630252D02*
X-10244047Y44509300D01*
X-10244047Y44509300D02*
X-10183570Y44388347D01*
X-10183570Y44388347D02*
X-10123094Y44146443D01*
X-10123094Y44146443D02*
X-10123094Y43965014D01*
X-10123094Y43965014D02*
X-10183570Y43723109D01*
X-10183570Y43723109D02*
X-10244047Y43602157D01*
X-10244047Y43602157D02*
X-10364999Y43481205D01*
X-10364999Y43481205D02*
X-10546428Y43420728D01*
X-10546428Y43420728D02*
X-10848809Y43420728D01*
X-9639285Y44569776D02*
X-9578809Y44630252D01*
X-9578809Y44630252D02*
X-9457856Y44690728D01*
X-9457856Y44690728D02*
X-9155475Y44690728D01*
X-9155475Y44690728D02*
X-9034523Y44630252D01*
X-9034523Y44630252D02*
X-8974047Y44569776D01*
X-8974047Y44569776D02*
X-8913570Y44448824D01*
X-8913570Y44448824D02*
X-8913570Y44327871D01*
X-8913570Y44327871D02*
X-8974047Y44146443D01*
X-8974047Y44146443D02*
X-9699761Y43420728D01*
X-9699761Y43420728D02*
X-8913570Y43420728D01*
X8646612Y-759521D02*
X8707089Y-819997D01*
X8707089Y-819997D02*
X8767565Y-1001426D01*
X8767565Y-1001426D02*
X8767565Y-1122378D01*
X8767565Y-1122378D02*
X8707089Y-1303807D01*
X8707089Y-1303807D02*
X8586136Y-1424759D01*
X8586136Y-1424759D02*
X8465184Y-1485236D01*
X8465184Y-1485236D02*
X8223279Y-1545712D01*
X8223279Y-1545712D02*
X8041850Y-1545712D01*
X8041850Y-1545712D02*
X7799946Y-1485236D01*
X7799946Y-1485236D02*
X7678993Y-1424759D01*
X7678993Y-1424759D02*
X7558041Y-1303807D01*
X7558041Y-1303807D02*
X7497565Y-1122378D01*
X7497565Y-1122378D02*
X7497565Y-1001426D01*
X7497565Y-1001426D02*
X7558041Y-819997D01*
X7558041Y-819997D02*
X7618517Y-759521D01*
X7618517Y-275712D02*
X7558041Y-215236D01*
X7558041Y-215236D02*
X7497565Y-94283D01*
X7497565Y-94283D02*
X7497565Y208097D01*
X7497565Y208097D02*
X7558041Y329049D01*
X7558041Y329049D02*
X7618517Y389525D01*
X7618517Y389525D02*
X7739469Y450002D01*
X7739469Y450002D02*
X7860422Y450002D01*
X7860422Y450002D02*
X8041850Y389525D01*
X8041850Y389525D02*
X8767565Y-336188D01*
X8767565Y-336188D02*
X8767565Y450002D01*
X7920898Y1538573D02*
X8767565Y1538573D01*
X7437089Y1236192D02*
X8344231Y933811D01*
X8344231Y933811D02*
X8344231Y1720002D01*
X41532380Y41920728D02*
X41532380Y43190728D01*
X41532380Y42585966D02*
X42258095Y42585966D01*
X42258095Y41920728D02*
X42258095Y43190728D01*
X42802380Y43069776D02*
X42862856Y43130252D01*
X42862856Y43130252D02*
X42983809Y43190728D01*
X42983809Y43190728D02*
X43286190Y43190728D01*
X43286190Y43190728D02*
X43407142Y43130252D01*
X43407142Y43130252D02*
X43467618Y43069776D01*
X43467618Y43069776D02*
X43528095Y42948824D01*
X43528095Y42948824D02*
X43528095Y42827871D01*
X43528095Y42827871D02*
X43467618Y42646443D01*
X43467618Y42646443D02*
X42741904Y41920728D01*
X42741904Y41920728D02*
X43528095Y41920728D01*
X26276904Y9006205D02*
X26458333Y8945728D01*
X26458333Y8945728D02*
X26760714Y8945728D01*
X26760714Y8945728D02*
X26881666Y9006205D01*
X26881666Y9006205D02*
X26942142Y9066681D01*
X26942142Y9066681D02*
X27002619Y9187633D01*
X27002619Y9187633D02*
X27002619Y9308585D01*
X27002619Y9308585D02*
X26942142Y9429538D01*
X26942142Y9429538D02*
X26881666Y9490014D01*
X26881666Y9490014D02*
X26760714Y9550490D01*
X26760714Y9550490D02*
X26518809Y9610966D01*
X26518809Y9610966D02*
X26397857Y9671443D01*
X26397857Y9671443D02*
X26337380Y9731919D01*
X26337380Y9731919D02*
X26276904Y9852871D01*
X26276904Y9852871D02*
X26276904Y9973824D01*
X26276904Y9973824D02*
X26337380Y10094776D01*
X26337380Y10094776D02*
X26397857Y10155252D01*
X26397857Y10155252D02*
X26518809Y10215728D01*
X26518809Y10215728D02*
X26821190Y10215728D01*
X26821190Y10215728D02*
X27002619Y10155252D01*
X27425952Y10215728D02*
X27728333Y8945728D01*
X27728333Y8945728D02*
X27970238Y9852871D01*
X27970238Y9852871D02*
X28212143Y8945728D01*
X28212143Y8945728D02*
X28514524Y10215728D01*
X29663572Y8945728D02*
X28937857Y8945728D01*
X29300714Y8945728D02*
X29300714Y10215728D01*
X29300714Y10215728D02*
X29179762Y10034300D01*
X29179762Y10034300D02*
X29058810Y9913347D01*
X29058810Y9913347D02*
X28937857Y9852871D01*
X30873096Y8945728D02*
X30147381Y8945728D01*
X30510238Y8945728D02*
X30510238Y10215728D01*
X30510238Y10215728D02*
X30389286Y10034300D01*
X30389286Y10034300D02*
X30268334Y9913347D01*
X30268334Y9913347D02*
X30147381Y9852871D01*
X42275688Y380928D02*
X42275688Y-647166D01*
X42275688Y-647166D02*
X42336165Y-768118D01*
X42336165Y-768118D02*
X42396641Y-828595D01*
X42396641Y-828595D02*
X42517593Y-889071D01*
X42517593Y-889071D02*
X42759498Y-889071D01*
X42759498Y-889071D02*
X42880450Y-828595D01*
X42880450Y-828595D02*
X42940927Y-768118D01*
X42940927Y-768118D02*
X43001403Y-647166D01*
X43001403Y-647166D02*
X43001403Y380928D01*
X43545688Y259976D02*
X43606164Y320452D01*
X43606164Y320452D02*
X43727117Y380928D01*
X43727117Y380928D02*
X44029498Y380928D01*
X44029498Y380928D02*
X44150450Y320452D01*
X44150450Y320452D02*
X44210926Y259976D01*
X44210926Y259976D02*
X44271403Y139024D01*
X44271403Y139024D02*
X44271403Y18071D01*
X44271403Y18071D02*
X44210926Y-163356D01*
X44210926Y-163356D02*
X43485212Y-889071D01*
X43485212Y-889071D02*
X44271403Y-889071D01*
X-30595952Y-13039271D02*
X-31200714Y-13039271D01*
X-31200714Y-13039271D02*
X-31200714Y-11769271D01*
X-30172619Y-12374033D02*
X-29749285Y-12374033D01*
X-29567857Y-13039271D02*
X-30172619Y-13039271D01*
X-30172619Y-13039271D02*
X-30172619Y-11769271D01*
X-30172619Y-11769271D02*
X-29567857Y-11769271D01*
X-29023571Y-13039271D02*
X-29023571Y-11769271D01*
X-29023571Y-11769271D02*
X-28721190Y-11769271D01*
X-28721190Y-11769271D02*
X-28539761Y-11829747D01*
X-28539761Y-11829747D02*
X-28418809Y-11950699D01*
X-28418809Y-11950699D02*
X-28358332Y-12071652D01*
X-28358332Y-12071652D02*
X-28297856Y-12313556D01*
X-28297856Y-12313556D02*
X-28297856Y-12494985D01*
X-28297856Y-12494985D02*
X-28358332Y-12736890D01*
X-28358332Y-12736890D02*
X-28418809Y-12857842D01*
X-28418809Y-12857842D02*
X-28539761Y-12978795D01*
X-28539761Y-12978795D02*
X-28721190Y-13039271D01*
X-28721190Y-13039271D02*
X-29023571Y-13039271D01*
X-27814047Y-11890223D02*
X-27753571Y-11829747D01*
X-27753571Y-11829747D02*
X-27632618Y-11769271D01*
X-27632618Y-11769271D02*
X-27330237Y-11769271D01*
X-27330237Y-11769271D02*
X-27209285Y-11829747D01*
X-27209285Y-11829747D02*
X-27148809Y-11890223D01*
X-27148809Y-11890223D02*
X-27088332Y-12011175D01*
X-27088332Y-12011175D02*
X-27088332Y-12132128D01*
X-27088332Y-12132128D02*
X-27148809Y-12313556D01*
X-27148809Y-12313556D02*
X-27874523Y-13039271D01*
X-27874523Y-13039271D02*
X-27088332Y-13039271D01*
X-25999761Y-11769271D02*
X-26241666Y-11769271D01*
X-26241666Y-11769271D02*
X-26362618Y-11829747D01*
X-26362618Y-11829747D02*
X-26423094Y-11890223D01*
X-26423094Y-11890223D02*
X-26544047Y-12071652D01*
X-26544047Y-12071652D02*
X-26604523Y-12313556D01*
X-26604523Y-12313556D02*
X-26604523Y-12797366D01*
X-26604523Y-12797366D02*
X-26544047Y-12918318D01*
X-26544047Y-12918318D02*
X-26483570Y-12978795D01*
X-26483570Y-12978795D02*
X-26362618Y-13039271D01*
X-26362618Y-13039271D02*
X-26120713Y-13039271D01*
X-26120713Y-13039271D02*
X-25999761Y-12978795D01*
X-25999761Y-12978795D02*
X-25939285Y-12918318D01*
X-25939285Y-12918318D02*
X-25878808Y-12797366D01*
X-25878808Y-12797366D02*
X-25878808Y-12494985D01*
X-25878808Y-12494985D02*
X-25939285Y-12374033D01*
X-25939285Y-12374033D02*
X-25999761Y-12313556D01*
X-25999761Y-12313556D02*
X-26120713Y-12253080D01*
X-26120713Y-12253080D02*
X-26362618Y-12253080D01*
X-26362618Y-12253080D02*
X-26483570Y-12313556D01*
X-26483570Y-12313556D02*
X-26544047Y-12374033D01*
X-26544047Y-12374033D02*
X-26604523Y-12494985D01*
X43771240Y-13050927D02*
X43710764Y-13111404D01*
X43710764Y-13111404D02*
X43529335Y-13171880D01*
X43529335Y-13171880D02*
X43408383Y-13171880D01*
X43408383Y-13171880D02*
X43226954Y-13111404D01*
X43226954Y-13111404D02*
X43106002Y-12990451D01*
X43106002Y-12990451D02*
X43045525Y-12869499D01*
X43045525Y-12869499D02*
X42985049Y-12627594D01*
X42985049Y-12627594D02*
X42985049Y-12446165D01*
X42985049Y-12446165D02*
X43045525Y-12204261D01*
X43045525Y-12204261D02*
X43106002Y-12083308D01*
X43106002Y-12083308D02*
X43226954Y-11962356D01*
X43226954Y-11962356D02*
X43408383Y-11901880D01*
X43408383Y-11901880D02*
X43529335Y-11901880D01*
X43529335Y-11901880D02*
X43710764Y-11962356D01*
X43710764Y-11962356D02*
X43771240Y-12022832D01*
X44980764Y-13171880D02*
X44255049Y-13171880D01*
X44617906Y-13171880D02*
X44617906Y-11901880D01*
X44617906Y-11901880D02*
X44496954Y-12083308D01*
X44496954Y-12083308D02*
X44376002Y-12204261D01*
X44376002Y-12204261D02*
X44255049Y-12264737D01*
X45404097Y-11901880D02*
X46190288Y-11901880D01*
X46190288Y-11901880D02*
X45766954Y-12385689D01*
X45766954Y-12385689D02*
X45948383Y-12385689D01*
X45948383Y-12385689D02*
X46069335Y-12446165D01*
X46069335Y-12446165D02*
X46129811Y-12506642D01*
X46129811Y-12506642D02*
X46190288Y-12627594D01*
X46190288Y-12627594D02*
X46190288Y-12929975D01*
X46190288Y-12929975D02*
X46129811Y-13050927D01*
X46129811Y-13050927D02*
X46069335Y-13111404D01*
X46069335Y-13111404D02*
X45948383Y-13171880D01*
X45948383Y-13171880D02*
X45585526Y-13171880D01*
X45585526Y-13171880D02*
X45464573Y-13111404D01*
X45464573Y-13111404D02*
X45404097Y-13050927D01*
X8974047Y-40579271D02*
X8369285Y-40579271D01*
X8369285Y-40579271D02*
X8369285Y-39309271D01*
X9397380Y-39914033D02*
X9820714Y-39914033D01*
X10002142Y-40579271D02*
X9397380Y-40579271D01*
X9397380Y-40579271D02*
X9397380Y-39309271D01*
X9397380Y-39309271D02*
X10002142Y-39309271D01*
X10546428Y-40579271D02*
X10546428Y-39309271D01*
X10546428Y-39309271D02*
X10848809Y-39309271D01*
X10848809Y-39309271D02*
X11030238Y-39369747D01*
X11030238Y-39369747D02*
X11151190Y-39490699D01*
X11151190Y-39490699D02*
X11211667Y-39611652D01*
X11211667Y-39611652D02*
X11272143Y-39853556D01*
X11272143Y-39853556D02*
X11272143Y-40034985D01*
X11272143Y-40034985D02*
X11211667Y-40276890D01*
X11211667Y-40276890D02*
X11151190Y-40397842D01*
X11151190Y-40397842D02*
X11030238Y-40518795D01*
X11030238Y-40518795D02*
X10848809Y-40579271D01*
X10848809Y-40579271D02*
X10546428Y-40579271D01*
X12481667Y-40579271D02*
X11755952Y-40579271D01*
X12118809Y-40579271D02*
X12118809Y-39309271D01*
X12118809Y-39309271D02*
X11997857Y-39490699D01*
X11997857Y-39490699D02*
X11876905Y-39611652D01*
X11876905Y-39611652D02*
X11755952Y-39672128D01*
X13570238Y-39309271D02*
X13328333Y-39309271D01*
X13328333Y-39309271D02*
X13207381Y-39369747D01*
X13207381Y-39369747D02*
X13146905Y-39430223D01*
X13146905Y-39430223D02*
X13025952Y-39611652D01*
X13025952Y-39611652D02*
X12965476Y-39853556D01*
X12965476Y-39853556D02*
X12965476Y-40337366D01*
X12965476Y-40337366D02*
X13025952Y-40458318D01*
X13025952Y-40458318D02*
X13086429Y-40518795D01*
X13086429Y-40518795D02*
X13207381Y-40579271D01*
X13207381Y-40579271D02*
X13449286Y-40579271D01*
X13449286Y-40579271D02*
X13570238Y-40518795D01*
X13570238Y-40518795D02*
X13630714Y-40458318D01*
X13630714Y-40458318D02*
X13691191Y-40337366D01*
X13691191Y-40337366D02*
X13691191Y-40034985D01*
X13691191Y-40034985D02*
X13630714Y-39914033D01*
X13630714Y-39914033D02*
X13570238Y-39853556D01*
X13570238Y-39853556D02*
X13449286Y-39793080D01*
X13449286Y-39793080D02*
X13207381Y-39793080D01*
X13207381Y-39793080D02*
X13086429Y-39853556D01*
X13086429Y-39853556D02*
X13025952Y-39914033D01*
X13025952Y-39914033D02*
X12965476Y-40034985D01*
X-19081028Y37297401D02*
X-19504362Y37902163D01*
X-19806743Y37297401D02*
X-19806743Y38567401D01*
X-19806743Y38567401D02*
X-19322933Y38567401D01*
X-19322933Y38567401D02*
X-19201981Y38506925D01*
X-19201981Y38506925D02*
X-19141504Y38446449D01*
X-19141504Y38446449D02*
X-19081028Y38325497D01*
X-19081028Y38325497D02*
X-19081028Y38144068D01*
X-19081028Y38144068D02*
X-19141504Y38023116D01*
X-19141504Y38023116D02*
X-19201981Y37962639D01*
X-19201981Y37962639D02*
X-19322933Y37902163D01*
X-19322933Y37902163D02*
X-19806743Y37902163D01*
X-17871504Y37297401D02*
X-18597219Y37297401D01*
X-18234362Y37297401D02*
X-18234362Y38567401D01*
X-18234362Y38567401D02*
X-18355314Y38385973D01*
X-18355314Y38385973D02*
X-18476266Y38265020D01*
X-18476266Y38265020D02*
X-18597219Y38204544D01*
X27572393Y-759521D02*
X27632870Y-819997D01*
X27632870Y-819997D02*
X27693346Y-1001426D01*
X27693346Y-1001426D02*
X27693346Y-1122378D01*
X27693346Y-1122378D02*
X27632870Y-1303807D01*
X27632870Y-1303807D02*
X27511917Y-1424759D01*
X27511917Y-1424759D02*
X27390965Y-1485236D01*
X27390965Y-1485236D02*
X27149060Y-1545712D01*
X27149060Y-1545712D02*
X26967631Y-1545712D01*
X26967631Y-1545712D02*
X26725727Y-1485236D01*
X26725727Y-1485236D02*
X26604774Y-1424759D01*
X26604774Y-1424759D02*
X26483822Y-1303807D01*
X26483822Y-1303807D02*
X26423346Y-1122378D01*
X26423346Y-1122378D02*
X26423346Y-1001426D01*
X26423346Y-1001426D02*
X26483822Y-819997D01*
X26483822Y-819997D02*
X26544298Y-759521D01*
X26544298Y-275712D02*
X26483822Y-215236D01*
X26483822Y-215236D02*
X26423346Y-94283D01*
X26423346Y-94283D02*
X26423346Y208097D01*
X26423346Y208097D02*
X26483822Y329049D01*
X26483822Y329049D02*
X26544298Y389525D01*
X26544298Y389525D02*
X26665250Y450002D01*
X26665250Y450002D02*
X26786203Y450002D01*
X26786203Y450002D02*
X26967631Y389525D01*
X26967631Y389525D02*
X27693346Y-336188D01*
X27693346Y-336188D02*
X27693346Y450002D01*
X26423346Y1599049D02*
X26423346Y994287D01*
X26423346Y994287D02*
X27028108Y933811D01*
X27028108Y933811D02*
X26967631Y994287D01*
X26967631Y994287D02*
X26907155Y1115240D01*
X26907155Y1115240D02*
X26907155Y1417621D01*
X26907155Y1417621D02*
X26967631Y1538573D01*
X26967631Y1538573D02*
X27028108Y1599049D01*
X27028108Y1599049D02*
X27149060Y1659526D01*
X27149060Y1659526D02*
X27451441Y1659526D01*
X27451441Y1659526D02*
X27572393Y1599049D01*
X27572393Y1599049D02*
X27632870Y1538573D01*
X27632870Y1538573D02*
X27693346Y1417621D01*
X27693346Y1417621D02*
X27693346Y1115240D01*
X27693346Y1115240D02*
X27632870Y994287D01*
X27632870Y994287D02*
X27572393Y933811D01*
X-10650262Y18166458D02*
X-10589786Y18105982D01*
X-10589786Y18105982D02*
X-10529309Y17924553D01*
X-10529309Y17924553D02*
X-10529309Y17803601D01*
X-10529309Y17803601D02*
X-10589786Y17622172D01*
X-10589786Y17622172D02*
X-10710738Y17501220D01*
X-10710738Y17501220D02*
X-10831690Y17440743D01*
X-10831690Y17440743D02*
X-11073595Y17380267D01*
X-11073595Y17380267D02*
X-11255024Y17380267D01*
X-11255024Y17380267D02*
X-11496928Y17440743D01*
X-11496928Y17440743D02*
X-11617881Y17501220D01*
X-11617881Y17501220D02*
X-11738833Y17622172D01*
X-11738833Y17622172D02*
X-11799309Y17803601D01*
X-11799309Y17803601D02*
X-11799309Y17924553D01*
X-11799309Y17924553D02*
X-11738833Y18105982D01*
X-11738833Y18105982D02*
X-11678357Y18166458D01*
X-11678357Y18650267D02*
X-11738833Y18710743D01*
X-11738833Y18710743D02*
X-11799309Y18831696D01*
X-11799309Y18831696D02*
X-11799309Y19134077D01*
X-11799309Y19134077D02*
X-11738833Y19255029D01*
X-11738833Y19255029D02*
X-11678357Y19315505D01*
X-11678357Y19315505D02*
X-11557405Y19375982D01*
X-11557405Y19375982D02*
X-11436452Y19375982D01*
X-11436452Y19375982D02*
X-11255024Y19315505D01*
X-11255024Y19315505D02*
X-10529309Y18589791D01*
X-10529309Y18589791D02*
X-10529309Y19375982D01*
X-11799309Y20162172D02*
X-11799309Y20283125D01*
X-11799309Y20283125D02*
X-11738833Y20404077D01*
X-11738833Y20404077D02*
X-11678357Y20464553D01*
X-11678357Y20464553D02*
X-11557405Y20525029D01*
X-11557405Y20525029D02*
X-11315500Y20585506D01*
X-11315500Y20585506D02*
X-11013119Y20585506D01*
X-11013119Y20585506D02*
X-10771214Y20525029D01*
X-10771214Y20525029D02*
X-10650262Y20464553D01*
X-10650262Y20464553D02*
X-10589786Y20404077D01*
X-10589786Y20404077D02*
X-10529309Y20283125D01*
X-10529309Y20283125D02*
X-10529309Y20162172D01*
X-10529309Y20162172D02*
X-10589786Y20041220D01*
X-10589786Y20041220D02*
X-10650262Y19980744D01*
X-10650262Y19980744D02*
X-10771214Y19920267D01*
X-10771214Y19920267D02*
X-11013119Y19859791D01*
X-11013119Y19859791D02*
X-11315500Y19859791D01*
X-11315500Y19859791D02*
X-11557405Y19920267D01*
X-11557405Y19920267D02*
X-11678357Y19980744D01*
X-11678357Y19980744D02*
X-11738833Y20041220D01*
X-11738833Y20041220D02*
X-11799309Y20162172D01*
X-34421190Y-40579271D02*
X-35025952Y-40579271D01*
X-35025952Y-40579271D02*
X-35025952Y-39309271D01*
X-33997857Y-39914033D02*
X-33574523Y-39914033D01*
X-33393095Y-40579271D02*
X-33997857Y-40579271D01*
X-33997857Y-40579271D02*
X-33997857Y-39309271D01*
X-33997857Y-39309271D02*
X-33393095Y-39309271D01*
X-32848809Y-40579271D02*
X-32848809Y-39309271D01*
X-32848809Y-39309271D02*
X-32546428Y-39309271D01*
X-32546428Y-39309271D02*
X-32364999Y-39369747D01*
X-32364999Y-39369747D02*
X-32244047Y-39490699D01*
X-32244047Y-39490699D02*
X-32183570Y-39611652D01*
X-32183570Y-39611652D02*
X-32123094Y-39853556D01*
X-32123094Y-39853556D02*
X-32123094Y-40034985D01*
X-32123094Y-40034985D02*
X-32183570Y-40276890D01*
X-32183570Y-40276890D02*
X-32244047Y-40397842D01*
X-32244047Y-40397842D02*
X-32364999Y-40518795D01*
X-32364999Y-40518795D02*
X-32546428Y-40579271D01*
X-32546428Y-40579271D02*
X-32848809Y-40579271D01*
X-31034523Y-39732604D02*
X-31034523Y-40579271D01*
X-31336904Y-39248795D02*
X-31639285Y-40155937D01*
X-31639285Y-40155937D02*
X-30853094Y-40155937D01*
X-30873095Y-10043795D02*
X-30691666Y-10104271D01*
X-30691666Y-10104271D02*
X-30389285Y-10104271D01*
X-30389285Y-10104271D02*
X-30268333Y-10043795D01*
X-30268333Y-10043795D02*
X-30207857Y-9983318D01*
X-30207857Y-9983318D02*
X-30147380Y-9862366D01*
X-30147380Y-9862366D02*
X-30147380Y-9741414D01*
X-30147380Y-9741414D02*
X-30207857Y-9620461D01*
X-30207857Y-9620461D02*
X-30268333Y-9559985D01*
X-30268333Y-9559985D02*
X-30389285Y-9499509D01*
X-30389285Y-9499509D02*
X-30631190Y-9439033D01*
X-30631190Y-9439033D02*
X-30752142Y-9378556D01*
X-30752142Y-9378556D02*
X-30812619Y-9318080D01*
X-30812619Y-9318080D02*
X-30873095Y-9197128D01*
X-30873095Y-9197128D02*
X-30873095Y-9076175D01*
X-30873095Y-9076175D02*
X-30812619Y-8955223D01*
X-30812619Y-8955223D02*
X-30752142Y-8894747D01*
X-30752142Y-8894747D02*
X-30631190Y-8834271D01*
X-30631190Y-8834271D02*
X-30328809Y-8834271D01*
X-30328809Y-8834271D02*
X-30147380Y-8894747D01*
X-29724047Y-8834271D02*
X-29421666Y-10104271D01*
X-29421666Y-10104271D02*
X-29179761Y-9197128D01*
X-29179761Y-9197128D02*
X-28937856Y-10104271D01*
X-28937856Y-10104271D02*
X-28635476Y-8834271D01*
X-27486427Y-10104271D02*
X-28212142Y-10104271D01*
X-27849285Y-10104271D02*
X-27849285Y-8834271D01*
X-27849285Y-8834271D02*
X-27970237Y-9015699D01*
X-27970237Y-9015699D02*
X-28091189Y-9136652D01*
X-28091189Y-9136652D02*
X-28212142Y-9197128D01*
X-27002618Y-8955223D02*
X-26942142Y-8894747D01*
X-26942142Y-8894747D02*
X-26821189Y-8834271D01*
X-26821189Y-8834271D02*
X-26518808Y-8834271D01*
X-26518808Y-8834271D02*
X-26397856Y-8894747D01*
X-26397856Y-8894747D02*
X-26337380Y-8955223D01*
X-26337380Y-8955223D02*
X-26276903Y-9076175D01*
X-26276903Y-9076175D02*
X-26276903Y-9197128D01*
X-26276903Y-9197128D02*
X-26337380Y-9378556D01*
X-26337380Y-9378556D02*
X-27063094Y-10104271D01*
X-27063094Y-10104271D02*
X-26276903Y-10104271D01*
X-11218333Y28056205D02*
X-11036904Y27995728D01*
X-11036904Y27995728D02*
X-10734523Y27995728D01*
X-10734523Y27995728D02*
X-10613571Y28056205D01*
X-10613571Y28056205D02*
X-10553095Y28116681D01*
X-10553095Y28116681D02*
X-10492618Y28237633D01*
X-10492618Y28237633D02*
X-10492618Y28358585D01*
X-10492618Y28358585D02*
X-10553095Y28479538D01*
X-10553095Y28479538D02*
X-10613571Y28540014D01*
X-10613571Y28540014D02*
X-10734523Y28600490D01*
X-10734523Y28600490D02*
X-10976428Y28660966D01*
X-10976428Y28660966D02*
X-11097380Y28721443D01*
X-11097380Y28721443D02*
X-11157857Y28781919D01*
X-11157857Y28781919D02*
X-11218333Y28902871D01*
X-11218333Y28902871D02*
X-11218333Y29023824D01*
X-11218333Y29023824D02*
X-11157857Y29144776D01*
X-11157857Y29144776D02*
X-11097380Y29205252D01*
X-11097380Y29205252D02*
X-10976428Y29265728D01*
X-10976428Y29265728D02*
X-10674047Y29265728D01*
X-10674047Y29265728D02*
X-10492618Y29205252D01*
X-10069285Y29265728D02*
X-9766904Y27995728D01*
X-9766904Y27995728D02*
X-9524999Y28902871D01*
X-9524999Y28902871D02*
X-9283094Y27995728D01*
X-9283094Y27995728D02*
X-8980714Y29265728D01*
X-8617856Y29265728D02*
X-7831665Y29265728D01*
X-7831665Y29265728D02*
X-8254999Y28781919D01*
X-8254999Y28781919D02*
X-8073570Y28781919D01*
X-8073570Y28781919D02*
X-7952618Y28721443D01*
X-7952618Y28721443D02*
X-7892142Y28660966D01*
X-7892142Y28660966D02*
X-7831665Y28540014D01*
X-7831665Y28540014D02*
X-7831665Y28237633D01*
X-7831665Y28237633D02*
X-7892142Y28116681D01*
X-7892142Y28116681D02*
X-7952618Y28056205D01*
X-7952618Y28056205D02*
X-8073570Y27995728D01*
X-8073570Y27995728D02*
X-8436427Y27995728D01*
X-8436427Y27995728D02*
X-8557380Y28056205D01*
X-8557380Y28056205D02*
X-8617856Y28116681D01*
X-43420728Y9578809D02*
X-43420728Y8974047D01*
X-43420728Y8974047D02*
X-44690728Y8974047D01*
X-44085966Y10002142D02*
X-44085966Y10425476D01*
X-43420728Y10606904D02*
X-43420728Y10002142D01*
X-43420728Y10002142D02*
X-44690728Y10002142D01*
X-44690728Y10002142D02*
X-44690728Y10606904D01*
X-43420728Y11151190D02*
X-44690728Y11151190D01*
X-44690728Y11151190D02*
X-44690728Y11453571D01*
X-44690728Y11453571D02*
X-44630252Y11635000D01*
X-44630252Y11635000D02*
X-44509300Y11755952D01*
X-44509300Y11755952D02*
X-44388347Y11816429D01*
X-44388347Y11816429D02*
X-44146443Y11876905D01*
X-44146443Y11876905D02*
X-43965014Y11876905D01*
X-43965014Y11876905D02*
X-43723109Y11816429D01*
X-43723109Y11816429D02*
X-43602157Y11755952D01*
X-43602157Y11755952D02*
X-43481205Y11635000D01*
X-43481205Y11635000D02*
X-43420728Y11453571D01*
X-43420728Y11453571D02*
X-43420728Y11151190D01*
X-44690728Y12300238D02*
X-44690728Y13146905D01*
X-44690728Y13146905D02*
X-43420728Y12602619D01*
X-11555952Y25060728D02*
X-12160714Y25060728D01*
X-12160714Y25060728D02*
X-12160714Y26330728D01*
X-11132619Y25725966D02*
X-10709285Y25725966D01*
X-10527857Y25060728D02*
X-11132619Y25060728D01*
X-11132619Y25060728D02*
X-11132619Y26330728D01*
X-11132619Y26330728D02*
X-10527857Y26330728D01*
X-9983571Y25060728D02*
X-9983571Y26330728D01*
X-9983571Y26330728D02*
X-9681190Y26330728D01*
X-9681190Y26330728D02*
X-9499761Y26270252D01*
X-9499761Y26270252D02*
X-9378809Y26149300D01*
X-9378809Y26149300D02*
X-9318332Y26028347D01*
X-9318332Y26028347D02*
X-9257856Y25786443D01*
X-9257856Y25786443D02*
X-9257856Y25605014D01*
X-9257856Y25605014D02*
X-9318332Y25363109D01*
X-9318332Y25363109D02*
X-9378809Y25242157D01*
X-9378809Y25242157D02*
X-9499761Y25121205D01*
X-9499761Y25121205D02*
X-9681190Y25060728D01*
X-9681190Y25060728D02*
X-9983571Y25060728D01*
X-8048332Y25060728D02*
X-8774047Y25060728D01*
X-8411190Y25060728D02*
X-8411190Y26330728D01*
X-8411190Y26330728D02*
X-8532142Y26149300D01*
X-8532142Y26149300D02*
X-8653094Y26028347D01*
X-8653094Y26028347D02*
X-8774047Y25967871D01*
X-7624999Y26330728D02*
X-6778332Y26330728D01*
X-6778332Y26330728D02*
X-7322618Y25060728D01*
X7226904Y-10043795D02*
X7408333Y-10104271D01*
X7408333Y-10104271D02*
X7710714Y-10104271D01*
X7710714Y-10104271D02*
X7831666Y-10043795D01*
X7831666Y-10043795D02*
X7892142Y-9983318D01*
X7892142Y-9983318D02*
X7952619Y-9862366D01*
X7952619Y-9862366D02*
X7952619Y-9741414D01*
X7952619Y-9741414D02*
X7892142Y-9620461D01*
X7892142Y-9620461D02*
X7831666Y-9559985D01*
X7831666Y-9559985D02*
X7710714Y-9499509D01*
X7710714Y-9499509D02*
X7468809Y-9439033D01*
X7468809Y-9439033D02*
X7347857Y-9378556D01*
X7347857Y-9378556D02*
X7287380Y-9318080D01*
X7287380Y-9318080D02*
X7226904Y-9197128D01*
X7226904Y-9197128D02*
X7226904Y-9076175D01*
X7226904Y-9076175D02*
X7287380Y-8955223D01*
X7287380Y-8955223D02*
X7347857Y-8894747D01*
X7347857Y-8894747D02*
X7468809Y-8834271D01*
X7468809Y-8834271D02*
X7771190Y-8834271D01*
X7771190Y-8834271D02*
X7952619Y-8894747D01*
X8375952Y-8834271D02*
X8678333Y-10104271D01*
X8678333Y-10104271D02*
X8920238Y-9197128D01*
X8920238Y-9197128D02*
X9162143Y-10104271D01*
X9162143Y-10104271D02*
X9464524Y-8834271D01*
X10613572Y-10104271D02*
X9887857Y-10104271D01*
X10250714Y-10104271D02*
X10250714Y-8834271D01*
X10250714Y-8834271D02*
X10129762Y-9015699D01*
X10129762Y-9015699D02*
X10008810Y-9136652D01*
X10008810Y-9136652D02*
X9887857Y-9197128D01*
X11702143Y-9257604D02*
X11702143Y-10104271D01*
X11399762Y-8773795D02*
X11097381Y-9680937D01*
X11097381Y-9680937D02*
X11883572Y-9680937D01*
X27572393Y-19080739D02*
X27632870Y-19141215D01*
X27632870Y-19141215D02*
X27693346Y-19322644D01*
X27693346Y-19322644D02*
X27693346Y-19443596D01*
X27693346Y-19443596D02*
X27632870Y-19625025D01*
X27632870Y-19625025D02*
X27511917Y-19745977D01*
X27511917Y-19745977D02*
X27390965Y-19806454D01*
X27390965Y-19806454D02*
X27149060Y-19866930D01*
X27149060Y-19866930D02*
X26967631Y-19866930D01*
X26967631Y-19866930D02*
X26725727Y-19806454D01*
X26725727Y-19806454D02*
X26604774Y-19745977D01*
X26604774Y-19745977D02*
X26483822Y-19625025D01*
X26483822Y-19625025D02*
X26423346Y-19443596D01*
X26423346Y-19443596D02*
X26423346Y-19322644D01*
X26423346Y-19322644D02*
X26483822Y-19141215D01*
X26483822Y-19141215D02*
X26544298Y-19080739D01*
X26423346Y-17931692D02*
X26423346Y-18536454D01*
X26423346Y-18536454D02*
X27028108Y-18596930D01*
X27028108Y-18596930D02*
X26967631Y-18536454D01*
X26967631Y-18536454D02*
X26907155Y-18415501D01*
X26907155Y-18415501D02*
X26907155Y-18113120D01*
X26907155Y-18113120D02*
X26967631Y-17992168D01*
X26967631Y-17992168D02*
X27028108Y-17931692D01*
X27028108Y-17931692D02*
X27149060Y-17871215D01*
X27149060Y-17871215D02*
X27451441Y-17871215D01*
X27451441Y-17871215D02*
X27572393Y-17931692D01*
X27572393Y-17931692D02*
X27632870Y-17992168D01*
X27632870Y-17992168D02*
X27693346Y-18113120D01*
X27693346Y-18113120D02*
X27693346Y-18415501D01*
X27693346Y-18415501D02*
X27632870Y-18536454D01*
X27632870Y-18536454D02*
X27572393Y-18596930D01*
X26276904Y-10043795D02*
X26458333Y-10104271D01*
X26458333Y-10104271D02*
X26760714Y-10104271D01*
X26760714Y-10104271D02*
X26881666Y-10043795D01*
X26881666Y-10043795D02*
X26942142Y-9983318D01*
X26942142Y-9983318D02*
X27002619Y-9862366D01*
X27002619Y-9862366D02*
X27002619Y-9741414D01*
X27002619Y-9741414D02*
X26942142Y-9620461D01*
X26942142Y-9620461D02*
X26881666Y-9559985D01*
X26881666Y-9559985D02*
X26760714Y-9499509D01*
X26760714Y-9499509D02*
X26518809Y-9439033D01*
X26518809Y-9439033D02*
X26397857Y-9378556D01*
X26397857Y-9378556D02*
X26337380Y-9318080D01*
X26337380Y-9318080D02*
X26276904Y-9197128D01*
X26276904Y-9197128D02*
X26276904Y-9076175D01*
X26276904Y-9076175D02*
X26337380Y-8955223D01*
X26337380Y-8955223D02*
X26397857Y-8894747D01*
X26397857Y-8894747D02*
X26518809Y-8834271D01*
X26518809Y-8834271D02*
X26821190Y-8834271D01*
X26821190Y-8834271D02*
X27002619Y-8894747D01*
X27425952Y-8834271D02*
X27728333Y-10104271D01*
X27728333Y-10104271D02*
X27970238Y-9197128D01*
X27970238Y-9197128D02*
X28212143Y-10104271D01*
X28212143Y-10104271D02*
X28514524Y-8834271D01*
X29663572Y-10104271D02*
X28937857Y-10104271D01*
X29300714Y-10104271D02*
X29300714Y-8834271D01*
X29300714Y-8834271D02*
X29179762Y-9015699D01*
X29179762Y-9015699D02*
X29058810Y-9136652D01*
X29058810Y-9136652D02*
X28937857Y-9197128D01*
X30812619Y-8834271D02*
X30207857Y-8834271D01*
X30207857Y-8834271D02*
X30147381Y-9439033D01*
X30147381Y-9439033D02*
X30207857Y-9378556D01*
X30207857Y-9378556D02*
X30328810Y-9318080D01*
X30328810Y-9318080D02*
X30631191Y-9318080D01*
X30631191Y-9318080D02*
X30752143Y-9378556D01*
X30752143Y-9378556D02*
X30812619Y-9439033D01*
X30812619Y-9439033D02*
X30873096Y-9559985D01*
X30873096Y-9559985D02*
X30873096Y-9862366D01*
X30873096Y-9862366D02*
X30812619Y-9983318D01*
X30812619Y-9983318D02*
X30752143Y-10043795D01*
X30752143Y-10043795D02*
X30631191Y-10104271D01*
X30631191Y-10104271D02*
X30328810Y-10104271D01*
X30328810Y-10104271D02*
X30207857Y-10043795D01*
X30207857Y-10043795D02*
X30147381Y-9983318D01*
X-30177618Y-27884271D02*
X-29451904Y-27884271D01*
X-29814761Y-29154271D02*
X-29814761Y-27884271D01*
X-29028571Y-29154271D02*
X-29028571Y-27884271D01*
X-29028571Y-27884271D02*
X-28544761Y-27884271D01*
X-28544761Y-27884271D02*
X-28423809Y-27944747D01*
X-28423809Y-27944747D02*
X-28363332Y-28005223D01*
X-28363332Y-28005223D02*
X-28302856Y-28126175D01*
X-28302856Y-28126175D02*
X-28302856Y-28307604D01*
X-28302856Y-28307604D02*
X-28363332Y-28428556D01*
X-28363332Y-28428556D02*
X-28423809Y-28489033D01*
X-28423809Y-28489033D02*
X-28544761Y-28549509D01*
X-28544761Y-28549509D02*
X-29028571Y-28549509D01*
X-27093332Y-29154271D02*
X-27819047Y-29154271D01*
X-27456190Y-29154271D02*
X-27456190Y-27884271D01*
X-27456190Y-27884271D02*
X-27577142Y-28065699D01*
X-27577142Y-28065699D02*
X-27698094Y-28186652D01*
X-27698094Y-28186652D02*
X-27819047Y-28247128D01*
X-11823095Y-10043795D02*
X-11641666Y-10104271D01*
X-11641666Y-10104271D02*
X-11339285Y-10104271D01*
X-11339285Y-10104271D02*
X-11218333Y-10043795D01*
X-11218333Y-10043795D02*
X-11157857Y-9983318D01*
X-11157857Y-9983318D02*
X-11097380Y-9862366D01*
X-11097380Y-9862366D02*
X-11097380Y-9741414D01*
X-11097380Y-9741414D02*
X-11157857Y-9620461D01*
X-11157857Y-9620461D02*
X-11218333Y-9559985D01*
X-11218333Y-9559985D02*
X-11339285Y-9499509D01*
X-11339285Y-9499509D02*
X-11581190Y-9439033D01*
X-11581190Y-9439033D02*
X-11702142Y-9378556D01*
X-11702142Y-9378556D02*
X-11762619Y-9318080D01*
X-11762619Y-9318080D02*
X-11823095Y-9197128D01*
X-11823095Y-9197128D02*
X-11823095Y-9076175D01*
X-11823095Y-9076175D02*
X-11762619Y-8955223D01*
X-11762619Y-8955223D02*
X-11702142Y-8894747D01*
X-11702142Y-8894747D02*
X-11581190Y-8834271D01*
X-11581190Y-8834271D02*
X-11278809Y-8834271D01*
X-11278809Y-8834271D02*
X-11097380Y-8894747D01*
X-10674047Y-8834271D02*
X-10371666Y-10104271D01*
X-10371666Y-10104271D02*
X-10129761Y-9197128D01*
X-10129761Y-9197128D02*
X-9887856Y-10104271D01*
X-9887856Y-10104271D02*
X-9585476Y-8834271D01*
X-8436427Y-10104271D02*
X-9162142Y-10104271D01*
X-8799285Y-10104271D02*
X-8799285Y-8834271D01*
X-8799285Y-8834271D02*
X-8920237Y-9015699D01*
X-8920237Y-9015699D02*
X-9041189Y-9136652D01*
X-9041189Y-9136652D02*
X-9162142Y-9197128D01*
X-8013094Y-8834271D02*
X-7226903Y-8834271D01*
X-7226903Y-8834271D02*
X-7650237Y-9318080D01*
X-7650237Y-9318080D02*
X-7468808Y-9318080D01*
X-7468808Y-9318080D02*
X-7347856Y-9378556D01*
X-7347856Y-9378556D02*
X-7287380Y-9439033D01*
X-7287380Y-9439033D02*
X-7226903Y-9559985D01*
X-7226903Y-9559985D02*
X-7226903Y-9862366D01*
X-7226903Y-9862366D02*
X-7287380Y-9983318D01*
X-7287380Y-9983318D02*
X-7347856Y-10043795D01*
X-7347856Y-10043795D02*
X-7468808Y-10104271D01*
X-7468808Y-10104271D02*
X-7831665Y-10104271D01*
X-7831665Y-10104271D02*
X-7952618Y-10043795D01*
X-7952618Y-10043795D02*
X-8013094Y-9983318D01*
X-11218333Y-29093795D02*
X-11036904Y-29154271D01*
X-11036904Y-29154271D02*
X-10734523Y-29154271D01*
X-10734523Y-29154271D02*
X-10613571Y-29093795D01*
X-10613571Y-29093795D02*
X-10553095Y-29033318D01*
X-10553095Y-29033318D02*
X-10492618Y-28912366D01*
X-10492618Y-28912366D02*
X-10492618Y-28791414D01*
X-10492618Y-28791414D02*
X-10553095Y-28670461D01*
X-10553095Y-28670461D02*
X-10613571Y-28609985D01*
X-10613571Y-28609985D02*
X-10734523Y-28549509D01*
X-10734523Y-28549509D02*
X-10976428Y-28489033D01*
X-10976428Y-28489033D02*
X-11097380Y-28428556D01*
X-11097380Y-28428556D02*
X-11157857Y-28368080D01*
X-11157857Y-28368080D02*
X-11218333Y-28247128D01*
X-11218333Y-28247128D02*
X-11218333Y-28126175D01*
X-11218333Y-28126175D02*
X-11157857Y-28005223D01*
X-11157857Y-28005223D02*
X-11097380Y-27944747D01*
X-11097380Y-27944747D02*
X-10976428Y-27884271D01*
X-10976428Y-27884271D02*
X-10674047Y-27884271D01*
X-10674047Y-27884271D02*
X-10492618Y-27944747D01*
X-10069285Y-27884271D02*
X-9766904Y-29154271D01*
X-9766904Y-29154271D02*
X-9524999Y-28247128D01*
X-9524999Y-28247128D02*
X-9283094Y-29154271D01*
X-9283094Y-29154271D02*
X-8980714Y-27884271D01*
X-7892142Y-27884271D02*
X-8496904Y-27884271D01*
X-8496904Y-27884271D02*
X-8557380Y-28489033D01*
X-8557380Y-28489033D02*
X-8496904Y-28428556D01*
X-8496904Y-28428556D02*
X-8375951Y-28368080D01*
X-8375951Y-28368080D02*
X-8073570Y-28368080D01*
X-8073570Y-28368080D02*
X-7952618Y-28428556D01*
X-7952618Y-28428556D02*
X-7892142Y-28489033D01*
X-7892142Y-28489033D02*
X-7831665Y-28609985D01*
X-7831665Y-28609985D02*
X-7831665Y-28912366D01*
X-7831665Y-28912366D02*
X-7892142Y-29033318D01*
X-7892142Y-29033318D02*
X-7952618Y-29093795D01*
X-7952618Y-29093795D02*
X-8073570Y-29154271D01*
X-8073570Y-29154271D02*
X-8375951Y-29154271D01*
X-8375951Y-29154271D02*
X-8496904Y-29093795D01*
X-8496904Y-29093795D02*
X-8557380Y-29033318D01*
X-17443387Y44376959D02*
X-17382911Y44316483D01*
X-17382911Y44316483D02*
X-17322434Y44135054D01*
X-17322434Y44135054D02*
X-17322434Y44014102D01*
X-17322434Y44014102D02*
X-17382911Y43832673D01*
X-17382911Y43832673D02*
X-17503863Y43711721D01*
X-17503863Y43711721D02*
X-17624815Y43651244D01*
X-17624815Y43651244D02*
X-17866720Y43590768D01*
X-17866720Y43590768D02*
X-18048149Y43590768D01*
X-18048149Y43590768D02*
X-18290053Y43651244D01*
X-18290053Y43651244D02*
X-18411006Y43711721D01*
X-18411006Y43711721D02*
X-18531958Y43832673D01*
X-18531958Y43832673D02*
X-18592434Y44014102D01*
X-18592434Y44014102D02*
X-18592434Y44135054D01*
X-18592434Y44135054D02*
X-18531958Y44316483D01*
X-18531958Y44316483D02*
X-18471482Y44376959D01*
X-17322434Y45586483D02*
X-17322434Y44860768D01*
X-17322434Y45223625D02*
X-18592434Y45223625D01*
X-18592434Y45223625D02*
X-18411006Y45102673D01*
X-18411006Y45102673D02*
X-18290053Y44981721D01*
X-18290053Y44981721D02*
X-18229577Y44860768D01*
X7504047Y-13039271D02*
X6899285Y-13039271D01*
X6899285Y-13039271D02*
X6899285Y-11769271D01*
X7927380Y-12374033D02*
X8350714Y-12374033D01*
X8532142Y-13039271D02*
X7927380Y-13039271D01*
X7927380Y-13039271D02*
X7927380Y-11769271D01*
X7927380Y-11769271D02*
X8532142Y-11769271D01*
X9076428Y-13039271D02*
X9076428Y-11769271D01*
X9076428Y-11769271D02*
X9378809Y-11769271D01*
X9378809Y-11769271D02*
X9560238Y-11829747D01*
X9560238Y-11829747D02*
X9681190Y-11950699D01*
X9681190Y-11950699D02*
X9741667Y-12071652D01*
X9741667Y-12071652D02*
X9802143Y-12313556D01*
X9802143Y-12313556D02*
X9802143Y-12494985D01*
X9802143Y-12494985D02*
X9741667Y-12736890D01*
X9741667Y-12736890D02*
X9681190Y-12857842D01*
X9681190Y-12857842D02*
X9560238Y-12978795D01*
X9560238Y-12978795D02*
X9378809Y-13039271D01*
X9378809Y-13039271D02*
X9076428Y-13039271D01*
X10285952Y-11890223D02*
X10346428Y-11829747D01*
X10346428Y-11829747D02*
X10467381Y-11769271D01*
X10467381Y-11769271D02*
X10769762Y-11769271D01*
X10769762Y-11769271D02*
X10890714Y-11829747D01*
X10890714Y-11829747D02*
X10951190Y-11890223D01*
X10951190Y-11890223D02*
X11011667Y-12011175D01*
X11011667Y-12011175D02*
X11011667Y-12132128D01*
X11011667Y-12132128D02*
X10951190Y-12313556D01*
X10951190Y-12313556D02*
X10225476Y-13039271D01*
X10225476Y-13039271D02*
X11011667Y-13039271D01*
X11737381Y-12313556D02*
X11616429Y-12253080D01*
X11616429Y-12253080D02*
X11555952Y-12192604D01*
X11555952Y-12192604D02*
X11495476Y-12071652D01*
X11495476Y-12071652D02*
X11495476Y-12011175D01*
X11495476Y-12011175D02*
X11555952Y-11890223D01*
X11555952Y-11890223D02*
X11616429Y-11829747D01*
X11616429Y-11829747D02*
X11737381Y-11769271D01*
X11737381Y-11769271D02*
X11979286Y-11769271D01*
X11979286Y-11769271D02*
X12100238Y-11829747D01*
X12100238Y-11829747D02*
X12160714Y-11890223D01*
X12160714Y-11890223D02*
X12221191Y-12011175D01*
X12221191Y-12011175D02*
X12221191Y-12071652D01*
X12221191Y-12071652D02*
X12160714Y-12192604D01*
X12160714Y-12192604D02*
X12100238Y-12253080D01*
X12100238Y-12253080D02*
X11979286Y-12313556D01*
X11979286Y-12313556D02*
X11737381Y-12313556D01*
X11737381Y-12313556D02*
X11616429Y-12374033D01*
X11616429Y-12374033D02*
X11555952Y-12434509D01*
X11555952Y-12434509D02*
X11495476Y-12555461D01*
X11495476Y-12555461D02*
X11495476Y-12797366D01*
X11495476Y-12797366D02*
X11555952Y-12918318D01*
X11555952Y-12918318D02*
X11616429Y-12978795D01*
X11616429Y-12978795D02*
X11737381Y-13039271D01*
X11737381Y-13039271D02*
X11979286Y-13039271D01*
X11979286Y-13039271D02*
X12100238Y-12978795D01*
X12100238Y-12978795D02*
X12160714Y-12918318D01*
X12160714Y-12918318D02*
X12221191Y-12797366D01*
X12221191Y-12797366D02*
X12221191Y-12555461D01*
X12221191Y-12555461D02*
X12160714Y-12434509D01*
X12160714Y-12434509D02*
X12100238Y-12374033D01*
X12100238Y-12374033D02*
X11979286Y-12313556D01*
X7831666Y28056205D02*
X8013095Y27995728D01*
X8013095Y27995728D02*
X8315476Y27995728D01*
X8315476Y27995728D02*
X8436428Y28056205D01*
X8436428Y28056205D02*
X8496904Y28116681D01*
X8496904Y28116681D02*
X8557381Y28237633D01*
X8557381Y28237633D02*
X8557381Y28358585D01*
X8557381Y28358585D02*
X8496904Y28479538D01*
X8496904Y28479538D02*
X8436428Y28540014D01*
X8436428Y28540014D02*
X8315476Y28600490D01*
X8315476Y28600490D02*
X8073571Y28660966D01*
X8073571Y28660966D02*
X7952619Y28721443D01*
X7952619Y28721443D02*
X7892142Y28781919D01*
X7892142Y28781919D02*
X7831666Y28902871D01*
X7831666Y28902871D02*
X7831666Y29023824D01*
X7831666Y29023824D02*
X7892142Y29144776D01*
X7892142Y29144776D02*
X7952619Y29205252D01*
X7952619Y29205252D02*
X8073571Y29265728D01*
X8073571Y29265728D02*
X8375952Y29265728D01*
X8375952Y29265728D02*
X8557381Y29205252D01*
X8980714Y29265728D02*
X9283095Y27995728D01*
X9283095Y27995728D02*
X9525000Y28902871D01*
X9525000Y28902871D02*
X9766905Y27995728D01*
X9766905Y27995728D02*
X10069286Y29265728D01*
X11097381Y28842395D02*
X11097381Y27995728D01*
X10795000Y29326205D02*
X10492619Y28419062D01*
X10492619Y28419062D02*
X11278810Y28419062D01*
X-30595952Y6020728D02*
X-31200714Y6020728D01*
X-31200714Y6020728D02*
X-31200714Y7290728D01*
X-30172619Y6685966D02*
X-29749285Y6685966D01*
X-29567857Y6020728D02*
X-30172619Y6020728D01*
X-30172619Y6020728D02*
X-30172619Y7290728D01*
X-30172619Y7290728D02*
X-29567857Y7290728D01*
X-29023571Y6020728D02*
X-29023571Y7290728D01*
X-29023571Y7290728D02*
X-28721190Y7290728D01*
X-28721190Y7290728D02*
X-28539761Y7230252D01*
X-28539761Y7230252D02*
X-28418809Y7109300D01*
X-28418809Y7109300D02*
X-28358332Y6988347D01*
X-28358332Y6988347D02*
X-28297856Y6746443D01*
X-28297856Y6746443D02*
X-28297856Y6565014D01*
X-28297856Y6565014D02*
X-28358332Y6323109D01*
X-28358332Y6323109D02*
X-28418809Y6202157D01*
X-28418809Y6202157D02*
X-28539761Y6081205D01*
X-28539761Y6081205D02*
X-28721190Y6020728D01*
X-28721190Y6020728D02*
X-29023571Y6020728D01*
X-27814047Y7169776D02*
X-27753571Y7230252D01*
X-27753571Y7230252D02*
X-27632618Y7290728D01*
X-27632618Y7290728D02*
X-27330237Y7290728D01*
X-27330237Y7290728D02*
X-27209285Y7230252D01*
X-27209285Y7230252D02*
X-27148809Y7169776D01*
X-27148809Y7169776D02*
X-27088332Y7048824D01*
X-27088332Y7048824D02*
X-27088332Y6927871D01*
X-27088332Y6927871D02*
X-27148809Y6746443D01*
X-27148809Y6746443D02*
X-27874523Y6020728D01*
X-27874523Y6020728D02*
X-27088332Y6020728D01*
X-26604523Y7169776D02*
X-26544047Y7230252D01*
X-26544047Y7230252D02*
X-26423094Y7290728D01*
X-26423094Y7290728D02*
X-26120713Y7290728D01*
X-26120713Y7290728D02*
X-25999761Y7230252D01*
X-25999761Y7230252D02*
X-25939285Y7169776D01*
X-25939285Y7169776D02*
X-25878808Y7048824D01*
X-25878808Y7048824D02*
X-25878808Y6927871D01*
X-25878808Y6927871D02*
X-25939285Y6746443D01*
X-25939285Y6746443D02*
X-26664999Y6020728D01*
X-26664999Y6020728D02*
X-25878808Y6020728D01*
X40579271Y-13025952D02*
X40579271Y-13630714D01*
X40579271Y-13630714D02*
X39309271Y-13630714D01*
X39914033Y-12602619D02*
X39914033Y-12179285D01*
X40579271Y-11997857D02*
X40579271Y-12602619D01*
X40579271Y-12602619D02*
X39309271Y-12602619D01*
X39309271Y-12602619D02*
X39309271Y-11997857D01*
X40579271Y-11453571D02*
X39309271Y-11453571D01*
X39309271Y-11453571D02*
X39309271Y-11151190D01*
X39309271Y-11151190D02*
X39369747Y-10969761D01*
X39369747Y-10969761D02*
X39490699Y-10848809D01*
X39490699Y-10848809D02*
X39611652Y-10788332D01*
X39611652Y-10788332D02*
X39853556Y-10727856D01*
X39853556Y-10727856D02*
X40034985Y-10727856D01*
X40034985Y-10727856D02*
X40276890Y-10788332D01*
X40276890Y-10788332D02*
X40397842Y-10848809D01*
X40397842Y-10848809D02*
X40518795Y-10969761D01*
X40518795Y-10969761D02*
X40579271Y-11151190D01*
X40579271Y-11151190D02*
X40579271Y-11453571D01*
X40579271Y-9518332D02*
X40579271Y-10244047D01*
X40579271Y-9881190D02*
X39309271Y-9881190D01*
X39309271Y-9881190D02*
X39490699Y-10002142D01*
X39490699Y-10002142D02*
X39611652Y-10123094D01*
X39611652Y-10123094D02*
X39672128Y-10244047D01*
X39309271Y-9094999D02*
X39309271Y-8308808D01*
X39309271Y-8308808D02*
X39793080Y-8732142D01*
X39793080Y-8732142D02*
X39793080Y-8550713D01*
X39793080Y-8550713D02*
X39853556Y-8429761D01*
X39853556Y-8429761D02*
X39914033Y-8369285D01*
X39914033Y-8369285D02*
X40034985Y-8308808D01*
X40034985Y-8308808D02*
X40337366Y-8308808D01*
X40337366Y-8308808D02*
X40458318Y-8369285D01*
X40458318Y-8369285D02*
X40518795Y-8429761D01*
X40518795Y-8429761D02*
X40579271Y-8550713D01*
X40579271Y-8550713D02*
X40579271Y-8913570D01*
X40579271Y-8913570D02*
X40518795Y-9034523D01*
X40518795Y-9034523D02*
X40458318Y-9094999D01*
X-30268333Y9006205D02*
X-30086904Y8945728D01*
X-30086904Y8945728D02*
X-29784523Y8945728D01*
X-29784523Y8945728D02*
X-29663571Y9006205D01*
X-29663571Y9006205D02*
X-29603095Y9066681D01*
X-29603095Y9066681D02*
X-29542618Y9187633D01*
X-29542618Y9187633D02*
X-29542618Y9308585D01*
X-29542618Y9308585D02*
X-29603095Y9429538D01*
X-29603095Y9429538D02*
X-29663571Y9490014D01*
X-29663571Y9490014D02*
X-29784523Y9550490D01*
X-29784523Y9550490D02*
X-30026428Y9610966D01*
X-30026428Y9610966D02*
X-30147380Y9671443D01*
X-30147380Y9671443D02*
X-30207857Y9731919D01*
X-30207857Y9731919D02*
X-30268333Y9852871D01*
X-30268333Y9852871D02*
X-30268333Y9973824D01*
X-30268333Y9973824D02*
X-30207857Y10094776D01*
X-30207857Y10094776D02*
X-30147380Y10155252D01*
X-30147380Y10155252D02*
X-30026428Y10215728D01*
X-30026428Y10215728D02*
X-29724047Y10215728D01*
X-29724047Y10215728D02*
X-29542618Y10155252D01*
X-29119285Y10215728D02*
X-28816904Y8945728D01*
X-28816904Y8945728D02*
X-28574999Y9852871D01*
X-28574999Y9852871D02*
X-28333094Y8945728D01*
X-28333094Y8945728D02*
X-28030714Y10215728D01*
X-27365475Y9671443D02*
X-27486427Y9731919D01*
X-27486427Y9731919D02*
X-27546904Y9792395D01*
X-27546904Y9792395D02*
X-27607380Y9913347D01*
X-27607380Y9913347D02*
X-27607380Y9973824D01*
X-27607380Y9973824D02*
X-27546904Y10094776D01*
X-27546904Y10094776D02*
X-27486427Y10155252D01*
X-27486427Y10155252D02*
X-27365475Y10215728D01*
X-27365475Y10215728D02*
X-27123570Y10215728D01*
X-27123570Y10215728D02*
X-27002618Y10155252D01*
X-27002618Y10155252D02*
X-26942142Y10094776D01*
X-26942142Y10094776D02*
X-26881665Y9973824D01*
X-26881665Y9973824D02*
X-26881665Y9913347D01*
X-26881665Y9913347D02*
X-26942142Y9792395D01*
X-26942142Y9792395D02*
X-27002618Y9731919D01*
X-27002618Y9731919D02*
X-27123570Y9671443D01*
X-27123570Y9671443D02*
X-27365475Y9671443D01*
X-27365475Y9671443D02*
X-27486427Y9610966D01*
X-27486427Y9610966D02*
X-27546904Y9550490D01*
X-27546904Y9550490D02*
X-27607380Y9429538D01*
X-27607380Y9429538D02*
X-27607380Y9187633D01*
X-27607380Y9187633D02*
X-27546904Y9066681D01*
X-27546904Y9066681D02*
X-27486427Y9006205D01*
X-27486427Y9006205D02*
X-27365475Y8945728D01*
X-27365475Y8945728D02*
X-27123570Y8945728D01*
X-27123570Y8945728D02*
X-27002618Y9006205D01*
X-27002618Y9006205D02*
X-26942142Y9066681D01*
X-26942142Y9066681D02*
X-26881665Y9187633D01*
X-26881665Y9187633D02*
X-26881665Y9429538D01*
X-26881665Y9429538D02*
X-26942142Y9550490D01*
X-26942142Y9550490D02*
X-27002618Y9610966D01*
X-27002618Y9610966D02*
X-27123570Y9671443D01*
X26881666Y-29093795D02*
X27063095Y-29154271D01*
X27063095Y-29154271D02*
X27365476Y-29154271D01*
X27365476Y-29154271D02*
X27486428Y-29093795D01*
X27486428Y-29093795D02*
X27546904Y-29033318D01*
X27546904Y-29033318D02*
X27607381Y-28912366D01*
X27607381Y-28912366D02*
X27607381Y-28791414D01*
X27607381Y-28791414D02*
X27546904Y-28670461D01*
X27546904Y-28670461D02*
X27486428Y-28609985D01*
X27486428Y-28609985D02*
X27365476Y-28549509D01*
X27365476Y-28549509D02*
X27123571Y-28489033D01*
X27123571Y-28489033D02*
X27002619Y-28428556D01*
X27002619Y-28428556D02*
X26942142Y-28368080D01*
X26942142Y-28368080D02*
X26881666Y-28247128D01*
X26881666Y-28247128D02*
X26881666Y-28126175D01*
X26881666Y-28126175D02*
X26942142Y-28005223D01*
X26942142Y-28005223D02*
X27002619Y-27944747D01*
X27002619Y-27944747D02*
X27123571Y-27884271D01*
X27123571Y-27884271D02*
X27425952Y-27884271D01*
X27425952Y-27884271D02*
X27607381Y-27944747D01*
X28030714Y-27884271D02*
X28333095Y-29154271D01*
X28333095Y-29154271D02*
X28575000Y-28247128D01*
X28575000Y-28247128D02*
X28816905Y-29154271D01*
X28816905Y-29154271D02*
X29119286Y-27884271D01*
X29482143Y-27884271D02*
X30328810Y-27884271D01*
X30328810Y-27884271D02*
X29784524Y-29154271D01*
X7504047Y6020728D02*
X6899285Y6020728D01*
X6899285Y6020728D02*
X6899285Y7290728D01*
X7927380Y6685966D02*
X8350714Y6685966D01*
X8532142Y6020728D02*
X7927380Y6020728D01*
X7927380Y6020728D02*
X7927380Y7290728D01*
X7927380Y7290728D02*
X8532142Y7290728D01*
X9076428Y6020728D02*
X9076428Y7290728D01*
X9076428Y7290728D02*
X9378809Y7290728D01*
X9378809Y7290728D02*
X9560238Y7230252D01*
X9560238Y7230252D02*
X9681190Y7109300D01*
X9681190Y7109300D02*
X9741667Y6988347D01*
X9741667Y6988347D02*
X9802143Y6746443D01*
X9802143Y6746443D02*
X9802143Y6565014D01*
X9802143Y6565014D02*
X9741667Y6323109D01*
X9741667Y6323109D02*
X9681190Y6202157D01*
X9681190Y6202157D02*
X9560238Y6081205D01*
X9560238Y6081205D02*
X9378809Y6020728D01*
X9378809Y6020728D02*
X9076428Y6020728D01*
X10285952Y7169776D02*
X10346428Y7230252D01*
X10346428Y7230252D02*
X10467381Y7290728D01*
X10467381Y7290728D02*
X10769762Y7290728D01*
X10769762Y7290728D02*
X10890714Y7230252D01*
X10890714Y7230252D02*
X10951190Y7169776D01*
X10951190Y7169776D02*
X11011667Y7048824D01*
X11011667Y7048824D02*
X11011667Y6927871D01*
X11011667Y6927871D02*
X10951190Y6746443D01*
X10951190Y6746443D02*
X10225476Y6020728D01*
X10225476Y6020728D02*
X11011667Y6020728D01*
X12100238Y6867395D02*
X12100238Y6020728D01*
X11797857Y7351205D02*
X11495476Y6444062D01*
X11495476Y6444062D02*
X12281667Y6444062D01*
X-43420728Y31578809D02*
X-43420728Y30974047D01*
X-43420728Y30974047D02*
X-44690728Y30974047D01*
X-44085966Y32002142D02*
X-44085966Y32425476D01*
X-43420728Y32606904D02*
X-43420728Y32002142D01*
X-43420728Y32002142D02*
X-44690728Y32002142D01*
X-44690728Y32002142D02*
X-44690728Y32606904D01*
X-43420728Y33151190D02*
X-44690728Y33151190D01*
X-44690728Y33151190D02*
X-44690728Y33453571D01*
X-44690728Y33453571D02*
X-44630252Y33635000D01*
X-44630252Y33635000D02*
X-44509300Y33755952D01*
X-44509300Y33755952D02*
X-44388347Y33816429D01*
X-44388347Y33816429D02*
X-44146443Y33876905D01*
X-44146443Y33876905D02*
X-43965014Y33876905D01*
X-43965014Y33876905D02*
X-43723109Y33816429D01*
X-43723109Y33816429D02*
X-43602157Y33755952D01*
X-43602157Y33755952D02*
X-43481205Y33635000D01*
X-43481205Y33635000D02*
X-43420728Y33453571D01*
X-43420728Y33453571D02*
X-43420728Y33151190D01*
X-44146443Y34602619D02*
X-44206919Y34481667D01*
X-44206919Y34481667D02*
X-44267395Y34421190D01*
X-44267395Y34421190D02*
X-44388347Y34360714D01*
X-44388347Y34360714D02*
X-44448824Y34360714D01*
X-44448824Y34360714D02*
X-44569776Y34421190D01*
X-44569776Y34421190D02*
X-44630252Y34481667D01*
X-44630252Y34481667D02*
X-44690728Y34602619D01*
X-44690728Y34602619D02*
X-44690728Y34844524D01*
X-44690728Y34844524D02*
X-44630252Y34965476D01*
X-44630252Y34965476D02*
X-44569776Y35025952D01*
X-44569776Y35025952D02*
X-44448824Y35086429D01*
X-44448824Y35086429D02*
X-44388347Y35086429D01*
X-44388347Y35086429D02*
X-44267395Y35025952D01*
X-44267395Y35025952D02*
X-44206919Y34965476D01*
X-44206919Y34965476D02*
X-44146443Y34844524D01*
X-44146443Y34844524D02*
X-44146443Y34602619D01*
X-44146443Y34602619D02*
X-44085966Y34481667D01*
X-44085966Y34481667D02*
X-44025490Y34421190D01*
X-44025490Y34421190D02*
X-43904538Y34360714D01*
X-43904538Y34360714D02*
X-43662633Y34360714D01*
X-43662633Y34360714D02*
X-43541681Y34421190D01*
X-43541681Y34421190D02*
X-43481205Y34481667D01*
X-43481205Y34481667D02*
X-43420728Y34602619D01*
X-43420728Y34602619D02*
X-43420728Y34844524D01*
X-43420728Y34844524D02*
X-43481205Y34965476D01*
X-43481205Y34965476D02*
X-43541681Y35025952D01*
X-43541681Y35025952D02*
X-43662633Y35086429D01*
X-43662633Y35086429D02*
X-43904538Y35086429D01*
X-43904538Y35086429D02*
X-44025490Y35025952D01*
X-44025490Y35025952D02*
X-44085966Y34965476D01*
X-44085966Y34965476D02*
X-44146443Y34844524D01*
X-4962903Y38810494D02*
X-5567665Y38387160D01*
X-4962903Y38084779D02*
X-6232903Y38084779D01*
X-6232903Y38084779D02*
X-6232903Y38568589D01*
X-6232903Y38568589D02*
X-6172427Y38689541D01*
X-6172427Y38689541D02*
X-6111951Y38750018D01*
X-6111951Y38750018D02*
X-5990999Y38810494D01*
X-5990999Y38810494D02*
X-5809570Y38810494D01*
X-5809570Y38810494D02*
X-5688618Y38750018D01*
X-5688618Y38750018D02*
X-5628141Y38689541D01*
X-5628141Y38689541D02*
X-5567665Y38568589D01*
X-5567665Y38568589D02*
X-5567665Y38084779D01*
X-6232903Y39233827D02*
X-6232903Y40020018D01*
X-6232903Y40020018D02*
X-5749094Y39596684D01*
X-5749094Y39596684D02*
X-5749094Y39778113D01*
X-5749094Y39778113D02*
X-5688618Y39899065D01*
X-5688618Y39899065D02*
X-5628141Y39959541D01*
X-5628141Y39959541D02*
X-5507189Y40020018D01*
X-5507189Y40020018D02*
X-5204808Y40020018D01*
X-5204808Y40020018D02*
X-5083856Y39959541D01*
X-5083856Y39959541D02*
X-5023380Y39899065D01*
X-5023380Y39899065D02*
X-4962903Y39778113D01*
X-4962903Y39778113D02*
X-4962903Y39415256D01*
X-4962903Y39415256D02*
X-5023380Y39294303D01*
X-5023380Y39294303D02*
X-5083856Y39233827D01*
X40579271Y-35025952D02*
X40579271Y-35630714D01*
X40579271Y-35630714D02*
X39309271Y-35630714D01*
X39914033Y-34602619D02*
X39914033Y-34179285D01*
X40579271Y-33997857D02*
X40579271Y-34602619D01*
X40579271Y-34602619D02*
X39309271Y-34602619D01*
X39309271Y-34602619D02*
X39309271Y-33997857D01*
X40579271Y-33453571D02*
X39309271Y-33453571D01*
X39309271Y-33453571D02*
X39309271Y-33151190D01*
X39309271Y-33151190D02*
X39369747Y-32969761D01*
X39369747Y-32969761D02*
X39490699Y-32848809D01*
X39490699Y-32848809D02*
X39611652Y-32788332D01*
X39611652Y-32788332D02*
X39853556Y-32727856D01*
X39853556Y-32727856D02*
X40034985Y-32727856D01*
X40034985Y-32727856D02*
X40276890Y-32788332D01*
X40276890Y-32788332D02*
X40397842Y-32848809D01*
X40397842Y-32848809D02*
X40518795Y-32969761D01*
X40518795Y-32969761D02*
X40579271Y-33151190D01*
X40579271Y-33151190D02*
X40579271Y-33453571D01*
X40579271Y-31518332D02*
X40579271Y-32244047D01*
X40579271Y-31881190D02*
X39309271Y-31881190D01*
X39309271Y-31881190D02*
X39490699Y-32002142D01*
X39490699Y-32002142D02*
X39611652Y-32123094D01*
X39611652Y-32123094D02*
X39672128Y-32244047D01*
X39732604Y-30429761D02*
X40579271Y-30429761D01*
X39248795Y-30732142D02*
X40155937Y-31034523D01*
X40155937Y-31034523D02*
X40155937Y-30248332D01*
X8646612Y18166458D02*
X8707089Y18105982D01*
X8707089Y18105982D02*
X8767565Y17924553D01*
X8767565Y17924553D02*
X8767565Y17803601D01*
X8767565Y17803601D02*
X8707089Y17622172D01*
X8707089Y17622172D02*
X8586136Y17501220D01*
X8586136Y17501220D02*
X8465184Y17440743D01*
X8465184Y17440743D02*
X8223279Y17380267D01*
X8223279Y17380267D02*
X8041850Y17380267D01*
X8041850Y17380267D02*
X7799946Y17440743D01*
X7799946Y17440743D02*
X7678993Y17501220D01*
X7678993Y17501220D02*
X7558041Y17622172D01*
X7558041Y17622172D02*
X7497565Y17803601D01*
X7497565Y17803601D02*
X7497565Y17924553D01*
X7497565Y17924553D02*
X7558041Y18105982D01*
X7558041Y18105982D02*
X7618517Y18166458D01*
X7618517Y18650267D02*
X7558041Y18710743D01*
X7558041Y18710743D02*
X7497565Y18831696D01*
X7497565Y18831696D02*
X7497565Y19134077D01*
X7497565Y19134077D02*
X7558041Y19255029D01*
X7558041Y19255029D02*
X7618517Y19315505D01*
X7618517Y19315505D02*
X7739469Y19375982D01*
X7739469Y19375982D02*
X7860422Y19375982D01*
X7860422Y19375982D02*
X8041850Y19315505D01*
X8041850Y19315505D02*
X8767565Y18589791D01*
X8767565Y18589791D02*
X8767565Y19375982D01*
X8767565Y20585506D02*
X8767565Y19859791D01*
X8767565Y20222648D02*
X7497565Y20222648D01*
X7497565Y20222648D02*
X7678993Y20101696D01*
X7678993Y20101696D02*
X7799946Y19980744D01*
X7799946Y19980744D02*
X7860422Y19859791D01*
X-30268333Y35556205D02*
X-30086904Y35495728D01*
X-30086904Y35495728D02*
X-29784523Y35495728D01*
X-29784523Y35495728D02*
X-29663571Y35556205D01*
X-29663571Y35556205D02*
X-29603095Y35616681D01*
X-29603095Y35616681D02*
X-29542618Y35737633D01*
X-29542618Y35737633D02*
X-29542618Y35858585D01*
X-29542618Y35858585D02*
X-29603095Y35979538D01*
X-29603095Y35979538D02*
X-29663571Y36040014D01*
X-29663571Y36040014D02*
X-29784523Y36100490D01*
X-29784523Y36100490D02*
X-30026428Y36160966D01*
X-30026428Y36160966D02*
X-30147380Y36221443D01*
X-30147380Y36221443D02*
X-30207857Y36281919D01*
X-30207857Y36281919D02*
X-30268333Y36402871D01*
X-30268333Y36402871D02*
X-30268333Y36523824D01*
X-30268333Y36523824D02*
X-30207857Y36644776D01*
X-30207857Y36644776D02*
X-30147380Y36705252D01*
X-30147380Y36705252D02*
X-30026428Y36765728D01*
X-30026428Y36765728D02*
X-29724047Y36765728D01*
X-29724047Y36765728D02*
X-29542618Y36705252D01*
X-29119285Y36765728D02*
X-28816904Y35495728D01*
X-28816904Y35495728D02*
X-28574999Y36402871D01*
X-28574999Y36402871D02*
X-28333094Y35495728D01*
X-28333094Y35495728D02*
X-28030714Y36765728D01*
X-26881665Y35495728D02*
X-27607380Y35495728D01*
X-27244523Y35495728D02*
X-27244523Y36765728D01*
X-27244523Y36765728D02*
X-27365475Y36584300D01*
X-27365475Y36584300D02*
X-27486427Y36463347D01*
X-27486427Y36463347D02*
X-27607380Y36402871D01*
X-21525419Y43401099D02*
X-21464943Y43340623D01*
X-21464943Y43340623D02*
X-21404466Y43159194D01*
X-21404466Y43159194D02*
X-21404466Y43038242D01*
X-21404466Y43038242D02*
X-21464943Y42856813D01*
X-21464943Y42856813D02*
X-21585895Y42735861D01*
X-21585895Y42735861D02*
X-21706847Y42675384D01*
X-21706847Y42675384D02*
X-21948752Y42614908D01*
X-21948752Y42614908D02*
X-22130181Y42614908D01*
X-22130181Y42614908D02*
X-22372085Y42675384D01*
X-22372085Y42675384D02*
X-22493038Y42735861D01*
X-22493038Y42735861D02*
X-22613990Y42856813D01*
X-22613990Y42856813D02*
X-22674466Y43038242D01*
X-22674466Y43038242D02*
X-22674466Y43159194D01*
X-22674466Y43159194D02*
X-22613990Y43340623D01*
X-22613990Y43340623D02*
X-22553514Y43401099D01*
X-22553514Y43884908D02*
X-22613990Y43945384D01*
X-22613990Y43945384D02*
X-22674466Y44066337D01*
X-22674466Y44066337D02*
X-22674466Y44368718D01*
X-22674466Y44368718D02*
X-22613990Y44489670D01*
X-22613990Y44489670D02*
X-22553514Y44550146D01*
X-22553514Y44550146D02*
X-22432562Y44610623D01*
X-22432562Y44610623D02*
X-22311609Y44610623D01*
X-22311609Y44610623D02*
X-22130181Y44550146D01*
X-22130181Y44550146D02*
X-21404466Y43824432D01*
X-21404466Y43824432D02*
X-21404466Y44610623D01*
X-22674466Y45033956D02*
X-22674466Y45880623D01*
X-22674466Y45880623D02*
X-21404466Y45336337D01*
X26544047Y-32079271D02*
X25939285Y-32079271D01*
X25939285Y-32079271D02*
X25939285Y-30809271D01*
X26967380Y-31414033D02*
X27390714Y-31414033D01*
X27572142Y-32079271D02*
X26967380Y-32079271D01*
X26967380Y-32079271D02*
X26967380Y-30809271D01*
X26967380Y-30809271D02*
X27572142Y-30809271D01*
X28116428Y-32079271D02*
X28116428Y-30809271D01*
X28116428Y-30809271D02*
X28418809Y-30809271D01*
X28418809Y-30809271D02*
X28600238Y-30869747D01*
X28600238Y-30869747D02*
X28721190Y-30990699D01*
X28721190Y-30990699D02*
X28781667Y-31111652D01*
X28781667Y-31111652D02*
X28842143Y-31353556D01*
X28842143Y-31353556D02*
X28842143Y-31534985D01*
X28842143Y-31534985D02*
X28781667Y-31776890D01*
X28781667Y-31776890D02*
X28721190Y-31897842D01*
X28721190Y-31897842D02*
X28600238Y-32018795D01*
X28600238Y-32018795D02*
X28418809Y-32079271D01*
X28418809Y-32079271D02*
X28116428Y-32079271D01*
X29325952Y-30930223D02*
X29386428Y-30869747D01*
X29386428Y-30869747D02*
X29507381Y-30809271D01*
X29507381Y-30809271D02*
X29809762Y-30809271D01*
X29809762Y-30809271D02*
X29930714Y-30869747D01*
X29930714Y-30869747D02*
X29991190Y-30930223D01*
X29991190Y-30930223D02*
X30051667Y-31051175D01*
X30051667Y-31051175D02*
X30051667Y-31172128D01*
X30051667Y-31172128D02*
X29991190Y-31353556D01*
X29991190Y-31353556D02*
X29265476Y-32079271D01*
X29265476Y-32079271D02*
X30051667Y-32079271D01*
X31261191Y-32079271D02*
X30535476Y-32079271D01*
X30898333Y-32079271D02*
X30898333Y-30809271D01*
X30898333Y-30809271D02*
X30777381Y-30990699D01*
X30777381Y-30990699D02*
X30656429Y-31111652D01*
X30656429Y-31111652D02*
X30535476Y-31172128D01*
X-423332Y48830728D02*
X-423332Y47923585D01*
X-423332Y47923585D02*
X-483809Y47742157D01*
X-483809Y47742157D02*
X-604761Y47621205D01*
X-604761Y47621205D02*
X-786190Y47560728D01*
X-786190Y47560728D02*
X-907142Y47560728D01*
X60476Y48830728D02*
X846667Y48830728D01*
X846667Y48830728D02*
X423333Y48346919D01*
X423333Y48346919D02*
X604762Y48346919D01*
X604762Y48346919D02*
X725714Y48286443D01*
X725714Y48286443D02*
X786190Y48225966D01*
X786190Y48225966D02*
X846667Y48105014D01*
X846667Y48105014D02*
X846667Y47802633D01*
X846667Y47802633D02*
X786190Y47681681D01*
X786190Y47681681D02*
X725714Y47621205D01*
X725714Y47621205D02*
X604762Y47560728D01*
X604762Y47560728D02*
X241905Y47560728D01*
X241905Y47560728D02*
X120952Y47621205D01*
X120952Y47621205D02*
X60476Y47681681D01*
X28151667Y40765728D02*
X28151667Y39858585D01*
X28151667Y39858585D02*
X28091190Y39677157D01*
X28091190Y39677157D02*
X27970238Y39556205D01*
X27970238Y39556205D02*
X27788809Y39495728D01*
X27788809Y39495728D02*
X27667857Y39495728D01*
X29421667Y39495728D02*
X28695952Y39495728D01*
X29058809Y39495728D02*
X29058809Y40765728D01*
X29058809Y40765728D02*
X28937857Y40584300D01*
X28937857Y40584300D02*
X28816905Y40463347D01*
X28816905Y40463347D02*
X28695952Y40402871D01*
X-11555952Y-32079271D02*
X-12160714Y-32079271D01*
X-12160714Y-32079271D02*
X-12160714Y-30809271D01*
X-11132619Y-31414033D02*
X-10709285Y-31414033D01*
X-10527857Y-32079271D02*
X-11132619Y-32079271D01*
X-11132619Y-32079271D02*
X-11132619Y-30809271D01*
X-11132619Y-30809271D02*
X-10527857Y-30809271D01*
X-9983571Y-32079271D02*
X-9983571Y-30809271D01*
X-9983571Y-30809271D02*
X-9681190Y-30809271D01*
X-9681190Y-30809271D02*
X-9499761Y-30869747D01*
X-9499761Y-30869747D02*
X-9378809Y-30990699D01*
X-9378809Y-30990699D02*
X-9318332Y-31111652D01*
X-9318332Y-31111652D02*
X-9257856Y-31353556D01*
X-9257856Y-31353556D02*
X-9257856Y-31534985D01*
X-9257856Y-31534985D02*
X-9318332Y-31776890D01*
X-9318332Y-31776890D02*
X-9378809Y-31897842D01*
X-9378809Y-31897842D02*
X-9499761Y-32018795D01*
X-9499761Y-32018795D02*
X-9681190Y-32079271D01*
X-9681190Y-32079271D02*
X-9983571Y-32079271D01*
X-8048332Y-32079271D02*
X-8774047Y-32079271D01*
X-8411190Y-32079271D02*
X-8411190Y-30809271D01*
X-8411190Y-30809271D02*
X-8532142Y-30990699D01*
X-8532142Y-30990699D02*
X-8653094Y-31111652D01*
X-8653094Y-31111652D02*
X-8774047Y-31172128D01*
X-7443570Y-32079271D02*
X-7201666Y-32079271D01*
X-7201666Y-32079271D02*
X-7080713Y-32018795D01*
X-7080713Y-32018795D02*
X-7020237Y-31958318D01*
X-7020237Y-31958318D02*
X-6899285Y-31776890D01*
X-6899285Y-31776890D02*
X-6838808Y-31534985D01*
X-6838808Y-31534985D02*
X-6838808Y-31051175D01*
X-6838808Y-31051175D02*
X-6899285Y-30930223D01*
X-6899285Y-30930223D02*
X-6959761Y-30869747D01*
X-6959761Y-30869747D02*
X-7080713Y-30809271D01*
X-7080713Y-30809271D02*
X-7322618Y-30809271D01*
X-7322618Y-30809271D02*
X-7443570Y-30869747D01*
X-7443570Y-30869747D02*
X-7504047Y-30930223D01*
X-7504047Y-30930223D02*
X-7564523Y-31051175D01*
X-7564523Y-31051175D02*
X-7564523Y-31353556D01*
X-7564523Y-31353556D02*
X-7504047Y-31474509D01*
X-7504047Y-31474509D02*
X-7443570Y-31534985D01*
X-7443570Y-31534985D02*
X-7322618Y-31595461D01*
X-7322618Y-31595461D02*
X-7080713Y-31595461D01*
X-7080713Y-31595461D02*
X-6959761Y-31534985D01*
X-6959761Y-31534985D02*
X-6899285Y-31474509D01*
X-6899285Y-31474509D02*
X-6838808Y-31353556D01*
X-43467619Y41920728D02*
X-43467619Y43190728D01*
X-43467619Y42585966D02*
X-42741904Y42585966D01*
X-42741904Y41920728D02*
X-42741904Y43190728D01*
X-41471904Y41920728D02*
X-42197619Y41920728D01*
X-41834762Y41920728D02*
X-41834762Y43190728D01*
X-41834762Y43190728D02*
X-41955714Y43009300D01*
X-41955714Y43009300D02*
X-42076666Y42888347D01*
X-42076666Y42888347D02*
X-42197619Y42827871D01*
X-22283447Y38160549D02*
X-22343923Y38100073D01*
X-22343923Y38100073D02*
X-22525352Y38039596D01*
X-22525352Y38039596D02*
X-22646304Y38039596D01*
X-22646304Y38039596D02*
X-22827733Y38100073D01*
X-22827733Y38100073D02*
X-22948685Y38221025D01*
X-22948685Y38221025D02*
X-23009162Y38341977D01*
X-23009162Y38341977D02*
X-23069638Y38583882D01*
X-23069638Y38583882D02*
X-23069638Y38765311D01*
X-23069638Y38765311D02*
X-23009162Y39007215D01*
X-23009162Y39007215D02*
X-22948685Y39128168D01*
X-22948685Y39128168D02*
X-22827733Y39249120D01*
X-22827733Y39249120D02*
X-22646304Y39309596D01*
X-22646304Y39309596D02*
X-22525352Y39309596D01*
X-22525352Y39309596D02*
X-22343923Y39249120D01*
X-22343923Y39249120D02*
X-22283447Y39188644D01*
X-21799638Y39188644D02*
X-21739162Y39249120D01*
X-21739162Y39249120D02*
X-21618209Y39309596D01*
X-21618209Y39309596D02*
X-21315828Y39309596D01*
X-21315828Y39309596D02*
X-21194876Y39249120D01*
X-21194876Y39249120D02*
X-21134400Y39188644D01*
X-21134400Y39188644D02*
X-21073923Y39067692D01*
X-21073923Y39067692D02*
X-21073923Y38946739D01*
X-21073923Y38946739D02*
X-21134400Y38765311D01*
X-21134400Y38765311D02*
X-21860114Y38039596D01*
X-21860114Y38039596D02*
X-21073923Y38039596D01*
X-20348209Y38765311D02*
X-20469161Y38825787D01*
X-20469161Y38825787D02*
X-20529638Y38886263D01*
X-20529638Y38886263D02*
X-20590114Y39007215D01*
X-20590114Y39007215D02*
X-20590114Y39067692D01*
X-20590114Y39067692D02*
X-20529638Y39188644D01*
X-20529638Y39188644D02*
X-20469161Y39249120D01*
X-20469161Y39249120D02*
X-20348209Y39309596D01*
X-20348209Y39309596D02*
X-20106304Y39309596D01*
X-20106304Y39309596D02*
X-19985352Y39249120D01*
X-19985352Y39249120D02*
X-19924876Y39188644D01*
X-19924876Y39188644D02*
X-19864399Y39067692D01*
X-19864399Y39067692D02*
X-19864399Y39007215D01*
X-19864399Y39007215D02*
X-19924876Y38886263D01*
X-19924876Y38886263D02*
X-19985352Y38825787D01*
X-19985352Y38825787D02*
X-20106304Y38765311D01*
X-20106304Y38765311D02*
X-20348209Y38765311D01*
X-20348209Y38765311D02*
X-20469161Y38704834D01*
X-20469161Y38704834D02*
X-20529638Y38644358D01*
X-20529638Y38644358D02*
X-20590114Y38523406D01*
X-20590114Y38523406D02*
X-20590114Y38281501D01*
X-20590114Y38281501D02*
X-20529638Y38160549D01*
X-20529638Y38160549D02*
X-20469161Y38100073D01*
X-20469161Y38100073D02*
X-20348209Y38039596D01*
X-20348209Y38039596D02*
X-20106304Y38039596D01*
X-20106304Y38039596D02*
X-19985352Y38100073D01*
X-19985352Y38100073D02*
X-19924876Y38160549D01*
X-19924876Y38160549D02*
X-19864399Y38281501D01*
X-19864399Y38281501D02*
X-19864399Y38523406D01*
X-19864399Y38523406D02*
X-19924876Y38644358D01*
X-19924876Y38644358D02*
X-19985352Y38704834D01*
X-19985352Y38704834D02*
X-20106304Y38765311D01*
X-30829726Y43920451D02*
X-30829726Y43013308D01*
X-30829726Y43013308D02*
X-30890203Y42831880D01*
X-30890203Y42831880D02*
X-31011155Y42710928D01*
X-31011155Y42710928D02*
X-31192584Y42650451D01*
X-31192584Y42650451D02*
X-31313536Y42650451D01*
X-30285441Y43799499D02*
X-30224965Y43859975D01*
X-30224965Y43859975D02*
X-30104012Y43920451D01*
X-30104012Y43920451D02*
X-29801631Y43920451D01*
X-29801631Y43920451D02*
X-29680679Y43859975D01*
X-29680679Y43859975D02*
X-29620203Y43799499D01*
X-29620203Y43799499D02*
X-29559726Y43678547D01*
X-29559726Y43678547D02*
X-29559726Y43557594D01*
X-29559726Y43557594D02*
X-29620203Y43376166D01*
X-29620203Y43376166D02*
X-30345917Y42650451D01*
X-30345917Y42650451D02*
X-29559726Y42650451D01*
X26544047Y6020728D02*
X25939285Y6020728D01*
X25939285Y6020728D02*
X25939285Y7290728D01*
X26967380Y6685966D02*
X27390714Y6685966D01*
X27572142Y6020728D02*
X26967380Y6020728D01*
X26967380Y6020728D02*
X26967380Y7290728D01*
X26967380Y7290728D02*
X27572142Y7290728D01*
X28116428Y6020728D02*
X28116428Y7290728D01*
X28116428Y7290728D02*
X28418809Y7290728D01*
X28418809Y7290728D02*
X28600238Y7230252D01*
X28600238Y7230252D02*
X28721190Y7109300D01*
X28721190Y7109300D02*
X28781667Y6988347D01*
X28781667Y6988347D02*
X28842143Y6746443D01*
X28842143Y6746443D02*
X28842143Y6565014D01*
X28842143Y6565014D02*
X28781667Y6323109D01*
X28781667Y6323109D02*
X28721190Y6202157D01*
X28721190Y6202157D02*
X28600238Y6081205D01*
X28600238Y6081205D02*
X28418809Y6020728D01*
X28418809Y6020728D02*
X28116428Y6020728D01*
X29325952Y7169776D02*
X29386428Y7230252D01*
X29386428Y7230252D02*
X29507381Y7290728D01*
X29507381Y7290728D02*
X29809762Y7290728D01*
X29809762Y7290728D02*
X29930714Y7230252D01*
X29930714Y7230252D02*
X29991190Y7169776D01*
X29991190Y7169776D02*
X30051667Y7048824D01*
X30051667Y7048824D02*
X30051667Y6927871D01*
X30051667Y6927871D02*
X29991190Y6746443D01*
X29991190Y6746443D02*
X29265476Y6020728D01*
X29265476Y6020728D02*
X30051667Y6020728D01*
X31200714Y7290728D02*
X30595952Y7290728D01*
X30595952Y7290728D02*
X30535476Y6685966D01*
X30535476Y6685966D02*
X30595952Y6746443D01*
X30595952Y6746443D02*
X30716905Y6806919D01*
X30716905Y6806919D02*
X31019286Y6806919D01*
X31019286Y6806919D02*
X31140238Y6746443D01*
X31140238Y6746443D02*
X31200714Y6685966D01*
X31200714Y6685966D02*
X31261191Y6565014D01*
X31261191Y6565014D02*
X31261191Y6262633D01*
X31261191Y6262633D02*
X31200714Y6141681D01*
X31200714Y6141681D02*
X31140238Y6081205D01*
X31140238Y6081205D02*
X31019286Y6020728D01*
X31019286Y6020728D02*
X30716905Y6020728D01*
X30716905Y6020728D02*
X30595952Y6081205D01*
X30595952Y6081205D02*
X30535476Y6141681D01*
X-34421190Y43420728D02*
X-35025952Y43420728D01*
X-35025952Y43420728D02*
X-35025952Y44690728D01*
X-33997857Y44085966D02*
X-33574523Y44085966D01*
X-33393095Y43420728D02*
X-33997857Y43420728D01*
X-33997857Y43420728D02*
X-33997857Y44690728D01*
X-33997857Y44690728D02*
X-33393095Y44690728D01*
X-32848809Y43420728D02*
X-32848809Y44690728D01*
X-32848809Y44690728D02*
X-32546428Y44690728D01*
X-32546428Y44690728D02*
X-32364999Y44630252D01*
X-32364999Y44630252D02*
X-32244047Y44509300D01*
X-32244047Y44509300D02*
X-32183570Y44388347D01*
X-32183570Y44388347D02*
X-32123094Y44146443D01*
X-32123094Y44146443D02*
X-32123094Y43965014D01*
X-32123094Y43965014D02*
X-32183570Y43723109D01*
X-32183570Y43723109D02*
X-32244047Y43602157D01*
X-32244047Y43602157D02*
X-32364999Y43481205D01*
X-32364999Y43481205D02*
X-32546428Y43420728D01*
X-32546428Y43420728D02*
X-32848809Y43420728D01*
X-30913570Y43420728D02*
X-31639285Y43420728D01*
X-31276428Y43420728D02*
X-31276428Y44690728D01*
X-31276428Y44690728D02*
X-31397380Y44509300D01*
X-31397380Y44509300D02*
X-31518332Y44388347D01*
X-31518332Y44388347D02*
X-31639285Y44327871D01*
X9578809Y43420728D02*
X8974047Y43420728D01*
X8974047Y43420728D02*
X8974047Y44690728D01*
X10002142Y44085966D02*
X10425476Y44085966D01*
X10606904Y43420728D02*
X10002142Y43420728D01*
X10002142Y43420728D02*
X10002142Y44690728D01*
X10002142Y44690728D02*
X10606904Y44690728D01*
X11151190Y43420728D02*
X11151190Y44690728D01*
X11151190Y44690728D02*
X11453571Y44690728D01*
X11453571Y44690728D02*
X11635000Y44630252D01*
X11635000Y44630252D02*
X11755952Y44509300D01*
X11755952Y44509300D02*
X11816429Y44388347D01*
X11816429Y44388347D02*
X11876905Y44146443D01*
X11876905Y44146443D02*
X11876905Y43965014D01*
X11876905Y43965014D02*
X11816429Y43723109D01*
X11816429Y43723109D02*
X11755952Y43602157D01*
X11755952Y43602157D02*
X11635000Y43481205D01*
X11635000Y43481205D02*
X11453571Y43420728D01*
X11453571Y43420728D02*
X11151190Y43420728D01*
X12481667Y43420728D02*
X12723571Y43420728D01*
X12723571Y43420728D02*
X12844524Y43481205D01*
X12844524Y43481205D02*
X12905000Y43541681D01*
X12905000Y43541681D02*
X13025952Y43723109D01*
X13025952Y43723109D02*
X13086429Y43965014D01*
X13086429Y43965014D02*
X13086429Y44448824D01*
X13086429Y44448824D02*
X13025952Y44569776D01*
X13025952Y44569776D02*
X12965476Y44630252D01*
X12965476Y44630252D02*
X12844524Y44690728D01*
X12844524Y44690728D02*
X12602619Y44690728D01*
X12602619Y44690728D02*
X12481667Y44630252D01*
X12481667Y44630252D02*
X12421190Y44569776D01*
X12421190Y44569776D02*
X12360714Y44448824D01*
X12360714Y44448824D02*
X12360714Y44146443D01*
X12360714Y44146443D02*
X12421190Y44025490D01*
X12421190Y44025490D02*
X12481667Y43965014D01*
X12481667Y43965014D02*
X12602619Y43904538D01*
X12602619Y43904538D02*
X12844524Y43904538D01*
X12844524Y43904538D02*
X12965476Y43965014D01*
X12965476Y43965014D02*
X13025952Y44025490D01*
X13025952Y44025490D02*
X13086429Y44146443D01*
X-43467619Y-43079271D02*
X-43467619Y-41809271D01*
X-43467619Y-42414033D02*
X-42741904Y-42414033D01*
X-42741904Y-43079271D02*
X-42741904Y-41809271D01*
X-41592857Y-42232604D02*
X-41592857Y-43079271D01*
X-41895238Y-41748795D02*
X-42197619Y-42655937D01*
X-42197619Y-42655937D02*
X-41411428Y-42655937D01*
X1595831Y36721341D02*
X1656308Y36660865D01*
X1656308Y36660865D02*
X1716784Y36479436D01*
X1716784Y36479436D02*
X1716784Y36358484D01*
X1716784Y36358484D02*
X1656308Y36177055D01*
X1656308Y36177055D02*
X1535355Y36056103D01*
X1535355Y36056103D02*
X1414403Y35995626D01*
X1414403Y35995626D02*
X1172498Y35935150D01*
X1172498Y35935150D02*
X991069Y35935150D01*
X991069Y35935150D02*
X749165Y35995626D01*
X749165Y35995626D02*
X628212Y36056103D01*
X628212Y36056103D02*
X507260Y36177055D01*
X507260Y36177055D02*
X446784Y36358484D01*
X446784Y36358484D02*
X446784Y36479436D01*
X446784Y36479436D02*
X507260Y36660865D01*
X507260Y36660865D02*
X567736Y36721341D01*
X1716784Y37930865D02*
X1716784Y37205150D01*
X1716784Y37568007D02*
X446784Y37568007D01*
X446784Y37568007D02*
X628212Y37447055D01*
X628212Y37447055D02*
X749165Y37326103D01*
X749165Y37326103D02*
X809641Y37205150D01*
X1716784Y38535627D02*
X1716784Y38777531D01*
X1716784Y38777531D02*
X1656308Y38898484D01*
X1656308Y38898484D02*
X1595831Y38958960D01*
X1595831Y38958960D02*
X1414403Y39079912D01*
X1414403Y39079912D02*
X1172498Y39140389D01*
X1172498Y39140389D02*
X688688Y39140389D01*
X688688Y39140389D02*
X567736Y39079912D01*
X567736Y39079912D02*
X507260Y39019436D01*
X507260Y39019436D02*
X446784Y38898484D01*
X446784Y38898484D02*
X446784Y38656579D01*
X446784Y38656579D02*
X507260Y38535627D01*
X507260Y38535627D02*
X567736Y38475150D01*
X567736Y38475150D02*
X688688Y38414674D01*
X688688Y38414674D02*
X991069Y38414674D01*
X991069Y38414674D02*
X1112022Y38475150D01*
X1112022Y38475150D02*
X1172498Y38535627D01*
X1172498Y38535627D02*
X1232974Y38656579D01*
X1232974Y38656579D02*
X1232974Y38898484D01*
X1232974Y38898484D02*
X1172498Y39019436D01*
X1172498Y39019436D02*
X1112022Y39079912D01*
X1112022Y39079912D02*
X991069Y39140389D01*
X9880846Y44748056D02*
X9276084Y44324722D01*
X9880846Y44022341D02*
X8610846Y44022341D01*
X8610846Y44022341D02*
X8610846Y44506151D01*
X8610846Y44506151D02*
X8671322Y44627103D01*
X8671322Y44627103D02*
X8731798Y44687580D01*
X8731798Y44687580D02*
X8852750Y44748056D01*
X8852750Y44748056D02*
X9034179Y44748056D01*
X9034179Y44748056D02*
X9155131Y44687580D01*
X9155131Y44687580D02*
X9215608Y44627103D01*
X9215608Y44627103D02*
X9276084Y44506151D01*
X9276084Y44506151D02*
X9276084Y44022341D01*
X8731798Y45231865D02*
X8671322Y45292341D01*
X8671322Y45292341D02*
X8610846Y45413294D01*
X8610846Y45413294D02*
X8610846Y45715675D01*
X8610846Y45715675D02*
X8671322Y45836627D01*
X8671322Y45836627D02*
X8731798Y45897103D01*
X8731798Y45897103D02*
X8852750Y45957580D01*
X8852750Y45957580D02*
X8973703Y45957580D01*
X8973703Y45957580D02*
X9155131Y45897103D01*
X9155131Y45897103D02*
X9880846Y45171389D01*
X9880846Y45171389D02*
X9880846Y45957580D01*
X7831666Y-29093795D02*
X8013095Y-29154271D01*
X8013095Y-29154271D02*
X8315476Y-29154271D01*
X8315476Y-29154271D02*
X8436428Y-29093795D01*
X8436428Y-29093795D02*
X8496904Y-29033318D01*
X8496904Y-29033318D02*
X8557381Y-28912366D01*
X8557381Y-28912366D02*
X8557381Y-28791414D01*
X8557381Y-28791414D02*
X8496904Y-28670461D01*
X8496904Y-28670461D02*
X8436428Y-28609985D01*
X8436428Y-28609985D02*
X8315476Y-28549509D01*
X8315476Y-28549509D02*
X8073571Y-28489033D01*
X8073571Y-28489033D02*
X7952619Y-28428556D01*
X7952619Y-28428556D02*
X7892142Y-28368080D01*
X7892142Y-28368080D02*
X7831666Y-28247128D01*
X7831666Y-28247128D02*
X7831666Y-28126175D01*
X7831666Y-28126175D02*
X7892142Y-28005223D01*
X7892142Y-28005223D02*
X7952619Y-27944747D01*
X7952619Y-27944747D02*
X8073571Y-27884271D01*
X8073571Y-27884271D02*
X8375952Y-27884271D01*
X8375952Y-27884271D02*
X8557381Y-27944747D01*
X8980714Y-27884271D02*
X9283095Y-29154271D01*
X9283095Y-29154271D02*
X9525000Y-28247128D01*
X9525000Y-28247128D02*
X9766905Y-29154271D01*
X9766905Y-29154271D02*
X10069286Y-27884271D01*
X11097381Y-27884271D02*
X10855476Y-27884271D01*
X10855476Y-27884271D02*
X10734524Y-27944747D01*
X10734524Y-27944747D02*
X10674048Y-28005223D01*
X10674048Y-28005223D02*
X10553095Y-28186652D01*
X10553095Y-28186652D02*
X10492619Y-28428556D01*
X10492619Y-28428556D02*
X10492619Y-28912366D01*
X10492619Y-28912366D02*
X10553095Y-29033318D01*
X10553095Y-29033318D02*
X10613572Y-29093795D01*
X10613572Y-29093795D02*
X10734524Y-29154271D01*
X10734524Y-29154271D02*
X10976429Y-29154271D01*
X10976429Y-29154271D02*
X11097381Y-29093795D01*
X11097381Y-29093795D02*
X11157857Y-29033318D01*
X11157857Y-29033318D02*
X11218334Y-28912366D01*
X11218334Y-28912366D02*
X11218334Y-28609985D01*
X11218334Y-28609985D02*
X11157857Y-28489033D01*
X11157857Y-28489033D02*
X11097381Y-28428556D01*
X11097381Y-28428556D02*
X10976429Y-28368080D01*
X10976429Y-28368080D02*
X10734524Y-28368080D01*
X10734524Y-28368080D02*
X10613572Y-28428556D01*
X10613572Y-28428556D02*
X10553095Y-28489033D01*
X10553095Y-28489033D02*
X10492619Y-28609985D01*
X7226904Y9006205D02*
X7408333Y8945728D01*
X7408333Y8945728D02*
X7710714Y8945728D01*
X7710714Y8945728D02*
X7831666Y9006205D01*
X7831666Y9006205D02*
X7892142Y9066681D01*
X7892142Y9066681D02*
X7952619Y9187633D01*
X7952619Y9187633D02*
X7952619Y9308585D01*
X7952619Y9308585D02*
X7892142Y9429538D01*
X7892142Y9429538D02*
X7831666Y9490014D01*
X7831666Y9490014D02*
X7710714Y9550490D01*
X7710714Y9550490D02*
X7468809Y9610966D01*
X7468809Y9610966D02*
X7347857Y9671443D01*
X7347857Y9671443D02*
X7287380Y9731919D01*
X7287380Y9731919D02*
X7226904Y9852871D01*
X7226904Y9852871D02*
X7226904Y9973824D01*
X7226904Y9973824D02*
X7287380Y10094776D01*
X7287380Y10094776D02*
X7347857Y10155252D01*
X7347857Y10155252D02*
X7468809Y10215728D01*
X7468809Y10215728D02*
X7771190Y10215728D01*
X7771190Y10215728D02*
X7952619Y10155252D01*
X8375952Y10215728D02*
X8678333Y8945728D01*
X8678333Y8945728D02*
X8920238Y9852871D01*
X8920238Y9852871D02*
X9162143Y8945728D01*
X9162143Y8945728D02*
X9464524Y10215728D01*
X10613572Y8945728D02*
X9887857Y8945728D01*
X10250714Y8945728D02*
X10250714Y10215728D01*
X10250714Y10215728D02*
X10129762Y10034300D01*
X10129762Y10034300D02*
X10008810Y9913347D01*
X10008810Y9913347D02*
X9887857Y9852871D01*
X11399762Y10215728D02*
X11520715Y10215728D01*
X11520715Y10215728D02*
X11641667Y10155252D01*
X11641667Y10155252D02*
X11702143Y10094776D01*
X11702143Y10094776D02*
X11762619Y9973824D01*
X11762619Y9973824D02*
X11823096Y9731919D01*
X11823096Y9731919D02*
X11823096Y9429538D01*
X11823096Y9429538D02*
X11762619Y9187633D01*
X11762619Y9187633D02*
X11702143Y9066681D01*
X11702143Y9066681D02*
X11641667Y9006205D01*
X11641667Y9006205D02*
X11520715Y8945728D01*
X11520715Y8945728D02*
X11399762Y8945728D01*
X11399762Y8945728D02*
X11278810Y9006205D01*
X11278810Y9006205D02*
X11218334Y9066681D01*
X11218334Y9066681D02*
X11157857Y9187633D01*
X11157857Y9187633D02*
X11097381Y9429538D01*
X11097381Y9429538D02*
X11097381Y9731919D01*
X11097381Y9731919D02*
X11157857Y9973824D01*
X11157857Y9973824D02*
X11218334Y10094776D01*
X11218334Y10094776D02*
X11278810Y10155252D01*
X11278810Y10155252D02*
X11399762Y10215728D01*
X-10650262Y-759521D02*
X-10589786Y-819997D01*
X-10589786Y-819997D02*
X-10529309Y-1001426D01*
X-10529309Y-1001426D02*
X-10529309Y-1122378D01*
X-10529309Y-1122378D02*
X-10589786Y-1303807D01*
X-10589786Y-1303807D02*
X-10710738Y-1424759D01*
X-10710738Y-1424759D02*
X-10831690Y-1485236D01*
X-10831690Y-1485236D02*
X-11073595Y-1545712D01*
X-11073595Y-1545712D02*
X-11255024Y-1545712D01*
X-11255024Y-1545712D02*
X-11496928Y-1485236D01*
X-11496928Y-1485236D02*
X-11617881Y-1424759D01*
X-11617881Y-1424759D02*
X-11738833Y-1303807D01*
X-11738833Y-1303807D02*
X-11799309Y-1122378D01*
X-11799309Y-1122378D02*
X-11799309Y-1001426D01*
X-11799309Y-1001426D02*
X-11738833Y-819997D01*
X-11738833Y-819997D02*
X-11678357Y-759521D01*
X-11678357Y-275712D02*
X-11738833Y-215236D01*
X-11738833Y-215236D02*
X-11799309Y-94283D01*
X-11799309Y-94283D02*
X-11799309Y208097D01*
X-11799309Y208097D02*
X-11738833Y329049D01*
X-11738833Y329049D02*
X-11678357Y389525D01*
X-11678357Y389525D02*
X-11557405Y450002D01*
X-11557405Y450002D02*
X-11436452Y450002D01*
X-11436452Y450002D02*
X-11255024Y389525D01*
X-11255024Y389525D02*
X-10529309Y-336188D01*
X-10529309Y-336188D02*
X-10529309Y450002D01*
X-11799309Y873335D02*
X-11799309Y1659526D01*
X-11799309Y1659526D02*
X-11315500Y1236192D01*
X-11315500Y1236192D02*
X-11315500Y1417621D01*
X-11315500Y1417621D02*
X-11255024Y1538573D01*
X-11255024Y1538573D02*
X-11194547Y1599049D01*
X-11194547Y1599049D02*
X-11073595Y1659526D01*
X-11073595Y1659526D02*
X-10771214Y1659526D01*
X-10771214Y1659526D02*
X-10650262Y1599049D01*
X-10650262Y1599049D02*
X-10589786Y1538573D01*
X-10589786Y1538573D02*
X-10529309Y1417621D01*
X-10529309Y1417621D02*
X-10529309Y1054764D01*
X-10529309Y1054764D02*
X-10589786Y933811D01*
X-10589786Y933811D02*
X-10650262Y873335D01*
X-43420728Y-12421190D02*
X-43420728Y-13025952D01*
X-43420728Y-13025952D02*
X-44690728Y-13025952D01*
X-44085966Y-11997857D02*
X-44085966Y-11574523D01*
X-43420728Y-11393095D02*
X-43420728Y-11997857D01*
X-43420728Y-11997857D02*
X-44690728Y-11997857D01*
X-44690728Y-11997857D02*
X-44690728Y-11393095D01*
X-43420728Y-10848809D02*
X-44690728Y-10848809D01*
X-44690728Y-10848809D02*
X-44690728Y-10546428D01*
X-44690728Y-10546428D02*
X-44630252Y-10364999D01*
X-44630252Y-10364999D02*
X-44509300Y-10244047D01*
X-44509300Y-10244047D02*
X-44388347Y-10183570D01*
X-44388347Y-10183570D02*
X-44146443Y-10123094D01*
X-44146443Y-10123094D02*
X-43965014Y-10123094D01*
X-43965014Y-10123094D02*
X-43723109Y-10183570D01*
X-43723109Y-10183570D02*
X-43602157Y-10244047D01*
X-43602157Y-10244047D02*
X-43481205Y-10364999D01*
X-43481205Y-10364999D02*
X-43420728Y-10546428D01*
X-43420728Y-10546428D02*
X-43420728Y-10848809D01*
X-44690728Y-9034523D02*
X-44690728Y-9276428D01*
X-44690728Y-9276428D02*
X-44630252Y-9397380D01*
X-44630252Y-9397380D02*
X-44569776Y-9457856D01*
X-44569776Y-9457856D02*
X-44388347Y-9578809D01*
X-44388347Y-9578809D02*
X-44146443Y-9639285D01*
X-44146443Y-9639285D02*
X-43662633Y-9639285D01*
X-43662633Y-9639285D02*
X-43541681Y-9578809D01*
X-43541681Y-9578809D02*
X-43481205Y-9518332D01*
X-43481205Y-9518332D02*
X-43420728Y-9397380D01*
X-43420728Y-9397380D02*
X-43420728Y-9155475D01*
X-43420728Y-9155475D02*
X-43481205Y-9034523D01*
X-43481205Y-9034523D02*
X-43541681Y-8974047D01*
X-43541681Y-8974047D02*
X-43662633Y-8913570D01*
X-43662633Y-8913570D02*
X-43965014Y-8913570D01*
X-43965014Y-8913570D02*
X-44085966Y-8974047D01*
X-44085966Y-8974047D02*
X-44146443Y-9034523D01*
X-44146443Y-9034523D02*
X-44206919Y-9155475D01*
X-44206919Y-9155475D02*
X-44206919Y-9397380D01*
X-44206919Y-9397380D02*
X-44146443Y-9518332D01*
X-44146443Y-9518332D02*
X-44085966Y-9578809D01*
X-44085966Y-9578809D02*
X-43965014Y-9639285D01*
X-40095947Y-35316786D02*
X-40156423Y-35377263D01*
X-40156423Y-35377263D02*
X-40337852Y-35437739D01*
X-40337852Y-35437739D02*
X-40458804Y-35437739D01*
X-40458804Y-35437739D02*
X-40640233Y-35377263D01*
X-40640233Y-35377263D02*
X-40761185Y-35256310D01*
X-40761185Y-35256310D02*
X-40821662Y-35135358D01*
X-40821662Y-35135358D02*
X-40882138Y-34893453D01*
X-40882138Y-34893453D02*
X-40882138Y-34712024D01*
X-40882138Y-34712024D02*
X-40821662Y-34470120D01*
X-40821662Y-34470120D02*
X-40761185Y-34349167D01*
X-40761185Y-34349167D02*
X-40640233Y-34228215D01*
X-40640233Y-34228215D02*
X-40458804Y-34167739D01*
X-40458804Y-34167739D02*
X-40337852Y-34167739D01*
X-40337852Y-34167739D02*
X-40156423Y-34228215D01*
X-40156423Y-34228215D02*
X-40095947Y-34288691D01*
X-38886423Y-35437739D02*
X-39612138Y-35437739D01*
X-39249281Y-35437739D02*
X-39249281Y-34167739D01*
X-39249281Y-34167739D02*
X-39370233Y-34349167D01*
X-39370233Y-34349167D02*
X-39491185Y-34470120D01*
X-39491185Y-34470120D02*
X-39612138Y-34530596D01*
X-37797852Y-34167739D02*
X-38039757Y-34167739D01*
X-38039757Y-34167739D02*
X-38160709Y-34228215D01*
X-38160709Y-34228215D02*
X-38221185Y-34288691D01*
X-38221185Y-34288691D02*
X-38342138Y-34470120D01*
X-38342138Y-34470120D02*
X-38402614Y-34712024D01*
X-38402614Y-34712024D02*
X-38402614Y-35195834D01*
X-38402614Y-35195834D02*
X-38342138Y-35316786D01*
X-38342138Y-35316786D02*
X-38281661Y-35377263D01*
X-38281661Y-35377263D02*
X-38160709Y-35437739D01*
X-38160709Y-35437739D02*
X-37918804Y-35437739D01*
X-37918804Y-35437739D02*
X-37797852Y-35377263D01*
X-37797852Y-35377263D02*
X-37737376Y-35316786D01*
X-37737376Y-35316786D02*
X-37676899Y-35195834D01*
X-37676899Y-35195834D02*
X-37676899Y-34893453D01*
X-37676899Y-34893453D02*
X-37737376Y-34772501D01*
X-37737376Y-34772501D02*
X-37797852Y-34712024D01*
X-37797852Y-34712024D02*
X-37918804Y-34651548D01*
X-37918804Y-34651548D02*
X-38160709Y-34651548D01*
X-38160709Y-34651548D02*
X-38281661Y-34712024D01*
X-38281661Y-34712024D02*
X-38342138Y-34772501D01*
X-38342138Y-34772501D02*
X-38402614Y-34893453D01*
X-29576044Y-19080739D02*
X-29515568Y-19141215D01*
X-29515568Y-19141215D02*
X-29455091Y-19322644D01*
X-29455091Y-19322644D02*
X-29455091Y-19443596D01*
X-29455091Y-19443596D02*
X-29515568Y-19625025D01*
X-29515568Y-19625025D02*
X-29636520Y-19745977D01*
X-29636520Y-19745977D02*
X-29757472Y-19806454D01*
X-29757472Y-19806454D02*
X-29999377Y-19866930D01*
X-29999377Y-19866930D02*
X-30180806Y-19866930D01*
X-30180806Y-19866930D02*
X-30422710Y-19806454D01*
X-30422710Y-19806454D02*
X-30543663Y-19745977D01*
X-30543663Y-19745977D02*
X-30664615Y-19625025D01*
X-30664615Y-19625025D02*
X-30725091Y-19443596D01*
X-30725091Y-19443596D02*
X-30725091Y-19322644D01*
X-30725091Y-19322644D02*
X-30664615Y-19141215D01*
X-30664615Y-19141215D02*
X-30604139Y-19080739D01*
X-30604139Y-18596930D02*
X-30664615Y-18536454D01*
X-30664615Y-18536454D02*
X-30725091Y-18415501D01*
X-30725091Y-18415501D02*
X-30725091Y-18113120D01*
X-30725091Y-18113120D02*
X-30664615Y-17992168D01*
X-30664615Y-17992168D02*
X-30604139Y-17931692D01*
X-30604139Y-17931692D02*
X-30483187Y-17871215D01*
X-30483187Y-17871215D02*
X-30362234Y-17871215D01*
X-30362234Y-17871215D02*
X-30180806Y-17931692D01*
X-30180806Y-17931692D02*
X-29455091Y-18657406D01*
X-29455091Y-18657406D02*
X-29455091Y-17871215D01*
X43771240Y30738596D02*
X43710764Y30678120D01*
X43710764Y30678120D02*
X43529335Y30617643D01*
X43529335Y30617643D02*
X43408383Y30617643D01*
X43408383Y30617643D02*
X43226954Y30678120D01*
X43226954Y30678120D02*
X43106002Y30799072D01*
X43106002Y30799072D02*
X43045525Y30920024D01*
X43045525Y30920024D02*
X42985049Y31161929D01*
X42985049Y31161929D02*
X42985049Y31343358D01*
X42985049Y31343358D02*
X43045525Y31585262D01*
X43045525Y31585262D02*
X43106002Y31706215D01*
X43106002Y31706215D02*
X43226954Y31827167D01*
X43226954Y31827167D02*
X43408383Y31887643D01*
X43408383Y31887643D02*
X43529335Y31887643D01*
X43529335Y31887643D02*
X43710764Y31827167D01*
X43710764Y31827167D02*
X43771240Y31766691D01*
X44980764Y30617643D02*
X44255049Y30617643D01*
X44617906Y30617643D02*
X44617906Y31887643D01*
X44617906Y31887643D02*
X44496954Y31706215D01*
X44496954Y31706215D02*
X44376002Y31585262D01*
X44376002Y31585262D02*
X44255049Y31524786D01*
X46190288Y30617643D02*
X45464573Y30617643D01*
X45827430Y30617643D02*
X45827430Y31887643D01*
X45827430Y31887643D02*
X45706478Y31706215D01*
X45706478Y31706215D02*
X45585526Y31585262D01*
X45585526Y31585262D02*
X45464573Y31524786D01*
X7504047Y-32079271D02*
X6899285Y-32079271D01*
X6899285Y-32079271D02*
X6899285Y-30809271D01*
X7927380Y-31414033D02*
X8350714Y-31414033D01*
X8532142Y-32079271D02*
X7927380Y-32079271D01*
X7927380Y-32079271D02*
X7927380Y-30809271D01*
X7927380Y-30809271D02*
X8532142Y-30809271D01*
X9076428Y-32079271D02*
X9076428Y-30809271D01*
X9076428Y-30809271D02*
X9378809Y-30809271D01*
X9378809Y-30809271D02*
X9560238Y-30869747D01*
X9560238Y-30869747D02*
X9681190Y-30990699D01*
X9681190Y-30990699D02*
X9741667Y-31111652D01*
X9741667Y-31111652D02*
X9802143Y-31353556D01*
X9802143Y-31353556D02*
X9802143Y-31534985D01*
X9802143Y-31534985D02*
X9741667Y-31776890D01*
X9741667Y-31776890D02*
X9681190Y-31897842D01*
X9681190Y-31897842D02*
X9560238Y-32018795D01*
X9560238Y-32018795D02*
X9378809Y-32079271D01*
X9378809Y-32079271D02*
X9076428Y-32079271D01*
X10285952Y-30930223D02*
X10346428Y-30869747D01*
X10346428Y-30869747D02*
X10467381Y-30809271D01*
X10467381Y-30809271D02*
X10769762Y-30809271D01*
X10769762Y-30809271D02*
X10890714Y-30869747D01*
X10890714Y-30869747D02*
X10951190Y-30930223D01*
X10951190Y-30930223D02*
X11011667Y-31051175D01*
X11011667Y-31051175D02*
X11011667Y-31172128D01*
X11011667Y-31172128D02*
X10951190Y-31353556D01*
X10951190Y-31353556D02*
X10225476Y-32079271D01*
X10225476Y-32079271D02*
X11011667Y-32079271D01*
X11797857Y-30809271D02*
X11918810Y-30809271D01*
X11918810Y-30809271D02*
X12039762Y-30869747D01*
X12039762Y-30869747D02*
X12100238Y-30930223D01*
X12100238Y-30930223D02*
X12160714Y-31051175D01*
X12160714Y-31051175D02*
X12221191Y-31293080D01*
X12221191Y-31293080D02*
X12221191Y-31595461D01*
X12221191Y-31595461D02*
X12160714Y-31837366D01*
X12160714Y-31837366D02*
X12100238Y-31958318D01*
X12100238Y-31958318D02*
X12039762Y-32018795D01*
X12039762Y-32018795D02*
X11918810Y-32079271D01*
X11918810Y-32079271D02*
X11797857Y-32079271D01*
X11797857Y-32079271D02*
X11676905Y-32018795D01*
X11676905Y-32018795D02*
X11616429Y-31958318D01*
X11616429Y-31958318D02*
X11555952Y-31837366D01*
X11555952Y-31837366D02*
X11495476Y-31595461D01*
X11495476Y-31595461D02*
X11495476Y-31293080D01*
X11495476Y-31293080D02*
X11555952Y-31051175D01*
X11555952Y-31051175D02*
X11616429Y-30930223D01*
X11616429Y-30930223D02*
X11676905Y-30869747D01*
X11676905Y-30869747D02*
X11797857Y-30809271D01*
X-40095947Y8843834D02*
X-40156423Y8783358D01*
X-40156423Y8783358D02*
X-40337852Y8722881D01*
X-40337852Y8722881D02*
X-40458804Y8722881D01*
X-40458804Y8722881D02*
X-40640233Y8783358D01*
X-40640233Y8783358D02*
X-40761185Y8904310D01*
X-40761185Y8904310D02*
X-40821662Y9025262D01*
X-40821662Y9025262D02*
X-40882138Y9267167D01*
X-40882138Y9267167D02*
X-40882138Y9448596D01*
X-40882138Y9448596D02*
X-40821662Y9690500D01*
X-40821662Y9690500D02*
X-40761185Y9811453D01*
X-40761185Y9811453D02*
X-40640233Y9932405D01*
X-40640233Y9932405D02*
X-40458804Y9992881D01*
X-40458804Y9992881D02*
X-40337852Y9992881D01*
X-40337852Y9992881D02*
X-40156423Y9932405D01*
X-40156423Y9932405D02*
X-40095947Y9871929D01*
X-38886423Y8722881D02*
X-39612138Y8722881D01*
X-39249281Y8722881D02*
X-39249281Y9992881D01*
X-39249281Y9992881D02*
X-39370233Y9811453D01*
X-39370233Y9811453D02*
X-39491185Y9690500D01*
X-39491185Y9690500D02*
X-39612138Y9630024D01*
X-38463090Y9992881D02*
X-37616423Y9992881D01*
X-37616423Y9992881D02*
X-38160709Y8722881D01*
X-34400262Y38810494D02*
X-34339786Y38750018D01*
X-34339786Y38750018D02*
X-34279309Y38568589D01*
X-34279309Y38568589D02*
X-34279309Y38447637D01*
X-34279309Y38447637D02*
X-34339786Y38266208D01*
X-34339786Y38266208D02*
X-34460738Y38145256D01*
X-34460738Y38145256D02*
X-34581690Y38084779D01*
X-34581690Y38084779D02*
X-34823595Y38024303D01*
X-34823595Y38024303D02*
X-35005024Y38024303D01*
X-35005024Y38024303D02*
X-35246928Y38084779D01*
X-35246928Y38084779D02*
X-35367881Y38145256D01*
X-35367881Y38145256D02*
X-35488833Y38266208D01*
X-35488833Y38266208D02*
X-35549309Y38447637D01*
X-35549309Y38447637D02*
X-35549309Y38568589D01*
X-35549309Y38568589D02*
X-35488833Y38750018D01*
X-35488833Y38750018D02*
X-35428357Y38810494D01*
X-34279309Y39415256D02*
X-34279309Y39657160D01*
X-34279309Y39657160D02*
X-34339786Y39778113D01*
X-34339786Y39778113D02*
X-34400262Y39838589D01*
X-34400262Y39838589D02*
X-34581690Y39959541D01*
X-34581690Y39959541D02*
X-34823595Y40020018D01*
X-34823595Y40020018D02*
X-35307405Y40020018D01*
X-35307405Y40020018D02*
X-35428357Y39959541D01*
X-35428357Y39959541D02*
X-35488833Y39899065D01*
X-35488833Y39899065D02*
X-35549309Y39778113D01*
X-35549309Y39778113D02*
X-35549309Y39536208D01*
X-35549309Y39536208D02*
X-35488833Y39415256D01*
X-35488833Y39415256D02*
X-35428357Y39354779D01*
X-35428357Y39354779D02*
X-35307405Y39294303D01*
X-35307405Y39294303D02*
X-35005024Y39294303D01*
X-35005024Y39294303D02*
X-34884071Y39354779D01*
X-34884071Y39354779D02*
X-34823595Y39415256D01*
X-34823595Y39415256D02*
X-34763119Y39536208D01*
X-34763119Y39536208D02*
X-34763119Y39778113D01*
X-34763119Y39778113D02*
X-34823595Y39899065D01*
X-34823595Y39899065D02*
X-34884071Y39959541D01*
X-34884071Y39959541D02*
X-35005024Y40020018D01*
X-29576044Y-759521D02*
X-29515568Y-819997D01*
X-29515568Y-819997D02*
X-29455091Y-1001426D01*
X-29455091Y-1001426D02*
X-29455091Y-1122378D01*
X-29455091Y-1122378D02*
X-29515568Y-1303807D01*
X-29515568Y-1303807D02*
X-29636520Y-1424759D01*
X-29636520Y-1424759D02*
X-29757472Y-1485236D01*
X-29757472Y-1485236D02*
X-29999377Y-1545712D01*
X-29999377Y-1545712D02*
X-30180806Y-1545712D01*
X-30180806Y-1545712D02*
X-30422710Y-1485236D01*
X-30422710Y-1485236D02*
X-30543663Y-1424759D01*
X-30543663Y-1424759D02*
X-30664615Y-1303807D01*
X-30664615Y-1303807D02*
X-30725091Y-1122378D01*
X-30725091Y-1122378D02*
X-30725091Y-1001426D01*
X-30725091Y-1001426D02*
X-30664615Y-819997D01*
X-30664615Y-819997D02*
X-30604139Y-759521D01*
X-30604139Y-275712D02*
X-30664615Y-215236D01*
X-30664615Y-215236D02*
X-30725091Y-94283D01*
X-30725091Y-94283D02*
X-30725091Y208097D01*
X-30725091Y208097D02*
X-30664615Y329049D01*
X-30664615Y329049D02*
X-30604139Y389525D01*
X-30604139Y389525D02*
X-30483187Y450002D01*
X-30483187Y450002D02*
X-30362234Y450002D01*
X-30362234Y450002D02*
X-30180806Y389525D01*
X-30180806Y389525D02*
X-29455091Y-336188D01*
X-29455091Y-336188D02*
X-29455091Y450002D01*
X-30604139Y933811D02*
X-30664615Y994287D01*
X-30664615Y994287D02*
X-30725091Y1115240D01*
X-30725091Y1115240D02*
X-30725091Y1417621D01*
X-30725091Y1417621D02*
X-30664615Y1538573D01*
X-30664615Y1538573D02*
X-30604139Y1599049D01*
X-30604139Y1599049D02*
X-30483187Y1659526D01*
X-30483187Y1659526D02*
X-30362234Y1659526D01*
X-30362234Y1659526D02*
X-30180806Y1599049D01*
X-30180806Y1599049D02*
X-29455091Y873335D01*
X-29455091Y873335D02*
X-29455091Y1659526D01*
X46176730Y-2316509D02*
X46237207Y-2376985D01*
X46237207Y-2376985D02*
X46297683Y-2558414D01*
X46297683Y-2558414D02*
X46297683Y-2679366D01*
X46297683Y-2679366D02*
X46237207Y-2860795D01*
X46237207Y-2860795D02*
X46116254Y-2981747D01*
X46116254Y-2981747D02*
X45995302Y-3042224D01*
X45995302Y-3042224D02*
X45753397Y-3102700D01*
X45753397Y-3102700D02*
X45571968Y-3102700D01*
X45571968Y-3102700D02*
X45330064Y-3042224D01*
X45330064Y-3042224D02*
X45209111Y-2981747D01*
X45209111Y-2981747D02*
X45088159Y-2860795D01*
X45088159Y-2860795D02*
X45027683Y-2679366D01*
X45027683Y-2679366D02*
X45027683Y-2558414D01*
X45027683Y-2558414D02*
X45088159Y-2376985D01*
X45088159Y-2376985D02*
X45148635Y-2316509D01*
X45148635Y-1832700D02*
X45088159Y-1772224D01*
X45088159Y-1772224D02*
X45027683Y-1651271D01*
X45027683Y-1651271D02*
X45027683Y-1348890D01*
X45027683Y-1348890D02*
X45088159Y-1227938D01*
X45088159Y-1227938D02*
X45148635Y-1167462D01*
X45148635Y-1167462D02*
X45269587Y-1106985D01*
X45269587Y-1106985D02*
X45390540Y-1106985D01*
X45390540Y-1106985D02*
X45571968Y-1167462D01*
X45571968Y-1167462D02*
X46297683Y-1893176D01*
X46297683Y-1893176D02*
X46297683Y-1106985D01*
X45027683Y-18414D02*
X45027683Y-260319D01*
X45027683Y-260319D02*
X45088159Y-381271D01*
X45088159Y-381271D02*
X45148635Y-441747D01*
X45148635Y-441747D02*
X45330064Y-562700D01*
X45330064Y-562700D02*
X45571968Y-623176D01*
X45571968Y-623176D02*
X46055778Y-623176D01*
X46055778Y-623176D02*
X46176730Y-562700D01*
X46176730Y-562700D02*
X46237207Y-502223D01*
X46237207Y-502223D02*
X46297683Y-381271D01*
X46297683Y-381271D02*
X46297683Y-139366D01*
X46297683Y-139366D02*
X46237207Y-18414D01*
X46237207Y-18414D02*
X46176730Y42061D01*
X46176730Y42061D02*
X46055778Y102538D01*
X46055778Y102538D02*
X45753397Y102538D01*
X45753397Y102538D02*
X45632445Y42061D01*
X45632445Y42061D02*
X45571968Y-18414D01*
X45571968Y-18414D02*
X45511492Y-139366D01*
X45511492Y-139366D02*
X45511492Y-381271D01*
X45511492Y-381271D02*
X45571968Y-502223D01*
X45571968Y-502223D02*
X45632445Y-562700D01*
X45632445Y-562700D02*
X45753397Y-623176D01*
X5564424Y40803415D02*
X5624901Y40742939D01*
X5624901Y40742939D02*
X5685377Y40561510D01*
X5685377Y40561510D02*
X5685377Y40440558D01*
X5685377Y40440558D02*
X5624901Y40259129D01*
X5624901Y40259129D02*
X5503948Y40138177D01*
X5503948Y40138177D02*
X5382996Y40077700D01*
X5382996Y40077700D02*
X5141091Y40017224D01*
X5141091Y40017224D02*
X4959662Y40017224D01*
X4959662Y40017224D02*
X4717758Y40077700D01*
X4717758Y40077700D02*
X4596805Y40138177D01*
X4596805Y40138177D02*
X4475853Y40259129D01*
X4475853Y40259129D02*
X4415377Y40440558D01*
X4415377Y40440558D02*
X4415377Y40561510D01*
X4415377Y40561510D02*
X4475853Y40742939D01*
X4475853Y40742939D02*
X4536329Y40803415D01*
X5685377Y42012939D02*
X5685377Y41287224D01*
X5685377Y41650081D02*
X4415377Y41650081D01*
X4415377Y41650081D02*
X4596805Y41529129D01*
X4596805Y41529129D02*
X4717758Y41408177D01*
X4717758Y41408177D02*
X4778234Y41287224D01*
X4415377Y42799129D02*
X4415377Y42920082D01*
X4415377Y42920082D02*
X4475853Y43041034D01*
X4475853Y43041034D02*
X4536329Y43101510D01*
X4536329Y43101510D02*
X4657281Y43161986D01*
X4657281Y43161986D02*
X4899186Y43222463D01*
X4899186Y43222463D02*
X5201567Y43222463D01*
X5201567Y43222463D02*
X5443472Y43161986D01*
X5443472Y43161986D02*
X5564424Y43101510D01*
X5564424Y43101510D02*
X5624901Y43041034D01*
X5624901Y43041034D02*
X5685377Y42920082D01*
X5685377Y42920082D02*
X5685377Y42799129D01*
X5685377Y42799129D02*
X5624901Y42678177D01*
X5624901Y42678177D02*
X5564424Y42617701D01*
X5564424Y42617701D02*
X5443472Y42557224D01*
X5443472Y42557224D02*
X5201567Y42496748D01*
X5201567Y42496748D02*
X4899186Y42496748D01*
X4899186Y42496748D02*
X4657281Y42557224D01*
X4657281Y42557224D02*
X4536329Y42617701D01*
X4536329Y42617701D02*
X4475853Y42678177D01*
X4475853Y42678177D02*
X4415377Y42799129D01*
X8646612Y-19080739D02*
X8707089Y-19141215D01*
X8707089Y-19141215D02*
X8767565Y-19322644D01*
X8767565Y-19322644D02*
X8767565Y-19443596D01*
X8767565Y-19443596D02*
X8707089Y-19625025D01*
X8707089Y-19625025D02*
X8586136Y-19745977D01*
X8586136Y-19745977D02*
X8465184Y-19806454D01*
X8465184Y-19806454D02*
X8223279Y-19866930D01*
X8223279Y-19866930D02*
X8041850Y-19866930D01*
X8041850Y-19866930D02*
X7799946Y-19806454D01*
X7799946Y-19806454D02*
X7678993Y-19745977D01*
X7678993Y-19745977D02*
X7558041Y-19625025D01*
X7558041Y-19625025D02*
X7497565Y-19443596D01*
X7497565Y-19443596D02*
X7497565Y-19322644D01*
X7497565Y-19322644D02*
X7558041Y-19141215D01*
X7558041Y-19141215D02*
X7618517Y-19080739D01*
X7920898Y-17992168D02*
X8767565Y-17992168D01*
X7437089Y-18294549D02*
X8344231Y-18596930D01*
X8344231Y-18596930D02*
X8344231Y-17810739D01*
X-10650262Y-19080739D02*
X-10589786Y-19141215D01*
X-10589786Y-19141215D02*
X-10529309Y-19322644D01*
X-10529309Y-19322644D02*
X-10529309Y-19443596D01*
X-10529309Y-19443596D02*
X-10589786Y-19625025D01*
X-10589786Y-19625025D02*
X-10710738Y-19745977D01*
X-10710738Y-19745977D02*
X-10831690Y-19806454D01*
X-10831690Y-19806454D02*
X-11073595Y-19866930D01*
X-11073595Y-19866930D02*
X-11255024Y-19866930D01*
X-11255024Y-19866930D02*
X-11496928Y-19806454D01*
X-11496928Y-19806454D02*
X-11617881Y-19745977D01*
X-11617881Y-19745977D02*
X-11738833Y-19625025D01*
X-11738833Y-19625025D02*
X-11799309Y-19443596D01*
X-11799309Y-19443596D02*
X-11799309Y-19322644D01*
X-11799309Y-19322644D02*
X-11738833Y-19141215D01*
X-11738833Y-19141215D02*
X-11678357Y-19080739D01*
X-11799309Y-18657406D02*
X-11799309Y-17871215D01*
X-11799309Y-17871215D02*
X-11315500Y-18294549D01*
X-11315500Y-18294549D02*
X-11315500Y-18113120D01*
X-11315500Y-18113120D02*
X-11255024Y-17992168D01*
X-11255024Y-17992168D02*
X-11194547Y-17931692D01*
X-11194547Y-17931692D02*
X-11073595Y-17871215D01*
X-11073595Y-17871215D02*
X-10771214Y-17871215D01*
X-10771214Y-17871215D02*
X-10650262Y-17931692D01*
X-10650262Y-17931692D02*
X-10589786Y-17992168D01*
X-10589786Y-17992168D02*
X-10529309Y-18113120D01*
X-10529309Y-18113120D02*
X-10529309Y-18475977D01*
X-10529309Y-18475977D02*
X-10589786Y-18596930D01*
X-10589786Y-18596930D02*
X-10650262Y-18657406D01*
X27572393Y-38377818D02*
X27632870Y-38438294D01*
X27632870Y-38438294D02*
X27693346Y-38619723D01*
X27693346Y-38619723D02*
X27693346Y-38740675D01*
X27693346Y-38740675D02*
X27632870Y-38922104D01*
X27632870Y-38922104D02*
X27511917Y-39043056D01*
X27511917Y-39043056D02*
X27390965Y-39103533D01*
X27390965Y-39103533D02*
X27149060Y-39164009D01*
X27149060Y-39164009D02*
X26967631Y-39164009D01*
X26967631Y-39164009D02*
X26725727Y-39103533D01*
X26725727Y-39103533D02*
X26604774Y-39043056D01*
X26604774Y-39043056D02*
X26483822Y-38922104D01*
X26483822Y-38922104D02*
X26423346Y-38740675D01*
X26423346Y-38740675D02*
X26423346Y-38619723D01*
X26423346Y-38619723D02*
X26483822Y-38438294D01*
X26483822Y-38438294D02*
X26544298Y-38377818D01*
X26967631Y-37652104D02*
X26907155Y-37773056D01*
X26907155Y-37773056D02*
X26846679Y-37833533D01*
X26846679Y-37833533D02*
X26725727Y-37894009D01*
X26725727Y-37894009D02*
X26665250Y-37894009D01*
X26665250Y-37894009D02*
X26544298Y-37833533D01*
X26544298Y-37833533D02*
X26483822Y-37773056D01*
X26483822Y-37773056D02*
X26423346Y-37652104D01*
X26423346Y-37652104D02*
X26423346Y-37410199D01*
X26423346Y-37410199D02*
X26483822Y-37289247D01*
X26483822Y-37289247D02*
X26544298Y-37228771D01*
X26544298Y-37228771D02*
X26665250Y-37168294D01*
X26665250Y-37168294D02*
X26725727Y-37168294D01*
X26725727Y-37168294D02*
X26846679Y-37228771D01*
X26846679Y-37228771D02*
X26907155Y-37289247D01*
X26907155Y-37289247D02*
X26967631Y-37410199D01*
X26967631Y-37410199D02*
X26967631Y-37652104D01*
X26967631Y-37652104D02*
X27028108Y-37773056D01*
X27028108Y-37773056D02*
X27088584Y-37833533D01*
X27088584Y-37833533D02*
X27209536Y-37894009D01*
X27209536Y-37894009D02*
X27451441Y-37894009D01*
X27451441Y-37894009D02*
X27572393Y-37833533D01*
X27572393Y-37833533D02*
X27632870Y-37773056D01*
X27632870Y-37773056D02*
X27693346Y-37652104D01*
X27693346Y-37652104D02*
X27693346Y-37410199D01*
X27693346Y-37410199D02*
X27632870Y-37289247D01*
X27632870Y-37289247D02*
X27572393Y-37228771D01*
X27572393Y-37228771D02*
X27451441Y-37168294D01*
X27451441Y-37168294D02*
X27209536Y-37168294D01*
X27209536Y-37168294D02*
X27088584Y-37228771D01*
X27088584Y-37228771D02*
X27028108Y-37289247D01*
X27028108Y-37289247D02*
X26967631Y-37410199D01*
X-43420728Y-34421190D02*
X-43420728Y-35025952D01*
X-43420728Y-35025952D02*
X-44690728Y-35025952D01*
X-44085966Y-33997857D02*
X-44085966Y-33574523D01*
X-43420728Y-33393095D02*
X-43420728Y-33997857D01*
X-43420728Y-33997857D02*
X-44690728Y-33997857D01*
X-44690728Y-33997857D02*
X-44690728Y-33393095D01*
X-43420728Y-32848809D02*
X-44690728Y-32848809D01*
X-44690728Y-32848809D02*
X-44690728Y-32546428D01*
X-44690728Y-32546428D02*
X-44630252Y-32364999D01*
X-44630252Y-32364999D02*
X-44509300Y-32244047D01*
X-44509300Y-32244047D02*
X-44388347Y-32183570D01*
X-44388347Y-32183570D02*
X-44146443Y-32123094D01*
X-44146443Y-32123094D02*
X-43965014Y-32123094D01*
X-43965014Y-32123094D02*
X-43723109Y-32183570D01*
X-43723109Y-32183570D02*
X-43602157Y-32244047D01*
X-43602157Y-32244047D02*
X-43481205Y-32364999D01*
X-43481205Y-32364999D02*
X-43420728Y-32546428D01*
X-43420728Y-32546428D02*
X-43420728Y-32848809D01*
X-44690728Y-30974047D02*
X-44690728Y-31578809D01*
X-44690728Y-31578809D02*
X-44085966Y-31639285D01*
X-44085966Y-31639285D02*
X-44146443Y-31578809D01*
X-44146443Y-31578809D02*
X-44206919Y-31457856D01*
X-44206919Y-31457856D02*
X-44206919Y-31155475D01*
X-44206919Y-31155475D02*
X-44146443Y-31034523D01*
X-44146443Y-31034523D02*
X-44085966Y-30974047D01*
X-44085966Y-30974047D02*
X-43965014Y-30913570D01*
X-43965014Y-30913570D02*
X-43662633Y-30913570D01*
X-43662633Y-30913570D02*
X-43541681Y-30974047D01*
X-43541681Y-30974047D02*
X-43481205Y-31034523D01*
X-43481205Y-31034523D02*
X-43420728Y-31155475D01*
X-43420728Y-31155475D02*
X-43420728Y-31457856D01*
X-43420728Y-31457856D02*
X-43481205Y-31578809D01*
X-43481205Y-31578809D02*
X-43541681Y-31639285D01*
X8646612Y-38377818D02*
X8707089Y-38438294D01*
X8707089Y-38438294D02*
X8767565Y-38619723D01*
X8767565Y-38619723D02*
X8767565Y-38740675D01*
X8767565Y-38740675D02*
X8707089Y-38922104D01*
X8707089Y-38922104D02*
X8586136Y-39043056D01*
X8586136Y-39043056D02*
X8465184Y-39103533D01*
X8465184Y-39103533D02*
X8223279Y-39164009D01*
X8223279Y-39164009D02*
X8041850Y-39164009D01*
X8041850Y-39164009D02*
X7799946Y-39103533D01*
X7799946Y-39103533D02*
X7678993Y-39043056D01*
X7678993Y-39043056D02*
X7558041Y-38922104D01*
X7558041Y-38922104D02*
X7497565Y-38740675D01*
X7497565Y-38740675D02*
X7497565Y-38619723D01*
X7497565Y-38619723D02*
X7558041Y-38438294D01*
X7558041Y-38438294D02*
X7618517Y-38377818D01*
X7497565Y-37954485D02*
X7497565Y-37107818D01*
X7497565Y-37107818D02*
X8767565Y-37652104D01*
X41532380Y-43079271D02*
X41532380Y-41809271D01*
X41532380Y-42414033D02*
X42258095Y-42414033D01*
X42258095Y-43079271D02*
X42258095Y-41809271D01*
X42741904Y-41809271D02*
X43528095Y-41809271D01*
X43528095Y-41809271D02*
X43104761Y-42293080D01*
X43104761Y-42293080D02*
X43286190Y-42293080D01*
X43286190Y-42293080D02*
X43407142Y-42353556D01*
X43407142Y-42353556D02*
X43467618Y-42414033D01*
X43467618Y-42414033D02*
X43528095Y-42534985D01*
X43528095Y-42534985D02*
X43528095Y-42837366D01*
X43528095Y-42837366D02*
X43467618Y-42958318D01*
X43467618Y-42958318D02*
X43407142Y-43018795D01*
X43407142Y-43018795D02*
X43286190Y-43079271D01*
X43286190Y-43079271D02*
X42923333Y-43079271D01*
X42923333Y-43079271D02*
X42802380Y-43018795D01*
X42802380Y-43018795D02*
X42741904Y-42958318D01*
X-12134637Y-45662337D02*
X-12074161Y-45722813D01*
X-12074161Y-45722813D02*
X-12013684Y-45904242D01*
X-12013684Y-45904242D02*
X-12013684Y-46025194D01*
X-12013684Y-46025194D02*
X-12074161Y-46206623D01*
X-12074161Y-46206623D02*
X-12195113Y-46327575D01*
X-12195113Y-46327575D02*
X-12316065Y-46388052D01*
X-12316065Y-46388052D02*
X-12557970Y-46448528D01*
X-12557970Y-46448528D02*
X-12739399Y-46448528D01*
X-12739399Y-46448528D02*
X-12981303Y-46388052D01*
X-12981303Y-46388052D02*
X-13102256Y-46327575D01*
X-13102256Y-46327575D02*
X-13223208Y-46206623D01*
X-13223208Y-46206623D02*
X-13283684Y-46025194D01*
X-13283684Y-46025194D02*
X-13283684Y-45904242D01*
X-13283684Y-45904242D02*
X-13223208Y-45722813D01*
X-13223208Y-45722813D02*
X-13162732Y-45662337D01*
X-12013684Y-44452813D02*
X-12013684Y-45178528D01*
X-12013684Y-44815671D02*
X-13283684Y-44815671D01*
X-13283684Y-44815671D02*
X-13102256Y-44936623D01*
X-13102256Y-44936623D02*
X-12981303Y-45057575D01*
X-12981303Y-45057575D02*
X-12920827Y-45178528D01*
X-13283684Y-43303766D02*
X-13283684Y-43908528D01*
X-13283684Y-43908528D02*
X-12678922Y-43969004D01*
X-12678922Y-43969004D02*
X-12739399Y-43908528D01*
X-12739399Y-43908528D02*
X-12799875Y-43787575D01*
X-12799875Y-43787575D02*
X-12799875Y-43485194D01*
X-12799875Y-43485194D02*
X-12739399Y-43364242D01*
X-12739399Y-43364242D02*
X-12678922Y-43303766D01*
X-12678922Y-43303766D02*
X-12557970Y-43243289D01*
X-12557970Y-43243289D02*
X-12255589Y-43243289D01*
X-12255589Y-43243289D02*
X-12134637Y-43303766D01*
X-12134637Y-43303766D02*
X-12074161Y-43364242D01*
X-12074161Y-43364242D02*
X-12013684Y-43485194D01*
X-12013684Y-43485194D02*
X-12013684Y-43787575D01*
X-12013684Y-43787575D02*
X-12074161Y-43908528D01*
X-12074161Y-43908528D02*
X-12134637Y-43969004D01*
X-11218333Y9006205D02*
X-11036904Y8945728D01*
X-11036904Y8945728D02*
X-10734523Y8945728D01*
X-10734523Y8945728D02*
X-10613571Y9006205D01*
X-10613571Y9006205D02*
X-10553095Y9066681D01*
X-10553095Y9066681D02*
X-10492618Y9187633D01*
X-10492618Y9187633D02*
X-10492618Y9308585D01*
X-10492618Y9308585D02*
X-10553095Y9429538D01*
X-10553095Y9429538D02*
X-10613571Y9490014D01*
X-10613571Y9490014D02*
X-10734523Y9550490D01*
X-10734523Y9550490D02*
X-10976428Y9610966D01*
X-10976428Y9610966D02*
X-11097380Y9671443D01*
X-11097380Y9671443D02*
X-11157857Y9731919D01*
X-11157857Y9731919D02*
X-11218333Y9852871D01*
X-11218333Y9852871D02*
X-11218333Y9973824D01*
X-11218333Y9973824D02*
X-11157857Y10094776D01*
X-11157857Y10094776D02*
X-11097380Y10155252D01*
X-11097380Y10155252D02*
X-10976428Y10215728D01*
X-10976428Y10215728D02*
X-10674047Y10215728D01*
X-10674047Y10215728D02*
X-10492618Y10155252D01*
X-10069285Y10215728D02*
X-9766904Y8945728D01*
X-9766904Y8945728D02*
X-9524999Y9852871D01*
X-9524999Y9852871D02*
X-9283094Y8945728D01*
X-9283094Y8945728D02*
X-8980714Y10215728D01*
X-8436427Y8945728D02*
X-8194523Y8945728D01*
X-8194523Y8945728D02*
X-8073570Y9006205D01*
X-8073570Y9006205D02*
X-8013094Y9066681D01*
X-8013094Y9066681D02*
X-7892142Y9248109D01*
X-7892142Y9248109D02*
X-7831665Y9490014D01*
X-7831665Y9490014D02*
X-7831665Y9973824D01*
X-7831665Y9973824D02*
X-7892142Y10094776D01*
X-7892142Y10094776D02*
X-7952618Y10155252D01*
X-7952618Y10155252D02*
X-8073570Y10215728D01*
X-8073570Y10215728D02*
X-8315475Y10215728D01*
X-8315475Y10215728D02*
X-8436427Y10155252D01*
X-8436427Y10155252D02*
X-8496904Y10094776D01*
X-8496904Y10094776D02*
X-8557380Y9973824D01*
X-8557380Y9973824D02*
X-8557380Y9671443D01*
X-8557380Y9671443D02*
X-8496904Y9550490D01*
X-8496904Y9550490D02*
X-8436427Y9490014D01*
X-8436427Y9490014D02*
X-8315475Y9429538D01*
X-8315475Y9429538D02*
X-8073570Y9429538D01*
X-8073570Y9429538D02*
X-7952618Y9490014D01*
X-7952618Y9490014D02*
X-7892142Y9550490D01*
X-7892142Y9550490D02*
X-7831665Y9671443D01*
X7504047Y25060728D02*
X6899285Y25060728D01*
X6899285Y25060728D02*
X6899285Y26330728D01*
X7927380Y25725966D02*
X8350714Y25725966D01*
X8532142Y25060728D02*
X7927380Y25060728D01*
X7927380Y25060728D02*
X7927380Y26330728D01*
X7927380Y26330728D02*
X8532142Y26330728D01*
X9076428Y25060728D02*
X9076428Y26330728D01*
X9076428Y26330728D02*
X9378809Y26330728D01*
X9378809Y26330728D02*
X9560238Y26270252D01*
X9560238Y26270252D02*
X9681190Y26149300D01*
X9681190Y26149300D02*
X9741667Y26028347D01*
X9741667Y26028347D02*
X9802143Y25786443D01*
X9802143Y25786443D02*
X9802143Y25605014D01*
X9802143Y25605014D02*
X9741667Y25363109D01*
X9741667Y25363109D02*
X9681190Y25242157D01*
X9681190Y25242157D02*
X9560238Y25121205D01*
X9560238Y25121205D02*
X9378809Y25060728D01*
X9378809Y25060728D02*
X9076428Y25060728D01*
X11011667Y25060728D02*
X10285952Y25060728D01*
X10648809Y25060728D02*
X10648809Y26330728D01*
X10648809Y26330728D02*
X10527857Y26149300D01*
X10527857Y26149300D02*
X10406905Y26028347D01*
X10406905Y26028347D02*
X10285952Y25967871D01*
X11737381Y25786443D02*
X11616429Y25846919D01*
X11616429Y25846919D02*
X11555952Y25907395D01*
X11555952Y25907395D02*
X11495476Y26028347D01*
X11495476Y26028347D02*
X11495476Y26088824D01*
X11495476Y26088824D02*
X11555952Y26209776D01*
X11555952Y26209776D02*
X11616429Y26270252D01*
X11616429Y26270252D02*
X11737381Y26330728D01*
X11737381Y26330728D02*
X11979286Y26330728D01*
X11979286Y26330728D02*
X12100238Y26270252D01*
X12100238Y26270252D02*
X12160714Y26209776D01*
X12160714Y26209776D02*
X12221191Y26088824D01*
X12221191Y26088824D02*
X12221191Y26028347D01*
X12221191Y26028347D02*
X12160714Y25907395D01*
X12160714Y25907395D02*
X12100238Y25846919D01*
X12100238Y25846919D02*
X11979286Y25786443D01*
X11979286Y25786443D02*
X11737381Y25786443D01*
X11737381Y25786443D02*
X11616429Y25725966D01*
X11616429Y25725966D02*
X11555952Y25665490D01*
X11555952Y25665490D02*
X11495476Y25544538D01*
X11495476Y25544538D02*
X11495476Y25302633D01*
X11495476Y25302633D02*
X11555952Y25181681D01*
X11555952Y25181681D02*
X11616429Y25121205D01*
X11616429Y25121205D02*
X11737381Y25060728D01*
X11737381Y25060728D02*
X11979286Y25060728D01*
X11979286Y25060728D02*
X12100238Y25121205D01*
X12100238Y25121205D02*
X12160714Y25181681D01*
X12160714Y25181681D02*
X12221191Y25302633D01*
X12221191Y25302633D02*
X12221191Y25544538D01*
X12221191Y25544538D02*
X12160714Y25665490D01*
X12160714Y25665490D02*
X12100238Y25725966D01*
X12100238Y25725966D02*
X11979286Y25786443D01*
X31654424Y-45662337D02*
X31714901Y-45722813D01*
X31714901Y-45722813D02*
X31775377Y-45904242D01*
X31775377Y-45904242D02*
X31775377Y-46025194D01*
X31775377Y-46025194D02*
X31714901Y-46206623D01*
X31714901Y-46206623D02*
X31593948Y-46327575D01*
X31593948Y-46327575D02*
X31472996Y-46388052D01*
X31472996Y-46388052D02*
X31231091Y-46448528D01*
X31231091Y-46448528D02*
X31049662Y-46448528D01*
X31049662Y-46448528D02*
X30807758Y-46388052D01*
X30807758Y-46388052D02*
X30686805Y-46327575D01*
X30686805Y-46327575D02*
X30565853Y-46206623D01*
X30565853Y-46206623D02*
X30505377Y-46025194D01*
X30505377Y-46025194D02*
X30505377Y-45904242D01*
X30505377Y-45904242D02*
X30565853Y-45722813D01*
X30565853Y-45722813D02*
X30626329Y-45662337D01*
X31775377Y-44452813D02*
X31775377Y-45178528D01*
X31775377Y-44815671D02*
X30505377Y-44815671D01*
X30505377Y-44815671D02*
X30686805Y-44936623D01*
X30686805Y-44936623D02*
X30807758Y-45057575D01*
X30807758Y-45057575D02*
X30868234Y-45178528D01*
X30928710Y-43364242D02*
X31775377Y-43364242D01*
X30444901Y-43666623D02*
X31352043Y-43969004D01*
X31352043Y-43969004D02*
X31352043Y-43182813D01*
X6032380Y41190728D02*
X6032380Y40162633D01*
X6032380Y40162633D02*
X6092857Y40041681D01*
X6092857Y40041681D02*
X6153333Y39981205D01*
X6153333Y39981205D02*
X6274285Y39920728D01*
X6274285Y39920728D02*
X6516190Y39920728D01*
X6516190Y39920728D02*
X6637142Y39981205D01*
X6637142Y39981205D02*
X6697619Y40041681D01*
X6697619Y40041681D02*
X6758095Y40162633D01*
X6758095Y40162633D02*
X6758095Y41190728D01*
X8028095Y39920728D02*
X7302380Y39920728D01*
X7665237Y39920728D02*
X7665237Y41190728D01*
X7665237Y41190728D02*
X7544285Y41009300D01*
X7544285Y41009300D02*
X7423333Y40888347D01*
X7423333Y40888347D02*
X7302380Y40827871D01*
X-25122919Y38205732D02*
X-25062443Y38145256D01*
X-25062443Y38145256D02*
X-25001966Y37963827D01*
X-25001966Y37963827D02*
X-25001966Y37842875D01*
X-25001966Y37842875D02*
X-25062443Y37661446D01*
X-25062443Y37661446D02*
X-25183395Y37540494D01*
X-25183395Y37540494D02*
X-25304347Y37480017D01*
X-25304347Y37480017D02*
X-25546252Y37419541D01*
X-25546252Y37419541D02*
X-25727681Y37419541D01*
X-25727681Y37419541D02*
X-25969585Y37480017D01*
X-25969585Y37480017D02*
X-26090538Y37540494D01*
X-26090538Y37540494D02*
X-26211490Y37661446D01*
X-26211490Y37661446D02*
X-26271966Y37842875D01*
X-26271966Y37842875D02*
X-26271966Y37963827D01*
X-26271966Y37963827D02*
X-26211490Y38145256D01*
X-26211490Y38145256D02*
X-26151014Y38205732D01*
X-26151014Y38689541D02*
X-26211490Y38750017D01*
X-26211490Y38750017D02*
X-26271966Y38870970D01*
X-26271966Y38870970D02*
X-26271966Y39173351D01*
X-26271966Y39173351D02*
X-26211490Y39294303D01*
X-26211490Y39294303D02*
X-26151014Y39354779D01*
X-26151014Y39354779D02*
X-26030062Y39415256D01*
X-26030062Y39415256D02*
X-25909109Y39415256D01*
X-25909109Y39415256D02*
X-25727681Y39354779D01*
X-25727681Y39354779D02*
X-25001966Y38629065D01*
X-25001966Y38629065D02*
X-25001966Y39415256D01*
X-25001966Y40020018D02*
X-25001966Y40261922D01*
X-25001966Y40261922D02*
X-25062443Y40382875D01*
X-25062443Y40382875D02*
X-25122919Y40443351D01*
X-25122919Y40443351D02*
X-25304347Y40564303D01*
X-25304347Y40564303D02*
X-25546252Y40624780D01*
X-25546252Y40624780D02*
X-26030062Y40624780D01*
X-26030062Y40624780D02*
X-26151014Y40564303D01*
X-26151014Y40564303D02*
X-26211490Y40503827D01*
X-26211490Y40503827D02*
X-26271966Y40382875D01*
X-26271966Y40382875D02*
X-26271966Y40140970D01*
X-26271966Y40140970D02*
X-26211490Y40020018D01*
X-26211490Y40020018D02*
X-26151014Y39959541D01*
X-26151014Y39959541D02*
X-26030062Y39899065D01*
X-26030062Y39899065D02*
X-25727681Y39899065D01*
X-25727681Y39899065D02*
X-25606728Y39959541D01*
X-25606728Y39959541D02*
X-25546252Y40020018D01*
X-25546252Y40020018D02*
X-25485776Y40140970D01*
X-25485776Y40140970D02*
X-25485776Y40382875D01*
X-25485776Y40382875D02*
X-25546252Y40503827D01*
X-25546252Y40503827D02*
X-25606728Y40564303D01*
X-25606728Y40564303D02*
X-25727681Y40624780D01*
X30974047Y43420728D02*
X30369285Y43420728D01*
X30369285Y43420728D02*
X30369285Y44690728D01*
X31397380Y44085966D02*
X31820714Y44085966D01*
X32002142Y43420728D02*
X31397380Y43420728D01*
X31397380Y43420728D02*
X31397380Y44690728D01*
X31397380Y44690728D02*
X32002142Y44690728D01*
X32546428Y43420728D02*
X32546428Y44690728D01*
X32546428Y44690728D02*
X32848809Y44690728D01*
X32848809Y44690728D02*
X33030238Y44630252D01*
X33030238Y44630252D02*
X33151190Y44509300D01*
X33151190Y44509300D02*
X33211667Y44388347D01*
X33211667Y44388347D02*
X33272143Y44146443D01*
X33272143Y44146443D02*
X33272143Y43965014D01*
X33272143Y43965014D02*
X33211667Y43723109D01*
X33211667Y43723109D02*
X33151190Y43602157D01*
X33151190Y43602157D02*
X33030238Y43481205D01*
X33030238Y43481205D02*
X32848809Y43420728D01*
X32848809Y43420728D02*
X32546428Y43420728D01*
X34481667Y43420728D02*
X33755952Y43420728D01*
X34118809Y43420728D02*
X34118809Y44690728D01*
X34118809Y44690728D02*
X33997857Y44509300D01*
X33997857Y44509300D02*
X33876905Y44388347D01*
X33876905Y44388347D02*
X33755952Y44327871D01*
X35267857Y44690728D02*
X35388810Y44690728D01*
X35388810Y44690728D02*
X35509762Y44630252D01*
X35509762Y44630252D02*
X35570238Y44569776D01*
X35570238Y44569776D02*
X35630714Y44448824D01*
X35630714Y44448824D02*
X35691191Y44206919D01*
X35691191Y44206919D02*
X35691191Y43904538D01*
X35691191Y43904538D02*
X35630714Y43662633D01*
X35630714Y43662633D02*
X35570238Y43541681D01*
X35570238Y43541681D02*
X35509762Y43481205D01*
X35509762Y43481205D02*
X35388810Y43420728D01*
X35388810Y43420728D02*
X35267857Y43420728D01*
X35267857Y43420728D02*
X35146905Y43481205D01*
X35146905Y43481205D02*
X35086429Y43541681D01*
X35086429Y43541681D02*
X35025952Y43662633D01*
X35025952Y43662633D02*
X34965476Y43904538D01*
X34965476Y43904538D02*
X34965476Y44206919D01*
X34965476Y44206919D02*
X35025952Y44448824D01*
X35025952Y44448824D02*
X35086429Y44569776D01*
X35086429Y44569776D02*
X35146905Y44630252D01*
X35146905Y44630252D02*
X35267857Y44690728D01*
X-12421190Y-40579271D02*
X-13025952Y-40579271D01*
X-13025952Y-40579271D02*
X-13025952Y-39309271D01*
X-11997857Y-39914033D02*
X-11574523Y-39914033D01*
X-11393095Y-40579271D02*
X-11997857Y-40579271D01*
X-11997857Y-40579271D02*
X-11997857Y-39309271D01*
X-11997857Y-39309271D02*
X-11393095Y-39309271D01*
X-10848809Y-40579271D02*
X-10848809Y-39309271D01*
X-10848809Y-39309271D02*
X-10546428Y-39309271D01*
X-10546428Y-39309271D02*
X-10364999Y-39369747D01*
X-10364999Y-39369747D02*
X-10244047Y-39490699D01*
X-10244047Y-39490699D02*
X-10183570Y-39611652D01*
X-10183570Y-39611652D02*
X-10123094Y-39853556D01*
X-10123094Y-39853556D02*
X-10123094Y-40034985D01*
X-10123094Y-40034985D02*
X-10183570Y-40276890D01*
X-10183570Y-40276890D02*
X-10244047Y-40397842D01*
X-10244047Y-40397842D02*
X-10364999Y-40518795D01*
X-10364999Y-40518795D02*
X-10546428Y-40579271D01*
X-10546428Y-40579271D02*
X-10848809Y-40579271D01*
X-9699761Y-39309271D02*
X-8913570Y-39309271D01*
X-8913570Y-39309271D02*
X-9336904Y-39793080D01*
X-9336904Y-39793080D02*
X-9155475Y-39793080D01*
X-9155475Y-39793080D02*
X-9034523Y-39853556D01*
X-9034523Y-39853556D02*
X-8974047Y-39914033D01*
X-8974047Y-39914033D02*
X-8913570Y-40034985D01*
X-8913570Y-40034985D02*
X-8913570Y-40337366D01*
X-8913570Y-40337366D02*
X-8974047Y-40458318D01*
X-8974047Y-40458318D02*
X-9034523Y-40518795D01*
X-9034523Y-40518795D02*
X-9155475Y-40579271D01*
X-9155475Y-40579271D02*
X-9518332Y-40579271D01*
X-9518332Y-40579271D02*
X-9639285Y-40518795D01*
X-9639285Y-40518795D02*
X-9699761Y-40458318D01*
X-23009794Y43401099D02*
X-22949318Y43340623D01*
X-22949318Y43340623D02*
X-22888841Y43159194D01*
X-22888841Y43159194D02*
X-22888841Y43038242D01*
X-22888841Y43038242D02*
X-22949318Y42856813D01*
X-22949318Y42856813D02*
X-23070270Y42735861D01*
X-23070270Y42735861D02*
X-23191222Y42675384D01*
X-23191222Y42675384D02*
X-23433127Y42614908D01*
X-23433127Y42614908D02*
X-23614556Y42614908D01*
X-23614556Y42614908D02*
X-23856460Y42675384D01*
X-23856460Y42675384D02*
X-23977413Y42735861D01*
X-23977413Y42735861D02*
X-24098365Y42856813D01*
X-24098365Y42856813D02*
X-24158841Y43038242D01*
X-24158841Y43038242D02*
X-24158841Y43159194D01*
X-24158841Y43159194D02*
X-24098365Y43340623D01*
X-24098365Y43340623D02*
X-24037889Y43401099D01*
X-22888841Y44610623D02*
X-22888841Y43884908D01*
X-22888841Y44247765D02*
X-24158841Y44247765D01*
X-24158841Y44247765D02*
X-23977413Y44126813D01*
X-23977413Y44126813D02*
X-23856460Y44005861D01*
X-23856460Y44005861D02*
X-23795984Y43884908D01*
X-23614556Y45336337D02*
X-23675032Y45215385D01*
X-23675032Y45215385D02*
X-23735508Y45154908D01*
X-23735508Y45154908D02*
X-23856460Y45094432D01*
X-23856460Y45094432D02*
X-23916937Y45094432D01*
X-23916937Y45094432D02*
X-24037889Y45154908D01*
X-24037889Y45154908D02*
X-24098365Y45215385D01*
X-24098365Y45215385D02*
X-24158841Y45336337D01*
X-24158841Y45336337D02*
X-24158841Y45578242D01*
X-24158841Y45578242D02*
X-24098365Y45699194D01*
X-24098365Y45699194D02*
X-24037889Y45759670D01*
X-24037889Y45759670D02*
X-23916937Y45820147D01*
X-23916937Y45820147D02*
X-23856460Y45820147D01*
X-23856460Y45820147D02*
X-23735508Y45759670D01*
X-23735508Y45759670D02*
X-23675032Y45699194D01*
X-23675032Y45699194D02*
X-23614556Y45578242D01*
X-23614556Y45578242D02*
X-23614556Y45336337D01*
X-23614556Y45336337D02*
X-23554079Y45215385D01*
X-23554079Y45215385D02*
X-23493603Y45154908D01*
X-23493603Y45154908D02*
X-23372651Y45094432D01*
X-23372651Y45094432D02*
X-23130746Y45094432D01*
X-23130746Y45094432D02*
X-23009794Y45154908D01*
X-23009794Y45154908D02*
X-22949318Y45215385D01*
X-22949318Y45215385D02*
X-22888841Y45336337D01*
X-22888841Y45336337D02*
X-22888841Y45578242D01*
X-22888841Y45578242D02*
X-22949318Y45699194D01*
X-22949318Y45699194D02*
X-23009794Y45759670D01*
X-23009794Y45759670D02*
X-23130746Y45820147D01*
X-23130746Y45820147D02*
X-23372651Y45820147D01*
X-23372651Y45820147D02*
X-23493603Y45759670D01*
X-23493603Y45759670D02*
X-23554079Y45699194D01*
X-23554079Y45699194D02*
X-23614556Y45578242D01*
M02*
