%TF.GenerationSoftware,KiCad,Pcbnew,10.0.4*%
%TF.CreationDate,2026-07-21T11:09:54+08:00*%
%TF.ProjectId,openmicro,6f70656e-6d69-4637-926f-2e6b69636164,rev?*%
%TF.SameCoordinates,Original*%
%TF.FileFunction,Legend,Bot*%
%TF.FilePolarity,Positive*%
%FSLAX46Y46*%
G04 Gerber Fmt 4.6, Leading zero omitted, Abs format (unit mm)*
G04 Created by KiCad (PCBNEW 10.0.4) date 2026-07-21 11:09:54*
%MOMM*%
%LPD*%
G01*
G04 APERTURE LIST*
%ADD10C,0.158750*%
G04 APERTURE END LIST*
D10*
X35454271Y-16732856D02*
X34184271Y-16732856D01*
X34184271Y-16732856D02*
X34184271Y-17035237D01*
X34184271Y-17035237D02*
X34244747Y-17216666D01*
X34244747Y-17216666D02*
X34365699Y-17337618D01*
X34365699Y-17337618D02*
X34486652Y-17398095D01*
X34486652Y-17398095D02*
X34728556Y-17458571D01*
X34728556Y-17458571D02*
X34909985Y-17458571D01*
X34909985Y-17458571D02*
X35151890Y-17398095D01*
X35151890Y-17398095D02*
X35272842Y-17337618D01*
X35272842Y-17337618D02*
X35393795Y-17216666D01*
X35393795Y-17216666D02*
X35454271Y-17035237D01*
X35454271Y-17035237D02*
X35454271Y-16732856D01*
X35454271Y-18668095D02*
X35454271Y-17942380D01*
X35454271Y-18305237D02*
X34184271Y-18305237D01*
X34184271Y-18305237D02*
X34365699Y-18184285D01*
X34365699Y-18184285D02*
X34486652Y-18063333D01*
X34486652Y-18063333D02*
X34547128Y-17942380D01*
X34184271Y-19091428D02*
X34184271Y-19877619D01*
X34184271Y-19877619D02*
X34668080Y-19454285D01*
X34668080Y-19454285D02*
X34668080Y-19635714D01*
X34668080Y-19635714D02*
X34728556Y-19756666D01*
X34728556Y-19756666D02*
X34789033Y-19817142D01*
X34789033Y-19817142D02*
X34909985Y-19877619D01*
X34909985Y-19877619D02*
X35212366Y-19877619D01*
X35212366Y-19877619D02*
X35333318Y-19817142D01*
X35333318Y-19817142D02*
X35393795Y-19756666D01*
X35393795Y-19756666D02*
X35454271Y-19635714D01*
X35454271Y-19635714D02*
X35454271Y-19272857D01*
X35454271Y-19272857D02*
X35393795Y-19151904D01*
X35393795Y-19151904D02*
X35333318Y-19091428D01*
X35454271Y-36387618D02*
X34184271Y-36387618D01*
X34184271Y-36387618D02*
X34184271Y-36689999D01*
X34184271Y-36689999D02*
X34244747Y-36871428D01*
X34244747Y-36871428D02*
X34365699Y-36992380D01*
X34365699Y-36992380D02*
X34486652Y-37052857D01*
X34486652Y-37052857D02*
X34728556Y-37113333D01*
X34728556Y-37113333D02*
X34909985Y-37113333D01*
X34909985Y-37113333D02*
X35151890Y-37052857D01*
X35151890Y-37052857D02*
X35272842Y-36992380D01*
X35272842Y-36992380D02*
X35393795Y-36871428D01*
X35393795Y-36871428D02*
X35454271Y-36689999D01*
X35454271Y-36689999D02*
X35454271Y-36387618D01*
X34184271Y-38262380D02*
X34184271Y-37657618D01*
X34184271Y-37657618D02*
X34789033Y-37597142D01*
X34789033Y-37597142D02*
X34728556Y-37657618D01*
X34728556Y-37657618D02*
X34668080Y-37778571D01*
X34668080Y-37778571D02*
X34668080Y-38080952D01*
X34668080Y-38080952D02*
X34728556Y-38201904D01*
X34728556Y-38201904D02*
X34789033Y-38262380D01*
X34789033Y-38262380D02*
X34909985Y-38322857D01*
X34909985Y-38322857D02*
X35212366Y-38322857D01*
X35212366Y-38322857D02*
X35333318Y-38262380D01*
X35333318Y-38262380D02*
X35393795Y-38201904D01*
X35393795Y-38201904D02*
X35454271Y-38080952D01*
X35454271Y-38080952D02*
X35454271Y-37778571D01*
X35454271Y-37778571D02*
X35393795Y-37657618D01*
X35393795Y-37657618D02*
X35333318Y-37597142D01*
X16404271Y1712381D02*
X15134271Y1712381D01*
X15134271Y1712381D02*
X15134271Y1410000D01*
X15134271Y1410000D02*
X15194747Y1228571D01*
X15194747Y1228571D02*
X15315699Y1107619D01*
X15315699Y1107619D02*
X15436652Y1047142D01*
X15436652Y1047142D02*
X15678556Y986666D01*
X15678556Y986666D02*
X15859985Y986666D01*
X15859985Y986666D02*
X16101890Y1047142D01*
X16101890Y1047142D02*
X16222842Y1107619D01*
X16222842Y1107619D02*
X16343795Y1228571D01*
X16343795Y1228571D02*
X16404271Y1410000D01*
X16404271Y1410000D02*
X16404271Y1712381D01*
X15678556Y260952D02*
X15618080Y381904D01*
X15618080Y381904D02*
X15557604Y442381D01*
X15557604Y442381D02*
X15436652Y502857D01*
X15436652Y502857D02*
X15376175Y502857D01*
X15376175Y502857D02*
X15255223Y442381D01*
X15255223Y442381D02*
X15194747Y381904D01*
X15194747Y381904D02*
X15134271Y260952D01*
X15134271Y260952D02*
X15134271Y19047D01*
X15134271Y19047D02*
X15194747Y-101904D01*
X15194747Y-101904D02*
X15255223Y-162380D01*
X15255223Y-162380D02*
X15376175Y-222857D01*
X15376175Y-222857D02*
X15436652Y-222857D01*
X15436652Y-222857D02*
X15557604Y-162380D01*
X15557604Y-162380D02*
X15618080Y-101904D01*
X15618080Y-101904D02*
X15678556Y19047D01*
X15678556Y19047D02*
X15678556Y260952D01*
X15678556Y260952D02*
X15739033Y381904D01*
X15739033Y381904D02*
X15799509Y442381D01*
X15799509Y442381D02*
X15920461Y502857D01*
X15920461Y502857D02*
X16162366Y502857D01*
X16162366Y502857D02*
X16283318Y442381D01*
X16283318Y442381D02*
X16343795Y381904D01*
X16343795Y381904D02*
X16404271Y260952D01*
X16404271Y260952D02*
X16404271Y19047D01*
X16404271Y19047D02*
X16343795Y-101904D01*
X16343795Y-101904D02*
X16283318Y-162380D01*
X16283318Y-162380D02*
X16162366Y-222857D01*
X16162366Y-222857D02*
X15920461Y-222857D01*
X15920461Y-222857D02*
X15799509Y-162380D01*
X15799509Y-162380D02*
X15739033Y-101904D01*
X15739033Y-101904D02*
X15678556Y19047D01*
X-2645728Y-36387618D02*
X-3915728Y-36387618D01*
X-3915728Y-36387618D02*
X-3915728Y-36689999D01*
X-3915728Y-36689999D02*
X-3855252Y-36871428D01*
X-3855252Y-36871428D02*
X-3734300Y-36992380D01*
X-3734300Y-36992380D02*
X-3613347Y-37052857D01*
X-3613347Y-37052857D02*
X-3371443Y-37113333D01*
X-3371443Y-37113333D02*
X-3190014Y-37113333D01*
X-3190014Y-37113333D02*
X-2948109Y-37052857D01*
X-2948109Y-37052857D02*
X-2827157Y-36992380D01*
X-2827157Y-36992380D02*
X-2706205Y-36871428D01*
X-2706205Y-36871428D02*
X-2645728Y-36689999D01*
X-2645728Y-36689999D02*
X-2645728Y-36387618D01*
X-3915728Y-37536666D02*
X-3915728Y-38322857D01*
X-3915728Y-38322857D02*
X-3431919Y-37899523D01*
X-3431919Y-37899523D02*
X-3431919Y-38080952D01*
X-3431919Y-38080952D02*
X-3371443Y-38201904D01*
X-3371443Y-38201904D02*
X-3310966Y-38262380D01*
X-3310966Y-38262380D02*
X-3190014Y-38322857D01*
X-3190014Y-38322857D02*
X-2887633Y-38322857D01*
X-2887633Y-38322857D02*
X-2766681Y-38262380D01*
X-2766681Y-38262380D02*
X-2706205Y-38201904D01*
X-2706205Y-38201904D02*
X-2645728Y-38080952D01*
X-2645728Y-38080952D02*
X-2645728Y-37718095D01*
X-2645728Y-37718095D02*
X-2706205Y-37597142D01*
X-2706205Y-37597142D02*
X-2766681Y-37536666D01*
X-17032380Y36490728D02*
X-17032380Y35462633D01*
X-17032380Y35462633D02*
X-17092857Y35341681D01*
X-17092857Y35341681D02*
X-17153333Y35281205D01*
X-17153333Y35281205D02*
X-17274285Y35220728D01*
X-17274285Y35220728D02*
X-17516190Y35220728D01*
X-17516190Y35220728D02*
X-17637142Y35281205D01*
X-17637142Y35281205D02*
X-17697619Y35341681D01*
X-17697619Y35341681D02*
X-17758095Y35462633D01*
X-17758095Y35462633D02*
X-17758095Y36490728D01*
X-18241904Y36490728D02*
X-19028095Y36490728D01*
X-19028095Y36490728D02*
X-18604761Y36006919D01*
X-18604761Y36006919D02*
X-18786190Y36006919D01*
X-18786190Y36006919D02*
X-18907142Y35946443D01*
X-18907142Y35946443D02*
X-18967618Y35885966D01*
X-18967618Y35885966D02*
X-19028095Y35765014D01*
X-19028095Y35765014D02*
X-19028095Y35462633D01*
X-19028095Y35462633D02*
X-18967618Y35341681D01*
X-18967618Y35341681D02*
X-18907142Y35281205D01*
X-18907142Y35281205D02*
X-18786190Y35220728D01*
X-18786190Y35220728D02*
X-18423333Y35220728D01*
X-18423333Y35220728D02*
X-18302380Y35281205D01*
X-18302380Y35281205D02*
X-18241904Y35341681D01*
X35454271Y1712381D02*
X34184271Y1712381D01*
X34184271Y1712381D02*
X34184271Y1410000D01*
X34184271Y1410000D02*
X34244747Y1228571D01*
X34244747Y1228571D02*
X34365699Y1107619D01*
X34365699Y1107619D02*
X34486652Y1047142D01*
X34486652Y1047142D02*
X34728556Y986666D01*
X34728556Y986666D02*
X34909985Y986666D01*
X34909985Y986666D02*
X35151890Y1047142D01*
X35151890Y1047142D02*
X35272842Y1107619D01*
X35272842Y1107619D02*
X35393795Y1228571D01*
X35393795Y1228571D02*
X35454271Y1410000D01*
X35454271Y1410000D02*
X35454271Y1712381D01*
X35454271Y381904D02*
X35454271Y140000D01*
X35454271Y140000D02*
X35393795Y19047D01*
X35393795Y19047D02*
X35333318Y-41428D01*
X35333318Y-41428D02*
X35151890Y-162380D01*
X35151890Y-162380D02*
X34909985Y-222857D01*
X34909985Y-222857D02*
X34426175Y-222857D01*
X34426175Y-222857D02*
X34305223Y-162380D01*
X34305223Y-162380D02*
X34244747Y-101904D01*
X34244747Y-101904D02*
X34184271Y19047D01*
X34184271Y19047D02*
X34184271Y260952D01*
X34184271Y260952D02*
X34244747Y381904D01*
X34244747Y381904D02*
X34305223Y442381D01*
X34305223Y442381D02*
X34426175Y502857D01*
X34426175Y502857D02*
X34728556Y502857D01*
X34728556Y502857D02*
X34849509Y442381D01*
X34849509Y442381D02*
X34909985Y381904D01*
X34909985Y381904D02*
X34970461Y260952D01*
X34970461Y260952D02*
X34970461Y19047D01*
X34970461Y19047D02*
X34909985Y-101904D01*
X34909985Y-101904D02*
X34849509Y-162380D01*
X34849509Y-162380D02*
X34728556Y-222857D01*
X-2645728Y1712381D02*
X-3915728Y1712381D01*
X-3915728Y1712381D02*
X-3915728Y1410000D01*
X-3915728Y1410000D02*
X-3855252Y1228571D01*
X-3855252Y1228571D02*
X-3734300Y1107619D01*
X-3734300Y1107619D02*
X-3613347Y1047142D01*
X-3613347Y1047142D02*
X-3371443Y986666D01*
X-3371443Y986666D02*
X-3190014Y986666D01*
X-3190014Y986666D02*
X-2948109Y1047142D01*
X-2948109Y1047142D02*
X-2827157Y1107619D01*
X-2827157Y1107619D02*
X-2706205Y1228571D01*
X-2706205Y1228571D02*
X-2645728Y1410000D01*
X-2645728Y1410000D02*
X-2645728Y1712381D01*
X-3915728Y563333D02*
X-3915728Y-283333D01*
X-3915728Y-283333D02*
X-2645728Y260952D01*
X-2645728Y-16732856D02*
X-3915728Y-16732856D01*
X-3915728Y-16732856D02*
X-3915728Y-17035237D01*
X-3915728Y-17035237D02*
X-3855252Y-17216666D01*
X-3855252Y-17216666D02*
X-3734300Y-17337618D01*
X-3734300Y-17337618D02*
X-3613347Y-17398095D01*
X-3613347Y-17398095D02*
X-3371443Y-17458571D01*
X-3371443Y-17458571D02*
X-3190014Y-17458571D01*
X-3190014Y-17458571D02*
X-2948109Y-17398095D01*
X-2948109Y-17398095D02*
X-2827157Y-17337618D01*
X-2827157Y-17337618D02*
X-2706205Y-17216666D01*
X-2706205Y-17216666D02*
X-2645728Y-17035237D01*
X-2645728Y-17035237D02*
X-2645728Y-16732856D01*
X-2645728Y-18668095D02*
X-2645728Y-17942380D01*
X-2645728Y-18305237D02*
X-3915728Y-18305237D01*
X-3915728Y-18305237D02*
X-3734300Y-18184285D01*
X-3734300Y-18184285D02*
X-3613347Y-18063333D01*
X-3613347Y-18063333D02*
X-3552871Y-17942380D01*
X-2645728Y-19877619D02*
X-2645728Y-19151904D01*
X-2645728Y-19514761D02*
X-3915728Y-19514761D01*
X-3915728Y-19514761D02*
X-3734300Y-19393809D01*
X-3734300Y-19393809D02*
X-3613347Y-19272857D01*
X-3613347Y-19272857D02*
X-3552871Y-19151904D01*
X16404271Y-16732856D02*
X15134271Y-16732856D01*
X15134271Y-16732856D02*
X15134271Y-17035237D01*
X15134271Y-17035237D02*
X15194747Y-17216666D01*
X15194747Y-17216666D02*
X15315699Y-17337618D01*
X15315699Y-17337618D02*
X15436652Y-17398095D01*
X15436652Y-17398095D02*
X15678556Y-17458571D01*
X15678556Y-17458571D02*
X15859985Y-17458571D01*
X15859985Y-17458571D02*
X16101890Y-17398095D01*
X16101890Y-17398095D02*
X16222842Y-17337618D01*
X16222842Y-17337618D02*
X16343795Y-17216666D01*
X16343795Y-17216666D02*
X16404271Y-17035237D01*
X16404271Y-17035237D02*
X16404271Y-16732856D01*
X16404271Y-18668095D02*
X16404271Y-17942380D01*
X16404271Y-18305237D02*
X15134271Y-18305237D01*
X15134271Y-18305237D02*
X15315699Y-18184285D01*
X15315699Y-18184285D02*
X15436652Y-18063333D01*
X15436652Y-18063333D02*
X15497128Y-17942380D01*
X15255223Y-19151904D02*
X15194747Y-19212380D01*
X15194747Y-19212380D02*
X15134271Y-19333333D01*
X15134271Y-19333333D02*
X15134271Y-19635714D01*
X15134271Y-19635714D02*
X15194747Y-19756666D01*
X15194747Y-19756666D02*
X15255223Y-19817142D01*
X15255223Y-19817142D02*
X15376175Y-19877619D01*
X15376175Y-19877619D02*
X15497128Y-19877619D01*
X15497128Y-19877619D02*
X15678556Y-19817142D01*
X15678556Y-19817142D02*
X16404271Y-19091428D01*
X16404271Y-19091428D02*
X16404271Y-19877619D01*
X-21695728Y-16732856D02*
X-22965728Y-16732856D01*
X-22965728Y-16732856D02*
X-22965728Y-17035237D01*
X-22965728Y-17035237D02*
X-22905252Y-17216666D01*
X-22905252Y-17216666D02*
X-22784300Y-17337618D01*
X-22784300Y-17337618D02*
X-22663347Y-17398095D01*
X-22663347Y-17398095D02*
X-22421443Y-17458571D01*
X-22421443Y-17458571D02*
X-22240014Y-17458571D01*
X-22240014Y-17458571D02*
X-21998109Y-17398095D01*
X-21998109Y-17398095D02*
X-21877157Y-17337618D01*
X-21877157Y-17337618D02*
X-21756205Y-17216666D01*
X-21756205Y-17216666D02*
X-21695728Y-17035237D01*
X-21695728Y-17035237D02*
X-21695728Y-16732856D01*
X-21695728Y-18668095D02*
X-21695728Y-17942380D01*
X-21695728Y-18305237D02*
X-22965728Y-18305237D01*
X-22965728Y-18305237D02*
X-22784300Y-18184285D01*
X-22784300Y-18184285D02*
X-22663347Y-18063333D01*
X-22663347Y-18063333D02*
X-22602871Y-17942380D01*
X-22965728Y-19454285D02*
X-22965728Y-19575238D01*
X-22965728Y-19575238D02*
X-22905252Y-19696190D01*
X-22905252Y-19696190D02*
X-22844776Y-19756666D01*
X-22844776Y-19756666D02*
X-22723824Y-19817142D01*
X-22723824Y-19817142D02*
X-22481919Y-19877619D01*
X-22481919Y-19877619D02*
X-22179538Y-19877619D01*
X-22179538Y-19877619D02*
X-21937633Y-19817142D01*
X-21937633Y-19817142D02*
X-21816681Y-19756666D01*
X-21816681Y-19756666D02*
X-21756205Y-19696190D01*
X-21756205Y-19696190D02*
X-21695728Y-19575238D01*
X-21695728Y-19575238D02*
X-21695728Y-19454285D01*
X-21695728Y-19454285D02*
X-21756205Y-19333333D01*
X-21756205Y-19333333D02*
X-21816681Y-19272857D01*
X-21816681Y-19272857D02*
X-21937633Y-19212380D01*
X-21937633Y-19212380D02*
X-22179538Y-19151904D01*
X-22179538Y-19151904D02*
X-22481919Y-19151904D01*
X-22481919Y-19151904D02*
X-22723824Y-19212380D01*
X-22723824Y-19212380D02*
X-22844776Y-19272857D01*
X-22844776Y-19272857D02*
X-22905252Y-19333333D01*
X-22905252Y-19333333D02*
X-22965728Y-19454285D01*
X-2645728Y20762381D02*
X-3915728Y20762381D01*
X-3915728Y20762381D02*
X-3915728Y20460000D01*
X-3915728Y20460000D02*
X-3855252Y20278571D01*
X-3855252Y20278571D02*
X-3734300Y20157619D01*
X-3734300Y20157619D02*
X-3613347Y20097142D01*
X-3613347Y20097142D02*
X-3371443Y20036666D01*
X-3371443Y20036666D02*
X-3190014Y20036666D01*
X-3190014Y20036666D02*
X-2948109Y20097142D01*
X-2948109Y20097142D02*
X-2827157Y20157619D01*
X-2827157Y20157619D02*
X-2706205Y20278571D01*
X-2706205Y20278571D02*
X-2645728Y20460000D01*
X-2645728Y20460000D02*
X-2645728Y20762381D01*
X-2645728Y18827142D02*
X-2645728Y19552857D01*
X-2645728Y19190000D02*
X-3915728Y19190000D01*
X-3915728Y19190000D02*
X-3734300Y19310952D01*
X-3734300Y19310952D02*
X-3613347Y19431904D01*
X-3613347Y19431904D02*
X-3552871Y19552857D01*
X16404271Y20762381D02*
X15134271Y20762381D01*
X15134271Y20762381D02*
X15134271Y20460000D01*
X15134271Y20460000D02*
X15194747Y20278571D01*
X15194747Y20278571D02*
X15315699Y20157619D01*
X15315699Y20157619D02*
X15436652Y20097142D01*
X15436652Y20097142D02*
X15678556Y20036666D01*
X15678556Y20036666D02*
X15859985Y20036666D01*
X15859985Y20036666D02*
X16101890Y20097142D01*
X16101890Y20097142D02*
X16222842Y20157619D01*
X16222842Y20157619D02*
X16343795Y20278571D01*
X16343795Y20278571D02*
X16404271Y20460000D01*
X16404271Y20460000D02*
X16404271Y20762381D01*
X15255223Y19552857D02*
X15194747Y19492381D01*
X15194747Y19492381D02*
X15134271Y19371428D01*
X15134271Y19371428D02*
X15134271Y19069047D01*
X15134271Y19069047D02*
X15194747Y18948095D01*
X15194747Y18948095D02*
X15255223Y18887619D01*
X15255223Y18887619D02*
X15376175Y18827142D01*
X15376175Y18827142D02*
X15497128Y18827142D01*
X15497128Y18827142D02*
X15678556Y18887619D01*
X15678556Y18887619D02*
X16404271Y19613333D01*
X16404271Y19613333D02*
X16404271Y18827142D01*
X-21695728Y1712381D02*
X-22965728Y1712381D01*
X-22965728Y1712381D02*
X-22965728Y1410000D01*
X-22965728Y1410000D02*
X-22905252Y1228571D01*
X-22905252Y1228571D02*
X-22784300Y1107619D01*
X-22784300Y1107619D02*
X-22663347Y1047142D01*
X-22663347Y1047142D02*
X-22421443Y986666D01*
X-22421443Y986666D02*
X-22240014Y986666D01*
X-22240014Y986666D02*
X-21998109Y1047142D01*
X-21998109Y1047142D02*
X-21877157Y1107619D01*
X-21877157Y1107619D02*
X-21756205Y1228571D01*
X-21756205Y1228571D02*
X-21695728Y1410000D01*
X-21695728Y1410000D02*
X-21695728Y1712381D01*
X-22965728Y-101904D02*
X-22965728Y140000D01*
X-22965728Y140000D02*
X-22905252Y260952D01*
X-22905252Y260952D02*
X-22844776Y321428D01*
X-22844776Y321428D02*
X-22663347Y442381D01*
X-22663347Y442381D02*
X-22421443Y502857D01*
X-22421443Y502857D02*
X-21937633Y502857D01*
X-21937633Y502857D02*
X-21816681Y442381D01*
X-21816681Y442381D02*
X-21756205Y381904D01*
X-21756205Y381904D02*
X-21695728Y260952D01*
X-21695728Y260952D02*
X-21695728Y19047D01*
X-21695728Y19047D02*
X-21756205Y-101904D01*
X-21756205Y-101904D02*
X-21816681Y-162380D01*
X-21816681Y-162380D02*
X-21937633Y-222857D01*
X-21937633Y-222857D02*
X-22240014Y-222857D01*
X-22240014Y-222857D02*
X-22360966Y-162380D01*
X-22360966Y-162380D02*
X-22421443Y-101904D01*
X-22421443Y-101904D02*
X-22481919Y19047D01*
X-22481919Y19047D02*
X-22481919Y260952D01*
X-22481919Y260952D02*
X-22421443Y381904D01*
X-22421443Y381904D02*
X-22360966Y442381D01*
X-22360966Y442381D02*
X-22240014Y502857D01*
X16404271Y-36387618D02*
X15134271Y-36387618D01*
X15134271Y-36387618D02*
X15134271Y-36689999D01*
X15134271Y-36689999D02*
X15194747Y-36871428D01*
X15194747Y-36871428D02*
X15315699Y-36992380D01*
X15315699Y-36992380D02*
X15436652Y-37052857D01*
X15436652Y-37052857D02*
X15678556Y-37113333D01*
X15678556Y-37113333D02*
X15859985Y-37113333D01*
X15859985Y-37113333D02*
X16101890Y-37052857D01*
X16101890Y-37052857D02*
X16222842Y-36992380D01*
X16222842Y-36992380D02*
X16343795Y-36871428D01*
X16343795Y-36871428D02*
X16404271Y-36689999D01*
X16404271Y-36689999D02*
X16404271Y-36387618D01*
X15557604Y-38201904D02*
X16404271Y-38201904D01*
X15073795Y-37899523D02*
X15980937Y-37597142D01*
X15980937Y-37597142D02*
X15980937Y-38383333D01*
M02*
