%TF.GenerationSoftware,KiCad,Pcbnew,10.0.4*%
%TF.CreationDate,2026-07-21T11:09:54+08:00*%
%TF.ProjectId,openmicro,6f70656e-6d69-4637-926f-2e6b69636164,rev?*%
%TF.SameCoordinates,Original*%
%TF.FileFunction,Paste,Top*%
%TF.FilePolarity,Positive*%
%FSLAX46Y46*%
G04 Gerber Fmt 4.6, Leading zero omitted, Abs format (unit mm)*
G04 Created by KiCad (PCBNEW 10.0.4) date 2026-07-21 11:09:54*
%MOMM*%
%LPD*%
G01*
G04 APERTURE LIST*
%ADD10R,1.350000X0.820000*%
%ADD11R,0.820000X1.350000*%
%ADD12R,0.640000X0.540000*%
%ADD13R,1.200000X1.400000*%
%ADD14R,1.050000X1.400000*%
%ADD15R,1.325000X0.600000*%
%ADD16R,0.540000X0.640000*%
%ADD17C,9.000000*%
%ADD18R,0.600000X1.450000*%
%ADD19R,0.300000X1.450000*%
%ADD20R,0.950000X0.900000*%
G04 APERTURE END LIST*
D10*
%TO.C,LED29*%
X25845000Y-15210000D03*
X25845000Y-13710000D03*
X31295000Y-13710000D03*
X31295000Y-15210000D03*
%TD*%
D11*
%TO.C,LED12*%
X42750000Y8275000D03*
X41250000Y8275000D03*
X41250000Y13725000D03*
X42750000Y13725000D03*
%TD*%
D10*
%TO.C,LED15*%
X30275000Y-42750000D03*
X30275000Y-41250000D03*
X35725000Y-41250000D03*
X35725000Y-42750000D03*
%TD*%
D12*
%TO.C,C12*%
X-18216081Y44078626D03*
X-18216081Y45098626D03*
%TD*%
D13*
%TO.C,Y1*%
X-21260300Y39548656D03*
X-21260300Y41748656D03*
X-22860300Y41748656D03*
X-22860300Y39548656D03*
%TD*%
D14*
%TO.C,SW2*%
X-16758269Y42171063D03*
X-16758269Y38571063D03*
X-18198269Y42171063D03*
X-18198269Y38571063D03*
%TD*%
D12*
%TO.C,C6*%
X-12278581Y-37656152D03*
X-12278581Y-38676152D03*
%TD*%
D10*
%TO.C,LED27*%
X-12255000Y-15210000D03*
X-12255000Y-13710000D03*
X-6805000Y-13710000D03*
X-6805000Y-15210000D03*
%TD*%
D11*
%TO.C,LED11*%
X42750000Y30275000D03*
X41250000Y30275000D03*
X41250000Y35725000D03*
X42750000Y35725000D03*
%TD*%
D10*
%TO.C,LED23*%
X-12255000Y3850000D03*
X-12255000Y5350000D03*
X-6805000Y5350000D03*
X-6805000Y3850000D03*
%TD*%
%TO.C,LED2*%
X-13725000Y41250000D03*
X-13725000Y42750000D03*
X-8275000Y42750000D03*
X-8275000Y41250000D03*
%TD*%
D12*
%TO.C,C24*%
X7018294Y566907D03*
X7018294Y-453093D03*
%TD*%
D15*
%TO.C,U2*%
X44380808Y740200D03*
X44380808Y1690200D03*
X44380808Y2640200D03*
X42105808Y2640200D03*
X42105808Y740200D03*
%TD*%
D10*
%TO.C,LED26*%
X-31295000Y-15210000D03*
X-31295000Y-13710000D03*
X-25845000Y-13710000D03*
X-25845000Y-15210000D03*
%TD*%
D16*
%TO.C,C13*%
X44077669Y-13762609D03*
X45097669Y-13762609D03*
%TD*%
D10*
%TO.C,LED16*%
X8275000Y-42750000D03*
X8275000Y-41250000D03*
X13725000Y-41250000D03*
X13725000Y-42750000D03*
%TD*%
D16*
%TO.C,R1*%
X-19379362Y36706673D03*
X-18359362Y36706673D03*
%TD*%
D12*
%TO.C,C25*%
X25944075Y566907D03*
X25944075Y-453093D03*
%TD*%
%TO.C,C20*%
X-12278581Y19492887D03*
X-12278581Y18472887D03*
%TD*%
D10*
%TO.C,LED4*%
X-35725000Y-42750000D03*
X-35725000Y-41250000D03*
X-30275000Y-41250000D03*
X-30275000Y-42750000D03*
%TD*%
D11*
%TO.C,LED7*%
X-41250000Y8275000D03*
X-42750000Y8275000D03*
X-42750000Y13725000D03*
X-41250000Y13725000D03*
%TD*%
D10*
%TO.C,LED17*%
X-12255000Y22890000D03*
X-12255000Y24390000D03*
X-6805000Y24390000D03*
X-6805000Y22890000D03*
%TD*%
D12*
%TO.C,C5*%
X25944075Y-18359073D03*
X25944075Y-19379073D03*
%TD*%
D17*
%TO.C,TP1*%
X-28575000Y-28575000D03*
%TD*%
D12*
%TO.C,C1*%
X-16731706Y44078626D03*
X-16731706Y45098626D03*
%TD*%
D10*
%TO.C,LED28*%
X6805000Y-15210000D03*
X6805000Y-13710000D03*
X12255000Y-13710000D03*
X12255000Y-15210000D03*
%TD*%
%TO.C,LED22*%
X-31295000Y3850000D03*
X-31295000Y5350000D03*
X-25845000Y5350000D03*
X-25845000Y3850000D03*
%TD*%
D11*
%TO.C,LED13*%
X42750000Y-13725000D03*
X41250000Y-13725000D03*
X41250000Y-8275000D03*
X42750000Y-8275000D03*
%TD*%
D10*
%TO.C,LED24*%
X6805000Y3850000D03*
X6805000Y5350000D03*
X12255000Y5350000D03*
X12255000Y3850000D03*
%TD*%
D11*
%TO.C,LED8*%
X-41250000Y30275000D03*
X-42750000Y30275000D03*
X-42750000Y35725000D03*
X-41250000Y35725000D03*
%TD*%
D12*
%TO.C,R3*%
X-6712175Y39532161D03*
X-6712175Y38512161D03*
%TD*%
D11*
%TO.C,LED14*%
X42750000Y-35725000D03*
X41250000Y-35725000D03*
X41250000Y-30275000D03*
X42750000Y-30275000D03*
%TD*%
D12*
%TO.C,C21*%
X7018294Y19492887D03*
X7018294Y18472887D03*
%TD*%
%TO.C,C27*%
X-20813738Y43707528D03*
X-20813738Y44727528D03*
%TD*%
D10*
%TO.C,LED21*%
X25845000Y-34250000D03*
X25845000Y-32750000D03*
X31295000Y-32750000D03*
X31295000Y-34250000D03*
%TD*%
D18*
%TO.C,J3*%
X3250000Y41595000D03*
X2450000Y41595000D03*
D19*
X1250000Y41595000D03*
X250000Y41595000D03*
X-250000Y41595000D03*
X-1250000Y41595000D03*
D18*
X-2450000Y41595000D03*
X-3250000Y41595000D03*
X-3250000Y41595000D03*
X-2450000Y41595000D03*
D19*
X-1750000Y41595000D03*
X-750000Y41595000D03*
X750000Y41595000D03*
X1750000Y41595000D03*
D18*
X2450000Y41595000D03*
X3250000Y41595000D03*
%TD*%
D10*
%TO.C,LED19*%
X-12255000Y-34250000D03*
X-12255000Y-32750000D03*
X-6805000Y-32750000D03*
X-6805000Y-34250000D03*
%TD*%
D16*
%TO.C,C28*%
X-21977019Y37448868D03*
X-20957019Y37448868D03*
%TD*%
D10*
%TO.C,LED25*%
X25845000Y3850000D03*
X25845000Y5350000D03*
X31295000Y5350000D03*
X31295000Y3850000D03*
%TD*%
%TO.C,LED1*%
X-35725000Y41250000D03*
X-35725000Y42750000D03*
X-30275000Y42750000D03*
X-30275000Y41250000D03*
%TD*%
%TO.C,LED9*%
X8275000Y41250000D03*
X8275000Y42750000D03*
X13725000Y42750000D03*
X13725000Y41250000D03*
%TD*%
D12*
%TO.C,C19*%
X-32487Y38047770D03*
X-32487Y37027770D03*
%TD*%
%TO.C,R2*%
X8131575Y45469723D03*
X8131575Y44449723D03*
%TD*%
%TO.C,C23*%
X-12278581Y566907D03*
X-12278581Y-453093D03*
%TD*%
D11*
%TO.C,LED6*%
X-41250000Y-13725000D03*
X-42750000Y-13725000D03*
X-42750000Y-8275000D03*
X-41250000Y-8275000D03*
%TD*%
D16*
%TO.C,C16*%
X-39789519Y-36028468D03*
X-38769519Y-36028468D03*
%TD*%
D12*
%TO.C,C2*%
X-31204363Y-18359073D03*
X-31204363Y-19379073D03*
%TD*%
D16*
%TO.C,C11*%
X44077669Y30026915D03*
X45097669Y30026915D03*
%TD*%
D10*
%TO.C,LED20*%
X6805000Y-34250000D03*
X6805000Y-32750000D03*
X12255000Y-32750000D03*
X12255000Y-34250000D03*
%TD*%
D16*
%TO.C,C17*%
X-39789519Y8132153D03*
X-38769519Y8132153D03*
%TD*%
D12*
%TO.C,C9*%
X-36028581Y39532161D03*
X-36028581Y38512161D03*
%TD*%
%TO.C,C22*%
X-31204363Y566907D03*
X-31204363Y-453093D03*
%TD*%
D20*
%TO.C,C26*%
X44518412Y-725081D03*
X44518412Y-2275081D03*
%TD*%
D12*
%TO.C,C10*%
X6276106Y41109844D03*
X6276106Y42129844D03*
%TD*%
%TO.C,C4*%
X7018294Y-18359073D03*
X7018294Y-19379073D03*
%TD*%
%TO.C,C3*%
X-12278581Y-18359073D03*
X-12278581Y-19379073D03*
%TD*%
%TO.C,C8*%
X25944075Y-37656152D03*
X25944075Y-38676152D03*
%TD*%
D11*
%TO.C,LED5*%
X-41250000Y-35725000D03*
X-42750000Y-35725000D03*
X-42750000Y-30275000D03*
X-41250000Y-30275000D03*
%TD*%
D12*
%TO.C,C7*%
X7018294Y-37656152D03*
X7018294Y-38676152D03*
%TD*%
%TO.C,C15*%
X-13762956Y-44335909D03*
X-13762956Y-45355909D03*
%TD*%
D10*
%TO.C,LED18*%
X6805000Y22890000D03*
X6805000Y24390000D03*
X12255000Y24390000D03*
X12255000Y22890000D03*
%TD*%
D12*
%TO.C,C14*%
X30026106Y-44335909D03*
X30026106Y-45355909D03*
%TD*%
D15*
%TO.C,U1*%
X5862500Y39450000D03*
X5862500Y38500000D03*
X5862500Y37550000D03*
X8137500Y37550000D03*
X8137500Y38500000D03*
X8137500Y39450000D03*
%TD*%
D12*
%TO.C,C29*%
X-26751238Y39532161D03*
X-26751238Y38512161D03*
%TD*%
D10*
%TO.C,LED10*%
X30275000Y41250000D03*
X30275000Y42750000D03*
X35725000Y42750000D03*
X35725000Y41250000D03*
%TD*%
%TO.C,LED3*%
X-13725000Y-42750000D03*
X-13725000Y-41250000D03*
X-8275000Y-41250000D03*
X-8275000Y-42750000D03*
%TD*%
D12*
%TO.C,C18*%
X-22298113Y43707528D03*
X-22298113Y44727528D03*
%TD*%
M02*
