M48
; DRILL file KiCad 10.0.4 date 2026-07-21T11:09:54
; FORMAT={-:-/ absolute / metric / decimal}
; #@! TF.CreationDate,2026-07-21T11:09:54+08:00
; #@! TF.GenerationSoftware,Kicad,Pcbnew,10.0.4
; #@! TF.FileFunction,NonPlated,1,4,NPTH
FMAT,2
METRIC
; #@! TA.AperFunction,NonPlated,NPTH,ComponentDrill
T1C1.500
; #@! TA.AperFunction,NonPlated,NPTH,ComponentDrill
T2C5.000
%
G90
G05
T2
X-28.575Y9.525
X-28.575Y-9.525
X-9.525Y28.575
X-9.525Y9.525
X-9.525Y-9.525
X-9.525Y-28.575
X9.525Y28.575
X9.525Y9.525
X9.525Y-9.525
X9.525Y-28.575
X28.575Y9.525
X28.575Y-9.525
X28.575Y-28.575
T1
X-33.575Y4.625G85X-33.575Y4.125
G05
X-33.575Y-14.425G85X-33.575Y-14.925
G05
X-14.525Y23.675G85X-14.525Y23.175
G05
X-14.525Y4.625G85X-14.525Y4.125
G05
X-14.525Y-14.425G85X-14.525Y-14.925
G05
X-14.525Y-33.475G85X-14.525Y-33.975
G05
X4.525Y23.675G85X4.525Y23.175
G05
X4.525Y4.625G85X4.525Y4.125
G05
X4.525Y-14.425G85X4.525Y-14.925
G05
X4.525Y-33.475G85X4.525Y-33.975
G05
X23.575Y4.625G85X23.575Y4.125
G05
X23.575Y-14.425G85X23.575Y-14.925
G05
X23.575Y-33.475G85X23.575Y-33.975
G05
M30
