%TF.GenerationSoftware,KiCad,Pcbnew,10.0.4*%
%TF.CreationDate,2026-07-30T09:24:51+08:00*%
%TF.ProjectId,openmicro,6f70656e-6d69-4637-926f-2e6b69636164,rev?*%
%TF.SameCoordinates,Original*%
%TF.FileFunction,Copper,L4,Bot*%
%TF.FilePolarity,Positive*%
%FSLAX46Y46*%
G04 Gerber Fmt 4.6, Leading zero omitted, Abs format (unit mm)*
G04 Created by KiCad (PCBNEW 10.0.4) date 2026-07-30 09:24:51*
%MOMM*%
%LPD*%
G01*
G04 APERTURE LIST*
%TA.AperFunction,ComponentPad*%
%ADD10C,4.000000*%
%TD*%
%TA.AperFunction,ComponentPad*%
%ADD11C,1.700000*%
%TD*%
%TA.AperFunction,ComponentPad*%
%ADD12C,2.200000*%
%TD*%
%TA.AperFunction,ComponentPad*%
%ADD13C,1.900000*%
%TD*%
%TA.AperFunction,ComponentPad*%
%ADD14O,2.100000X2.600000*%
%TD*%
%TA.AperFunction,ComponentPad*%
%ADD15C,2.000000*%
%TD*%
%TA.AperFunction,ComponentPad*%
%ADD16C,3.200000*%
%TD*%
%TA.AperFunction,SMDPad,CuDef*%
%ADD17R,1.200000X0.900000*%
%TD*%
%TA.AperFunction,SMDPad,CuDef*%
%ADD18R,1.350000X0.820000*%
%TD*%
%TA.AperFunction,SMDPad,CuDef*%
%ADD19R,0.540000X0.640000*%
%TD*%
%TA.AperFunction,SMDPad,CuDef*%
%ADD20R,0.600000X1.325000*%
%TD*%
%TA.AperFunction,SMDPad,CuDef*%
%ADD21R,1.400000X1.200000*%
%TD*%
%TA.AperFunction,SMDPad,CuDef*%
%ADD22R,0.300000X1.475000*%
%TD*%
%TA.AperFunction,SMDPad,CuDef*%
%ADD23R,1.475000X0.300000*%
%TD*%
%TA.AperFunction,SMDPad,CuDef*%
%ADD24R,0.600000X1.450000*%
%TD*%
%TA.AperFunction,SMDPad,CuDef*%
%ADD25R,0.300000X1.450000*%
%TD*%
%TA.AperFunction,ComponentPad*%
%ADD26O,0.900000X2.000000*%
%TD*%
%TA.AperFunction,ComponentPad*%
%ADD27O,0.900000X1.700000*%
%TD*%
%TA.AperFunction,SMDPad,CuDef*%
%ADD28R,1.000000X3.000000*%
%TD*%
%TA.AperFunction,ViaPad*%
%ADD29C,0.450450*%
%TD*%
%TA.AperFunction,Conductor*%
%ADD30C,0.203403*%
%TD*%
%TA.AperFunction,Conductor*%
%ADD31C,0.238119*%
%TD*%
G04 APERTURE END LIST*
D10*
%TO.P,H3,1*%
%TO.N,GND*%
X42500000Y-42500000D03*
%TD*%
%TO.P,H4,1*%
%TO.N,GND*%
X-42500000Y-42500000D03*
%TD*%
D11*
%TO.P,J1,A1*%
%TO.N,GND*%
X19845000Y32075000D03*
%TO.P,J1,A2*%
%TO.N,JOY_X*%
X19845000Y29575000D03*
%TO.P,J1,A3*%
%TO.N,V3V3*%
X19845000Y27075000D03*
%TO.P,J1,B1*%
%TO.N,GND*%
X26075000Y20845000D03*
%TO.P,J1,B2*%
%TO.N,JOY_Y*%
X28575000Y20845000D03*
%TO.P,J1,B3*%
%TO.N,V3V3*%
X31075000Y20845000D03*
D12*
%TO.P,J1,L1*%
%TO.N,GND*%
X34900000Y24575000D03*
%TO.P,J1,L2*%
X22250000Y24575000D03*
%TO.P,J1,L3*%
X34900000Y34575000D03*
%TO.P,J1,L4*%
X22250000Y34575000D03*
D13*
%TO.P,J1,SA*%
%TO.N,JOY_SW*%
X31825000Y35325000D03*
%TO.P,J1,SB*%
X31825000Y39825000D03*
%TO.P,J1,SC*%
%TO.N,GND*%
X25325000Y35325000D03*
%TO.P,J1,SD*%
X25325000Y39825000D03*
%TD*%
D12*
%TO.P,SW14,1*%
%TO.N,ROW2*%
X9525000Y-3625000D03*
%TO.P,SW14,2*%
%TO.N,KEY9*%
X14525000Y-5725000D03*
D14*
%TO.P,SW14,3*%
%TO.N,N/C*%
X4525000Y-14675000D03*
%TD*%
D12*
%TO.P,SW6,1*%
%TO.N,ROW3*%
X9525000Y-22675000D03*
%TO.P,SW6,2*%
%TO.N,KEY12*%
X14525000Y-24775000D03*
D14*
%TO.P,SW6,3*%
%TO.N,N/C*%
X4525000Y-33725000D03*
%TD*%
D12*
%TO.P,SW3,1*%
%TO.N,ROW0*%
X-9525000Y34475000D03*
%TO.P,SW3,2*%
%TO.N,KEY1*%
X-4525000Y32375000D03*
D14*
%TO.P,SW3,3*%
%TO.N,N/C*%
X-14525000Y23425000D03*
%TD*%
D12*
%TO.P,SW15,1*%
%TO.N,ROW2*%
X28575000Y-3625000D03*
%TO.P,SW15,2*%
%TO.N,KEY10*%
X33575000Y-5725000D03*
D14*
%TO.P,SW15,3*%
%TO.N,N/C*%
X23575000Y-14675000D03*
%TD*%
D12*
%TO.P,SW10,1*%
%TO.N,ROW1*%
X9525000Y15425000D03*
%TO.P,SW10,2*%
%TO.N,KEY5*%
X14525000Y13325000D03*
D14*
%TO.P,SW10,3*%
%TO.N,N/C*%
X4525000Y4375000D03*
%TD*%
D12*
%TO.P,SW9,1*%
%TO.N,ROW1*%
X-9525000Y15425000D03*
%TO.P,SW9,2*%
%TO.N,KEY4*%
X-4525000Y13325000D03*
D14*
%TO.P,SW9,3*%
%TO.N,N/C*%
X-14525000Y4375000D03*
%TD*%
D12*
%TO.P,SW4,1*%
%TO.N,ROW0*%
X9525000Y34475000D03*
%TO.P,SW4,2*%
%TO.N,KEY2*%
X14525000Y32375000D03*
D14*
%TO.P,SW4,3*%
%TO.N,N/C*%
X4525000Y23425000D03*
%TD*%
D12*
%TO.P,SW8,1*%
%TO.N,ROW1*%
X-28575000Y15425000D03*
%TO.P,SW8,2*%
%TO.N,KEY3*%
X-23575000Y13325000D03*
D14*
%TO.P,SW8,3*%
%TO.N,N/C*%
X-33575000Y4375000D03*
%TD*%
D12*
%TO.P,SW5,1*%
%TO.N,ROW3*%
X-9525000Y-22675000D03*
%TO.P,SW5,2*%
%TO.N,KEY11*%
X-4525000Y-24775000D03*
D14*
%TO.P,SW5,3*%
%TO.N,N/C*%
X-14525000Y-33725000D03*
%TD*%
D10*
%TO.P,H1,1*%
%TO.N,GND*%
X-42500000Y42500000D03*
%TD*%
D15*
%TO.P,SW1,1*%
%TO.N,ENC_A*%
X-35575000Y31075000D03*
%TO.P,SW1,2*%
%TO.N,GND*%
X-35575000Y28575000D03*
%TO.P,SW1,3*%
%TO.N,ENC_B*%
X-35575000Y26075000D03*
%TO.P,SW1,4*%
%TO.N,ENC_SW*%
X-21075000Y26075000D03*
%TO.P,SW1,5*%
%TO.N,GND*%
X-21075000Y31075000D03*
D16*
%TO.P,SW1,6*%
X-28075000Y34175000D03*
%TO.P,SW1,7*%
X-28075000Y22975000D03*
%TD*%
D10*
%TO.P,H2,1*%
%TO.N,GND*%
X42500000Y42500000D03*
%TD*%
D12*
%TO.P,SW12,1*%
%TO.N,ROW2*%
X-28575000Y-3625000D03*
%TO.P,SW12,2*%
%TO.N,KEY7*%
X-23575000Y-5725000D03*
D14*
%TO.P,SW12,3*%
%TO.N,N/C*%
X-33575000Y-14675000D03*
%TD*%
D12*
%TO.P,SW7,1*%
%TO.N,ROW3*%
X28575000Y-22675000D03*
%TO.P,SW7,2*%
%TO.N,KEY13*%
X33575000Y-24775000D03*
D14*
%TO.P,SW7,3*%
%TO.N,N/C*%
X23575000Y-33725000D03*
%TD*%
D12*
%TO.P,SW13,1*%
%TO.N,ROW2*%
X-9525000Y-3625000D03*
%TO.P,SW13,2*%
%TO.N,KEY8*%
X-4525000Y-5725000D03*
D14*
%TO.P,SW13,3*%
%TO.N,N/C*%
X-14525000Y-14675000D03*
%TD*%
D12*
%TO.P,SW11,1*%
%TO.N,ROW1*%
X28575000Y15425000D03*
%TO.P,SW11,2*%
%TO.N,KEY6*%
X33575000Y13325000D03*
D14*
%TO.P,SW11,3*%
%TO.N,N/C*%
X23575000Y4375000D03*
%TD*%
D17*
%TO.P,D4,1*%
%TO.N,COL2*%
X14525000Y-37475000D03*
%TO.P,D4,2*%
%TO.N,KEY12*%
X14525000Y-34175000D03*
%TD*%
%TO.P,D2,1*%
%TO.N,COL2*%
X14525000Y18175000D03*
%TO.P,D2,2*%
%TO.N,KEY2*%
X14525000Y21475000D03*
%TD*%
%TO.P,D10,1*%
%TO.N,COL0*%
X-23575000Y-19925000D03*
%TO.P,D10,2*%
%TO.N,KEY7*%
X-23575000Y-16625000D03*
%TD*%
%TO.P,D7,1*%
%TO.N,COL1*%
X-4525000Y-875000D03*
%TO.P,D7,2*%
%TO.N,KEY4*%
X-4525000Y2425000D03*
%TD*%
%TO.P,D12,1*%
%TO.N,COL2*%
X14525000Y-19925000D03*
%TO.P,D12,2*%
%TO.N,KEY9*%
X14525000Y-16625000D03*
%TD*%
D18*
%TO.P,LED27,1*%
%TO.N,VBUS*%
X-6805000Y-15210000D03*
%TO.P,LED27,2*%
%TO.N,LED_D8*%
X-6805000Y-13710000D03*
%TO.P,LED27,3*%
%TO.N,GND*%
X-12255000Y-13710000D03*
%TO.P,LED27,4*%
%TO.N,LED_D7*%
X-12255000Y-15210000D03*
%TD*%
D19*
%TO.P,C28,1*%
%TO.N,HSE_IN*%
X-36710000Y-33800000D03*
%TO.P,C28,2*%
%TO.N,GND*%
X-35690000Y-33800000D03*
%TD*%
D17*
%TO.P,D9,1*%
%TO.N,COL3*%
X33575000Y-875000D03*
%TO.P,D9,2*%
%TO.N,KEY6*%
X33575000Y2425000D03*
%TD*%
D18*
%TO.P,LED20,1*%
%TO.N,VBUS*%
X12255000Y-34250000D03*
%TO.P,LED20,2*%
%TO.N,LED_D12*%
X12255000Y-32750000D03*
%TO.P,LED20,3*%
%TO.N,GND*%
X6805000Y-32750000D03*
%TO.P,LED20,4*%
%TO.N,LED_D11*%
X6805000Y-34250000D03*
%TD*%
D20*
%TO.P,U1,1*%
%TO.N,USBC_DM*%
X-950000Y38337500D03*
%TO.P,U1,2*%
%TO.N,GND*%
X0Y38337500D03*
%TO.P,U1,3*%
%TO.N,USBC_DP*%
X950000Y38337500D03*
%TO.P,U1,4*%
%TO.N,USB_DP*%
X950000Y36062500D03*
%TO.P,U1,5*%
%TO.N,VBUS*%
X0Y36062500D03*
%TO.P,U1,6*%
%TO.N,USB_DM*%
X-950000Y36062500D03*
%TD*%
D17*
%TO.P,D8,1*%
%TO.N,COL2*%
X14525000Y-875000D03*
%TO.P,D8,2*%
%TO.N,KEY5*%
X14525000Y2425000D03*
%TD*%
D18*
%TO.P,LED19,1*%
%TO.N,VBUS*%
X-6805000Y-34250000D03*
%TO.P,LED19,2*%
%TO.N,LED_D11*%
X-6805000Y-32750000D03*
%TO.P,LED19,3*%
%TO.N,GND*%
X-12255000Y-32750000D03*
%TO.P,LED19,4*%
%TO.N,LED_D10*%
X-12255000Y-34250000D03*
%TD*%
D17*
%TO.P,D5,1*%
%TO.N,COL3*%
X33575000Y-37475000D03*
%TO.P,D5,2*%
%TO.N,KEY13*%
X33575000Y-34175000D03*
%TD*%
%TO.P,D13,1*%
%TO.N,COL3*%
X33575000Y-19925000D03*
%TO.P,D13,2*%
%TO.N,KEY10*%
X33575000Y-16625000D03*
%TD*%
D18*
%TO.P,LED22,1*%
%TO.N,VBUS*%
X-25845000Y3850000D03*
%TO.P,LED22,2*%
%TO.N,LED_D3*%
X-25845000Y5350000D03*
%TO.P,LED22,3*%
%TO.N,GND*%
X-31295000Y5350000D03*
%TO.P,LED22,4*%
%TO.N,LED_D2*%
X-31295000Y3850000D03*
%TD*%
D21*
%TO.P,Y1,1*%
%TO.N,HSE_IN*%
X-38400000Y-32300000D03*
%TO.P,Y1,2*%
%TO.N,GND*%
X-40600000Y-32300000D03*
%TO.P,Y1,3*%
%TO.N,HSE_OUT*%
X-40600000Y-30700000D03*
%TO.P,Y1,4*%
%TO.N,GND*%
X-38400000Y-30700000D03*
%TD*%
D22*
%TO.P,U3,1*%
%TO.N,V3V3*%
X-37250000Y-28162500D03*
%TO.P,U3,2*%
%TO.N,COL3*%
X-37750000Y-28162500D03*
%TO.P,U3,3*%
%TO.N,COL2*%
X-38250000Y-28162500D03*
%TO.P,U3,4*%
%TO.N,N/C*%
X-38750000Y-28162500D03*
%TO.P,U3,5*%
%TO.N,HSE_IN*%
X-39250000Y-28162500D03*
%TO.P,U3,6*%
%TO.N,HSE_OUT*%
X-39750000Y-28162500D03*
%TO.P,U3,7*%
%TO.N,N/C*%
X-40250000Y-28162500D03*
%TO.P,U3,8*%
%TO.N,GND*%
X-40750000Y-28162500D03*
%TO.P,U3,9*%
%TO.N,V3V3*%
X-41250000Y-28162500D03*
%TO.P,U3,10*%
%TO.N,JOY_Y*%
X-41750000Y-28162500D03*
%TO.P,U3,11*%
%TO.N,N/C*%
X-42250000Y-28162500D03*
%TO.P,U3,12*%
X-42750000Y-28162500D03*
D23*
%TO.P,U3,13*%
X-44162500Y-26750000D03*
%TO.P,U3,14*%
X-44162500Y-26250000D03*
%TO.P,U3,15*%
X-44162500Y-25750000D03*
%TO.P,U3,16*%
X-44162500Y-25250000D03*
%TO.P,U3,17*%
X-44162500Y-24750000D03*
%TO.P,U3,18*%
X-44162500Y-24250000D03*
%TO.P,U3,19*%
%TO.N,JOY_X*%
X-44162500Y-23750000D03*
%TO.P,U3,20*%
%TO.N,N/C*%
X-44162500Y-23250000D03*
%TO.P,U3,21*%
X-44162500Y-22750000D03*
%TO.P,U3,22*%
X-44162500Y-22250000D03*
%TO.P,U3,23*%
%TO.N,GND*%
X-44162500Y-21750000D03*
%TO.P,U3,24*%
%TO.N,V3V3*%
X-44162500Y-21250000D03*
D22*
%TO.P,U3,25*%
%TO.N,ENC_A*%
X-42750000Y-19837500D03*
%TO.P,U3,26*%
%TO.N,ENC_B*%
X-42250000Y-19837500D03*
%TO.P,U3,27*%
%TO.N,UG_D0*%
X-41750000Y-19837500D03*
%TO.P,U3,28*%
%TO.N,ENC_SW*%
X-41250000Y-19837500D03*
%TO.P,U3,29*%
%TO.N,LED_D0*%
X-40750000Y-19837500D03*
%TO.P,U3,30*%
%TO.N,ROW0*%
X-40250000Y-19837500D03*
%TO.P,U3,31*%
%TO.N,ROW1*%
X-39750000Y-19837500D03*
%TO.P,U3,32*%
%TO.N,USB_DM*%
X-39250000Y-19837500D03*
%TO.P,U3,33*%
%TO.N,USB_DP*%
X-38750000Y-19837500D03*
%TO.P,U3,34*%
%TO.N,SWDIO*%
X-38250000Y-19837500D03*
%TO.P,U3,35*%
%TO.N,GND*%
X-37750000Y-19837500D03*
%TO.P,U3,36*%
%TO.N,V3V3*%
X-37250000Y-19837500D03*
D23*
%TO.P,U3,37*%
%TO.N,SWCLK*%
X-35837500Y-21250000D03*
%TO.P,U3,38*%
%TO.N,JOY_SW*%
X-35837500Y-21750000D03*
%TO.P,U3,39*%
%TO.N,ROW2*%
X-35837500Y-22250000D03*
%TO.P,U3,40*%
%TO.N,COL0*%
X-35837500Y-22750000D03*
%TO.P,U3,41*%
%TO.N,COL1*%
X-35837500Y-23250000D03*
%TO.P,U3,42*%
%TO.N,UART_TX*%
X-35837500Y-23750000D03*
%TO.P,U3,43*%
%TO.N,UART_RX*%
X-35837500Y-24250000D03*
%TO.P,U3,44*%
%TO.N,BOOT0*%
X-35837500Y-24750000D03*
%TO.P,U3,45*%
%TO.N,ROW3*%
X-35837500Y-25250000D03*
%TO.P,U3,46*%
%TO.N,TOUCH*%
X-35837500Y-25750000D03*
%TO.P,U3,47*%
%TO.N,GND*%
X-35837500Y-26250000D03*
%TO.P,U3,48*%
%TO.N,V3V3*%
X-35837500Y-26750000D03*
%TD*%
D24*
%TO.P,J3,A1*%
%TO.N,GND*%
X-3200000Y41595000D03*
%TO.P,J3,A4*%
%TO.N,VBUS*%
X-2400000Y41595000D03*
D25*
%TO.P,J3,A5*%
%TO.N,CC1*%
X-1250000Y41595000D03*
%TO.P,J3,A6*%
%TO.N,USBC_DP*%
X-250000Y41595000D03*
%TO.P,J3,A7*%
%TO.N,USBC_DM*%
X250000Y41595000D03*
%TO.P,J3,A8*%
%TO.N,N/C*%
X1250000Y41595000D03*
D24*
%TO.P,J3,A9*%
%TO.N,VBUS*%
X2400000Y41595000D03*
%TO.P,J3,A12*%
%TO.N,GND*%
X3200000Y41595000D03*
%TO.P,J3,B1*%
X3200000Y41595000D03*
%TO.P,J3,B4*%
%TO.N,VBUS*%
X2400000Y41595000D03*
D25*
%TO.P,J3,B5*%
%TO.N,CC2*%
X1750000Y41595000D03*
%TO.P,J3,B6*%
%TO.N,USBC_DP*%
X750000Y41595000D03*
%TO.P,J3,B7*%
%TO.N,USBC_DM*%
X-750000Y41595000D03*
%TO.P,J3,B8*%
%TO.N,N/C*%
X-1750000Y41595000D03*
D24*
%TO.P,J3,B9*%
%TO.N,VBUS*%
X-2400000Y41595000D03*
%TO.P,J3,B12*%
%TO.N,GND*%
X-3200000Y41595000D03*
D26*
%TO.P,J3,SH1*%
X-4320000Y42510000D03*
%TO.P,J3,SH2*%
X4320000Y42510000D03*
D27*
%TO.P,J3,SH3*%
X-4320000Y46690000D03*
%TO.P,J3,SH4*%
X4320000Y46690000D03*
%TD*%
D18*
%TO.P,LED17,1*%
%TO.N,VBUS*%
X-6805000Y22890000D03*
%TO.P,LED17,2*%
%TO.N,LED_D1*%
X-6805000Y24390000D03*
%TO.P,LED17,3*%
%TO.N,GND*%
X-12255000Y24390000D03*
%TO.P,LED17,4*%
%TO.N,LED_D0*%
X-12255000Y22890000D03*
%TD*%
D28*
%TO.P,J2,1*%
%TO.N,GND*%
X-2540000Y-45520000D03*
%TO.P,J2,2*%
X-2540000Y-40480000D03*
%TO.P,J2,3*%
%TO.N,SWCLK*%
X0Y-45520000D03*
%TO.P,J2,4*%
%TO.N,UART_TX*%
X0Y-40480000D03*
%TO.P,J2,5*%
%TO.N,SWDIO*%
X2540000Y-45520000D03*
%TO.P,J2,6*%
%TO.N,UART_RX*%
X2540000Y-40480000D03*
%TD*%
D19*
%TO.P,C29,1*%
%TO.N,HSE_OUT*%
X-43310000Y-31500000D03*
%TO.P,C29,2*%
%TO.N,GND*%
X-42290000Y-31500000D03*
%TD*%
D18*
%TO.P,LED18,1*%
%TO.N,VBUS*%
X12255000Y22890000D03*
%TO.P,LED18,2*%
%TO.N,LED_D2*%
X12255000Y24390000D03*
%TO.P,LED18,3*%
%TO.N,GND*%
X6805000Y24390000D03*
%TO.P,LED18,4*%
%TO.N,LED_D1*%
X6805000Y22890000D03*
%TD*%
D17*
%TO.P,D6,1*%
%TO.N,COL0*%
X-23575000Y-875000D03*
%TO.P,D6,2*%
%TO.N,KEY3*%
X-23575000Y2425000D03*
%TD*%
D18*
%TO.P,LED25,1*%
%TO.N,VBUS*%
X31295000Y3850000D03*
%TO.P,LED25,2*%
%TO.N,LED_D6*%
X31295000Y5350000D03*
%TO.P,LED25,3*%
%TO.N,GND*%
X25845000Y5350000D03*
%TO.P,LED25,4*%
%TO.N,LED_D5*%
X25845000Y3850000D03*
%TD*%
%TO.P,LED29,1*%
%TO.N,VBUS*%
X31295000Y-15210000D03*
%TO.P,LED29,2*%
%TO.N,LED_D10*%
X31295000Y-13710000D03*
%TO.P,LED29,3*%
%TO.N,GND*%
X25845000Y-13710000D03*
%TO.P,LED29,4*%
%TO.N,LED_D9*%
X25845000Y-15210000D03*
%TD*%
%TO.P,LED21,1*%
%TO.N,VBUS*%
X31295000Y-34250000D03*
%TO.P,LED21,2*%
%TO.N,N/C*%
X31295000Y-32750000D03*
%TO.P,LED21,3*%
%TO.N,GND*%
X25845000Y-32750000D03*
%TO.P,LED21,4*%
%TO.N,LED_D12*%
X25845000Y-34250000D03*
%TD*%
%TO.P,LED24,1*%
%TO.N,VBUS*%
X12255000Y3850000D03*
%TO.P,LED24,2*%
%TO.N,LED_D5*%
X12255000Y5350000D03*
%TO.P,LED24,3*%
%TO.N,GND*%
X6805000Y5350000D03*
%TO.P,LED24,4*%
%TO.N,LED_D4*%
X6805000Y3850000D03*
%TD*%
%TO.P,LED28,1*%
%TO.N,VBUS*%
X12255000Y-15210000D03*
%TO.P,LED28,2*%
%TO.N,LED_D9*%
X12255000Y-13710000D03*
%TO.P,LED28,3*%
%TO.N,GND*%
X6805000Y-13710000D03*
%TO.P,LED28,4*%
%TO.N,LED_D8*%
X6805000Y-15210000D03*
%TD*%
D17*
%TO.P,D3,1*%
%TO.N,COL1*%
X-4525000Y-37475000D03*
%TO.P,D3,2*%
%TO.N,KEY11*%
X-4525000Y-34175000D03*
%TD*%
%TO.P,D1,1*%
%TO.N,COL1*%
X-4525000Y18175000D03*
%TO.P,D1,2*%
%TO.N,KEY1*%
X-4525000Y21475000D03*
%TD*%
D18*
%TO.P,LED26,1*%
%TO.N,VBUS*%
X-25845000Y-15210000D03*
%TO.P,LED26,2*%
%TO.N,LED_D7*%
X-25845000Y-13710000D03*
%TO.P,LED26,3*%
%TO.N,GND*%
X-31295000Y-13710000D03*
%TO.P,LED26,4*%
%TO.N,LED_D6*%
X-31295000Y-15210000D03*
%TD*%
%TO.P,LED23,1*%
%TO.N,VBUS*%
X-6805000Y3850000D03*
%TO.P,LED23,2*%
%TO.N,LED_D4*%
X-6805000Y5350000D03*
%TO.P,LED23,3*%
%TO.N,GND*%
X-12255000Y5350000D03*
%TO.P,LED23,4*%
%TO.N,LED_D3*%
X-12255000Y3850000D03*
%TD*%
D17*
%TO.P,D11,1*%
%TO.N,COL1*%
X-4525000Y-19925000D03*
%TO.P,D11,2*%
%TO.N,KEY8*%
X-4525000Y-16625000D03*
%TD*%
D29*
%TO.N,VBUS*%
X11395116Y641289D03*
X-7839967Y-18028419D03*
X-8172979Y20101030D03*
X-1618731Y39753298D03*
X10828087Y19654824D03*
X30298463Y583062D03*
X11074096Y-36904884D03*
X-8730077Y-37085738D03*
X10829859Y-18633952D03*
X-24658535Y-14616128D03*
X30317116Y-37438483D03*
X-7275786Y1833968D03*
X-27598546Y1190585D03*
X30320931Y-18637704D03*
%TO.N,GND*%
X-1983061Y-21916176D03*
X-3766176Y-9120697D03*
X-7496297Y-39156251D03*
X-32036199Y46536247D03*
X41892160Y-13108000D03*
X31823327Y-39189807D03*
X-42290000Y-32254975D03*
X16728476Y-34120479D03*
X-1744604Y37866798D03*
X-46500542Y8066451D03*
X-21702578Y-22733952D03*
X3618029Y29530514D03*
X46536247Y-29993474D03*
X6765346Y6203583D03*
X12939883Y-19113104D03*
X-13344381Y-6513407D03*
X25806166Y6202706D03*
X-37256433Y-30883676D03*
X-32524000Y-12067939D03*
X-34966207Y-35414776D03*
X46536247Y30489668D03*
X23875249Y23030494D03*
X26388258Y-12195791D03*
X-5391157Y-44397203D03*
X36263635Y-16039171D03*
X-41054519Y-33359864D03*
X43547414Y6623741D03*
X-39259756Y28463383D03*
X32233051Y16316409D03*
X11911476Y25821476D03*
X-7527392Y-19447046D03*
X-42528925Y-30417825D03*
X-22499550Y-1763596D03*
X-778413Y43941422D03*
X13156579Y68251D03*
X-41500000Y46536247D03*
X35766481Y-28905913D03*
X11983052Y42602289D03*
X12919520Y-38911246D03*
X46536247Y-11065872D03*
X3697122Y-46535703D03*
X17314567Y-11106195D03*
X-44973587Y-798848D03*
X41493242Y46536247D03*
X-35836250Y-16479720D03*
X-46536247Y36064116D03*
X-41913078Y-24327684D03*
X2279912Y5390666D03*
X30328958Y-516220D03*
X-7148524Y-31318524D03*
X-3669397Y40428635D03*
X4205041Y40236832D03*
X-34653368Y-26295662D03*
X-45495088Y-10080620D03*
X-12293834Y-31897294D03*
X12163993Y-45356859D03*
X-35725031Y-34575867D03*
X41876895Y18841060D03*
X45188659Y11801409D03*
X46536247Y-41493162D03*
X25805910Y-12856488D03*
X-25491172Y-1213296D03*
X-40576812Y-26942583D03*
X-7543453Y-412065D03*
X21446089Y-19541971D03*
X31091140Y-20138526D03*
X19688235Y45128558D03*
X12905718Y18901265D03*
X11311753Y-42084355D03*
X7347944Y-31235921D03*
X-9981840Y39827922D03*
X43547414Y-2840060D03*
X-17581150Y30696401D03*
X-12234989Y25253245D03*
X-34704815Y12424118D03*
X-25914008Y-22160715D03*
X18939412Y-41873541D03*
X6765346Y-31896417D03*
X21245156Y35115070D03*
X-26691533Y-12070171D03*
X34754247Y1261886D03*
X-1586941Y-40690694D03*
X-22572398Y46536247D03*
X-1829655Y40425840D03*
X-43417513Y-20173191D03*
X-46536247Y-30489312D03*
X46536247Y21025867D03*
X-46469321Y-11003482D03*
X-40833023Y19617266D03*
X-29914514Y35489885D03*
X-8844250Y17048384D03*
X-26188524Y6781476D03*
X44462898Y-19890122D03*
X839335Y43448306D03*
X-38865655Y-26951047D03*
X30488748Y-46535380D03*
X-37320294Y-18556005D03*
X20606255Y-2866176D03*
X-8992836Y19132413D03*
X-21422402Y41796686D03*
X-43001861Y-22495285D03*
X-35154740Y1959824D03*
X-46536247Y-21025511D03*
X-23507074Y-29656255D03*
X10717518Y46461216D03*
X-26461883Y-19761262D03*
X-41880998Y12860929D03*
X-3480459Y-45517809D03*
X6765092Y-12855609D03*
X-41493169Y-46536247D03*
X-41706575Y-25086918D03*
X-14960806Y-16652676D03*
X-12294090Y-12856488D03*
X-12817724Y-41010608D03*
X-30863267Y21847884D03*
X-20026501Y20998090D03*
X204082Y16183824D03*
X-11664758Y6883670D03*
X7348444Y-12195714D03*
X-10980149Y46312526D03*
X35248987Y26633931D03*
X26295176Y-35885184D03*
X1842140Y39225884D03*
X25806166Y-31897294D03*
X-21064144Y-42594216D03*
X26387760Y6864003D03*
X6765092Y25244391D03*
X-37057246Y-26137743D03*
X21024947Y-46535494D03*
X10855112Y-2470166D03*
X11911476Y6781476D03*
X11642682Y-21193372D03*
X32583824Y37922743D03*
X-12234901Y6213242D03*
X13645095Y15447723D03*
X-31181229Y6271731D03*
X-7148524Y25821476D03*
%TO.N,CC1*%
X-2151309Y43414702D03*
%TO.N,CC2*%
X5399863Y43084238D03*
%TO.N,TOUCH*%
X-33602728Y-25769306D03*
%TO.N,UG_D5*%
X13138802Y-41398975D03*
X-10394873Y-42820502D03*
%TO.N,JOY_X*%
X-2864537Y9801285D03*
X-40204455Y-22113973D03*
X-28919523Y-17949953D03*
%TO.N,V3V3*%
X-41857096Y-26901706D03*
X-41502759Y-22210800D03*
X-24747164Y-18174616D03*
%TO.N,JOY_Y*%
X216905Y4400799D03*
%TO.N,JOY_SW*%
X12803881Y15715191D03*
X3161224Y7979186D03*
%TO.N,ROW2*%
X-33972876Y-21962396D03*
X-16329404Y-5075862D03*
%TO.N,KEY9*%
X15459794Y-15862437D03*
%TO.N,ROW3*%
X-33798555Y-24948184D03*
X21803961Y-20345956D03*
%TO.N,UG_D0*%
X-19695695Y44186168D03*
%TO.N,UG_D7*%
X-43787004Y-6027354D03*
X-44214763Y11990547D03*
%TO.N,KEY1*%
X-3930486Y24798845D03*
%TO.N,BOOT0*%
X-38203116Y-24545623D03*
%TO.N,ROW1*%
X-35913564Y316344D03*
X-38975177Y-17049767D03*
%TO.N,KEY5*%
X14525000Y3322840D03*
%TO.N,KEY3*%
X-22144782Y4807133D03*
%TO.N,KEY11*%
X-4119710Y-33265007D03*
%TO.N,UG_D3*%
X42788590Y11969034D03*
X43792602Y-4795721D03*
%TO.N,ENC_SW*%
X-33354939Y9913275D03*
X-36797458Y-689174D03*
X-41712613Y-21012305D03*
%TO.N,KEY7*%
X-22941277Y-15120434D03*
%TO.N,KEY8*%
X-3831308Y-15738212D03*
%TO.N,COL2*%
X-34522145Y-31679635D03*
X-35220928Y-30568086D03*
X14376567Y-18092241D03*
X15919115Y10794409D03*
X13632359Y-11158754D03*
X15415347Y841957D03*
%TO.N,COL0*%
X-33524001Y-22444671D03*
X-25515496Y-20472967D03*
X-22914954Y-2539875D03*
X-21575955Y-17269512D03*
%TO.N,COL1*%
X-3481924Y18255636D03*
X-33228928Y-23033632D03*
X-6409322Y-1484962D03*
X-4525000Y-18872779D03*
X-7129104Y-4376691D03*
X-3470400Y-37192976D03*
X-5707022Y-23450244D03*
%TO.N,LED_D7*%
X-24127044Y-14200028D03*
X-20320766Y-17411500D03*
%TO.N,HSE_IN*%
X-37247021Y-31911142D03*
X-36295818Y-33057375D03*
%TO.N,COL3*%
X-37948909Y-26979041D03*
X-26211316Y-38644702D03*
%TO.N,LED_D12*%
X19601602Y-34879303D03*
X13294753Y-32085828D03*
%TO.N,LED_D11*%
X4883544Y-35465163D03*
X-5718649Y-32176507D03*
%TO.N,USBC_DP*%
X1770903Y40388303D03*
X2480346Y38899945D03*
%TO.N,LED_D10*%
X891706Y-31386805D03*
X32407371Y-13734567D03*
%TO.N,LED_D3*%
X-24716598Y5121665D03*
X-13565227Y2634836D03*
%TO.N,LED_D2*%
X-19909375Y3138470D03*
X-30450716Y2369789D03*
%TO.N,LED_D0*%
X-30071618Y-2086504D03*
X-40197750Y-17428570D03*
%TO.N,SWDIO*%
X-18126430Y-39196113D03*
X-38531289Y-21759856D03*
%TO.N,SWCLK*%
X-949240Y-45531444D03*
X-34666936Y-21018720D03*
%TO.N,UART_TX*%
X243656Y-38546493D03*
X-30926534Y-23650913D03*
%TO.N,UART_RX*%
X-34832539Y-28565708D03*
X-9242704Y-41131423D03*
%TO.N,LED_D1*%
X-5694067Y24755210D03*
X6554358Y22013548D03*
%TO.N,LED_D6*%
X32411403Y5054346D03*
X-15416630Y-4881955D03*
%TO.N,LED_D5*%
X20289861Y3668404D03*
X17547286Y4898156D03*
%TO.N,LED_D4*%
X1081066Y8475267D03*
X-5664086Y5499980D03*
%TD*%
%TO.N,VBUS*%
D30*
X9894396Y-20518225D02*
X12135393Y-22759222D01*
X-24989784Y-14619784D02*
X-24986128Y-14616128D01*
X32973756Y-8761596D02*
X32973756Y-14499703D01*
X390587Y-27319413D02*
X390587Y-21115744D01*
X2801975Y40428582D02*
X2399999Y40870000D01*
X12153075Y20979811D02*
X12153075Y22480000D01*
X-1929795Y39753298D02*
X-1618731Y39753298D01*
X30320931Y-18637704D02*
X30320931Y-24656356D01*
X12255000Y3198001D02*
X12255000Y3440000D01*
X-1618731Y39753298D02*
X-1559990Y39812038D01*
X-6805000Y-15620000D02*
X-6805000Y-15210000D01*
X-25580000Y-15210000D02*
X-24989784Y-14619784D01*
X31295000Y-36460599D02*
X31295000Y-35262221D01*
X13645162Y3962940D02*
X17526228Y3962940D01*
X-5601436Y23828564D02*
X-5704165Y23725835D01*
X30298463Y583062D02*
X31295000Y1579599D01*
X-4770480Y25441162D02*
X-5209999Y24523621D01*
X30298463Y583062D02*
X30298463Y294597D01*
X-2400006Y41232500D02*
X-2400013Y40870000D01*
X32186604Y-33623396D02*
X31560000Y-34250000D01*
X12255000Y-15210000D02*
X12255000Y-15620000D01*
X30857825Y-3329178D02*
X30857825Y-6645664D01*
X13532221Y3850000D02*
X13645162Y3962940D01*
X31970000Y-15210000D02*
X31295000Y-15210000D01*
X0Y36062500D02*
X0Y35400000D01*
X-5527779Y-15210000D02*
X-6130000Y-15210000D01*
X3045445Y39386122D02*
X3045445Y38533368D01*
X11395116Y641289D02*
X12255000Y1501173D01*
X30317116Y-37438483D02*
X31295000Y-36460599D01*
X12255000Y11000875D02*
X12255000Y21877779D01*
X799986Y37200014D02*
X-14Y36725000D01*
X-7Y36393750D02*
X0Y36062500D01*
X1712091Y37200014D02*
X799986Y37200014D01*
X31295000Y3440000D02*
X31295000Y3850000D01*
X13246671Y-33523329D02*
X12520000Y-34250000D01*
X12255000Y-34660000D02*
X12255000Y-34250000D01*
X31295000Y-17663635D02*
X30320931Y-18637704D01*
X12255000Y22480000D02*
X12255000Y22890000D01*
X-25845000Y-15210000D02*
X-25580000Y-15210000D01*
X12153075Y22480000D02*
X12204038Y22685000D01*
X11667944Y-35849277D02*
X12255000Y-35262221D01*
X-27598546Y1200018D02*
X-27598546Y1190585D01*
X2801975Y40141413D02*
X2801975Y40428582D01*
X32381004Y-33428996D02*
X32186604Y-33623396D01*
X10828087Y19654824D02*
X12153075Y20979811D01*
X-2365889Y40189392D02*
X-1929795Y39753298D01*
X390587Y-19192868D02*
X-3701229Y-15101053D01*
X-6805000Y3440000D02*
X-6805000Y3850000D01*
X12255000Y-15620000D02*
X12255000Y-16029245D01*
X-25845000Y3440000D02*
X-25845000Y2953565D01*
X-3701229Y-15101053D02*
X-5418831Y-15101053D01*
X-24986128Y-14616128D02*
X-24658535Y-14616128D01*
X-6805000Y21877779D02*
X-6805000Y22480000D01*
X-6805000Y22480000D02*
X-6805000Y22890000D01*
X13836081Y-32933919D02*
X13246671Y-33523329D01*
X-7534979Y21147800D02*
X-6805000Y21877779D01*
X12255000Y-15210000D02*
X12930000Y-15210000D01*
X-6130000Y-15210000D02*
X-6805000Y-15210000D01*
X-6805000Y3210867D02*
X-6805000Y3440000D01*
X12930000Y-15210000D02*
X13532221Y-15210000D01*
X-6805000Y-34660000D02*
X-6805000Y-35159301D01*
X0Y34797779D02*
X-4770480Y30027298D01*
X-5704165Y23725835D02*
X-6540000Y22890000D01*
X11074096Y-36904884D02*
X11667944Y-36311035D01*
X30298463Y294597D02*
X29783986Y-219880D01*
X0Y35400000D02*
X0Y34797779D01*
X12135393Y-26001532D02*
X13836081Y-27702219D01*
X30320931Y-24656356D02*
X32381004Y-26716428D01*
X29783986Y-219880D02*
X29783986Y-2255339D01*
X32381004Y-26716428D02*
X32381004Y-33428996D01*
X12255000Y-17208811D02*
X10829859Y-18633952D01*
X12255000Y1501173D02*
X12255000Y3198001D01*
X31295000Y-15849133D02*
X31295000Y-17663635D01*
X18094517Y5161358D02*
X12255000Y11000875D01*
X31295000Y-15620000D02*
X31295000Y-15849133D01*
X-2400013Y40870000D02*
X-2365889Y40406715D01*
X31560000Y-34250000D02*
X31295000Y-34250000D01*
X-8730077Y-37084377D02*
X-8730077Y-37085738D01*
X-8172979Y20101030D02*
X-7534979Y20739030D01*
X9894396Y-20518225D02*
X9296877Y-21115744D01*
X29783986Y-2255339D02*
X30857825Y-3329178D01*
X9894396Y-19569415D02*
X9894396Y-20518225D01*
X31295000Y-34660000D02*
X31295000Y-34250000D01*
X2399999Y41232500D02*
X2400000Y41595000D01*
X18054500Y4491212D02*
X18094517Y4531230D01*
X20113364Y-18637704D02*
X30320931Y-18637704D01*
X11667944Y-36311035D02*
X11667944Y-35849277D01*
X12255000Y21877779D02*
X12255000Y22480000D01*
X-5209999Y24523621D02*
X-5601436Y23828564D01*
X30857825Y-6645664D02*
X32973756Y-8761596D01*
X31295000Y1579599D02*
X31295000Y2837779D01*
X12255000Y3440000D02*
X12255000Y3850000D01*
X-5731456Y-33441456D02*
X390587Y-27319413D01*
X-2365889Y40406715D02*
X-2365889Y40189392D01*
X-7534979Y20739030D02*
X-7534979Y21147800D01*
X13532221Y-15210000D02*
X16685660Y-15210000D01*
X-14Y36725000D02*
X-7Y36393750D01*
X12255000Y-16029245D02*
X12255000Y-17208811D01*
X-6805000Y-34250000D02*
X-6805000Y-34660000D01*
X-6805000Y-16222221D02*
X-6805000Y-15620000D01*
X2546065Y39885503D02*
X3045445Y39386122D01*
X12520000Y-34250000D02*
X12255000Y-34250000D01*
X12255000Y-35262221D02*
X12255000Y-34660000D01*
X-6805000Y-16993451D02*
X-6805000Y-16222221D01*
X12204038Y22685000D02*
X12255000Y22890000D01*
X-6805000Y2304754D02*
X-6805000Y3210867D01*
X-25845000Y3850000D02*
X-25845000Y3440000D01*
X16685660Y-15210000D02*
X20113364Y-18637704D01*
X-25845000Y2953565D02*
X-27598546Y1200018D01*
X18054500Y4491212D02*
X21962650Y583062D01*
X-6540000Y22890000D02*
X-6805000Y22890000D01*
X12255000Y3850000D02*
X12930000Y3850000D01*
X-6805000Y-35159301D02*
X-8730077Y-37084377D01*
X3045445Y38533368D02*
X1712091Y37200014D01*
X2546065Y39885503D02*
X2801975Y40141413D01*
X10829859Y-18633952D02*
X9894396Y-19569415D01*
X12135393Y-22759222D02*
X12135393Y-26001532D01*
X-1559990Y39812038D02*
X2472600Y39812038D01*
X13836081Y-27702219D02*
X13836081Y-32933919D01*
X2399999Y40870000D02*
X2399999Y41232500D01*
X-7275786Y1833968D02*
X-6805000Y2304754D01*
X9296877Y-21115744D02*
X390587Y-21115744D01*
X-7839967Y-18028419D02*
X-6805000Y-16993451D01*
X32973756Y-14499703D02*
X32263459Y-15210000D01*
X17526228Y3962940D02*
X18054500Y4491212D01*
X21962650Y583062D02*
X30298463Y583062D01*
X31295000Y2837779D02*
X31295000Y3440000D01*
X2472600Y39812038D02*
X2546065Y39885503D01*
X31295000Y-35262221D02*
X31295000Y-34660000D01*
X32263459Y-15210000D02*
X31970000Y-15210000D01*
X-4770480Y30027298D02*
X-4770480Y25441162D01*
X12930000Y3850000D02*
X13532221Y3850000D01*
X31295000Y-15210000D02*
X31295000Y-15620000D01*
X-2400000Y41595000D02*
X-2400006Y41232500D01*
X390587Y-21115744D02*
X390587Y-19192868D01*
X-5418831Y-15101053D02*
X-5527779Y-15210000D01*
X-6540000Y-34250000D02*
X-5731456Y-33441456D01*
X-6805000Y-34250000D02*
X-6540000Y-34250000D01*
X18094517Y4531230D02*
X18094517Y5161358D01*
%TO.N,GND*%
X-35690000Y-34439189D02*
X-35690000Y-34540836D01*
X3912837Y40529036D02*
X3572208Y40529036D01*
X-43001861Y-21984011D02*
X-43001861Y-22495285D01*
X3225074Y41232500D02*
X3200000Y41595000D01*
X-31295000Y-13300000D02*
X-31295000Y-13710000D01*
X6805000Y6053459D02*
X6805000Y6163929D01*
X-35690000Y-34120000D02*
X-35690000Y-34439189D01*
X-12255000Y-32750000D02*
X-12255000Y-32340000D01*
X-37422273Y-18556005D02*
X-37320294Y-18556005D01*
X-1798002Y-40480000D02*
X-1587307Y-40690694D01*
X-37700000Y-30700000D02*
X-37445136Y-30700000D01*
X-35690000Y-33800000D02*
X-35690000Y-34120000D01*
X-37445136Y-30700000D02*
X-37261461Y-30883676D01*
X-35690000Y-34540836D02*
X-35725031Y-34575867D01*
X25845000Y6163872D02*
X25806166Y6202706D01*
X-12255000Y5350000D02*
X-12255000Y5760000D01*
X25845000Y-13710000D02*
X25845000Y-13300000D01*
X25845000Y-32340000D02*
X25845000Y-32046541D01*
X-44162500Y-21750000D02*
X-43793750Y-21749996D01*
X-40750000Y-27118676D02*
X-40750000Y-27425000D01*
X25845000Y5350000D02*
X25845000Y5760000D01*
X-12255000Y5760000D02*
X-12255000Y6117784D01*
X6805000Y-32046541D02*
X6805000Y-31936071D01*
X-32014895Y-12067939D02*
X-31295000Y-12787834D01*
X6805000Y-32750000D02*
X6805000Y-32340000D01*
X-35837500Y-26250000D02*
X-35100000Y-26250000D01*
X25845000Y-31936128D02*
X25806166Y-31897294D01*
X-40600000Y-32300000D02*
X-41054519Y-32300000D01*
X3572208Y40529036D02*
X3250148Y40870000D01*
X-1327359Y37296018D02*
X-1744604Y37713263D01*
X25845000Y5760000D02*
X25845000Y6053459D01*
X-43425000Y-21749992D02*
X-43235880Y-21749992D01*
X6805000Y-13710000D02*
X6805000Y-13300000D01*
X25845000Y-12895577D02*
X25805910Y-12856488D01*
X-37261461Y-30883676D02*
X-37256433Y-30883676D01*
X-3040000Y-45520000D02*
X-3462110Y-45520000D01*
X4205041Y40236832D02*
X3912837Y40529036D01*
X-12255000Y6117784D02*
X-12255000Y6193143D01*
X25845000Y-13006541D02*
X25845000Y-12895577D01*
X-32524000Y-12067939D02*
X-32014895Y-12067939D01*
X-34699030Y-26250000D02*
X-34653368Y-26295662D01*
X-31295000Y5760000D02*
X-31295000Y5350000D01*
X25845000Y-13300000D02*
X25845000Y-13006541D01*
X6805000Y-31936071D02*
X6765346Y-31896417D01*
X-12255000Y24390000D02*
X-12255000Y24800000D01*
X6805000Y-13006541D02*
X6805000Y-12895518D01*
X-40576812Y-26945488D02*
X-40750000Y-27118676D01*
X6805000Y-32340000D02*
X6805000Y-32046541D01*
X0Y37304351D02*
X-8333Y37296018D01*
X6805000Y25093459D02*
X6805000Y25204482D01*
X6805000Y6163929D02*
X6765346Y6203583D01*
X-42290000Y-31820000D02*
X-42290000Y-32254975D01*
X-37750000Y-18883732D02*
X-37422273Y-18556005D01*
X6805000Y24390000D02*
X6805000Y24800000D01*
X-3250176Y40870000D02*
X-3669397Y40428635D01*
X-12255000Y-13300000D02*
X-12255000Y-13006541D01*
X-31295000Y6157960D02*
X-31295000Y6066324D01*
X25845000Y6053459D02*
X25845000Y6163872D01*
X-1744604Y37713263D02*
X-1744604Y37866798D01*
X3250148Y40870000D02*
X3225074Y41232500D01*
X-41054519Y-32300000D02*
X-41054519Y-33359864D01*
X-12255000Y-12895577D02*
X-12294090Y-12856488D01*
X-43793750Y-21749996D02*
X-43425000Y-21749992D01*
X6805000Y25204482D02*
X6765092Y25244391D01*
X-12255000Y-13006541D02*
X-12255000Y-12895577D01*
X-3200000Y41595000D02*
X-3225088Y41232500D01*
X6805000Y-13300000D02*
X6805000Y-13006541D01*
X-31295000Y-12787834D02*
X-31295000Y-13300000D01*
X-42290000Y-31500000D02*
X-42290000Y-31820000D01*
X-1587307Y-40690694D02*
X-1586941Y-40690694D01*
X-31181229Y6271731D02*
X-31295000Y6157960D01*
X6805000Y5350000D02*
X6805000Y5760000D01*
X-12255000Y-32340000D02*
X-12255000Y-32046541D01*
X-37750000Y-19100000D02*
X-37750000Y-18883732D01*
X0Y37675000D02*
X0Y37304351D01*
X-12255000Y25233235D02*
X-12234989Y25253245D01*
X-34832271Y-26250000D02*
X-34699030Y-26250000D01*
X-12255000Y-13710000D02*
X-12255000Y-13300000D01*
X-3225088Y41232500D02*
X-3250176Y40870000D01*
X-12255000Y25157784D02*
X-12255000Y25233235D01*
X-38400000Y-30700000D02*
X-37700000Y-30700000D01*
X-35100000Y-26250000D02*
X-34832271Y-26250000D01*
X-43235880Y-21749992D02*
X-43001861Y-21984011D01*
X-12255000Y-31936128D02*
X-12293834Y-31897294D01*
X-2040000Y-40480000D02*
X-1798002Y-40480000D01*
X6805000Y-12895518D02*
X6765092Y-12855609D01*
X-8333Y37296018D02*
X-1327359Y37296018D01*
X-12255000Y6193143D02*
X-12234901Y6213242D01*
X-12255000Y-32046541D02*
X-12255000Y-31936128D01*
X-3462110Y-45520000D02*
X-3478268Y-45520000D01*
X25845000Y-32046541D02*
X25845000Y-31936128D01*
X0Y38337500D02*
X0Y37675000D01*
X-40576812Y-26942583D02*
X-40576812Y-26945488D01*
X25845000Y-32750000D02*
X25845000Y-32340000D01*
X-31295000Y6066324D02*
X-31295000Y5760000D01*
X6805000Y24800000D02*
X6805000Y25093459D01*
X-12255000Y24800000D02*
X-12255000Y25157784D01*
X-37750000Y-19837500D02*
X-37750000Y-19100000D01*
X6805000Y5760000D02*
X6805000Y6053459D01*
X-2540000Y-45520000D02*
X-3040000Y-45520000D01*
X-2540000Y-40480000D02*
X-2040000Y-40480000D01*
X-3478268Y-45520000D02*
X-3480459Y-45517809D01*
X-40750000Y-27425000D02*
X-40750000Y-28162500D01*
%TO.N,CC1*%
X-1250000Y42652054D02*
X-1250000Y42320000D01*
X-2012647Y43414702D02*
X-1250000Y42652054D01*
X-2151309Y43414702D02*
X-2012647Y43414702D01*
X-1250000Y42320000D02*
X-1250000Y41595000D01*
%TO.N,CC2*%
X5399863Y43084238D02*
X5399863Y43341764D01*
X4804061Y43937566D02*
X2829670Y43937566D01*
X5399863Y43341764D02*
X4804061Y43937566D01*
X2829670Y43937566D02*
X1750000Y42857896D01*
X1750000Y42320000D02*
X1750000Y41595000D01*
X1750000Y42857896D02*
X1750000Y42320000D01*
%TO.N,TOUCH*%
X-33622034Y-25750000D02*
X-34497779Y-25750000D01*
X-34497779Y-25750000D02*
X-35100000Y-25750000D01*
X-33602728Y-25769306D02*
X-33622034Y-25750000D01*
X-35100000Y-25750000D02*
X-35837500Y-25750000D01*
%TO.N,UG_D5*%
X-10394873Y-42820502D02*
X-10372196Y-42843179D01*
X11694598Y-42843179D02*
X13138802Y-41398975D01*
X-10372196Y-42843179D02*
X11694598Y-42843179D01*
%TO.N,JOY_X*%
X-41840482Y-23750000D02*
X-42925700Y-23750000D01*
X-7368786Y964113D02*
X-5531143Y2801756D01*
X-26114261Y-17604351D02*
X-23583202Y-15073292D01*
X-42925700Y-23750000D02*
X-43425000Y-23750000D01*
X-28919523Y-17949953D02*
X-28573921Y-17604351D01*
X-2864537Y6479144D02*
X-2864537Y9801285D01*
X-5531143Y3812538D02*
X-2864537Y6479144D01*
X-28573921Y-17604351D02*
X-26114261Y-17604351D01*
X-23009738Y-14405246D02*
X-7640380Y964113D01*
X-7640380Y964113D02*
X-7368786Y964113D01*
X-5531143Y2801756D02*
X-5531143Y3812538D01*
X-40204455Y-22113973D02*
X-41840482Y-23750000D01*
X-23583202Y-15073292D02*
X-23583202Y-15010237D01*
X-23583202Y-15010237D02*
X-23009738Y-14405246D01*
X-43425000Y-23750000D02*
X-44162500Y-23750000D01*
%TO.N,V3V3*%
X-28509424Y-19837500D02*
X-26846540Y-18174616D01*
X-37250000Y-20575000D02*
X-37250000Y-19837500D01*
X-35837500Y-26900000D02*
X-35837500Y-26750000D01*
X-41261129Y-26901706D02*
X-41857096Y-26901706D01*
X-38803976Y-22502565D02*
X-38803976Y-25237052D01*
X-37291027Y-26750000D02*
X-36804133Y-26750000D01*
X-37250000Y-28162500D02*
X-37100000Y-28162500D01*
X-36497779Y-19837500D02*
X-28509424Y-19837500D01*
X-26846540Y-18174616D02*
X-24747164Y-18174616D01*
X-43170136Y-21250000D02*
X-43425000Y-21250000D01*
X-41502759Y-22210800D02*
X-41517798Y-22195760D01*
X-41517798Y-22195760D02*
X-41532032Y-22195760D01*
X-35837500Y-27232054D02*
X-35837500Y-26900000D01*
X-40770468Y-21510241D02*
X-41471027Y-22210800D01*
X-38017428Y-21944649D02*
X-37250000Y-21177221D01*
X-36755081Y-28162500D02*
X-36737507Y-28144926D01*
X-41250000Y-27425000D02*
X-41250000Y-26912834D01*
X-41532032Y-22195760D02*
X-42477792Y-21250000D01*
X-37100000Y-19837500D02*
X-36497779Y-19837500D01*
X-36737507Y-28144926D02*
X-36737507Y-28132061D01*
X-38513016Y-22502565D02*
X-38017428Y-22006977D01*
X-37250000Y-21177221D02*
X-37250000Y-20575000D01*
X-36575000Y-26750000D02*
X-35837500Y-26750000D01*
X-38803976Y-22502565D02*
X-38513016Y-22502565D01*
X-38803976Y-22502565D02*
X-39796300Y-21510241D01*
X-37250000Y-19837500D02*
X-37100000Y-19837500D01*
X-42477792Y-21250000D02*
X-43170136Y-21250000D01*
X-41250000Y-26912834D02*
X-41261129Y-26901706D01*
X-41471027Y-22210800D02*
X-41502759Y-22210800D01*
X-37100000Y-28162500D02*
X-36755081Y-28162500D01*
X-36737507Y-28132061D02*
X-35837500Y-27232054D01*
X-39796300Y-21510241D02*
X-40770468Y-21510241D01*
X-41250000Y-28162500D02*
X-41250000Y-27425000D01*
X-43425000Y-21250000D02*
X-44162500Y-21250000D01*
X-36804133Y-26750000D02*
X-36575000Y-26750000D01*
X-38017428Y-22006977D02*
X-38017428Y-21944649D01*
X-38803976Y-25237052D02*
X-37291027Y-26750000D01*
%TO.N,JOY_Y*%
X-41750000Y-28900000D02*
X-41750000Y-28162500D01*
X-23530797Y-18468700D02*
X-23776073Y-18713976D01*
X-35086542Y-31277587D02*
X-35474771Y-31277587D01*
X-41685785Y-29566437D02*
X-41750000Y-29502221D01*
X-21868645Y-16775691D02*
X-22140872Y-17121310D01*
X-22140872Y-17359508D02*
X-23250065Y-18468700D01*
X-41750000Y-29502221D02*
X-41750000Y-28900000D01*
X-22140872Y-17121310D02*
X-22140872Y-17359508D01*
X-30557771Y-24686636D02*
X-30557771Y-26748816D01*
X-41685785Y-33487377D02*
X-41685785Y-29566437D01*
X-35474771Y-31277587D02*
X-38106634Y-33909450D01*
X-24451540Y-19204529D02*
X-25075664Y-19204529D01*
X-11461887Y-6368933D02*
X-21868645Y-16775691D01*
X216905Y4400799D02*
X216905Y2196859D01*
X-38106634Y-33909450D02*
X-41263712Y-33909450D01*
X-23250065Y-18468700D02*
X-23530797Y-18468700D01*
X-23776073Y-18713976D02*
X-24451540Y-19204529D01*
X-41263712Y-33909450D02*
X-41685785Y-33487377D01*
X-8348886Y-6368933D02*
X-11461887Y-6368933D01*
X-30557771Y-26748816D02*
X-35086542Y-31277587D01*
X216905Y2196859D02*
X-8348886Y-6368933D01*
X-25075664Y-19204529D02*
X-30557771Y-24686636D01*
%TO.N,JOY_SW*%
X-22618757Y-17235794D02*
X-22978167Y-17595204D01*
X-22978167Y-17595204D02*
X-23409818Y-17595204D01*
X-22201364Y-16531552D02*
X-22618757Y-16948945D01*
X20081000Y23631000D02*
X15706000Y19256000D01*
X13989343Y19255543D02*
X13635797Y18901997D01*
X15705543Y19255543D02*
X13989343Y19255543D01*
X-22618757Y-16948945D02*
X-22618757Y-17235794D01*
X-34469370Y-21555334D02*
X-34664036Y-21750000D01*
X-34806541Y-21750000D02*
X-35100000Y-21750000D01*
X12803881Y17924537D02*
X12803881Y15715191D01*
X-7285633Y-885973D02*
X-8242758Y-1843099D01*
X-23409818Y-17595204D02*
X-24575152Y-18760538D01*
X-33443363Y-21238648D02*
X-34469370Y-21555334D01*
X31486996Y35036996D02*
X30723156Y34273156D01*
X31825000Y35325000D02*
X31486996Y35036996D01*
X23193000Y26743000D02*
X21047000Y25777000D01*
X-24575152Y-18760538D02*
X-26709326Y-18760538D01*
X-35100000Y-21750000D02*
X-35837500Y-21750000D01*
X13635797Y18901997D02*
X13635797Y18756453D01*
X-6296756Y-885973D02*
X-7285633Y-885973D01*
X-9747212Y-1843099D02*
X-22201364Y-14297251D01*
X21047000Y25777000D02*
X20081000Y23631000D01*
X2568404Y7979186D02*
X-6296756Y-885973D01*
X-26709326Y-18760538D02*
X-29187437Y-21238648D01*
X13635797Y18756453D02*
X12803881Y17924537D01*
X-22201364Y-14297251D02*
X-22201364Y-16531552D01*
X-8242758Y-1843099D02*
X-9747212Y-1843099D01*
X3161224Y7979186D02*
X2568404Y7979186D01*
X-29187437Y-21238648D02*
X-33443363Y-21238648D01*
X30723000Y34273000D02*
X23193000Y26743000D01*
X-34664036Y-21750000D02*
X-34806541Y-21750000D01*
%TO.N,ROW2*%
X-33972876Y-21962396D02*
X-34266156Y-21962396D01*
X-28021514Y-3625000D02*
X-26865807Y-3625000D01*
X-35100000Y-22250000D02*
X-35837500Y-22250000D01*
X-26865807Y-3625000D02*
X-17780265Y-3625000D01*
X-28575000Y-3625000D02*
X-28021514Y-3625000D01*
X-34553760Y-22250000D02*
X-34690755Y-22250000D01*
X-34690755Y-22250000D02*
X-35100000Y-22250000D01*
X-34266156Y-21962396D02*
X-34553760Y-22250000D01*
X-17780265Y-3625000D02*
X-16329404Y-5075862D01*
%TO.N,KEY9*%
X15423477Y-15876523D02*
X15437563Y-15862437D01*
X14525000Y-16625000D02*
X14675000Y-16625000D01*
X14675000Y-16625000D02*
X15423477Y-15876523D01*
X15437563Y-15862437D02*
X15459794Y-15862437D01*
%TO.N,ROW3*%
X24133005Y-22675000D02*
X26865807Y-22675000D01*
X27468029Y-22675000D02*
X28575000Y-22675000D01*
X-34100372Y-25250000D02*
X-33798555Y-24948184D01*
X-35837500Y-25250000D02*
X-35100000Y-25250000D01*
X-34497779Y-25250000D02*
X-34100372Y-25250000D01*
X21803961Y-20345956D02*
X24133005Y-22675000D01*
X-35100000Y-25250000D02*
X-34497779Y-25250000D01*
X26865807Y-22675000D02*
X27468029Y-22675000D01*
%TO.N,KEY12*%
X14525000Y-24775000D02*
X14525000Y-25881971D01*
X14525000Y-25881971D02*
X14525000Y-26484193D01*
X14525000Y-26484193D02*
X14525000Y-33122779D01*
X14525000Y-33725000D02*
X14525000Y-34175000D01*
X14525000Y-33122779D02*
X14525000Y-33725000D01*
%TO.N,UG_D0*%
X-38738657Y17666527D02*
X-38738657Y-5521234D01*
X-40902745Y-17939992D02*
X-41216852Y-18254099D01*
X-41216852Y-18311988D02*
X-41750000Y-18845136D01*
X-19695695Y36709489D02*
X-38738657Y17666527D01*
X-41750000Y-18845136D02*
X-41750000Y-19100000D01*
X-38738657Y-5521234D02*
X-40722405Y-7504982D01*
X-40722405Y-7504982D02*
X-40722405Y-16734184D01*
X-19695695Y44186168D02*
X-19695695Y36709489D01*
X-41216852Y-18254099D02*
X-41216852Y-18311988D01*
X-40722405Y-16734184D02*
X-40902745Y-17939992D01*
X-41750000Y-19100000D02*
X-41750000Y-19837500D01*
%TO.N,UG_D7*%
X-44214763Y-5599595D02*
X-44214763Y11990547D01*
X-43787004Y-6027354D02*
X-44214763Y-5599595D01*
%TO.N,ROW0*%
X-25043160Y28741130D02*
X-37898222Y15886068D01*
X-37898222Y-5697958D02*
X-39510925Y-7310661D01*
X-37898222Y15886068D02*
X-37898222Y-5697958D01*
X-39510925Y-7310661D02*
X-39510925Y-17025298D01*
X-10631971Y34475000D02*
X-11234193Y34475000D01*
X-40250000Y-19100000D02*
X-40250000Y-19837500D01*
X-11234193Y34475000D02*
X-16968063Y28741130D01*
X-16968063Y28741130D02*
X-25043160Y28741130D01*
X-9525000Y34475000D02*
X-10631971Y34475000D01*
X-39510925Y-17025298D02*
X-39712230Y-17669255D01*
X-39712230Y-17669255D02*
X-40250000Y-18600699D01*
X-40250000Y-18600699D02*
X-40250000Y-19100000D01*
%TO.N,KEY1*%
X-4525000Y22527221D02*
X-4525000Y21925000D01*
X-3930486Y23121736D02*
X-4525000Y22527221D01*
X-3930486Y24798845D02*
X-3930486Y23121736D01*
X-4525000Y21925000D02*
X-4525000Y21475000D01*
%TO.N,KEY10*%
X33575000Y-16175000D02*
X33575000Y-16625000D01*
X33575000Y-6831971D02*
X33575000Y-7434193D01*
X33575000Y-5725000D02*
X33575000Y-6831971D01*
X33575000Y-15572779D02*
X33575000Y-16175000D01*
X33575000Y-7434193D02*
X33575000Y-15572779D01*
%TO.N,BOOT0*%
X-36575000Y-24750000D02*
X-35837500Y-24750000D01*
X-37998739Y-24750000D02*
X-37177221Y-24750000D01*
X-38203116Y-24545623D02*
X-37998739Y-24750000D01*
X-37177221Y-24750000D02*
X-36575000Y-24750000D01*
%TO.N,ROW1*%
X-38975177Y-17356478D02*
X-39161512Y-17542812D01*
X-8418029Y15425000D02*
X-9525000Y15425000D01*
X-35913564Y5106476D02*
X-35913564Y316344D01*
X-29783582Y14216418D02*
X-32276671Y11723329D01*
X-39161512Y-17542812D02*
X-39750000Y-18562104D01*
X-39750000Y-18562104D02*
X-39750000Y-19100000D01*
X-28966373Y15033627D02*
X-29783582Y14216418D01*
X9525000Y15425000D02*
X8418029Y15425000D01*
X-32276671Y11723329D02*
X-32276671Y8743369D01*
X-39750000Y-19100000D02*
X-39750000Y-19837500D01*
X8418029Y15425000D02*
X7815807Y15425000D01*
X7815807Y15425000D02*
X-7815807Y15425000D01*
X-38975177Y-17049767D02*
X-38975177Y-17356478D01*
X-28575000Y15425000D02*
X-28966373Y15033627D01*
X-32276671Y8743369D02*
X-35913564Y5106476D01*
X-7815807Y15425000D02*
X-8418029Y15425000D01*
%TO.N,KEY5*%
X14525000Y2875000D02*
X14525000Y3322840D01*
X14525000Y2425000D02*
X14525000Y2875000D01*
%TO.N,KEY4*%
X-4525000Y13325000D02*
X-4133627Y12933627D01*
X-4525000Y2875000D02*
X-4525000Y2425000D01*
X-4525000Y3477221D02*
X-4525000Y2875000D01*
X-2249161Y11049161D02*
X-2249161Y5753060D01*
X-2249161Y5753060D02*
X-4525000Y3477221D01*
X-3316418Y12116418D02*
X-2249161Y11049161D01*
X-4133627Y12933627D02*
X-3316418Y12116418D01*
%TO.N,KEY2*%
X14525000Y21925000D02*
X14525000Y22527221D01*
X14525000Y21475000D02*
X14525000Y21925000D01*
X14525000Y31268029D02*
X14525000Y32375000D01*
X14525000Y30665807D02*
X14525000Y31268029D01*
X14525000Y22527221D02*
X14525000Y30665807D01*
%TO.N,KEY3*%
X-23575000Y2875000D02*
X-23575000Y2425000D01*
X-22152234Y4799681D02*
X-22152234Y4797066D01*
X-22144782Y4807133D02*
X-22152234Y4799681D01*
X-23575000Y3374301D02*
X-23575000Y2875000D01*
X-22152234Y4797066D02*
X-23575000Y3374301D01*
%TO.N,KEY11*%
X-4119710Y-33265007D02*
X-4281275Y-33265007D01*
X-4525000Y-33725000D02*
X-4525000Y-34175000D01*
X-4281275Y-33265007D02*
X-4525000Y-33508732D01*
X-4525000Y-33508732D02*
X-4525000Y-33725000D01*
%TO.N,UG_D3*%
X42788590Y-3791708D02*
X42788590Y11969034D01*
X43792602Y-4795721D02*
X42788590Y-3791708D01*
%TO.N,ENC_A*%
X-40074198Y-2946229D02*
X-43259283Y-6131314D01*
X-35930794Y30719206D02*
X-36621453Y30028547D01*
X-45638448Y-11297120D02*
X-45638448Y-17788588D01*
X-42750000Y-19100000D02*
X-42750000Y-19837500D01*
X-45065868Y-18361169D02*
X-42886610Y-18361169D01*
X-42750000Y-18497779D02*
X-42750000Y-19100000D01*
X-45638448Y-17788588D02*
X-45065868Y-18361169D01*
X-35575000Y31075000D02*
X-35930794Y30719206D01*
X-43259283Y-8917955D02*
X-45638448Y-11297120D01*
X-43259283Y-6131314D02*
X-43259283Y-8917955D01*
X-40074198Y26575802D02*
X-40074198Y-2946229D01*
X-42886610Y-18361169D02*
X-42750000Y-18497779D01*
X-36621453Y30028547D02*
X-40074198Y26575802D01*
%TO.N,ENC_B*%
X-41302442Y-5616199D02*
X-41302442Y-17748547D01*
X-35575000Y24466441D02*
X-39447368Y20594073D01*
X-35575000Y26075000D02*
X-35575000Y25068662D01*
X-42250000Y-19100000D02*
X-42250000Y-19837500D01*
X-39447368Y-3761126D02*
X-41302442Y-5616199D01*
X-35575000Y25068662D02*
X-35575000Y24466441D01*
X-42250000Y-18696106D02*
X-42250000Y-18845136D01*
X-39447368Y20594073D02*
X-39447368Y-3761126D01*
X-41302442Y-17748547D02*
X-42250000Y-18696106D01*
X-42250000Y-18845136D02*
X-42250000Y-19100000D01*
%TO.N,ENC_SW*%
X-41250000Y-20575000D02*
X-41250000Y-20816999D01*
X-36797458Y6470756D02*
X-33354939Y9913275D01*
X-41250000Y-19837500D02*
X-41250000Y-20575000D01*
X-36797458Y-689174D02*
X-36797458Y6470756D01*
X-41445306Y-21012305D02*
X-41712613Y-21012305D01*
X-41250000Y-20816999D02*
X-41445306Y-21012305D01*
%TO.N,KEY7*%
X-23575000Y-16625000D02*
X-23575000Y-16175000D01*
X-22941277Y-15132032D02*
X-22941277Y-15120434D01*
X-23575000Y-16175000D02*
X-23575000Y-15765755D01*
X-23575000Y-15765755D02*
X-22941277Y-15132032D01*
%TO.N,KEY13*%
X33575000Y-24775000D02*
X33575000Y-25881971D01*
X33575000Y-25881971D02*
X33575000Y-26484193D01*
X33575000Y-33725000D02*
X33575000Y-34175000D01*
X33575000Y-33122779D02*
X33575000Y-33725000D01*
X33575000Y-26484193D02*
X33575000Y-33122779D01*
%TO.N,KEY8*%
X-3831308Y-15738212D02*
X-3762978Y-15806542D01*
X-3762978Y-15806542D02*
X-3762978Y-16012978D01*
X-4375000Y-16625000D02*
X-4525000Y-16625000D01*
X-3762978Y-16012978D02*
X-4375000Y-16625000D01*
%TO.N,KEY6*%
X33575000Y13325000D02*
X33575000Y12218029D01*
X33575000Y11615807D02*
X33575000Y3477221D01*
X33575000Y12218029D02*
X33575000Y11615807D01*
X33575000Y3477221D02*
X33575000Y2875000D01*
X33575000Y2875000D02*
X33575000Y2425000D01*
%TO.N,COL2*%
X15401255Y827865D02*
X15401255Y821904D01*
X15969652Y-22421874D02*
X14525000Y-20977221D01*
X-38250000Y-28900000D02*
X-38250000Y-28162500D01*
X14525000Y-18240674D02*
X14376567Y-18092241D01*
X15969652Y-34978126D02*
X15969652Y-22421874D01*
X14525000Y-19925000D02*
X14525000Y-19475000D01*
X15415347Y841957D02*
X15401255Y827865D01*
X15401255Y821904D02*
X14525000Y-54351D01*
X13322779Y-37475000D02*
X1215106Y-37475000D01*
X-6677942Y-38068839D02*
X-28132941Y-38068839D01*
X14525000Y-37025000D02*
X14525000Y-36422779D01*
X326693Y-36586587D02*
X-5195690Y-36586587D01*
X13632359Y-11158754D02*
X13065567Y-10591961D01*
X14525000Y-37475000D02*
X14525000Y-37025000D01*
X-5195690Y-36586587D02*
X-6677942Y-38068839D01*
X14525000Y-36422779D02*
X15969652Y-34978126D01*
X14525000Y-54351D02*
X14525000Y-425000D01*
X13925000Y-37475000D02*
X13322779Y-37475000D01*
X15942996Y15704782D02*
X15942996Y10818290D01*
X-36059731Y-29729282D02*
X-38022939Y-29729282D01*
X13065567Y-3386654D02*
X14525000Y-1927221D01*
X14525000Y-37475000D02*
X13925000Y-37475000D01*
X14525000Y17725000D02*
X14525000Y17122779D01*
X14525000Y-18872779D02*
X14525000Y-18240674D01*
X1215106Y-37475000D02*
X326693Y-36586587D01*
X-28132941Y-38068839D02*
X-34522145Y-31679635D01*
X-35220928Y-30568086D02*
X-36059731Y-29729282D01*
X13065567Y-10591961D02*
X13065567Y-3386654D01*
X14525000Y17122779D02*
X15942996Y15704782D01*
X14525000Y-19475000D02*
X14525000Y-18872779D01*
X-38250000Y-29502221D02*
X-38250000Y-28900000D01*
X14525000Y-20977221D02*
X14525000Y-20375000D01*
X14525000Y-1325000D02*
X14525000Y-875000D01*
X14525000Y-20375000D02*
X14525000Y-19925000D01*
X15942996Y10818290D02*
X15919115Y10794409D01*
X14525000Y18175000D02*
X14525000Y17725000D01*
X-38022939Y-29729282D02*
X-38250000Y-29502221D01*
X14525000Y-425000D02*
X14525000Y-875000D01*
X14525000Y-1927221D02*
X14525000Y-1325000D01*
%TO.N,COL0*%
X-23575000Y-19078620D02*
X-23059119Y-19078620D01*
X-23575000Y-1325000D02*
X-23575000Y-875000D01*
X-23575000Y-1879829D02*
X-23575000Y-1695650D01*
X-33529487Y-22445734D02*
X-34665025Y-22750000D01*
X-33524001Y-22444671D02*
X-33525063Y-22445734D01*
X-24175000Y-19925000D02*
X-24558515Y-19925000D01*
X-33525063Y-22445734D02*
X-33529487Y-22445734D01*
X-35100000Y-22750000D02*
X-35837500Y-22750000D01*
X-22914954Y-2539875D02*
X-23575000Y-1879829D01*
X-23059119Y-19078620D02*
X-21575955Y-17595457D01*
X-23575000Y-19475000D02*
X-23575000Y-19078620D01*
X-24558515Y-19925000D02*
X-24967530Y-19925000D01*
X-21575955Y-17595457D02*
X-21575955Y-17269512D01*
X-23575000Y-19925000D02*
X-24175000Y-19925000D01*
X-34665025Y-22750000D02*
X-35100000Y-22750000D01*
X-23575000Y-1695650D02*
X-23575000Y-1325000D01*
X-24967530Y-19925000D02*
X-25515496Y-20472967D01*
X-23575000Y-19925000D02*
X-23575000Y-19475000D01*
%TO.N,COL1*%
X-4525000Y18175000D02*
X-3925000Y18175000D01*
X-6409322Y-1484962D02*
X-5951230Y-1484962D01*
X-4525000Y-22268222D02*
X-4525000Y-20977221D01*
X-5707022Y-23450244D02*
X-4525000Y-22268222D01*
X-4525000Y-1759975D02*
X-7129104Y-4364079D01*
X-35100000Y-23250000D02*
X-34497779Y-23250000D01*
X-3562559Y18175000D02*
X-3481924Y18255636D01*
X-4525000Y-875000D02*
X-4525000Y-1325000D01*
X-5125000Y-875000D02*
X-4525000Y-875000D01*
X-4525000Y-20977221D02*
X-4525000Y-20375000D01*
X-4525000Y-1325000D02*
X-4525000Y-1759975D01*
X-4525000Y-20375000D02*
X-4525000Y-19925000D01*
X-3925000Y-37475000D02*
X-3644406Y-37475000D01*
X-3925000Y18175000D02*
X-3631541Y18175000D01*
X-5951230Y-1484962D02*
X-5341268Y-875000D01*
X-3644406Y-37475000D02*
X-3470400Y-37300994D01*
X-34497779Y-23250000D02*
X-33445296Y-23250000D01*
X-35837500Y-23250000D02*
X-35100000Y-23250000D01*
X-5341268Y-875000D02*
X-5125000Y-875000D01*
X-4525000Y-19475000D02*
X-4525000Y-19925000D01*
X-3470400Y-37300994D02*
X-3470400Y-37192976D01*
X-7129104Y-4364079D02*
X-7129104Y-4376691D01*
X-4525000Y-37475000D02*
X-3925000Y-37475000D01*
X-3631541Y18175000D02*
X-3562559Y18175000D01*
X-33445296Y-23250000D02*
X-33228928Y-23033632D01*
X-4525000Y-18872779D02*
X-4525000Y-19475000D01*
%TO.N,LED_D8*%
X5958881Y-16113884D02*
X5958881Y-15791119D01*
X5958881Y-15791119D02*
X6540000Y-15210000D01*
X5765638Y-16307127D02*
X5958881Y-16113884D01*
X-6805000Y-13710000D02*
X-6130000Y-13710000D01*
X6540000Y-15210000D02*
X6805000Y-15210000D01*
X-6130000Y-13710000D02*
X-5527779Y-13710000D01*
X-1029472Y-16307127D02*
X5765638Y-16307127D01*
X-3626599Y-13710000D02*
X-1029472Y-16307127D01*
X-5527779Y-13710000D02*
X-3626599Y-13710000D01*
%TO.N,LED_D7*%
X-24127044Y-14200028D02*
X-24129969Y-14197103D01*
X-24129969Y-14197103D02*
X-24132136Y-14197103D01*
X-24619239Y-13710000D02*
X-25170000Y-13710000D01*
X-14425541Y-17411500D02*
X-20320766Y-17411500D01*
X-25170000Y-13710000D02*
X-25845000Y-13710000D01*
X-12520000Y-15210000D02*
X-13092022Y-15782022D01*
X-13092022Y-16077980D02*
X-14425541Y-17411500D01*
X-12255000Y-15210000D02*
X-12520000Y-15210000D01*
X-24132136Y-14197103D02*
X-24619239Y-13710000D01*
X-13092022Y-15782022D02*
X-13092022Y-16077980D01*
%TO.N,HSE_IN*%
X-39500014Y-29919738D02*
X-39250000Y-29669724D01*
X-36710000Y-33750000D02*
X-36241590Y-33281590D01*
X-36710000Y-33800000D02*
X-36710000Y-33750000D01*
X-37247021Y-31911142D02*
X-37247021Y-32063289D01*
X-36241590Y-33111603D02*
X-36295818Y-33057375D01*
X-37700000Y-32300000D02*
X-38400000Y-32300000D01*
X-39496380Y-32300000D02*
X-39500014Y-32296366D01*
X-39100000Y-32300000D02*
X-39496380Y-32300000D01*
X-39500014Y-32296366D02*
X-39500014Y-29919738D01*
X-39250000Y-28900000D02*
X-39250000Y-28162500D01*
X-38400000Y-32300000D02*
X-39100000Y-32300000D01*
X-37483732Y-32300000D02*
X-37700000Y-32300000D01*
X-39250000Y-29116268D02*
X-39250000Y-28900000D01*
X-37247021Y-32063289D02*
X-37483732Y-32300000D01*
X-36241590Y-33281590D02*
X-36241590Y-33111603D01*
X-39250000Y-29669724D02*
X-39250000Y-29116268D01*
%TO.N,COL3*%
X-769873Y-38548254D02*
X-4739216Y-38548254D01*
X6335602Y-37970161D02*
X-191780Y-37970161D01*
X35007657Y-34990122D02*
X35007657Y-22409878D01*
X32975000Y-37475000D02*
X32372779Y-37475000D01*
X-37750000Y-28162500D02*
X-37750000Y-27425000D01*
X33575000Y-20375000D02*
X33575000Y-19925000D01*
X35007657Y-22409878D02*
X33575000Y-20977221D01*
X33575000Y-875000D02*
X33575000Y-1325000D01*
X33575000Y-20977221D02*
X33575000Y-20375000D01*
X-4739216Y-38548254D02*
X-5943989Y-39753027D01*
X-5943989Y-39753027D02*
X-12191863Y-39753027D01*
X-37948909Y-26984093D02*
X-37948909Y-26979041D01*
X7813491Y-39448050D02*
X6335602Y-37970161D01*
X32372779Y-37475000D02*
X30399729Y-39448050D01*
X-13300188Y-38644702D02*
X-26211316Y-38644702D01*
X34992601Y-3344822D02*
X34992601Y-17455178D01*
X33575000Y-1927221D02*
X34992601Y-3344822D01*
X-191780Y-37970161D02*
X-769873Y-38548254D01*
X33575000Y-19475000D02*
X33575000Y-19925000D01*
X33575000Y-1325000D02*
X33575000Y-1927221D01*
X33575000Y-36422779D02*
X35007657Y-34990122D01*
X30399729Y-39448050D02*
X7813491Y-39448050D01*
X-37750000Y-27425000D02*
X-37750000Y-27183002D01*
X33575000Y-37025000D02*
X33575000Y-36422779D01*
X-12191863Y-39753027D02*
X-13300188Y-38644702D01*
X33575000Y-18872779D02*
X33575000Y-19475000D01*
X-37750000Y-27183002D02*
X-37948909Y-26984093D01*
X33575000Y-37475000D02*
X33575000Y-37025000D01*
X33575000Y-37475000D02*
X32975000Y-37475000D01*
X34992601Y-17455178D02*
X33575000Y-18872779D01*
%TO.N,LED_D12*%
X12520000Y-32750000D02*
X13137507Y-32132493D01*
X25845000Y-34660000D02*
X25845000Y-34250000D01*
X13137507Y-32132493D02*
X13184172Y-32085828D01*
X25845000Y-35262221D02*
X25845000Y-34660000D01*
X13184172Y-32085828D02*
X13294753Y-32085828D01*
X20132224Y-35409925D02*
X25697296Y-35409925D01*
X12255000Y-32750000D02*
X12520000Y-32750000D01*
X19601602Y-34879303D02*
X20132224Y-35409925D01*
X25697296Y-35409925D02*
X25845000Y-35262221D01*
%TO.N,LED_D11*%
X5636337Y-35465163D02*
X4883544Y-35465163D01*
X-5967978Y-32177978D02*
X-5966507Y-32176507D01*
X5958881Y-34831119D02*
X5958881Y-35142619D01*
X6805000Y-34250000D02*
X6540000Y-34250000D01*
X-6805000Y-32750000D02*
X-6540000Y-32750000D01*
X-6540000Y-32750000D02*
X-5967978Y-32177978D01*
X5958881Y-35142619D02*
X5636337Y-35465163D01*
X6540000Y-34250000D02*
X5958881Y-34831119D01*
X-5966507Y-32176507D02*
X-5718649Y-32176507D01*
%TO.N,USBC_DM*%
D31*
X-5100299Y43717176D02*
X-5100299Y41028834D01*
X-750000Y42320000D02*
X-750000Y41595000D01*
X-1447968Y39197968D02*
X-950000Y38700000D01*
X-1912012Y43977334D02*
X-4840141Y43977334D01*
X-683584Y42652435D02*
X-750000Y42586019D01*
X-750000Y42586019D02*
X-750000Y42320000D01*
X-4840141Y43977334D02*
X-5100299Y43717176D01*
X-651618Y42652435D02*
X-651618Y42716940D01*
X-651618Y42652435D02*
X-641733Y42662320D01*
X250000Y42572069D02*
X250000Y42320000D01*
X159749Y42662320D02*
X250000Y42572069D01*
X250000Y42320000D02*
X250000Y41595000D01*
X-950000Y38700000D02*
X-950000Y38337500D01*
X-641733Y42662320D02*
X159749Y42662320D01*
X-5100299Y41028834D02*
X-3269432Y39197968D01*
X-651618Y42716940D02*
X-1912012Y43977334D01*
X-3269432Y39197968D02*
X-1447968Y39197968D01*
X-651618Y42652435D02*
X-683584Y42652435D01*
%TO.N,USBC_DP*%
X750000Y40870000D02*
X750000Y41595000D01*
X950000Y38337500D02*
X1250000Y38337500D01*
X1599718Y38337500D02*
X1917901Y38337500D01*
X1250000Y38337500D02*
X1599718Y38337500D01*
X1669712Y40489494D02*
X864487Y40489494D01*
X-62221Y40388303D02*
X-250000Y40576081D01*
X750000Y40603981D02*
X750000Y40870000D01*
X1770903Y40388303D02*
X-62221Y40388303D01*
X-250000Y40576081D02*
X-250000Y40870000D01*
X864487Y40489494D02*
X750000Y40603981D01*
X-250000Y40870000D02*
X-250000Y41595000D01*
X1770903Y40388303D02*
X1669712Y40489494D01*
X1917901Y38337500D02*
X2480346Y38899945D01*
%TO.N,USB_DP*%
X-8421720Y19519534D02*
X-8614361Y19712175D01*
X-24650294Y2809922D02*
X-24650294Y2543185D01*
X-8614361Y19712175D02*
X-9243275Y19712175D01*
X950000Y35400000D02*
X950000Y34729433D01*
X-38750000Y-18666582D02*
X-38750000Y-19100000D01*
X-4587200Y23575622D02*
X-5837744Y22325078D01*
X-12580443Y16375008D02*
X-12580443Y15375626D01*
X950000Y34729433D02*
X950000Y30657256D01*
X-36612432Y-9418952D02*
X-36612432Y-16529013D01*
X-5837744Y22325078D02*
X-5837744Y21644374D01*
X-12580443Y15375626D02*
X-23253272Y4702796D01*
X-9243275Y19712175D02*
X-12580443Y16375008D01*
X-7962584Y19519534D02*
X-8421720Y19519534D01*
X-38750000Y-19100000D02*
X-38750000Y-19837500D01*
X-36612432Y-16529013D02*
X-38750000Y-18666582D01*
X-4587200Y24733948D02*
X-4587200Y23575622D01*
X950000Y36062500D02*
X950000Y35400000D01*
X-4170352Y25536905D02*
X-4587200Y24733948D01*
X-23253272Y4702796D02*
X-23253272Y4310641D01*
X-23253272Y4310641D02*
X-24223530Y3340383D01*
X-24650294Y2543185D02*
X-36612432Y-9418952D01*
X950000Y30657256D02*
X-4170352Y25536905D01*
X-24223530Y3340383D02*
X-24650294Y2809922D01*
X-5837744Y21644374D02*
X-7962584Y19519534D01*
%TO.N,USB_DM*%
X-37409094Y8622153D02*
X-37409094Y-16504216D01*
X-950000Y36062500D02*
X-1250000Y36062500D01*
X-37409094Y-16504216D02*
X-38848990Y-17944112D01*
X-1920567Y36062500D02*
X-3597846Y36062500D01*
X-3597846Y36062500D02*
X-7080133Y32580213D01*
X-38848990Y-17944112D02*
X-39250000Y-18638682D01*
X-7080133Y32580213D02*
X-9542064Y32580213D01*
X-9542064Y32580213D02*
X-23811743Y18310535D01*
X-1250000Y36062500D02*
X-1920567Y36062500D01*
X-39250000Y-18638682D02*
X-39250000Y-19100000D01*
X-27720711Y18310535D02*
X-37409094Y8622153D01*
X-39250000Y-19100000D02*
X-39250000Y-19837500D01*
X-23811743Y18310535D02*
X-27720711Y18310535D01*
%TO.N,LED_D10*%
D30*
X31970000Y-13710000D02*
X31295000Y-13710000D01*
X-8429632Y-37643146D02*
X-6347278Y-35560792D01*
X32382805Y-13710000D02*
X32314919Y-13710000D01*
X-12255000Y-34660000D02*
X-12255000Y-34927729D01*
X-3282280Y-35560792D02*
X891706Y-31386805D01*
X-12255000Y-34927729D02*
X-9539583Y-37643146D01*
X32407371Y-13734567D02*
X32382805Y-13710000D01*
X-6347278Y-35560792D02*
X-3282280Y-35560792D01*
X32314919Y-13710000D02*
X31970000Y-13710000D01*
X-9539583Y-37643146D02*
X-8429632Y-37643146D01*
X-12255000Y-34250000D02*
X-12255000Y-34660000D01*
%TO.N,LED_D3*%
X-25170000Y5350000D02*
X-24953732Y5350000D01*
X-25845000Y5350000D02*
X-25170000Y5350000D01*
X-24953732Y5350000D02*
X-24725397Y5121665D01*
X-24725397Y5121665D02*
X-24716598Y5121665D01*
X-12255000Y2837779D02*
X-12255000Y3440000D01*
X-12457942Y2634836D02*
X-12255000Y2837779D01*
X-12255000Y3440000D02*
X-12255000Y3850000D01*
X-13565227Y2634836D02*
X-12457942Y2634836D01*
%TO.N,LED_D2*%
X12520000Y24390000D02*
X12255000Y24390000D01*
X-19909375Y3138470D02*
X-19909375Y7056398D01*
X-2783851Y20750386D02*
X7871793Y31406030D01*
X-31295000Y3440000D02*
X-31295000Y3210867D01*
X13355835Y25225835D02*
X12520000Y24390000D01*
X10765643Y31406030D02*
X13355835Y28815838D01*
X-8193056Y18772717D02*
X-5741898Y18772717D01*
X13355835Y28815838D02*
X13355835Y25225835D01*
X-3764229Y20750386D02*
X-2783851Y20750386D01*
X-19909375Y7056398D02*
X-8193056Y18772717D01*
X-5741898Y18772717D02*
X-3764229Y20750386D01*
X-31295000Y3850000D02*
X-31295000Y3440000D01*
X7871793Y31406030D02*
X10765643Y31406030D01*
X-31295000Y3210867D02*
X-31295000Y3210240D01*
X-30454549Y2369789D02*
X-30450716Y2369789D01*
X-31295000Y3210240D02*
X-30454549Y2369789D01*
%TO.N,HSE_OUT*%
X-43310000Y-30577779D02*
X-43310000Y-31180000D01*
X-39750000Y-28162500D02*
X-39750000Y-27425000D01*
X-40600000Y-30094919D02*
X-39750000Y-29244919D01*
X-43310000Y-27350011D02*
X-43310000Y-30577779D01*
X-39750000Y-28900000D02*
X-39750000Y-28162500D01*
X-39750000Y-27425000D02*
X-39750000Y-26990025D01*
X-39750000Y-26990025D02*
X-40538259Y-26201766D01*
X-40600000Y-30700000D02*
X-40600000Y-30100000D01*
X-40600000Y-30100000D02*
X-40600000Y-30094919D01*
X-39750000Y-29244919D02*
X-39750000Y-28900000D01*
X-42161755Y-26201766D02*
X-43310000Y-27350011D01*
X-43310000Y-31180000D02*
X-43310000Y-31500000D01*
X-40538259Y-26201766D02*
X-42161755Y-26201766D01*
%TO.N,LED_D0*%
X-40750000Y-19837500D02*
X-40750000Y-19100000D01*
X-25014662Y3049981D02*
X-24555641Y3761841D01*
X-40294739Y-17722109D02*
X-40197750Y-17625120D01*
X-24555641Y4267519D02*
X-23637598Y5185562D01*
X-12255000Y21877779D02*
X-12255000Y22480000D01*
X-23637598Y10495181D02*
X-12255000Y21877779D01*
X-40197750Y-17625120D02*
X-40197750Y-17428570D01*
X-24555641Y3761841D02*
X-24555641Y4267519D01*
X-26700314Y1364329D02*
X-25014662Y3049981D01*
X-23637598Y5185562D02*
X-23637598Y10495181D01*
X-30071618Y-2086504D02*
X-26700314Y1284800D01*
X-40750000Y-19100000D02*
X-40750000Y-18510644D01*
X-40750000Y-18510644D02*
X-40294739Y-17722109D01*
X-12255000Y22480000D02*
X-12255000Y22890000D01*
X-26700314Y1284800D02*
X-26700314Y1364329D01*
%TO.N,SWDIO*%
X-38250000Y-21478568D02*
X-38531289Y-21759856D01*
X2040000Y-45520000D02*
X2540000Y-45520000D01*
X1733676Y-45520000D02*
X2040000Y-45520000D01*
X-38250000Y-21177221D02*
X-38250000Y-21478568D01*
X1577530Y-45363854D02*
X1733676Y-45520000D01*
X-11128069Y-43638379D02*
X577892Y-43638379D01*
X-38250000Y-20575000D02*
X-38250000Y-21177221D01*
X-18126430Y-39196113D02*
X-15570335Y-39196113D01*
X-15570335Y-39196113D02*
X-11128069Y-43638379D01*
X1577530Y-44638016D02*
X1577530Y-45363854D01*
X-38250000Y-19837500D02*
X-38250000Y-20575000D01*
X577892Y-43638379D02*
X1577530Y-44638016D01*
%TO.N,SWCLK*%
X-34666936Y-21033204D02*
X-34666936Y-21018720D01*
X-937796Y-45520000D02*
X-780594Y-45520000D01*
X-34883732Y-21250000D02*
X-34666936Y-21033204D01*
X-780594Y-45520000D02*
X-500000Y-45520000D01*
X-949240Y-45531444D02*
X-937796Y-45520000D01*
X-500000Y-45520000D02*
X0Y-45520000D01*
X-35837500Y-21250000D02*
X-35100000Y-21250000D01*
X-35100000Y-21250000D02*
X-34883732Y-21250000D01*
%TO.N,UART_TX*%
X0Y-38699406D02*
X0Y-38980000D01*
X152913Y-38546493D02*
X0Y-38699406D01*
X-35837500Y-23750000D02*
X-35100000Y-23750000D01*
X243656Y-38546493D02*
X152913Y-38546493D01*
X-31025621Y-23750000D02*
X-30926534Y-23650913D01*
X-34497779Y-23750000D02*
X-31025621Y-23750000D01*
X0Y-38980000D02*
X0Y-40480000D01*
X-35100000Y-23750000D02*
X-34497779Y-23750000D01*
%TO.N,UART_RX*%
X-9242704Y-41131423D02*
X-7943894Y-42430233D01*
X-33702318Y-24250000D02*
X-32978793Y-24973525D01*
X-32978793Y-26711962D02*
X-34832539Y-28565708D01*
X-32978793Y-24973525D02*
X-32978793Y-26711962D01*
X-35100000Y-24250000D02*
X-34497779Y-24250000D01*
X2040000Y-40480000D02*
X2540000Y-40480000D01*
X-34497779Y-24250000D02*
X-33702318Y-24250000D01*
X1733676Y-40480000D02*
X2040000Y-40480000D01*
X1570571Y-41361583D02*
X1570571Y-40643105D01*
X-7943894Y-42430233D02*
X501921Y-42430233D01*
X501921Y-42430233D02*
X1570571Y-41361583D01*
X-35837500Y-24250000D02*
X-35100000Y-24250000D01*
X1570571Y-40643105D02*
X1733676Y-40480000D01*
%TO.N,LED_D1*%
X6805000Y22160811D02*
X6805000Y22480000D01*
X6657737Y22013548D02*
X6805000Y22160811D01*
X-5913732Y24390000D02*
X-5694067Y24609664D01*
X-6130000Y24390000D02*
X-5913732Y24390000D01*
X6805000Y22480000D02*
X6805000Y22890000D01*
X-5694067Y24609664D02*
X-5694067Y24755210D01*
X-6805000Y24390000D02*
X-6130000Y24390000D01*
X6554358Y22013548D02*
X6657737Y22013548D01*
%TO.N,LED_D6*%
X-15416630Y-6134527D02*
X-23047664Y-13765562D01*
X31295000Y5350000D02*
X31970000Y5350000D01*
X-15416630Y-4881955D02*
X-15416630Y-6134527D01*
X32411403Y5176326D02*
X32411403Y5054346D01*
X-31295000Y-15861999D02*
X-31295000Y-15620000D01*
X31970000Y5350000D02*
X32237729Y5350000D01*
X-25723703Y-16621126D02*
X-30535872Y-16621126D01*
X-23047664Y-13765562D02*
X-23741395Y-14573162D01*
X-30535872Y-16621126D02*
X-31295000Y-15861999D01*
X-24670135Y-15567558D02*
X-25723703Y-16621126D01*
X-31295000Y-15620000D02*
X-31295000Y-15210000D01*
X-24670135Y-15501903D02*
X-24670135Y-15567558D01*
X32237729Y5350000D02*
X32411403Y5176326D01*
X-23741395Y-14573162D02*
X-24670135Y-15501903D01*
%TO.N,LED_D5*%
X25017075Y2966156D02*
X24805441Y2754522D01*
X25017075Y3287075D02*
X25017075Y2966156D01*
X12930000Y5350000D02*
X12255000Y5350000D01*
X17095442Y5350000D02*
X13532221Y5350000D01*
X25845000Y3850000D02*
X25580000Y3850000D01*
X17547286Y4898156D02*
X17095442Y5350000D01*
X25580000Y3850000D02*
X25017075Y3287075D01*
X13532221Y5350000D02*
X12930000Y5350000D01*
X24805441Y2754522D02*
X21203743Y2754522D01*
X21203743Y2754522D02*
X20289861Y3668404D01*
%TO.N,LED_D9*%
X19671398Y-13710000D02*
X13532221Y-13710000D01*
X25845000Y-16222221D02*
X25669819Y-16397402D01*
X25669819Y-16397402D02*
X22358800Y-16397402D01*
X12930000Y-13710000D02*
X12255000Y-13710000D01*
X22358800Y-16397402D02*
X19671398Y-13710000D01*
X25845000Y-15210000D02*
X25845000Y-15620000D01*
X13532221Y-13710000D02*
X12930000Y-13710000D01*
X25845000Y-15620000D02*
X25845000Y-16222221D01*
%TO.N,LED_D4*%
X-5664086Y5499980D02*
X-5673696Y5499980D01*
X6540000Y3850000D02*
X5958881Y3268881D01*
X3788503Y7121335D02*
X3788503Y8209782D01*
X-5673696Y5499980D02*
X-5823676Y5350000D01*
X5729737Y2745824D02*
X3309849Y2745824D01*
X5958881Y2974968D02*
X5729737Y2745824D01*
X3038736Y3016938D02*
X3038736Y6371567D01*
X-6130000Y5350000D02*
X-6805000Y5350000D01*
X3038736Y6371567D02*
X3788503Y7121335D01*
X-5823676Y5350000D02*
X-6130000Y5350000D01*
X1192874Y8587075D02*
X1081066Y8475267D01*
X3411210Y8587075D02*
X1192874Y8587075D01*
X6805000Y3850000D02*
X6540000Y3850000D01*
X3309849Y2745824D02*
X3038736Y3016938D01*
X5958881Y3268881D02*
X5958881Y2974968D01*
X3788503Y8209782D02*
X3411210Y8587075D01*
%TD*%
M02*
