%TF.GenerationSoftware,KiCad,Pcbnew,10.0.4*%
%TF.CreationDate,2026-07-21T11:09:54+08:00*%
%TF.ProjectId,openmicro,6f70656e-6d69-4637-926f-2e6b69636164,rev?*%
%TF.SameCoordinates,Original*%
%TF.FileFunction,Soldermask,Bot*%
%TF.FilePolarity,Negative*%
%FSLAX46Y46*%
G04 Gerber Fmt 4.6, Leading zero omitted, Abs format (unit mm)*
G04 Created by KiCad (PCBNEW 10.0.4) date 2026-07-21 11:09:54*
%MOMM*%
%LPD*%
G01*
G04 APERTURE LIST*
G04 APERTURE END LIST*
G36*
X-42109819Y-40538429D02*
G01*
X-41857121Y-40606140D01*
X-41615423Y-40706255D01*
X-41388860Y-40837061D01*
X-41181308Y-40996320D01*
X-40996320Y-41181308D01*
X-40837061Y-41388860D01*
X-40706255Y-41615423D01*
X-40606140Y-41857121D01*
X-40538429Y-42109819D01*
X-40504282Y-42369194D01*
X-40504282Y-42630806D01*
X-40538429Y-42890181D01*
X-40606140Y-43142879D01*
X-40706255Y-43384577D01*
X-40837061Y-43611140D01*
X-40996320Y-43818692D01*
X-41181308Y-44003680D01*
X-41388860Y-44162939D01*
X-41615423Y-44293745D01*
X-41857121Y-44393860D01*
X-42109819Y-44461571D01*
X-42369194Y-44495718D01*
X-42630806Y-44495718D01*
X-42890181Y-44461571D01*
X-43142879Y-44393860D01*
X-43384577Y-44293745D01*
X-43611140Y-44162939D01*
X-43818692Y-44003680D01*
X-44003680Y-43818692D01*
X-44162939Y-43611140D01*
X-44293745Y-43384577D01*
X-44393860Y-43142879D01*
X-44461571Y-42890181D01*
X-44495718Y-42630806D01*
X-44495718Y-42369194D01*
X-44461571Y-42109819D01*
X-44393860Y-41857121D01*
X-44293745Y-41615423D01*
X-44162939Y-41388860D01*
X-44003680Y-41181308D01*
X-43818692Y-40996320D01*
X-43611140Y-40837061D01*
X-43384577Y-40706255D01*
X-43142879Y-40606140D01*
X-42890181Y-40538429D01*
X-42630806Y-40504282D01*
X-42369194Y-40504282D01*
X-42109819Y-40538429D01*
G37*
G36*
X42890181Y-40538429D02*
G01*
X43142879Y-40606140D01*
X43384577Y-40706255D01*
X43611140Y-40837061D01*
X43818692Y-40996320D01*
X44003680Y-41181308D01*
X44162939Y-41388860D01*
X44293745Y-41615423D01*
X44393860Y-41857121D01*
X44461571Y-42109819D01*
X44495718Y-42369194D01*
X44495718Y-42630806D01*
X44461571Y-42890181D01*
X44393860Y-43142879D01*
X44293745Y-43384577D01*
X44162939Y-43611140D01*
X44003680Y-43818692D01*
X43818692Y-44003680D01*
X43611140Y-44162939D01*
X43384577Y-44293745D01*
X43142879Y-44393860D01*
X42890181Y-44461571D01*
X42630806Y-44495718D01*
X42369194Y-44495718D01*
X42109819Y-44461571D01*
X41857121Y-44393860D01*
X41615423Y-44293745D01*
X41388860Y-44162939D01*
X41181308Y-44003680D01*
X40996320Y-43818692D01*
X40837061Y-43611140D01*
X40706255Y-43384577D01*
X40606140Y-43142879D01*
X40538429Y-42890181D01*
X40504282Y-42630806D01*
X40504282Y-42369194D01*
X40538429Y-42109819D01*
X40606140Y-41857121D01*
X40706255Y-41615423D01*
X40837061Y-41388860D01*
X40996320Y-41181308D01*
X41181308Y-40996320D01*
X41388860Y-40837061D01*
X41615423Y-40706255D01*
X41857121Y-40606140D01*
X42109819Y-40538429D01*
X42369194Y-40504282D01*
X42630806Y-40504282D01*
X42890181Y-40538429D01*
G37*
G36*
X-3925000Y-39425000D02*
G01*
X-5125000Y-39425000D01*
X-5125000Y-38525000D01*
X-3925000Y-38525000D01*
X-3925000Y-39425000D01*
G37*
G36*
X15125000Y-39425000D02*
G01*
X13925000Y-39425000D01*
X13925000Y-38525000D01*
X15125000Y-38525000D01*
X15125000Y-39425000D01*
G37*
G36*
X34175000Y-39425000D02*
G01*
X32975000Y-39425000D01*
X32975000Y-38525000D01*
X34175000Y-38525000D01*
X34175000Y-39425000D01*
G37*
G36*
X-3925000Y-36125000D02*
G01*
X-5125000Y-36125000D01*
X-5125000Y-35225000D01*
X-3925000Y-35225000D01*
X-3925000Y-36125000D01*
G37*
G36*
X15125000Y-36125000D02*
G01*
X13925000Y-36125000D01*
X13925000Y-35225000D01*
X15125000Y-35225000D01*
X15125000Y-36125000D01*
G37*
G36*
X34175000Y-36125000D02*
G01*
X32975000Y-36125000D01*
X32975000Y-35225000D01*
X34175000Y-35225000D01*
X34175000Y-36125000D01*
G37*
G36*
X-14307286Y-32757295D02*
G01*
X-14171452Y-32813559D01*
X-14049205Y-32895242D01*
X-13945242Y-32999205D01*
X-13863559Y-33121452D01*
X-13807295Y-33257286D01*
X-13778611Y-33401487D01*
X-13775000Y-33475000D01*
X-13775000Y-33975000D01*
X-13778611Y-34048513D01*
X-13807295Y-34192714D01*
X-13863559Y-34328548D01*
X-13945242Y-34450795D01*
X-14049205Y-34554758D01*
X-14171452Y-34636441D01*
X-14307286Y-34692705D01*
X-14451487Y-34721389D01*
X-14598513Y-34721389D01*
X-14742714Y-34692705D01*
X-14878548Y-34636441D01*
X-15000795Y-34554758D01*
X-15104758Y-34450795D01*
X-15186441Y-34328548D01*
X-15242705Y-34192714D01*
X-15271389Y-34048513D01*
X-15275000Y-33975000D01*
X-15275000Y-33475000D01*
X-15271389Y-33401487D01*
X-15242705Y-33257286D01*
X-15186441Y-33121452D01*
X-15104758Y-32999205D01*
X-15000795Y-32895242D01*
X-14878548Y-32813559D01*
X-14742714Y-32757295D01*
X-14598513Y-32728611D01*
X-14451487Y-32728611D01*
X-14307286Y-32757295D01*
G37*
G36*
X4742714Y-32757295D02*
G01*
X4878548Y-32813559D01*
X5000795Y-32895242D01*
X5104758Y-32999205D01*
X5186441Y-33121452D01*
X5242705Y-33257286D01*
X5271389Y-33401487D01*
X5275000Y-33475000D01*
X5275000Y-33975000D01*
X5271389Y-34048513D01*
X5242705Y-34192714D01*
X5186441Y-34328548D01*
X5104758Y-34450795D01*
X5000795Y-34554758D01*
X4878548Y-34636441D01*
X4742714Y-34692705D01*
X4598513Y-34721389D01*
X4451487Y-34721389D01*
X4307286Y-34692705D01*
X4171452Y-34636441D01*
X4049205Y-34554758D01*
X3945242Y-34450795D01*
X3863559Y-34328548D01*
X3807295Y-34192714D01*
X3778611Y-34048513D01*
X3775000Y-33975000D01*
X3775000Y-33475000D01*
X3778611Y-33401487D01*
X3807295Y-33257286D01*
X3863559Y-33121452D01*
X3945242Y-32999205D01*
X4049205Y-32895242D01*
X4171452Y-32813559D01*
X4307286Y-32757295D01*
X4451487Y-32728611D01*
X4598513Y-32728611D01*
X4742714Y-32757295D01*
G37*
G36*
X23792714Y-32757295D02*
G01*
X23928548Y-32813559D01*
X24050795Y-32895242D01*
X24154758Y-32999205D01*
X24236441Y-33121452D01*
X24292705Y-33257286D01*
X24321389Y-33401487D01*
X24325000Y-33475000D01*
X24325000Y-33975000D01*
X24321389Y-34048513D01*
X24292705Y-34192714D01*
X24236441Y-34328548D01*
X24154758Y-34450795D01*
X24050795Y-34554758D01*
X23928548Y-34636441D01*
X23792714Y-34692705D01*
X23648513Y-34721389D01*
X23501487Y-34721389D01*
X23357286Y-34692705D01*
X23221452Y-34636441D01*
X23099205Y-34554758D01*
X22995242Y-34450795D01*
X22913559Y-34328548D01*
X22857295Y-34192714D01*
X22828611Y-34048513D01*
X22825000Y-33975000D01*
X22825000Y-33475000D01*
X22828611Y-33401487D01*
X22857295Y-33257286D01*
X22913559Y-33121452D01*
X22995242Y-32999205D01*
X23099205Y-32895242D01*
X23221452Y-32813559D01*
X23357286Y-32757295D01*
X23501487Y-32728611D01*
X23648513Y-32728611D01*
X23792714Y-32757295D01*
G37*
G36*
X-9106234Y-26110322D02*
G01*
X-8832911Y-26172707D01*
X-8568291Y-26265301D01*
X-8315703Y-26386941D01*
X-8078322Y-26536098D01*
X-7859134Y-26710895D01*
X-7660895Y-26909134D01*
X-7486098Y-27128322D01*
X-7336941Y-27365703D01*
X-7215301Y-27618291D01*
X-7122707Y-27882911D01*
X-7060322Y-28156234D01*
X-7028933Y-28434824D01*
X-7028933Y-28715176D01*
X-7060322Y-28993766D01*
X-7122707Y-29267089D01*
X-7215301Y-29531709D01*
X-7336941Y-29784297D01*
X-7486098Y-30021678D01*
X-7660895Y-30240866D01*
X-7859134Y-30439105D01*
X-8078322Y-30613902D01*
X-8315703Y-30763059D01*
X-8568291Y-30884699D01*
X-8832911Y-30977293D01*
X-9106234Y-31039678D01*
X-9384824Y-31071067D01*
X-9665176Y-31071067D01*
X-9943766Y-31039678D01*
X-10217089Y-30977293D01*
X-10481709Y-30884699D01*
X-10734297Y-30763059D01*
X-10971678Y-30613902D01*
X-11190866Y-30439105D01*
X-11389105Y-30240866D01*
X-11563902Y-30021678D01*
X-11713059Y-29784297D01*
X-11834699Y-29531709D01*
X-11927293Y-29267089D01*
X-11989678Y-28993766D01*
X-12021067Y-28715176D01*
X-12021067Y-28434824D01*
X-11989678Y-28156234D01*
X-11927293Y-27882911D01*
X-11834699Y-27618291D01*
X-11713059Y-27365703D01*
X-11563902Y-27128322D01*
X-11389105Y-26909134D01*
X-11190866Y-26710895D01*
X-10971678Y-26536098D01*
X-10734297Y-26386941D01*
X-10481709Y-26265301D01*
X-10217089Y-26172707D01*
X-9943766Y-26110322D01*
X-9665176Y-26078933D01*
X-9384824Y-26078933D01*
X-9106234Y-26110322D01*
G37*
G36*
X9943766Y-26110322D02*
G01*
X10217089Y-26172707D01*
X10481709Y-26265301D01*
X10734297Y-26386941D01*
X10971678Y-26536098D01*
X11190866Y-26710895D01*
X11389105Y-26909134D01*
X11563902Y-27128322D01*
X11713059Y-27365703D01*
X11834699Y-27618291D01*
X11927293Y-27882911D01*
X11989678Y-28156234D01*
X12021067Y-28434824D01*
X12021067Y-28715176D01*
X11989678Y-28993766D01*
X11927293Y-29267089D01*
X11834699Y-29531709D01*
X11713059Y-29784297D01*
X11563902Y-30021678D01*
X11389105Y-30240866D01*
X11190866Y-30439105D01*
X10971678Y-30613902D01*
X10734297Y-30763059D01*
X10481709Y-30884699D01*
X10217089Y-30977293D01*
X9943766Y-31039678D01*
X9665176Y-31071067D01*
X9384824Y-31071067D01*
X9106234Y-31039678D01*
X8832911Y-30977293D01*
X8568291Y-30884699D01*
X8315703Y-30763059D01*
X8078322Y-30613902D01*
X7859134Y-30439105D01*
X7660895Y-30240866D01*
X7486098Y-30021678D01*
X7336941Y-29784297D01*
X7215301Y-29531709D01*
X7122707Y-29267089D01*
X7060322Y-28993766D01*
X7028933Y-28715176D01*
X7028933Y-28434824D01*
X7060322Y-28156234D01*
X7122707Y-27882911D01*
X7215301Y-27618291D01*
X7336941Y-27365703D01*
X7486098Y-27128322D01*
X7660895Y-26909134D01*
X7859134Y-26710895D01*
X8078322Y-26536098D01*
X8315703Y-26386941D01*
X8568291Y-26265301D01*
X8832911Y-26172707D01*
X9106234Y-26110322D01*
X9384824Y-26078933D01*
X9665176Y-26078933D01*
X9943766Y-26110322D01*
G37*
G36*
X28993766Y-26110322D02*
G01*
X29267089Y-26172707D01*
X29531709Y-26265301D01*
X29784297Y-26386941D01*
X30021678Y-26536098D01*
X30240866Y-26710895D01*
X30439105Y-26909134D01*
X30613902Y-27128322D01*
X30763059Y-27365703D01*
X30884699Y-27618291D01*
X30977293Y-27882911D01*
X31039678Y-28156234D01*
X31071067Y-28434824D01*
X31071067Y-28715176D01*
X31039678Y-28993766D01*
X30977293Y-29267089D01*
X30884699Y-29531709D01*
X30763059Y-29784297D01*
X30613902Y-30021678D01*
X30439105Y-30240866D01*
X30240866Y-30439105D01*
X30021678Y-30613902D01*
X29784297Y-30763059D01*
X29531709Y-30884699D01*
X29267089Y-30977293D01*
X28993766Y-31039678D01*
X28715176Y-31071067D01*
X28434824Y-31071067D01*
X28156234Y-31039678D01*
X27882911Y-30977293D01*
X27618291Y-30884699D01*
X27365703Y-30763059D01*
X27128322Y-30613902D01*
X26909134Y-30439105D01*
X26710895Y-30240866D01*
X26536098Y-30021678D01*
X26386941Y-29784297D01*
X26265301Y-29531709D01*
X26172707Y-29267089D01*
X26110322Y-28993766D01*
X26078933Y-28715176D01*
X26078933Y-28434824D01*
X26110322Y-28156234D01*
X26172707Y-27882911D01*
X26265301Y-27618291D01*
X26386941Y-27365703D01*
X26536098Y-27128322D01*
X26710895Y-26909134D01*
X26909134Y-26710895D01*
X27128322Y-26536098D01*
X27365703Y-26386941D01*
X27618291Y-26265301D01*
X27882911Y-26172707D01*
X28156234Y-26110322D01*
X28434824Y-26078933D01*
X28715176Y-26078933D01*
X28993766Y-26110322D01*
G37*
G36*
X-4268210Y-23705393D02*
G01*
X-4104048Y-23758733D01*
X-3950252Y-23837096D01*
X-3810607Y-23938553D01*
X-3688553Y-24060607D01*
X-3587096Y-24200252D01*
X-3508733Y-24354048D01*
X-3455393Y-24518210D01*
X-3428391Y-24688695D01*
X-3428391Y-24861305D01*
X-3455393Y-25031790D01*
X-3508733Y-25195952D01*
X-3587096Y-25349748D01*
X-3688553Y-25489393D01*
X-3810607Y-25611447D01*
X-3950252Y-25712904D01*
X-4104048Y-25791267D01*
X-4268210Y-25844607D01*
X-4438695Y-25871609D01*
X-4611305Y-25871609D01*
X-4781790Y-25844607D01*
X-4945952Y-25791267D01*
X-5099748Y-25712904D01*
X-5239393Y-25611447D01*
X-5361447Y-25489393D01*
X-5462904Y-25349748D01*
X-5541267Y-25195952D01*
X-5594607Y-25031790D01*
X-5621609Y-24861305D01*
X-5621609Y-24688695D01*
X-5594607Y-24518210D01*
X-5541267Y-24354048D01*
X-5462904Y-24200252D01*
X-5361447Y-24060607D01*
X-5239393Y-23938553D01*
X-5099748Y-23837096D01*
X-4945952Y-23758733D01*
X-4781790Y-23705393D01*
X-4611305Y-23678391D01*
X-4438695Y-23678391D01*
X-4268210Y-23705393D01*
G37*
G36*
X14781790Y-23705393D02*
G01*
X14945952Y-23758733D01*
X15099748Y-23837096D01*
X15239393Y-23938553D01*
X15361447Y-24060607D01*
X15462904Y-24200252D01*
X15541267Y-24354048D01*
X15594607Y-24518210D01*
X15621609Y-24688695D01*
X15621609Y-24861305D01*
X15594607Y-25031790D01*
X15541267Y-25195952D01*
X15462904Y-25349748D01*
X15361447Y-25489393D01*
X15239393Y-25611447D01*
X15099748Y-25712904D01*
X14945952Y-25791267D01*
X14781790Y-25844607D01*
X14611305Y-25871609D01*
X14438695Y-25871609D01*
X14268210Y-25844607D01*
X14104048Y-25791267D01*
X13950252Y-25712904D01*
X13810607Y-25611447D01*
X13688553Y-25489393D01*
X13587096Y-25349748D01*
X13508733Y-25195952D01*
X13455393Y-25031790D01*
X13428391Y-24861305D01*
X13428391Y-24688695D01*
X13455393Y-24518210D01*
X13508733Y-24354048D01*
X13587096Y-24200252D01*
X13688553Y-24060607D01*
X13810607Y-23938553D01*
X13950252Y-23837096D01*
X14104048Y-23758733D01*
X14268210Y-23705393D01*
X14438695Y-23678391D01*
X14611305Y-23678391D01*
X14781790Y-23705393D01*
G37*
G36*
X33831790Y-23705393D02*
G01*
X33995952Y-23758733D01*
X34149748Y-23837096D01*
X34289393Y-23938553D01*
X34411447Y-24060607D01*
X34512904Y-24200252D01*
X34591267Y-24354048D01*
X34644607Y-24518210D01*
X34671609Y-24688695D01*
X34671609Y-24861305D01*
X34644607Y-25031790D01*
X34591267Y-25195952D01*
X34512904Y-25349748D01*
X34411447Y-25489393D01*
X34289393Y-25611447D01*
X34149748Y-25712904D01*
X33995952Y-25791267D01*
X33831790Y-25844607D01*
X33661305Y-25871609D01*
X33488695Y-25871609D01*
X33318210Y-25844607D01*
X33154048Y-25791267D01*
X33000252Y-25712904D01*
X32860607Y-25611447D01*
X32738553Y-25489393D01*
X32637096Y-25349748D01*
X32558733Y-25195952D01*
X32505393Y-25031790D01*
X32478391Y-24861305D01*
X32478391Y-24688695D01*
X32505393Y-24518210D01*
X32558733Y-24354048D01*
X32637096Y-24200252D01*
X32738553Y-24060607D01*
X32860607Y-23938553D01*
X33000252Y-23837096D01*
X33154048Y-23758733D01*
X33318210Y-23705393D01*
X33488695Y-23678391D01*
X33661305Y-23678391D01*
X33831790Y-23705393D01*
G37*
G36*
X-9268210Y-21605393D02*
G01*
X-9104048Y-21658733D01*
X-8950252Y-21737096D01*
X-8810607Y-21838553D01*
X-8688553Y-21960607D01*
X-8587096Y-22100252D01*
X-8508733Y-22254048D01*
X-8455393Y-22418210D01*
X-8428391Y-22588695D01*
X-8428391Y-22761305D01*
X-8455393Y-22931790D01*
X-8508733Y-23095952D01*
X-8587096Y-23249748D01*
X-8688553Y-23389393D01*
X-8810607Y-23511447D01*
X-8950252Y-23612904D01*
X-9104048Y-23691267D01*
X-9268210Y-23744607D01*
X-9438695Y-23771609D01*
X-9611305Y-23771609D01*
X-9781790Y-23744607D01*
X-9945952Y-23691267D01*
X-10099748Y-23612904D01*
X-10239393Y-23511447D01*
X-10361447Y-23389393D01*
X-10462904Y-23249748D01*
X-10541267Y-23095952D01*
X-10594607Y-22931790D01*
X-10621609Y-22761305D01*
X-10621609Y-22588695D01*
X-10594607Y-22418210D01*
X-10541267Y-22254048D01*
X-10462904Y-22100252D01*
X-10361447Y-21960607D01*
X-10239393Y-21838553D01*
X-10099748Y-21737096D01*
X-9945952Y-21658733D01*
X-9781790Y-21605393D01*
X-9611305Y-21578391D01*
X-9438695Y-21578391D01*
X-9268210Y-21605393D01*
G37*
G36*
X9781790Y-21605393D02*
G01*
X9945952Y-21658733D01*
X10099748Y-21737096D01*
X10239393Y-21838553D01*
X10361447Y-21960607D01*
X10462904Y-22100252D01*
X10541267Y-22254048D01*
X10594607Y-22418210D01*
X10621609Y-22588695D01*
X10621609Y-22761305D01*
X10594607Y-22931790D01*
X10541267Y-23095952D01*
X10462904Y-23249748D01*
X10361447Y-23389393D01*
X10239393Y-23511447D01*
X10099748Y-23612904D01*
X9945952Y-23691267D01*
X9781790Y-23744607D01*
X9611305Y-23771609D01*
X9438695Y-23771609D01*
X9268210Y-23744607D01*
X9104048Y-23691267D01*
X8950252Y-23612904D01*
X8810607Y-23511447D01*
X8688553Y-23389393D01*
X8587096Y-23249748D01*
X8508733Y-23095952D01*
X8455393Y-22931790D01*
X8428391Y-22761305D01*
X8428391Y-22588695D01*
X8455393Y-22418210D01*
X8508733Y-22254048D01*
X8587096Y-22100252D01*
X8688553Y-21960607D01*
X8810607Y-21838553D01*
X8950252Y-21737096D01*
X9104048Y-21658733D01*
X9268210Y-21605393D01*
X9438695Y-21578391D01*
X9611305Y-21578391D01*
X9781790Y-21605393D01*
G37*
G36*
X28831790Y-21605393D02*
G01*
X28995952Y-21658733D01*
X29149748Y-21737096D01*
X29289393Y-21838553D01*
X29411447Y-21960607D01*
X29512904Y-22100252D01*
X29591267Y-22254048D01*
X29644607Y-22418210D01*
X29671609Y-22588695D01*
X29671609Y-22761305D01*
X29644607Y-22931790D01*
X29591267Y-23095952D01*
X29512904Y-23249748D01*
X29411447Y-23389393D01*
X29289393Y-23511447D01*
X29149748Y-23612904D01*
X28995952Y-23691267D01*
X28831790Y-23744607D01*
X28661305Y-23771609D01*
X28488695Y-23771609D01*
X28318210Y-23744607D01*
X28154048Y-23691267D01*
X28000252Y-23612904D01*
X27860607Y-23511447D01*
X27738553Y-23389393D01*
X27637096Y-23249748D01*
X27558733Y-23095952D01*
X27505393Y-22931790D01*
X27478391Y-22761305D01*
X27478391Y-22588695D01*
X27505393Y-22418210D01*
X27558733Y-22254048D01*
X27637096Y-22100252D01*
X27738553Y-21960607D01*
X27860607Y-21838553D01*
X28000252Y-21737096D01*
X28154048Y-21658733D01*
X28318210Y-21605393D01*
X28488695Y-21578391D01*
X28661305Y-21578391D01*
X28831790Y-21605393D01*
G37*
G36*
X-22975000Y-20375000D02*
G01*
X-24175000Y-20375000D01*
X-24175000Y-19475000D01*
X-22975000Y-19475000D01*
X-22975000Y-20375000D01*
G37*
G36*
X-3925000Y-20375000D02*
G01*
X-5125000Y-20375000D01*
X-5125000Y-19475000D01*
X-3925000Y-19475000D01*
X-3925000Y-20375000D01*
G37*
G36*
X15125000Y-20375000D02*
G01*
X13925000Y-20375000D01*
X13925000Y-19475000D01*
X15125000Y-19475000D01*
X15125000Y-20375000D01*
G37*
G36*
X34175000Y-20375000D02*
G01*
X32975000Y-20375000D01*
X32975000Y-19475000D01*
X34175000Y-19475000D01*
X34175000Y-20375000D01*
G37*
G36*
X-22975000Y-17075000D02*
G01*
X-24175000Y-17075000D01*
X-24175000Y-16175000D01*
X-22975000Y-16175000D01*
X-22975000Y-17075000D01*
G37*
G36*
X-3925000Y-17075000D02*
G01*
X-5125000Y-17075000D01*
X-5125000Y-16175000D01*
X-3925000Y-16175000D01*
X-3925000Y-17075000D01*
G37*
G36*
X15125000Y-17075000D02*
G01*
X13925000Y-17075000D01*
X13925000Y-16175000D01*
X15125000Y-16175000D01*
X15125000Y-17075000D01*
G37*
G36*
X34175000Y-17075000D02*
G01*
X32975000Y-17075000D01*
X32975000Y-16175000D01*
X34175000Y-16175000D01*
X34175000Y-17075000D01*
G37*
G36*
X-33357286Y-13707295D02*
G01*
X-33221452Y-13763559D01*
X-33099205Y-13845242D01*
X-32995242Y-13949205D01*
X-32913559Y-14071452D01*
X-32857295Y-14207286D01*
X-32828611Y-14351487D01*
X-32825000Y-14425000D01*
X-32825000Y-14925000D01*
X-32828611Y-14998513D01*
X-32857295Y-15142714D01*
X-32913559Y-15278548D01*
X-32995242Y-15400795D01*
X-33099205Y-15504758D01*
X-33221452Y-15586441D01*
X-33357286Y-15642705D01*
X-33501487Y-15671389D01*
X-33648513Y-15671389D01*
X-33792714Y-15642705D01*
X-33928548Y-15586441D01*
X-34050795Y-15504758D01*
X-34154758Y-15400795D01*
X-34236441Y-15278548D01*
X-34292705Y-15142714D01*
X-34321389Y-14998513D01*
X-34325000Y-14925000D01*
X-34325000Y-14425000D01*
X-34321389Y-14351487D01*
X-34292705Y-14207286D01*
X-34236441Y-14071452D01*
X-34154758Y-13949205D01*
X-34050795Y-13845242D01*
X-33928548Y-13763559D01*
X-33792714Y-13707295D01*
X-33648513Y-13678611D01*
X-33501487Y-13678611D01*
X-33357286Y-13707295D01*
G37*
G36*
X-14307286Y-13707295D02*
G01*
X-14171452Y-13763559D01*
X-14049205Y-13845242D01*
X-13945242Y-13949205D01*
X-13863559Y-14071452D01*
X-13807295Y-14207286D01*
X-13778611Y-14351487D01*
X-13775000Y-14425000D01*
X-13775000Y-14925000D01*
X-13778611Y-14998513D01*
X-13807295Y-15142714D01*
X-13863559Y-15278548D01*
X-13945242Y-15400795D01*
X-14049205Y-15504758D01*
X-14171452Y-15586441D01*
X-14307286Y-15642705D01*
X-14451487Y-15671389D01*
X-14598513Y-15671389D01*
X-14742714Y-15642705D01*
X-14878548Y-15586441D01*
X-15000795Y-15504758D01*
X-15104758Y-15400795D01*
X-15186441Y-15278548D01*
X-15242705Y-15142714D01*
X-15271389Y-14998513D01*
X-15275000Y-14925000D01*
X-15275000Y-14425000D01*
X-15271389Y-14351487D01*
X-15242705Y-14207286D01*
X-15186441Y-14071452D01*
X-15104758Y-13949205D01*
X-15000795Y-13845242D01*
X-14878548Y-13763559D01*
X-14742714Y-13707295D01*
X-14598513Y-13678611D01*
X-14451487Y-13678611D01*
X-14307286Y-13707295D01*
G37*
G36*
X4742714Y-13707295D02*
G01*
X4878548Y-13763559D01*
X5000795Y-13845242D01*
X5104758Y-13949205D01*
X5186441Y-14071452D01*
X5242705Y-14207286D01*
X5271389Y-14351487D01*
X5275000Y-14425000D01*
X5275000Y-14925000D01*
X5271389Y-14998513D01*
X5242705Y-15142714D01*
X5186441Y-15278548D01*
X5104758Y-15400795D01*
X5000795Y-15504758D01*
X4878548Y-15586441D01*
X4742714Y-15642705D01*
X4598513Y-15671389D01*
X4451487Y-15671389D01*
X4307286Y-15642705D01*
X4171452Y-15586441D01*
X4049205Y-15504758D01*
X3945242Y-15400795D01*
X3863559Y-15278548D01*
X3807295Y-15142714D01*
X3778611Y-14998513D01*
X3775000Y-14925000D01*
X3775000Y-14425000D01*
X3778611Y-14351487D01*
X3807295Y-14207286D01*
X3863559Y-14071452D01*
X3945242Y-13949205D01*
X4049205Y-13845242D01*
X4171452Y-13763559D01*
X4307286Y-13707295D01*
X4451487Y-13678611D01*
X4598513Y-13678611D01*
X4742714Y-13707295D01*
G37*
G36*
X23792714Y-13707295D02*
G01*
X23928548Y-13763559D01*
X24050795Y-13845242D01*
X24154758Y-13949205D01*
X24236441Y-14071452D01*
X24292705Y-14207286D01*
X24321389Y-14351487D01*
X24325000Y-14425000D01*
X24325000Y-14925000D01*
X24321389Y-14998513D01*
X24292705Y-15142714D01*
X24236441Y-15278548D01*
X24154758Y-15400795D01*
X24050795Y-15504758D01*
X23928548Y-15586441D01*
X23792714Y-15642705D01*
X23648513Y-15671389D01*
X23501487Y-15671389D01*
X23357286Y-15642705D01*
X23221452Y-15586441D01*
X23099205Y-15504758D01*
X22995242Y-15400795D01*
X22913559Y-15278548D01*
X22857295Y-15142714D01*
X22828611Y-14998513D01*
X22825000Y-14925000D01*
X22825000Y-14425000D01*
X22828611Y-14351487D01*
X22857295Y-14207286D01*
X22913559Y-14071452D01*
X22995242Y-13949205D01*
X23099205Y-13845242D01*
X23221452Y-13763559D01*
X23357286Y-13707295D01*
X23501487Y-13678611D01*
X23648513Y-13678611D01*
X23792714Y-13707295D01*
G37*
G36*
X-28156234Y-7060322D02*
G01*
X-27882911Y-7122707D01*
X-27618291Y-7215301D01*
X-27365703Y-7336941D01*
X-27128322Y-7486098D01*
X-26909134Y-7660895D01*
X-26710895Y-7859134D01*
X-26536098Y-8078322D01*
X-26386941Y-8315703D01*
X-26265301Y-8568291D01*
X-26172707Y-8832911D01*
X-26110322Y-9106234D01*
X-26078933Y-9384824D01*
X-26078933Y-9665176D01*
X-26110322Y-9943766D01*
X-26172707Y-10217089D01*
X-26265301Y-10481709D01*
X-26386941Y-10734297D01*
X-26536098Y-10971678D01*
X-26710895Y-11190866D01*
X-26909134Y-11389105D01*
X-27128322Y-11563902D01*
X-27365703Y-11713059D01*
X-27618291Y-11834699D01*
X-27882911Y-11927293D01*
X-28156234Y-11989678D01*
X-28434824Y-12021067D01*
X-28715176Y-12021067D01*
X-28993766Y-11989678D01*
X-29267089Y-11927293D01*
X-29531709Y-11834699D01*
X-29784297Y-11713059D01*
X-30021678Y-11563902D01*
X-30240866Y-11389105D01*
X-30439105Y-11190866D01*
X-30613902Y-10971678D01*
X-30763059Y-10734297D01*
X-30884699Y-10481709D01*
X-30977293Y-10217089D01*
X-31039678Y-9943766D01*
X-31071067Y-9665176D01*
X-31071067Y-9384824D01*
X-31039678Y-9106234D01*
X-30977293Y-8832911D01*
X-30884699Y-8568291D01*
X-30763059Y-8315703D01*
X-30613902Y-8078322D01*
X-30439105Y-7859134D01*
X-30240866Y-7660895D01*
X-30021678Y-7486098D01*
X-29784297Y-7336941D01*
X-29531709Y-7215301D01*
X-29267089Y-7122707D01*
X-28993766Y-7060322D01*
X-28715176Y-7028933D01*
X-28434824Y-7028933D01*
X-28156234Y-7060322D01*
G37*
G36*
X-9106234Y-7060322D02*
G01*
X-8832911Y-7122707D01*
X-8568291Y-7215301D01*
X-8315703Y-7336941D01*
X-8078322Y-7486098D01*
X-7859134Y-7660895D01*
X-7660895Y-7859134D01*
X-7486098Y-8078322D01*
X-7336941Y-8315703D01*
X-7215301Y-8568291D01*
X-7122707Y-8832911D01*
X-7060322Y-9106234D01*
X-7028933Y-9384824D01*
X-7028933Y-9665176D01*
X-7060322Y-9943766D01*
X-7122707Y-10217089D01*
X-7215301Y-10481709D01*
X-7336941Y-10734297D01*
X-7486098Y-10971678D01*
X-7660895Y-11190866D01*
X-7859134Y-11389105D01*
X-8078322Y-11563902D01*
X-8315703Y-11713059D01*
X-8568291Y-11834699D01*
X-8832911Y-11927293D01*
X-9106234Y-11989678D01*
X-9384824Y-12021067D01*
X-9665176Y-12021067D01*
X-9943766Y-11989678D01*
X-10217089Y-11927293D01*
X-10481709Y-11834699D01*
X-10734297Y-11713059D01*
X-10971678Y-11563902D01*
X-11190866Y-11389105D01*
X-11389105Y-11190866D01*
X-11563902Y-10971678D01*
X-11713059Y-10734297D01*
X-11834699Y-10481709D01*
X-11927293Y-10217089D01*
X-11989678Y-9943766D01*
X-12021067Y-9665176D01*
X-12021067Y-9384824D01*
X-11989678Y-9106234D01*
X-11927293Y-8832911D01*
X-11834699Y-8568291D01*
X-11713059Y-8315703D01*
X-11563902Y-8078322D01*
X-11389105Y-7859134D01*
X-11190866Y-7660895D01*
X-10971678Y-7486098D01*
X-10734297Y-7336941D01*
X-10481709Y-7215301D01*
X-10217089Y-7122707D01*
X-9943766Y-7060322D01*
X-9665176Y-7028933D01*
X-9384824Y-7028933D01*
X-9106234Y-7060322D01*
G37*
G36*
X9943766Y-7060322D02*
G01*
X10217089Y-7122707D01*
X10481709Y-7215301D01*
X10734297Y-7336941D01*
X10971678Y-7486098D01*
X11190866Y-7660895D01*
X11389105Y-7859134D01*
X11563902Y-8078322D01*
X11713059Y-8315703D01*
X11834699Y-8568291D01*
X11927293Y-8832911D01*
X11989678Y-9106234D01*
X12021067Y-9384824D01*
X12021067Y-9665176D01*
X11989678Y-9943766D01*
X11927293Y-10217089D01*
X11834699Y-10481709D01*
X11713059Y-10734297D01*
X11563902Y-10971678D01*
X11389105Y-11190866D01*
X11190866Y-11389105D01*
X10971678Y-11563902D01*
X10734297Y-11713059D01*
X10481709Y-11834699D01*
X10217089Y-11927293D01*
X9943766Y-11989678D01*
X9665176Y-12021067D01*
X9384824Y-12021067D01*
X9106234Y-11989678D01*
X8832911Y-11927293D01*
X8568291Y-11834699D01*
X8315703Y-11713059D01*
X8078322Y-11563902D01*
X7859134Y-11389105D01*
X7660895Y-11190866D01*
X7486098Y-10971678D01*
X7336941Y-10734297D01*
X7215301Y-10481709D01*
X7122707Y-10217089D01*
X7060322Y-9943766D01*
X7028933Y-9665176D01*
X7028933Y-9384824D01*
X7060322Y-9106234D01*
X7122707Y-8832911D01*
X7215301Y-8568291D01*
X7336941Y-8315703D01*
X7486098Y-8078322D01*
X7660895Y-7859134D01*
X7859134Y-7660895D01*
X8078322Y-7486098D01*
X8315703Y-7336941D01*
X8568291Y-7215301D01*
X8832911Y-7122707D01*
X9106234Y-7060322D01*
X9384824Y-7028933D01*
X9665176Y-7028933D01*
X9943766Y-7060322D01*
G37*
G36*
X28993766Y-7060322D02*
G01*
X29267089Y-7122707D01*
X29531709Y-7215301D01*
X29784297Y-7336941D01*
X30021678Y-7486098D01*
X30240866Y-7660895D01*
X30439105Y-7859134D01*
X30613902Y-8078322D01*
X30763059Y-8315703D01*
X30884699Y-8568291D01*
X30977293Y-8832911D01*
X31039678Y-9106234D01*
X31071067Y-9384824D01*
X31071067Y-9665176D01*
X31039678Y-9943766D01*
X30977293Y-10217089D01*
X30884699Y-10481709D01*
X30763059Y-10734297D01*
X30613902Y-10971678D01*
X30439105Y-11190866D01*
X30240866Y-11389105D01*
X30021678Y-11563902D01*
X29784297Y-11713059D01*
X29531709Y-11834699D01*
X29267089Y-11927293D01*
X28993766Y-11989678D01*
X28715176Y-12021067D01*
X28434824Y-12021067D01*
X28156234Y-11989678D01*
X27882911Y-11927293D01*
X27618291Y-11834699D01*
X27365703Y-11713059D01*
X27128322Y-11563902D01*
X26909134Y-11389105D01*
X26710895Y-11190866D01*
X26536098Y-10971678D01*
X26386941Y-10734297D01*
X26265301Y-10481709D01*
X26172707Y-10217089D01*
X26110322Y-9943766D01*
X26078933Y-9665176D01*
X26078933Y-9384824D01*
X26110322Y-9106234D01*
X26172707Y-8832911D01*
X26265301Y-8568291D01*
X26386941Y-8315703D01*
X26536098Y-8078322D01*
X26710895Y-7859134D01*
X26909134Y-7660895D01*
X27128322Y-7486098D01*
X27365703Y-7336941D01*
X27618291Y-7215301D01*
X27882911Y-7122707D01*
X28156234Y-7060322D01*
X28434824Y-7028933D01*
X28715176Y-7028933D01*
X28993766Y-7060322D01*
G37*
G36*
X-23318210Y-4655393D02*
G01*
X-23154048Y-4708733D01*
X-23000252Y-4787096D01*
X-22860607Y-4888553D01*
X-22738553Y-5010607D01*
X-22637096Y-5150252D01*
X-22558733Y-5304048D01*
X-22505393Y-5468210D01*
X-22478391Y-5638695D01*
X-22478391Y-5811305D01*
X-22505393Y-5981790D01*
X-22558733Y-6145952D01*
X-22637096Y-6299748D01*
X-22738553Y-6439393D01*
X-22860607Y-6561447D01*
X-23000252Y-6662904D01*
X-23154048Y-6741267D01*
X-23318210Y-6794607D01*
X-23488695Y-6821609D01*
X-23661305Y-6821609D01*
X-23831790Y-6794607D01*
X-23995952Y-6741267D01*
X-24149748Y-6662904D01*
X-24289393Y-6561447D01*
X-24411447Y-6439393D01*
X-24512904Y-6299748D01*
X-24591267Y-6145952D01*
X-24644607Y-5981790D01*
X-24671609Y-5811305D01*
X-24671609Y-5638695D01*
X-24644607Y-5468210D01*
X-24591267Y-5304048D01*
X-24512904Y-5150252D01*
X-24411447Y-5010607D01*
X-24289393Y-4888553D01*
X-24149748Y-4787096D01*
X-23995952Y-4708733D01*
X-23831790Y-4655393D01*
X-23661305Y-4628391D01*
X-23488695Y-4628391D01*
X-23318210Y-4655393D01*
G37*
G36*
X-4268210Y-4655393D02*
G01*
X-4104048Y-4708733D01*
X-3950252Y-4787096D01*
X-3810607Y-4888553D01*
X-3688553Y-5010607D01*
X-3587096Y-5150252D01*
X-3508733Y-5304048D01*
X-3455393Y-5468210D01*
X-3428391Y-5638695D01*
X-3428391Y-5811305D01*
X-3455393Y-5981790D01*
X-3508733Y-6145952D01*
X-3587096Y-6299748D01*
X-3688553Y-6439393D01*
X-3810607Y-6561447D01*
X-3950252Y-6662904D01*
X-4104048Y-6741267D01*
X-4268210Y-6794607D01*
X-4438695Y-6821609D01*
X-4611305Y-6821609D01*
X-4781790Y-6794607D01*
X-4945952Y-6741267D01*
X-5099748Y-6662904D01*
X-5239393Y-6561447D01*
X-5361447Y-6439393D01*
X-5462904Y-6299748D01*
X-5541267Y-6145952D01*
X-5594607Y-5981790D01*
X-5621609Y-5811305D01*
X-5621609Y-5638695D01*
X-5594607Y-5468210D01*
X-5541267Y-5304048D01*
X-5462904Y-5150252D01*
X-5361447Y-5010607D01*
X-5239393Y-4888553D01*
X-5099748Y-4787096D01*
X-4945952Y-4708733D01*
X-4781790Y-4655393D01*
X-4611305Y-4628391D01*
X-4438695Y-4628391D01*
X-4268210Y-4655393D01*
G37*
G36*
X14781790Y-4655393D02*
G01*
X14945952Y-4708733D01*
X15099748Y-4787096D01*
X15239393Y-4888553D01*
X15361447Y-5010607D01*
X15462904Y-5150252D01*
X15541267Y-5304048D01*
X15594607Y-5468210D01*
X15621609Y-5638695D01*
X15621609Y-5811305D01*
X15594607Y-5981790D01*
X15541267Y-6145952D01*
X15462904Y-6299748D01*
X15361447Y-6439393D01*
X15239393Y-6561447D01*
X15099748Y-6662904D01*
X14945952Y-6741267D01*
X14781790Y-6794607D01*
X14611305Y-6821609D01*
X14438695Y-6821609D01*
X14268210Y-6794607D01*
X14104048Y-6741267D01*
X13950252Y-6662904D01*
X13810607Y-6561447D01*
X13688553Y-6439393D01*
X13587096Y-6299748D01*
X13508733Y-6145952D01*
X13455393Y-5981790D01*
X13428391Y-5811305D01*
X13428391Y-5638695D01*
X13455393Y-5468210D01*
X13508733Y-5304048D01*
X13587096Y-5150252D01*
X13688553Y-5010607D01*
X13810607Y-4888553D01*
X13950252Y-4787096D01*
X14104048Y-4708733D01*
X14268210Y-4655393D01*
X14438695Y-4628391D01*
X14611305Y-4628391D01*
X14781790Y-4655393D01*
G37*
G36*
X33831790Y-4655393D02*
G01*
X33995952Y-4708733D01*
X34149748Y-4787096D01*
X34289393Y-4888553D01*
X34411447Y-5010607D01*
X34512904Y-5150252D01*
X34591267Y-5304048D01*
X34644607Y-5468210D01*
X34671609Y-5638695D01*
X34671609Y-5811305D01*
X34644607Y-5981790D01*
X34591267Y-6145952D01*
X34512904Y-6299748D01*
X34411447Y-6439393D01*
X34289393Y-6561447D01*
X34149748Y-6662904D01*
X33995952Y-6741267D01*
X33831790Y-6794607D01*
X33661305Y-6821609D01*
X33488695Y-6821609D01*
X33318210Y-6794607D01*
X33154048Y-6741267D01*
X33000252Y-6662904D01*
X32860607Y-6561447D01*
X32738553Y-6439393D01*
X32637096Y-6299748D01*
X32558733Y-6145952D01*
X32505393Y-5981790D01*
X32478391Y-5811305D01*
X32478391Y-5638695D01*
X32505393Y-5468210D01*
X32558733Y-5304048D01*
X32637096Y-5150252D01*
X32738553Y-5010607D01*
X32860607Y-4888553D01*
X33000252Y-4787096D01*
X33154048Y-4708733D01*
X33318210Y-4655393D01*
X33488695Y-4628391D01*
X33661305Y-4628391D01*
X33831790Y-4655393D01*
G37*
G36*
X-28318210Y-2555393D02*
G01*
X-28154048Y-2608733D01*
X-28000252Y-2687096D01*
X-27860607Y-2788553D01*
X-27738553Y-2910607D01*
X-27637096Y-3050252D01*
X-27558733Y-3204048D01*
X-27505393Y-3368210D01*
X-27478391Y-3538695D01*
X-27478391Y-3711305D01*
X-27505393Y-3881790D01*
X-27558733Y-4045952D01*
X-27637096Y-4199748D01*
X-27738553Y-4339393D01*
X-27860607Y-4461447D01*
X-28000252Y-4562904D01*
X-28154048Y-4641267D01*
X-28318210Y-4694607D01*
X-28488695Y-4721609D01*
X-28661305Y-4721609D01*
X-28831790Y-4694607D01*
X-28995952Y-4641267D01*
X-29149748Y-4562904D01*
X-29289393Y-4461447D01*
X-29411447Y-4339393D01*
X-29512904Y-4199748D01*
X-29591267Y-4045952D01*
X-29644607Y-3881790D01*
X-29671609Y-3711305D01*
X-29671609Y-3538695D01*
X-29644607Y-3368210D01*
X-29591267Y-3204048D01*
X-29512904Y-3050252D01*
X-29411447Y-2910607D01*
X-29289393Y-2788553D01*
X-29149748Y-2687096D01*
X-28995952Y-2608733D01*
X-28831790Y-2555393D01*
X-28661305Y-2528391D01*
X-28488695Y-2528391D01*
X-28318210Y-2555393D01*
G37*
G36*
X-9268210Y-2555393D02*
G01*
X-9104048Y-2608733D01*
X-8950252Y-2687096D01*
X-8810607Y-2788553D01*
X-8688553Y-2910607D01*
X-8587096Y-3050252D01*
X-8508733Y-3204048D01*
X-8455393Y-3368210D01*
X-8428391Y-3538695D01*
X-8428391Y-3711305D01*
X-8455393Y-3881790D01*
X-8508733Y-4045952D01*
X-8587096Y-4199748D01*
X-8688553Y-4339393D01*
X-8810607Y-4461447D01*
X-8950252Y-4562904D01*
X-9104048Y-4641267D01*
X-9268210Y-4694607D01*
X-9438695Y-4721609D01*
X-9611305Y-4721609D01*
X-9781790Y-4694607D01*
X-9945952Y-4641267D01*
X-10099748Y-4562904D01*
X-10239393Y-4461447D01*
X-10361447Y-4339393D01*
X-10462904Y-4199748D01*
X-10541267Y-4045952D01*
X-10594607Y-3881790D01*
X-10621609Y-3711305D01*
X-10621609Y-3538695D01*
X-10594607Y-3368210D01*
X-10541267Y-3204048D01*
X-10462904Y-3050252D01*
X-10361447Y-2910607D01*
X-10239393Y-2788553D01*
X-10099748Y-2687096D01*
X-9945952Y-2608733D01*
X-9781790Y-2555393D01*
X-9611305Y-2528391D01*
X-9438695Y-2528391D01*
X-9268210Y-2555393D01*
G37*
G36*
X9781790Y-2555393D02*
G01*
X9945952Y-2608733D01*
X10099748Y-2687096D01*
X10239393Y-2788553D01*
X10361447Y-2910607D01*
X10462904Y-3050252D01*
X10541267Y-3204048D01*
X10594607Y-3368210D01*
X10621609Y-3538695D01*
X10621609Y-3711305D01*
X10594607Y-3881790D01*
X10541267Y-4045952D01*
X10462904Y-4199748D01*
X10361447Y-4339393D01*
X10239393Y-4461447D01*
X10099748Y-4562904D01*
X9945952Y-4641267D01*
X9781790Y-4694607D01*
X9611305Y-4721609D01*
X9438695Y-4721609D01*
X9268210Y-4694607D01*
X9104048Y-4641267D01*
X8950252Y-4562904D01*
X8810607Y-4461447D01*
X8688553Y-4339393D01*
X8587096Y-4199748D01*
X8508733Y-4045952D01*
X8455393Y-3881790D01*
X8428391Y-3711305D01*
X8428391Y-3538695D01*
X8455393Y-3368210D01*
X8508733Y-3204048D01*
X8587096Y-3050252D01*
X8688553Y-2910607D01*
X8810607Y-2788553D01*
X8950252Y-2687096D01*
X9104048Y-2608733D01*
X9268210Y-2555393D01*
X9438695Y-2528391D01*
X9611305Y-2528391D01*
X9781790Y-2555393D01*
G37*
G36*
X28831790Y-2555393D02*
G01*
X28995952Y-2608733D01*
X29149748Y-2687096D01*
X29289393Y-2788553D01*
X29411447Y-2910607D01*
X29512904Y-3050252D01*
X29591267Y-3204048D01*
X29644607Y-3368210D01*
X29671609Y-3538695D01*
X29671609Y-3711305D01*
X29644607Y-3881790D01*
X29591267Y-4045952D01*
X29512904Y-4199748D01*
X29411447Y-4339393D01*
X29289393Y-4461447D01*
X29149748Y-4562904D01*
X28995952Y-4641267D01*
X28831790Y-4694607D01*
X28661305Y-4721609D01*
X28488695Y-4721609D01*
X28318210Y-4694607D01*
X28154048Y-4641267D01*
X28000252Y-4562904D01*
X27860607Y-4461447D01*
X27738553Y-4339393D01*
X27637096Y-4199748D01*
X27558733Y-4045952D01*
X27505393Y-3881790D01*
X27478391Y-3711305D01*
X27478391Y-3538695D01*
X27505393Y-3368210D01*
X27558733Y-3204048D01*
X27637096Y-3050252D01*
X27738553Y-2910607D01*
X27860607Y-2788553D01*
X28000252Y-2687096D01*
X28154048Y-2608733D01*
X28318210Y-2555393D01*
X28488695Y-2528391D01*
X28661305Y-2528391D01*
X28831790Y-2555393D01*
G37*
G36*
X-22975000Y-1325000D02*
G01*
X-24175000Y-1325000D01*
X-24175000Y-425000D01*
X-22975000Y-425000D01*
X-22975000Y-1325000D01*
G37*
G36*
X-3925000Y-1325000D02*
G01*
X-5125000Y-1325000D01*
X-5125000Y-425000D01*
X-3925000Y-425000D01*
X-3925000Y-1325000D01*
G37*
G36*
X15125000Y-1325000D02*
G01*
X13925000Y-1325000D01*
X13925000Y-425000D01*
X15125000Y-425000D01*
X15125000Y-1325000D01*
G37*
G36*
X34175000Y-1325000D02*
G01*
X32975000Y-1325000D01*
X32975000Y-425000D01*
X34175000Y-425000D01*
X34175000Y-1325000D01*
G37*
G36*
X-22975000Y1975000D02*
G01*
X-22979924Y1975000D01*
X-24170077Y1975000D01*
X-24175000Y1975000D01*
X-24175000Y2875000D01*
X-22975000Y2875000D01*
X-22975000Y1975000D01*
G37*
G36*
X-3925000Y1975000D02*
G01*
X-3929924Y1975000D01*
X-5120077Y1975000D01*
X-5125000Y1975000D01*
X-5125000Y2875000D01*
X-3925000Y2875000D01*
X-3925000Y1975000D01*
G37*
G36*
X15125000Y1975000D02*
G01*
X15120075Y1975000D01*
X13929922Y1975000D01*
X13925000Y1975000D01*
X13925000Y2875000D01*
X15125000Y2875000D01*
X15125000Y1975000D01*
G37*
G36*
X34175000Y1975000D02*
G01*
X34170075Y1975000D01*
X32979922Y1975000D01*
X32975000Y1975000D01*
X32975000Y2875000D01*
X34175000Y2875000D01*
X34175000Y1975000D01*
G37*
G36*
X-33357286Y5342705D02*
G01*
X-33221452Y5286441D01*
X-33099205Y5204758D01*
X-32995242Y5100795D01*
X-32913559Y4978548D01*
X-32857295Y4842714D01*
X-32828611Y4698513D01*
X-32825000Y4625000D01*
X-32825000Y4125000D01*
X-32828611Y4051487D01*
X-32857295Y3907286D01*
X-32913559Y3771452D01*
X-32995242Y3649205D01*
X-33099205Y3545242D01*
X-33221452Y3463559D01*
X-33357286Y3407295D01*
X-33501487Y3378611D01*
X-33648513Y3378611D01*
X-33792714Y3407295D01*
X-33928548Y3463559D01*
X-34050795Y3545242D01*
X-34154758Y3649205D01*
X-34236441Y3771452D01*
X-34292705Y3907286D01*
X-34321389Y4051487D01*
X-34325000Y4125000D01*
X-34325000Y4625000D01*
X-34321389Y4698513D01*
X-34292705Y4842714D01*
X-34236441Y4978548D01*
X-34154758Y5100795D01*
X-34050795Y5204758D01*
X-33928548Y5286441D01*
X-33792714Y5342705D01*
X-33648513Y5371389D01*
X-33501487Y5371389D01*
X-33357286Y5342705D01*
G37*
G36*
X-14307286Y5342705D02*
G01*
X-14171452Y5286441D01*
X-14049205Y5204758D01*
X-13945242Y5100795D01*
X-13863559Y4978548D01*
X-13807295Y4842714D01*
X-13778611Y4698513D01*
X-13775000Y4625000D01*
X-13775000Y4125000D01*
X-13778611Y4051487D01*
X-13807295Y3907286D01*
X-13863559Y3771452D01*
X-13945242Y3649205D01*
X-14049205Y3545242D01*
X-14171452Y3463559D01*
X-14307286Y3407295D01*
X-14451487Y3378611D01*
X-14598513Y3378611D01*
X-14742714Y3407295D01*
X-14878548Y3463559D01*
X-15000795Y3545242D01*
X-15104758Y3649205D01*
X-15186441Y3771452D01*
X-15242705Y3907286D01*
X-15271389Y4051487D01*
X-15275000Y4125000D01*
X-15275000Y4625000D01*
X-15271389Y4698513D01*
X-15242705Y4842714D01*
X-15186441Y4978548D01*
X-15104758Y5100795D01*
X-15000795Y5204758D01*
X-14878548Y5286441D01*
X-14742714Y5342705D01*
X-14598513Y5371389D01*
X-14451487Y5371389D01*
X-14307286Y5342705D01*
G37*
G36*
X4742714Y5342705D02*
G01*
X4878548Y5286441D01*
X5000795Y5204758D01*
X5104758Y5100795D01*
X5186441Y4978548D01*
X5242705Y4842714D01*
X5271389Y4698513D01*
X5275000Y4625000D01*
X5275000Y4125000D01*
X5271389Y4051487D01*
X5242705Y3907286D01*
X5186441Y3771452D01*
X5104758Y3649205D01*
X5000795Y3545242D01*
X4878548Y3463559D01*
X4742714Y3407295D01*
X4598513Y3378611D01*
X4451487Y3378611D01*
X4307286Y3407295D01*
X4171452Y3463559D01*
X4049205Y3545242D01*
X3945242Y3649205D01*
X3863559Y3771452D01*
X3807295Y3907286D01*
X3778611Y4051487D01*
X3775000Y4125000D01*
X3775000Y4625000D01*
X3778611Y4698513D01*
X3807295Y4842714D01*
X3863559Y4978548D01*
X3945242Y5100795D01*
X4049205Y5204758D01*
X4171452Y5286441D01*
X4307286Y5342705D01*
X4451487Y5371389D01*
X4598513Y5371389D01*
X4742714Y5342705D01*
G37*
G36*
X23792714Y5342705D02*
G01*
X23928548Y5286441D01*
X24050795Y5204758D01*
X24154758Y5100795D01*
X24236441Y4978548D01*
X24292705Y4842714D01*
X24321389Y4698513D01*
X24325000Y4625000D01*
X24325000Y4125000D01*
X24321389Y4051487D01*
X24292705Y3907286D01*
X24236441Y3771452D01*
X24154758Y3649205D01*
X24050795Y3545242D01*
X23928548Y3463559D01*
X23792714Y3407295D01*
X23648513Y3378611D01*
X23501487Y3378611D01*
X23357286Y3407295D01*
X23221452Y3463559D01*
X23099205Y3545242D01*
X22995242Y3649205D01*
X22913559Y3771452D01*
X22857295Y3907286D01*
X22828611Y4051487D01*
X22825000Y4125000D01*
X22825000Y4625000D01*
X22828611Y4698513D01*
X22857295Y4842714D01*
X22913559Y4978548D01*
X22995242Y5100795D01*
X23099205Y5204758D01*
X23221452Y5286441D01*
X23357286Y5342705D01*
X23501487Y5371389D01*
X23648513Y5371389D01*
X23792714Y5342705D01*
G37*
G36*
X-28156234Y11989678D02*
G01*
X-27882911Y11927293D01*
X-27618291Y11834699D01*
X-27365703Y11713059D01*
X-27128322Y11563902D01*
X-26909134Y11389105D01*
X-26710895Y11190866D01*
X-26536098Y10971678D01*
X-26386941Y10734297D01*
X-26265301Y10481709D01*
X-26172707Y10217089D01*
X-26110322Y9943766D01*
X-26078933Y9665176D01*
X-26078933Y9384824D01*
X-26110322Y9106234D01*
X-26172707Y8832911D01*
X-26265301Y8568291D01*
X-26386941Y8315703D01*
X-26536098Y8078322D01*
X-26710895Y7859134D01*
X-26909134Y7660895D01*
X-27128322Y7486098D01*
X-27365703Y7336941D01*
X-27618291Y7215301D01*
X-27882911Y7122707D01*
X-28156234Y7060322D01*
X-28434824Y7028933D01*
X-28715176Y7028933D01*
X-28993766Y7060322D01*
X-29267089Y7122707D01*
X-29531709Y7215301D01*
X-29784297Y7336941D01*
X-30021678Y7486098D01*
X-30240866Y7660895D01*
X-30439105Y7859134D01*
X-30613902Y8078322D01*
X-30763059Y8315703D01*
X-30884699Y8568291D01*
X-30977293Y8832911D01*
X-31039678Y9106234D01*
X-31071067Y9384824D01*
X-31071067Y9665176D01*
X-31039678Y9943766D01*
X-30977293Y10217089D01*
X-30884699Y10481709D01*
X-30763059Y10734297D01*
X-30613902Y10971678D01*
X-30439105Y11190866D01*
X-30240866Y11389105D01*
X-30021678Y11563902D01*
X-29784297Y11713059D01*
X-29531709Y11834699D01*
X-29267089Y11927293D01*
X-28993766Y11989678D01*
X-28715176Y12021067D01*
X-28434824Y12021067D01*
X-28156234Y11989678D01*
G37*
G36*
X-9106234Y11989678D02*
G01*
X-8832911Y11927293D01*
X-8568291Y11834699D01*
X-8315703Y11713059D01*
X-8078322Y11563902D01*
X-7859134Y11389105D01*
X-7660895Y11190866D01*
X-7486098Y10971678D01*
X-7336941Y10734297D01*
X-7215301Y10481709D01*
X-7122707Y10217089D01*
X-7060322Y9943766D01*
X-7028933Y9665176D01*
X-7028933Y9384824D01*
X-7060322Y9106234D01*
X-7122707Y8832911D01*
X-7215301Y8568291D01*
X-7336941Y8315703D01*
X-7486098Y8078322D01*
X-7660895Y7859134D01*
X-7859134Y7660895D01*
X-8078322Y7486098D01*
X-8315703Y7336941D01*
X-8568291Y7215301D01*
X-8832911Y7122707D01*
X-9106234Y7060322D01*
X-9384824Y7028933D01*
X-9665176Y7028933D01*
X-9943766Y7060322D01*
X-10217089Y7122707D01*
X-10481709Y7215301D01*
X-10734297Y7336941D01*
X-10971678Y7486098D01*
X-11190866Y7660895D01*
X-11389105Y7859134D01*
X-11563902Y8078322D01*
X-11713059Y8315703D01*
X-11834699Y8568291D01*
X-11927293Y8832911D01*
X-11989678Y9106234D01*
X-12021067Y9384824D01*
X-12021067Y9665176D01*
X-11989678Y9943766D01*
X-11927293Y10217089D01*
X-11834699Y10481709D01*
X-11713059Y10734297D01*
X-11563902Y10971678D01*
X-11389105Y11190866D01*
X-11190866Y11389105D01*
X-10971678Y11563902D01*
X-10734297Y11713059D01*
X-10481709Y11834699D01*
X-10217089Y11927293D01*
X-9943766Y11989678D01*
X-9665176Y12021067D01*
X-9384824Y12021067D01*
X-9106234Y11989678D01*
G37*
G36*
X9943766Y11989678D02*
G01*
X10217089Y11927293D01*
X10481709Y11834699D01*
X10734297Y11713059D01*
X10971678Y11563902D01*
X11190866Y11389105D01*
X11389105Y11190866D01*
X11563902Y10971678D01*
X11713059Y10734297D01*
X11834699Y10481709D01*
X11927293Y10217089D01*
X11989678Y9943766D01*
X12021067Y9665176D01*
X12021067Y9384824D01*
X11989678Y9106234D01*
X11927293Y8832911D01*
X11834699Y8568291D01*
X11713059Y8315703D01*
X11563902Y8078322D01*
X11389105Y7859134D01*
X11190866Y7660895D01*
X10971678Y7486098D01*
X10734297Y7336941D01*
X10481709Y7215301D01*
X10217089Y7122707D01*
X9943766Y7060322D01*
X9665176Y7028933D01*
X9384824Y7028933D01*
X9106234Y7060322D01*
X8832911Y7122707D01*
X8568291Y7215301D01*
X8315703Y7336941D01*
X8078322Y7486098D01*
X7859134Y7660895D01*
X7660895Y7859134D01*
X7486098Y8078322D01*
X7336941Y8315703D01*
X7215301Y8568291D01*
X7122707Y8832911D01*
X7060322Y9106234D01*
X7028933Y9384824D01*
X7028933Y9665176D01*
X7060322Y9943766D01*
X7122707Y10217089D01*
X7215301Y10481709D01*
X7336941Y10734297D01*
X7486098Y10971678D01*
X7660895Y11190866D01*
X7859134Y11389105D01*
X8078322Y11563902D01*
X8315703Y11713059D01*
X8568291Y11834699D01*
X8832911Y11927293D01*
X9106234Y11989678D01*
X9384824Y12021067D01*
X9665176Y12021067D01*
X9943766Y11989678D01*
G37*
G36*
X28993766Y11989678D02*
G01*
X29267089Y11927293D01*
X29531709Y11834699D01*
X29784297Y11713059D01*
X30021678Y11563902D01*
X30240866Y11389105D01*
X30439105Y11190866D01*
X30613902Y10971678D01*
X30763059Y10734297D01*
X30884699Y10481709D01*
X30977293Y10217089D01*
X31039678Y9943766D01*
X31071067Y9665176D01*
X31071067Y9384824D01*
X31039678Y9106234D01*
X30977293Y8832911D01*
X30884699Y8568291D01*
X30763059Y8315703D01*
X30613902Y8078322D01*
X30439105Y7859134D01*
X30240866Y7660895D01*
X30021678Y7486098D01*
X29784297Y7336941D01*
X29531709Y7215301D01*
X29267089Y7122707D01*
X28993766Y7060322D01*
X28715176Y7028933D01*
X28434824Y7028933D01*
X28156234Y7060322D01*
X27882911Y7122707D01*
X27618291Y7215301D01*
X27365703Y7336941D01*
X27128322Y7486098D01*
X26909134Y7660895D01*
X26710895Y7859134D01*
X26536098Y8078322D01*
X26386941Y8315703D01*
X26265301Y8568291D01*
X26172707Y8832911D01*
X26110322Y9106234D01*
X26078933Y9384824D01*
X26078933Y9665176D01*
X26110322Y9943766D01*
X26172707Y10217089D01*
X26265301Y10481709D01*
X26386941Y10734297D01*
X26536098Y10971678D01*
X26710895Y11190866D01*
X26909134Y11389105D01*
X27128322Y11563902D01*
X27365703Y11713059D01*
X27618291Y11834699D01*
X27882911Y11927293D01*
X28156234Y11989678D01*
X28434824Y12021067D01*
X28715176Y12021067D01*
X28993766Y11989678D01*
G37*
G36*
X-23318210Y14394607D02*
G01*
X-23154048Y14341267D01*
X-23000252Y14262904D01*
X-22860607Y14161447D01*
X-22738553Y14039393D01*
X-22637096Y13899748D01*
X-22558733Y13745952D01*
X-22505393Y13581790D01*
X-22478391Y13411305D01*
X-22478391Y13238695D01*
X-22505393Y13068210D01*
X-22558733Y12904048D01*
X-22637096Y12750252D01*
X-22738553Y12610607D01*
X-22860607Y12488553D01*
X-23000252Y12387096D01*
X-23154048Y12308733D01*
X-23318210Y12255393D01*
X-23488695Y12228391D01*
X-23661305Y12228391D01*
X-23831790Y12255393D01*
X-23995952Y12308733D01*
X-24149748Y12387096D01*
X-24289393Y12488553D01*
X-24411447Y12610607D01*
X-24512904Y12750252D01*
X-24591267Y12904048D01*
X-24644607Y13068210D01*
X-24671609Y13238695D01*
X-24671609Y13411305D01*
X-24644607Y13581790D01*
X-24591267Y13745952D01*
X-24512904Y13899748D01*
X-24411447Y14039393D01*
X-24289393Y14161447D01*
X-24149748Y14262904D01*
X-23995952Y14341267D01*
X-23831790Y14394607D01*
X-23661305Y14421609D01*
X-23488695Y14421609D01*
X-23318210Y14394607D01*
G37*
G36*
X-4268210Y14394607D02*
G01*
X-4104048Y14341267D01*
X-3950252Y14262904D01*
X-3810607Y14161447D01*
X-3688553Y14039393D01*
X-3587096Y13899748D01*
X-3508733Y13745952D01*
X-3455393Y13581790D01*
X-3428391Y13411305D01*
X-3428391Y13238695D01*
X-3455393Y13068210D01*
X-3508733Y12904048D01*
X-3587096Y12750252D01*
X-3688553Y12610607D01*
X-3810607Y12488553D01*
X-3950252Y12387096D01*
X-4104048Y12308733D01*
X-4268210Y12255393D01*
X-4438695Y12228391D01*
X-4611305Y12228391D01*
X-4781790Y12255393D01*
X-4945952Y12308733D01*
X-5099748Y12387096D01*
X-5239393Y12488553D01*
X-5361447Y12610607D01*
X-5462904Y12750252D01*
X-5541267Y12904048D01*
X-5594607Y13068210D01*
X-5621609Y13238695D01*
X-5621609Y13411305D01*
X-5594607Y13581790D01*
X-5541267Y13745952D01*
X-5462904Y13899748D01*
X-5361447Y14039393D01*
X-5239393Y14161447D01*
X-5099748Y14262904D01*
X-4945952Y14341267D01*
X-4781790Y14394607D01*
X-4611305Y14421609D01*
X-4438695Y14421609D01*
X-4268210Y14394607D01*
G37*
G36*
X14781790Y14394607D02*
G01*
X14945952Y14341267D01*
X15099748Y14262904D01*
X15239393Y14161447D01*
X15361447Y14039393D01*
X15462904Y13899748D01*
X15541267Y13745952D01*
X15594607Y13581790D01*
X15621609Y13411305D01*
X15621609Y13238695D01*
X15594607Y13068210D01*
X15541267Y12904048D01*
X15462904Y12750252D01*
X15361447Y12610607D01*
X15239393Y12488553D01*
X15099748Y12387096D01*
X14945952Y12308733D01*
X14781790Y12255393D01*
X14611305Y12228391D01*
X14438695Y12228391D01*
X14268210Y12255393D01*
X14104048Y12308733D01*
X13950252Y12387096D01*
X13810607Y12488553D01*
X13688553Y12610607D01*
X13587096Y12750252D01*
X13508733Y12904048D01*
X13455393Y13068210D01*
X13428391Y13238695D01*
X13428391Y13411305D01*
X13455393Y13581790D01*
X13508733Y13745952D01*
X13587096Y13899748D01*
X13688553Y14039393D01*
X13810607Y14161447D01*
X13950252Y14262904D01*
X14104048Y14341267D01*
X14268210Y14394607D01*
X14438695Y14421609D01*
X14611305Y14421609D01*
X14781790Y14394607D01*
G37*
G36*
X33831790Y14394607D02*
G01*
X33995952Y14341267D01*
X34149748Y14262904D01*
X34289393Y14161447D01*
X34411447Y14039393D01*
X34512904Y13899748D01*
X34591267Y13745952D01*
X34644607Y13581790D01*
X34671609Y13411305D01*
X34671609Y13238695D01*
X34644607Y13068210D01*
X34591267Y12904048D01*
X34512904Y12750252D01*
X34411447Y12610607D01*
X34289393Y12488553D01*
X34149748Y12387096D01*
X33995952Y12308733D01*
X33831790Y12255393D01*
X33661305Y12228391D01*
X33488695Y12228391D01*
X33318210Y12255393D01*
X33154048Y12308733D01*
X33000252Y12387096D01*
X32860607Y12488553D01*
X32738553Y12610607D01*
X32637096Y12750252D01*
X32558733Y12904048D01*
X32505393Y13068210D01*
X32478391Y13238695D01*
X32478391Y13411305D01*
X32505393Y13581790D01*
X32558733Y13745952D01*
X32637096Y13899748D01*
X32738553Y14039393D01*
X32860607Y14161447D01*
X33000252Y14262904D01*
X33154048Y14341267D01*
X33318210Y14394607D01*
X33488695Y14421609D01*
X33661305Y14421609D01*
X33831790Y14394607D01*
G37*
G36*
X-28318210Y16494607D02*
G01*
X-28154048Y16441267D01*
X-28000252Y16362904D01*
X-27860607Y16261447D01*
X-27738553Y16139393D01*
X-27637096Y15999748D01*
X-27558733Y15845952D01*
X-27505393Y15681790D01*
X-27478391Y15511305D01*
X-27478391Y15338695D01*
X-27505393Y15168210D01*
X-27558733Y15004048D01*
X-27637096Y14850252D01*
X-27738553Y14710607D01*
X-27860607Y14588553D01*
X-28000252Y14487096D01*
X-28154048Y14408733D01*
X-28318210Y14355393D01*
X-28488695Y14328391D01*
X-28661305Y14328391D01*
X-28831790Y14355393D01*
X-28995952Y14408733D01*
X-29149748Y14487096D01*
X-29289393Y14588553D01*
X-29411447Y14710607D01*
X-29512904Y14850252D01*
X-29591267Y15004048D01*
X-29644607Y15168210D01*
X-29671609Y15338695D01*
X-29671609Y15511305D01*
X-29644607Y15681790D01*
X-29591267Y15845952D01*
X-29512904Y15999748D01*
X-29411447Y16139393D01*
X-29289393Y16261447D01*
X-29149748Y16362904D01*
X-28995952Y16441267D01*
X-28831790Y16494607D01*
X-28661305Y16521609D01*
X-28488695Y16521609D01*
X-28318210Y16494607D01*
G37*
G36*
X-9268210Y16494607D02*
G01*
X-9104048Y16441267D01*
X-8950252Y16362904D01*
X-8810607Y16261447D01*
X-8688553Y16139393D01*
X-8587096Y15999748D01*
X-8508733Y15845952D01*
X-8455393Y15681790D01*
X-8428391Y15511305D01*
X-8428391Y15338695D01*
X-8455393Y15168210D01*
X-8508733Y15004048D01*
X-8587096Y14850252D01*
X-8688553Y14710607D01*
X-8810607Y14588553D01*
X-8950252Y14487096D01*
X-9104048Y14408733D01*
X-9268210Y14355393D01*
X-9438695Y14328391D01*
X-9611305Y14328391D01*
X-9781790Y14355393D01*
X-9945952Y14408733D01*
X-10099748Y14487096D01*
X-10239393Y14588553D01*
X-10361447Y14710607D01*
X-10462904Y14850252D01*
X-10541267Y15004048D01*
X-10594607Y15168210D01*
X-10621609Y15338695D01*
X-10621609Y15511305D01*
X-10594607Y15681790D01*
X-10541267Y15845952D01*
X-10462904Y15999748D01*
X-10361447Y16139393D01*
X-10239393Y16261447D01*
X-10099748Y16362904D01*
X-9945952Y16441267D01*
X-9781790Y16494607D01*
X-9611305Y16521609D01*
X-9438695Y16521609D01*
X-9268210Y16494607D01*
G37*
G36*
X9781790Y16494607D02*
G01*
X9945952Y16441267D01*
X10099748Y16362904D01*
X10239393Y16261447D01*
X10361447Y16139393D01*
X10462904Y15999748D01*
X10541267Y15845952D01*
X10594607Y15681790D01*
X10621609Y15511305D01*
X10621609Y15338695D01*
X10594607Y15168210D01*
X10541267Y15004048D01*
X10462904Y14850252D01*
X10361447Y14710607D01*
X10239393Y14588553D01*
X10099748Y14487096D01*
X9945952Y14408733D01*
X9781790Y14355393D01*
X9611305Y14328391D01*
X9438695Y14328391D01*
X9268210Y14355393D01*
X9104048Y14408733D01*
X8950252Y14487096D01*
X8810607Y14588553D01*
X8688553Y14710607D01*
X8587096Y14850252D01*
X8508733Y15004048D01*
X8455393Y15168210D01*
X8428391Y15338695D01*
X8428391Y15511305D01*
X8455393Y15681790D01*
X8508733Y15845952D01*
X8587096Y15999748D01*
X8688553Y16139393D01*
X8810607Y16261447D01*
X8950252Y16362904D01*
X9104048Y16441267D01*
X9268210Y16494607D01*
X9438695Y16521609D01*
X9611305Y16521609D01*
X9781790Y16494607D01*
G37*
G36*
X28831790Y16494607D02*
G01*
X28995952Y16441267D01*
X29149748Y16362904D01*
X29289393Y16261447D01*
X29411447Y16139393D01*
X29512904Y15999748D01*
X29591267Y15845952D01*
X29644607Y15681790D01*
X29671609Y15511305D01*
X29671609Y15338695D01*
X29644607Y15168210D01*
X29591267Y15004048D01*
X29512904Y14850252D01*
X29411447Y14710607D01*
X29289393Y14588553D01*
X29149748Y14487096D01*
X28995952Y14408733D01*
X28831790Y14355393D01*
X28661305Y14328391D01*
X28488695Y14328391D01*
X28318210Y14355393D01*
X28154048Y14408733D01*
X28000252Y14487096D01*
X27860607Y14588553D01*
X27738553Y14710607D01*
X27637096Y14850252D01*
X27558733Y15004048D01*
X27505393Y15168210D01*
X27478391Y15338695D01*
X27478391Y15511305D01*
X27505393Y15681790D01*
X27558733Y15845952D01*
X27637096Y15999748D01*
X27738553Y16139393D01*
X27860607Y16261447D01*
X28000252Y16362904D01*
X28154048Y16441267D01*
X28318210Y16494607D01*
X28488695Y16521609D01*
X28661305Y16521609D01*
X28831790Y16494607D01*
G37*
G36*
X-3925000Y17725000D02*
G01*
X-3929924Y17725000D01*
X-5120077Y17725000D01*
X-5125000Y17725000D01*
X-5125000Y18625000D01*
X-3925000Y18625000D01*
X-3925000Y17725000D01*
G37*
G36*
X15125000Y17725000D02*
G01*
X15120075Y17725000D01*
X13929922Y17725000D01*
X13925000Y17725000D01*
X13925000Y18625000D01*
X15125000Y18625000D01*
X15125000Y17725000D01*
G37*
G36*
X-3925000Y21025000D02*
G01*
X-3929924Y21025000D01*
X-5120077Y21025000D01*
X-5125000Y21025000D01*
X-5125000Y21925000D01*
X-3925000Y21925000D01*
X-3925000Y21025000D01*
G37*
G36*
X15125000Y21025000D02*
G01*
X15120075Y21025000D01*
X13929922Y21025000D01*
X13925000Y21025000D01*
X13925000Y21925000D01*
X15125000Y21925000D01*
X15125000Y21025000D01*
G37*
G36*
X-27701487Y24530792D02*
G01*
X-27462707Y24453207D01*
X-27239002Y24339224D01*
X-27035883Y24191650D01*
X-26858350Y24014117D01*
X-26710776Y23810998D01*
X-26596793Y23587293D01*
X-26519208Y23348513D01*
X-26479932Y23100535D01*
X-26479932Y22849465D01*
X-26519208Y22601487D01*
X-26596793Y22362707D01*
X-26710776Y22139002D01*
X-26858350Y21935883D01*
X-27035883Y21758350D01*
X-27239002Y21610776D01*
X-27462707Y21496793D01*
X-27701487Y21419208D01*
X-27949465Y21379932D01*
X-28200535Y21379932D01*
X-28448513Y21419208D01*
X-28687293Y21496793D01*
X-28910998Y21610776D01*
X-29114117Y21758350D01*
X-29291650Y21935883D01*
X-29439224Y22139002D01*
X-29553207Y22362707D01*
X-29630792Y22601487D01*
X-29670068Y22849465D01*
X-29670068Y23100535D01*
X-29630792Y23348513D01*
X-29553207Y23587293D01*
X-29439224Y23810998D01*
X-29291650Y24014117D01*
X-29114117Y24191650D01*
X-28910998Y24339224D01*
X-28687293Y24453207D01*
X-28448513Y24530792D01*
X-28200535Y24570068D01*
X-27949465Y24570068D01*
X-27701487Y24530792D01*
G37*
G36*
X27571742Y23388399D02*
G01*
X27725687Y23324633D01*
X27864234Y23232059D01*
X27982059Y23114234D01*
X28074633Y22975687D01*
X28138399Y22821742D01*
X28170907Y22658315D01*
X28170907Y22491685D01*
X28138399Y22328258D01*
X28074633Y22174313D01*
X27982059Y22035766D01*
X27864234Y21917941D01*
X27725687Y21825367D01*
X27571742Y21761601D01*
X27408315Y21729093D01*
X27241685Y21729093D01*
X27078258Y21761601D01*
X26924313Y21825367D01*
X26785766Y21917941D01*
X26667941Y22035766D01*
X26575367Y22174313D01*
X26511601Y22328258D01*
X26479093Y22491685D01*
X26479093Y22658315D01*
X26511601Y22821742D01*
X26575367Y22975687D01*
X26667941Y23114234D01*
X26785766Y23232059D01*
X26924313Y23324633D01*
X27078258Y23388399D01*
X27241685Y23420907D01*
X27408315Y23420907D01*
X27571742Y23388399D01*
G37*
G36*
X30071742Y23388399D02*
G01*
X30225687Y23324633D01*
X30364234Y23232059D01*
X30482059Y23114234D01*
X30574633Y22975687D01*
X30638399Y22821742D01*
X30670907Y22658315D01*
X30670907Y22491685D01*
X30638399Y22328258D01*
X30574633Y22174313D01*
X30482059Y22035766D01*
X30364234Y21917941D01*
X30225687Y21825367D01*
X30071742Y21761601D01*
X29908315Y21729093D01*
X29741685Y21729093D01*
X29578258Y21761601D01*
X29424313Y21825367D01*
X29285766Y21917941D01*
X29167941Y22035766D01*
X29075367Y22174313D01*
X29011601Y22328258D01*
X28979093Y22491685D01*
X28979093Y22658315D01*
X29011601Y22821742D01*
X29075367Y22975687D01*
X29167941Y23114234D01*
X29285766Y23232059D01*
X29424313Y23324633D01*
X29578258Y23388399D01*
X29741685Y23420907D01*
X29908315Y23420907D01*
X30071742Y23388399D01*
G37*
G36*
X-14307286Y24392705D02*
G01*
X-14171452Y24336441D01*
X-14049205Y24254758D01*
X-13945242Y24150795D01*
X-13863559Y24028548D01*
X-13807295Y23892714D01*
X-13778611Y23748513D01*
X-13775000Y23675000D01*
X-13775000Y23175000D01*
X-13778611Y23101487D01*
X-13807295Y22957286D01*
X-13863559Y22821452D01*
X-13945242Y22699205D01*
X-14049205Y22595242D01*
X-14171452Y22513559D01*
X-14307286Y22457295D01*
X-14451487Y22428611D01*
X-14598513Y22428611D01*
X-14742714Y22457295D01*
X-14878548Y22513559D01*
X-15000795Y22595242D01*
X-15104758Y22699205D01*
X-15186441Y22821452D01*
X-15242705Y22957286D01*
X-15271389Y23101487D01*
X-15275000Y23175000D01*
X-15275000Y23675000D01*
X-15271389Y23748513D01*
X-15242705Y23892714D01*
X-15186441Y24028548D01*
X-15104758Y24150795D01*
X-15000795Y24254758D01*
X-14878548Y24336441D01*
X-14742714Y24392705D01*
X-14598513Y24421389D01*
X-14451487Y24421389D01*
X-14307286Y24392705D01*
G37*
G36*
X4742714Y24392705D02*
G01*
X4878548Y24336441D01*
X5000795Y24254758D01*
X5104758Y24150795D01*
X5186441Y24028548D01*
X5242705Y23892714D01*
X5271389Y23748513D01*
X5275000Y23675000D01*
X5275000Y23175000D01*
X5271389Y23101487D01*
X5242705Y22957286D01*
X5186441Y22821452D01*
X5104758Y22699205D01*
X5000795Y22595242D01*
X4878548Y22513559D01*
X4742714Y22457295D01*
X4598513Y22428611D01*
X4451487Y22428611D01*
X4307286Y22457295D01*
X4171452Y22513559D01*
X4049205Y22595242D01*
X3945242Y22699205D01*
X3863559Y22821452D01*
X3807295Y22957286D01*
X3778611Y23101487D01*
X3775000Y23175000D01*
X3775000Y23675000D01*
X3778611Y23748513D01*
X3807295Y23892714D01*
X3863559Y24028548D01*
X3945242Y24150795D01*
X4049205Y24254758D01*
X4171452Y24336441D01*
X4307286Y24392705D01*
X4451487Y24421389D01*
X4598513Y24421389D01*
X4742714Y24392705D01*
G37*
G36*
X-35284715Y27031940D02*
G01*
X-35103603Y26956921D01*
X-34940607Y26848010D01*
X-34801990Y26709393D01*
X-34693079Y26546397D01*
X-34618060Y26365285D01*
X-34579815Y26173017D01*
X-34579815Y25976983D01*
X-34618060Y25784715D01*
X-34693079Y25603603D01*
X-34801990Y25440607D01*
X-34940607Y25301990D01*
X-35103603Y25193079D01*
X-35284715Y25118060D01*
X-35476983Y25079815D01*
X-35673017Y25079815D01*
X-35865285Y25118060D01*
X-36046397Y25193079D01*
X-36209393Y25301990D01*
X-36348010Y25440607D01*
X-36456921Y25603603D01*
X-36531940Y25784715D01*
X-36570185Y25976983D01*
X-36570185Y26173017D01*
X-36531940Y26365285D01*
X-36456921Y26546397D01*
X-36348010Y26709393D01*
X-36209393Y26848010D01*
X-36046397Y26956921D01*
X-35865285Y27031940D01*
X-35673017Y27070185D01*
X-35476983Y27070185D01*
X-35284715Y27031940D01*
G37*
G36*
X-20784715Y27031940D02*
G01*
X-20603603Y26956921D01*
X-20440607Y26848010D01*
X-20301990Y26709393D01*
X-20193079Y26546397D01*
X-20118060Y26365285D01*
X-20079815Y26173017D01*
X-20079815Y25976983D01*
X-20118060Y25784715D01*
X-20193079Y25603603D01*
X-20301990Y25440607D01*
X-20440607Y25301990D01*
X-20603603Y25193079D01*
X-20784715Y25118060D01*
X-20976983Y25079815D01*
X-21173017Y25079815D01*
X-21365285Y25118060D01*
X-21546397Y25193079D01*
X-21709393Y25301990D01*
X-21848010Y25440607D01*
X-21956921Y25603603D01*
X-22031940Y25784715D01*
X-22070185Y25976983D01*
X-22070185Y26173017D01*
X-22031940Y26365285D01*
X-21956921Y26546397D01*
X-21848010Y26709393D01*
X-21709393Y26848010D01*
X-21546397Y26956921D01*
X-21365285Y27031940D01*
X-21173017Y27070185D01*
X-20976983Y27070185D01*
X-20784715Y27031940D01*
G37*
G36*
X32571742Y26888399D02*
G01*
X32725687Y26824633D01*
X32864234Y26732059D01*
X32982059Y26614234D01*
X33074633Y26475687D01*
X33138399Y26321742D01*
X33170907Y26158315D01*
X33170907Y25991685D01*
X33138399Y25828258D01*
X33074633Y25674313D01*
X32982059Y25535766D01*
X32864234Y25417941D01*
X32725687Y25325367D01*
X32571742Y25261601D01*
X32408315Y25229093D01*
X32241685Y25229093D01*
X32078258Y25261601D01*
X31924313Y25325367D01*
X31785766Y25417941D01*
X31667941Y25535766D01*
X31575367Y25674313D01*
X31511601Y25828258D01*
X31479093Y25991685D01*
X31479093Y26158315D01*
X31511601Y26321742D01*
X31575367Y26475687D01*
X31667941Y26614234D01*
X31785766Y26732059D01*
X31924313Y26824633D01*
X32078258Y26888399D01*
X32241685Y26920907D01*
X32408315Y26920907D01*
X32571742Y26888399D01*
G37*
G36*
X-9106234Y31039678D02*
G01*
X-8832911Y30977293D01*
X-8568291Y30884699D01*
X-8315703Y30763059D01*
X-8078322Y30613902D01*
X-7859134Y30439105D01*
X-7660895Y30240866D01*
X-7486098Y30021678D01*
X-7336941Y29784297D01*
X-7215301Y29531709D01*
X-7122707Y29267089D01*
X-7060322Y28993766D01*
X-7028933Y28715176D01*
X-7028933Y28434824D01*
X-7060322Y28156234D01*
X-7122707Y27882911D01*
X-7215301Y27618291D01*
X-7336941Y27365703D01*
X-7486098Y27128322D01*
X-7660895Y26909134D01*
X-7859134Y26710895D01*
X-8078322Y26536098D01*
X-8315703Y26386941D01*
X-8568291Y26265301D01*
X-8832911Y26172707D01*
X-9106234Y26110322D01*
X-9384824Y26078933D01*
X-9665176Y26078933D01*
X-9943766Y26110322D01*
X-10217089Y26172707D01*
X-10481709Y26265301D01*
X-10734297Y26386941D01*
X-10971678Y26536098D01*
X-11190866Y26710895D01*
X-11389105Y26909134D01*
X-11563902Y27128322D01*
X-11713059Y27365703D01*
X-11834699Y27618291D01*
X-11927293Y27882911D01*
X-11989678Y28156234D01*
X-12021067Y28434824D01*
X-12021067Y28715176D01*
X-11989678Y28993766D01*
X-11927293Y29267089D01*
X-11834699Y29531709D01*
X-11713059Y29784297D01*
X-11563902Y30021678D01*
X-11389105Y30240866D01*
X-11190866Y30439105D01*
X-10971678Y30613902D01*
X-10734297Y30763059D01*
X-10481709Y30884699D01*
X-10217089Y30977293D01*
X-9943766Y31039678D01*
X-9665176Y31071067D01*
X-9384824Y31071067D01*
X-9106234Y31039678D01*
G37*
G36*
X9943766Y31039678D02*
G01*
X10217089Y30977293D01*
X10481709Y30884699D01*
X10734297Y30763059D01*
X10971678Y30613902D01*
X11190866Y30439105D01*
X11389105Y30240866D01*
X11563902Y30021678D01*
X11713059Y29784297D01*
X11834699Y29531709D01*
X11927293Y29267089D01*
X11989678Y28993766D01*
X12021067Y28715176D01*
X12021067Y28434824D01*
X11989678Y28156234D01*
X11927293Y27882911D01*
X11834699Y27618291D01*
X11713059Y27365703D01*
X11563902Y27128322D01*
X11389105Y26909134D01*
X11190866Y26710895D01*
X10971678Y26536098D01*
X10734297Y26386941D01*
X10481709Y26265301D01*
X10217089Y26172707D01*
X9943766Y26110322D01*
X9665176Y26078933D01*
X9384824Y26078933D01*
X9106234Y26110322D01*
X8832911Y26172707D01*
X8568291Y26265301D01*
X8315703Y26386941D01*
X8078322Y26536098D01*
X7859134Y26710895D01*
X7660895Y26909134D01*
X7486098Y27128322D01*
X7336941Y27365703D01*
X7215301Y27618291D01*
X7122707Y27882911D01*
X7060322Y28156234D01*
X7028933Y28434824D01*
X7028933Y28715176D01*
X7060322Y28993766D01*
X7122707Y29267089D01*
X7215301Y29531709D01*
X7336941Y29784297D01*
X7486098Y30021678D01*
X7660895Y30240866D01*
X7859134Y30439105D01*
X8078322Y30613902D01*
X8315703Y30763059D01*
X8568291Y30884699D01*
X8832911Y30977293D01*
X9106234Y31039678D01*
X9384824Y31071067D01*
X9665176Y31071067D01*
X9943766Y31039678D01*
G37*
G36*
X-35284715Y29531940D02*
G01*
X-35103603Y29456921D01*
X-34940607Y29348010D01*
X-34801990Y29209393D01*
X-34693079Y29046397D01*
X-34618060Y28865285D01*
X-34579815Y28673017D01*
X-34579815Y28476983D01*
X-34618060Y28284715D01*
X-34693079Y28103603D01*
X-34801990Y27940607D01*
X-34940607Y27801990D01*
X-35103603Y27693079D01*
X-35284715Y27618060D01*
X-35476983Y27579815D01*
X-35673017Y27579815D01*
X-35865285Y27618060D01*
X-36046397Y27693079D01*
X-36209393Y27801990D01*
X-36348010Y27940607D01*
X-36456921Y28103603D01*
X-36531940Y28284715D01*
X-36570185Y28476983D01*
X-36570185Y28673017D01*
X-36531940Y28865285D01*
X-36456921Y29046397D01*
X-36348010Y29209393D01*
X-36209393Y29348010D01*
X-36046397Y29456921D01*
X-35865285Y29531940D01*
X-35673017Y29570185D01*
X-35476983Y29570185D01*
X-35284715Y29531940D01*
G37*
G36*
X25071742Y29388399D02*
G01*
X25225687Y29324633D01*
X25364234Y29232059D01*
X25482059Y29114234D01*
X25574633Y28975687D01*
X25638399Y28821742D01*
X25670907Y28658315D01*
X25670907Y28491685D01*
X25638399Y28328258D01*
X25574633Y28174313D01*
X25482059Y28035766D01*
X25364234Y27917941D01*
X25225687Y27825367D01*
X25071742Y27761601D01*
X24908315Y27729093D01*
X24741685Y27729093D01*
X24578258Y27761601D01*
X24424313Y27825367D01*
X24285766Y27917941D01*
X24167941Y28035766D01*
X24075367Y28174313D01*
X24011601Y28328258D01*
X23979093Y28491685D01*
X23979093Y28658315D01*
X24011601Y28821742D01*
X24075367Y28975687D01*
X24167941Y29114234D01*
X24285766Y29232059D01*
X24424313Y29324633D01*
X24578258Y29388399D01*
X24741685Y29420907D01*
X24908315Y29420907D01*
X25071742Y29388399D01*
G37*
G36*
X27571742Y29388399D02*
G01*
X27725687Y29324633D01*
X27864234Y29232059D01*
X27982059Y29114234D01*
X28074633Y28975687D01*
X28138399Y28821742D01*
X28170907Y28658315D01*
X28170907Y28491685D01*
X28138399Y28328258D01*
X28074633Y28174313D01*
X27982059Y28035766D01*
X27864234Y27917941D01*
X27725687Y27825367D01*
X27571742Y27761601D01*
X27408315Y27729093D01*
X27241685Y27729093D01*
X27078258Y27761601D01*
X26924313Y27825367D01*
X26785766Y27917941D01*
X26667941Y28035766D01*
X26575367Y28174313D01*
X26511601Y28328258D01*
X26479093Y28491685D01*
X26479093Y28658315D01*
X26511601Y28821742D01*
X26575367Y28975687D01*
X26667941Y29114234D01*
X26785766Y29232059D01*
X26924313Y29324633D01*
X27078258Y29388399D01*
X27241685Y29420907D01*
X27408315Y29420907D01*
X27571742Y29388399D01*
G37*
G36*
X30071742Y29388399D02*
G01*
X30225687Y29324633D01*
X30364234Y29232059D01*
X30482059Y29114234D01*
X30574633Y28975687D01*
X30638399Y28821742D01*
X30670907Y28658315D01*
X30670907Y28491685D01*
X30638399Y28328258D01*
X30574633Y28174313D01*
X30482059Y28035766D01*
X30364234Y27917941D01*
X30225687Y27825367D01*
X30071742Y27761601D01*
X29908315Y27729093D01*
X29741685Y27729093D01*
X29578258Y27761601D01*
X29424313Y27825367D01*
X29285766Y27917941D01*
X29167941Y28035766D01*
X29075367Y28174313D01*
X29011601Y28328258D01*
X28979093Y28491685D01*
X28979093Y28658315D01*
X29011601Y28821742D01*
X29075367Y28975687D01*
X29167941Y29114234D01*
X29285766Y29232059D01*
X29424313Y29324633D01*
X29578258Y29388399D01*
X29741685Y29420907D01*
X29908315Y29420907D01*
X30071742Y29388399D01*
G37*
G36*
X32571742Y29388399D02*
G01*
X32725687Y29324633D01*
X32864234Y29232059D01*
X32982059Y29114234D01*
X33074633Y28975687D01*
X33138399Y28821742D01*
X33170907Y28658315D01*
X33170907Y28491685D01*
X33138399Y28328258D01*
X33074633Y28174313D01*
X32982059Y28035766D01*
X32864234Y27917941D01*
X32725687Y27825367D01*
X32571742Y27761601D01*
X32408315Y27729093D01*
X32241685Y27729093D01*
X32078258Y27761601D01*
X31924313Y27825367D01*
X31785766Y27917941D01*
X31667941Y28035766D01*
X31575367Y28174313D01*
X31511601Y28328258D01*
X31479093Y28491685D01*
X31479093Y28658315D01*
X31511601Y28821742D01*
X31575367Y28975687D01*
X31667941Y29114234D01*
X31785766Y29232059D01*
X31924313Y29324633D01*
X32078258Y29388399D01*
X32241685Y29420907D01*
X32408315Y29420907D01*
X32571742Y29388399D01*
G37*
G36*
X-35284715Y32031940D02*
G01*
X-35103603Y31956921D01*
X-34940607Y31848010D01*
X-34801990Y31709393D01*
X-34693079Y31546397D01*
X-34618060Y31365285D01*
X-34579815Y31173017D01*
X-34579815Y30976983D01*
X-34618060Y30784715D01*
X-34693079Y30603603D01*
X-34801990Y30440607D01*
X-34940607Y30301990D01*
X-35103603Y30193079D01*
X-35284715Y30118060D01*
X-35476983Y30079815D01*
X-35673017Y30079815D01*
X-35865285Y30118060D01*
X-36046397Y30193079D01*
X-36209393Y30301990D01*
X-36348010Y30440607D01*
X-36456921Y30603603D01*
X-36531940Y30784715D01*
X-36570185Y30976983D01*
X-36570185Y31173017D01*
X-36531940Y31365285D01*
X-36456921Y31546397D01*
X-36348010Y31709393D01*
X-36209393Y31848010D01*
X-36046397Y31956921D01*
X-35865285Y32031940D01*
X-35673017Y32070185D01*
X-35476983Y32070185D01*
X-35284715Y32031940D01*
G37*
G36*
X-20784715Y32031940D02*
G01*
X-20603603Y31956921D01*
X-20440607Y31848010D01*
X-20301990Y31709393D01*
X-20193079Y31546397D01*
X-20118060Y31365285D01*
X-20079815Y31173017D01*
X-20079815Y30976983D01*
X-20118060Y30784715D01*
X-20193079Y30603603D01*
X-20301990Y30440607D01*
X-20440607Y30301990D01*
X-20603603Y30193079D01*
X-20784715Y30118060D01*
X-20976983Y30079815D01*
X-21173017Y30079815D01*
X-21365285Y30118060D01*
X-21546397Y30193079D01*
X-21709393Y30301990D01*
X-21848010Y30440607D01*
X-21956921Y30603603D01*
X-22031940Y30784715D01*
X-22070185Y30976983D01*
X-22070185Y31173017D01*
X-22031940Y31365285D01*
X-21956921Y31546397D01*
X-21848010Y31709393D01*
X-21709393Y31848010D01*
X-21546397Y31956921D01*
X-21365285Y32031940D01*
X-21173017Y32070185D01*
X-20976983Y32070185D01*
X-20784715Y32031940D01*
G37*
G36*
X32571742Y31888399D02*
G01*
X32725687Y31824633D01*
X32864234Y31732059D01*
X32982059Y31614234D01*
X33074633Y31475687D01*
X33138399Y31321742D01*
X33170907Y31158315D01*
X33170907Y30991685D01*
X33138399Y30828258D01*
X33074633Y30674313D01*
X32982059Y30535766D01*
X32864234Y30417941D01*
X32725687Y30325367D01*
X32571742Y30261601D01*
X32408315Y30229093D01*
X32241685Y30229093D01*
X32078258Y30261601D01*
X31924313Y30325367D01*
X31785766Y30417941D01*
X31667941Y30535766D01*
X31575367Y30674313D01*
X31511601Y30828258D01*
X31479093Y30991685D01*
X31479093Y31158315D01*
X31511601Y31321742D01*
X31575367Y31475687D01*
X31667941Y31614234D01*
X31785766Y31732059D01*
X31924313Y31824633D01*
X32078258Y31888399D01*
X32241685Y31920907D01*
X32408315Y31920907D01*
X32571742Y31888399D01*
G37*
G36*
X-4268210Y33444607D02*
G01*
X-4104048Y33391267D01*
X-3950252Y33312904D01*
X-3810607Y33211447D01*
X-3688553Y33089393D01*
X-3587096Y32949748D01*
X-3508733Y32795952D01*
X-3455393Y32631790D01*
X-3428391Y32461305D01*
X-3428391Y32288695D01*
X-3455393Y32118210D01*
X-3508733Y31954048D01*
X-3587096Y31800252D01*
X-3688553Y31660607D01*
X-3810607Y31538553D01*
X-3950252Y31437096D01*
X-4104048Y31358733D01*
X-4268210Y31305393D01*
X-4438695Y31278391D01*
X-4611305Y31278391D01*
X-4781790Y31305393D01*
X-4945952Y31358733D01*
X-5099748Y31437096D01*
X-5239393Y31538553D01*
X-5361447Y31660607D01*
X-5462904Y31800252D01*
X-5541267Y31954048D01*
X-5594607Y32118210D01*
X-5621609Y32288695D01*
X-5621609Y32461305D01*
X-5594607Y32631790D01*
X-5541267Y32795952D01*
X-5462904Y32949748D01*
X-5361447Y33089393D01*
X-5239393Y33211447D01*
X-5099748Y33312904D01*
X-4945952Y33391267D01*
X-4781790Y33444607D01*
X-4611305Y33471609D01*
X-4438695Y33471609D01*
X-4268210Y33444607D01*
G37*
G36*
X14781790Y33444607D02*
G01*
X14945952Y33391267D01*
X15099748Y33312904D01*
X15239393Y33211447D01*
X15361447Y33089393D01*
X15462904Y32949748D01*
X15541267Y32795952D01*
X15594607Y32631790D01*
X15621609Y32461305D01*
X15621609Y32288695D01*
X15594607Y32118210D01*
X15541267Y31954048D01*
X15462904Y31800252D01*
X15361447Y31660607D01*
X15239393Y31538553D01*
X15099748Y31437096D01*
X14945952Y31358733D01*
X14781790Y31305393D01*
X14611305Y31278391D01*
X14438695Y31278391D01*
X14268210Y31305393D01*
X14104048Y31358733D01*
X13950252Y31437096D01*
X13810607Y31538553D01*
X13688553Y31660607D01*
X13587096Y31800252D01*
X13508733Y31954048D01*
X13455393Y32118210D01*
X13428391Y32288695D01*
X13428391Y32461305D01*
X13455393Y32631790D01*
X13508733Y32795952D01*
X13587096Y32949748D01*
X13688553Y33089393D01*
X13810607Y33211447D01*
X13950252Y33312904D01*
X14104048Y33391267D01*
X14268210Y33444607D01*
X14438695Y33471609D01*
X14611305Y33471609D01*
X14781790Y33444607D01*
G37*
G36*
X-27701487Y35730792D02*
G01*
X-27462707Y35653207D01*
X-27239002Y35539224D01*
X-27035883Y35391650D01*
X-26858350Y35214117D01*
X-26710776Y35010998D01*
X-26596793Y34787293D01*
X-26519208Y34548513D01*
X-26479932Y34300535D01*
X-26479932Y34049465D01*
X-26519208Y33801487D01*
X-26596793Y33562707D01*
X-26710776Y33339002D01*
X-26858350Y33135883D01*
X-27035883Y32958350D01*
X-27239002Y32810776D01*
X-27462707Y32696793D01*
X-27701487Y32619208D01*
X-27949465Y32579932D01*
X-28200535Y32579932D01*
X-28448513Y32619208D01*
X-28687293Y32696793D01*
X-28910998Y32810776D01*
X-29114117Y32958350D01*
X-29291650Y33135883D01*
X-29439224Y33339002D01*
X-29553207Y33562707D01*
X-29630792Y33801487D01*
X-29670068Y34049465D01*
X-29670068Y34300535D01*
X-29630792Y34548513D01*
X-29553207Y34787293D01*
X-29439224Y35010998D01*
X-29291650Y35214117D01*
X-29114117Y35391650D01*
X-28910998Y35539224D01*
X-28687293Y35653207D01*
X-28448513Y35730792D01*
X-28200535Y35770068D01*
X-27949465Y35770068D01*
X-27701487Y35730792D01*
G37*
G36*
X-9268210Y35544607D02*
G01*
X-9104048Y35491267D01*
X-8950252Y35412904D01*
X-8810607Y35311447D01*
X-8688553Y35189393D01*
X-8587096Y35049748D01*
X-8508733Y34895952D01*
X-8455393Y34731790D01*
X-8428391Y34561305D01*
X-8428391Y34388695D01*
X-8455393Y34218210D01*
X-8508733Y34054048D01*
X-8587096Y33900252D01*
X-8688553Y33760607D01*
X-8810607Y33638553D01*
X-8950252Y33537096D01*
X-9104048Y33458733D01*
X-9268210Y33405393D01*
X-9438695Y33378391D01*
X-9611305Y33378391D01*
X-9781790Y33405393D01*
X-9945952Y33458733D01*
X-10099748Y33537096D01*
X-10239393Y33638553D01*
X-10361447Y33760607D01*
X-10462904Y33900252D01*
X-10541267Y34054048D01*
X-10594607Y34218210D01*
X-10621609Y34388695D01*
X-10621609Y34561305D01*
X-10594607Y34731790D01*
X-10541267Y34895952D01*
X-10462904Y35049748D01*
X-10361447Y35189393D01*
X-10239393Y35311447D01*
X-10099748Y35412904D01*
X-9945952Y35491267D01*
X-9781790Y35544607D01*
X-9611305Y35571609D01*
X-9438695Y35571609D01*
X-9268210Y35544607D01*
G37*
G36*
X9781790Y35544607D02*
G01*
X9945952Y35491267D01*
X10099748Y35412904D01*
X10239393Y35311447D01*
X10361447Y35189393D01*
X10462904Y35049748D01*
X10541267Y34895952D01*
X10594607Y34731790D01*
X10621609Y34561305D01*
X10621609Y34388695D01*
X10594607Y34218210D01*
X10541267Y34054048D01*
X10462904Y33900252D01*
X10361447Y33760607D01*
X10239393Y33638553D01*
X10099748Y33537096D01*
X9945952Y33458733D01*
X9781790Y33405393D01*
X9611305Y33378391D01*
X9438695Y33378391D01*
X9268210Y33405393D01*
X9104048Y33458733D01*
X8950252Y33537096D01*
X8810607Y33638553D01*
X8688553Y33760607D01*
X8587096Y33900252D01*
X8508733Y34054048D01*
X8455393Y34218210D01*
X8428391Y34388695D01*
X8428391Y34561305D01*
X8455393Y34731790D01*
X8508733Y34895952D01*
X8587096Y35049748D01*
X8688553Y35189393D01*
X8810607Y35311447D01*
X8950252Y35412904D01*
X9104048Y35491267D01*
X9268210Y35544607D01*
X9438695Y35571609D01*
X9611305Y35571609D01*
X9781790Y35544607D01*
G37*
G36*
X-20600000Y36100000D02*
G01*
X-20604924Y36100000D01*
X-20895077Y36100000D01*
X-20900000Y36100000D01*
X-20900000Y37575000D01*
X-20600000Y37575000D01*
X-20600000Y36100000D01*
G37*
G36*
X-20100000Y36100000D02*
G01*
X-20104924Y36100000D01*
X-20395077Y36100000D01*
X-20400000Y36100000D01*
X-20400000Y37575000D01*
X-20100000Y37575000D01*
X-20100000Y36100000D01*
G37*
G36*
X-19600000Y36100000D02*
G01*
X-19604924Y36100000D01*
X-19895077Y36100000D01*
X-19900000Y36100000D01*
X-19900000Y37575000D01*
X-19600000Y37575000D01*
X-19600000Y36100000D01*
G37*
G36*
X-19100000Y36100000D02*
G01*
X-19104924Y36100000D01*
X-19395077Y36100000D01*
X-19400000Y36100000D01*
X-19400000Y37575000D01*
X-19100000Y37575000D01*
X-19100000Y36100000D01*
G37*
G36*
X-18600000Y36100000D02*
G01*
X-18604924Y36100000D01*
X-18895077Y36100000D01*
X-18900000Y36100000D01*
X-18900000Y37575000D01*
X-18600000Y37575000D01*
X-18600000Y36100000D01*
G37*
G36*
X-18100000Y36100000D02*
G01*
X-18104924Y36100000D01*
X-18395077Y36100000D01*
X-18400000Y36100000D01*
X-18400000Y37575000D01*
X-18100000Y37575000D01*
X-18100000Y36100000D01*
G37*
G36*
X-17600000Y36100000D02*
G01*
X-17604924Y36100000D01*
X-17895077Y36100000D01*
X-17900000Y36100000D01*
X-17900000Y37575000D01*
X-17600000Y37575000D01*
X-17600000Y36100000D01*
G37*
G36*
X-17100000Y36100000D02*
G01*
X-17104924Y36100000D01*
X-17395077Y36100000D01*
X-17400000Y36100000D01*
X-17400000Y37575000D01*
X-17100000Y37575000D01*
X-17100000Y36100000D01*
G37*
G36*
X-16600000Y36100000D02*
G01*
X-16604924Y36100000D01*
X-16895077Y36100000D01*
X-16900000Y36100000D01*
X-16900000Y37575000D01*
X-16600000Y37575000D01*
X-16600000Y36100000D01*
G37*
G36*
X-16100000Y36100000D02*
G01*
X-16104924Y36100000D01*
X-16395077Y36100000D01*
X-16400000Y36100000D01*
X-16400000Y37575000D01*
X-16100000Y37575000D01*
X-16100000Y36100000D01*
G37*
G36*
X-15600000Y36100000D02*
G01*
X-15604924Y36100000D01*
X-15895077Y36100000D01*
X-15900000Y36100000D01*
X-15900000Y37575000D01*
X-15600000Y37575000D01*
X-15600000Y36100000D01*
G37*
G36*
X-15100000Y36100000D02*
G01*
X-15104924Y36100000D01*
X-15395077Y36100000D01*
X-15400000Y36100000D01*
X-15400000Y37575000D01*
X-15100000Y37575000D01*
X-15100000Y36100000D01*
G37*
G36*
X-21425000Y38100000D02*
G01*
X-21429924Y38100000D01*
X-22895077Y38100000D01*
X-22900000Y38100000D01*
X-22900000Y38400000D01*
X-21425000Y38400000D01*
X-21425000Y38100000D01*
G37*
G36*
X-13100000Y38100000D02*
G01*
X-13104924Y38100000D01*
X-14570077Y38100000D01*
X-14575000Y38100000D01*
X-14575000Y38400000D01*
X-13100000Y38400000D01*
X-13100000Y38100000D01*
G37*
G36*
X-21425000Y38600000D02*
G01*
X-21429924Y38600000D01*
X-22895077Y38600000D01*
X-22900000Y38600000D01*
X-22900000Y38900000D01*
X-21425000Y38900000D01*
X-21425000Y38600000D01*
G37*
G36*
X-13100000Y38600000D02*
G01*
X-13104924Y38600000D01*
X-14570077Y38600000D01*
X-14575000Y38600000D01*
X-14575000Y38900000D01*
X-13100000Y38900000D01*
X-13100000Y38600000D01*
G37*
G36*
X-21425000Y39100000D02*
G01*
X-21429924Y39100000D01*
X-22895077Y39100000D01*
X-22900000Y39100000D01*
X-22900000Y39400000D01*
X-21425000Y39400000D01*
X-21425000Y39100000D01*
G37*
G36*
X-13100000Y39100000D02*
G01*
X-13104924Y39100000D01*
X-14570077Y39100000D01*
X-14575000Y39100000D01*
X-14575000Y39400000D01*
X-13100000Y39400000D01*
X-13100000Y39100000D01*
G37*
G36*
X-21425000Y39600000D02*
G01*
X-21429924Y39600000D01*
X-22895077Y39600000D01*
X-22900000Y39600000D01*
X-22900000Y39900000D01*
X-21425000Y39900000D01*
X-21425000Y39600000D01*
G37*
G36*
X-13100000Y39600000D02*
G01*
X-13104924Y39600000D01*
X-14570077Y39600000D01*
X-14575000Y39600000D01*
X-14575000Y39900000D01*
X-13100000Y39900000D01*
X-13100000Y39600000D01*
G37*
G36*
X-21425000Y40100000D02*
G01*
X-21429924Y40100000D01*
X-22895077Y40100000D01*
X-22900000Y40100000D01*
X-22900000Y40400000D01*
X-21425000Y40400000D01*
X-21425000Y40100000D01*
G37*
G36*
X-13100000Y40100000D02*
G01*
X-13104924Y40100000D01*
X-14570077Y40100000D01*
X-14575000Y40100000D01*
X-14575000Y40400000D01*
X-13100000Y40400000D01*
X-13100000Y40100000D01*
G37*
G36*
X-42109819Y44461571D02*
G01*
X-41857121Y44393860D01*
X-41615423Y44293745D01*
X-41388860Y44162939D01*
X-41181308Y44003680D01*
X-40996320Y43818692D01*
X-40837061Y43611140D01*
X-40706255Y43384577D01*
X-40606140Y43142879D01*
X-40538429Y42890181D01*
X-40504282Y42630806D01*
X-40504282Y42369194D01*
X-40538429Y42109819D01*
X-40606140Y41857121D01*
X-40706255Y41615423D01*
X-40837061Y41388860D01*
X-40996320Y41181308D01*
X-41181308Y40996320D01*
X-41388860Y40837061D01*
X-41615423Y40706255D01*
X-41857121Y40606140D01*
X-42109819Y40538429D01*
X-42369194Y40504282D01*
X-42630806Y40504282D01*
X-42890181Y40538429D01*
X-43142879Y40606140D01*
X-43384577Y40706255D01*
X-43611140Y40837061D01*
X-43818692Y40996320D01*
X-44003680Y41181308D01*
X-44162939Y41388860D01*
X-44293745Y41615423D01*
X-44393860Y41857121D01*
X-44461571Y42109819D01*
X-44495718Y42369194D01*
X-44495718Y42630806D01*
X-44461571Y42890181D01*
X-44393860Y43142879D01*
X-44293745Y43384577D01*
X-44162939Y43611140D01*
X-44003680Y43818692D01*
X-43818692Y44003680D01*
X-43611140Y44162939D01*
X-43384577Y44293745D01*
X-43142879Y44393860D01*
X-42890181Y44461571D01*
X-42630806Y44495718D01*
X-42369194Y44495718D01*
X-42109819Y44461571D01*
G37*
G36*
X42890181Y44461571D02*
G01*
X43142879Y44393860D01*
X43384577Y44293745D01*
X43611140Y44162939D01*
X43818692Y44003680D01*
X44003680Y43818692D01*
X44162939Y43611140D01*
X44293745Y43384577D01*
X44393860Y43142879D01*
X44461571Y42890181D01*
X44495718Y42630806D01*
X44495718Y42369194D01*
X44461571Y42109819D01*
X44393860Y41857121D01*
X44293745Y41615423D01*
X44162939Y41388860D01*
X44003680Y41181308D01*
X43818692Y40996320D01*
X43611140Y40837061D01*
X43384577Y40706255D01*
X43142879Y40606140D01*
X42890181Y40538429D01*
X42630806Y40504282D01*
X42369194Y40504282D01*
X42109819Y40538429D01*
X41857121Y40606140D01*
X41615423Y40706255D01*
X41388860Y40837061D01*
X41181308Y40996320D01*
X40996320Y41181308D01*
X40837061Y41388860D01*
X40706255Y41615423D01*
X40606140Y41857121D01*
X40538429Y42109819D01*
X40504282Y42369194D01*
X40504282Y42630806D01*
X40538429Y42890181D01*
X40606140Y43142879D01*
X40706255Y43384577D01*
X40837061Y43611140D01*
X40996320Y43818692D01*
X41181308Y44003680D01*
X41388860Y44162939D01*
X41615423Y44293745D01*
X41857121Y44393860D01*
X42109819Y44461571D01*
X42369194Y44495718D01*
X42630806Y44495718D01*
X42890181Y44461571D01*
G37*
G36*
X-21425000Y40600000D02*
G01*
X-21429924Y40600000D01*
X-22895077Y40600000D01*
X-22900000Y40600000D01*
X-22900000Y40900000D01*
X-21425000Y40900000D01*
X-21425000Y40600000D01*
G37*
G36*
X-13100000Y40600000D02*
G01*
X-13104924Y40600000D01*
X-14570077Y40600000D01*
X-14575000Y40600000D01*
X-14575000Y40900000D01*
X-13100000Y40900000D01*
X-13100000Y40600000D01*
G37*
G36*
X-21425000Y41100000D02*
G01*
X-21429924Y41100000D01*
X-22895077Y41100000D01*
X-22900000Y41100000D01*
X-22900000Y41400000D01*
X-21425000Y41400000D01*
X-21425000Y41100000D01*
G37*
G36*
X-13100000Y41100000D02*
G01*
X-13104924Y41100000D01*
X-14570077Y41100000D01*
X-14575000Y41100000D01*
X-14575000Y41400000D01*
X-13100000Y41400000D01*
X-13100000Y41100000D01*
G37*
G36*
X-4128658Y43521940D02*
G01*
X-4015619Y43456677D01*
X-3923323Y43364381D01*
X-3858060Y43251342D01*
X-3824278Y43125263D01*
X-3820000Y43060000D01*
X-3820000Y41960000D01*
X-3824278Y41894737D01*
X-3858060Y41768658D01*
X-3923323Y41655619D01*
X-4015619Y41563323D01*
X-4128658Y41498060D01*
X-4254737Y41464278D01*
X-4385263Y41464278D01*
X-4511342Y41498060D01*
X-4624381Y41563323D01*
X-4716677Y41655619D01*
X-4781940Y41768658D01*
X-4815722Y41894737D01*
X-4820000Y41960000D01*
X-4820000Y43060000D01*
X-4815722Y43125263D01*
X-4781940Y43251342D01*
X-4716677Y43364381D01*
X-4624381Y43456677D01*
X-4511342Y43521940D01*
X-4385263Y43555722D01*
X-4254737Y43555722D01*
X-4128658Y43521940D01*
G37*
G36*
X4511342Y43521940D02*
G01*
X4624381Y43456677D01*
X4716677Y43364381D01*
X4781940Y43251342D01*
X4815722Y43125263D01*
X4820000Y43060000D01*
X4820000Y41960000D01*
X4815722Y41894737D01*
X4781940Y41768658D01*
X4716677Y41655619D01*
X4624381Y41563323D01*
X4511342Y41498060D01*
X4385263Y41464278D01*
X4254737Y41464278D01*
X4128658Y41498060D01*
X4015619Y41563323D01*
X3923323Y41655619D01*
X3858060Y41768658D01*
X3824278Y41894737D01*
X3820000Y41960000D01*
X3820000Y43060000D01*
X3824278Y43125263D01*
X3858060Y43251342D01*
X3923323Y43364381D01*
X4015619Y43456677D01*
X4128658Y43521940D01*
X4254737Y43555722D01*
X4385263Y43555722D01*
X4511342Y43521940D01*
G37*
G36*
X-21425000Y41600000D02*
G01*
X-21429924Y41600000D01*
X-22895077Y41600000D01*
X-22900000Y41600000D01*
X-22900000Y41900000D01*
X-21425000Y41900000D01*
X-21425000Y41600000D01*
G37*
G36*
X-13100000Y41600000D02*
G01*
X-13104924Y41600000D01*
X-14570077Y41600000D01*
X-14575000Y41600000D01*
X-14575000Y41900000D01*
X-13100000Y41900000D01*
X-13100000Y41600000D01*
G37*
G36*
X-21425000Y42100000D02*
G01*
X-21429924Y42100000D01*
X-22895077Y42100000D01*
X-22900000Y42100000D01*
X-22900000Y42400000D01*
X-21425000Y42400000D01*
X-21425000Y42100000D01*
G37*
G36*
X-13100000Y42100000D02*
G01*
X-13104924Y42100000D01*
X-14570077Y42100000D01*
X-14575000Y42100000D01*
X-14575000Y42400000D01*
X-13100000Y42400000D01*
X-13100000Y42100000D01*
G37*
G36*
X-21425000Y42600000D02*
G01*
X-21429924Y42600000D01*
X-22895077Y42600000D01*
X-22900000Y42600000D01*
X-22900000Y42900000D01*
X-21425000Y42900000D01*
X-21425000Y42600000D01*
G37*
G36*
X-13100000Y42600000D02*
G01*
X-13104924Y42600000D01*
X-14570077Y42600000D01*
X-14575000Y42600000D01*
X-14575000Y42900000D01*
X-13100000Y42900000D01*
X-13100000Y42600000D01*
G37*
G36*
X-21425000Y43100000D02*
G01*
X-21429924Y43100000D01*
X-22895077Y43100000D01*
X-22900000Y43100000D01*
X-22900000Y43400000D01*
X-21425000Y43400000D01*
X-21425000Y43100000D01*
G37*
G36*
X-13100000Y43100000D02*
G01*
X-13104924Y43100000D01*
X-14570077Y43100000D01*
X-14575000Y43100000D01*
X-14575000Y43400000D01*
X-13100000Y43400000D01*
X-13100000Y43100000D01*
G37*
G36*
X-21425000Y43600000D02*
G01*
X-21429924Y43600000D01*
X-22895077Y43600000D01*
X-22900000Y43600000D01*
X-22900000Y43900000D01*
X-21425000Y43900000D01*
X-21425000Y43600000D01*
G37*
G36*
X-13100000Y43600000D02*
G01*
X-13104924Y43600000D01*
X-14570077Y43600000D01*
X-14575000Y43600000D01*
X-14575000Y43900000D01*
X-13100000Y43900000D01*
X-13100000Y43600000D01*
G37*
G36*
X-33969652Y46043122D02*
G01*
X-33815707Y45979356D01*
X-33677160Y45886782D01*
X-33559335Y45768957D01*
X-33466761Y45630410D01*
X-33402995Y45476465D01*
X-33370487Y45313038D01*
X-33370487Y45146408D01*
X-33402995Y44982981D01*
X-33466761Y44829036D01*
X-33559335Y44690489D01*
X-33677160Y44572664D01*
X-33815707Y44480090D01*
X-33969652Y44416324D01*
X-34133079Y44383816D01*
X-34299709Y44383816D01*
X-34463136Y44416324D01*
X-34617081Y44480090D01*
X-34755628Y44572664D01*
X-34873453Y44690489D01*
X-34966027Y44829036D01*
X-35029793Y44982981D01*
X-35062301Y45146408D01*
X-35062301Y45313038D01*
X-35029793Y45476465D01*
X-34966027Y45630410D01*
X-34873453Y45768957D01*
X-34755628Y45886782D01*
X-34617081Y45979356D01*
X-34463136Y46043122D01*
X-34299709Y46075630D01*
X-34133079Y46075630D01*
X-33969652Y46043122D01*
G37*
G36*
X-31429652Y46043122D02*
G01*
X-31275707Y45979356D01*
X-31137160Y45886782D01*
X-31019335Y45768957D01*
X-30926761Y45630410D01*
X-30862995Y45476465D01*
X-30830487Y45313038D01*
X-30830487Y45146408D01*
X-30862995Y44982981D01*
X-30926761Y44829036D01*
X-31019335Y44690489D01*
X-31137160Y44572664D01*
X-31275707Y44480090D01*
X-31429652Y44416324D01*
X-31593079Y44383816D01*
X-31759709Y44383816D01*
X-31923136Y44416324D01*
X-32077081Y44480090D01*
X-32215628Y44572664D01*
X-32333453Y44690489D01*
X-32426027Y44829036D01*
X-32489793Y44982981D01*
X-32522301Y45146408D01*
X-32522301Y45313038D01*
X-32489793Y45476465D01*
X-32426027Y45630410D01*
X-32333453Y45768957D01*
X-32215628Y45886782D01*
X-32077081Y45979356D01*
X-31923136Y46043122D01*
X-31759709Y46075630D01*
X-31593079Y46075630D01*
X-31429652Y46043122D01*
G37*
G36*
X-28889652Y46043122D02*
G01*
X-28735707Y45979356D01*
X-28597160Y45886782D01*
X-28479335Y45768957D01*
X-28386761Y45630410D01*
X-28322995Y45476465D01*
X-28290487Y45313038D01*
X-28290487Y45146408D01*
X-28322995Y44982981D01*
X-28386761Y44829036D01*
X-28479335Y44690489D01*
X-28597160Y44572664D01*
X-28735707Y44480090D01*
X-28889652Y44416324D01*
X-29053079Y44383816D01*
X-29219709Y44383816D01*
X-29383136Y44416324D01*
X-29537081Y44480090D01*
X-29675628Y44572664D01*
X-29793453Y44690489D01*
X-29886027Y44829036D01*
X-29949793Y44982981D01*
X-29982301Y45146408D01*
X-29982301Y45313038D01*
X-29949793Y45476465D01*
X-29886027Y45630410D01*
X-29793453Y45768957D01*
X-29675628Y45886782D01*
X-29537081Y45979356D01*
X-29383136Y46043122D01*
X-29219709Y46075630D01*
X-29053079Y46075630D01*
X-28889652Y46043122D01*
G37*
G36*
X-26349652Y46043122D02*
G01*
X-26195707Y45979356D01*
X-26057160Y45886782D01*
X-25939335Y45768957D01*
X-25846761Y45630410D01*
X-25782995Y45476465D01*
X-25750487Y45313038D01*
X-25750487Y45146408D01*
X-25782995Y44982981D01*
X-25846761Y44829036D01*
X-25939335Y44690489D01*
X-26057160Y44572664D01*
X-26195707Y44480090D01*
X-26349652Y44416324D01*
X-26513079Y44383816D01*
X-26679709Y44383816D01*
X-26843136Y44416324D01*
X-26997081Y44480090D01*
X-27135628Y44572664D01*
X-27253453Y44690489D01*
X-27346027Y44829036D01*
X-27409793Y44982981D01*
X-27442301Y45146408D01*
X-27442301Y45313038D01*
X-27409793Y45476465D01*
X-27346027Y45630410D01*
X-27253453Y45768957D01*
X-27135628Y45886782D01*
X-26997081Y45979356D01*
X-26843136Y46043122D01*
X-26679709Y46075630D01*
X-26513079Y46075630D01*
X-26349652Y46043122D01*
G37*
G36*
X-20600000Y44425000D02*
G01*
X-20604924Y44425000D01*
X-20895077Y44425000D01*
X-20900000Y44425000D01*
X-20900000Y45900000D01*
X-20600000Y45900000D01*
X-20600000Y44425000D01*
G37*
G36*
X-20100000Y44425000D02*
G01*
X-20104924Y44425000D01*
X-20395077Y44425000D01*
X-20400000Y44425000D01*
X-20400000Y45900000D01*
X-20100000Y45900000D01*
X-20100000Y44425000D01*
G37*
G36*
X-19600000Y44425000D02*
G01*
X-19604924Y44425000D01*
X-19895077Y44425000D01*
X-19900000Y44425000D01*
X-19900000Y45900000D01*
X-19600000Y45900000D01*
X-19600000Y44425000D01*
G37*
G36*
X-19100000Y44425000D02*
G01*
X-19104924Y44425000D01*
X-19395077Y44425000D01*
X-19400000Y44425000D01*
X-19400000Y45900000D01*
X-19100000Y45900000D01*
X-19100000Y44425000D01*
G37*
G36*
X-18600000Y44425000D02*
G01*
X-18604924Y44425000D01*
X-18895077Y44425000D01*
X-18900000Y44425000D01*
X-18900000Y45900000D01*
X-18600000Y45900000D01*
X-18600000Y44425000D01*
G37*
G36*
X-18100000Y44425000D02*
G01*
X-18104924Y44425000D01*
X-18395077Y44425000D01*
X-18400000Y44425000D01*
X-18400000Y45900000D01*
X-18100000Y45900000D01*
X-18100000Y44425000D01*
G37*
G36*
X-17600000Y44425000D02*
G01*
X-17604924Y44425000D01*
X-17895077Y44425000D01*
X-17900000Y44425000D01*
X-17900000Y45900000D01*
X-17600000Y45900000D01*
X-17600000Y44425000D01*
G37*
G36*
X-17100000Y44425000D02*
G01*
X-17104924Y44425000D01*
X-17395077Y44425000D01*
X-17400000Y44425000D01*
X-17400000Y45900000D01*
X-17100000Y45900000D01*
X-17100000Y44425000D01*
G37*
G36*
X-16600000Y44425000D02*
G01*
X-16604924Y44425000D01*
X-16895077Y44425000D01*
X-16900000Y44425000D01*
X-16900000Y45900000D01*
X-16600000Y45900000D01*
X-16600000Y44425000D01*
G37*
G36*
X-16100000Y44425000D02*
G01*
X-16104924Y44425000D01*
X-16395077Y44425000D01*
X-16400000Y44425000D01*
X-16400000Y45900000D01*
X-16100000Y45900000D01*
X-16100000Y44425000D01*
G37*
G36*
X-15600000Y44425000D02*
G01*
X-15604924Y44425000D01*
X-15895077Y44425000D01*
X-15900000Y44425000D01*
X-15900000Y45900000D01*
X-15600000Y45900000D01*
X-15600000Y44425000D01*
G37*
G36*
X-15100000Y44425000D02*
G01*
X-15104924Y44425000D01*
X-15395077Y44425000D01*
X-15400000Y44425000D01*
X-15400000Y45900000D01*
X-15100000Y45900000D01*
X-15100000Y44425000D01*
G37*
G36*
X-4128658Y47451940D02*
G01*
X-4015619Y47386677D01*
X-3923323Y47294381D01*
X-3858060Y47181342D01*
X-3824278Y47055263D01*
X-3820000Y46990000D01*
X-3820000Y46390000D01*
X-3824278Y46324737D01*
X-3858060Y46198658D01*
X-3923323Y46085619D01*
X-4015619Y45993323D01*
X-4128658Y45928060D01*
X-4254737Y45894278D01*
X-4385263Y45894278D01*
X-4511342Y45928060D01*
X-4624381Y45993323D01*
X-4716677Y46085619D01*
X-4781940Y46198658D01*
X-4815722Y46324737D01*
X-4820000Y46390000D01*
X-4820000Y46990000D01*
X-4815722Y47055263D01*
X-4781940Y47181342D01*
X-4716677Y47294381D01*
X-4624381Y47386677D01*
X-4511342Y47451940D01*
X-4385263Y47485722D01*
X-4254737Y47485722D01*
X-4128658Y47451940D01*
G37*
G36*
X4511342Y47451940D02*
G01*
X4624381Y47386677D01*
X4716677Y47294381D01*
X4781940Y47181342D01*
X4815722Y47055263D01*
X4820000Y46990000D01*
X4820000Y46390000D01*
X4815722Y46324737D01*
X4781940Y46198658D01*
X4716677Y46085619D01*
X4624381Y45993323D01*
X4511342Y45928060D01*
X4385263Y45894278D01*
X4254737Y45894278D01*
X4128658Y45928060D01*
X4015619Y45993323D01*
X3923323Y46085619D01*
X3858060Y46198658D01*
X3824278Y46324737D01*
X3820000Y46390000D01*
X3820000Y46990000D01*
X3824278Y47055263D01*
X3858060Y47181342D01*
X3923323Y47294381D01*
X4015619Y47386677D01*
X4128658Y47451940D01*
X4254737Y47485722D01*
X4385263Y47485722D01*
X4511342Y47451940D01*
G37*
M02*
