%TF.GenerationSoftware,KiCad,Pcbnew,10.0.4*%
%TF.CreationDate,2026-07-21T11:09:54+08:00*%
%TF.ProjectId,openmicro,6f70656e-6d69-4637-926f-2e6b69636164,rev?*%
%TF.SameCoordinates,Original*%
%TF.FileFunction,Copper,L1,Top*%
%TF.FilePolarity,Positive*%
%FSLAX46Y46*%
G04 Gerber Fmt 4.6, Leading zero omitted, Abs format (unit mm)*
G04 Created by KiCad (PCBNEW 10.0.4) date 2026-07-21 11:09:54*
%MOMM*%
%LPD*%
G01*
G04 APERTURE LIST*
%TA.AperFunction,SMDPad,CuDef*%
%ADD10R,1.350000X0.820000*%
%TD*%
%TA.AperFunction,SMDPad,CuDef*%
%ADD11R,0.820000X1.350000*%
%TD*%
%TA.AperFunction,SMDPad,CuDef*%
%ADD12R,0.640000X0.540000*%
%TD*%
%TA.AperFunction,SMDPad,CuDef*%
%ADD13R,1.200000X1.400000*%
%TD*%
%TA.AperFunction,SMDPad,CuDef*%
%ADD14R,1.050000X1.400000*%
%TD*%
%TA.AperFunction,ComponentPad*%
%ADD15C,4.000000*%
%TD*%
%TA.AperFunction,ComponentPad*%
%ADD16C,2.200000*%
%TD*%
%TA.AperFunction,SMDPad,CuDef*%
%ADD17R,1.325000X0.600000*%
%TD*%
%TA.AperFunction,SMDPad,CuDef*%
%ADD18R,0.540000X0.640000*%
%TD*%
%TA.AperFunction,SMDPad,CuDef*%
%ADD19C,9.000000*%
%TD*%
%TA.AperFunction,ComponentPad*%
%ADD20C,2.000000*%
%TD*%
%TA.AperFunction,ComponentPad*%
%ADD21C,3.200000*%
%TD*%
%TA.AperFunction,SMDPad,CuDef*%
%ADD22R,0.600000X1.450000*%
%TD*%
%TA.AperFunction,SMDPad,CuDef*%
%ADD23R,0.300000X1.450000*%
%TD*%
%TA.AperFunction,ComponentPad*%
%ADD24O,1.000000X2.100000*%
%TD*%
%TA.AperFunction,ComponentPad*%
%ADD25O,1.000000X1.600000*%
%TD*%
%TA.AperFunction,ComponentPad*%
%ADD26C,1.700000*%
%TD*%
%TA.AperFunction,SMDPad,CuDef*%
%ADD27R,0.950000X0.900000*%
%TD*%
%TA.AperFunction,ViaPad*%
%ADD28C,0.500500*%
%TD*%
%TA.AperFunction,Conductor*%
%ADD29C,0.150150*%
%TD*%
%TA.AperFunction,Conductor*%
%ADD30C,0.206119*%
%TD*%
G04 APERTURE END LIST*
D10*
%TO.P,LED29,1*%
%TO.N,VBUS*%
X25845000Y-15210000D03*
%TO.P,LED29,2*%
%TO.N,LED_D10*%
X25845000Y-13710000D03*
%TO.P,LED29,3*%
%TO.N,GND*%
X31295000Y-13710000D03*
%TO.P,LED29,4*%
%TO.N,LED_D9*%
X31295000Y-15210000D03*
%TD*%
D11*
%TO.P,LED12,1*%
%TO.N,VBUS*%
X42750000Y8275000D03*
%TO.P,LED12,2*%
%TO.N,UG_D6*%
X41250000Y8275000D03*
%TO.P,LED12,3*%
%TO.N,GND*%
X41250000Y13725000D03*
%TO.P,LED12,4*%
%TO.N,UG_D5*%
X42750000Y13725000D03*
%TD*%
D10*
%TO.P,LED15,1*%
%TO.N,VBUS*%
X30275000Y-42750000D03*
%TO.P,LED15,2*%
%TO.N,UG_D9*%
X30275000Y-41250000D03*
%TO.P,LED15,3*%
%TO.N,GND*%
X35725000Y-41250000D03*
%TO.P,LED15,4*%
%TO.N,UG_D8*%
X35725000Y-42750000D03*
%TD*%
D12*
%TO.P,C12,1*%
%TO.N,V3V3*%
X-18216081Y44078626D03*
%TO.P,C12,2*%
%TO.N,GND*%
X-18216081Y45098626D03*
%TD*%
D13*
%TO.P,Y1,1*%
%TO.N,HSE_IN*%
X-21260300Y39548656D03*
%TO.P,Y1,2*%
%TO.N,GND*%
X-21260300Y41748656D03*
%TO.P,Y1,3*%
%TO.N,HSE_OUT*%
X-22860300Y41748656D03*
%TO.P,Y1,4*%
%TO.N,GND*%
X-22860300Y39548656D03*
%TD*%
D14*
%TO.P,SW2,1*%
%TO.N,NRST*%
X-16758269Y42171063D03*
%TO.P,SW2,2*%
X-16758269Y38571063D03*
%TO.P,SW2,3*%
%TO.N,GND*%
X-18198269Y42171063D03*
%TO.P,SW2,4*%
X-18198269Y38571063D03*
%TD*%
D12*
%TO.P,C6,1*%
%TO.N,VBUS*%
X-12278581Y-37656152D03*
%TO.P,C6,2*%
%TO.N,GND*%
X-12278581Y-38676152D03*
%TD*%
D10*
%TO.P,LED27,1*%
%TO.N,VBUS*%
X-12255000Y-15210000D03*
%TO.P,LED27,2*%
%TO.N,LED_D8*%
X-12255000Y-13710000D03*
%TO.P,LED27,3*%
%TO.N,GND*%
X-6805000Y-13710000D03*
%TO.P,LED27,4*%
%TO.N,LED_D7*%
X-6805000Y-15210000D03*
%TD*%
D11*
%TO.P,LED11,1*%
%TO.N,VBUS*%
X42750000Y30275000D03*
%TO.P,LED11,2*%
%TO.N,UG_D5*%
X41250000Y30275000D03*
%TO.P,LED11,3*%
%TO.N,GND*%
X41250000Y35725000D03*
%TO.P,LED11,4*%
%TO.N,UG_D4*%
X42750000Y35725000D03*
%TD*%
D10*
%TO.P,LED23,1*%
%TO.N,VBUS*%
X-12255000Y3850000D03*
%TO.P,LED23,2*%
%TO.N,LED_D4*%
X-12255000Y5350000D03*
%TO.P,LED23,3*%
%TO.N,GND*%
X-6805000Y5350000D03*
%TO.P,LED23,4*%
%TO.N,LED_D3*%
X-6805000Y3850000D03*
%TD*%
%TO.P,LED2,1*%
%TO.N,VBUS*%
X-13725000Y41250000D03*
%TO.P,LED2,2*%
%TO.N,UG_D2*%
X-13725000Y42750000D03*
%TO.P,LED2,3*%
%TO.N,GND*%
X-8275000Y42750000D03*
%TO.P,LED2,4*%
%TO.N,UG_D1*%
X-8275000Y41250000D03*
%TD*%
D12*
%TO.P,C24,1*%
%TO.N,VBUS*%
X7018294Y566907D03*
%TO.P,C24,2*%
%TO.N,GND*%
X7018294Y-453093D03*
%TD*%
D15*
%TO.P,H2,1*%
%TO.N,GND*%
X42500000Y42500000D03*
%TD*%
D16*
%TO.P,SW11,1*%
%TO.N,ROW1*%
X28575000Y15425000D03*
%TO.P,SW11,2*%
%TO.N,KEY6*%
X33575000Y13325000D03*
%TD*%
D17*
%TO.P,U2,1*%
%TO.N,VBUS*%
X44380808Y740200D03*
%TO.P,U2,2*%
%TO.N,GND*%
X44380808Y1690200D03*
%TO.P,U2,3*%
%TO.N,VBUS*%
X44380808Y2640200D03*
%TO.P,U2,4*%
%TO.N,N/C*%
X42105808Y2640200D03*
%TO.P,U2,5*%
%TO.N,V3V3*%
X42105808Y740200D03*
%TD*%
D10*
%TO.P,LED26,1*%
%TO.N,VBUS*%
X-31295000Y-15210000D03*
%TO.P,LED26,2*%
%TO.N,LED_D7*%
X-31295000Y-13710000D03*
%TO.P,LED26,3*%
%TO.N,GND*%
X-25845000Y-13710000D03*
%TO.P,LED26,4*%
%TO.N,LED_D6*%
X-25845000Y-15210000D03*
%TD*%
D18*
%TO.P,C13,1*%
%TO.N,VBUS*%
X44077669Y-13762609D03*
%TO.P,C13,2*%
%TO.N,GND*%
X45097669Y-13762609D03*
%TD*%
D10*
%TO.P,LED16,1*%
%TO.N,VBUS*%
X8275000Y-42750000D03*
%TO.P,LED16,2*%
%TO.N,UG_D10*%
X8275000Y-41250000D03*
%TO.P,LED16,3*%
%TO.N,GND*%
X13725000Y-41250000D03*
%TO.P,LED16,4*%
%TO.N,UG_D9*%
X13725000Y-42750000D03*
%TD*%
D18*
%TO.P,R1,1*%
%TO.N,BOOT0*%
X-19379362Y36706673D03*
%TO.P,R1,2*%
%TO.N,GND*%
X-18359362Y36706673D03*
%TD*%
D12*
%TO.P,C25,1*%
%TO.N,VBUS*%
X25944075Y566907D03*
%TO.P,C25,2*%
%TO.N,GND*%
X25944075Y-453093D03*
%TD*%
%TO.P,C20,1*%
%TO.N,VBUS*%
X-12278581Y19492887D03*
%TO.P,C20,2*%
%TO.N,GND*%
X-12278581Y18472887D03*
%TD*%
D10*
%TO.P,LED4,1*%
%TO.N,VBUS*%
X-35725000Y-42750000D03*
%TO.P,LED4,2*%
%TO.N,UG_D12*%
X-35725000Y-41250000D03*
%TO.P,LED4,3*%
%TO.N,GND*%
X-30275000Y-41250000D03*
%TO.P,LED4,4*%
%TO.N,UG_D11*%
X-30275000Y-42750000D03*
%TD*%
D16*
%TO.P,SW12,1*%
%TO.N,ROW2*%
X-28575000Y-3625000D03*
%TO.P,SW12,2*%
%TO.N,KEY7*%
X-23575000Y-5725000D03*
%TD*%
%TO.P,SW3,1*%
%TO.N,ROW0*%
X-9525000Y34475000D03*
%TO.P,SW3,2*%
%TO.N,KEY1*%
X-4525000Y32375000D03*
%TD*%
D11*
%TO.P,LED7,1*%
%TO.N,VBUS*%
X-41250000Y8275000D03*
%TO.P,LED7,2*%
%TO.N,UG_D15*%
X-42750000Y8275000D03*
%TO.P,LED7,3*%
%TO.N,GND*%
X-42750000Y13725000D03*
%TO.P,LED7,4*%
%TO.N,UG_D14*%
X-41250000Y13725000D03*
%TD*%
D10*
%TO.P,LED17,1*%
%TO.N,VBUS*%
X-12255000Y22890000D03*
%TO.P,LED17,2*%
%TO.N,LED_D1*%
X-12255000Y24390000D03*
%TO.P,LED17,3*%
%TO.N,GND*%
X-6805000Y24390000D03*
%TO.P,LED17,4*%
%TO.N,LED_D0*%
X-6805000Y22890000D03*
%TD*%
D16*
%TO.P,SW14,1*%
%TO.N,ROW2*%
X9525000Y-3625000D03*
%TO.P,SW14,2*%
%TO.N,KEY9*%
X14525000Y-5725000D03*
%TD*%
D12*
%TO.P,C5,1*%
%TO.N,VBUS*%
X25944075Y-18359073D03*
%TO.P,C5,2*%
%TO.N,GND*%
X25944075Y-19379073D03*
%TD*%
D16*
%TO.P,SW15,1*%
%TO.N,ROW2*%
X28575000Y-3625000D03*
%TO.P,SW15,2*%
%TO.N,KEY10*%
X33575000Y-5725000D03*
%TD*%
D19*
%TO.P,TP1,1*%
%TO.N,TOUCH*%
X-28575000Y-28575000D03*
%TD*%
D16*
%TO.P,SW13,1*%
%TO.N,ROW2*%
X-9525000Y-3625000D03*
%TO.P,SW13,2*%
%TO.N,KEY8*%
X-4525000Y-5725000D03*
%TD*%
%TO.P,SW5,1*%
%TO.N,ROW3*%
X-9525000Y-22675000D03*
%TO.P,SW5,2*%
%TO.N,KEY11*%
X-4525000Y-24775000D03*
%TD*%
D12*
%TO.P,C1,1*%
%TO.N,V3V3*%
X-16731706Y44078626D03*
%TO.P,C1,2*%
%TO.N,GND*%
X-16731706Y45098626D03*
%TD*%
D10*
%TO.P,LED28,1*%
%TO.N,VBUS*%
X6805000Y-15210000D03*
%TO.P,LED28,2*%
%TO.N,LED_D9*%
X6805000Y-13710000D03*
%TO.P,LED28,3*%
%TO.N,GND*%
X12255000Y-13710000D03*
%TO.P,LED28,4*%
%TO.N,LED_D8*%
X12255000Y-15210000D03*
%TD*%
D16*
%TO.P,SW4,1*%
%TO.N,ROW0*%
X9525000Y34475000D03*
%TO.P,SW4,2*%
%TO.N,KEY2*%
X14525000Y32375000D03*
%TD*%
D10*
%TO.P,LED22,1*%
%TO.N,VBUS*%
X-31295000Y3850000D03*
%TO.P,LED22,2*%
%TO.N,LED_D3*%
X-31295000Y5350000D03*
%TO.P,LED22,3*%
%TO.N,GND*%
X-25845000Y5350000D03*
%TO.P,LED22,4*%
%TO.N,LED_D2*%
X-25845000Y3850000D03*
%TD*%
D11*
%TO.P,LED13,1*%
%TO.N,VBUS*%
X42750000Y-13725000D03*
%TO.P,LED13,2*%
%TO.N,UG_D7*%
X41250000Y-13725000D03*
%TO.P,LED13,3*%
%TO.N,GND*%
X41250000Y-8275000D03*
%TO.P,LED13,4*%
%TO.N,UG_D6*%
X42750000Y-8275000D03*
%TD*%
D16*
%TO.P,SW8,1*%
%TO.N,ROW1*%
X-28575000Y15425000D03*
%TO.P,SW8,2*%
%TO.N,KEY3*%
X-23575000Y13325000D03*
%TD*%
%TO.P,SW7,1*%
%TO.N,ROW3*%
X28575000Y-22675000D03*
%TO.P,SW7,2*%
%TO.N,KEY13*%
X33575000Y-24775000D03*
%TD*%
D10*
%TO.P,LED24,1*%
%TO.N,VBUS*%
X6805000Y3850000D03*
%TO.P,LED24,2*%
%TO.N,LED_D5*%
X6805000Y5350000D03*
%TO.P,LED24,3*%
%TO.N,GND*%
X12255000Y5350000D03*
%TO.P,LED24,4*%
%TO.N,LED_D4*%
X12255000Y3850000D03*
%TD*%
D11*
%TO.P,LED8,1*%
%TO.N,VBUS*%
X-41250000Y30275000D03*
%TO.P,LED8,2*%
%TO.N,N/C*%
X-42750000Y30275000D03*
%TO.P,LED8,3*%
%TO.N,GND*%
X-42750000Y35725000D03*
%TO.P,LED8,4*%
%TO.N,UG_D15*%
X-41250000Y35725000D03*
%TD*%
D12*
%TO.P,R3,1*%
%TO.N,CC2*%
X-6712175Y39532161D03*
%TO.P,R3,2*%
%TO.N,GND*%
X-6712175Y38512161D03*
%TD*%
D11*
%TO.P,LED14,1*%
%TO.N,VBUS*%
X42750000Y-35725000D03*
%TO.P,LED14,2*%
%TO.N,UG_D8*%
X41250000Y-35725000D03*
%TO.P,LED14,3*%
%TO.N,GND*%
X41250000Y-30275000D03*
%TO.P,LED14,4*%
%TO.N,UG_D7*%
X42750000Y-30275000D03*
%TD*%
D12*
%TO.P,C21,1*%
%TO.N,VBUS*%
X7018294Y19492887D03*
%TO.P,C21,2*%
%TO.N,GND*%
X7018294Y18472887D03*
%TD*%
D20*
%TO.P,SW1,1*%
%TO.N,ENC_A*%
X-35575000Y31075000D03*
%TO.P,SW1,2*%
%TO.N,GND*%
X-35575000Y28575000D03*
%TO.P,SW1,3*%
%TO.N,ENC_B*%
X-35575000Y26075000D03*
%TO.P,SW1,4*%
%TO.N,ENC_SW*%
X-21075000Y26075000D03*
%TO.P,SW1,5*%
%TO.N,GND*%
X-21075000Y31075000D03*
D21*
%TO.P,SW1,6*%
X-28075000Y34175000D03*
%TO.P,SW1,7*%
X-28075000Y22975000D03*
%TD*%
D12*
%TO.P,C27,1*%
%TO.N,V3V3*%
X-20813738Y43707528D03*
%TO.P,C27,2*%
%TO.N,GND*%
X-20813738Y44727528D03*
%TD*%
D10*
%TO.P,LED21,1*%
%TO.N,VBUS*%
X25845000Y-34250000D03*
%TO.P,LED21,2*%
%TO.N,N/C*%
X25845000Y-32750000D03*
%TO.P,LED21,3*%
%TO.N,GND*%
X31295000Y-32750000D03*
%TO.P,LED21,4*%
%TO.N,LED_D12*%
X31295000Y-34250000D03*
%TD*%
D22*
%TO.P,J3,A1*%
%TO.N,GND*%
X3250000Y41595000D03*
%TO.P,J3,A4*%
%TO.N,VBUS*%
X2450000Y41595000D03*
D23*
%TO.P,J3,A5*%
%TO.N,CC1*%
X1250000Y41595000D03*
%TO.P,J3,A6*%
%TO.N,USBC_DP*%
X250000Y41595000D03*
%TO.P,J3,A7*%
%TO.N,USBC_DM*%
X-250000Y41595000D03*
%TO.P,J3,A8*%
%TO.N,N/C*%
X-1250000Y41595000D03*
D22*
%TO.P,J3,A9*%
%TO.N,VBUS*%
X-2450000Y41595000D03*
%TO.P,J3,A12*%
%TO.N,GND*%
X-3250000Y41595000D03*
%TO.P,J3,B1*%
X-3250000Y41595000D03*
%TO.P,J3,B4*%
%TO.N,VBUS*%
X-2450000Y41595000D03*
D23*
%TO.P,J3,B5*%
%TO.N,CC2*%
X-1750000Y41595000D03*
%TO.P,J3,B6*%
%TO.N,USBC_DP*%
X-750000Y41595000D03*
%TO.P,J3,B7*%
%TO.N,USBC_DM*%
X750000Y41595000D03*
%TO.P,J3,B8*%
%TO.N,N/C*%
X1750000Y41595000D03*
D22*
%TO.P,J3,B9*%
%TO.N,VBUS*%
X2450000Y41595000D03*
%TO.P,J3,B12*%
%TO.N,GND*%
X3250000Y41595000D03*
D24*
%TO.P,J3,SH1*%
X4320000Y42510000D03*
%TO.P,J3,SH2*%
X-4320000Y42510000D03*
D25*
%TO.P,J3,SH3*%
X4320000Y46690000D03*
%TO.P,J3,SH4*%
X-4320000Y46690000D03*
%TD*%
D26*
%TO.P,J1,1*%
%TO.N,GND*%
X24825000Y28575000D03*
%TO.P,J1,2*%
%TO.N,JOY_X*%
X27325000Y28575000D03*
%TO.P,J1,3*%
%TO.N,V3V3*%
X29825000Y28575000D03*
%TO.P,J1,4*%
%TO.N,GND*%
X32325000Y31075000D03*
%TO.P,J1,5*%
%TO.N,JOY_Y*%
X32325000Y28575000D03*
%TO.P,J1,6*%
%TO.N,V3V3*%
X32325000Y26075000D03*
%TO.P,J1,7*%
%TO.N,JOY_SW*%
X27325000Y22575000D03*
%TO.P,J1,8*%
%TO.N,GND*%
X29825000Y22575000D03*
%TD*%
D10*
%TO.P,LED19,1*%
%TO.N,VBUS*%
X-12255000Y-34250000D03*
%TO.P,LED19,2*%
%TO.N,LED_D11*%
X-12255000Y-32750000D03*
%TO.P,LED19,3*%
%TO.N,GND*%
X-6805000Y-32750000D03*
%TO.P,LED19,4*%
%TO.N,LED_D10*%
X-6805000Y-34250000D03*
%TD*%
D15*
%TO.P,H1,1*%
%TO.N,GND*%
X-42500000Y42500000D03*
%TD*%
D18*
%TO.P,C28,1*%
%TO.N,HSE_IN*%
X-21977019Y37448868D03*
%TO.P,C28,2*%
%TO.N,GND*%
X-20957019Y37448868D03*
%TD*%
D26*
%TO.P,J2,1*%
%TO.N,SWDIO*%
X-26596394Y45229723D03*
%TO.P,J2,2*%
%TO.N,SWCLK*%
X-29136394Y45229723D03*
%TO.P,J2,3*%
%TO.N,GND*%
X-31676394Y45229723D03*
%TO.P,J2,4*%
%TO.N,V3V3*%
X-34216394Y45229723D03*
%TD*%
D10*
%TO.P,LED25,1*%
%TO.N,VBUS*%
X25845000Y3850000D03*
%TO.P,LED25,2*%
%TO.N,LED_D6*%
X25845000Y5350000D03*
%TO.P,LED25,3*%
%TO.N,GND*%
X31295000Y5350000D03*
%TO.P,LED25,4*%
%TO.N,LED_D5*%
X31295000Y3850000D03*
%TD*%
%TO.P,LED1,1*%
%TO.N,VBUS*%
X-35725000Y41250000D03*
%TO.P,LED1,2*%
%TO.N,UG_D1*%
X-35725000Y42750000D03*
%TO.P,LED1,3*%
%TO.N,GND*%
X-30275000Y42750000D03*
%TO.P,LED1,4*%
%TO.N,UG_D0*%
X-30275000Y41250000D03*
%TD*%
%TO.P,LED9,1*%
%TO.N,VBUS*%
X8275000Y41250000D03*
%TO.P,LED9,2*%
%TO.N,UG_D3*%
X8275000Y42750000D03*
%TO.P,LED9,3*%
%TO.N,GND*%
X13725000Y42750000D03*
%TO.P,LED9,4*%
%TO.N,UG_D2*%
X13725000Y41250000D03*
%TD*%
D15*
%TO.P,H4,1*%
%TO.N,GND*%
X-42500000Y-42500000D03*
%TD*%
D12*
%TO.P,C19,1*%
%TO.N,VBUS*%
X-32487Y38047770D03*
%TO.P,C19,2*%
%TO.N,GND*%
X-32487Y37027770D03*
%TD*%
%TO.P,R2,1*%
%TO.N,CC1*%
X8131575Y45469723D03*
%TO.P,R2,2*%
%TO.N,GND*%
X8131575Y44449723D03*
%TD*%
D16*
%TO.P,SW6,1*%
%TO.N,ROW3*%
X9525000Y-22675000D03*
%TO.P,SW6,2*%
%TO.N,KEY12*%
X14525000Y-24775000D03*
%TD*%
%TO.P,SW10,1*%
%TO.N,ROW1*%
X9525000Y15425000D03*
%TO.P,SW10,2*%
%TO.N,KEY5*%
X14525000Y13325000D03*
%TD*%
D12*
%TO.P,C23,1*%
%TO.N,VBUS*%
X-12278581Y566907D03*
%TO.P,C23,2*%
%TO.N,GND*%
X-12278581Y-453093D03*
%TD*%
D11*
%TO.P,LED6,1*%
%TO.N,VBUS*%
X-41250000Y-13725000D03*
%TO.P,LED6,2*%
%TO.N,UG_D14*%
X-42750000Y-13725000D03*
%TO.P,LED6,3*%
%TO.N,GND*%
X-42750000Y-8275000D03*
%TO.P,LED6,4*%
%TO.N,UG_D13*%
X-41250000Y-8275000D03*
%TD*%
D18*
%TO.P,C16,1*%
%TO.N,VBUS*%
X-39789519Y-36028468D03*
%TO.P,C16,2*%
%TO.N,GND*%
X-38769519Y-36028468D03*
%TD*%
D12*
%TO.P,C2,1*%
%TO.N,VBUS*%
X-31204363Y-18359073D03*
%TO.P,C2,2*%
%TO.N,GND*%
X-31204363Y-19379073D03*
%TD*%
D18*
%TO.P,C11,1*%
%TO.N,VBUS*%
X44077669Y30026915D03*
%TO.P,C11,2*%
%TO.N,GND*%
X45097669Y30026915D03*
%TD*%
D10*
%TO.P,LED20,1*%
%TO.N,VBUS*%
X6805000Y-34250000D03*
%TO.P,LED20,2*%
%TO.N,LED_D12*%
X6805000Y-32750000D03*
%TO.P,LED20,3*%
%TO.N,GND*%
X12255000Y-32750000D03*
%TO.P,LED20,4*%
%TO.N,LED_D11*%
X12255000Y-34250000D03*
%TD*%
D18*
%TO.P,C17,1*%
%TO.N,VBUS*%
X-39789519Y8132153D03*
%TO.P,C17,2*%
%TO.N,GND*%
X-38769519Y8132153D03*
%TD*%
D12*
%TO.P,C9,1*%
%TO.N,VBUS*%
X-36028581Y39532161D03*
%TO.P,C9,2*%
%TO.N,GND*%
X-36028581Y38512161D03*
%TD*%
%TO.P,C22,1*%
%TO.N,VBUS*%
X-31204363Y566907D03*
%TO.P,C22,2*%
%TO.N,GND*%
X-31204363Y-453093D03*
%TD*%
D27*
%TO.P,C26,1*%
%TO.N,VBUS*%
X44518412Y-725081D03*
%TO.P,C26,2*%
%TO.N,GND*%
X44518412Y-2275081D03*
%TD*%
D12*
%TO.P,C10,1*%
%TO.N,VBUS*%
X6276106Y41109844D03*
%TO.P,C10,2*%
%TO.N,GND*%
X6276106Y42129844D03*
%TD*%
%TO.P,C4,1*%
%TO.N,VBUS*%
X7018294Y-18359073D03*
%TO.P,C4,2*%
%TO.N,GND*%
X7018294Y-19379073D03*
%TD*%
%TO.P,C3,1*%
%TO.N,VBUS*%
X-12278581Y-18359073D03*
%TO.P,C3,2*%
%TO.N,GND*%
X-12278581Y-19379073D03*
%TD*%
%TO.P,C8,1*%
%TO.N,VBUS*%
X25944075Y-37656152D03*
%TO.P,C8,2*%
%TO.N,GND*%
X25944075Y-38676152D03*
%TD*%
D11*
%TO.P,LED5,1*%
%TO.N,VBUS*%
X-41250000Y-35725000D03*
%TO.P,LED5,2*%
%TO.N,UG_D13*%
X-42750000Y-35725000D03*
%TO.P,LED5,3*%
%TO.N,GND*%
X-42750000Y-30275000D03*
%TO.P,LED5,4*%
%TO.N,UG_D12*%
X-41250000Y-30275000D03*
%TD*%
D12*
%TO.P,C7,1*%
%TO.N,VBUS*%
X7018294Y-37656152D03*
%TO.P,C7,2*%
%TO.N,GND*%
X7018294Y-38676152D03*
%TD*%
D15*
%TO.P,H3,1*%
%TO.N,GND*%
X42500000Y-42500000D03*
%TD*%
D12*
%TO.P,C15,1*%
%TO.N,VBUS*%
X-13762956Y-44335909D03*
%TO.P,C15,2*%
%TO.N,GND*%
X-13762956Y-45355909D03*
%TD*%
D16*
%TO.P,SW9,1*%
%TO.N,ROW1*%
X-9525000Y15425000D03*
%TO.P,SW9,2*%
%TO.N,KEY4*%
X-4525000Y13325000D03*
%TD*%
D10*
%TO.P,LED18,1*%
%TO.N,VBUS*%
X6805000Y22890000D03*
%TO.P,LED18,2*%
%TO.N,LED_D2*%
X6805000Y24390000D03*
%TO.P,LED18,3*%
%TO.N,GND*%
X12255000Y24390000D03*
%TO.P,LED18,4*%
%TO.N,LED_D1*%
X12255000Y22890000D03*
%TD*%
D12*
%TO.P,C14,1*%
%TO.N,VBUS*%
X30026106Y-44335909D03*
%TO.P,C14,2*%
%TO.N,GND*%
X30026106Y-45355909D03*
%TD*%
D17*
%TO.P,U1,1*%
%TO.N,USBC_DP*%
X5862500Y39450000D03*
%TO.P,U1,2*%
%TO.N,GND*%
X5862500Y38500000D03*
%TO.P,U1,3*%
%TO.N,USBC_DM*%
X5862500Y37550000D03*
%TO.P,U1,4*%
%TO.N,USB_DM*%
X8137500Y37550000D03*
%TO.P,U1,5*%
%TO.N,VBUS*%
X8137500Y38500000D03*
%TO.P,U1,6*%
%TO.N,USB_DP*%
X8137500Y39450000D03*
%TD*%
D12*
%TO.P,C29,1*%
%TO.N,HSE_OUT*%
X-26751238Y39532161D03*
%TO.P,C29,2*%
%TO.N,GND*%
X-26751238Y38512161D03*
%TD*%
D10*
%TO.P,LED10,1*%
%TO.N,VBUS*%
X30275000Y41250000D03*
%TO.P,LED10,2*%
%TO.N,UG_D4*%
X30275000Y42750000D03*
%TO.P,LED10,3*%
%TO.N,GND*%
X35725000Y42750000D03*
%TO.P,LED10,4*%
%TO.N,UG_D3*%
X35725000Y41250000D03*
%TD*%
%TO.P,LED3,1*%
%TO.N,VBUS*%
X-13725000Y-42750000D03*
%TO.P,LED3,2*%
%TO.N,UG_D11*%
X-13725000Y-41250000D03*
%TO.P,LED3,3*%
%TO.N,GND*%
X-8275000Y-41250000D03*
%TO.P,LED3,4*%
%TO.N,UG_D10*%
X-8275000Y-42750000D03*
%TD*%
D12*
%TO.P,C18,1*%
%TO.N,V3V3*%
X-22298113Y43707528D03*
%TO.P,C18,2*%
%TO.N,GND*%
X-22298113Y44727528D03*
%TD*%
D28*
%TO.N,LED_D10*%
X26945398Y-13584607D03*
X-233621Y-30276162D03*
%TO.N,GND*%
X-44119401Y17397833D03*
X6374935Y42816270D03*
X-15863352Y44002105D03*
X-16380690Y-19087964D03*
X-45929658Y43788648D03*
X-5966686Y38219734D03*
X-43111003Y-31383588D03*
X-30275194Y-40407601D03*
X-23285377Y-14053110D03*
X-14802690Y25052277D03*
X-21250467Y35898701D03*
X2960226Y40451698D03*
X-7897692Y5484334D03*
X-26207717Y37853456D03*
X-3046706Y42738237D03*
X25203042Y-38838254D03*
X-18487024Y39693419D03*
X-30475150Y-19497734D03*
X35741872Y43813903D03*
X6619566Y25738145D03*
X14810836Y-41528799D03*
X-27423841Y46485947D03*
X-8305182Y-13617652D03*
X1780559Y-32016726D03*
X43478785Y-20476502D03*
X-17808722Y46522670D03*
X-24878086Y-12339172D03*
X-23846359Y-44214150D03*
X-28209942Y-33720383D03*
X-256897Y6226578D03*
X-6480388Y43084819D03*
X-3724188Y24520686D03*
X30198408Y-32713941D03*
X36808935Y-41028601D03*
X40420147Y14134445D03*
X-35285333Y38880872D03*
X-7905735Y-32706059D03*
X-22104488Y45901692D03*
X5129969Y-10607400D03*
X40401125Y-30578371D03*
X13633408Y43594976D03*
X11162464Y5426250D03*
X7210166Y-20302977D03*
X6759151Y17798010D03*
X-10964470Y6704650D03*
X43309380Y1691608D03*
X-42666517Y14818802D03*
X43547753Y-37375966D03*
X34808042Y-13540838D03*
X11528335Y14696036D03*
X-12698912Y38989642D03*
X16115809Y33120551D03*
X7125682Y-39361643D03*
X26670835Y-19208679D03*
X-19145443Y42465294D03*
X-24754906Y5289230D03*
X-11551450Y-10063D03*
X8881711Y44585233D03*
X-22846215Y7690366D03*
X13358658Y24481930D03*
X-43813903Y7997231D03*
X-13010382Y-45240500D03*
X14217185Y-14216391D03*
X22913644Y14696036D03*
X-5681602Y14648792D03*
X-43765886Y-7484077D03*
X40408842Y43827687D03*
X4771993Y38653877D03*
X-43001863Y36815686D03*
X14189307Y-33078669D03*
X34778966Y-43701637D03*
X-43813903Y35072648D03*
X-43157042Y-9385303D03*
X44806785Y11201972D03*
X-21346752Y45343957D03*
X-16094124Y14696036D03*
X-19999037Y42173117D03*
X26685882Y-336662D03*
X43788528Y36461261D03*
X-15773292Y19073220D03*
X-7888484Y24340166D03*
X27514937Y-19533916D03*
X43637706Y-2192356D03*
X46451861Y-5424914D03*
X35454718Y22688148D03*
X-33424907Y-44214150D03*
X45087428Y30769409D03*
X-3795520Y-11981908D03*
X-762631Y36994664D03*
X-3122226Y-23716411D03*
X-38365682Y8833410D03*
X-23864814Y41557960D03*
X-8656302Y-32201146D03*
X40756142Y-6856949D03*
X21752164Y-31381173D03*
X38164095Y3060854D03*
X30203828Y-13636151D03*
X7756229Y-19292571D03*
X-13778045Y-19314304D03*
X-27741478Y-20945111D03*
X44760542Y-15296478D03*
X-30485774Y-86891D03*
X-8117334Y-40416081D03*
X-34535023Y-13399604D03*
X19192138Y42739113D03*
X16183319Y-21946008D03*
X5697633Y-44254168D03*
X44806785Y20780520D03*
X27766270Y34164981D03*
X-10607579Y-41746005D03*
X-20341947Y35648765D03*
X30192055Y5351996D03*
X-11162593Y33844604D03*
X-37709654Y25409123D03*
X-17886362Y-2896008D03*
X-11535560Y-38457253D03*
X-24363732Y39240745D03*
X-3129365Y-2076954D03*
X-193369Y33746036D03*
X5549742Y46485947D03*
X12368934Y-3379714D03*
X30761907Y-45303128D03*
X-43028459Y-25449451D03*
X-31933172Y1816528D03*
X-24461498Y18330270D03*
X25681697Y25249554D03*
X-31373537Y42716545D03*
X-38089824Y-36026340D03*
X27466452Y120502D03*
X-25641117Y30709872D03*
X20951717Y-41149268D03*
X20120625Y5369778D03*
X-45087754Y-41872764D03*
X23386553Y-9294701D03*
X-16809863Y33453146D03*
X6709616Y-1155492D03*
X41009440Y36810835D03*
X34303785Y-30007325D03*
X-37376047Y46485947D03*
X-5473903Y46485947D03*
%TO.N,LED_D9*%
X16472804Y-10023680D03*
X28863402Y-14263704D03*
%TO.N,UG_D9*%
X17650829Y-42271766D03*
X30237482Y-40420290D03*
%TO.N,V3V3*%
X-25388136Y42760106D03*
X-14688138Y45306240D03*
%TO.N,HSE_IN*%
X-23899681Y40492025D03*
%TO.N,HSE_OUT*%
X-26036384Y41517905D03*
%TO.N,NRST*%
X-19342760Y41390259D03*
%TO.N,LED_D8*%
X11162486Y-15481570D03*
X-9099279Y-15080097D03*
%TO.N,LED_D4*%
X-788882Y6955556D03*
X5371715Y7569263D03*
%TO.N,LED_D6*%
X22446787Y1368544D03*
X-18710088Y-16484613D03*
%TO.N,BOOT0*%
X-18683576Y35675753D03*
%TO.N,ROW0*%
X6733225Y32386215D03*
X-14997513Y41239887D03*
%TO.N,UG_D14*%
X-40639908Y-9301592D03*
X-41021425Y10362242D03*
%TO.N,LED_D1*%
X10727918Y22999967D03*
X2596565Y28367787D03*
%TO.N,LED_D0*%
X-7894960Y22586394D03*
%TO.N,TOUCH*%
X-26517600Y-20826922D03*
%TO.N,KEY8*%
X-3442878Y-15531115D03*
%TO.N,KEY2*%
X15088832Y22330603D03*
%TO.N,LED_D2*%
X-9132030Y1685108D03*
X7970977Y20042726D03*
%TO.N,CC2*%
X-6291701Y40600374D03*
X-5949360Y39278600D03*
%TO.N,ENC_SW*%
X-19914604Y39913843D03*
%TO.N,CC1*%
X7373279Y45536979D03*
X2846253Y43538603D03*
%TO.N,USBC_DM*%
X220779Y43969851D03*
X1458724Y43115938D03*
%TO.N,JOY_Y*%
X-18939704Y43772361D03*
%TO.N,JOY_SW*%
X20599631Y26498901D03*
%TO.N,LED_D11*%
X-12255194Y-31907601D03*
X9154729Y-34603575D03*
%TO.N,SWDIO*%
X-16823465Y40218977D03*
X-18947061Y40782313D03*
%TO.N,SWCLK*%
X-19127202Y38542676D03*
X-28236811Y40554112D03*
%TO.N,UG_D0*%
X-27874556Y41674991D03*
%TO.N,UG_D3*%
X34619390Y41749577D03*
X18104033Y40150480D03*
%TO.N,KEY4*%
X-794917Y10329189D03*
%TO.N,USB_DM*%
X-11607290Y40213763D03*
%TO.N,USB_DP*%
X9218913Y39137051D03*
%TO.N,COL3*%
X-12648883Y40688797D03*
X-86945Y31394691D03*
%TO.N,COL2*%
X13508277Y-887284D03*
X13251674Y-9915170D03*
%TO.N,COL1*%
X-5092594Y19565716D03*
X-4168695Y-20822172D03*
X-17775840Y33466481D03*
X-3756947Y-17442401D03*
X-8860817Y19521744D03*
X-5433347Y-9742912D03*
X-3507531Y-39116839D03*
%TO.N,COL0*%
X-20791181Y18618154D03*
X-18711181Y33267643D03*
%TD*%
%TO.N,VBUS*%
D29*
X42749806Y7167629D02*
X44381306Y5536129D01*
X31382191Y41250014D02*
X40405098Y32227107D01*
X6804806Y-15619986D02*
X6804806Y-15209986D01*
X-41250194Y30275014D02*
X-41250194Y29600014D01*
X45043806Y2640014D02*
X45382113Y2640014D01*
X18618584Y-2961637D02*
X18618584Y-9477543D01*
X30949806Y41250014D02*
X31382191Y41250014D01*
X7681664Y-38269843D02*
X7523807Y-38111986D01*
X-9394799Y40096504D02*
X-10548309Y41250014D01*
X-12890803Y-42180595D02*
X-13460194Y-42749986D01*
X-13050194Y41250014D02*
X-13725194Y41250014D01*
X-34402606Y-11681773D02*
X-32355659Y-13728721D01*
X7017806Y-18358986D02*
X6804806Y-18145986D01*
X45747525Y2274602D02*
X45747525Y1161873D01*
X25844806Y-15209986D02*
X26519806Y-15209986D01*
X-31254194Y567014D02*
X-31656975Y164232D01*
X-41250194Y30950014D02*
X-41250194Y30275014D01*
X-12278194Y19763014D02*
X-12278194Y19493014D01*
X-32194Y38048014D02*
X-352194Y38048014D01*
X7017806Y22677014D02*
X7017806Y19763014D01*
X8137306Y38500014D02*
X8499806Y38500014D01*
X-12278194Y-18358986D02*
X-12598194Y-18358986D01*
X-790273Y38756094D02*
X-790273Y38852971D01*
X1731183Y18081391D02*
X5824064Y22174271D01*
X-2833069Y40096504D02*
X-9394799Y40096504D01*
X43159806Y30275014D02*
X42749806Y30275014D01*
X5824064Y22174271D02*
X6539806Y22890014D01*
X-14832579Y-42749986D02*
X-15567765Y-43485172D01*
X-12271298Y-30463473D02*
X-11337903Y-31396868D01*
X31118772Y-42749986D02*
X37163030Y-36705729D01*
X42749806Y-13049986D02*
X42749806Y-12617601D01*
X42749806Y8275014D02*
X42749806Y7600014D01*
X-13725194Y-42749986D02*
X-14400194Y-42749986D01*
X-11420803Y-33680595D02*
X-11990194Y-34249986D01*
X7017806Y567014D02*
X6804806Y780014D01*
X-40059194Y8132014D02*
X-39789194Y8132014D01*
X-12255194Y-34249986D02*
X-12278194Y-34272986D01*
X-34617809Y-42749986D02*
X-35050194Y-42749986D01*
X7681664Y-39947292D02*
X7681664Y-38269843D01*
X6265421Y-18358986D02*
X5696075Y-18928333D01*
X7523807Y-38111986D02*
X7067806Y-37655986D01*
X44077806Y29707014D02*
X44077806Y29274629D01*
X29599806Y-42749986D02*
X29599582Y-42749986D01*
X-32194Y38048014D02*
X287806Y38048014D01*
X7799297Y-15209986D02*
X7479806Y-15209986D01*
X7302111Y38972709D02*
X7774806Y38500014D01*
X-36028194Y39532014D02*
X-36348194Y39532014D01*
X-11525809Y567014D02*
X-9913574Y2179249D01*
X45325666Y740014D02*
X45043806Y740014D01*
X1731183Y10012121D02*
X5569471Y6173833D01*
X6545184Y36934678D02*
X7195673Y37585167D01*
X7774806Y38500014D02*
X8137306Y38500014D01*
X-12278194Y-34272986D02*
X-12278194Y-37385986D01*
X6804806Y3440014D02*
X6804806Y3850014D01*
X8009806Y-42749986D02*
X7453720Y-42193900D01*
X1264234Y-20342465D02*
X-4644281Y-20342465D01*
X7770191Y-37655986D02*
X7337806Y-37655986D01*
X6539806Y3850014D02*
X6804806Y3850014D01*
X7453720Y-42193900D02*
X7319921Y-42060101D01*
X-2450194Y40512891D02*
X-2450194Y40870014D01*
X-15567765Y-43485172D02*
X-33882623Y-43485172D01*
X44993806Y-724986D02*
X44518806Y-724986D01*
X29599582Y-42749986D02*
X27191395Y-40341799D01*
X5733925Y-33444104D02*
X5997025Y-33707205D01*
X-38882394Y37185595D02*
X-38882394Y33750198D01*
X7770191Y567014D02*
X7337806Y567014D01*
X9032791Y35937417D02*
X5890587Y32795213D01*
X29350318Y-12811859D02*
X42101680Y-12811859D01*
X5733925Y-24812156D02*
X5733925Y-33444104D01*
X27191395Y-38188821D02*
X26658560Y-37655986D01*
X-12271298Y-22743915D02*
X-12271298Y-30463473D01*
X6804806Y-18145986D02*
X6804806Y-15619986D01*
X-36832579Y-42749986D02*
X-36400194Y-42749986D01*
X-31560194Y3850014D02*
X-31295194Y3850014D01*
X30274806Y-42749986D02*
X29599806Y-42749986D01*
X-9913574Y2179249D02*
X4448533Y2179249D01*
X-34532752Y7491884D02*
X-32532744Y5491876D01*
X6697806Y-18358986D02*
X6265421Y-18358986D01*
X-12525897Y-39424466D02*
X-12525897Y-41815689D01*
X42749806Y31382399D02*
X42749806Y30950014D01*
X7319921Y-42060101D02*
X7319921Y-40309034D01*
X42113892Y-12824072D02*
X42749806Y-13459986D01*
X-32355659Y-14414521D02*
X-32129584Y-14640595D01*
X-12730975Y-38058768D02*
X-12901139Y-38228932D01*
X5696075Y-19302532D02*
X2960188Y-22038419D01*
X44381306Y2940014D02*
X44381306Y2640014D01*
X-32355659Y-13728721D02*
X-32355659Y-14414521D01*
X6804806Y780014D02*
X6804806Y3440014D01*
X18999366Y-2580855D02*
X22147235Y567014D01*
X8972502Y38027318D02*
X9032791Y37967029D01*
X22147235Y567014D02*
X25229053Y567014D01*
X-11958194Y567014D02*
X-11525809Y567014D01*
X-41250194Y-38332371D02*
X-36832579Y-42749986D01*
X44077806Y10710399D02*
X42749806Y9382399D01*
X-12328194Y-37655986D02*
X-12730975Y-38058768D01*
X-36028194Y39802014D02*
X-36028194Y39532014D01*
X-13460194Y-42749986D02*
X-13725194Y-42749986D01*
X-11525809Y19493014D02*
X-11958194Y19493014D01*
X30274806Y-43159986D02*
X30274806Y-42749986D01*
X7337806Y567014D02*
X7017806Y567014D01*
X44077806Y30027014D02*
X44077806Y29707014D01*
X-39373107Y7665928D02*
X-39199064Y7491884D01*
X44381306Y2640014D02*
X45043806Y2640014D01*
X30949806Y-42749986D02*
X31118772Y-42749986D01*
X6129806Y3850014D02*
X6804806Y3850014D01*
X42749806Y30950014D02*
X42749806Y30275014D01*
X-12278194Y22867014D02*
X-12278194Y19763014D01*
X42749806Y9382399D02*
X42749806Y8950014D01*
X-31204194Y-18088986D02*
X-31204194Y-18358986D01*
X-33882623Y-43485172D02*
X-34617809Y-42749986D01*
X-32532744Y4822564D02*
X-32182803Y4472623D01*
X-41250194Y9363583D02*
X-41250194Y8950014D01*
X6539806Y-34249986D02*
X6804806Y-34249986D01*
X6275806Y41110014D02*
X6595806Y41110014D01*
X44381306Y3372399D02*
X44381306Y2940014D01*
X-12278194Y837014D02*
X-12278194Y567014D01*
X26519806Y-15209986D02*
X26952191Y-15209986D01*
X7774806Y38500014D02*
X8137306Y38500014D01*
X-82194Y38048014D02*
X-657936Y38623756D01*
X6415806Y41250014D02*
X7599806Y41250014D01*
X-30187809Y-15209986D02*
X-30620194Y-15209986D01*
X-31204194Y3759014D02*
X-31204194Y837014D01*
X12324344Y-12212184D02*
X9326542Y-15209986D01*
X42749806Y-35989986D02*
X42749806Y-35724986D01*
X45219219Y-724986D02*
X44993806Y-724986D01*
X25943806Y-37655986D02*
X25623806Y-37655986D01*
X-657936Y38623756D02*
X-790273Y38756094D01*
X1134029Y39916621D02*
X-32194Y38750399D01*
X-2450194Y40870014D02*
X-2450194Y41595014D01*
X18999366Y-2580855D02*
X15851496Y567014D01*
X45747525Y1161873D02*
X45325666Y740014D01*
X-27038809Y-18358986D02*
X-30187809Y-15209986D01*
X7337806Y-37655986D02*
X7017806Y-37655986D01*
X1833527Y36934678D02*
X6545184Y36934678D01*
X37163030Y-36705729D02*
X42034064Y-36705729D01*
X-352194Y38048014D02*
X-784579Y38048014D01*
X-36028194Y40947014D02*
X-36028194Y39802014D01*
X25943806Y3751014D02*
X25943806Y837014D01*
X6804806Y22890014D02*
X7017806Y22677014D01*
X42749806Y-13724986D02*
X42787806Y-13762986D01*
X24189736Y-13117678D02*
X24599632Y-13527575D01*
X7017806Y-18358986D02*
X6697806Y-18358986D01*
X-12278194Y-18088986D02*
X-12278194Y-18358986D01*
X7479806Y-15209986D02*
X6804806Y-15209986D01*
X18618584Y-9477543D02*
X22258720Y-13117678D01*
X-31560194Y-15209986D02*
X-31295194Y-15209986D01*
X-41955969Y28461853D02*
X-41955969Y10069359D01*
X-35725194Y41250014D02*
X-36028194Y40947014D01*
X7017806Y-37655986D02*
X6804806Y-37442986D01*
X6595806Y41110014D02*
X7028191Y41110014D01*
X-39199064Y7491884D02*
X-34532752Y7491884D01*
X25623806Y-37655986D02*
X25191421Y-37655986D01*
X44381306Y740014D02*
X44518806Y602514D01*
X25191421Y-37655986D02*
X7770191Y-37655986D01*
X287806Y38048014D02*
X720191Y38048014D01*
X-36445819Y-13724986D02*
X-40407809Y-13724986D01*
X6539806Y22890014D02*
X6804806Y22890014D01*
X1731183Y16779539D02*
X1731183Y18081391D01*
X-41250194Y8275014D02*
X-41107194Y8132014D01*
X44077806Y29274629D02*
X44077806Y10710399D01*
X-41250194Y-36832371D02*
X-41250194Y-38332371D01*
X22258720Y-13117678D02*
X24189736Y-13117678D01*
X25943806Y837014D02*
X25943806Y567014D01*
X720191Y38048014D02*
X1833527Y36934678D01*
X25623806Y567014D02*
X25943806Y567014D01*
X-41250194Y31382399D02*
X-41250194Y30950014D01*
X-12278194Y567014D02*
X-11958194Y567014D01*
X-39789194Y8132014D02*
X-39789194Y8082014D01*
X2449806Y41595014D02*
X2449806Y40870014D01*
X25844806Y-37556986D02*
X25844806Y-34659986D01*
X-31204194Y837014D02*
X-31204194Y567014D01*
X30025806Y-44335986D02*
X30274806Y-44086986D01*
X42101680Y-12811859D02*
X42113892Y-12824072D01*
X43807806Y-13762986D02*
X44077806Y-13762986D01*
X-13763194Y-44065986D02*
X-13763194Y-44335986D01*
X-12901139Y-38228932D02*
X-12901139Y-39049223D01*
X-12278194Y3827014D02*
X-12278194Y837014D01*
X-41955969Y10069359D02*
X-41250194Y9363583D01*
X7211461Y40926744D02*
X7211461Y39063359D01*
X30274806Y-42749986D02*
X30949806Y-42749986D01*
X-41250194Y29600014D02*
X-41250194Y29167629D01*
X-12278194Y-37655986D02*
X-12328194Y-37655986D01*
X44518806Y602514D02*
X44518806Y-274986D01*
X-13725194Y-42749986D02*
X-13763194Y-42787986D01*
X42787806Y-13762986D02*
X43807806Y-13762986D01*
X7195673Y37585167D02*
X7195673Y37920881D01*
X-32194Y38750399D02*
X-32194Y38318014D01*
X-12901139Y-39049223D02*
X-12525897Y-39424466D01*
X5997025Y-33707205D02*
X6539806Y-34249986D01*
X26952191Y-15209986D02*
X29350318Y-12811859D01*
X43829806Y30275014D02*
X43159806Y30275014D01*
X-41250194Y-35724986D02*
X-40947194Y-36027986D01*
X-4644281Y-20342465D02*
X-5073960Y-20772144D01*
X-41250194Y8950014D02*
X-41250194Y8275014D01*
X-12525897Y-41815689D02*
X-12890803Y-42180595D01*
X-12598194Y-18358986D02*
X-13030579Y-18358986D01*
X-34402606Y-2581399D02*
X-34402606Y-11681773D01*
X44077806Y30027014D02*
X43829806Y30275014D01*
X8274806Y-42749986D02*
X8009806Y-42749986D01*
X-13763194Y-42787986D02*
X-13763194Y-44065986D01*
X6804806Y-37442986D02*
X6804806Y-34659986D01*
X-41107194Y8132014D02*
X-40059194Y8132014D01*
X25229053Y567014D02*
X25623806Y567014D01*
X45722883Y-9644524D02*
X45722883Y-1228650D01*
X9326542Y-15209986D02*
X7799297Y-15209986D01*
X42749806Y8950014D02*
X42749806Y8275014D01*
X4448533Y2179249D02*
X5738669Y3469385D01*
X-10299528Y-19754608D02*
X-11695150Y-18358986D01*
X2960188Y-22038419D02*
X1264234Y-20342465D01*
X1928799Y39916621D02*
X1134029Y39916621D01*
X5890587Y23539233D02*
X6539806Y22890014D01*
X-10299528Y-20772144D02*
X-12271298Y-22743915D01*
X5738669Y3469385D02*
X5738669Y3759552D01*
X42749806Y-13724986D02*
X42749806Y-13049986D01*
X5738669Y3759552D02*
X5829131Y3850014D01*
X-36348194Y39532014D02*
X-36535975Y39532014D01*
X25844806Y-15209986D02*
X25943806Y-15308986D01*
X26658560Y-37655986D02*
X26263806Y-37655986D01*
X-36535975Y39532014D02*
X-38882394Y37185595D01*
X-12278194Y-15232986D02*
X-12278194Y-18088986D01*
X-40407809Y-13724986D02*
X-40840194Y-13724986D01*
X-31656975Y164232D02*
X-34402606Y-2581399D01*
X25844806Y-34659986D02*
X25844806Y-34249986D01*
X-40840194Y-13724986D02*
X-41250194Y-13724986D01*
X5569471Y4820349D02*
X5930501Y4459319D01*
X8499806Y38500014D02*
X8972502Y38027318D01*
X-36400194Y-42749986D02*
X-35725194Y-42749986D01*
X1731183Y16779539D02*
X1731183Y10012121D01*
X-39789194Y8082014D02*
X-39373107Y7665928D01*
X25943806Y-37655986D02*
X25844806Y-37556986D01*
X-10548309Y41250014D02*
X-12617809Y41250014D01*
X24599632Y-13527575D02*
X24599632Y-14229812D01*
X45382113Y2640014D02*
X45747525Y2274602D01*
X27191395Y-40341799D02*
X27191395Y-38188821D01*
X-12255194Y-15209986D02*
X-12278194Y-15232986D01*
X7067806Y-37655986D02*
X7017806Y-37655986D01*
X-30620194Y-15209986D02*
X-31295194Y-15209986D01*
X-11990194Y-34249986D02*
X-12255194Y-34249986D01*
X-31204194Y567014D02*
X-31254194Y567014D01*
X-32532744Y5491876D02*
X-32532744Y4822564D01*
X-40059194Y-36027986D02*
X-39789194Y-36027986D01*
X42749806Y7600014D02*
X42749806Y7167629D01*
X25943806Y-15308986D02*
X25943806Y-18088986D01*
X7017806Y19763014D02*
X7017806Y19493014D01*
X5890587Y32795213D02*
X5890587Y23539233D01*
X7599806Y41250014D02*
X8274806Y41250014D01*
X30274806Y41250014D02*
X30949806Y41250014D01*
X-32182803Y4472623D02*
X-31560194Y3850014D01*
X45043806Y740014D02*
X44381306Y740014D01*
X-32194Y38318014D02*
X-32194Y38048014D01*
X-14400194Y-42749986D02*
X-14832579Y-42749986D01*
X9032791Y37967029D02*
X9032791Y35937417D01*
X26263806Y-37655986D02*
X25943806Y-37655986D01*
X25844806Y3850014D02*
X25943806Y3751014D01*
X7195673Y37920881D02*
X7774806Y38500014D01*
X-40947194Y-36027986D02*
X-40059194Y-36027986D01*
X-35050194Y-42749986D02*
X-35725194Y-42749986D01*
X40405098Y32227107D02*
X41905098Y32227107D01*
X-12255194Y3850014D02*
X-12278194Y3827014D01*
X-32129584Y-14640595D02*
X-31560194Y-15209986D01*
X-31295194Y3850014D02*
X-31204194Y3759014D01*
X2449806Y40437629D02*
X1928799Y39916621D01*
X25943806Y-18088986D02*
X25943806Y-18358986D01*
X-41250194Y29167629D02*
X-41955969Y28461853D01*
X-11695150Y-18358986D02*
X-11958194Y-18358986D01*
X44518806Y-274986D02*
X44518806Y-724986D01*
X18999366Y-2580855D02*
X18618584Y-2961637D01*
X5829131Y3850014D02*
X6129806Y3850014D01*
X25579806Y-15209986D02*
X25844806Y-15209986D01*
X-10299528Y-20772144D02*
X-10299528Y-19754608D01*
X1731183Y16779539D02*
X-8812334Y16779539D01*
X7028191Y41110014D02*
X7211461Y40926744D01*
X6539806Y22890014D02*
X6804806Y22890014D01*
X-784579Y38048014D02*
X-2833069Y40096504D01*
X-11958194Y-18358986D02*
X-12278194Y-18358986D01*
X-11958194Y19493014D02*
X-12278194Y19493014D01*
X-12278194Y-37385986D02*
X-12278194Y-37655986D01*
X6804806Y-34659986D02*
X6804806Y-34249986D01*
X41905098Y32227107D02*
X42749806Y31382399D01*
X42749806Y-12617601D02*
X45722883Y-9644524D01*
X6275806Y41110014D02*
X6415806Y41250014D01*
X5696075Y-18928333D02*
X5696075Y-19302532D01*
X24599632Y-14229812D02*
X24943892Y-14574072D01*
X7211461Y39063359D02*
X7302111Y38972709D01*
X-41250194Y-36399986D02*
X-41250194Y-36832371D01*
X-5073960Y-20772144D02*
X-10299528Y-20772144D01*
X24943892Y-14574072D02*
X25579806Y-15209986D01*
X-11337903Y-31396868D02*
X-11337903Y-33597695D01*
X42749806Y-13459986D02*
X42749806Y-13724986D01*
X45722883Y-1228650D02*
X45219219Y-724986D01*
X2449806Y40870014D02*
X2449806Y40437629D01*
X44381306Y5536129D02*
X44381306Y3372399D01*
X-38882394Y33750198D02*
X-41250194Y31382399D01*
X42034064Y-36705729D02*
X42749806Y-35989986D01*
X-11337903Y-33597695D02*
X-11420803Y-33680595D01*
X15883943Y-12212184D02*
X12324344Y-12212184D01*
X-790273Y38852971D02*
X-2450194Y40512891D01*
X-12617809Y41250014D02*
X-13050194Y41250014D01*
X2960188Y-22038419D02*
X5733925Y-24812156D01*
X18618584Y-9477543D02*
X15883943Y-12212184D01*
X-34402606Y-11681773D02*
X-36445819Y-13724986D01*
X15851496Y567014D02*
X7770191Y567014D01*
X-31204194Y-15300986D02*
X-31204194Y-18088986D01*
X7319921Y-40309034D02*
X7681664Y-39947292D01*
X-31295194Y-15209986D02*
X-31204194Y-15300986D01*
X-8812334Y16779539D02*
X-11525809Y19493014D01*
X30274806Y-44086986D02*
X30274806Y-43159986D01*
X-12255194Y22890014D02*
X-12278194Y22867014D01*
X-32194Y38048014D02*
X-82194Y38048014D01*
X5930501Y4459319D02*
X6539806Y3850014D01*
X-41250194Y-35724986D02*
X-41250194Y-36399986D01*
X5569471Y6173833D02*
X5569471Y4820349D01*
X-13030579Y-18358986D02*
X-27038809Y-18358986D01*
%TO.N,LED_D10*%
X-4207446Y-34249986D02*
X-5697809Y-34249986D01*
X26726403Y-13709986D02*
X26820019Y-13709986D01*
X26820019Y-13709986D02*
X26945398Y-13584607D01*
X-6130194Y-34249986D02*
X-6805194Y-34249986D01*
X25844806Y-13709986D02*
X26519806Y-13709986D01*
X26519806Y-13709986D02*
X26726403Y-13709986D01*
X-233621Y-30276162D02*
X-4207446Y-34249986D01*
X-5697809Y-34249986D02*
X-6130194Y-34249986D01*
%TO.N,GND*%
X-12278194Y-38675986D02*
X-11958194Y-38675986D01*
X6275806Y42400014D02*
X6275806Y42644242D01*
X25623806Y-38675986D02*
X25379578Y-38675986D01*
X30345806Y-45355986D02*
X30552403Y-45355986D01*
X-18198194Y39271014D02*
X-18198194Y39515242D01*
X6709616Y-1155492D02*
X6829529Y-1155492D01*
X-7861808Y-32749986D02*
X-7905735Y-32706059D01*
X13136403Y-13709986D02*
X13710779Y-13709986D01*
X-20957194Y37129014D02*
X-20957194Y36696629D01*
X-43001863Y36815686D02*
X-42902821Y36815686D01*
X13211666Y-32749986D02*
X13860624Y-32749986D01*
X6275806Y42130014D02*
X6275806Y42400014D01*
X-42750194Y36663058D02*
X-42750194Y36400014D01*
X43718806Y1690014D02*
X43324053Y1690014D01*
X11579806Y5350014D02*
X11297947Y5350014D01*
X-19145443Y42465294D02*
X-19145443Y42349035D01*
X-22298194Y44998014D02*
X-22298194Y44728014D01*
X-13443194Y-45355986D02*
X-13217781Y-45355986D01*
X-42750194Y-31156583D02*
X-42977198Y-31383588D01*
X40756142Y-6862093D02*
X40756142Y-6856949D01*
X-352194Y37028014D02*
X-32194Y37028014D01*
X26569558Y-452986D02*
X26470403Y-452986D01*
X12254806Y-13709986D02*
X12929806Y-13709986D01*
X-42997729Y-9385303D02*
X-43157042Y-9385303D01*
X44043806Y-2274986D02*
X43799578Y-2274986D01*
X-24754906Y5289230D02*
X-24815690Y5350014D01*
X-38769194Y8182014D02*
X-38366412Y8584795D01*
X43720336Y-2274986D02*
X43637706Y-2192356D01*
X-8275194Y42750014D02*
X-7600194Y42750014D01*
X-42750194Y13725014D02*
X-42750194Y14400014D01*
X-22104488Y45901692D02*
X-22298194Y45707986D01*
X-25170194Y5350014D02*
X-25845194Y5350014D01*
X-26271803Y38082623D02*
X-26207717Y38018537D01*
X-13030579Y18473014D02*
X-15173086Y18473014D01*
X12254806Y-32749986D02*
X12929806Y-32749986D01*
X12929806Y24390014D02*
X13192850Y24390014D01*
X-13217781Y-45355986D02*
X-13125869Y-45355986D01*
X-18198194Y39515242D02*
X-18376370Y39693419D01*
X-20814194Y44728014D02*
X-20864194Y44728014D01*
X45097806Y30027014D02*
X45097806Y30347014D01*
X-24055463Y39549014D02*
X-24363732Y39240745D01*
X-23628500Y-13709986D02*
X-23285377Y-14053110D01*
X7017806Y-722986D02*
X7017806Y-452986D01*
X-8275194Y-40576942D02*
X-8117334Y-40419083D01*
X12929806Y-13709986D02*
X13136403Y-13709986D01*
X35724806Y-41249986D02*
X36399806Y-41249986D01*
X40670841Y13725014D02*
X40420147Y13975707D01*
X41249806Y-7599986D02*
X41249806Y-7355758D01*
X-42750194Y36400014D02*
X-42750194Y35725014D01*
X36832191Y42750014D02*
X39331169Y42750014D01*
X-42750194Y-30949986D02*
X-42750194Y-31156583D01*
X13724806Y42750014D02*
X13724806Y43160014D01*
X-30884194Y-19378986D02*
X-30696412Y-19378986D01*
X-20864194Y44728014D02*
X-21293584Y45157405D01*
X5862306Y38500014D02*
X5199806Y38500014D01*
X31294806Y-13709986D02*
X30619806Y-13709986D01*
X41009440Y36809345D02*
X41009440Y36810835D01*
X-12598194Y-19378986D02*
X-13030579Y-19378986D01*
X40401125Y-30450624D02*
X40401125Y-30578371D01*
X-13763194Y-45355986D02*
X-13443194Y-45355986D01*
X-38365682Y8585525D02*
X-38365682Y8833410D01*
X-6392194Y38512014D02*
X-6147965Y38512014D01*
X-762631Y36994664D02*
X-729281Y37028014D01*
X30619806Y5350014D02*
X30206237Y5350014D01*
X45097806Y-13762986D02*
X45097806Y-14082986D01*
X-18359194Y36387014D02*
X-18359194Y36707014D01*
X-8117334Y-40419083D02*
X-8117334Y-40416081D01*
X36790157Y-41028601D02*
X36808935Y-41028601D01*
X-42902821Y36815686D02*
X-42750194Y36663058D01*
X13192850Y24390014D02*
X13266742Y24390014D01*
X30337947Y-32749986D02*
X30234453Y-32749986D01*
X30619806Y-13709986D02*
X30337947Y-13709986D01*
X-20957194Y36696629D02*
X-20957194Y36191975D01*
X-30696412Y-19378986D02*
X-30593898Y-19378986D01*
X-7724422Y-32749986D02*
X-7861808Y-32749986D01*
X-7167809Y42750014D02*
X-6815193Y42750014D01*
X-11551679Y-38457253D02*
X-11535560Y-38457253D01*
X-26701194Y38512014D02*
X-26271803Y38082623D01*
X-17052194Y45099014D02*
X-17484579Y45099014D01*
X40839806Y13725014D02*
X40670841Y13725014D01*
X30277663Y-13709986D02*
X30203828Y-13636151D01*
X-3250194Y42526611D02*
X-3046706Y42730099D01*
X-7649159Y5350014D02*
X-7763371Y5350014D01*
X-35501597Y38512014D02*
X-35285333Y38728277D01*
X7017806Y17958785D02*
X6857031Y17798010D01*
X-8212848Y-13709986D02*
X-8305182Y-13617652D01*
X13724806Y43503577D02*
X13633408Y43594976D01*
X26685882Y-336662D02*
X26569558Y-452986D01*
X14810836Y-41416788D02*
X14810836Y-41528799D01*
X8451806Y44450014D02*
X8131806Y44450014D01*
X-38499194Y-36027986D02*
X-38104440Y-36027986D01*
X-42750194Y14735125D02*
X-42666517Y14818802D01*
X13266742Y24390014D02*
X13358658Y24481930D01*
X-38091471Y-36027986D02*
X-38089824Y-36026340D01*
X-23460194Y39549014D02*
X-23817316Y39549014D01*
X13710779Y-13709986D02*
X14217185Y-14216391D01*
X-19145443Y42349035D02*
X-18967422Y42171014D01*
X-12278194Y18473014D02*
X-12598194Y18473014D01*
X-6815193Y42750014D02*
X-6480388Y43084819D01*
X-35285333Y38728277D02*
X-35285333Y38880872D01*
X30194037Y5350014D02*
X30192055Y5351996D01*
X4782899Y38653877D02*
X4771993Y38653877D01*
X-30715228Y-452986D02*
X-30485774Y-223532D01*
X-42750194Y14400014D02*
X-42750194Y14663058D01*
X8746492Y44450014D02*
X8639588Y44450014D01*
X-7480194Y-13709986D02*
X-7912579Y-13709986D01*
X30025806Y-45355986D02*
X30345806Y-45355986D01*
X30337947Y-13709986D02*
X30277663Y-13709986D01*
X41249806Y-7355758D02*
X40756142Y-6862093D01*
X-17896194Y45099014D02*
X-18216194Y45099014D01*
X7017806Y-38675986D02*
X7017806Y-38945986D01*
X-26751194Y38512014D02*
X-26701194Y38512014D01*
X3249806Y41595014D02*
X3249806Y40870014D01*
X25943806Y-19378986D02*
X26263806Y-19378986D01*
X7017806Y-19378986D02*
X7337806Y-19378986D01*
X-38769194Y8132014D02*
X-38769194Y8182014D01*
X-26207717Y38018537D02*
X-26207717Y37853456D01*
X26263806Y-452986D02*
X25943806Y-452986D01*
X35724806Y42750014D02*
X36399806Y42750014D01*
X-30275194Y42750014D02*
X-30950194Y42750014D01*
X7017806Y-38945986D02*
X7017806Y-39171399D01*
X40420147Y13975707D02*
X40420147Y14134445D01*
X25379578Y-38675986D02*
X25217310Y-38838254D01*
X-8275194Y-40839986D02*
X-8275194Y-40576942D01*
X45097806Y30722952D02*
X45097806Y30759031D01*
X45097806Y-14959214D02*
X44760542Y-15296478D01*
X31294806Y-32749986D02*
X30619806Y-32749986D01*
X7017806Y-967215D02*
X7017806Y-722986D01*
X6275806Y42717141D02*
X6374935Y42816270D01*
X3075719Y40451698D02*
X2960226Y40451698D01*
X-42977198Y-31383588D02*
X-43111003Y-31383588D01*
X-31340068Y42750014D02*
X-31373537Y42716545D01*
X44518806Y-2274986D02*
X44043806Y-2274986D01*
X8639588Y44450014D02*
X8451806Y44450014D01*
X-25845194Y-13709986D02*
X-25170194Y-13709986D01*
X7600850Y-19378986D02*
X7669813Y-19378986D01*
X-6805194Y-32749986D02*
X-7480194Y-32749986D01*
X7017806Y18203014D02*
X7017806Y17958785D01*
X39331169Y42750014D02*
X40408842Y43827687D01*
X-31232053Y42750014D02*
X-31340068Y42750014D01*
X-30485774Y-223532D02*
X-30485774Y-86891D01*
X4936762Y38500014D02*
X4782899Y38653877D01*
X-18216194Y46115198D02*
X-18216194Y45801399D01*
X7669813Y-19378986D02*
X7756229Y-19292571D01*
X-7763371Y5350014D02*
X-7897692Y5484334D01*
X-13030579Y-19378986D02*
X-13713363Y-19378986D01*
X-30950194Y42750014D02*
X-31232053Y42750014D01*
X5199806Y38500014D02*
X4936762Y38500014D01*
X-24815690Y5350014D02*
X-24982412Y5350014D01*
X-6147965Y38512014D02*
X-5966686Y38330735D01*
X45097806Y-14515371D02*
X45097806Y-14959214D01*
X-42750194Y14663058D02*
X-42750194Y14735125D01*
X30206237Y5350014D02*
X30194037Y5350014D01*
X26263806Y-19378986D02*
X26489219Y-19378986D01*
X41249806Y36400014D02*
X41249806Y36568980D01*
X-21293584Y45157405D02*
X-21346752Y45210572D01*
X8881711Y44585233D02*
X8746492Y44450014D01*
X7017806Y-39253767D02*
X7125682Y-39361643D01*
X7017806Y-39171399D02*
X7017806Y-39253767D01*
X-5966686Y38330735D02*
X-5966686Y38219734D01*
X-13125869Y-45355986D02*
X-13010382Y-45240500D01*
X45097806Y30759031D02*
X45087428Y30769409D01*
X-20010677Y42173117D02*
X-19999037Y42173117D01*
X-3250194Y41595014D02*
X-3250194Y42320014D01*
X-35708194Y38512014D02*
X-35501597Y38512014D01*
X-38104440Y-36027986D02*
X-38091471Y-36027986D01*
X-7838636Y24390014D02*
X-7888484Y24340166D01*
X11238700Y5350014D02*
X11162464Y5426250D01*
X41249806Y-30274986D02*
X40839806Y-30274986D01*
X-42750194Y-9137767D02*
X-42997729Y-9385303D01*
X40839806Y-30274986D02*
X40576762Y-30274986D01*
X-23817316Y39549014D02*
X-24055463Y39549014D01*
X-20957194Y36191975D02*
X-21250467Y35898701D01*
X-11713965Y-452986D02*
X-11551450Y-290471D01*
X44381306Y1690014D02*
X43718806Y1690014D01*
X12254806Y5350014D02*
X11579806Y5350014D01*
X-6805194Y-13709986D02*
X-7480194Y-13709986D01*
X-17808722Y46522670D02*
X-18216194Y46115198D01*
X-7480194Y-32749986D02*
X-7724422Y-32749986D01*
X41249806Y36568980D02*
X41009440Y36809345D01*
X-42750194Y-8274986D02*
X-42750194Y-8949986D01*
X-24756624Y-13709986D02*
X-23628500Y-13709986D01*
X-7480194Y5350014D02*
X-7649159Y5350014D01*
X-11958194Y-452986D02*
X-11713965Y-452986D01*
X26489219Y-19378986D02*
X26659526Y-19208679D01*
X43310974Y1690014D02*
X43309380Y1691608D01*
X-20660194Y41749014D02*
X-20434781Y41749014D01*
X41249806Y35725014D02*
X41249806Y36400014D01*
X-12598194Y18473014D02*
X-13030579Y18473014D01*
X-6805194Y24390014D02*
X-7480194Y24390014D01*
X-21260194Y41749014D02*
X-20660194Y41749014D01*
X-18198194Y38571014D02*
X-18198194Y39271014D01*
X13860624Y-32749986D02*
X14189307Y-33078669D01*
X-18967422Y42171014D02*
X-18723194Y42171014D01*
X-30275194Y-41249986D02*
X-30275194Y-40839986D01*
X-7912579Y-13709986D02*
X-8212848Y-13709986D01*
X13724806Y-41249986D02*
X14399806Y-41249986D01*
X-3250194Y42320014D02*
X-3250194Y42526611D01*
X30619806Y-32749986D02*
X30337947Y-32749986D01*
X-11770412Y-38675986D02*
X-11551679Y-38457253D01*
X12254806Y24390014D02*
X12929806Y24390014D01*
X-20957194Y37449014D02*
X-20957194Y37129014D01*
X-11958194Y-38675986D02*
X-11770412Y-38675986D01*
X-22298194Y45166980D02*
X-22298194Y44998014D01*
X-7600194Y42750014D02*
X-7167809Y42750014D01*
X7337806Y-19378986D02*
X7600850Y-19378986D01*
X-36028194Y38512014D02*
X-35708194Y38512014D01*
X-13713363Y-19378986D02*
X-13778045Y-19314304D01*
X41249806Y-8274986D02*
X41249806Y-7599986D01*
X45097806Y30347014D02*
X45097806Y30722952D01*
X-24982412Y5350014D02*
X-25170194Y5350014D01*
X-18359194Y36142785D02*
X-18359194Y36387014D01*
X-38769194Y-36027986D02*
X-38499194Y-36027986D01*
X-22298194Y45707986D02*
X-22298194Y45166980D01*
X-15173086Y18473014D02*
X-15773292Y19073220D01*
X43324053Y1690014D02*
X43310974Y1690014D01*
X43799578Y-2274986D02*
X43720336Y-2274986D01*
X13724806Y43423058D02*
X13724806Y43503577D01*
X14644035Y-41249986D02*
X14810836Y-41416788D01*
X-30593898Y-19378986D02*
X-30475150Y-19497734D01*
X36399806Y-41249986D02*
X36568772Y-41249986D01*
X3249806Y40625785D02*
X3075719Y40451698D01*
X-21346752Y45210572D02*
X-21346752Y45343957D01*
X31294806Y5350014D02*
X30619806Y5350014D01*
X26659526Y-19208679D02*
X26670835Y-19208679D01*
X-22860194Y39549014D02*
X-23460194Y39549014D01*
X-31204194Y-19378986D02*
X-30884194Y-19378986D01*
X-25170194Y-13709986D02*
X-24756624Y-13709986D01*
X-31204194Y-452986D02*
X-30884194Y-452986D01*
X25217310Y-38838254D02*
X25203042Y-38838254D01*
X-6805194Y5350014D02*
X-7480194Y5350014D01*
X-6712194Y38512014D02*
X-6392194Y38512014D01*
X41249806Y13725014D02*
X40839806Y13725014D01*
X-7686791Y24390014D02*
X-7838636Y24390014D01*
X25943806Y-38675986D02*
X25623806Y-38675986D01*
X-30275194Y-40839986D02*
X-30275194Y-40407601D01*
X13724806Y43160014D02*
X13724806Y43423058D01*
X36399806Y42750014D02*
X36832191Y42750014D01*
X-11551450Y-290471D02*
X-11551450Y-10063D01*
X36568772Y-41249986D02*
X36790157Y-41028601D01*
X-12278194Y-19378986D02*
X-12598194Y-19378986D01*
X-3046706Y42730099D02*
X-3046706Y42738237D01*
X-18723194Y42171014D02*
X-18198194Y42171014D01*
X-729281Y37028014D02*
X-634053Y37028014D01*
X6275806Y42644242D02*
X6275806Y42717141D01*
X6857031Y17798010D02*
X6759151Y17798010D01*
X-8275194Y-41249986D02*
X-8275194Y-40839986D01*
X-16809863Y33453146D02*
X-16809863Y34593455D01*
X-42750194Y-30274986D02*
X-42750194Y-30949986D01*
X-7480194Y24390014D02*
X-7686791Y24390014D01*
X12929806Y-32749986D02*
X13211666Y-32749986D01*
X-18376370Y39693419D02*
X-18487024Y39693419D01*
X7017806Y18473014D02*
X7017806Y18203014D01*
X30709049Y-45355986D02*
X30761907Y-45303128D01*
X-12278194Y-452986D02*
X-11958194Y-452986D01*
X6829529Y-1155492D02*
X7017806Y-967215D01*
X-17484579Y45099014D02*
X-17896194Y45099014D01*
X-38366412Y8584795D02*
X-38365682Y8585525D01*
X-18216194Y45369014D02*
X-18216194Y45099014D01*
X-16809863Y34593455D02*
X-18359194Y36142785D01*
X-18216194Y45801399D02*
X-18216194Y45369014D01*
X14399806Y-41249986D02*
X14644035Y-41249986D01*
X3249806Y40870014D02*
X3249806Y40625785D01*
X45097806Y-14082986D02*
X45097806Y-14515371D01*
X-30884194Y-452986D02*
X-30715228Y-452986D01*
X11297947Y5350014D02*
X11238700Y5350014D01*
X40576762Y-30274986D02*
X40401125Y-30450624D01*
X-16732194Y45099014D02*
X-17052194Y45099014D01*
X-42750194Y-8949986D02*
X-42750194Y-9137767D01*
X30552403Y-45355986D02*
X30709049Y-45355986D01*
X-634053Y37028014D02*
X-352194Y37028014D01*
X26470403Y-452986D02*
X26263806Y-452986D01*
X30234453Y-32749986D02*
X30198408Y-32713941D01*
X-20434781Y41749014D02*
X-20010677Y42173117D01*
%TO.N,LED_D9*%
X30187421Y-15209986D02*
X29241139Y-14263704D01*
X16472804Y-10023680D02*
X14076889Y-10023680D01*
X30619806Y-15209986D02*
X30187421Y-15209986D01*
X29241139Y-14263704D02*
X28863402Y-14263704D01*
X14076889Y-10023680D02*
X10390582Y-13709986D01*
X31294806Y-15209986D02*
X30619806Y-15209986D01*
X7912191Y-13709986D02*
X7479806Y-13709986D01*
X10390582Y-13709986D02*
X7912191Y-13709986D01*
X7479806Y-13709986D02*
X6804806Y-13709986D01*
%TO.N,UG_D6*%
X43006307Y5411129D02*
X41249806Y7167629D01*
X41249806Y7167629D02*
X41249806Y7600014D01*
X43024553Y1048079D02*
X42768807Y1690179D01*
X41249806Y7600014D02*
X41249806Y8275014D01*
X42768807Y1690179D02*
X43006307Y2315096D01*
X43006307Y2315096D02*
X43006307Y5411129D01*
X42749806Y-7167601D02*
X43024553Y-6892854D01*
X43024553Y-6892854D02*
X43024553Y1048079D01*
X42749806Y-8274986D02*
X42749806Y-7599986D01*
X42749806Y-7599986D02*
X42749806Y-7167601D01*
%TO.N,UG_D5*%
X42749806Y27667629D02*
X42749806Y14832399D01*
X42749806Y14832399D02*
X42749806Y14400014D01*
X41249806Y29600014D02*
X41249806Y29167629D01*
X41249806Y29167629D02*
X42749806Y27667629D01*
X41249806Y30275014D02*
X41249806Y29600014D01*
X42749806Y14400014D02*
X42749806Y13725014D01*
%TO.N,UG_D9*%
X30274806Y-40576942D02*
X30274806Y-40839986D01*
X30274806Y-40457614D02*
X30274806Y-40576942D01*
X14399806Y-42749986D02*
X13724806Y-42749986D01*
X30274806Y-40839986D02*
X30274806Y-41249986D01*
X17650829Y-42271766D02*
X17172608Y-42749986D01*
X14832191Y-42749986D02*
X14399806Y-42749986D01*
X17172608Y-42749986D02*
X14832191Y-42749986D01*
X30237482Y-40420290D02*
X30274806Y-40457614D01*
%TO.N,UG_D8*%
X41249806Y-35459986D02*
X41845807Y-34863986D01*
X40450934Y-39131243D02*
X36832191Y-42749986D01*
X41845807Y-34863986D02*
X41921912Y-34787881D01*
X40761544Y-39131243D02*
X40450934Y-39131243D01*
X36832191Y-42749986D02*
X36399806Y-42749986D01*
X43512618Y-35072799D02*
X43512618Y-36380169D01*
X43512618Y-36380169D02*
X40761544Y-39131243D01*
X36399806Y-42749986D02*
X35724806Y-42749986D01*
X43227699Y-34787881D02*
X43512618Y-35072799D01*
X41921912Y-34787881D02*
X43227699Y-34787881D01*
X41249806Y-35724986D02*
X41249806Y-35459986D01*
%TO.N,V3V3*%
X-22923936Y43132271D02*
X-25015970Y43132271D01*
X-32694946Y43708014D02*
X-33305578Y44318645D01*
X-21978194Y43708014D02*
X-22298194Y43708014D01*
X30127806Y28272514D02*
X30736049Y27664271D01*
X-18266194Y44079014D02*
X-18688230Y44501050D01*
X-22298194Y43708014D02*
X-22348194Y43708014D01*
X-22348194Y43708014D02*
X-22923936Y43132271D01*
X-33913694Y44927264D02*
X-34216194Y45230014D01*
X-18216194Y44079014D02*
X-18266194Y44079014D01*
X42106306Y1040014D02*
X42106306Y1340689D01*
X-22618194Y43708014D02*
X-23050579Y43708014D01*
X32022806Y26377514D02*
X32325306Y26075014D01*
X42106306Y1340689D02*
X36736601Y6710395D01*
X-33305578Y44318645D02*
X-33913694Y44927264D01*
X-20494194Y43708014D02*
X-20814194Y43708014D01*
X31427869Y26972452D02*
X32022806Y26377514D01*
X-20061809Y43708014D02*
X-20494194Y43708014D01*
X-25015970Y43132271D02*
X-25388136Y42760106D01*
X-17896194Y44079014D02*
X-17484579Y44079014D01*
X-18688230Y44501050D02*
X-19268772Y44501050D01*
X32325306Y25647014D02*
X32325306Y26075014D01*
X32325306Y24786629D02*
X32325306Y25647014D01*
X-19268772Y44501050D02*
X-20061809Y43708014D01*
X-16732194Y44079014D02*
X-16682194Y44079014D01*
X-17484579Y44079014D02*
X-17052194Y44079014D01*
X-16106451Y44654756D02*
X-15454968Y45306240D01*
X42106306Y740014D02*
X42106306Y1040014D01*
X36736601Y20375334D02*
X32325306Y24786629D01*
X-20814194Y43708014D02*
X-21134194Y43708014D01*
X29825306Y28575014D02*
X30127806Y28272514D01*
X-21134194Y43708014D02*
X-21545809Y43708014D01*
X-15454968Y45306240D02*
X-14688138Y45306240D01*
X-21545809Y43708014D02*
X-21978194Y43708014D01*
X36736601Y6710395D02*
X36736601Y20375334D01*
X-17052194Y44079014D02*
X-16732194Y44079014D01*
X-22298194Y43708014D02*
X-22618194Y43708014D01*
X-23050579Y43708014D02*
X-32694946Y43708014D01*
X30736049Y27664271D02*
X31427869Y26972452D01*
X-16682194Y44079014D02*
X-16106451Y44654756D01*
X-18216194Y44079014D02*
X-17896194Y44079014D01*
%TO.N,HSE_IN*%
X-22086108Y40474928D02*
X-21260194Y39649014D01*
X-21260194Y39649014D02*
X-21260194Y39549014D01*
X-21977194Y38126136D02*
X-21260194Y38843136D01*
X-21260194Y38849014D02*
X-21260194Y39549014D01*
X-21260194Y38843136D02*
X-21260194Y38849014D01*
X-21977194Y37769014D02*
X-21977194Y38126136D01*
X-23899681Y40492025D02*
X-22103205Y40492025D01*
X-22103205Y40492025D02*
X-22086108Y40474928D01*
X-21977194Y37449014D02*
X-21977194Y37769014D01*
%TO.N,HSE_OUT*%
X-23160194Y41897173D02*
X-22860194Y41749014D01*
X-26751194Y39532014D02*
X-26431194Y39532014D01*
X-26431194Y39532014D02*
X-25998809Y39532014D01*
X-23460194Y42045333D02*
X-23160194Y41897173D01*
X-24158177Y42045333D02*
X-23460194Y42045333D01*
X-26751194Y39802014D02*
X-26751194Y39532014D01*
X-26751194Y40234399D02*
X-26751194Y39802014D01*
X-25998809Y39532014D02*
X-25079900Y40450922D01*
X-25079900Y40450922D02*
X-25079900Y41123609D01*
X-25079900Y41123609D02*
X-24158177Y42045333D01*
X-26751194Y40803095D02*
X-26751194Y40234399D01*
X-26036384Y41517905D02*
X-26751194Y40803095D01*
%TO.N,NRST*%
X-19299973Y41393141D02*
X-19302855Y41390259D01*
X-18596230Y41117227D02*
X-18680224Y41201221D01*
X-16758194Y42171014D02*
X-16758194Y41471014D01*
X-15927451Y40421247D02*
X-15927451Y41165271D01*
X-16758194Y39271014D02*
X-16758194Y39590505D01*
X-15927451Y41165271D02*
X-16758194Y41996014D01*
X-16758194Y41471014D02*
X-16758194Y41189154D01*
X-16758194Y38571014D02*
X-16758194Y39271014D01*
X-19302855Y41390259D02*
X-19342760Y41390259D01*
X-18680224Y41201221D02*
X-19299973Y41393141D01*
X-16830120Y41117227D02*
X-18596230Y41117227D01*
X-16758194Y41996014D02*
X-16758194Y42171014D01*
X-16758194Y41189154D02*
X-16830120Y41117227D01*
X-16758194Y39590505D02*
X-15927451Y40421247D01*
%TO.N,LED_D8*%
X11335578Y-15209986D02*
X11579806Y-15209986D01*
X-9099279Y-15080097D02*
X-9936069Y-14243307D01*
X-11580194Y-13709986D02*
X-12255194Y-13709986D01*
X-11147809Y-13709986D02*
X-11580194Y-13709986D01*
X11579806Y-15209986D02*
X12254806Y-15209986D01*
X-10614487Y-14243307D02*
X-11147809Y-13709986D01*
X-9936069Y-14243307D02*
X-10614487Y-14243307D01*
X11162486Y-15383078D02*
X11335578Y-15209986D01*
X11162486Y-15481570D02*
X11162486Y-15383078D01*
%TO.N,LED_D7*%
X-9941521Y-13068150D02*
X-29545972Y-13068150D01*
X-7799685Y-15209986D02*
X-9941521Y-13068150D01*
X-30620194Y-13709986D02*
X-31295194Y-13709986D01*
X-30187809Y-13709986D02*
X-30620194Y-13709986D01*
X-7480194Y-15209986D02*
X-7799685Y-15209986D01*
X-29545972Y-13068150D02*
X-30187809Y-13709986D01*
X-6805194Y-15209986D02*
X-7480194Y-15209986D01*
%TO.N,UG_D4*%
X40388994Y39193211D02*
X42749806Y36832399D01*
X34826100Y39193211D02*
X40388994Y39193211D01*
X30274806Y42750014D02*
X30949806Y42750014D01*
X30949806Y42750014D02*
X31269297Y42750014D01*
X42749806Y36832399D02*
X42749806Y36400014D01*
X31269297Y42750014D02*
X34826100Y39193211D01*
X42749806Y36400014D02*
X42749806Y35725014D01*
%TO.N,LED_D4*%
X-11580194Y5350014D02*
X-12255194Y5350014D01*
X-11147809Y5350014D02*
X-11580194Y5350014D01*
X5371715Y7569263D02*
X7428172Y7569263D01*
X7428172Y7569263D02*
X11147421Y3850014D01*
X11147421Y3850014D02*
X11579806Y3850014D01*
X-10268391Y6229432D02*
X-11147809Y5350014D01*
X-788882Y6955556D02*
X-1515006Y6229432D01*
X11579806Y3850014D02*
X12254806Y3850014D01*
X-1515006Y6229432D02*
X-10268391Y6229432D01*
%TO.N,LED_D3*%
X-13354704Y5001970D02*
X-13354704Y5306154D01*
X-12941288Y4588554D02*
X-13354704Y5001970D01*
X-14053012Y6004462D02*
X-29533360Y6004462D01*
X-13354704Y5306154D02*
X-14053012Y6004462D01*
X-7480194Y3850014D02*
X-7912579Y3850014D01*
X-7912579Y3850014D02*
X-8651119Y4588554D01*
X-30187809Y5350014D02*
X-30620194Y5350014D01*
X-6805194Y3850014D02*
X-7480194Y3850014D01*
X-29533360Y6004462D02*
X-30187809Y5350014D01*
X-8651119Y4588554D02*
X-12941288Y4588554D01*
X-30620194Y5350014D02*
X-31295194Y5350014D01*
%TO.N,UG_D2*%
X-12617809Y42750014D02*
X-10095591Y42750014D01*
X7087918Y43749325D02*
X10231005Y43749325D01*
X-13050194Y42750014D02*
X-12617809Y42750014D01*
X-10095591Y42750014D02*
X-7930423Y44915182D01*
X-7930423Y44915182D02*
X5922060Y44915182D01*
X12730315Y41250014D02*
X13049806Y41250014D01*
X-13725194Y42750014D02*
X-13050194Y42750014D01*
X10231005Y43749325D02*
X12730315Y41250014D01*
X13049806Y41250014D02*
X13724806Y41250014D01*
X5922060Y44915182D02*
X7087918Y43749325D01*
%TO.N,UG_D1*%
X-34617809Y42750014D02*
X-35050194Y42750014D01*
X-14728404Y41941182D02*
X-15909832Y43122609D01*
X-24229008Y42787385D02*
X-24753306Y42263088D01*
X-9382579Y41250014D02*
X-10073747Y41941182D01*
X-10073747Y41941182D02*
X-14728404Y41941182D01*
X-15909832Y43122609D02*
X-20957534Y43122609D01*
X-8275194Y41250014D02*
X-8950194Y41250014D01*
X-33917831Y42050037D02*
X-34617809Y42750014D01*
X-24753306Y42263088D02*
X-28525516Y42263088D01*
X-20957534Y43122609D02*
X-21292757Y42787385D01*
X-21292757Y42787385D02*
X-24229008Y42787385D01*
X-35050194Y42750014D02*
X-35725194Y42750014D01*
X-8950194Y41250014D02*
X-9382579Y41250014D01*
X-28525516Y42263088D02*
X-28738568Y42050037D01*
X-28738568Y42050037D02*
X-33917831Y42050037D01*
%TO.N,ROW1*%
X27035421Y15425014D02*
X11064191Y15425014D01*
X-10632194Y15425014D02*
X-9525194Y15425014D01*
X-11064579Y15425014D02*
X-10632194Y15425014D01*
X-28575194Y15425014D02*
X-27468194Y15425014D01*
X27467806Y15425014D02*
X27035421Y15425014D01*
X10631806Y15425014D02*
X9524806Y15425014D01*
X28574806Y15425014D02*
X27467806Y15425014D01*
X-27035809Y15425014D02*
X-11064579Y15425014D01*
X11064191Y15425014D02*
X10631806Y15425014D01*
X-27468194Y15425014D02*
X-27035809Y15425014D01*
%TO.N,LED_D6*%
X24723609Y4493816D02*
X25023720Y4793928D01*
X-24737809Y-15209986D02*
X-25170194Y-15209986D01*
X24723609Y3407363D02*
X24723609Y4493816D01*
X25579806Y5350014D02*
X25844806Y5350014D01*
X-18710088Y-16484613D02*
X-19984715Y-15209986D01*
X22446787Y1368544D02*
X22684789Y1368544D01*
X25023720Y4793928D02*
X25579806Y5350014D01*
X-19984715Y-15209986D02*
X-24737809Y-15209986D01*
X22684789Y1368544D02*
X24723609Y3407363D01*
X-25170194Y-15209986D02*
X-25845194Y-15209986D01*
%TO.N,UG_D10*%
X9288680Y-43166837D02*
X9288680Y-41998859D01*
X-6392605Y-43525190D02*
X8930326Y-43525190D01*
X9109197Y-41819377D02*
X8539806Y-41249986D01*
X9288680Y-41998859D02*
X9109197Y-41819377D01*
X-7167809Y-42749986D02*
X-6392605Y-43525190D01*
X-7600194Y-42749986D02*
X-7167809Y-42749986D01*
X8930326Y-43525190D02*
X9288680Y-43166837D01*
X8539806Y-41249986D02*
X8274806Y-41249986D01*
X-8275194Y-42749986D02*
X-7600194Y-42749986D01*
%TO.N,BOOT0*%
X-18968608Y35675753D02*
X-19379194Y36086338D01*
X-19379194Y36387014D02*
X-19379194Y36707014D01*
X-19379194Y36086338D02*
X-19379194Y36387014D01*
X-18683576Y35675753D02*
X-18968608Y35675753D01*
%TO.N,UG_D12*%
X-39286076Y-36846719D02*
X-39286076Y-33346489D01*
X-39286076Y-33346489D02*
X-41250194Y-31382371D01*
X-41250194Y-30949986D02*
X-41250194Y-30274986D01*
X-35725194Y-40839986D02*
X-35725194Y-40407601D01*
X-35725194Y-41249986D02*
X-35725194Y-40839986D01*
X-35725194Y-40407601D02*
X-39286076Y-36846719D01*
X-41250194Y-31382371D02*
X-41250194Y-30949986D01*
%TO.N,UG_D11*%
X-14400194Y-41249986D02*
X-14832579Y-41249986D01*
X-29600194Y-42749986D02*
X-30275194Y-42749986D01*
X-13725194Y-41249986D02*
X-14400194Y-41249986D01*
X-29167809Y-42749986D02*
X-29600194Y-42749986D01*
X-14832579Y-41249986D02*
X-27667809Y-41249986D01*
X-27667809Y-41249986D02*
X-29167809Y-42749986D01*
%TO.N,ROW2*%
X-7985809Y-3624986D02*
X-8418194Y-3624986D01*
X7985421Y-3624986D02*
X-7985809Y-3624986D01*
X-27035809Y-3624986D02*
X-11064579Y-3624986D01*
X-10632194Y-3624986D02*
X-9525194Y-3624986D01*
X9524806Y-3624986D02*
X8417806Y-3624986D01*
X-11064579Y-3624986D02*
X-10632194Y-3624986D01*
X-27468194Y-3624986D02*
X-27035809Y-3624986D01*
X-8418194Y-3624986D02*
X-9525194Y-3624986D01*
X-28575194Y-3624986D02*
X-27468194Y-3624986D01*
X8417806Y-3624986D02*
X7985421Y-3624986D01*
%TO.N,ROW0*%
X-10613338Y35563854D02*
X-9916444Y34866514D01*
X8436662Y33386174D02*
X7436703Y32386215D01*
X9524806Y34475014D02*
X9133556Y34083514D01*
X7436703Y32386215D02*
X6733225Y32386215D01*
X-14997513Y41239887D02*
X-14997513Y39948029D01*
X9133556Y34083514D02*
X8436662Y33386174D01*
X-9916444Y34866514D02*
X-9525194Y34475014D01*
X-14997513Y39948029D02*
X-10613338Y35563854D01*
%TO.N,UG_D15*%
X-42750194Y8275014D02*
X-42750194Y8950014D01*
X-43390423Y10022628D02*
X-43390423Y32590294D01*
X-41250194Y34730523D02*
X-41250194Y35050014D01*
X-42750194Y8950014D02*
X-42750194Y9382399D01*
X-42750194Y9382399D02*
X-43390423Y10022628D01*
X-43390423Y32590294D02*
X-41250194Y34730523D01*
X-41250194Y35050014D02*
X-41250194Y35725014D01*
%TO.N,UG_D14*%
X-41250194Y12617629D02*
X-41250194Y13050014D01*
X-41250194Y10591010D02*
X-41250194Y12617629D01*
X-42750194Y-13049986D02*
X-42750194Y-13724986D01*
X-40639908Y-10507316D02*
X-42750194Y-12617601D01*
X-42750194Y-12617601D02*
X-42750194Y-13049986D01*
X-41250194Y13050014D02*
X-41250194Y13725014D01*
X-41021425Y10362242D02*
X-41250194Y10591010D01*
X-40639908Y-9301592D02*
X-40639908Y-10507316D01*
%TO.N,LED_D1*%
X11579806Y22890014D02*
X11147421Y22890014D01*
X-521559Y25249664D02*
X-10288158Y25249664D01*
X-11580194Y24390014D02*
X-12255194Y24390014D01*
X-11147809Y24390014D02*
X-11580194Y24390014D01*
X12254806Y22890014D02*
X11579806Y22890014D01*
X10837872Y22890014D02*
X10727918Y22999967D01*
X2596565Y28367787D02*
X-521559Y25249664D01*
X11147421Y22890014D02*
X10837872Y22890014D01*
X-10288158Y25249664D02*
X-11147809Y24390014D01*
%TO.N,LED_D0*%
X-6805194Y22890014D02*
X-7480194Y22890014D01*
X-7480194Y22890014D02*
X-7705606Y22890014D01*
X-7705606Y22890014D02*
X-7894960Y22700660D01*
X-7894960Y22700660D02*
X-7894960Y22586394D01*
%TO.N,TOUCH*%
X-28575194Y-23613601D02*
X-28575194Y-26310486D01*
X-26517600Y-20826922D02*
X-26517600Y-21556008D01*
X-28575194Y-26310486D02*
X-28575194Y-28574986D01*
X-26517600Y-21556008D02*
X-28575194Y-23613601D01*
%TO.N,KEY8*%
X-4524944Y-6278486D02*
X-4524498Y-7264371D01*
X-4525194Y-5724986D02*
X-4524944Y-6278486D01*
X-4524498Y-7264371D02*
X-4524498Y-14449495D01*
X-4524498Y-14449495D02*
X-3442878Y-15531115D01*
%TO.N,ROW3*%
X28574806Y-22674986D02*
X27467806Y-22674986D01*
X11064191Y-22674986D02*
X10631806Y-22674986D01*
X27035421Y-22674986D02*
X11064191Y-22674986D01*
X10631806Y-22674986D02*
X9524806Y-22674986D01*
X27467806Y-22674986D02*
X27035421Y-22674986D01*
%TO.N,KEY2*%
X14525502Y30835629D02*
X14525056Y31821514D01*
X14525502Y22893933D02*
X14525502Y30835629D01*
X15088832Y22330603D02*
X14525502Y22893933D01*
X14525056Y31821514D02*
X14524806Y32375014D01*
%TO.N,LED_D2*%
X-9132030Y1685108D02*
X-11822524Y-1005386D01*
X7970977Y23488843D02*
X7652502Y23807318D01*
X-11822524Y-1005386D02*
X-19882408Y-1005386D01*
X7970977Y20042726D02*
X7970977Y23488843D01*
X-24737809Y3850014D02*
X-25170194Y3850014D01*
X-19882408Y-1005386D02*
X-24737809Y3850014D01*
X7652502Y23807318D02*
X7069806Y24390014D01*
X-25170194Y3850014D02*
X-25845194Y3850014D01*
X7069806Y24390014D02*
X6804806Y24390014D01*
%TO.N,UG_D7*%
X42749806Y-29167601D02*
X42749806Y-29599986D01*
X42749806Y-16332371D02*
X42749806Y-29167601D01*
X41249806Y-14832371D02*
X42749806Y-16332371D01*
X41249806Y-13724986D02*
X41249806Y-14399986D01*
X41249806Y-14399986D02*
X41249806Y-14832371D01*
X42749806Y-29599986D02*
X42749806Y-30274986D01*
%TO.N,LED_D5*%
X30619806Y3850014D02*
X30300315Y3850014D01*
X28051573Y6098757D02*
X19554158Y6098757D01*
X30300315Y3850014D02*
X28051573Y6098757D01*
X31294806Y3850014D02*
X30619806Y3850014D01*
X9941983Y3207329D02*
X7799297Y5350014D01*
X19554158Y6098757D02*
X16662730Y3207329D01*
X7479806Y5350014D02*
X6804806Y5350014D01*
X7799297Y5350014D02*
X7479806Y5350014D01*
X16662730Y3207329D02*
X9941983Y3207329D01*
%TO.N,CC2*%
X-5950998Y39278600D02*
X-5949360Y39278600D01*
X-6712194Y39532014D02*
X-6392194Y39532014D01*
X-6204412Y39532014D02*
X-5950998Y39278600D01*
X-2791100Y43793305D02*
X-4943262Y43793305D01*
X-1750194Y42320014D02*
X-1750194Y42752399D01*
X-1750194Y42752399D02*
X-2791100Y43793305D01*
X-1750194Y41595014D02*
X-1750194Y42320014D01*
X-4943262Y43793305D02*
X-6291701Y42444866D01*
X-6392194Y39532014D02*
X-6204412Y39532014D01*
X-6291701Y42444866D02*
X-6291701Y40600374D01*
%TO.N,ENC_SW*%
X-19914604Y36024423D02*
X-19914604Y39913843D01*
X-19751759Y28838049D02*
X-19751759Y35861578D01*
X-21074694Y26075014D02*
X-21074944Y26578514D01*
X-21074944Y26578514D02*
X-21075408Y27514399D01*
X-19751759Y35861578D02*
X-19914604Y36024423D01*
X-21075408Y27514399D02*
X-19751759Y28838049D01*
%TO.N,LED_D12*%
X30300315Y-34249986D02*
X30619806Y-34249986D01*
X7912191Y-32749986D02*
X8552026Y-32110151D01*
X8552026Y-32110151D02*
X28160481Y-32110151D01*
X7479806Y-32749986D02*
X7912191Y-32749986D01*
X30619806Y-34249986D02*
X31294806Y-34249986D01*
X28160481Y-32110151D02*
X30300315Y-34249986D01*
X6804806Y-32749986D02*
X7479806Y-32749986D01*
%TO.N,CC1*%
X7373279Y45536979D02*
X7440244Y45470014D01*
X1249806Y41595014D02*
X1249806Y41957514D01*
X1249806Y42320014D02*
X1291856Y42362064D01*
X1291856Y42408585D02*
X1711332Y42652442D01*
X7811806Y45470014D02*
X8131806Y45470014D01*
X1291856Y42362064D02*
X1291856Y42408585D01*
X1711332Y42652442D02*
X2597494Y43538603D01*
X1249806Y41957514D02*
X1249806Y42320014D01*
X2597494Y43538603D02*
X2846253Y43538603D01*
X7440244Y45470014D02*
X7624025Y45470014D01*
X7624025Y45470014D02*
X7811806Y45470014D01*
%TO.N,USBC_DP*%
D30*
X249806Y41595014D02*
X249806Y40870014D01*
X249806Y41595014D02*
X249806Y42320014D01*
X249806Y40870014D02*
X249806Y40541170D01*
X5862306Y40034231D02*
X5862306Y39750014D01*
X5099899Y43681711D02*
X5099899Y40796638D01*
X5862306Y39750014D02*
X5862306Y39450014D01*
X249806Y40541170D02*
X108385Y40399748D01*
X4710404Y44071207D02*
X5099899Y43681711D01*
X-608772Y40399748D02*
X-750194Y40541170D01*
X-750194Y40870014D02*
X-750194Y41595014D01*
X249806Y42320014D02*
X249806Y42648858D01*
X5099899Y40796638D02*
X5862306Y40034231D01*
X-750194Y40541170D02*
X-750194Y40870014D01*
X1672155Y44071207D02*
X4710404Y44071207D01*
X249806Y42648858D02*
X1672155Y44071207D01*
X108385Y40399748D02*
X-608772Y40399748D01*
%TO.N,USBC_DM*%
X1228043Y43115938D02*
X1458724Y43115938D01*
X749806Y42320014D02*
X749806Y42637701D01*
X-250194Y42871995D02*
X-250194Y42320014D01*
X4873953Y44467048D02*
X5658232Y43682769D01*
X220779Y43969851D02*
X-250194Y43498878D01*
X5658232Y43682769D02*
X5658232Y40754270D01*
X749806Y42637701D02*
X1228043Y43115938D01*
X5658232Y40754270D02*
X6356127Y40056376D01*
X6787634Y37812841D02*
X6524806Y37550014D01*
X749806Y41595014D02*
X749806Y42320014D01*
X220779Y43969851D02*
X717976Y44467048D01*
X6193556Y37550014D02*
X5862306Y37550014D01*
X717976Y44467048D02*
X4873953Y44467048D01*
X6787634Y39869372D02*
X6787634Y37812841D01*
X6524806Y37550014D02*
X6193556Y37550014D01*
X6356127Y40056376D02*
X6600631Y40056376D01*
X-250194Y42320014D02*
X-250194Y41595014D01*
X6600631Y40056376D02*
X6787634Y39869372D01*
X-250194Y43498878D02*
X-250194Y42871995D01*
%TO.N,JOY_Y*%
D29*
X14800355Y46099966D02*
X31414564Y29485756D01*
X-18939704Y43772361D02*
X-18628153Y43460810D01*
X-11350118Y43460810D02*
X-9239590Y45571339D01*
X-9239590Y45571339D02*
X5666065Y45571339D01*
X32022806Y28877514D02*
X32325306Y28575014D01*
X-18628153Y43460810D02*
X-11350118Y43460810D01*
X31414564Y29485756D02*
X32022806Y28877514D01*
X6194692Y46099966D02*
X14800355Y46099966D01*
X5666065Y45571339D02*
X6194692Y46099966D01*
%TO.N,JOY_SW*%
X26414564Y23485756D02*
X23401419Y26498901D01*
X23401419Y26498901D02*
X20599631Y26498901D01*
X27325306Y22575014D02*
X27022806Y22877514D01*
X27022806Y22877514D02*
X26414564Y23485756D01*
%TO.N,LED_D11*%
X11579806Y-34249986D02*
X12254806Y-34249986D01*
X-12255194Y-32339986D02*
X-12255194Y-32749986D01*
X-12255194Y-31907601D02*
X-12255194Y-32339986D01*
X9508318Y-34249986D02*
X11147421Y-34249986D01*
X9154729Y-34603575D02*
X9508318Y-34249986D01*
X11147421Y-34249986D02*
X11579806Y-34249986D01*
%TO.N,SWDIO*%
X-18947061Y40782313D02*
X-18383725Y40218977D01*
X-18383725Y40218977D02*
X-16823465Y40218977D01*
%TO.N,SWCLK*%
X-25954613Y36784858D02*
X-21688320Y36784858D01*
X-20134670Y40437600D02*
X-19722458Y40437600D01*
X-19127202Y39842344D02*
X-19127202Y38542676D01*
X-20415766Y38763068D02*
X-20415766Y40156504D01*
X-20415766Y40156504D02*
X-20134670Y40437600D01*
X-21383279Y38024786D02*
X-21154048Y38024786D01*
X-21473769Y36999409D02*
X-21473769Y37934296D01*
X-21473769Y37934296D02*
X-21383279Y38024786D01*
X-28236811Y39067056D02*
X-25954613Y36784858D01*
X-21688320Y36784858D02*
X-21473769Y36999409D01*
X-28236811Y40554112D02*
X-28236811Y39067056D01*
X-19722458Y40437600D02*
X-19127202Y39842344D01*
X-21154048Y38024786D02*
X-20415766Y38763068D01*
%TO.N,UG_D0*%
X-28299534Y41250014D02*
X-27874556Y41674991D01*
X-30275194Y41250014D02*
X-29600194Y41250014D01*
X-29167809Y41250014D02*
X-28299534Y41250014D01*
X-29600194Y41250014D02*
X-29167809Y41250014D01*
%TO.N,UG_D3*%
X8949806Y42750014D02*
X8274806Y42750014D01*
X11868831Y40150480D02*
X9269297Y42750014D01*
X35459806Y41250014D02*
X35724806Y41250014D01*
X34890416Y41819405D02*
X35459806Y41250014D01*
X34619390Y41749577D02*
X34689218Y41819405D01*
X9269297Y42750014D02*
X8949806Y42750014D01*
X34689218Y41819405D02*
X34890416Y41819405D01*
X18104033Y40150480D02*
X11868831Y40150480D01*
%TO.N,UG_D13*%
X-42750194Y-35724986D02*
X-42750194Y-35049986D01*
X-42000194Y-25446786D02*
X-43389980Y-24057000D01*
X-42750194Y-34617601D02*
X-42000194Y-33867601D01*
X-42750194Y-35049986D02*
X-42750194Y-34617601D01*
X-43389980Y-24057000D02*
X-43389980Y-11409263D01*
X-42000194Y-33867601D02*
X-42000194Y-25446786D01*
X-41250194Y-9269477D02*
X-41250194Y-8949986D01*
X-41250194Y-8949986D02*
X-41250194Y-8274986D01*
X-43389980Y-11409263D02*
X-41250194Y-9269477D01*
%TO.N,KEY4*%
X-4133694Y12933514D02*
X-4525194Y13325014D01*
X-794917Y10329189D02*
X-1529369Y10329189D01*
X-1529369Y10329189D02*
X-3436451Y12236271D01*
X-3436451Y12236271D02*
X-4133694Y12933514D01*
%TO.N,USB_DM*%
D30*
X7084497Y36859704D02*
X7774806Y37550014D01*
X7774806Y37550014D02*
X8137306Y37550014D01*
X6621988Y36397196D02*
X7084497Y36859704D01*
X-7790723Y36397196D02*
X6621988Y36397196D01*
X-11607290Y40213763D02*
X-7790723Y36397196D01*
%TO.N,USB_DP*%
X8799806Y39450014D02*
X8137306Y39450014D01*
X9218913Y39137051D02*
X9218913Y39259339D01*
X9218913Y39259339D02*
X9028239Y39450014D01*
X9028239Y39450014D02*
X8799806Y39450014D01*
%TO.N,COL3*%
D29*
X-12467120Y40507035D02*
X-12467120Y40392062D01*
X-7699882Y35624823D02*
X-4317077Y35624823D01*
X-12648883Y40688797D02*
X-12467120Y40507035D01*
X-12467120Y40392062D02*
X-7699882Y35624823D01*
X-4317077Y35624823D02*
X-86945Y31394691D01*
%TO.N,COL2*%
X13097913Y-9761408D02*
X13251674Y-9915170D01*
X13508277Y-887284D02*
X13097913Y-1297648D01*
X13097913Y-1297648D02*
X13097913Y-9761408D01*
%TO.N,COL1*%
X-11676075Y23724569D02*
X-9204223Y21252717D01*
X-13063458Y23724569D02*
X-11676075Y23724569D01*
X-13316663Y29007303D02*
X-13316663Y23977774D01*
X-5433347Y-9742912D02*
X-5433347Y-15766001D01*
X-5136566Y19521744D02*
X-8860817Y19521744D01*
X-3507531Y-39116839D02*
X246299Y-35363009D01*
X-9204223Y21252717D02*
X-9204223Y19865149D01*
X-5092594Y19565716D02*
X-5136566Y19521744D01*
X-9204223Y19865149D02*
X-8860817Y19521744D01*
X-13316663Y23977774D02*
X-13063458Y23724569D01*
X246299Y-35363009D02*
X246299Y-25237167D01*
X246299Y-25237167D02*
X-4168695Y-20822172D01*
X-17775840Y33466481D02*
X-13316663Y29007303D01*
X-5433347Y-15766001D02*
X-3756947Y-17442401D01*
%TO.N,COL0*%
X-18711181Y20698154D02*
X-20791181Y18618154D01*
X-18711181Y33267643D02*
X-18711181Y20698154D01*
%TD*%
M02*
