M48
; DRILL file KiCad 10.0.4 date 2026-07-21T11:09:54
; FORMAT={-:-/ absolute / metric / decimal}
; #@! TF.CreationDate,2026-07-21T11:09:54+08:00
; #@! TF.GenerationSoftware,Kicad,Pcbnew,10.0.4
; #@! TF.FileFunction,Plated,1,4,PTH
FMAT,2
METRIC
; #@! TA.AperFunction,Plated,PTH,ViaDrill
T1C0.305
; #@! TA.AperFunction,Plated,PTH,ComponentDrill
T2C0.600
; #@! TA.AperFunction,Plated,PTH,ComponentDrill
T3C1.000
; #@! TA.AperFunction,Plated,PTH,ComponentDrill
T4C1.200
; #@! TA.AperFunction,Plated,PTH,ComponentDrill
T5C2.200
; #@! TA.AperFunction,Plated,PTH,ComponentDrill
T6C2.800
%
G90
G05
T1
X-45.93Y43.789
X-45.088Y-41.873
X-44.119Y17.398
X-43.814Y35.073
X-43.814Y7.997
X-43.766Y-7.484
X-43.157Y-9.385
X-43.111Y-31.384
X-43.028Y-25.449
X-43.002Y36.816
X-42.667Y14.819
X-41.021Y10.362
X-40.64Y-9.302
X-38.366Y8.833
X-38.09Y-36.026
X-37.71Y25.409
X-37.376Y46.486
X-35.285Y38.881
X-34.535Y-13.4
X-33.425Y-44.214
X-31.933Y1.817
X-31.374Y42.717
X-30.486Y-0.087
X-30.475Y-19.498
X-30.275Y-40.408
X-28.237Y40.554
X-28.21Y-33.72
X-27.875Y41.675
X-27.741Y-20.945
X-27.424Y46.486
X-26.518Y-20.827
X-26.208Y37.853
X-26.036Y41.518
X-25.641Y30.71
X-25.388Y42.76
X-24.878Y-12.339
X-24.755Y5.289
X-24.461Y18.33
X-24.364Y39.241
X-23.9Y40.492
X-23.865Y41.558
X-23.846Y-44.214
X-23.285Y-14.053
X-22.846Y7.69
X-22.104Y45.902
X-21.347Y45.344
X-21.25Y35.899
X-20.791Y18.618
X-20.342Y35.649
X-19.999Y42.173
X-19.915Y39.914
X-19.343Y41.39
X-19.145Y42.465
X-19.127Y38.543
X-18.947Y40.782
X-18.94Y43.772
X-18.711Y33.268
X-18.71Y-16.485
X-18.684Y35.676
X-18.487Y39.693
X-17.886Y-2.896
X-17.809Y46.523
X-17.776Y33.466
X-16.823Y40.219
X-16.81Y33.453
X-16.381Y-19.088
X-16.094Y14.696
X-15.863Y44.002
X-15.773Y19.073
X-14.998Y41.24
X-14.803Y25.052
X-14.688Y45.306
X-13.778Y-19.314
X-13.01Y-45.24
X-12.699Y38.99
X-12.649Y40.689
X-12.255Y-31.908
X-11.607Y40.214
X-11.551Y-0.01
X-11.536Y-38.457
X-11.163Y33.845
X-10.964Y6.705
X-10.608Y-41.746
X-9.132Y1.685
X-9.099Y-15.08
X-8.861Y19.522
X-8.656Y-32.201
X-8.305Y-13.618
X-8.117Y-40.416
X-7.906Y-32.706
X-7.898Y5.484
X-7.895Y22.586
X-7.888Y24.34
X-6.48Y43.085
X-6.292Y40.6
X-5.967Y38.22
X-5.949Y39.279
X-5.682Y14.649
X-5.474Y46.486
X-5.433Y-9.743
X-5.093Y19.566
X-4.169Y-20.822
X-3.796Y-11.982
X-3.757Y-17.442
X-3.724Y24.521
X-3.508Y-39.117
X-3.443Y-15.531
X-3.129Y-2.077
X-3.122Y-23.716
X-3.047Y42.738
X-0.795Y10.329
X-0.789Y6.956
X-0.763Y36.995
X-0.257Y6.227
X-0.234Y-30.276
X-0.193Y33.746
X-0.087Y31.395
X0.221Y43.97
X1.459Y43.116
X1.781Y-32.017
X2.597Y28.368
X2.846Y43.539
X2.96Y40.452
X4.772Y38.654
X5.13Y-10.607
X5.372Y7.569
X5.55Y46.486
X5.698Y-44.254
X6.375Y42.816
X6.62Y25.738
X6.71Y-1.155
X6.733Y32.386
X6.759Y17.798
X7.126Y-39.362
X7.21Y-20.303
X7.373Y45.537
X7.756Y-19.293
X7.971Y20.043
X8.882Y44.585
X9.155Y-34.604
X9.219Y39.137
X10.728Y23.0
X11.162Y5.426
X11.162Y-15.482
X11.528Y14.696
X12.369Y-3.38
X13.252Y-9.915
X13.359Y24.482
X13.508Y-0.887
X13.633Y43.595
X14.189Y-33.079
X14.217Y-14.216
X14.811Y-41.529
X15.089Y22.331
X16.116Y33.121
X16.183Y-21.946
X16.473Y-10.024
X17.651Y-42.272
X18.104Y40.15
X19.192Y42.739
X20.121Y5.37
X20.6Y26.499
X20.952Y-41.149
X21.752Y-31.381
X22.447Y1.369
X22.914Y14.696
X23.387Y-9.295
X25.203Y-38.838
X25.682Y25.25
X26.671Y-19.209
X26.686Y-0.337
X26.945Y-13.585
X27.466Y0.121
X27.515Y-19.534
X27.766Y34.165
X28.863Y-14.264
X30.192Y5.352
X30.198Y-32.714
X30.204Y-13.636
X30.237Y-40.42
X30.762Y-45.303
X34.304Y-30.007
X34.619Y41.75
X34.779Y-43.702
X34.808Y-13.541
X35.455Y22.688
X35.742Y43.814
X36.809Y-41.029
X38.164Y3.061
X40.401Y-30.578
X40.409Y43.828
X40.42Y14.134
X40.756Y-6.857
X41.009Y36.811
X43.309Y1.692
X43.479Y-20.477
X43.548Y-37.376
X43.638Y-2.192
X43.789Y36.461
X44.761Y-15.296
X44.807Y20.781
X44.807Y11.202
X45.087Y30.769
X46.452Y-5.425
T2
X-4.32Y46.69
X-4.32Y42.51
X4.32Y46.69
X4.32Y42.51
T3
X-35.575Y31.075
X-35.575Y28.575
X-35.575Y26.075
X-34.216Y45.23
X-31.676Y45.23
X-29.136Y45.23
X-26.596Y45.23
X-21.075Y31.075
X-21.075Y26.075
X24.825Y28.575
X27.325Y28.575
X27.325Y22.575
X29.825Y28.575
X29.825Y22.575
X32.325Y31.075
X32.325Y28.575
X32.325Y26.075
T4
X-28.575Y15.425
X-28.575Y-3.625
X-23.575Y13.325
X-23.575Y-5.725
X-9.525Y34.475
X-9.525Y15.425
X-9.525Y-3.625
X-9.525Y-22.675
X-4.525Y32.375
X-4.525Y13.325
X-4.525Y-5.725
X-4.525Y-24.775
X9.525Y34.475
X9.525Y15.425
X9.525Y-3.625
X9.525Y-22.675
X14.525Y32.375
X14.525Y13.325
X14.525Y-5.725
X14.525Y-24.775
X28.575Y15.425
X28.575Y-3.625
X28.575Y-22.675
X33.575Y13.325
X33.575Y-5.725
X33.575Y-24.775
T5
X-42.5Y42.5
X-42.5Y-42.5
X42.5Y42.5
X42.5Y-42.5
T6
X-28.075Y34.175
X-28.075Y22.975
M30
