%TF.GenerationSoftware,KiCad,Pcbnew,10.0.4*%
%TF.CreationDate,2026-07-30T09:24:51+08:00*%
%TF.ProjectId,openmicro,6f70656e-6d69-4637-926f-2e6b69636164,rev?*%
%TF.SameCoordinates,Original*%
%TF.FileFunction,Paste,Top*%
%TF.FilePolarity,Positive*%
%FSLAX46Y46*%
G04 Gerber Fmt 4.6, Leading zero omitted, Abs format (unit mm)*
G04 Created by KiCad (PCBNEW 10.0.4) date 2026-07-30 09:24:51*
%MOMM*%
%LPD*%
G01*
G04 APERTURE LIST*
%ADD10R,0.640000X0.540000*%
%ADD11R,0.540000X0.640000*%
%ADD12C,9.000000*%
%ADD13R,1.350000X0.820000*%
%ADD14R,0.600000X1.325000*%
%ADD15R,0.820000X1.350000*%
%ADD16R,0.800000X0.950000*%
G04 APERTURE END LIST*
D10*
%TO.C,C8*%
X12162573Y515874D03*
X12162573Y-504126D03*
%TD*%
D11*
%TO.C,R2*%
X-875708Y42964299D03*
X144292Y42964299D03*
%TD*%
D10*
%TO.C,C12*%
X12162573Y-18410107D03*
X12162573Y-19430107D03*
%TD*%
D11*
%TO.C,R3*%
X-504615Y39995518D03*
X515385Y39995518D03*
%TD*%
D10*
%TO.C,C10*%
X-25688990Y-18410107D03*
X-25688990Y-19430107D03*
%TD*%
D12*
%TO.C,TP1*%
X-28575000Y-28575000D03*
%TD*%
D13*
%TO.C,LED6*%
X-18558000Y-44250000D03*
X-18558000Y-42750000D03*
X-13108000Y-42750000D03*
X-13108000Y-44250000D03*
%TD*%
D10*
%TO.C,C19*%
X45932104Y12390999D03*
X45932104Y11370999D03*
%TD*%
%TO.C,C11*%
X-6763208Y-18410107D03*
X-6763208Y-19430107D03*
%TD*%
%TO.C,C13*%
X31088354Y-18410107D03*
X31088354Y-19430107D03*
%TD*%
D13*
%TO.C,LED1*%
X-13108000Y44250000D03*
X-13108000Y42750000D03*
X-18558000Y42750000D03*
X-18558000Y44250000D03*
%TD*%
D14*
%TO.C,U2*%
X-22986361Y-21633192D03*
X-22036361Y-21633192D03*
X-21086361Y-21633192D03*
X-21086361Y-19358192D03*
X-22986361Y-19358192D03*
%TD*%
D15*
%TO.C,LED8*%
X-44250000Y18558000D03*
X-42750000Y18558000D03*
X-42750000Y13108000D03*
X-44250000Y13108000D03*
%TD*%
D10*
%TO.C,C4*%
X12162573Y-37707185D03*
X12162573Y-38727185D03*
%TD*%
%TO.C,C27*%
X-41274927Y-28058646D03*
X-41274927Y-29078646D03*
%TD*%
%TO.C,C21*%
X-46099146Y-12750349D03*
X-46099146Y-11730349D03*
%TD*%
D11*
%TO.C,C14*%
X144292Y41479909D03*
X-875708Y41479909D03*
%TD*%
D13*
%TO.C,LED5*%
X13108000Y-44250000D03*
X13108000Y-42750000D03*
X18558000Y-42750000D03*
X18558000Y-44250000D03*
%TD*%
D11*
%TO.C,C18*%
X-12750708Y45933081D03*
X-11730708Y45933081D03*
%TD*%
%TO.C,R1*%
X-38356177Y-25317669D03*
X-37336177Y-25317669D03*
%TD*%
D10*
%TO.C,C9*%
X31088354Y515874D03*
X31088354Y-504126D03*
%TD*%
D11*
%TO.C,C20*%
X12761479Y-46099138D03*
X11741479Y-46099138D03*
%TD*%
%TO.C,C16*%
X-39933833Y-25317669D03*
X-40953833Y-25317669D03*
%TD*%
D10*
%TO.C,C3*%
X-6763208Y-37707185D03*
X-6763208Y-38727185D03*
%TD*%
D16*
%TO.C,C26*%
X-25016238Y-21395659D03*
X-26666238Y-21395659D03*
%TD*%
D10*
%TO.C,C1*%
X-6763208Y19441854D03*
X-6763208Y18421854D03*
%TD*%
D15*
%TO.C,LED4*%
X44250000Y-18558000D03*
X42750000Y-18558000D03*
X42750000Y-13108000D03*
X44250000Y-13108000D03*
%TD*%
D10*
%TO.C,C6*%
X-25688990Y515874D03*
X-25688990Y-504126D03*
%TD*%
D13*
%TO.C,LED2*%
X18558000Y44250000D03*
X18558000Y42750000D03*
X13108000Y42750000D03*
X13108000Y44250000D03*
%TD*%
D10*
%TO.C,C7*%
X-6763208Y515874D03*
X-6763208Y-504126D03*
%TD*%
D11*
%TO.C,C17*%
X-39840552Y-27915353D03*
X-38820552Y-27915353D03*
%TD*%
D10*
%TO.C,C2*%
X12162573Y19441854D03*
X12162573Y18421854D03*
%TD*%
D15*
%TO.C,LED3*%
X44250000Y13108000D03*
X42750000Y13108000D03*
X42750000Y18558000D03*
X44250000Y18558000D03*
%TD*%
%TO.C,LED7*%
X-44250000Y-13108000D03*
X-42750000Y-13108000D03*
X-42750000Y-18558000D03*
X-44250000Y-18558000D03*
%TD*%
D11*
%TO.C,C15*%
X-39933833Y-23833279D03*
X-40953833Y-23833279D03*
%TD*%
D10*
%TO.C,C5*%
X31088354Y-37707185D03*
X31088354Y-38727185D03*
%TD*%
M02*
