%TF.GenerationSoftware,KiCad,Pcbnew,10.0.4*%
%TF.CreationDate,2026-07-30T09:24:51+08:00*%
%TF.ProjectId,openmicro,6f70656e-6d69-4637-926f-2e6b69636164,rev?*%
%TF.SameCoordinates,Original*%
%TF.FileFunction,Paste,Bot*%
%TF.FilePolarity,Positive*%
%FSLAX46Y46*%
G04 Gerber Fmt 4.6, Leading zero omitted, Abs format (unit mm)*
G04 Created by KiCad (PCBNEW 10.0.4) date 2026-07-30 09:24:51*
%MOMM*%
%LPD*%
G01*
G04 APERTURE LIST*
%ADD10R,1.200000X0.900000*%
%ADD11R,1.350000X0.820000*%
%ADD12R,0.540000X0.640000*%
%ADD13R,0.600000X1.325000*%
%ADD14R,1.400000X1.200000*%
%ADD15R,0.300000X1.475000*%
%ADD16R,1.475000X0.300000*%
%ADD17R,0.600000X1.450000*%
%ADD18R,0.300000X1.450000*%
%ADD19R,1.000000X3.000000*%
G04 APERTURE END LIST*
D10*
%TO.C,D4*%
X14525000Y-37475000D03*
X14525000Y-34175000D03*
%TD*%
%TO.C,D2*%
X14525000Y18175000D03*
X14525000Y21475000D03*
%TD*%
%TO.C,D10*%
X-23575000Y-19925000D03*
X-23575000Y-16625000D03*
%TD*%
%TO.C,D7*%
X-4525000Y-875000D03*
X-4525000Y2425000D03*
%TD*%
%TO.C,D12*%
X14525000Y-19925000D03*
X14525000Y-16625000D03*
%TD*%
D11*
%TO.C,LED27*%
X-6805000Y-15210000D03*
X-6805000Y-13710000D03*
X-12255000Y-13710000D03*
X-12255000Y-15210000D03*
%TD*%
D12*
%TO.C,C28*%
X-36710000Y-33800000D03*
X-35690000Y-33800000D03*
%TD*%
D10*
%TO.C,D9*%
X33575000Y-875000D03*
X33575000Y2425000D03*
%TD*%
D11*
%TO.C,LED20*%
X12255000Y-34250000D03*
X12255000Y-32750000D03*
X6805000Y-32750000D03*
X6805000Y-34250000D03*
%TD*%
D13*
%TO.C,U1*%
X-950000Y38337500D03*
X0Y38337500D03*
X950000Y38337500D03*
X950000Y36062500D03*
X0Y36062500D03*
X-950000Y36062500D03*
%TD*%
D10*
%TO.C,D8*%
X14525000Y-875000D03*
X14525000Y2425000D03*
%TD*%
D11*
%TO.C,LED19*%
X-6805000Y-34250000D03*
X-6805000Y-32750000D03*
X-12255000Y-32750000D03*
X-12255000Y-34250000D03*
%TD*%
D10*
%TO.C,D5*%
X33575000Y-37475000D03*
X33575000Y-34175000D03*
%TD*%
%TO.C,D13*%
X33575000Y-19925000D03*
X33575000Y-16625000D03*
%TD*%
D11*
%TO.C,LED22*%
X-25845000Y3850000D03*
X-25845000Y5350000D03*
X-31295000Y5350000D03*
X-31295000Y3850000D03*
%TD*%
D14*
%TO.C,Y1*%
X-38400000Y-32300000D03*
X-40600000Y-32300000D03*
X-40600000Y-30700000D03*
X-38400000Y-30700000D03*
%TD*%
D15*
%TO.C,U3*%
X-37250000Y-28162500D03*
X-37750000Y-28162500D03*
X-38250000Y-28162500D03*
X-38750000Y-28162500D03*
X-39250000Y-28162500D03*
X-39750000Y-28162500D03*
X-40250000Y-28162500D03*
X-40750000Y-28162500D03*
X-41250000Y-28162500D03*
X-41750000Y-28162500D03*
X-42250000Y-28162500D03*
X-42750000Y-28162500D03*
D16*
X-44162500Y-26750000D03*
X-44162500Y-26250000D03*
X-44162500Y-25750000D03*
X-44162500Y-25250000D03*
X-44162500Y-24750000D03*
X-44162500Y-24250000D03*
X-44162500Y-23750000D03*
X-44162500Y-23250000D03*
X-44162500Y-22750000D03*
X-44162500Y-22250000D03*
X-44162500Y-21750000D03*
X-44162500Y-21250000D03*
D15*
X-42750000Y-19837500D03*
X-42250000Y-19837500D03*
X-41750000Y-19837500D03*
X-41250000Y-19837500D03*
X-40750000Y-19837500D03*
X-40250000Y-19837500D03*
X-39750000Y-19837500D03*
X-39250000Y-19837500D03*
X-38750000Y-19837500D03*
X-38250000Y-19837500D03*
X-37750000Y-19837500D03*
X-37250000Y-19837500D03*
D16*
X-35837500Y-21250000D03*
X-35837500Y-21750000D03*
X-35837500Y-22250000D03*
X-35837500Y-22750000D03*
X-35837500Y-23250000D03*
X-35837500Y-23750000D03*
X-35837500Y-24250000D03*
X-35837500Y-24750000D03*
X-35837500Y-25250000D03*
X-35837500Y-25750000D03*
X-35837500Y-26250000D03*
X-35837500Y-26750000D03*
%TD*%
D17*
%TO.C,J3*%
X-3200000Y41595000D03*
X-2400000Y41595000D03*
D18*
X-1250000Y41595000D03*
X-250000Y41595000D03*
X250000Y41595000D03*
X1250000Y41595000D03*
D17*
X2400000Y41595000D03*
X3200000Y41595000D03*
X3200000Y41595000D03*
X2400000Y41595000D03*
D18*
X1750000Y41595000D03*
X750000Y41595000D03*
X-750000Y41595000D03*
X-1750000Y41595000D03*
D17*
X-2400000Y41595000D03*
X-3200000Y41595000D03*
%TD*%
D11*
%TO.C,LED17*%
X-6805000Y22890000D03*
X-6805000Y24390000D03*
X-12255000Y24390000D03*
X-12255000Y22890000D03*
%TD*%
D19*
%TO.C,J2*%
X-2540000Y-45520000D03*
X-2540000Y-40480000D03*
X0Y-45520000D03*
X0Y-40480000D03*
X2540000Y-45520000D03*
X2540000Y-40480000D03*
%TD*%
D12*
%TO.C,C29*%
X-43310000Y-31500000D03*
X-42290000Y-31500000D03*
%TD*%
D11*
%TO.C,LED18*%
X12255000Y22890000D03*
X12255000Y24390000D03*
X6805000Y24390000D03*
X6805000Y22890000D03*
%TD*%
D10*
%TO.C,D6*%
X-23575000Y-875000D03*
X-23575000Y2425000D03*
%TD*%
D11*
%TO.C,LED25*%
X31295000Y3850000D03*
X31295000Y5350000D03*
X25845000Y5350000D03*
X25845000Y3850000D03*
%TD*%
%TO.C,LED29*%
X31295000Y-15210000D03*
X31295000Y-13710000D03*
X25845000Y-13710000D03*
X25845000Y-15210000D03*
%TD*%
%TO.C,LED21*%
X31295000Y-34250000D03*
X31295000Y-32750000D03*
X25845000Y-32750000D03*
X25845000Y-34250000D03*
%TD*%
%TO.C,LED24*%
X12255000Y3850000D03*
X12255000Y5350000D03*
X6805000Y5350000D03*
X6805000Y3850000D03*
%TD*%
%TO.C,LED28*%
X12255000Y-15210000D03*
X12255000Y-13710000D03*
X6805000Y-13710000D03*
X6805000Y-15210000D03*
%TD*%
D10*
%TO.C,D3*%
X-4525000Y-37475000D03*
X-4525000Y-34175000D03*
%TD*%
%TO.C,D1*%
X-4525000Y18175000D03*
X-4525000Y21475000D03*
%TD*%
D11*
%TO.C,LED26*%
X-25845000Y-15210000D03*
X-25845000Y-13710000D03*
X-31295000Y-13710000D03*
X-31295000Y-15210000D03*
%TD*%
%TO.C,LED23*%
X-6805000Y3850000D03*
X-6805000Y5350000D03*
X-12255000Y5350000D03*
X-12255000Y3850000D03*
%TD*%
D10*
%TO.C,D11*%
X-4525000Y-19925000D03*
X-4525000Y-16625000D03*
%TD*%
M02*
